<svg width="683" height="447" viewBox="0 0 683 447" fill="none" xmlns="http://www.w3.org/2000/svg">
<path d="M167.029 324.513C164.371 324.4 161.745 324.497 159.167 324.757C132.728 327.512 111.655 349.315 110.569 376.662C109.467 404.479 129.47 428.227 156.282 432.49C158.389 432.814 160.529 433.025 162.701 433.122C203.47 436.235 222.014 406.926 223.036 381.136C223.992 357.517 208.511 326.167 167.029 324.513Z" fill="#12172E"/>
<path d="M32.0762 328.377C32.0762 328.377 35.3831 351.769 50.6369 355.611C65.8908 359.452 183.075 363.456 183.075 363.456L181.016 315.604L32.0762 328.377Z" fill="#12172E"/>
<path d="M530.08 339.711L174.443 324.457L168.607 362.859C168.607 362.859 454.913 375.844 503.901 372.099C552.872 368.371 530.08 339.711 530.08 339.711Z" fill="#415D82"/>
<path d="M275.672 201.42C275.866 201.436 276.077 201.453 276.272 201.469L276.239 201.501C276.239 201.501 215.013 199.588 164.161 195.568C153.608 194.725 145.017 191.856 135.729 184.01C137.382 141.458 141.483 98.9875 147.983 56.8894C148.697 52.3343 149.702 47.2929 153.398 44.5209C156.056 42.5271 159.558 42.1542 162.865 41.83C200.797 38.28 238.729 34.73 284.344 43.5483C277.374 89.083 273.386 151.168 275.672 201.42Z" fill="#3B1C21"/>
<path d="M293.953 215.6C293.807 208.029 287.793 201.869 280.223 201.643C279.023 201.61 277.759 201.594 276.268 201.464L276.235 201.497C276.235 201.497 215.009 199.584 164.157 195.564C153.604 194.721 145.013 191.852 135.724 184.006C133.958 229.103 134.914 274.329 138.61 319.329C188.278 324.565 233.375 327.159 288.83 329.363C292.202 283.861 294.65 249.965 293.953 215.6Z" fill="#E0771B"/>
<path d="M270.291 333.956C270.291 333.956 199.03 361.189 184.117 360.605C172.916 360.168 170.743 300.903 170.371 271.4C170.225 261.593 170.306 255.077 170.306 255.077C170.306 255.077 264.504 255.579 270.404 263.36C270.744 263.814 271.036 264.462 271.312 265.289C275.608 278.776 270.291 333.956 270.291 333.956Z" fill="#A12848"/>
<path d="M271.296 265.289C268.994 263.457 265.654 263.717 262.639 263.603C254.097 263.263 194.07 269.066 170.371 271.4C170.225 261.593 170.306 255.077 170.306 255.077C170.306 255.077 264.504 255.579 270.404 263.36C270.744 263.814 271.036 264.462 271.296 265.289Z" fill="#DE5D66"/>
<path d="M682.488 394.542C681.467 420.349 662.922 449.641 622.153 446.528C619.981 446.447 617.825 446.236 615.734 445.896C588.906 441.633 568.903 417.885 570.021 390.068C571.107 362.737 592.197 340.934 618.62 338.163C621.197 337.887 623.823 337.806 626.482 337.919C667.948 339.589 683.428 370.94 682.488 394.542Z" fill="#212D4A"/>
<path d="M669.016 394.037C668.092 417.429 649.337 443.544 615.717 445.91C588.889 441.647 568.885 417.899 570.004 390.082C571.09 362.752 592.179 340.949 618.602 338.177C653.373 343.834 669.891 372.299 669.016 394.037Z" fill="#2B3B59"/>
<path d="M619.004 431.636C640.875 431.636 658.606 413.906 658.606 392.034C658.606 370.163 640.875 352.433 619.004 352.433C597.133 352.433 579.402 370.163 579.402 392.034C579.402 413.906 597.133 431.636 619.004 431.636Z" fill="#82A1B8"/>
<path d="M615.892 413.654C627.898 413.654 637.63 403.921 637.63 391.916C637.63 379.91 627.898 370.178 615.892 370.178C603.887 370.178 594.154 379.91 594.154 391.916C594.154 403.921 603.887 413.654 615.892 413.654Z" fill="#AECAD6"/>
<path d="M588.113 331.6L607.906 394.885C609.106 398.743 613.418 400.672 617.097 399.003C620.129 397.625 621.701 394.253 620.793 391.044L603.789 330.709" fill="#131C3B"/>
<path d="M682.441 350.576C661.222 334.123 630.73 334.479 607.355 341.644C604.372 342.568 601.633 343.59 599.104 344.724C581.872 352.44 574.643 365.003 565.954 380.954C555.855 366.624 556.147 339.651 576.085 321.122C591.647 306.646 614.034 299.19 634.896 303.177C635.01 303.194 635.107 303.226 635.22 303.242C636.388 303.453 637.538 303.729 638.673 304.004C655.791 308.43 670.591 320.847 678.032 336.635C678.032 336.652 678.048 336.652 678.048 336.652C680.139 341.061 681.647 345.729 682.441 350.576Z" fill="#FDBF4C"/>
<path d="M634.894 303.172C626.076 304.728 617.711 308.634 611.438 314.584C603.074 322.494 598.729 333.728 599.102 344.735C581.871 352.435 574.657 365.014 565.952 380.948C555.853 366.619 556.129 339.645 576.067 321.116C591.645 306.641 614.032 299.2 634.894 303.172Z" fill="#F7AA45"/>
<path d="M678.028 336.638C673.943 333.282 669.193 330.607 664.265 328.808C651.783 324.204 638.215 323.896 625.004 322.211C622.037 321.838 618.422 320.816 617.806 317.866C617.336 315.597 619.022 313.489 620.708 311.885C624.858 307.994 629.851 305.076 635.233 303.228C636.4 303.439 637.551 303.715 638.685 303.99C655.787 308.432 670.603 320.849 678.028 336.638Z" fill="#FFD363"/>
<path d="M428.839 33.6652L421.195 226.055L429.764 226.396L437.408 34.0056L428.839 33.6652Z" fill="#131C3B"/>
<path d="M420.219 195.419L414.059 348.509L482.498 349.028C482.498 349.028 485.449 242.445 483.974 238.344C483.325 236.545 433.56 234.81 433.56 234.81L433.851 195.695L420.219 195.419Z" fill="#CC6A14"/>
<path d="M330.465 237.99L324.727 217.159L421.551 208.908L425.798 259.484L332.929 264.785L330.465 237.99Z" fill="#E0771B"/>
<path d="M460.578 345.997L381.78 365.092L334.689 363.05L332.954 280.718L330.701 270.489C330.701 270.489 340.703 269.176 353.347 267.636C372.313 265.318 397.293 262.449 403.485 262.692C413.795 263.097 462.069 263.389 463.026 267.069C463.123 267.426 463.172 268.382 463.22 269.841C463.658 283.36 460.578 345.997 460.578 345.997Z" fill="#A12848"/>
<path d="M463.32 277.233L378.605 284.041L363.335 285.079L353.365 267.636C372.331 265.318 397.311 262.449 403.504 262.692C413.813 263.097 462.088 263.389 463.044 267.069C463.141 267.426 463.271 275.758 463.32 277.233Z" fill="#DE5D66"/>
<path d="M445.313 279.092C434.306 280.388 424.224 287.78 419.685 297.879C419.523 294.832 417.464 292.19 415.065 290.325C412.666 288.461 409.894 286.451 407.397 284.7C400.93 280.145 396.763 273.159 396.553 265.248C403.896 269.836 412.876 270.776 421.468 271.846C430.059 272.916 439.072 274.391 445.313 279.092Z" fill="#383C80"/>
<path d="M468.471 188.084C468.471 188.084 493.337 200.972 511.347 206.224L509.726 229.842C509.726 229.842 484.421 225.449 458.631 214.361L468.471 188.084Z" fill="#E1915A"/>
<path d="M429.164 189.261C432.163 181.594 435.178 173.943 439.911 164.914C440.592 165.157 441.257 165.384 441.938 165.627C446.655 167.264 450.967 169.825 454.744 173.1C460.936 178.481 467.582 183.49 474.569 188.597C469.965 197.674 465.929 208.325 461.017 218.262C455.117 216.17 444.029 212.555 433.217 208.714C433.136 201.63 431.66 197.918 429.164 189.261Z" fill="#707DC4"/>
<path d="M470.601 331.255C470.601 331.255 466.257 344.207 467.473 346.282C468.688 348.357 498.159 351.032 499.699 348.049C501.239 345.066 491.982 338.323 491.204 337.496C490.41 336.669 489.129 333.573 489.129 333.573L470.601 331.255Z" fill="#E1915A"/>
<path d="M466.791 344.743C466.759 346.396 466.71 348.05 466.678 349.687C477.263 352.945 488.643 353.626 499.536 351.648C499.633 350.157 499.747 348.666 499.844 347.255C488.886 348.358 477.717 347.304 466.791 344.743Z" fill="#66253F"/>
<path d="M475.559 348.51C476.126 345.106 477.974 341.945 480.665 339.773C483.356 337.601 486.825 336.466 490.975 336.271C492.434 337.519 493.876 338.784 495.74 340.551C492.028 340.875 488.543 343.193 486.809 346.484C486.274 347.489 485.787 348.688 484.701 349.061C484.15 349.24 483.566 349.158 482.999 349.077C480.438 348.737 477.893 348.38 475.559 348.51Z" fill="#66253F"/>
<path d="M447.304 334.957C447.304 334.957 442.96 347.909 444.176 349.984C445.391 352.059 474.862 354.734 476.402 351.751C477.942 348.768 468.686 342.025 467.907 341.198C467.113 340.371 465.833 337.275 465.833 337.275L447.304 334.957Z" fill="#E1915A"/>
<path d="M443.49 348.428C443.458 350.081 443.409 351.735 443.377 353.372C453.962 356.63 465.342 357.311 476.235 355.333C476.332 353.842 476.446 352.351 476.543 350.94C465.585 352.059 454.416 351.005 443.49 348.428Z" fill="#66253F"/>
<path d="M452.262 352.204C452.829 348.799 454.677 345.638 457.368 343.466C460.059 341.294 463.528 340.159 467.678 339.965C469.137 341.213 470.579 342.477 472.444 344.244C468.731 344.569 465.246 346.887 463.512 350.177C462.977 351.182 462.49 352.382 461.404 352.755C460.853 352.933 460.27 352.852 459.702 352.771C457.141 352.414 454.596 352.058 452.262 352.204Z" fill="#66253F"/>
<path d="M442.928 237.402C442.928 237.402 488.106 244.405 491.916 250.289C495.725 256.173 488.625 335.101 488.625 335.101L465.704 331.551L458.02 282.499L412.891 246.966" fill="#9D3E52"/>
<path d="M382.609 249.237C382.609 249.237 382.626 269.322 397.15 276.065C410.605 282.306 445.165 287.818 445.165 287.818L443.965 336.902L470.437 340.939C470.437 340.939 483.47 274.963 477.196 265.739C470.923 256.499 421.498 244.439 421.498 244.439L382.609 249.237Z" fill="#9D3E52"/>
<path d="M472.22 331.33C474.749 311.456 476.873 292.296 478.948 270.314C479.321 266.359 478.607 261.755 474.798 260.216C465.185 256.309 455.605 253.829 446.316 251.494" stroke="#66253F" stroke-miterlimit="10" stroke-linecap="round"/>
<path d="M452.994 280.697C450.336 280.746 447.758 282.269 446.445 284.571" stroke="#66253F" stroke-miterlimit="10" stroke-linecap="round"/>
<path d="M447.775 287.562C450.223 286.314 453.19 286.07 455.799 286.93" stroke="#66253F" stroke-miterlimit="10" stroke-linecap="round"/>
<path d="M340.784 197.557L337.721 191.252C337.721 191.252 355.325 178.964 369.963 175.187L377.16 200.346L340.784 197.557Z" fill="#E1915A"/>
<path d="M484.578 246.393C473.215 244.48 473.004 252.342 469.276 253.639C461.43 256.378 443.566 252.261 439.595 274.728C436.791 274.712 433.646 274.615 430.323 274.388C417.922 273.512 402.976 270.692 393.947 262.911C395.714 273.529 408.487 282.541 417.987 291.554C420.904 294.31 423.498 297.066 425.379 299.886C423.368 299.951 421.131 298.93 419.348 298.071C418.197 295.834 416.82 293.905 415.296 292.17C404.127 279.494 384.626 277.922 381.368 253.152C379.098 235.759 382.924 203.516 382.924 203.516L366.47 203.192C372.711 185.685 353.551 181.243 353.551 181.243C380.979 165.568 410.805 161.516 410.805 161.516C421.991 163.947 440.519 159.246 446.468 175.165C448.365 187.452 434.051 227.605 446.241 233.278C452.758 236.31 462.419 238.855 470.427 241.076C477.673 243.102 483.59 244.836 484.578 246.393Z" fill="#707DC4"/>
<path d="M448.226 178.291C447.334 189.184 445.324 199.98 442.244 210.468" stroke="#444594" stroke-miterlimit="10" stroke-linecap="round"/>
<path d="M454.48 192.385C452.535 198.22 448.644 203.391 443.57 206.877" stroke="#444594" stroke-miterlimit="10" stroke-linecap="round"/>
<path d="M400.324 176.388C402.172 186.795 398.767 197.948 391.359 205.713" stroke="#444594" stroke-miterlimit="10" stroke-linecap="round"/>
<path d="M420.848 235.621C429.358 240.079 439.246 241.846 448.762 240.63" stroke="#444594" stroke-miterlimit="10" stroke-linecap="round"/>
<path d="M425.38 299.875C423.37 299.94 421.133 298.919 419.349 298.059C418.199 295.822 416.821 293.893 415.297 292.159C416.205 292.062 417.112 291.835 417.988 291.543C420.906 294.315 423.499 297.071 425.38 299.875Z" fill="#E3D2BB"/>
<path d="M484.582 246.407C473.219 244.494 473.008 252.356 469.279 253.653C461.434 256.392 443.57 252.275 439.598 274.742C436.794 274.726 433.649 274.629 430.326 274.402C431.428 270.203 432.239 265.908 433.747 261.855C435.497 257.122 438.448 252.534 442.954 250.232C447.655 247.833 453.264 248.239 458.321 246.747C462.601 245.467 466.345 242.905 470.398 241.106C477.676 243.116 483.593 244.851 484.582 246.407Z" fill="#E3D2BB"/>
<path d="M407.455 165.234C407.455 165.234 415.771 183.73 423.26 184.021C430.749 184.313 436.78 167.876 436.78 167.876L407.455 165.234Z" fill="#D47248"/>
<path d="M402.549 215.67C404.494 201.437 404.332 186.929 402.873 172.729C408.693 176.668 414.074 181.272 419.002 187.594C419.764 205.263 420.51 222.948 421.272 240.617C420.218 238.413 417.252 237.797 414.885 238.429C412.518 239.061 410.508 240.569 408.32 241.655C406.131 242.741 403.424 243.341 401.301 242.125C401.884 234.004 401.171 225.801 402.549 215.67Z" fill="#FDBF4C"/>
<path d="M444.017 164.578C448.167 164.383 452.301 167.139 453.711 171.046C454.83 178.924 452.268 187.37 447.259 194.016C442.234 200.646 434.599 209.756 426.672 207.211C415.341 203.58 410.089 190.758 403.427 182.377C399.05 176.882 396.489 170.479 390.442 166.896C387.46 166.896 385.028 167.674 382.516 168.533C384.396 163.378 391.026 161.06 396.067 163.249C397.818 160.736 401.028 159.31 404.902 159.991C413.007 166.167 416.849 177.806 426.332 181.729C429.963 183.22 433.837 179.005 436.204 175.877C438.571 172.748 439.673 168.695 439.203 164.805C439.705 164.837 440.208 164.756 444.017 164.578Z" fill="#FDBF4C"/>
<path d="M397.301 165.433C401.937 167.314 405.455 171.172 408.405 175.224C411.355 179.261 413.884 183.637 417.369 187.22C420.854 190.802 425.539 193.607 430.548 193.412" stroke="#D17B26" stroke-miterlimit="10" stroke-linecap="round" stroke-linejoin="round"/>
<path d="M445.993 166.747C447.371 170.589 447.225 174.95 445.604 178.694C443.983 182.439 440.887 185.519 437.143 187.14" stroke="#D17B26" stroke-miterlimit="10" stroke-linecap="round" stroke-linejoin="round"/>
<path d="M405 184.185C408.631 190.539 413.267 196.31 418.665 201.254" stroke="#D17B26" stroke-miterlimit="10" stroke-linecap="round" stroke-linejoin="round"/>
<path d="M399.03 198.947C390.536 196.678 364 193.711 346.801 189.107C342.375 187.924 337.545 189.902 335.632 194.116C334.108 197.472 333.703 201.557 334.432 205.237C335.308 209.759 338.598 213.958 343.105 214.509C359.072 216.454 382.885 215.676 394.135 214.784C396.161 209.257 397.977 203.956 399.03 198.947Z" fill="#E1915A"/>
<path d="M384.068 203.868C386.613 202.231 389.272 200.74 392.109 199.313C393.94 198.389 396.048 198.162 398.025 198.697C399.306 199.038 400.587 199.41 401.9 199.832C402.629 200.059 403.31 200.432 403.91 200.902C408.06 204.192 411.918 208.002 414.365 212.703C416.991 217.728 417.818 223.953 415.484 229.124C414.949 230.291 413.879 231.572 412.647 231.231C411.82 231.004 411.366 230.145 411.058 229.351C410.005 226.563 409.794 223.45 410.491 220.532C412.404 223.969 412.55 228.329 410.864 231.88C410.442 232.787 409.859 233.679 409 234.181C408.141 234.7 406.925 234.716 406.195 234.019C405.482 233.322 405.45 232.188 405.515 231.183C405.709 227.746 406.244 224.309 407.103 220.97C408.497 225.168 407.816 229.999 405.288 233.63C404.672 234.522 403.91 235.365 402.905 235.77C401.9 236.175 400.603 235.997 399.954 235.122C399.484 234.506 399.436 233.679 399.436 232.901C399.42 229.043 400.165 225.185 401.624 221.618C402.37 225.622 401.462 229.918 399.16 233.274C398.495 234.23 397.685 235.17 396.583 235.559C395.48 235.948 394.07 235.64 393.519 234.603C393.033 233.679 393.373 232.56 393.746 231.588C394.654 229.205 395.788 226.514 396.777 223.337C391.298 218.085 387.618 212.233 384.068 203.868Z" fill="#E1915A"/>
<path d="M399.953 232.662C401.363 229.776 402.125 226.551 402.141 223.341" stroke="#B54D3E" stroke-miterlimit="10" stroke-linecap="round"/>
<path d="M405.771 231.862C407.085 228.62 407.765 225.119 407.765 221.618" stroke="#B54D3E" stroke-miterlimit="10" stroke-linecap="round"/>
<path d="M411.459 229.585C412.821 226.213 413.242 222.452 412.659 218.853" stroke="#B54D3E" stroke-miterlimit="10" stroke-linecap="round"/>
<path d="M366.854 192.497C363.401 191.751 359.916 191.152 356.398 190.714" stroke="#B54D3E" stroke-miterlimit="10" stroke-linecap="round"/>
<path d="M448.471 145.257C449.492 142.729 450.578 140.103 452.669 138.222C454.761 136.342 458.149 135.434 460.71 136.828C463.271 138.222 464.146 141.318 463.968 144.025C463.725 147.932 461.828 151.677 458.765 154.286C455.701 156.896 451.502 158.323 447.271 158.209" fill="#D47248"/>
<path d="M395.219 145.448C383.417 131.232 388.491 87.2696 423.781 86.6536C453.267 88.4367 464.858 118.572 452.684 144.216C461.47 182.926 402.562 185.001 395.219 145.448Z" fill="#E1915A"/>
<path d="M421.901 154.464C421.901 154.464 419.81 163.915 427.753 166.071C435.485 168.178 438.533 157.139 438.533 157.139C438.533 157.139 428.79 152.098 421.901 154.464Z" fill="white"/>
<path d="M416.748 141.677C417.858 141.677 418.758 140.777 418.758 139.667C418.758 138.557 417.858 137.657 416.748 137.657C415.638 137.657 414.738 138.557 414.738 139.667C414.738 140.777 415.638 141.677 416.748 141.677Z" fill="#1C233D"/>
<path d="M440.707 141.933C441.817 141.933 442.717 141.033 442.717 139.923C442.717 138.813 441.817 137.913 440.707 137.913C439.597 137.913 438.697 138.813 438.697 139.923C438.697 141.033 439.597 141.933 440.707 141.933Z" fill="#1C233D"/>
<path d="M429.782 149.55C427.594 147.151 423.817 146.357 420.85 147.686C419.246 148.415 417.916 149.664 416.311 150.377C414.707 151.106 412.518 151.106 411.481 149.696C410.395 151.868 411.173 154.656 412.891 156.375C414.609 158.093 417.041 158.936 419.456 159.276C422.277 159.682 425.308 159.438 427.691 157.866C430.042 156.31 432.457 152.5 429.782 149.55Z" fill="#54231D"/>
<path d="M430.57 149.589C432.937 147.369 436.779 146.882 439.632 148.438C441.172 149.281 442.404 150.643 443.943 151.486C445.483 152.329 447.656 152.523 448.823 151.194C449.747 153.447 448.726 156.155 446.894 157.743C445.062 159.332 442.549 159.964 440.134 160.11C437.297 160.288 434.282 159.818 432.045 158.051C429.776 156.317 427.668 152.313 430.57 149.589Z" fill="#54231D"/>
<path d="M436.56 141.836C436.981 144.057 437.289 146.586 435.863 148.337C434.858 149.585 433.172 150.12 431.583 150.12C429.979 150.12 428.422 149.633 426.899 149.147C426.04 148.872 425.164 148.596 424.402 148.126C423.64 147.64 422.992 146.926 422.781 146.051C427.644 144.706 432.443 143.085 436.56 141.836Z" fill="#E1915A"/>
<path d="M423.265 146.33C425.015 148.616 428.079 149.524 430.965 149.54C432.326 149.556 433.769 149.362 434.839 148.519C436.249 147.4 436.638 145.39 436.46 143.591C436.282 141.791 435.649 140.073 435.26 138.176C436.363 140.089 437.497 142.051 437.822 144.239C438.146 146.427 437.465 148.908 435.601 150.091C434.223 150.966 432.488 151.015 430.851 150.934C429.084 150.837 427.285 150.626 425.712 149.832C424.124 149.021 422.811 147.514 423.265 146.33Z" fill="#D47248"/>
<path d="M439.41 122.341C440.577 120.234 442.344 118.515 444.452 117.786C446.559 117.072 448.99 117.445 450.774 119.002C452.557 120.558 453.529 123.33 452.962 125.761C449.363 121.757 443.576 120.606 439.41 122.341Z" fill="#54231D"/>
<path d="M422.243 122.21C421.271 119.714 419.407 117.607 417.024 116.666C414.657 115.742 411.804 116.067 409.713 117.736C407.622 119.406 406.455 122.421 407.071 125.063C410.556 121.011 416.375 119.519 422.243 122.21Z" fill="#54231D"/>
<path d="M400.082 104.406C397.521 110.388 399.369 118.282 400.795 123.68C400.179 128.803 398.947 138.286 396.613 146.212C393.452 145.288 394.425 146.342 392.026 144.867C387.389 132.239 382.121 117.131 383.726 103.952C386.255 98.4731 391.442 95.7498 396.548 94.1612C398.121 88.2607 402.968 83.6083 408.56 81.1768C414.153 78.7452 420.426 78.2914 426.505 78.6642C438.76 79.4261 450.804 83.4948 460.725 91.2758C461.179 94.534 460.968 97.8734 460.206 101.18C461.535 103.288 462.54 105.606 463.61 109.723C462.184 120 459.331 130.067 455.229 138.14C456.299 131.234 457.823 123.242 456.867 116.515C455.456 106.594 449.361 96.7873 441.078 92.8482C415.255 80.5446 402.092 99.7375 400.082 104.406Z" fill="#54231D"/>
<path d="M398.269 144.278C397.134 142.089 395.934 139.82 393.859 138.231C391.785 136.643 388.607 135.946 386.354 137.259C384.101 138.572 383.55 141.311 383.906 143.694C384.425 147.115 386.468 150.357 389.499 152.545C392.53 154.733 396.502 155.868 400.376 155.625" fill="#E1915A"/>
<path d="M332.581 55.3876L324.938 247.778L333.506 248.118L341.15 55.7281L332.581 55.3876Z" fill="#2B3B59"/>
<path d="M323.961 217.142L318.773 367.038C332.358 368.108 370.727 370.102 386.305 369.064C386.305 369.064 389.191 264.168 387.7 260.083C387.051 258.283 337.286 256.549 337.286 256.549L337.577 217.434L323.961 217.142Z" fill="#FDBF4C"/>
<path d="M628.151 252.831C627.908 271.911 627.341 287.165 627.341 287.165C627.341 287.165 596.379 302.856 577.397 330.446C558.399 358.003 556.161 370.566 545.284 374.911C543.436 375.64 537.601 376.208 528.944 376.58C486.652 378.493 376.892 376.661 334.437 374.976C283.294 372.949 163.37 365.882 152.996 364.082C142.621 362.299 142.021 327.042 87.1497 322.438C43.3009 318.758 26.6043 350.579 23.5568 359.965L6.94127 354.34C6.94127 354.34 7.34652 348.034 9.34039 340.513C7.81662 335.731 6.30907 327.885 5.85518 315.176C5.53098 306.147 7.6221 280.502 11.2208 248.406C12.858 233.817 14.8033 217.866 16.9592 201.558C88.8194 209.42 172.594 210.49 195.985 210.603C195.985 210.603 195.985 210.603 196.002 210.603C200.103 210.636 202.34 210.636 202.34 210.636L202.583 210.36C204.253 210.506 214.109 211.835 217.869 222.534C221.014 231.482 218.275 306.99 216.783 342.198C216.686 344.387 216.605 346.413 216.54 348.261C216.216 355.653 215.989 360.159 215.989 360.159C281.187 367.632 409.637 370.599 488.775 369.788C490.98 359.689 492.893 348.958 494.498 337.838C500.868 294.492 503.203 244.661 503.689 199.629C503.705 198.04 503.721 196.5 503.721 194.961C504.272 124.284 500.333 66.5914 500.333 66.5914L499.134 66.5427L500.042 65.716C502.035 62.1336 504.564 58.4862 507.45 55.0497C514.971 46.134 524.924 38.6935 534.018 37.5588C541.216 41.4006 545.463 45.4532 548.64 49.4571C549.321 50.3163 549.937 51.143 550.537 52.0021C550.893 52.5047 551.217 52.991 551.558 53.4773C553.438 56.2654 555.108 59.0212 557.231 61.5986C564.137 70.0766 597.238 121.528 615.297 160.125C615.734 161.032 616.14 161.924 616.545 162.816C616.788 163.367 617.031 163.918 617.274 164.453C621.991 174.957 625.428 184.262 626.644 191.2C626.822 192.237 626.968 193.226 627.065 194.182C627.065 194.361 627.098 194.555 627.098 194.734C627.146 195.187 627.179 195.641 627.227 196.095C627.649 201.574 627.892 208.01 628.07 214.834C628.346 227.073 628.297 240.706 628.151 252.831Z" fill="#FDBF4C"/>
<path d="M216.777 342.2C216.68 344.388 216.599 346.415 216.534 348.263C214.005 347.452 211.493 346.642 208.98 345.847C212.757 313.443 213.892 280.731 212.352 248.148C211.865 238.098 210.958 227.529 205.203 219.278C202.739 215.744 199.578 212.907 196.012 210.621C200.113 210.654 202.35 210.654 202.35 210.654L202.593 210.378C204.263 210.524 214.119 211.853 217.879 222.552C221.008 231.484 218.268 306.991 216.777 342.2Z" fill="#FFD363"/>
<path opacity="0.6" d="M627.337 287.162C627.337 287.162 596.376 302.853 577.377 330.427C558.379 358.001 556.142 370.564 545.281 374.892C543.433 375.621 537.597 376.189 528.941 376.578C486.648 378.49 376.889 376.659 334.434 374.973C283.274 372.947 163.367 365.879 152.992 364.079C142.618 362.296 142.018 327.039 87.1462 322.435C43.2974 318.756 26.6008 350.56 23.5371 359.946L6.93774 354.337C6.93774 354.337 7.32679 348.031 9.32065 340.51C7.79689 335.728 6.28933 327.882 5.83544 315.173C5.51124 306.144 7.61858 280.499 11.201 248.403C14.2486 251.564 17.6527 254.401 21.2838 256.768C37.5589 267.385 57.4165 270.708 76.6743 273.367C95.9321 276.025 115.741 278.408 132.908 287.567C153.689 298.655 168.506 318.577 188.655 330.767C197.571 336.165 206.989 339.829 216.78 342.196C216.326 353.105 215.985 360.14 215.985 360.14C281.183 367.613 409.633 370.564 488.772 369.769C490.976 359.67 492.873 348.955 494.494 337.819C509.116 335.193 523.348 331.043 537.095 324.608C581.592 303.794 612.051 261.955 628.034 214.832C628.812 246.409 627.337 287.162 627.337 287.162Z" fill="#F7AA45"/>
<path d="M628.144 252.831C613.863 277.6 593.681 298.998 569.496 314.235C578.233 294.297 586.987 274.342 595.74 254.387C581.605 251.907 571.911 249.751 563.028 245.747C560.029 244.418 556.609 241.678 557.727 238.582C558.521 236.41 561.131 235.632 563.384 235.129C572.722 233.087 582.026 231.044 591.363 229.002C593.536 214.802 594.265 202.806 593.39 190.956C585.285 138.095 557.922 86.935 517.153 50.4295C513.813 51.1103 510.539 52.7638 507.459 55.017C514.981 46.1013 524.934 38.6608 534.028 37.5261C541.225 41.368 545.472 45.4205 548.649 49.4245C549.33 50.2836 549.946 51.1103 550.546 51.9695C550.903 52.472 551.227 52.9583 551.567 53.4446C553.448 56.2328 555.117 58.9885 557.241 61.566C564.146 70.0439 597.248 121.495 615.306 160.092C615.744 161 616.149 161.891 616.554 162.783C616.797 163.334 617.04 163.885 617.284 164.42C622.001 174.924 625.437 184.229 626.653 191.167C626.831 192.205 626.977 193.193 627.075 194.15C627.075 194.328 627.107 194.523 627.107 194.701C627.156 195.155 627.188 195.609 627.237 196.063C627.658 201.542 627.901 207.977 628.08 214.802C628.339 227.073 628.29 240.706 628.144 252.831Z" fill="#FFD363"/>
<path d="M627.332 287.14C627.332 287.14 596.37 302.831 577.372 330.405C558.373 357.979 556.136 370.542 545.276 374.87C543.428 375.599 537.592 376.167 528.936 376.556C567.111 352.872 619.438 266.536 620.329 196.978C622.258 196.638 624.576 195.86 627.089 194.693C629.601 224.925 627.332 287.14 627.332 287.14Z" fill="#2B3B59"/>
<path d="M627.201 196.072C619.712 199.428 610.797 200.044 602.594 200.303C571.957 201.243 540.93 201.081 510.26 199.866C508.072 199.785 505.884 199.687 503.695 199.59C503.712 198.018 503.728 196.461 503.728 194.921C536.472 196.397 569.687 196.64 602.448 195.651C610.683 195.408 619.647 194.759 626.634 191.161C626.829 192.214 626.958 193.203 627.039 194.143C627.055 194.338 627.072 194.516 627.072 194.711C627.12 195.148 627.153 195.602 627.201 196.072Z" fill="#131C3B"/>
<path d="M596.355 207.704C595.901 207.413 595.399 207.007 594.848 206.553C593.356 205.338 591.444 204.754 589.515 204.932C577.989 205.937 565.702 206.1 553.706 206.164C550.286 206.181 547.384 208.79 547.108 212.195C546.833 215.696 546.93 219.311 547.352 222.764C547.741 225.86 550.237 228.259 553.333 228.567C567.242 229.945 580.777 229.961 594.459 227.27C596.258 226.914 597.766 225.633 598.398 223.898C600.392 218.5 601.85 211.157 596.355 207.704Z" fill="#2B3B59"/>
<path d="M549.006 220.095C549.006 218.199 549.055 216.253 549.184 214.195C549.411 210.466 552.491 207.532 556.236 207.597C568.248 207.792 580.324 207.305 592.644 206.462C596.502 206.203 599.874 209.137 600.085 213.011C600.182 214.892 600.247 216.805 600.263 218.717C600.311 222.154 597.896 225.153 594.508 225.736C583.356 227.617 566.432 228.006 555.425 227.098C551.794 226.774 548.99 223.726 549.006 220.095Z" fill="#E85C20"/>
<path d="M551.531 219.554C551.45 218.257 551.418 216.928 551.434 215.615C551.466 211.886 554.595 209.341 558.323 209.406C564.045 209.504 569.784 209.228 575.457 209.52C572.248 219.311 578.165 223.055 583.433 225.049C575.393 225.989 566.898 226.346 558.955 226.151C555.049 226.054 551.79 223.444 551.531 219.554Z" fill="#CC2E0E"/>
<path d="M592.038 208.69C584.225 209.095 576.428 209.501 568.615 209.89C568.128 209.922 567.626 209.955 567.221 210.214C566.248 210.862 566.572 212.483 567.512 213.164C568.453 213.845 569.717 213.845 570.868 213.813C577.255 213.683 583.625 213.553 590.012 213.407C591.001 213.391 592.038 213.359 592.946 212.953C593.854 212.548 594.632 211.673 594.583 210.668C594.551 209.711 593.416 208.836 592.038 208.69Z" fill="#FFAD7A"/>
<path d="M616.538 162.777C614.771 163.247 612.972 163.685 611.172 164.106C607.428 164.982 603.651 165.76 599.857 166.408C583.988 169.196 567.794 170.072 551.713 169.018C550.546 168.937 549.411 168.872 548.244 168.759H548.228L547.061 168.661C544.645 167.883 542.587 166.846 540.787 165.614C537.967 163.717 535.794 161.367 533.93 158.773C532.277 152.808 530.737 146.794 529.359 140.764C524.48 119.787 521.254 98.5682 519.795 77.1868C520.946 71.7402 523.394 67.2986 526.765 63.7485C528.856 60.4741 531.936 58.1722 535.486 56.4701C538.566 54.995 541.954 53.9413 545.342 53.1308C545.504 53.0984 545.634 53.0659 545.796 53.0173C547.352 52.6607 548.925 52.3203 550.513 51.9799C550.87 52.4824 551.194 52.9687 551.518 53.4712C552.523 54.9625 553.464 56.4377 554.452 57.8804C555.312 59.1448 556.203 60.393 557.192 61.5926C557.889 62.4517 558.845 63.7323 560.029 65.402V65.4182C568.264 76.9923 587.262 106.819 602.954 135.836C606.471 142.352 609.827 148.804 612.858 155.012C613.685 156.731 614.495 158.416 615.29 160.102C615.727 160.994 616.149 161.886 616.538 162.777Z" fill="#3C5B7D"/>
<path d="M540.803 165.616C537.983 163.72 535.81 161.369 533.946 158.776C532.293 152.81 530.753 146.796 529.375 140.766C533.736 113.257 535.778 85.2134 535.502 56.4564C538.582 54.9813 541.97 53.9276 545.358 53.1171C545.52 53.0846 545.65 53.0522 545.812 53.0036C547.012 90.5952 545.326 128.284 540.803 165.616Z" fill="#6C9DBA"/>
<path d="M551.725 169.02C550.558 168.939 549.423 168.874 548.256 168.761C554.643 132.207 556.734 94.9069 554.481 57.8665C555.34 59.1309 556.231 60.379 557.22 61.5786C557.917 62.4377 558.874 63.7184 560.057 65.388V65.4042C559.684 100.094 556.896 134.736 551.725 169.02Z" fill="#6C9DBA"/>
<path d="M612.874 154.993C612.356 158.04 611.788 161.071 611.172 164.086C607.428 164.962 603.651 165.74 599.857 166.388C601.965 156.338 603.002 146.077 602.97 135.8C606.487 142.332 609.843 148.784 612.874 154.993Z" fill="#6C9DBA"/>
<path d="M617.266 164.416C594.669 169.474 570.402 172.019 550.934 171.289H550.869C541.029 170.9 532.519 163.946 530.152 154.35C524.981 133.341 520.718 109.593 517.46 83.77C516.033 72.4391 521.788 61.3512 531.806 56.1315C537.236 53.2947 542.877 51.0577 548.616 49.4205C549.702 50.7659 550.642 52.1114 551.534 53.4568C545.52 55.0292 539.619 57.3149 533.945 60.2651C525.662 64.5771 520.896 73.8007 522.08 83.2027C525.305 108.847 529.52 132.401 534.659 153.247C536.539 160.834 543.266 166.329 551.031 166.637H551.08C569.9 167.334 593.34 164.919 615.272 160.104C615.986 161.547 616.65 163.006 617.266 164.416Z" fill="#131C3B"/>
<path d="M534.017 37.5427C528.051 38.2884 521.745 41.725 515.975 46.507C509.539 51.8402 503.801 58.8755 500.024 65.7L499.132 66.5267L208.676 56.1359C208.66 56.2169 208.66 56.298 208.644 56.3628C208.579 56.8654 208.498 57.4003 208.433 57.9028C196.227 139.586 202.322 210.328 202.322 210.328C202.322 210.328 202.419 210.328 202.565 210.36L202.322 210.652C202.322 210.652 101.413 210.814 16.9414 201.558C25.0952 139.813 36.3775 72.7352 45.8605 52.3103C46.0551 51.9212 46.2172 51.5484 46.3955 51.1756C46.4927 50.9972 46.5738 50.8027 46.6873 50.6244C49.3133 45.5182 52.3446 40.8334 55.7164 36.5053C70.9378 17.0367 93.0162 5.44639 115.257 0.923721C142.62 -4.6364 446.692 16.0803 496.976 25.8876C514.581 29.3079 526.09 33.2956 534.017 37.5427Z" fill="#2B3B59"/>
<path d="M534.021 37.5427C528.056 38.2884 521.75 41.725 515.979 46.507C511.148 42.1951 502.816 40.8983 495.846 40.185C389.134 29.3403 285.777 26.0659 179.648 19.7438C152.22 18.1066 122.28 17.9607 95.2738 22.9697C81.5761 25.4985 67.9919 29.9239 55.7207 36.5053C70.9421 17.0367 93.0205 5.44639 115.261 0.923721C142.624 -4.6364 446.696 16.0803 496.98 25.8876C514.585 29.3079 526.094 33.2956 534.021 37.5427Z" fill="#3C5B7D"/>
<path d="M46.6841 50.6091C56.3455 49.4744 66.4607 49.8796 76.3976 50.2525L78.4076 50.3497C90.5329 50.836 103.679 51.2413 116.405 51.6465C150.397 52.7326 185.428 53.8511 208.641 56.3475C208.576 56.85 208.495 57.385 208.43 57.8875C185.282 55.3749 150.3 54.2726 116.356 53.1865C103.647 52.7975 90.4843 52.376 78.3428 51.8897L76.3327 51.7924C66.1203 51.3872 55.7133 50.9657 45.8574 52.2787" fill="#131C3B"/>
<path d="M145.555 393C144.533 418.807 125.989 448.098 85.2199 444.986C83.0477 444.905 80.8918 444.694 78.8006 444.354C51.9726 440.091 31.9692 416.343 33.0877 388.526C34.1737 361.195 55.2633 339.392 81.6861 336.62C84.2635 336.345 86.8895 336.264 89.548 336.377C131.014 338.031 146.495 369.381 145.555 393Z" fill="#212D4A"/>
<path d="M132.079 392.495C131.155 415.887 112.399 442.002 78.7791 444.368C51.9511 440.105 31.9477 416.357 33.0662 388.54C34.1523 361.21 55.2418 339.407 81.6646 336.635C116.436 342.276 132.938 370.757 132.079 392.495Z" fill="#2B3B59"/>
<path d="M82.0548 430.068C103.926 430.068 121.656 412.338 121.656 390.467C121.656 368.595 103.926 350.865 82.0548 350.865C60.1834 350.865 42.4531 368.595 42.4531 390.467C42.4531 412.338 60.1834 430.068 82.0548 430.068Z" fill="#82A1B8"/>
<path d="M78.9587 412.103C90.9642 412.103 100.697 402.37 100.697 390.365C100.697 378.359 90.9642 368.627 78.9587 368.627C66.9531 368.627 57.2207 378.359 57.2207 390.365C57.2207 402.37 66.9531 412.103 78.9587 412.103Z" fill="#AECAD6"/>
<path d="M176.708 371.345C172.883 371.475 169.073 371.572 165.231 371.686C163.659 371.734 162.087 371.783 160.514 371.831C152.036 372.058 144.482 367.163 141.71 359.852C139.295 353.4 136.199 347.095 132.6 340.837C106.907 334.548 80.0787 332.132 51.7432 332.911C41.628 340.157 35.4194 349.202 30.0052 359.447C28.0438 363.143 23.5859 365.169 19.1443 364.407C11.6066 363.094 5.30076 361.732 0 360.371C4.37677 346.495 10.9257 333.186 19.4685 320.785C24.0885 314.058 30.1187 308.401 37.0729 304.008C47.5771 297.361 60.2374 293.633 73.4974 293.584C90.4371 293.536 107.571 295.287 124.625 298.901C141.84 302.533 156.283 313.166 163.724 327.772C170.613 341.259 174.974 356.026 176.708 371.345Z" fill="#FDBF4C"/>
<path d="M176.708 371.344C172.882 371.473 169.073 371.57 165.231 371.684C162.653 353.966 158.179 336.151 145.373 324.155C132.583 312.192 114.233 308.739 96.953 305.903C77.2251 302.677 56.2328 299.824 37.0723 303.974C47.5765 297.327 60.2367 293.599 73.4967 293.55C90.4365 293.502 107.571 295.253 124.624 298.867C141.839 302.498 156.283 313.132 163.723 327.738C170.613 341.257 174.973 356.025 176.708 371.344Z" fill="#FFD363"/>
</svg>
