<svg width="625" height="482" viewBox="0 0 625 482" fill="none" xmlns="http://www.w3.org/2000/svg">
<path d="M515.413 148.158C516.943 142.172 517.757 135.901 517.757 129.439C517.757 87.8005 484.002 54.0457 442.363 54.0457C431.529 54.0457 421.232 56.3353 411.921 60.4498C382.303 23.5958 336.861 0 285.901 0C206.377 0 140.271 57.4447 126.811 133.102C124.817 133.004 122.81 132.952 120.792 132.952C54.0806 132.952 0 187.032 0 253.744C0 318.373 50.757 371.148 114.583 374.379C124.341 435.133 176.998 481.546 240.503 481.546C286.311 481.546 326.472 457.393 348.964 421.131C364.999 432.623 384.65 439.391 405.883 439.391C448.63 439.391 484.967 411.969 498.278 373.759C502.63 374.267 507.054 374.536 511.542 374.536C574.075 374.536 624.768 323.843 624.768 261.311C624.767 200.074 576.152 150.2 515.413 148.158Z" fill="#C7DFE5"/>
<path d="M490.218 107.822C490.218 89.5392 483.399 72.8501 472.171 60.1514C498.982 71.7062 517.753 98.3713 517.753 129.421C517.753 129.919 517.8 138.262 515.409 148.139C515.409 148.139 493.219 147.58 483.859 150.516C489.01 132.072 490.218 113.992 490.218 107.822Z" fill="#B4CFD6"/>
<path d="M624.767 261.298C624.767 323.831 574.073 374.525 511.543 374.525C507.054 374.525 502.629 374.255 498.278 373.745C484.968 411.957 448.631 439.38 405.884 439.38C384.65 439.38 365.002 432.61 348.965 421.119C326.474 457.382 286.312 481.534 240.505 481.534C177 481.534 124.341 435.119 114.583 374.367C52.0003 371.198 1.98171 320.392 0.0615234 257.487C13.0828 304.318 54.9143 339.155 105.263 341.705C114.579 399.712 164.856 444.03 225.492 444.03C269.232 444.03 307.58 420.969 329.055 386.346C344.367 397.316 363.127 403.778 383.401 403.778C424.22 403.778 458.915 377.596 471.625 341.113C475.78 341.597 480.003 341.855 484.289 341.855C543.995 341.855 592.401 293.449 592.401 233.744C592.401 205.8 581.799 180.331 564.397 161.148C600.303 180.132 624.767 217.857 624.767 261.298Z" fill="#B4CFD6"/>
</svg>
