<svg width="568" height="639" viewBox="0 0 568 639" fill="none" xmlns="http://www.w3.org/2000/svg">
<path d="M559.784 359.976C555.527 344.655 550.579 335.176 543.733 329.244L542.671 328.322L542.655 326.916C542.514 313.446 541.261 265.03 530.974 207.565C525.237 175.52 511.36 138.415 492.895 105.761C474.583 73.3689 454.633 50.2992 438.156 42.4649C432.333 39.692 420.632 37.2979 403.378 35.3452L401.859 35.1694L401.062 33.865C396.172 25.8549 393.243 23.0312 391.642 22.0744C386.377 18.9226 380.601 17.255 374.938 17.255C374.575 17.255 374.216 17.2628 373.856 17.2745L372.736 17.3175L371.845 16.6379C365.526 11.8264 356.852 9.21755 346.061 8.8973C339.164 8.69031 328.295 8.03419 314.524 7.20623C285.866 5.48391 246.616 3.125 214.044 3.125C198.649 3.125 186.011 3.66005 176.482 4.72234C153.119 7.31558 140.844 16.9035 134.662 24.488C129.237 31.1429 127.433 37.3643 126.909 39.731L126.573 41.2424L125.171 41.8908C117.161 45.6049 109.018 51.467 102.238 58.3953C90.1432 70.7561 83.3906 85.5422 83.2266 100.035C83.0704 113.81 87.5617 139.676 92.3185 167.061L92.5294 168.264L91.8694 169.291C91.5999 169.705 91.3851 170.15 91.2289 170.615L72.7443 225.499C72.2405 226.995 72.3498 228.604 73.0528 230.021C73.7558 231.439 74.9665 232.497 76.4662 233.001L79.6335 234.067C80.2506 234.274 80.8872 234.38 81.5238 234.38C84.0702 234.38 86.3236 232.759 87.1399 230.346L93.7128 210.83L99.7585 211.342C105.195 246.108 107.534 271.193 107.124 290.279C106.839 303.643 103.34 328.322 96.7239 363.632L96.4818 364.924L95.3882 365.655C92.7013 367.447 78.4892 377.074 62.3674 390.818C38.2394 411.384 21.317 431.017 12.0688 449.169C-0.350583 473.54 2.43401 490.767 6.95655 500.925C11.608 511.38 20.2547 518.515 26.3902 520.163C26.8393 520.28 27.265 520.339 27.6985 520.339C27.9251 520.339 28.1633 520.323 28.4054 520.284L30.1395 520.022L56.0757 550.919L54.7947 556.351C51.9164 568.521 53.2716 581.456 58.6065 592.766C63.9413 604.076 73.0606 613.344 84.285 618.862C101.094 627.126 114.17 632.418 123.144 634.59C126.675 635.445 131.323 635.878 136.958 635.878C163.332 635.878 204.331 626.384 216.271 623.475C218.696 622.885 221.223 622.584 223.789 622.584H223.828C229.834 622.584 236.306 622.408 243.054 622.069C291.263 619.616 464.522 595.535 471.872 594.508L471.97 594.496C489.455 592.625 503.573 587.372 515.137 578.437C528.634 568.005 538.738 552.149 545.166 531.305C551.927 509.388 558.16 476.043 561.432 444.288C565.229 407.416 564.647 377.473 559.784 359.976ZM72.8419 478.675L51.4985 478.121L45.0037 470.509L78.2237 439.327L80.8247 437.472L72.8419 478.675Z" fill="#F7C154"/>
<path d="M213.535 39.7105C213.535 39.7105 175.949 45.0001 164.535 67.5515C153.12 90.1029 156.739 104.58 157.853 111.54C158.967 118.501 185.415 282.763 183.327 333.712C181.239 384.66 158.688 468.601 158.688 468.601C158.688 468.601 139.895 472.777 134.049 474.03C128.202 475.283 108.574 471.525 108.574 471.525C108.574 471.525 127.367 392.595 127.784 354.592C128.202 316.589 129.455 294.456 125.697 260.211C121.938 225.967 109.41 124.904 111.915 105.276C114.421 85.6479 143.654 54.1877 158.132 46.5314C172.609 38.8751 200.868 29.6875 200.868 29.6875L209.777 32.0538L213.535 39.7105Z" fill="#BB9FDC"/>
<path d="M354.13 284.511C409.484 284.511 454.358 239.98 454.358 185.049C454.358 130.117 409.484 85.5859 354.13 85.5859C298.776 85.5859 253.902 130.117 253.902 185.049C253.902 239.98 298.776 284.511 354.13 284.511Z" fill="#F7E388"/>
<path d="M91.8619 368.789C91.8619 368.789 51.4926 398.3 23.6516 429.204C-4.18933 460.108 4.44137 494.074 8.06058 501.034C11.6798 507.994 19.0533 516.816 23.3732 518.574C27.693 520.331 32.8393 519.688 32.8393 519.688L51.4934 478.113L44.8111 469.574L81.8397 437L94.6465 369.624L91.8619 368.789Z" fill="#BB9FDC"/>
<path d="M544.279 338.45C544.279 338.45 457.136 325.921 370.829 337.336C284.522 348.751 272.55 358.773 271.158 359.887C269.766 361.001 256.124 377.706 236.079 427.541C216.033 477.376 198.772 568.695 194.874 580.945C190.976 593.195 185.965 621.871 185.965 621.871C185.965 621.871 153.948 610.456 153.112 597.371C152.277 584.286 163.135 544.751 163.135 544.751C163.135 544.751 210.186 376.035 236.635 347.358C265.033 322.858 288.419 324.807 288.419 324.807L443.772 315.062C443.772 315.062 516.716 315.619 527.017 320.909C537.318 326.199 544.835 331.21 545.67 332.045C546.505 332.881 549.011 335.665 549.289 336.779C549.568 337.893 544.279 338.45 544.279 338.45Z" fill="#BB9FDC"/>
<path d="M79.5201 461.773C79.5201 461.773 82.1188 472.353 115.156 472.538C148.194 472.724 159.331 470.311 159.331 470.311L153.206 488.501C153.206 488.501 124.251 584.274 122.766 591.512C121.281 598.751 121.281 616.383 124.622 619.725C127.963 623.066 138.728 633.088 138.728 633.088C138.728 633.088 130.747 634.388 129.262 634.388C127.777 634.388 102.164 630.49 83.7884 618.24C65.4136 605.99 53.9057 587.8 55.0195 569.611C56.1334 551.421 76.7355 462.144 76.7355 462.144L79.5201 461.773Z" fill="#BB9FDC"/>
<path d="M130.566 35.435C130.566 35.435 133.351 8.52196 179.381 4.80981C225.411 1.09766 298.169 5.73775 331.764 7.77954C365.359 9.82132 366.658 14.8324 366.658 14.8324L368.329 27.6393C368.329 27.6393 359.048 31.3514 356.821 31.5369C354.594 31.7224 234.135 28.5672 229.866 29.1241C225.597 29.6811 162.676 33.2073 158.408 34.8781C154.139 36.5484 133.908 40.632 133.908 40.632L130.566 35.435Z" fill="#BB9FDC"/>
<path d="M562.794 359.137C558.383 343.261 553.232 333.343 545.778 326.883C545.648 314.334 544.454 265.146 534.048 207.012C528.252 174.638 514.244 137.173 495.615 104.221C476.994 71.2856 456.539 47.7469 439.495 39.6407C432.921 36.514 420.151 34.0993 403.729 32.2379C399.759 25.7314 396.174 21.1444 393.245 19.3912C386.508 15.3584 379.685 13.9286 373.737 14.1532C368.298 10.0095 359.656 6.17706 346.154 5.77206C339.304 5.56663 328.453 4.91403 314.713 4.08802C273.152 1.58968 210.344 -2.18652 176.137 1.61468C151.723 4.32743 138.789 14.477 132.238 22.5141C126.37 29.713 124.416 36.5335 123.857 39.0557C115.652 42.8612 107.141 48.9159 100.004 56.2093C87.3441 69.1474 80.2759 84.699 80.1018 99.9995C79.9455 113.802 84.2201 138.689 89.2406 167.597C88.8422 168.214 88.5126 168.891 88.2673 169.619L69.7823 224.499C68.1873 229.234 70.7333 234.367 75.4691 235.962L78.6353 237.029C83.371 238.624 88.5032 236.078 90.0986 231.342L96.6715 211.825C101.085 240.066 104.475 267.986 103.999 290.213C103.688 304.723 99.5764 331.433 93.653 363.055C90.6676 365.046 76.5001 374.662 60.3404 388.438C35.8976 409.275 18.7194 429.23 9.28339 447.749C-3.69373 473.216 -0.698614 491.414 4.09926 502.195C9.38415 514.07 18.9389 521.397 25.5802 523.178C26.2867 523.368 26.9912 523.463 27.6958 523.463C28.0875 523.463 28.4788 523.432 28.8701 523.373L52.6732 551.727C52.3588 553.06 52.0511 554.364 51.7519 555.631C48.7135 568.488 50.1436 582.148 55.7792 594.096C61.4156 606.045 71.0485 615.836 82.9036 621.664C99.9201 630.03 113.212 635.4 122.407 637.625C126.394 638.59 131.366 639 136.956 639C163.375 639 203.441 629.815 217.009 626.508C219.23 625.967 221.507 625.706 223.792 625.706C223.804 625.706 223.816 625.706 223.828 625.706C229.917 625.706 236.381 625.532 243.212 625.185C291.773 622.716 468.384 598.148 472.303 597.602C490.377 595.666 505.012 590.206 517.045 580.908C531.064 570.075 541.53 553.696 548.151 532.225C561.288 489.628 573.829 398.866 562.794 359.137ZM181.598 614.846C166.167 610.85 157.739 604.08 156.548 594.724C155.202 584.144 169.346 523.43 188.931 463.901C199.805 430.848 211.023 402.081 221.371 380.709C236.547 349.371 247.042 339.503 253.175 336.743C270.65 328.879 313.6 323.068 374.112 320.38C397.656 319.334 421.458 318.886 442.137 318.886C464.922 318.886 483.916 319.431 494.589 320.32C522.523 322.647 536.588 324.476 545.778 336.42C543.949 335.368 541.924 334.405 539.682 333.574C530.398 330.131 473.374 327.678 416.485 329.796C383.328 331.03 354.566 333.563 330.999 337.323C302.346 341.895 282.394 348.213 271.697 356.102C252.598 370.187 232.042 418.692 210.599 500.267C196.677 553.229 186.854 603.659 184.592 615.567C183.568 615.337 182.569 615.098 181.598 614.846ZM137.631 26.4078C145.924 16.4356 159.492 10.1439 176.869 8.21299C210.512 4.47466 272.979 8.23017 314.315 10.7152C328.109 11.5447 339.006 12.1997 345.955 12.4082C352.19 12.5953 357.175 13.5772 361.15 14.9519C362.304 15.3514 362.449 16.9038 361.4 17.5311C357.501 19.863 355.302 23.096 355.799 26.2586V26.259C356.549 27.219 355.825 28.6148 354.608 28.555C317.092 26.7206 274.827 26.2442 242.565 26.2157C239.931 26.2133 237.419 25.2053 235.442 23.4639C234.844 22.9374 234.268 22.5059 233.716 22.1751C219.047 13.3952 203.969 16.9413 198.422 23.0792C196.442 25.2698 193.621 26.5093 190.669 26.5586L190.647 26.559L190.454 26.5621L190.264 26.5875C189.9 26.6355 153.737 31.4732 134.728 35.349C134.718 35.351 134.708 35.3529 134.699 35.3549C133.479 35.6044 132.515 34.3437 133.088 33.2381C134.17 31.1479 135.642 28.8007 137.631 26.4078ZM154.45 104.917C154.576 106.119 154.703 107.325 154.824 108.534C155.748 117.776 158.013 132.276 160.88 150.633C169.428 205.356 182.344 288.052 179.034 351.361C177.303 384.475 168.217 425.287 157.653 464.119L157.552 464.079C155.564 469.049 137.177 472.496 112.723 470.423C117.157 449.03 136.19 353.376 133.603 300.146C132.483 277.103 128.738 247.336 125.116 218.55C119.221 171.691 113.126 123.236 117.673 100.503C120.88 84.4654 133.767 68.1566 153.96 54.5811C168.714 44.6616 185.764 37.351 200.288 34.5281C201.382 36.0774 202.676 37.9469 204.134 40.1188C183.749 45.6981 170.168 52.9385 162.357 62.0988C151.303 75.063 152.903 90.2401 154.45 104.917ZM86.7399 100.075C86.9379 82.6662 96.6422 69.1368 104.748 60.8525C114.116 51.2787 126.404 43.8215 136.054 41.854C146.935 39.6353 163.569 37.0893 175.713 35.3299C167.022 38.9909 158.298 43.663 150.254 49.0709C128.598 63.6305 114.715 81.4336 111.161 99.2008C109.626 106.875 109.229 117.175 109.594 129.195C108.707 128.826 107.735 128.621 106.714 128.621H104.858C100.707 128.621 97.3409 131.986 97.3409 136.138V147.46C97.3409 149.767 98.3825 151.829 100.019 153.208L96.5653 163.462C96.133 163.475 95.7041 163.519 95.2827 163.593C90.5376 136.235 86.5954 112.832 86.7399 100.075ZM110.637 290.355C111.194 264.332 106.609 230.978 101.223 198.313L108.583 176.462C110.005 172.239 108.133 167.704 104.354 165.639L107.983 154.862C109.126 154.668 110.179 154.217 111.084 153.569C112.814 173.948 115.694 196.845 118.529 219.379C122.134 248.041 125.863 277.679 126.971 300.468C129.549 353.512 110.2 449.962 106.084 469.738C105.783 469.702 105.483 469.666 105.18 469.628C85.976 467.209 82.0861 456.886 81.5406 455.039C96.338 387.53 110.04 318.162 110.637 290.355ZM52.367 475.587C51.3543 474.829 49.6527 473.472 47.7972 471.643L76.9676 444.683C74.6665 455.294 72.3447 465.819 70.0588 476.053L52.367 475.587ZM10.1649 499.496C5.95437 490.034 3.40955 473.9 15.1986 450.764C32.7678 416.284 76.0143 383.574 91.8893 372.34C88.1584 391.729 83.851 412.614 79.3882 433.452C79.266 433.538 79.1461 433.629 79.0332 433.734L43.4626 466.61C40.2456 462.099 37.8996 456.36 39.6559 450.162C40.1558 448.398 39.131 446.563 37.3673 446.063C35.6032 445.563 33.7676 446.589 33.2685 448.352C28.8791 463.843 42.2183 476.103 47.5727 480.285C47.5789 480.298 47.584 480.312 47.5902 480.324C46.3456 484.057 43.6227 491.84 40.2058 499.33C33.486 514.059 28.8295 517.178 27.2993 516.766C22.9865 515.609 14.8635 510.055 10.1649 499.496ZM34.8447 520.165C38.5147 516.794 42.2722 510.806 46.2694 502.035C49.8867 494.098 52.6842 486.066 53.9429 482.27L68.5798 482.655C63.4469 505.51 58.5596 526.641 54.5693 543.661L34.8447 520.165ZM85.8323 615.707C63.9644 604.955 52.6072 580.879 58.2131 557.158C64.4221 530.885 72.0073 498.176 79.4589 464.491C83.4476 469.218 90.8367 474.512 104.35 476.215C110.889 477.038 119.087 477.671 127.305 477.671C137.557 477.671 147.836 476.686 154.96 473.864C147.973 498.794 140.571 522.549 134.359 542.489C126.195 568.688 119.747 589.381 118.098 599.92C116.584 609.589 118.454 617.768 123.655 624.23C126.489 627.751 130.02 630.377 133.643 632.334C129.968 632.2 126.692 631.832 123.967 631.173C115.244 629.062 102.413 623.859 85.8323 615.707ZM153.822 631.389C153.748 631.38 153.674 631.369 153.599 631.364C153.433 631.354 136.962 630.203 128.808 620.043C124.843 615.103 123.446 608.678 124.657 600.947C126.23 590.891 132.614 570.403 140.697 544.464C157.391 490.886 182.62 409.918 185.664 351.708C189.01 287.709 176.029 204.602 167.44 149.608C164.589 131.353 162.336 116.933 161.43 107.874C161.308 106.652 161.179 105.435 161.052 104.221C159.524 89.7226 158.204 77.2013 167.409 66.4061C174.583 57.9918 187.897 51.2365 207.985 45.9852C221.635 67.2399 244.211 107.277 259.085 159.132C260.278 163.289 264.126 166.117 268.448 165.992L286.555 165.47C293.019 165.284 297.392 158.81 295.151 152.744C285.691 127.144 263.235 68.2273 246.42 38.7893C263.486 36.5148 283.276 34.7843 305.955 33.5638C305.958 33.5638 305.96 33.5634 305.962 33.563C328.254 34.0493 346.904 34.7554 362.497 35.6095C374.902 53.8176 401.724 97.466 418.614 156.348C419.807 160.505 423.655 163.333 427.977 163.208L446.085 162.686C452.549 162.499 456.921 156.025 454.68 149.96C445.568 125.302 424.401 69.7363 407.828 39.3732C424.053 41.4123 432.461 43.6474 436.643 45.636C452.249 53.0588 472.134 76.1815 489.834 107.489C508.11 139.815 521.843 176.516 527.511 208.181C536.823 260.199 538.693 304.959 539.063 322.28C528.944 316.859 515.591 315.407 495.14 313.703C474.573 311.989 423.569 311.537 373.817 313.747C330.429 315.674 273.807 320.178 250.45 330.688C239.924 335.425 228.458 350.84 215.396 377.815C204.921 399.447 193.588 428.497 182.624 461.826C163.875 518.814 148.307 582.558 149.962 595.562C151.959 611.256 167.626 620.86 196.674 624.285C184.077 626.936 168.194 629.885 153.822 631.389ZM558.066 442.646C554.903 474.43 548.673 508.005 541.806 530.27C530.222 567.83 507.896 587.129 471.544 591.007L471.437 591.021C469.642 591.271 291.444 616.086 242.874 618.555C234.698 618.971 227.057 619.133 219.968 619.043L219.94 618.934C219.912 618.942 219.777 618.976 219.541 619.036C208.755 618.883 199.259 618.141 191.113 616.815C193.352 605.025 203.146 554.731 217.029 501.918C237.777 422.995 258.044 374.42 275.638 361.444C293.836 348.023 343.944 339.14 416.731 336.43C474.576 334.276 529.797 336.988 537.374 339.798C551.951 345.202 555.319 357.184 555.452 357.675L555.463 357.672C555.776 358.72 556.087 359.8 556.396 360.913C561.051 377.671 561.644 406.697 558.066 442.646Z" fill="#7F115D"/>
<path d="M468.068 527.187L308.886 540.293C291.981 541.685 281.261 529.016 285.694 512.887L299.542 462.508C303.465 448.235 317.96 436.333 332.919 435.101L492.101 421.995C509.006 420.603 519.726 433.272 515.293 449.402L501.445 499.781C497.522 514.053 483.027 525.955 468.068 527.187Z" fill="#F7E388"/>
</svg>
