<svg width="757" height="757" viewBox="0 0 757 757" fill="none" xmlns="http://www.w3.org/2000/svg">
<path d="M642.274 52.1671C641.169 55.788 639.397 59.0625 637.063 62.0279C633.068 67.101 629.036 72.1418 625.04 77.2149C605.484 102.045 586.338 127.184 567.702 152.714C558.285 165.614 548.743 178.425 539.853 191.698C537.331 195.461 535.004 199.351 532.577 203.178C531.3 205.196 530.419 207.419 529.292 209.503C527.897 212.087 528.731 214.585 529.116 217.127C529.231 217.896 530.028 218.093 530.602 218.398C533.899 220.157 537.208 221.895 540.538 223.594C541.847 224.264 543.2 224.856 544.559 225.417C545.329 225.736 545.928 226.139 546.262 226.945C547.043 228.83 547.897 230.684 548.679 232.567C549.768 235.189 549.431 237.589 547.751 239.937C544.458 244.542 541.318 249.258 538.071 253.898C517.742 282.944 497.862 312.294 478.199 341.793C464.504 362.34 450.444 382.647 436.979 403.344C412.706 440.655 388.276 477.871 364.605 515.572C351.353 536.676 337.441 557.357 323.967 578.316C300.259 615.185 276.135 651.792 253.427 689.296C246.973 699.954 240.58 710.649 234.193 721.346C233.089 723.19 232.123 725.121 231.131 727.029C230.299 728.637 229.166 729.221 227.263 728.927C220.757 727.913 214.325 726.566 207.977 724.829C205.351 724.111 202.723 723.399 200.096 722.684L200.118 722.602C192.907 720.209 185.67 717.899 178.499 715.394C172.506 713.303 166.573 711.028 160.647 708.751C154.194 706.27 147.767 703.715 141.347 701.152C135.658 698.881 130.102 696.327 124.894 693.078C119.893 689.96 116.471 685.602 114.557 680.021C113.828 677.897 113.85 675.868 114.425 673.697C116.212 666.952 119.279 660.762 122.499 654.637C132.78 635.08 143.658 615.851 154.481 596.594C162.306 582.668 169.854 568.586 177.612 554.623C193.302 526.382 210.13 498.845 228.807 472.465C239.809 456.926 251.728 442.086 263.701 427.294C296.279 387.044 329.654 347.464 363.926 308.656C386.056 283.594 407.413 257.902 428.599 232.053C432.764 226.974 436.84 221.82 440.931 216.679C441.985 215.351 442.963 213.957 443.943 212.57C444.891 211.226 446.057 210.392 447.75 210.018C454.165 208.61 460.536 207.005 466.944 205.562C469.203 205.051 471.25 204.223 473.047 202.755C477.527 199.101 482.026 195.469 486.511 191.82C486.947 191.466 487.373 191.078 487.733 190.648C494.12 182.993 500.613 175.426 506.848 167.652C526.624 143.001 546.611 118.515 565.865 93.451C576.293 79.8784 585.977 65.7856 595.252 51.4071C597.83 47.4141 600.627 43.5581 603.332 39.648C604.56 37.8724 605.886 36.1725 607.46 34.6949C612.716 29.7576 618.874 27.9621 625.938 29.5773C628.591 30.183 631.197 30.9408 633.592 32.3303C636.291 33.8965 638.527 35.9292 640.237 38.527C643.019 42.7501 643.761 47.2977 642.274 52.1671Z" fill="#010101"/>
<path d="M198.134 613.542C209.126 590.914 220.669 568.57 232.593 546.421C246.402 520.769 261.068 495.623 276.817 471.112C287.965 453.76 299.343 436.564 311.54 419.922C321.595 406.202 332.413 393.099 343.469 380.183C364.185 355.982 385.846 332.64 407.6 309.38C423.162 292.741 438.458 275.86 452.736 258.088C465.301 242.447 477.309 226.38 489.243 210.256C491.128 207.709 493.159 205.271 495.136 202.794C495.607 202.203 496.168 201.978 496.906 202.432C497.674 202.905 498.511 203.267 499.279 203.742C512.964 212.218 526.87 220.299 541.331 227.394C542.529 227.982 542.669 228.374 541.871 229.466C537.926 234.863 534.033 240.303 529.963 245.605C501.597 282.551 473.267 319.524 444.876 356.45C424.501 382.952 404.031 409.392 384.432 436.483C368.092 459.069 351.603 481.561 336.343 504.899C311.717 542.56 288.11 580.85 266.175 620.155C257.892 634.998 249.623 649.848 241.775 664.928C234.921 678.1 228.339 691.405 222.238 704.942C220.936 707.832 219.893 710.838 218.727 713.789C218.013 715.597 217.754 715.768 215.963 715.236C212.05 714.074 208.13 712.925 204.251 711.656C197.679 709.507 191.136 707.269 184.582 705.069C180.155 703.524 176.323 701.039 173.11 697.638C172.284 696.763 170.829 695.88 172.279 694.353C175.957 694.622 179.171 696.393 182.545 697.609C190.106 700.334 197.555 703.349 205.296 705.589C210.094 706.977 213.758 705.643 216.733 701.9C219.353 698.603 221.477 694.975 223.332 691.212C232.303 673.011 241.585 654.969 250.926 636.958C252.483 633.955 254.343 631.112 255.563 628.497C253.065 633.223 250.175 638.307 247.19 643.335C237.686 659.344 229.887 676.238 221.434 692.793C219.939 695.72 218.304 698.583 216.257 701.171C213.763 704.324 210.642 705.445 206.621 704.406C198.042 702.188 189.868 698.821 181.567 695.818C177.629 694.394 173.678 692.99 169.839 691.302C168.886 690.754 167.915 690.235 166.91 689.783C166.589 689.607 166.3 689.387 166.036 689.134C157.63 675.539 154.025 660.905 156.338 644.932C157.974 633.634 161.583 622.926 165.643 612.326C174.054 590.368 184.202 569.204 195.23 548.475C216.95 507.648 241.055 468.342 270.408 432.446C286.28 413.035 303.258 394.59 319.743 375.713C336.449 356.582 353.215 337.497 369.605 318.094C386.945 297.565 403.698 276.536 421.8 256.66C437.878 239.005 455.541 223.062 474.632 208.71C476.268 207.481 478.059 206.504 479.91 205.637C483.03 204.278 486.351 203.573 489.471 202.442C489.891 203.119 489.658 203.486 489.385 203.85C474.462 223.812 459.724 243.916 443.888 263.178C434.457 274.648 424.565 285.716 414.553 296.674C393.916 319.258 372.715 341.322 352.526 364.318C335.402 383.821 318.523 403.518 303.503 424.728C290.338 443.319 277.878 462.376 265.926 481.764C250.998 505.982 237.177 530.822 224.266 556.174C216.861 570.713 209.617 585.327 202.76 600.131C201.238 603.418 199.855 606.768 198.407 610.089C195.026 619.824 190.462 629.07 186.702 638.649C189.812 630.914 193.246 623.315 196.414 615.604C196.748 614.792 197.407 614.102 198.134 613.542Z" fill="#E0A75E"/>
<path d="M544.699 230.913C545.492 231.512 545.537 232.488 545.894 233.301C546.693 235.118 546.411 236.726 545.237 238.386C540.788 244.676 536.475 251.061 532.057 257.371C512.818 284.848 494.079 312.663 475.495 340.585C461.684 361.337 447.613 381.915 433.844 402.694C424.771 416.386 416.047 430.309 407.126 444.102C403.188 450.191 399.138 456.205 395.162 462.269C384.292 478.85 373.729 495.626 363.148 512.392C357.041 522.069 350.824 531.676 344.584 541.267C335.192 555.702 325.656 570.043 316.326 584.518C300.921 608.419 285.554 632.346 270.316 656.354C257.63 676.343 245.389 696.609 233.26 716.941C231.927 719.175 230.75 721.504 229.503 723.79C228.878 724.937 228.276 725.146 227.417 724.334C225.443 722.464 223.541 720.519 221.592 718.622C220.849 717.899 220.71 717.096 221.07 716.15C222.16 713.293 223.086 710.364 224.344 707.584C232.235 690.148 240.783 673.037 249.819 656.163C262.439 632.596 275.518 609.285 289.11 586.269C297.576 571.932 306.466 557.847 315.19 543.664C324.035 529.285 333.041 515.006 342.481 501.008C353.506 484.661 365.036 468.667 376.479 452.613C387.594 437.017 398.984 421.625 410.574 406.379C422.024 391.317 433.353 376.164 444.85 361.139C453.319 350.07 462.005 339.167 470.534 328.142C477.12 319.628 483.602 311.032 490.147 302.486C498.278 291.87 506.442 281.281 514.561 270.657C522.954 259.673 531.545 248.838 539.637 237.626C540.896 235.881 542.071 234.076 543.288 232.301C543.664 231.752 543.993 231.15 544.699 230.913Z" fill="#916D3F"/>
<path d="M171.921 694.673C172.172 695.16 172.314 695.767 172.693 696.113C175.001 698.217 177.329 700.302 179.726 702.303C180.657 703.081 181.738 703.706 182.95 704.036C183.593 704.211 184.254 704.396 184.588 705.076C184.142 705 183.672 704.994 183.256 704.839C179.542 703.46 175.821 702.096 172.136 700.641C169.398 699.56 166.613 698.602 163.863 697.559C153.056 693.459 142.421 688.982 132.112 683.756C127.975 681.658 123.95 679.336 119.878 677.109C119.382 676.838 118.913 676.517 118.426 676.227C117.532 675.695 117.286 674.998 117.546 673.944C118.474 670.182 119.946 666.641 121.612 663.157C125.179 655.696 129.245 648.499 133.115 641.198C143.723 621.185 155.32 601.723 166.173 581.847C174.204 567.139 182.075 552.34 190.572 537.894C195.625 529.305 200.842 520.812 206.072 512.329C212.612 501.722 219.349 491.243 226.459 481.005C234.993 468.716 243.949 456.742 253.317 445.081C263.394 432.538 273.527 420.041 283.7 407.576C289.647 400.29 295.745 393.128 301.732 385.873C312.626 372.674 323.848 359.755 334.962 346.742C348.802 330.539 362.663 314.358 376.934 298.531C385.739 288.766 394.064 278.589 402.411 268.432C407.015 262.829 411.695 257.287 416.385 251.755C425.62 240.863 434.408 229.611 443.232 218.388C443.932 217.498 444.72 216.629 445.199 215.623C446.085 213.76 447.626 213.137 449.484 212.721C455.455 211.383 461.41 209.966 467.362 208.544C471.11 207.649 474.841 206.686 478.584 205.772C479.013 205.667 479.471 205.683 479.915 205.642C478.134 207.749 475.696 209.04 473.545 210.673C465.062 217.114 456.837 223.865 448.949 231.015C441.818 237.479 434.893 244.16 428.226 251.115C421.949 257.664 415.933 264.444 409.994 271.29C403.241 279.073 396.682 287.024 390.056 294.916C384.159 301.94 378.248 308.953 372.41 316.027C365.775 324.067 358.964 331.951 352.048 339.749C346.862 345.597 341.658 351.436 336.655 357.439C321.849 375.203 306.096 392.131 290.898 409.547C285.465 415.773 280.237 422.179 274.974 428.55C270.936 433.437 266.922 438.345 263.02 443.34C258.91 448.6 254.844 453.901 250.94 459.315C244.785 467.85 238.76 476.481 233.108 485.361C228.254 492.986 223.495 500.668 218.892 508.454C213.89 516.915 208.958 525.417 204.131 533.976C199.141 542.824 194.289 551.751 189.885 560.914C187.05 566.811 183.987 572.6 181.177 578.508C178.998 583.092 177.072 587.796 174.994 592.429C173.472 595.825 171.87 599.185 170.336 602.576C169.545 604.324 169.002 606.164 168.2 607.925C166.801 610.998 165.822 614.265 164.709 617.467C164.227 618.855 163.888 620.279 163.117 621.573C162.663 622.334 162.476 623.263 162.231 624.134C161.307 627.408 160.461 630.706 159.485 633.965C158.345 637.773 157.522 641.645 157.12 645.589C156.698 649.744 156.413 653.915 156.593 658.101C156.867 664.511 158.552 670.61 160.782 676.566C162.17 680.277 163.751 683.914 165.834 687.31C166.123 687.78 166.255 688.346 166.459 688.867C165.275 689.66 164.022 689.335 162.869 688.915C153.754 685.592 144.705 682.091 135.652 678.603C135.065 678.377 134.584 677.888 134.018 677.627C139.028 680.061 144.296 681.889 149.461 683.965C156.173 686.664 162.72 689.749 169.397 692.533C170.43 692.965 171.447 693.529 171.921 694.673Z" fill="#916D3F"/>
<path d="M209.424 722.462C203.193 720.732 198.418 718.585 193.34 717.37C188.489 716.209 183.906 714.198 179.177 712.648C174.468 711.104 169.774 709.406 165.19 707.503C160.288 705.468 155.268 703.748 150.381 701.666C147.905 700.612 145.341 699.662 142.831 698.651C136.652 696.161 130.526 693.532 125.023 689.668C121.971 687.524 119.718 684.765 118.205 681.383C118.088 681.122 118.11 680.636 118.281 680.455C118.44 680.287 118.95 680.259 119.19 680.387C121.583 681.658 123.92 683.036 126.333 684.265C132.266 687.288 138.2 690.298 144.344 692.904C149.333 695.021 154.344 697.07 159.376 699.08C163.889 700.882 168.52 702.392 172.983 704.267C176.959 705.936 181.28 706.595 185.068 708.71C185.165 708.764 185.281 708.787 185.391 708.816C192.075 710.571 198.419 713.402 205.144 715.043C209.212 716.036 212.961 718.059 217.091 718.886C217.898 719.047 218.555 719.489 219.098 720.091C220.389 721.519 221.674 722.953 222.938 724.404C223.05 724.533 223.033 724.818 222.997 725.017C222.951 725.274 222.737 725.339 222.463 725.256C217.796 723.839 212.87 723.591 209.424 722.462Z" fill="#6D1717"/>
<path d="M619.454 51.0556C619.239 51 618.992 50.9952 618.812 50.8819C615.668 48.9012 612.246 47.5858 608.676 46.6204C608.203 45.9402 608.467 45.2662 608.863 44.735C612.812 39.4354 617.086 34.5153 623.728 32.476L623.73 32.4787C625.641 32.4676 627.404 33.024 629.087 33.8818C632.643 34.8045 635.296 37.028 637.416 39.8921C639.754 43.0484 640.501 46.5547 639.486 50.4406C638.65 53.6419 637.415 56.6343 635.449 59.2946C633.978 61.2859 632.446 63.233 630.897 65.1643C630.272 65.9436 629.732 65.8661 629.4 65.0629C628.628 63.1982 627.857 61.333 627.086 59.4683C629.246 55.2646 631.961 51.3351 633.064 46.6178C633.8 43.4742 633.186 40.798 630.931 38.5176C628.697 36.2574 626.39 36.659 625.043 39.5799C624.188 41.4314 624.02 43.5293 623.225 45.3909C622.329 47.4893 622.079 50.0858 619.454 51.0556Z" fill="#A71E1E"/>
<path d="M527.966 195.432C528.265 195.764 528.615 196.062 528.853 196.434C531.058 199.886 531.053 199.89 529.016 203.369C528.845 203.661 528.634 203.932 528.473 204.229C526.935 207.066 526.913 207.089 524.852 204.878C521.876 201.684 518.231 199.45 514.419 197.433C509.21 194.676 503.81 192.4 498.117 190.846C497.604 189.84 498.207 189.096 498.782 188.428C501.327 185.469 503.251 181.93 506.745 179.852C508.36 180.054 509.702 180.913 511.061 181.697C513.975 183.378 517.105 184.717 519.619 187.039C520.137 187.893 519.866 188.781 519.775 189.679C519.277 194.545 522.116 196.86 526.704 195.345C527.147 195.198 527.565 195.106 527.966 195.432Z" fill="#A81E1E"/>
<path d="M525.7 214.933C524.614 215.262 523.822 214.813 523.041 214.354C516.325 210.411 509.61 206.466 502.899 202.516C501.634 201.772 500.326 201.084 499.137 200.231C496.434 198.291 493.551 197.973 490.436 198.971C487.528 199.903 484.606 200.791 481.688 201.691C481.264 201.822 480.829 201.922 480.395 202.012C480.308 202.03 480.133 201.96 480.109 201.892C480.041 201.698 479.935 201.427 480.017 201.29C480.182 201.011 480.447 200.784 480.697 200.564C482.904 198.62 485.093 196.655 487.339 194.758C488.111 194.106 488.998 193.57 489.892 193.093C490.368 192.839 490.991 192.655 491.509 192.725C493.855 193.044 496.21 193.355 498.516 193.872C502.058 194.667 505.296 196.312 508.619 197.721C511.02 198.738 513.282 199.994 515.567 201.229C518.794 202.975 521.508 205.339 524.01 207.967C525.133 209.147 525.82 210.549 525.702 212.263C525.641 213.156 525.697 214.056 525.7 214.933Z" fill="#302E25"/>
<path d="M619.449 51.0491C620.819 48.8542 622.073 46.6033 622.771 44.0884C623.163 42.676 623.562 41.2649 623.915 39.8428C624.165 38.8355 624.583 37.9349 625.292 37.1709C626.834 35.5072 629.027 35.2873 630.724 36.82C633.672 39.4835 635.155 42.5993 634.043 46.762C632.891 51.0786 630.714 54.8459 628.472 58.6137C628.168 59.125 627.666 59.3798 627.08 59.4631C625.29 56.6365 623.027 54.2305 620.5 52.059C620.279 51.5644 619.613 51.5419 619.406 51.0301L619.449 51.0491Z" fill="#C56A6A"/>
<path d="M533.555 148.923C539.279 151.58 544.226 155.258 548.236 160.152C549.827 162.094 550.984 164.284 551.907 166.618C552.368 167.785 552.345 168.767 551.54 169.773C550.56 170.998 549.666 172.291 548.764 173.514C548.399 173.364 548.112 173.338 548.043 173.202C543.95 165.095 537.537 159.453 529.425 155.596C528.824 155.31 528.292 154.878 527.729 154.513C528.974 150.639 530.995 148.7 533.555 148.923Z" fill="#F8DA97"/>
<path d="M525.537 157.431C526.289 157.664 527.107 157.779 527.783 158.15C531.238 160.047 534.709 161.932 537.621 164.655C535.143 169.173 532.001 173.161 528.128 176.567C527.57 176.201 526.999 175.852 526.456 175.465C523.167 173.119 519.692 171.101 515.98 169.499C515.843 169.305 515.673 169.038 515.768 168.888C518.479 164.606 521.342 160.449 525.537 157.431Z" fill="#A81E1E"/>
<path d="M513.825 171.961C515.57 172.148 517.011 173.095 518.497 173.892C523.63 176.643 528.252 180.024 531.726 184.798C533.198 186.821 534.393 188.994 535.404 191.278C535.702 191.951 535.761 192.572 535.277 193.178C534.447 194.218 534.005 195.543 532.892 196.44C532.644 196.203 532.348 196.011 532.174 195.74C527.704 188.818 521.575 183.764 514.384 179.905C513.189 179.264 511.97 178.668 510.761 178.05C509.437 177.338 508.953 176.384 509.996 175.084C511.046 173.776 511.953 172.271 513.825 171.961Z" fill="#F7DA99"/>
<path d="M549.62 128.645C555.328 131.484 560.391 135.182 564.619 139.977C566.047 141.598 567.167 143.417 567.935 145.445C568.182 146.099 568.339 146.76 567.889 147.374C566.846 148.798 565.947 150.345 564.533 151.72C563.569 150.35 562.801 149.128 561.906 148.007C557.472 142.458 552.144 138.042 545.569 135.218C544.957 134.955 544.41 134.544 543.832 134.201C544.756 130.404 546.89 128.355 549.62 128.645Z" fill="#F7D997"/>
<path d="M567.423 107.363C574.647 110.764 580.106 115.871 583.147 123.399C583.761 124.919 583.88 126.154 582.685 127.41C581.99 128.141 581.456 129.024 580.821 129.815C580.466 130.256 580.031 130.194 579.703 129.785C579.423 129.437 579.223 129.023 578.994 128.635C575.284 122.338 570.118 117.591 563.668 114.204C562.769 113.732 561.89 113.222 561.002 112.73C561.402 108.277 563.966 106.134 567.423 107.363Z" fill="#F7DA99"/>
<path d="M596.257 68.6903C603.313 71.557 608.705 76.3091 612.403 82.9701C612.786 83.6586 613.083 84.3948 613.419 85.1094C613.833 85.9919 613.86 86.7673 613.136 87.5846C612.108 88.744 611.209 90.018 610.096 91.4476C608.942 89.5498 607.947 87.8139 606.854 86.1414C605.678 84.3424 604.296 82.6967 602.728 81.2217C601.246 79.8287 599.713 78.4899 597.915 77.5135C596.133 76.5459 594.321 75.6334 592.522 74.6966C588.758 73.0047 588.852 71.4252 592.928 67.8858L593.004 67.8792C594.213 67.6478 595.266 68.0449 596.257 68.6903Z" fill="#F7D996"/>
<path d="M583.834 88.5273C589.062 90.7588 593.331 94.1757 596.467 98.9269C597.333 100.239 597.944 101.719 598.676 103.12C599.371 104.451 599.389 105.684 598.259 106.829C597.239 107.862 596.698 109.322 595.233 110.217C593.521 106.752 591.722 103.371 588.922 100.697C587.701 99.5313 586.403 98.4314 585.051 97.4206C583.326 96.1312 581.397 95.1759 579.395 94.3767C578.505 93.5506 577.12 93.8688 576.242 93.0128L576.162 92.9471C576.997 87.9776 579.137 86.7442 583.834 88.5273Z" fill="#F7DA98"/>
<path d="M560.2 115.974C563.669 117.52 566.85 119.499 569.558 122.191C568.121 126.588 565.173 129.877 561.765 132.83C561.016 132.362 560.227 131.947 559.524 131.417C556.855 129.404 554.035 127.639 551.039 126.158C550.364 124.971 550.986 123.986 551.626 123.091C553.239 120.833 555.02 118.701 556.744 116.527C557.713 115.304 558.857 114.967 560.2 115.974Z" fill="#A71E1E"/>
<path d="M541.646 137.102C546.087 138.298 549.79 140.775 553.205 143.753C553.44 146.1 551.56 147.355 550.393 148.909C549.125 150.599 548.022 152.462 546.315 153.799C542.912 151.135 539.509 148.472 535.548 146.648C534.966 146.193 534.509 145.511 534.911 144.893C536.798 141.998 538.263 138.711 541.646 137.102Z" fill="#A71E1E"/>
<path d="M607.347 71.898C604.429 69.8993 601.593 67.7661 598.293 66.3978C594.909 64.8461 594.745 64.5036 596.878 61.3508C598.21 59.3812 599.022 56.8283 601.782 56.1821C605.646 56.8825 609.327 58.0406 612.469 60.5132C612.901 60.8526 613.263 61.2811 613.656 61.6686C612.957 65.9442 610.148 68.9185 607.347 71.898Z" fill="#A71E1E"/>
<path d="M607.177 54.2022C606.107 53.8892 605.037 53.5762 603.967 53.2633C603.493 51.0768 604.381 49.7309 606.506 49.1477C613.087 50.3675 618.645 53.3391 622.891 58.6193C624.927 61.1514 626.099 64.0454 626.884 67.1612C627.42 69.286 626.843 70.8598 624.918 72.162C621.67 65.1705 617.369 59.2241 610.452 55.5961C609.529 54.7365 608.114 55.0296 607.177 54.2022Z" fill="#F5DA9B"/>
<path d="M528.128 176.567C528.463 175.197 529.567 174.334 530.394 173.324C532.776 170.413 534.762 167.167 537.622 164.655C540.048 166.633 542.113 168.916 543.573 171.71C543.875 172.545 543.611 173.327 543.093 173.915C540.227 177.161 538.887 181.61 535.063 184.094C532.845 181.499 530.623 178.907 528.128 176.567Z" fill="#C46A6A"/>
<path d="M574.044 95.9008C578.249 96.8235 581.986 98.6538 585.136 101.624C584.114 105.643 581.399 108.459 578.413 111.083C575.164 108.535 571.841 106.107 568 104.494C567.816 104.417 567.701 104.174 567.555 104.009C568.864 100.623 570.646 97.6157 574.044 95.9008Z" fill="#A71E1E"/>
<path d="M587.826 76.3709C592.226 77.3804 595.945 79.6732 599.387 82.4923C598.528 86.0815 595.988 88.5761 593.694 91.2304C591.227 89.3374 588.694 87.5468 585.837 86.2715C585.133 85.5371 583.964 85.7976 583.258 85.0671C582.867 84.9142 582.476 84.7612 582.085 84.6082C582.986 81.1561 584.666 78.248 587.826 76.3709Z" fill="#A71E1E"/>
<path d="M561.769 132.839C564.1 129.098 566.969 125.75 569.562 122.202C572.484 124.282 574.708 126.934 576.128 130.241C575.127 133.993 572.261 136.488 569.932 139.333C569.434 139.94 568.586 140.207 567.912 139.337C566.191 137.286 564.36 135.342 562.369 133.551C562.179 133.297 562.072 132.978 561.785 132.8L561.769 132.839Z" fill="#C46969"/>
<path d="M546.315 153.811C546.419 152.65 547.049 151.77 547.752 150.881C549.606 148.538 551.393 146.141 553.206 143.766C556.075 145.476 558.161 147.948 559.954 150.706C559.099 154.69 555.985 157.095 553.46 159.896C552.966 160.443 552.204 160.26 551.65 159.702C550.018 157.605 548.254 155.629 546.315 153.811Z" fill="#C46969"/>
<path d="M607.348 71.9055C607.523 71.0032 608.02 70.2771 608.526 69.5251C610.271 66.9321 611.953 64.296 613.657 61.6761C616.595 63.7613 618.572 66.6288 620.227 69.7578C619.595 73.403 615.967 77.8589 613.187 78.4033C611.241 76.2371 609.294 74.0713 607.348 71.9055Z" fill="#C46969"/>
<path d="M578.411 111.084C579.285 108.873 581.09 107.302 582.364 105.364C583.215 104.07 584.207 102.868 585.135 101.626C588.003 103.401 589.777 106.047 591.068 109.078C589.793 112.981 588.232 116.668 584.041 118.364C582.389 115.764 580.587 113.28 578.411 111.084Z" fill="#C46969"/>
<path d="M623.722 32.4709C623.003 33.4011 621.902 33.7753 620.948 34.3581C615.871 37.4607 611.69 41.4554 608.67 46.6153C606.821 46.3711 604.971 46.1273 602.846 45.847C605.496 41.5674 608.099 37.6357 611.943 34.8294C615.433 32.2827 619.416 31.3587 623.722 32.4709Z" fill="#6C1717"/>
<path d="M593.687 91.2287C593.821 90.4687 593.976 89.7211 594.458 89.0801C596.104 86.8879 597.742 84.6886 599.381 82.491C601.847 84.1336 603.565 86.4215 604.968 88.9813C604.6 92.5304 601.726 96.3899 598.916 97.1093C597.253 95.0775 595.639 93.0021 593.687 91.2287Z" fill="#C46969"/>
<path d="M535.068 184.1C537.905 179.971 540.74 175.842 543.577 171.714C543.904 172.166 544.3 172.582 544.544 173.073C546.364 176.727 546.331 177.037 544.034 180.395C542.762 182.253 541.521 184.134 540.22 185.971C539.526 186.953 538.92 188.031 537.773 188.865C536.677 187.284 535.743 185.77 535.068 184.1Z" fill="#A61E1E"/>
<path d="M525.543 157.432C522.792 160.812 520.036 164.188 517.294 167.576C516.806 168.178 516.17 168.688 515.985 169.5C515.762 169.467 515.52 169.481 515.32 169.396C513.926 168.805 512.169 169.163 511.078 167.781C511.52 166.325 512.74 165.432 513.616 164.293C515.326 162.065 517.107 159.89 518.808 157.655C519.734 156.438 520.788 155.908 522.31 156.468C523.363 156.854 524.463 157.115 525.543 157.432Z" fill="#6D1717"/>
<path d="M506.75 179.86C506.486 180.757 505.775 181.34 505.207 182.019C502.994 184.668 500.76 187.3 498.551 189.953C498.345 190.2 498.263 190.551 498.122 190.854C496.675 190.68 495.313 190.068 493.809 190.124C493.011 190.153 492.707 189.331 493.211 188.662C493.684 188.033 494.223 187.455 494.732 186.855C496.474 184.796 498.344 182.83 499.919 180.651C501.275 178.776 502.774 178.302 504.833 179.216C505.446 179.488 506.11 179.648 506.75 179.86Z" fill="#6E1717"/>
<path d="M560.203 115.976C559.19 115.834 558.362 115.733 557.592 116.854C555.878 119.349 553.93 121.684 552.049 124.062C551.546 124.697 551.157 125.354 551.042 126.16C550.717 126.078 550.368 126.045 550.069 125.906C548.767 125.301 547.481 124.664 545.99 123.943C546.939 122.631 547.748 121.44 548.633 120.307C549.945 118.629 551.319 116.999 552.651 115.335C553.516 114.255 554.595 113.807 555.922 114.269C557.373 114.774 559.093 114.616 560.203 115.976Z" fill="#6C1717"/>
<path d="M551.649 159.708C552.538 159.916 553.12 159.462 553.626 158.812C555.731 156.108 557.842 153.409 559.952 150.71C560.644 151.184 560.889 151.968 561.278 152.645C562.146 154.154 562.148 155.529 560.967 156.996C558.872 159.597 557.073 162.434 554.685 165.23C553.582 163.223 552.616 161.466 551.649 159.708Z" fill="#A61E1E"/>
<path d="M541.645 137.119C539.65 139.668 537.667 142.227 535.651 144.76C535.135 145.407 535.412 146.023 535.548 146.665C534.632 146.248 533.738 145.772 532.795 145.43C531.868 145.094 530.892 144.894 529.988 144.648C529.867 144.063 530.076 143.689 530.362 143.324C531.964 141.284 533.592 139.263 535.141 137.183C536.014 136.011 537.044 135.716 538.394 136.166C539.464 136.524 540.56 136.804 541.645 137.119Z" fill="#6E1717"/>
<path d="M613.188 78.4048C613.556 78.1787 614.035 78.0349 614.276 77.7131C616.261 75.0616 618.613 72.6837 620.226 69.7566C620.591 70.4448 621.018 71.1043 621.306 71.8206C622.292 74.2787 622.36 76.5569 620.229 78.597C619.109 79.6695 618.286 81.0471 617.279 82.2453C616.358 83.3412 615.969 83.3244 615.311 82.2047C614.575 80.9545 613.893 79.6731 613.188 78.4048Z" fill="#A61E1E"/>
<path d="M527.973 195.436C527.515 195.749 527.028 196.029 526.603 196.382C525.237 197.515 523.754 197.664 521.62 196.27C520.262 195.382 519.381 194.067 518.718 192.598C518.424 191.946 518.392 191.283 518.577 190.616C518.908 189.42 519.275 188.234 519.627 187.043C523.099 189.154 525.903 191.93 527.973 195.436Z" fill="#C26969"/>
<path d="M601.783 56.1925C599.597 58.3393 598.25 61.0945 596.474 63.5384C595.872 64.3663 596.023 64.8054 597.011 65.3926C597.494 65.6795 598.027 65.8638 598.294 66.4087C595.801 65.7298 593.308 65.0509 590.635 64.3231C592.03 61.3008 593.968 58.938 595.6 56.3917C595.908 55.9108 596.493 55.6529 597.087 55.7243C598.65 55.913 600.27 55.5308 601.783 56.1925Z" fill="#6C1616"/>
<path d="M598.917 97.112C599.118 97.026 599.388 96.996 599.51 96.8457C601.522 94.3581 603.46 91.8181 604.968 88.9818C605.636 89.4861 605.876 90.2624 606.2 90.969C607.765 94.3806 607.716 94.724 605.446 97.6335C605.376 97.7225 605.32 97.8274 605.236 97.8988C603.898 99.0357 603.486 101.04 601.658 101.716C600.454 100.354 599.744 98.6985 598.917 97.112Z" fill="#A51E1E"/>
<path d="M567.913 139.336C569.018 139.619 569.53 138.8 570.052 138.114C571.728 135.915 573.354 133.678 575.017 131.468C575.348 131.029 575.756 130.648 576.129 130.241C576.444 130.698 576.761 131.154 577.071 131.614C578.017 133.018 577.795 134.212 576.724 135.543C574.699 138.061 572.852 140.722 570.825 143.467C569.434 142.231 568.817 140.677 567.913 139.336Z" fill="#A51E1E"/>
<path d="M584.041 118.368C585.562 117.501 586.266 115.919 587.256 114.604C588.6 112.818 589.803 110.925 591.067 109.08C593.293 113.473 593.298 113.477 590.494 117.149C589.198 118.847 587.877 120.525 586.429 122.39C585.183 121.181 584.538 119.822 584.041 118.368Z" fill="#A61F1F"/>
<path d="M587.826 76.3768C585.912 79.1227 583.998 81.8682 582.085 84.6141C580.561 84.2147 579.002 84.0467 577.51 84.0556C576.968 83.2762 577.549 82.8878 577.838 82.4809C579.274 80.4522 580.762 78.461 582.197 76.4319C582.798 75.5837 583.565 75.2813 584.544 75.518C585.643 75.7834 586.732 76.0889 587.826 76.3768Z" fill="#6C1616"/>
<path d="M574.044 95.9107C572.648 97.6546 571.253 99.399 569.857 101.143C569.09 102.102 568.322 103.061 567.555 104.019C562.414 102.614 562.265 103.16 565.79 98.643C565.86 98.5539 565.958 98.4808 566.005 98.3825C567.597 95.078 570.288 94.7932 573.406 95.6864C573.623 95.7476 573.831 95.8353 574.044 95.9107Z" fill="#6D1717"/>
<path d="M533.554 148.929C532.582 148.915 531.901 149.384 531.312 150.135C530.148 151.621 528.926 153.061 527.728 154.519C526.068 154.24 524.447 153.837 522.758 153.087C523.734 151.037 525.302 149.574 526.63 147.939C526.927 147.573 527.331 147.367 527.811 147.425C529.793 147.663 531.86 147.588 533.554 148.929Z" fill="#9A8859"/>
<path d="M549.617 128.654C548.815 128.663 548.113 128.856 547.579 129.538C546.347 131.109 545.082 132.655 543.83 134.21C542.203 133.889 540.57 133.584 539.1 132.808C539.314 131.607 540.159 130.958 540.761 130.171C543.921 126.04 544.637 125.931 549.617 128.654Z" fill="#9A8859"/>
<path d="M567.427 107.372C567.099 107.334 566.757 107.342 566.445 107.249C565.627 107.006 564.962 107.059 564.408 107.841C563.258 109.463 561.811 110.877 561.005 112.738C559.431 112.274 557.799 111.974 556.146 111.214C557.275 109.193 558.7 107.622 560.043 105.994C560.416 105.542 560.931 105.223 561.514 105.367C563.539 105.868 565.761 105.81 567.427 107.372Z" fill="#9A8858"/>
<path d="M583.837 88.5385C582.497 88.6673 581.203 87.2293 580.016 88.014C578.965 88.7091 578.309 90.0096 577.503 91.0614C577.032 91.675 576.609 92.3248 576.165 92.9579C574.492 92.8335 572.824 92.6784 571.171 92.2609C571.759 90.7079 573.722 87.5886 574.577 86.8894C574.815 86.6941 575.184 86.5191 575.473 86.5465C577.826 86.7722 580.232 86.6606 582.481 87.5912C583.006 87.809 583.53 88.0153 583.837 88.5385Z" fill="#998556"/>
<path d="M513.825 171.953C512.78 173.136 511.725 174.311 510.695 175.507C510.342 175.917 509.779 176.298 510.01 176.938C510.157 177.343 510.505 177.677 510.762 178.042C508.709 177.467 506.955 176.148 504.682 175.819C504.757 174.548 505.635 173.951 506.215 173.209C506.768 172.5 507.372 171.825 508.006 171.186C508.43 170.757 509.015 170.713 509.59 170.833C511.021 171.132 512.498 171.259 513.825 171.953Z" fill="#9E895A"/>
<path d="M198.137 613.54C196.747 616.748 195.367 619.961 193.964 623.164C192.287 626.991 190.605 630.816 188.894 634.628C188.161 636.263 187.351 637.864 186.521 639.594C186.404 638.414 186.769 637.449 187.14 636.54C190.171 629.112 193.22 621.692 196.339 614.302C196.945 612.868 197.136 611.201 198.411 610.087C198.262 610.723 198.135 611.366 197.957 611.993C197.8 612.545 197.762 613.061 198.137 613.54Z" fill="#42321C"/>
<path d="M592.923 67.8801C592.813 69.1982 591.814 70.0507 591.195 71.092C590.114 72.906 590.072 72.8676 591.837 73.9807C592.106 74.1504 592.293 74.4511 592.518 74.6913C591.869 74.5317 591.164 74.4824 590.582 74.1897C589.256 73.524 587.883 73.1259 586.411 73.0007C585.977 72.9637 585.506 72.9099 585.19 72.4426C585.339 71.442 586.042 70.7115 586.594 69.8973C588.792 66.659 588.951 66.6056 592.923 67.8801Z" fill="#968154"/>
<path d="M606.502 49.1454C605.555 50.4551 604.303 51.577 603.963 53.261C602.101 53.1314 600.239 53.0018 598.267 52.8642C598.504 51.395 599.394 50.5296 600.066 49.5519C600.333 49.1639 600.744 48.9806 601.21 48.9541C602.98 48.8532 604.76 48.4648 606.502 49.1454Z" fill="#957A50"/>
<path d="M629.083 33.8851C627.298 33.4174 625.512 32.9497 623.727 32.482C625.755 32.0235 627.508 32.6151 629.083 33.8851Z" fill="#6C1717"/>
<path d="M607.175 54.2052C608.449 54.2422 609.637 54.4807 610.451 55.5991C609.218 55.4638 608.097 55.0701 607.175 54.2052Z" fill="#957A50"/>
<path d="M576.24 93.0261C577.419 93.1857 578.633 93.2633 579.394 94.3901C578.241 94.1701 576.996 94.163 576.24 93.0261Z" fill="#998556"/>
<path d="M596.252 68.6827C595.111 68.6395 594.046 68.2925 592.999 67.8715C594.315 67.2152 595.321 67.7992 596.252 68.6827Z" fill="#968154"/>
<path d="M583.259 85.061C584.233 85.2179 585.262 85.2562 585.838 86.2657C584.86 86.1172 583.869 85.996 583.259 85.061Z" fill="#6C1616"/>
<path d="M619.406 51.0422C619.991 51.1511 620.321 51.5315 620.5 52.0711C619.928 51.9485 619.513 51.6593 619.406 51.0422Z" fill="#A71E1E"/>
<path d="M561.782 132.794C561.977 133.045 562.172 133.296 562.366 133.546C561.995 133.432 561.757 133.215 561.782 132.794Z" fill="#A71E1E"/>
<path d="M195.7 640.952C196.593 637.92 197.545 634.923 198.677 631.954C199.758 629.12 200.841 626.249 201.984 623.443C203.465 619.806 204.928 616.145 206.695 612.61C208.504 608.989 210.141 605.276 211.921 601.632C214.842 595.656 217.854 589.736 221.071 583.912C224.994 576.809 228.722 569.598 232.578 562.458C235.633 556.803 238.754 551.183 241.849 545.55C245.542 538.829 249.324 532.155 252.916 525.38C257.09 517.505 261.488 509.758 265.917 502.028C270.573 493.903 275.292 485.812 280.036 477.738C283.752 471.413 287.42 465.054 291.343 458.858C296.904 450.073 302.425 441.256 308.624 432.89C312.594 427.533 316.391 422.047 320.407 416.726C323.743 412.305 327.281 408.035 330.738 403.704C334.123 399.462 337.504 395.217 340.915 390.995C342.764 388.708 344.662 386.459 346.555 384.206C354.5 374.752 362.675 365.497 371.021 356.398C375.151 351.895 379.404 347.503 383.669 343.126C389.272 337.374 394.962 331.705 400.577 325.963C404.612 321.837 408.558 317.624 412.592 313.497C416.229 309.777 419.938 306.129 423.601 302.434C425.512 300.506 427.407 298.56 429.283 296.596C433.975 291.687 438.556 286.668 443.362 281.873C448.021 277.225 452.11 272.061 456.733 267.399C461.752 262.336 466.134 256.66 471.592 252.025C472.282 251.44 472.927 250.799 473.646 250.251C474.272 249.773 474.946 249.339 475.647 248.979C476.562 248.509 477.735 248.625 478.164 249.22C478.723 249.993 478.939 250.911 478.534 251.791C476.883 255.377 475.11 258.898 472.97 262.226C466.421 272.409 459.305 282.19 451.927 291.779C446.687 298.59 441.271 305.265 435.977 312.034C430.824 318.624 425.793 325.309 420.589 331.857C414.609 339.381 408.916 347.125 403 354.694C395.619 364.138 388.643 373.881 381.399 383.425C377.503 388.557 373.617 393.697 369.747 398.85C364.453 405.899 359.179 412.965 353.895 420.023C347.866 428.077 341.815 436.115 335.812 444.188C331.766 449.63 327.778 455.115 323.78 460.592C318.65 467.623 313.517 474.653 308.42 481.708C305.574 485.647 302.782 489.626 299.996 493.608C291.373 505.929 282.796 518.284 274.653 530.927C269.701 538.615 264.82 546.349 260.081 554.177C252.599 566.54 245.483 579.104 238.532 591.766C233.976 600.065 229.471 608.393 224.99 616.733C222.057 622.192 219.084 627.636 216.356 633.198C213.57 638.879 210.266 644.265 207.255 649.817C205.805 652.49 203.97 654.963 202.212 657.458C201.027 659.14 199.524 660.52 197.588 661.357C196.005 662.041 194.699 661.55 193.979 659.945C193.555 659 193.43 657.999 193.411 656.966C193.336 652.891 193.552 648.848 194.63 644.891C194.986 643.579 195.344 642.265 195.7 640.952Z" fill="#EAC594"/>
<path d="M349.929 470.791C349.993 470.58 350.096 470.389 350.237 470.218C350.615 469.86 350.669 469.28 351.101 468.959C356.465 460.149 362.233 451.604 368.102 443.129C380.234 425.609 392.755 408.375 406.1 391.753C414.547 381.234 423.296 370.967 432.267 360.893C439.203 353.104 446.226 345.393 453.22 337.656C454.489 336.252 455.825 334.912 457.881 333.39C456.969 335.864 455.735 337.329 454.536 338.801C451.889 342.053 449.198 345.27 446.543 348.516C433.411 364.57 420.135 380.509 407.191 396.713C388.304 420.359 370.127 444.551 352.507 469.159C352.045 469.803 351.579 470.446 351.115 471.089C350.949 471.362 350.62 471.498 350.505 471.814C350.447 471.992 350.352 472.146 350.218 472.276C348.969 472.005 349.38 471.412 349.929 470.791Z" fill="#100D0D"/>
<path d="M171.917 694.659C165.578 691.963 159.229 689.291 152.903 686.562C147.199 684.102 141.513 681.599 135.839 679.07C134.821 678.617 133.897 677.95 132.687 677.238C133.267 677.311 133.582 677.297 133.858 677.393C139.621 679.394 145.393 681.368 151.133 683.435C154.64 684.699 158.082 686.142 161.578 687.44C163.164 688.028 164.749 688.665 166.457 688.854C166.625 688.98 166.806 689.082 167.001 689.16C167.697 689.901 168.85 689.653 169.568 690.345C176.142 692.813 182.678 695.385 189.299 697.716C194.852 699.67 200.321 701.891 206.055 703.306C206.825 703.496 207.589 703.724 208.368 703.863C210.782 704.295 212.871 703.658 214.503 701.798C215.247 700.95 215.919 700.032 216.558 699.1C219.839 694.319 222.369 689.117 224.855 683.907C233.933 664.88 243.924 646.351 254.898 628.353C255.586 627.225 256.112 625.918 257.476 625.226C257.629 626.296 257.097 627.023 256.696 627.802C250.841 639.179 244.96 650.543 239.154 661.945C234.632 670.826 230.21 679.757 225.738 688.663C223.704 692.713 221.584 696.718 219.015 700.46C218.121 701.762 217.19 703.069 216.09 704.193C213.434 706.905 210.228 707.992 206.478 706.905C203.325 705.991 200.146 705.133 197.057 704.028C190.661 701.741 184.322 699.293 177.949 696.941C175.931 696.196 174.05 695.093 171.917 694.659Z" fill="#100E0D"/>
<path d="M349.929 470.783C349.942 471.294 349.698 471.855 350.217 472.268C349.78 473.57 348.859 474.573 348.096 475.67C346.432 478.063 344.75 480.444 343.051 482.813C342.694 483.312 342.235 483.738 341.695 484.34C341.705 483.857 341.628 483.593 341.725 483.436C344.195 479.429 346.678 475.43 349.179 471.442C349.349 471.172 349.675 471 349.929 470.783Z" fill="#544028"/>
<path d="M169.569 690.356C168.581 690.246 167.568 690.192 167.002 689.17C167.947 689.373 169 689.339 169.569 690.356Z" fill="#916D3F"/>
<path d="M351.103 468.954C351.081 469.557 350.829 470.002 350.238 470.214C350.26 469.611 350.581 469.214 351.103 468.954Z" fill="#544028"/>
<path d="M350.502 471.813C350.518 471.414 350.731 471.18 351.112 471.088C351.083 471.476 350.87 471.71 350.502 471.813Z" fill="#544028"/>
</svg>
