<svg width="757" height="693" viewBox="0 0 757 693" fill="none" xmlns="http://www.w3.org/2000/svg">
<path d="M768.547 275.691C774.255 264.338 757.216 240.768 747.468 240.692C657.935 239.997 418.739 449.078 372.925 482.061C366.853 486.433 361.404 490.361 356.631 493.771C330.903 512.178 306.201 517.159 288.824 524.09C279.556 527.788 272.229 530.717 266.277 534.327C219.316 562.849 83.9206 641.904 80.8799 651.512C78.4168 659.295 100.403 688.085 107.786 689.069C126.371 691.546 245.07 602.223 292.031 573.701C297.982 570.092 305.31 567.163 314.577 563.465C331.955 556.534 356.391 543.269 382.119 524.862C386.892 521.451 392.342 517.522 398.413 513.151C426.402 493.001 541.808 410.829 638.931 349.8C700.785 310.933 762.515 287.689 768.547 275.691Z" fill="#60C8C5"/>
<path d="M107.787 689.069C100.468 688.094 78.8165 659.811 80.8354 651.734C86.8509 662.978 99.3674 677.577 104.589 678.273C123.173 680.751 241.873 591.428 288.834 562.906C294.785 559.296 302.112 556.367 311.38 552.669C328.757 545.738 353.194 532.473 378.922 514.066C383.695 510.655 389.145 506.727 395.216 502.356C423.205 482.205 538.611 400.034 635.734 339.004C697.587 300.137 759.318 276.893 765.35 264.896C766.268 263.069 766.591 260.926 766.457 258.617C769.486 264.744 770.815 271.182 768.547 275.692C762.515 287.689 700.785 310.933 638.932 349.8C541.809 410.83 426.403 493.002 398.414 513.152C392.342 517.523 386.893 521.452 382.12 524.862C356.392 543.269 331.955 556.534 314.578 563.465C305.31 567.163 297.983 570.093 292.032 573.702C245.07 602.224 126.371 691.547 107.787 689.069Z" fill="#09AAA5"/>
<path d="M91.9783 643.931L84.1211 603.625L107.19 635.46L238.134 555.426C238.134 555.426 246.169 588.478 243.556 590.771C236.865 596.64 119.89 674.37 113.407 673.63C109.729 673.21 91.9783 643.931 91.9783 643.931Z" fill="#D3D3D3"/>
<path d="M91.9783 643.931L84.1211 603.625L107.19 635.46C110.24 639.843 109.555 663.118 113.407 673.63C109.729 673.21 91.9783 643.931 91.9783 643.931Z" fill="#BABABA"/>
<path d="M238.134 555.426C239.382 552.277 220.734 524.247 215.066 523.592C212.208 523.261 86.2921 598.042 84.121 603.625C83.4308 605.4 98.2298 631.419 107.19 635.46C110.385 636.901 235.324 562.519 238.134 555.426Z" fill="#F2F2F2"/>
<path opacity="0.098" d="M231.428 566.724C233.002 571.432 234.063 576.252 234.914 581.112C235.31 583.548 235.667 585.993 235.869 588.463C235.976 589.697 236.043 590.936 236.052 592.182C236.005 593.411 236.072 594.716 235.596 595.887C235.709 594.66 235.482 593.456 235.266 592.247L234.625 588.628L233.329 581.381C232.533 576.533 231.761 571.677 231.428 566.724Z" fill="black"/>
<path opacity="0.098" d="M206.18 579.366C207.754 584.074 208.815 588.894 209.666 593.754C210.062 596.19 210.419 598.635 210.621 601.105C210.728 602.339 210.795 603.578 210.804 604.824C210.757 606.053 210.824 607.358 210.348 608.529C210.461 607.302 210.234 606.098 210.018 604.889L209.377 601.27L208.081 594.023C207.284 589.175 206.512 584.319 206.18 579.366Z" fill="black"/>
<path opacity="0.098" d="M219.747 585C220.937 588.037 221.624 591.177 222.123 594.351C222.345 595.942 222.528 597.543 222.57 599.163C222.589 600.758 222.661 602.469 221.985 604.002C222.036 602.405 221.545 600.864 221.322 599.294C221.028 597.731 220.78 596.161 220.533 594.587C220.089 591.431 219.692 588.262 219.747 585Z" fill="black"/>
<path opacity="0.098" d="M179.343 598.818C180.551 601.982 181.283 605.252 181.897 608.539C182.463 611.835 182.909 615.155 182.867 618.535C181.65 615.342 180.922 612.09 180.313 608.813C179.752 605.528 179.309 602.226 179.343 598.818Z" fill="black"/>
<path opacity="0.098" d="M151.971 613.077C153.545 617.785 154.606 622.604 155.457 627.465C155.853 629.901 156.21 632.346 156.412 634.815C156.519 636.049 156.586 637.289 156.595 638.534C156.548 639.764 156.615 641.069 156.139 642.239C156.252 641.013 156.025 639.808 155.809 638.6L155.168 634.981L153.872 627.733C153.076 622.886 152.304 618.029 151.971 613.077Z" fill="black"/>
<path opacity="0.1294" d="M90.584 617.279C92.1578 621.987 93.2189 626.807 94.0701 631.667C94.4659 634.103 94.823 636.548 95.0253 639.018C95.1323 640.252 95.199 641.491 95.2081 642.737C95.1611 643.966 95.2287 645.271 94.7519 646.442C94.8651 645.215 94.6384 644.011 94.4222 642.802L93.7811 639.183L92.4853 631.936C91.6887 627.088 90.9166 622.232 90.584 617.279Z" fill="black"/>
<path opacity="0.098" d="M102.4 640.978C103.59 644.02 104.278 647.164 104.779 650.343C105 651.937 105.184 653.54 105.227 655.163C105.246 656.76 105.319 658.474 104.642 660.009C104.693 658.409 104.202 656.865 103.978 655.293C103.684 653.728 103.436 652.155 103.188 650.579C102.743 647.418 102.345 644.244 102.4 640.978Z" fill="black"/>
<path opacity="0.098" d="M165.32 619.837C166.549 623.051 167.275 626.369 167.81 629.722C168.051 631.403 168.25 633.094 168.31 634.804C168.341 636.489 168.439 638.291 167.754 639.917C167.812 638.231 167.298 636.598 167.062 634.939C166.751 633.287 166.487 631.626 166.221 629.962C165.741 626.627 165.305 623.279 165.32 619.837Z" fill="black"/>
<path opacity="0.098" d="M125.074 630.83C126.648 635.538 127.709 640.357 128.561 645.218C128.956 647.653 129.313 650.098 129.516 652.568C129.623 653.802 129.689 655.041 129.698 656.287C129.651 657.516 129.719 658.821 129.242 659.992C129.356 658.765 129.129 657.561 128.912 656.352L128.271 652.733L126.975 645.486C126.179 640.639 125.407 635.782 125.074 630.83Z" fill="black"/>
<path opacity="0.098" d="M112.796 637.07C114.016 640.241 114.732 643.515 115.258 646.824C115.494 648.484 115.69 650.152 115.745 651.84C115.773 653.504 115.865 655.284 115.182 656.887C115.238 655.223 114.73 653.612 114.497 651.974C114.191 650.344 113.93 648.705 113.669 647.063C113.197 643.772 112.771 640.467 112.796 637.07Z" fill="black"/>
<path opacity="0.098" d="M138.866 638.865C140.027 641.773 140.686 644.783 141.159 647.826C141.366 649.353 141.537 650.888 141.568 652.442C141.577 653.971 141.631 655.616 140.962 657.08C141.005 655.548 140.533 654.073 140.319 652.568C140.037 651.072 139.801 649.567 139.568 648.058C139.15 645.034 138.781 641.995 138.866 638.865Z" fill="black"/>
<path opacity="0.0784" d="M216.646 534.588C213.734 534.856 211.005 535.986 208.369 537.176C205.738 538.408 203.162 539.755 200.644 541.207C195.572 544.046 190.627 547.115 185.732 550.26C175.941 556.55 166.26 563.024 156.623 569.57C146.915 576.01 137.263 582.546 127.419 588.796C117.561 595.007 107.605 601.167 96.9971 606.032C102.188 603.381 107.169 600.36 112.087 597.249C117.027 594.173 121.902 590.99 126.744 587.759L155.727 568.236C165.442 561.801 175.121 555.298 185.079 549.216C190.066 546.191 195.096 543.225 200.273 540.519C202.865 539.175 205.516 537.936 208.214 536.817C210.914 535.739 213.722 534.724 216.646 534.588Z" fill="black"/>
<path opacity="0.0784" d="M216.958 547.917C214.046 548.185 211.318 549.314 208.681 550.505C206.05 551.737 203.474 553.083 200.956 554.536C195.884 557.375 190.939 560.443 186.045 563.589C176.253 569.879 166.573 576.353 156.935 582.898C147.227 589.338 137.576 595.875 127.731 602.125C117.874 608.335 107.917 614.496 97.3096 619.361C102.501 616.71 107.482 613.689 112.4 610.578C117.34 607.501 122.214 604.319 127.057 601.087L156.039 581.565C165.754 575.13 175.433 568.627 185.391 562.545C190.379 559.519 195.408 556.554 200.585 553.848C203.177 552.504 205.828 551.265 208.526 550.146C211.226 549.068 214.034 548.053 216.958 547.917Z" fill="black"/>
<path opacity="0.0784" d="M234.789 552.421C231.877 552.689 229.149 553.819 226.512 555.01C223.882 556.241 221.306 557.588 218.787 559.041C213.715 561.879 208.77 564.948 203.876 568.094C194.085 574.384 184.404 580.858 174.766 587.403C165.058 593.843 155.407 600.379 145.562 606.63C135.705 612.84 125.748 619 115.141 623.865C120.332 621.214 125.313 618.193 130.231 615.083C135.171 612.006 140.046 608.824 144.888 605.592L173.871 586.069C183.585 579.634 193.265 573.131 203.223 567.049C208.21 564.024 213.24 561.059 218.416 558.352C221.008 557.008 223.659 555.77 226.358 554.651C229.058 553.573 231.865 552.558 234.789 552.421Z" fill="black"/>
<mask id="mask0_10_83431" style="mask-type:luminance" maskUnits="userSpaceOnUse" x="84" y="523" width="155" height="113">
<path d="M238.135 555.427C239.383 552.277 220.735 524.247 215.067 523.592C212.209 523.262 86.293 598.042 84.1219 603.625C83.4318 605.4 98.2308 631.419 107.191 635.46C110.385 636.901 235.325 562.519 238.135 555.427Z" fill="white"/>
</mask>
<g mask="url(#mask0_10_83431)">
<g opacity="0.1">
<path d="M277.447 486.323C277.118 491.446 275.798 496.059 274.305 500.572C272.734 505.041 270.827 509.328 268.626 513.47C264.18 521.717 258.733 529.436 252.393 536.676C239.8 551.196 223.931 563.987 205.668 575.496C187.351 586.986 166.682 597.219 142.781 605.723C130.858 610.004 118.064 613.806 104.258 617.075C97.3436 618.709 90.1466 620.18 82.6014 621.475C74.9907 622.732 67.1951 623.895 58.4199 624.53C58.7817 619.413 60.1123 614.819 61.617 610.312C63.1978 605.849 65.127 601.562 67.3392 597.439C71.7852 589.193 77.2435 581.48 83.5724 574.233C96.1649 559.701 112.001 546.903 130.199 535.357C148.429 523.829 169.076 513.584 192.977 505.067C204.89 500.792 217.705 496.99 231.512 493.721C238.436 492.106 245.644 490.629 253.211 489.346C260.833 488.096 268.65 486.945 277.447 486.323Z" fill="black"/>
</g>
</g>
<path d="M626.578 37.3795L639.667 24.5373C641.004 23.2255 640.237 20.9501 638.379 20.7152L474.96 0.0456639C472.736 -0.235534 470.552 0.798314 469.36 2.69605L459.412 18.5385L626.578 37.3795Z" fill="#EAEAEA"/>
<path d="M221.575 398.241L212.233 392.144C200.189 364.613 214.343 344.894 243.847 348.1C273.35 351.307 307.031 376.224 319.076 403.755C331.12 431.286 316.967 451.005 287.463 447.799C257.959 444.592 224.278 419.675 212.234 392.144L221.575 398.241C230.718 419.139 256.285 438.053 278.68 440.487C301.075 442.921 311.819 427.953 302.677 407.055C293.534 386.156 267.968 367.242 245.572 364.808C223.177 362.374 212.433 377.342 221.575 398.241Z" fill="#D9D9D9"/>
<path d="M210.406 390.055C209.549 387.941 208.477 385.092 207.748 382.931C207.364 381.794 206.941 380.247 206.7 379.072C206.328 377.251 205.816 374.819 205.638 372.969C205.41 370.599 205.26 368.684 205.404 365.603C205.648 360.411 207.076 352.708 212.495 345.498C218.987 336.913 231.042 332.502 247.228 334.262C280.224 337.848 317.891 365.715 331.361 396.504C338.191 412.114 337.489 425.479 330.837 434.395C330.101 435.318 329.093 436.528 328.305 437.407C327.873 437.889 327.259 438.499 326.774 438.928C325.202 440.322 323.42 441.901 320.384 443.66C315.054 446.748 309.744 448.079 306.228 448.653C302.732 449.222 300.862 449.316 297.703 449.383C295.493 449.43 291.952 449.215 290.155 448.993C287.879 448.712 284.763 448.327 280.213 447.227C278.072 446.709 274.646 445.77 270.477 444.235C264.209 441.927 258.16 438.981 251.983 435.229C249.029 433.435 246.066 431.442 243.175 429.306C238.743 426.03 235.392 423.03 235.025 422.698C233.298 421.141 230.689 418.788 227.539 415.418C224.064 411.699 221.7 408.661 220.845 407.527C219.734 406.055 217.424 402.991 215.08 399.069C214.259 397.694 212.55 394.835 210.405 390.055C210.761 390.868 211.371 391.58 212.233 392.144C224.277 419.675 257.959 444.593 287.462 447.799C316.966 451.005 331.12 431.286 319.075 403.755C307.031 376.224 273.35 351.307 243.846 348.1C214.342 344.894 200.189 364.613 212.233 392.144C211.372 391.58 210.762 390.868 210.406 390.055Z" fill="#E8E8E8"/>
<path d="M245.572 364.808C232.568 363.395 223.493 367.849 219.958 375.925C217.405 381.756 217.742 389.477 221.576 398.24C230.719 419.139 256.285 438.053 278.68 440.487C287.705 441.468 294.837 439.623 299.539 435.703C306.506 429.895 308.136 419.532 302.677 407.055C293.535 386.156 267.968 367.242 245.572 364.808ZM288.169 437.117C286.82 438.227 283.411 439.971 275.733 439.176C273.119 438.906 267.677 437.996 260.605 434.946C258.568 434.068 258.568 434.068 254.414 431.906C253.474 431.416 252.273 430.665 251.356 430.132C251.33 430.118 248.532 428.449 245.29 426.047C243.442 424.677 237.819 420.51 232.029 413.705C229.872 411.169 228.171 408.695 227.865 408.219C227.219 407.21 226.337 405.877 225.755 404.832C225.051 403.568 224.197 401.836 223.58 400.527C222.988 399.117 221.755 396.184 221.324 393.021C220.846 389.518 221.516 387.862 221.768 387.238C224.717 380.5 232.29 376.784 243.14 377.963C261.827 379.994 283.159 395.776 290.788 413.213C295.342 423.624 293.982 432.271 288.169 437.117Z" fill="#D1D1D1"/>
<path d="M212.512 345.477C295.651 235.773 375.922 129.11 459.06 19.4072C468.352 6.95228 618.749 32.5182 626.531 37.1848C527.969 169.586 429.416 301.973 330.853 434.374C337.491 425.458 338.186 412.103 331.362 396.505C317.892 365.715 280.224 337.848 247.229 334.262C231.056 332.504 219.007 336.906 212.512 345.477Z" fill="#D9D9D9"/>
<path d="M369.694 137.549C340.555 176.121 311.513 214.59 282.314 253.225C304.715 228.358 396.565 214.872 430.169 300.961C461.863 258.385 493.559 215.808 525.253 173.233C502.712 116.622 397.359 106.181 369.694 137.549Z" fill="#7ABDFF"/>
<g opacity="0.051">
<path d="M329.625 392.843C330.237 394.059 330.825 395.278 331.361 396.504C338.185 412.103 337.49 425.458 330.852 434.374C429.342 302.071 527.822 169.781 626.312 37.4787C527.413 155.937 428.523 274.386 329.625 392.843Z" fill="black"/>
</g>
<g opacity="0.5216">
<path d="M234.331 334.244C309.924 228.585 383.291 125.418 459.149 19.4636C459.625 18.7882 460.524 18.2152 461.761 17.7252C460.489 18.1842 459.559 18.7375 459.06 19.407C375.922 129.11 295.651 235.773 212.512 345.477C217.137 339.374 224.59 335.4 234.331 334.244Z" fill="white"/>
</g>
<g opacity="0.1882">
<mask id="mask1_10_83431" style="mask-type:luminance" maskUnits="userSpaceOnUse" x="212" y="16" width="415" height="419">
<path d="M212.512 345.477C295.651 235.773 375.922 129.11 459.06 19.4072C468.352 6.95227 618.749 32.5182 626.531 37.1848C527.969 169.586 429.416 301.973 330.853 434.374C337.491 425.458 338.186 412.103 331.362 396.505C317.892 365.715 280.224 337.848 247.229 334.262C231.056 332.504 219.007 336.906 212.512 345.477Z" fill="white"/>
</mask>
<g mask="url(#mask1_10_83431)">
<path d="M559.95 -48.6826L267.809 351.476L251.866 340.296L527.677 -69.5475L559.95 -48.6826Z" fill="white"/>
</g>
<mask id="mask2_10_83431" style="mask-type:luminance" maskUnits="userSpaceOnUse" x="212" y="16" width="415" height="419">
<path d="M212.512 345.477C295.651 235.773 375.922 129.11 459.06 19.4072C468.352 6.95227 618.749 32.5182 626.531 37.1848C527.969 169.586 429.416 301.973 330.853 434.374C337.491 425.458 338.186 412.103 331.362 396.505C317.892 365.715 280.224 337.848 247.229 334.262C231.056 332.504 219.007 336.906 212.512 345.477Z" fill="white"/>
</mask>
<g mask="url(#mask2_10_83431)">
<path d="M574.605 -44.8531L285.244 357.271L278.951 352.422L564.896 -50.505L574.605 -44.8531Z" fill="white"/>
</g>
</g>
<path d="M246.175 377.818C237.425 377.136 231.034 379.739 227.793 384.492L198.396 426.305C201.637 421.552 208.028 418.949 216.778 419.632C234.167 420.987 254.303 434.805 261.742 450.487C265.438 458.277 265.306 465.065 262.106 469.757L281.433 442.267L291.503 427.944C294.703 423.252 294.835 416.464 291.139 408.673C283.7 392.991 263.565 379.174 246.175 377.818Z" fill="#F2F2F2"/>
<path d="M262.094 469.789C269.045 459.598 260.418 441.609 242.825 429.609C225.232 417.608 205.336 416.141 198.385 426.331C191.434 436.522 200.061 454.511 217.653 466.511C235.246 478.512 255.143 479.979 262.094 469.789Z" fill="#C7C7C7"/>
<path d="M249.822 471.326C248.084 471.582 246.161 471.631 244.109 471.47C228.598 470.26 209.889 457.425 203.254 443.444C200.689 438.034 200.263 433.207 202.056 429.855C203.904 426.398 207.767 425.163 210.681 424.735C212.419 424.48 214.34 424.432 216.392 424.592C231.903 425.802 250.615 438.637 257.248 452.621C259.812 458.03 260.239 462.857 258.445 466.21C256.596 469.664 252.736 470.899 249.822 471.326Z" fill="#5C5C5C"/>
<path d="M283.013 445.574C282.127 445.574 281.27 445.1 280.821 444.266C280.169 443.056 280.621 441.547 281.831 440.895C288.099 437.519 290.021 429.769 286.972 420.165C281.562 403.127 262.876 386.172 245.318 382.368C238.72 380.941 233.18 381.557 229.302 384.151C226.478 386.042 224.713 388.865 224.053 392.541C223.81 393.893 222.517 394.787 221.164 394.551C219.813 394.308 218.912 393.015 219.155 391.662C220.049 386.677 222.6 382.65 226.534 380.017C231.558 376.652 238.418 375.779 246.371 377.505C265.483 381.645 285.824 400.108 291.714 418.66C295.544 430.725 292.732 440.674 284.191 445.276C283.816 445.478 283.412 445.574 283.013 445.574Z" fill="#C7C7C7"/>
<path d="M277.522 453.265C276.636 453.265 275.779 452.791 275.329 451.956C274.678 450.747 275.13 449.238 276.34 448.586C282.607 445.209 284.529 437.459 281.481 427.855C276.071 410.818 257.385 393.862 239.827 390.059C233.226 388.631 227.691 389.246 223.811 391.842C220.987 393.732 219.221 396.556 218.562 400.232C218.319 401.584 217.024 402.479 215.673 402.242C214.321 401.999 213.421 400.706 213.664 399.353C214.558 394.367 217.11 390.34 221.043 387.706C226.069 384.342 232.927 383.47 240.88 385.196C259.992 389.336 280.333 407.797 286.223 426.35C290.053 438.413 287.241 448.364 278.7 452.966C278.325 453.169 277.921 453.265 277.522 453.265Z" fill="#C7C7C7"/>
<path d="M270.925 462.441C270.039 462.441 269.182 461.967 268.733 461.132C268.081 459.923 268.533 458.414 269.743 457.762C276.012 454.386 277.934 446.636 274.885 437.032C269.476 419.995 250.79 403.039 233.229 399.235C226.634 397.808 221.094 398.423 217.214 401.018C214.39 402.909 212.625 405.731 211.965 409.408C211.722 410.761 210.428 411.66 209.077 411.418C207.725 411.175 206.824 409.882 207.067 408.529C207.962 403.544 210.512 399.517 214.446 396.883C219.472 393.519 226.332 392.649 234.283 394.372C253.396 398.513 273.737 416.975 279.627 435.527C283.457 447.591 280.645 457.542 272.103 462.143C271.728 462.345 271.324 462.441 270.925 462.441Z" fill="#C7C7C7"/>
<path d="M264.695 470.505C263.81 470.505 262.953 470.031 262.503 469.196C261.851 467.987 262.304 466.478 263.514 465.826C269.781 462.449 271.703 454.699 268.655 445.095C263.245 428.058 244.559 411.102 227.001 407.298C220.4 405.873 214.863 406.485 210.985 409.081C208.161 410.972 206.394 413.795 205.735 417.472C205.492 418.825 204.19 419.721 202.846 419.481C201.493 419.239 200.594 417.946 200.836 416.593C201.731 411.607 204.284 407.58 208.217 404.946C213.242 401.582 220.104 400.711 228.054 402.436C247.166 406.576 267.507 425.037 273.396 443.59C277.227 455.653 274.414 465.604 265.874 470.206C265.498 470.409 265.095 470.505 264.695 470.505Z" fill="#C7C7C7"/>
<path d="M256.767 475.562C255.802 475.562 254.884 474.998 254.479 474.055C253.937 472.792 254.521 471.33 255.784 470.787C264.427 467.076 267.028 461.346 263.969 452.753C257.833 435.517 239.135 418.525 222.287 414.875C216.265 413.569 210.443 414.776 206.311 418.182C203.08 420.846 201.275 424.63 201.359 428.563C201.389 429.937 200.298 431.074 198.925 431.104C197.564 431.119 196.414 430.043 196.384 428.67C196.267 423.204 198.732 417.982 203.146 414.343C208.461 409.963 215.821 408.385 223.341 410.013C241.99 414.053 261.896 432.094 268.657 451.085C272.614 462.202 268.842 470.596 257.747 475.36C257.427 475.497 257.094 475.562 256.767 475.562Z" fill="#C7C7C7"/>
<mask id="mask3_10_83431" style="mask-type:luminance" maskUnits="userSpaceOnUse" x="-13" y="424" width="274" height="269">
<path d="M259.149 478.313C260.257 471.627 261.594 466.25 257.826 453.964C257.641 453.518 257.463 453.075 257.247 452.621C250.614 438.637 231.903 425.802 216.391 424.592C214.34 424.432 212.419 424.48 210.681 424.735C207.767 425.163 203.904 426.398 202.056 429.855C200.262 433.207 200.689 438.034 203.253 443.444C206.996 451.331 -16.5843 496.36 -7.8978 501.636C-11.1723 514.795 -18.053 673.916 -6.8255 689.568C5.47781 706.721 204.781 659.336 255.808 552.81C261.446 541.039 255.493 500.382 259.149 478.313Z" fill="white"/>
</mask>
<g mask="url(#mask3_10_83431)">
<path d="M79.5553 603.071C79.6055 601.769 79.6957 600.469 79.8109 599.17C79.6295 599.437 79.5283 599.587 79.5283 599.587C79.5283 599.587 76.3148 559.543 91.8839 534.867C107.453 510.19 134.901 490.167 178.493 478.436C179.915 478.054 181.321 477.631 182.719 477.192C184.327 476.382 185.937 475.577 187.556 474.79C196.11 470.634 204.635 466.431 212.756 461.462C229.482 451.227 244.555 438.555 257.812 424.119C257.812 424.119 270.379 494.267 231.26 543.726C194.832 589.781 151.033 569.895 103.929 585.049C103.207 585.426 102.491 585.813 101.782 586.217C93.6709 590.849 86.6203 597.022 79.5553 603.071Z" fill="#56C9FF"/>
<g opacity="0.5">
<path d="M255.675 434.052C254.767 439.265 253.175 444.392 251.129 449.321C249.09 454.261 246.681 459.103 243.801 463.697C238.106 472.924 230.796 481.405 222.002 488.417C219.837 490.207 217.442 491.71 215.146 493.37C214.012 494.231 212.756 494.887 211.518 495.582L207.789 497.658L205.917 498.693L203.967 499.569L200.028 501.26C197.31 502.456 194.901 503.287 192.449 504.176C187.528 505.991 182.639 507.527 177.858 509.241C173.035 510.854 168.343 512.497 163.725 514.237L156.891 516.861L150.308 519.768C148.126 520.738 146.066 521.862 143.929 522.895L142.343 523.691L140.841 524.595C139.844 525.203 138.829 525.786 137.81 526.366C129.787 531.176 122.518 537.033 115.784 543.808C112.702 547.444 109.241 550.851 106.437 554.883C104.986 556.855 103.36 558.727 102.017 560.815L97.8878 567.07C96.3907 569.112 95.1951 571.333 93.916 573.53C92.6169 575.719 91.3412 577.934 89.9813 580.136C87.5406 584.654 85.1221 589.25 82.416 593.832C82.9273 588.615 83.5118 583.335 84.4645 578.117C85.0264 575.533 85.6722 572.961 86.2948 570.363C86.9218 567.767 87.5776 565.171 88.5173 562.656L91.2512 555.043C91.6626 553.746 92.2907 552.543 92.872 551.314L94.6382 547.625C95.8132 545.153 96.9832 542.668 98.5178 540.365C99.9738 538.02 101.41 535.639 102.951 533.322C109.448 524.251 117.628 516.159 126.851 509.647C131.443 506.329 136.354 503.639 141.264 501.019L148.775 497.54L156.342 494.503C161.411 492.702 166.469 490.968 171.48 489.462C176.505 487.974 181.493 486.532 186.389 485.177L190.078 484.165C191.371 483.84 192.31 483.447 193.448 483.094C194.54 482.732 195.633 482.369 196.743 482.038L198.401 481.522L199.999 480.848C204.311 479.152 208.525 477.123 212.645 474.807C220.872 470.14 228.569 464.143 235.747 457.268C242.941 450.384 249.605 442.651 255.675 434.052Z" fill="#F2F2F2"/>
<path d="M254.474 451.288C255.628 455.971 255.599 460.986 254.955 465.863C254.32 470.767 253.012 475.609 251.227 480.28C247.646 489.64 242.087 498.217 235.524 505.749C228.943 513.336 221.393 519.807 213.199 525.509C209.064 528.368 204.689 530.934 200.184 533.234C195.656 535.478 190.996 537.465 186.312 539.154C181.601 540.769 176.898 542.169 172.285 543.39L158.774 546.696C154.394 547.73 150.185 548.867 146.089 550.103C142.012 551.395 138.04 552.83 134.161 554.557C118.565 561.294 104.604 573.129 90.291 585.746C93.7878 576.827 98.5584 568.459 104.439 560.649C110.311 552.862 117.601 545.76 126.103 540.125C134.565 534.424 144.149 530.48 153.268 527.516C157.833 525.988 162.331 524.745 166.65 523.377C170.991 522.079 175.196 520.785 179.256 519.297C183.347 517.9 187.278 516.282 191.129 514.491C195.025 512.794 198.758 510.764 202.467 508.629C209.942 504.316 217.195 499.353 223.9 493.911C230.627 488.449 236.803 482.319 242.114 475.32C247.392 468.309 251.992 460.485 254.474 451.288Z" fill="#F2F2F2"/>
<path d="M246.772 504.131C246.1 507.617 245.077 511.03 243.798 514.306C242.561 517.617 241.072 520.814 239.442 523.956C236.155 530.22 232.128 536.123 227.523 541.664C222.83 547.13 217.468 552.142 211.49 556.546C205.363 560.743 198.805 564.601 191.478 567.013C190.588 567.335 189.657 567.676 188.791 567.951L186.265 568.674C184.577 569.145 182.909 569.662 181.204 570.092C177.772 570.88 174.353 571.711 170.864 572.296C163.912 573.506 156.831 574.184 150.054 574.384C143.275 574.6 137.003 574.631 130.563 575.191C124.121 575.735 117.513 576.954 110.477 577.984C115.394 572.876 121.136 568.652 127.564 565.277C134.008 561.947 141.044 559.793 147.548 558.002C154.063 556.202 160.248 554.634 166.395 552.811C169.465 551.918 172.541 551.022 175.596 550.045L180.206 548.612L182.51 547.891C183.241 547.643 183.871 547.358 184.562 547.11L188.66 545.671C189.997 545.077 191.311 544.416 192.663 543.84L194.695 542.969L196.665 541.91L200.64 539.813C205.879 536.794 211.026 533.371 216.17 529.67C226.378 522.106 236.248 513.47 246.772 504.131Z" fill="#F2F2F2"/>
</g>
<path opacity="0.1" d="M79.8108 599.17C79.6294 599.437 79.5281 599.587 79.5281 599.587C79.5281 599.587 78.7452 589.785 79.8346 576.896C81.1119 585.487 83.1325 590.324 86.3314 584.195C95.0686 567.452 158.52 560.269 208.748 528.372C242.814 506.738 254.932 462.583 259.205 436.404C260.858 458.7 260.361 506.933 231.26 543.726C194.832 589.781 151.033 569.896 103.929 585.049C103.208 585.426 102.491 585.813 101.782 586.217C93.6706 590.85 86.6202 597.022 79.5552 603.071C79.6054 601.769 79.6954 600.469 79.8108 599.17Z" fill="black"/>
</g>
</svg>
