<svg width="514" height="674" viewBox="0 0 514 674" fill="none" xmlns="http://www.w3.org/2000/svg">
<path d="M392.18 465.334L394.519 464.446C400.936 471.366 402.426 501.217 402.072 510.753C400.368 556.527 374.594 603.04 341.433 633.662C314.835 658.222 279.3 675.403 242.505 673.909C238.756 673.757 228.08 673.606 225.408 671.078C231.843 669.946 238.331 669.353 244.688 667.78C275.802 660.098 302.445 642.167 324.961 619.865C357.422 587.702 382.706 543.981 390.056 498.52C391.839 487.493 392.132 476.477 392.18 465.334Z" fill="#833102"/>
<path d="M101.64 208.727C98.2303 202.664 95.6368 195.919 93.8425 189.208C84.4109 153.945 92.6327 119.136 110.657 88.134C133.518 48.8139 175.484 15.5355 219.6 3.93895C242.367 -2.04541 267.645 -2.1034 288.472 10.0555C288.314 10.1267 288.159 10.203 287.999 10.2688C285.872 11.1456 275.644 10.0377 272.543 10.1175C264.522 10.3222 256.21 11.8034 248.432 13.7137C193.242 27.2693 139.244 71.0326 114.903 122.443C107.149 138.82 101.888 156.543 100.581 174.668C100.054 181.987 100.251 189.747 100.902 197.058C101.202 200.417 102.104 204.35 102.013 207.681C102.001 208.085 101.821 208.38 101.64 208.727Z" fill="#833102"/>
<path d="M119.614 231.763C118.417 230.458 118.382 229.477 118.313 227.785C118.034 220.896 120.212 212.45 122.498 205.972C138.6 160.347 189.93 140.522 226.925 115.134C239.79 106.306 251.79 96.2744 261.885 84.344C263.3 82.6597 264.677 80.9447 266.016 79.1989C267.355 77.4531 268.654 75.6788 269.913 73.8756C271.173 72.0718 272.392 70.2414 273.57 68.3837C274.748 66.5257 275.885 64.6427 276.979 62.7346C278.073 60.8264 279.124 58.8946 280.132 56.9393C281.14 54.9842 282.105 53.0076 283.025 51.0097C283.945 49.012 284.821 46.9946 285.651 44.9576C286.481 42.9206 287.266 40.866 288.005 38.7942C289.351 35.017 294.037 15.3934 294.905 14.4403L295.655 14.8071C299.569 27.3055 296.337 40.2252 299.504 52.66C285.898 100.352 262.524 136.064 218.583 160.438C206.955 166.888 194.612 172.017 182.711 177.943C161.764 188.372 149.149 200.03 133.654 217.06C130.396 222.382 124.556 227.991 119.614 231.763Z" fill="#501802"/>
<path d="M295.656 14.7973C315.264 32.7455 322.616 56.3278 323.773 82.279C325.614 123.567 305.808 165.26 278.309 195.191C252.485 223.298 217.7 245.916 178.584 247.585C156.003 248.548 138.445 244.465 119.615 231.753C124.557 227.982 130.398 222.372 133.655 217.05C135.897 218.949 139.732 220.407 142.472 221.472C163.762 229.75 187.344 227.563 207.971 218.525C246.868 201.483 280.231 166.506 295.521 126.999C295.985 125.783 296.43 124.56 296.855 123.329C297.28 122.099 297.686 120.862 298.072 119.619C298.459 118.376 298.826 117.127 299.172 115.873C299.519 114.618 299.846 113.359 300.154 112.093C300.461 110.829 300.748 109.559 301.015 108.285C301.283 107.011 301.53 105.733 301.756 104.452C301.983 103.17 302.189 101.885 302.376 100.597C302.563 99.3087 302.728 98.0179 302.874 96.7241C303.019 95.4309 303.145 94.1353 303.249 92.8378C303.354 91.5405 303.438 90.2419 303.502 88.9414C303.566 87.6415 303.609 86.341 303.631 85.0391C303.654 83.7378 303.656 82.4365 303.638 81.135C303.619 79.8334 303.581 78.5324 303.521 77.2322C303.462 75.9319 303.382 74.6328 303.282 73.3353C303.181 72.0375 303.06 70.7419 302.919 69.4476C302.778 68.1538 302.616 66.8625 302.434 65.5736C301.853 61.4159 301.208 56.4974 299.505 52.6493C296.339 40.2157 299.57 27.2957 295.656 14.7973Z" fill="#833102"/>
<path d="M299.502 52.6741C301.205 56.5225 301.85 61.441 302.431 65.5984C302.613 66.8873 302.775 68.1786 302.916 69.4723C303.058 70.7664 303.178 72.0623 303.279 73.3601C303.379 74.6576 303.459 75.9567 303.518 77.257C303.578 78.5572 303.617 79.8582 303.635 81.1598C303.653 82.4613 303.651 83.7626 303.628 85.0639C303.606 86.3655 303.563 87.6663 303.499 88.9662C303.435 90.2664 303.351 91.5653 303.247 92.8626C303.142 94.1604 303.016 95.4557 302.871 96.7489C302.725 98.0427 302.559 99.3335 302.373 100.622C302.187 101.91 301.98 103.195 301.754 104.476C301.527 105.758 301.28 107.036 301.012 108.31C300.745 109.584 300.458 110.853 300.151 112.118C299.844 113.383 299.516 114.643 299.169 115.897C298.822 117.152 298.456 118.401 298.069 119.644C297.683 120.887 297.278 122.124 296.852 123.354C296.427 124.584 295.982 125.807 295.518 127.023C280.229 166.53 246.865 201.508 207.968 218.55C187.341 227.588 163.759 229.775 142.469 221.497C139.729 220.432 135.894 218.974 133.652 217.074C149.147 200.045 161.763 188.386 182.709 177.957C194.611 172.032 206.953 166.903 218.581 160.453C262.522 136.078 285.897 100.366 299.502 52.6741Z" fill="#D7873B"/>
<path d="M288.473 10.0582L289.566 10.9194C289.882 14.1415 288.129 18.2598 287.023 21.3152C286.318 23.2975 285.569 25.2631 284.777 27.2119C283.985 29.1613 283.151 31.0921 282.273 33.004C281.396 34.9164 280.477 36.8086 279.517 38.6801C278.556 40.5518 277.554 42.4014 276.512 44.2291C275.47 46.0564 274.388 47.8601 273.265 49.6401C272.144 51.4201 270.983 53.1743 269.784 54.903C268.585 56.6315 267.348 58.3331 266.073 60.0071C264.799 61.6814 263.488 63.3266 262.142 64.9429C260.705 66.7124 259.236 68.4552 257.735 70.1715C256.235 71.8874 254.704 73.5754 253.142 75.2357C251.58 76.8957 249.988 78.5271 248.366 80.1291C246.744 81.7308 245.094 83.3029 243.415 84.8448C241.736 86.3864 240.029 87.8973 238.295 89.3768C236.56 90.8561 234.8 92.3033 233.013 93.7187C231.226 95.1338 229.414 96.5163 227.576 97.8659C225.739 99.2149 223.878 100.53 221.992 101.812C207.691 111.647 192.319 119.465 177.573 128.542C153.357 143.45 129.583 163.368 119.926 191.052C116.531 200.783 114.545 211.691 115.562 221.993C115.808 224.268 116.106 226.537 116.454 228.798C111.398 223.16 104.335 215.946 101.641 208.729C101.822 208.382 102.002 208.088 102.013 207.683C102.105 204.353 101.202 200.42 100.902 197.061C100.251 189.75 100.055 181.99 100.582 174.67C101.888 156.546 107.149 138.823 114.903 122.446C139.244 71.0354 193.242 27.2721 248.432 13.7164C256.21 11.8062 264.523 10.325 272.543 10.1203C275.644 10.0407 285.872 11.1484 288 10.2716C288.16 10.2058 288.315 10.1292 288.473 10.0582Z" fill="#B95B19"/>
<path d="M392.186 465.33C392.139 476.473 391.845 487.489 390.063 498.515C382.713 543.976 357.429 587.698 324.967 619.861C302.452 642.163 275.808 660.094 244.695 667.776C238.338 669.349 231.85 669.942 225.415 671.074C224.994 671.199 224.652 671.317 224.204 671.284C219.814 670.969 207.513 666.492 204.914 663.043C205.68 663.109 206.401 663.056 207.139 662.819C211.63 661.378 215.847 658.6 219.605 655.782C242.157 638.898 251.95 611.027 264.636 586.961C287.351 543.871 318.284 505.127 360.705 480.041C370.632 474.171 381.142 468.749 392.186 465.33Z" fill="#B95B19"/>
<path d="M348.096 167.562C350.494 167.29 353.057 167.303 355.472 167.375C395.46 168.574 433.427 192.817 460.093 221.158C491.893 254.957 515.087 303.755 513.58 350.81C512.739 377.088 503.645 400.316 484.363 418.403L479.669 422.323C479.948 420.163 480.158 417.997 480.299 415.823C480.439 413.65 480.51 411.473 480.51 409.295C480.511 407.117 480.441 404.941 480.302 402.768C480.162 400.594 479.953 398.427 479.674 396.267C475.673 363.394 455.875 331.714 431.523 309.874C419.283 298.896 405.493 289.551 392.553 279.409C365.538 258.234 337.706 231.783 327.158 198.138C324.654 190.151 323.512 182.088 322.506 173.8C330.848 170.172 339.068 168.358 348.096 167.562Z" fill="#501802"/>
<path d="M242.102 307.602C243.962 308.869 245.408 314.351 246.143 316.684C256.493 349.553 249.411 384.905 233.811 414.864C212.07 456.615 167.789 494.632 122.832 508.728C96.1384 517.098 68.2394 517.568 43.0435 504.371C35.2206 500.099 28.7071 494.697 22.6367 488.221C59.2163 488.264 80.9503 463.39 100.551 435.812C110.889 421.267 120.372 406.172 131.028 391.846C158.765 354.555 196.071 319.518 242.102 307.602Z" fill="#501802"/>
<path d="M320.651 174.721C320.838 174.964 321.138 175.151 321.211 175.449C321.446 176.397 320.311 189.491 320.398 192.436C321.582 232.41 351.884 266.709 382.131 289.722C397.157 301.155 413.635 310.861 427.417 323.877C454.06 349.039 477.05 385.75 478.057 423.267C465.813 432.103 452.024 435.232 437.153 435.497C427.268 435.012 417.755 433.712 408.223 430.98C362.558 417.89 324.177 380.121 301.635 339.363C282.671 305.074 270.828 262.241 282.082 223.481C288.312 202.025 301.026 185.499 320.651 174.721Z" fill="#501802"/>
<path d="M306.791 211.018C307.692 214.822 307.884 218.951 308.484 222.832C309.768 231.13 311.814 238.81 314.847 246.642C327.426 279.119 353.76 310.06 380.551 331.837C403.345 350.364 428.092 361.262 445.679 386.132C449.007 390.838 452.348 396.08 454.144 401.577C455.042 404.324 455.5 407.534 454.018 410.171C452.347 413.142 449.442 414.037 446.372 414.779C434.589 415.462 423.082 412.671 412.119 408.53C366.544 391.31 329.614 345.051 310.06 301.63C295.751 269.854 294.468 243.494 306.791 211.018Z" fill="#B95B19"/>
<path d="M159.274 260.207C172.083 259.333 186.112 261.636 198.148 266.045C217.948 273.299 233.189 287.534 242.043 306.594C179.578 309.95 136.192 355.275 104.308 404.796C90.991 425.48 79.3799 447.69 62.5723 465.856C50.7309 477.56 37.5391 483.959 21.2247 486.846C8.64455 472.648 1.30307 452.953 0.181931 434.12C-2.20814 393.951 19.2769 349.923 45.4402 320.608C74.2737 288.302 115.3 262.762 159.274 260.207Z" fill="#501802"/>
<path d="M168.353 281.882C184.631 280.956 198.464 286.569 211.471 295.974C203.631 295.758 196.095 296.286 188.406 297.864C140.376 307.725 99.7843 342.981 78.3427 386.337C67.8125 407.631 61.9725 427.573 48.4398 448.071L47.9427 448.771C44.6019 453.457 38.9159 461.955 32.8611 462.713C30.9891 462.948 29.3809 462.296 27.9979 461.051C22.4521 456.057 20.3266 442.984 19.8986 435.726C17.9257 402.275 40.3825 363.813 61.8206 339.675C88.9381 309.142 126.688 284.37 168.353 281.882Z" fill="#B95B19"/>
<path d="M308.693 418.29C319.06 416.476 333.852 418.534 343.892 421.522C365.886 428.071 383.489 443.598 394.336 463.595C353.602 461.283 306.817 501.852 282.843 531.001C279.979 534.508 277.209 538.086 274.532 541.738C271.855 545.389 269.275 549.108 266.793 552.895C264.31 556.682 261.928 560.531 259.646 564.441C257.365 568.351 255.187 572.318 253.113 576.343C250.153 582.074 247.387 587.899 244.816 593.82C240.919 602.989 230.621 632.466 224.467 637.614C222.843 642.38 216.214 649.627 212.636 653.379C210.414 655.703 204.937 661.772 201.865 661.851C201.72 661.871 201.575 661.897 201.429 661.904C199.664 662.009 196.258 658.994 194.851 657.889C176.545 643.446 165.93 623.244 163.199 600.185C158.239 558.3 175.223 514.059 200.986 481.59C227.028 448.771 266.574 423.115 308.693 418.29Z" fill="#501802"/>
<path d="M319.072 440.877C335.082 439.248 351.094 443.751 364.894 451.638C354.969 453.148 345.348 454.829 335.8 458.039C286.053 474.758 242.889 518.319 225.068 567.493C221.119 578.393 218.071 589.571 214.955 600.728C213.519 605.876 212.349 612.807 209.923 617.514C209.881 617.6 209.835 617.679 209.792 617.758C208.756 622.978 206.659 629.613 203.92 634.181C202.929 635.833 202.005 636.808 200.116 637.301C198.751 637.189 197.878 636.854 196.828 635.959C187.749 628.198 184.012 610.951 183.129 599.333C180.211 560.936 198.568 520.85 223.183 492.321C247.32 464.345 281.753 443.652 319.072 440.877Z" fill="#D7873B"/>
</svg>
