<svg width="398" height="696" viewBox="0 0 398 696" fill="none" xmlns="http://www.w3.org/2000/svg">
<path d="M198.885 695.718C302.892 695.718 387.206 676.204 387.206 652.132C387.206 628.061 302.892 608.547 198.885 608.547C94.8785 608.547 10.5645 628.061 10.5645 652.132C10.5645 676.204 94.8785 695.718 198.885 695.718Z" fill="#E6E7E8"/>
<path d="M395.482 393.263C397.169 396.173 396.255 397.705 394.749 399.031H394.736C394.375 399.353 393.989 399.662 393.589 399.958C393.589 399.958 393.589 399.958 393.602 399.972C393.757 400.177 395.727 402.869 394.504 405.341C393.616 407.157 391.208 407.595 389.675 407.672C389.057 407.71 388.581 407.685 388.387 407.685L388.298 407.672C388.298 407.672 389.778 414.033 385.671 413.647C381.563 413.261 365.66 396.868 362.441 400.294C359.208 403.732 368.544 414.96 362.183 416.454C359.866 416.995 356.259 413.853 352.474 409.5C345.829 401.877 338.644 390.533 336.97 388.794C335.58 387.365 341.516 378.248 347.439 369.943C347.633 369.672 347.825 369.402 348.019 369.131C353.143 362.01 358.075 355.726 358.075 355.726C358.075 355.726 368.158 361.65 378.459 369.531C385.477 374.875 392.599 381.146 396.718 387.056C399.396 390.893 395.482 393.263 395.482 393.263Z" fill="#FFCAA6"/>
<path opacity="0.5" d="M396.297 392.402C396.297 392.402 384.96 382.363 384.129 382.39C383.297 382.416 395.491 393.26 395.491 393.26L396.297 392.402Z" fill="#F48C6C"/>
<path opacity="0.5" d="M393.585 399.962C393.99 399.656 394.382 399.353 394.743 399.031C394.584 399.028 394.491 399.024 394.491 399.024C394.491 399.024 382.793 390.076 382.182 390.33C381.083 390.787 393.585 399.962 393.585 399.962Z" fill="#F48C6C"/>
<path opacity="0.5" d="M390.418 407.684C390.418 407.684 378.576 397.799 377.941 398.023C377.012 398.352 388.296 407.672 388.296 407.672L390.418 407.684Z" fill="#F48C6C"/>
<path d="M352.474 409.5C345.829 401.877 338.644 390.533 336.97 388.794C335.58 387.365 341.516 378.248 347.439 369.942C347.633 369.672 347.825 369.402 348.019 369.131C347.194 373.96 344.04 395.181 350.813 405.843C351.688 407.234 352.229 408.457 352.474 409.5Z" fill="#F48C6C"/>
<path d="M59.1143 423.137C57.1576 426.408 47.3704 455.792 40.8428 455.792C34.3012 455.792 40.8428 442.736 36.9145 440.121C32.9999 437.507 21.2434 457.093 17.3288 458.393C13.4143 459.707 13.4143 453.178 13.4143 453.178L13.325 453.204C13.1439 453.256 12.6811 453.385 12.075 453.487C10.5561 453.757 8.12276 453.886 6.83509 452.316C5.08334 450.191 6.39753 447.114 6.50067 446.882C6.51318 446.869 6.51319 446.869 6.51319 446.869C6.04909 446.663 5.599 446.456 5.17395 446.225H5.16144C3.39717 445.272 2.16108 443.998 3.13934 440.778C3.13934 440.778 -1.21278 439.362 0.524961 435.009C3.20342 428.313 8.71502 420.6 14.3286 413.801C22.5703 403.783 31.0434 395.722 31.0434 395.722C31.0434 395.722 37.7522 401.117 44.6281 407.157C52.2898 413.891 60.1441 421.424 59.1143 423.137Z" fill="#FFCAA6"/>
<path opacity="0.5" d="M44.5936 419.229C44.5936 419.229 28.9238 406.823 14.3281 413.801C22.5698 403.783 31.0429 395.722 31.0429 395.722C31.0429 395.722 37.7517 401.117 44.6276 407.157C45.7607 413.839 44.5936 419.229 44.5936 419.229Z" fill="#F48C6C"/>
<path d="M126.778 626.33L126.576 654.034L132.373 654.077L132.576 626.373L126.778 626.33Z" fill="#383838"/>
<path d="M159.876 626.569L159.674 654.273L165.471 654.315L165.673 626.612L159.876 626.569Z" fill="#383838"/>
<path d="M204.176 639.022C204.179 639.163 204.167 639.305 204.155 639.446C204.148 639.522 204.139 639.599 204.131 639.675C204.126 639.718 204.119 639.76 204.114 639.802C204.088 640.033 204.243 638.969 204.177 639.355C204.139 639.577 204.099 639.797 204.049 640.016C203.913 640.611 203.725 641.194 203.496 641.76C203.465 641.835 203.433 641.91 203.402 641.985C203.777 641.063 203.606 641.517 203.507 641.732C203.426 641.91 203.341 642.085 203.252 642.259C203.06 642.632 202.851 642.995 202.626 643.349C202.371 643.751 202.077 644.12 201.807 644.51C201.852 644.444 202.255 643.949 202.019 644.237C201.983 644.282 201.946 644.327 201.91 644.372C201.824 644.475 201.738 644.578 201.65 644.679C201.473 644.884 201.291 645.084 201.104 645.279C200.707 645.694 200.289 646.089 199.855 646.464C199.617 646.67 199.374 646.87 199.126 647.063C199.068 647.109 199.01 647.153 198.952 647.198C198.839 647.287 199.531 646.765 199.167 647.033C199.027 647.136 198.887 647.238 198.745 647.338C197.517 648.204 196.202 648.943 194.842 649.58C194.465 649.757 194.082 649.92 193.7 650.086C193.443 650.198 194.315 649.838 193.854 650.023C193.76 650.061 193.665 650.099 193.57 650.136C193.349 650.224 193.127 650.309 192.904 650.391C191.981 650.735 191.043 651.04 190.097 651.314C187.896 651.95 185.648 652.415 183.384 652.761C183.075 652.809 182.765 652.854 182.455 652.897C182.307 652.917 182.16 652.937 182.012 652.956C181.927 652.968 181.842 652.978 181.757 652.989C181.915 652.968 182.304 652.921 181.919 652.968C181.232 653.051 180.544 653.125 179.854 653.189C178.392 653.326 176.926 653.422 175.459 653.485C171.972 653.634 168.487 653.552 164.999 653.482C161.411 653.41 157.823 653.338 154.235 653.266C148.23 653.145 142.225 653.025 136.22 652.904C131.835 652.816 127.45 652.728 123.065 652.64C120.275 652.584 117.485 652.528 114.696 652.472C113.505 652.448 112.313 652.407 111.122 652.4C111.075 652.4 111.027 652.399 110.979 652.398C109.773 652.373 108.611 653.452 108.658 654.686C108.705 655.948 109.653 656.982 110.946 657.008C111.766 657.024 112.587 657.041 113.407 657.057C115.853 657.106 118.298 657.155 120.744 657.204C124.832 657.286 128.92 657.368 133.007 657.451C138.7 657.565 144.394 657.679 150.087 657.793C153.54 657.863 156.993 657.932 160.446 658.001C164.177 658.076 167.913 658.209 171.645 658.186C177.37 658.15 183.161 657.709 188.751 656.424C192.504 655.562 196.253 654.274 199.57 652.291C201.992 650.844 204.114 649.027 205.829 646.79C206.914 645.374 207.756 643.749 208.279 642.043C208.562 641.123 208.765 640.127 208.785 639.163C208.786 639.127 208.787 639.091 208.786 639.055C208.76 637.851 207.768 636.686 206.498 636.733C205.278 636.779 204.148 637.73 204.176 639.022Z" fill="#383838"/>
<path d="M245.096 624.672L239.305 624.927L240.524 652.603L246.315 652.348L245.096 624.672Z" fill="#383838"/>
<path d="M278.166 623.215L272.375 623.47L273.594 651.146L279.385 650.891L278.166 623.215Z" fill="#383838"/>
<path d="M317.28 633.642C317.29 633.782 317.286 633.925 317.281 634.066C317.278 634.143 317.273 634.22 317.269 634.297C317.266 634.339 317.262 634.382 317.259 634.424C317.244 634.656 317.345 633.585 317.298 633.975C317.272 634.198 317.244 634.42 317.205 634.641C317.099 635.242 316.941 635.834 316.742 636.411C316.715 636.488 316.686 636.564 316.66 636.641C316.987 635.701 316.839 636.163 316.752 636.383C316.68 636.564 316.603 636.744 316.523 636.922C316.351 637.304 316.161 637.678 315.955 638.043C315.72 638.457 315.445 638.841 315.195 639.245C315.238 639.176 315.615 638.661 315.394 638.961C315.36 639.008 315.326 639.054 315.292 639.101C315.212 639.209 315.13 639.316 315.048 639.422C314.882 639.635 314.71 639.844 314.533 640.049C314.158 640.484 313.761 640.899 313.347 641.296C313.12 641.514 312.887 641.726 312.65 641.932C312.594 641.98 312.538 642.028 312.483 642.076C312.374 642.17 313.039 641.613 312.689 641.9C312.555 642.009 312.42 642.119 312.283 642.226C311.101 643.154 309.826 643.959 308.501 644.665C308.133 644.861 307.759 645.044 307.386 645.23C307.135 645.354 307.988 644.95 307.537 645.158C307.444 645.201 307.352 645.244 307.259 645.286C307.043 645.385 306.825 645.481 306.607 645.575C305.702 645.965 304.782 646.319 303.85 646.641C301.685 647.389 299.464 647.968 297.221 648.43C296.914 648.493 296.607 648.554 296.299 648.613C296.153 648.641 296.007 648.669 295.861 648.696C295.776 648.711 295.692 648.726 295.608 648.742C295.765 648.712 296.15 648.646 295.768 648.712C295.086 648.831 294.403 648.939 293.717 649.039C292.264 649.251 290.805 649.422 289.343 649.56C285.868 649.887 282.383 649.984 278.896 650.093C275.309 650.205 271.723 650.317 268.135 650.43C262.132 650.617 256.129 650.805 250.126 650.992C245.742 651.129 241.358 651.267 236.974 651.403C234.186 651.491 231.397 651.578 228.608 651.665C227.417 651.702 226.225 651.722 225.035 651.777C224.988 651.779 224.94 651.78 224.893 651.781C223.687 651.819 222.582 652.955 222.691 654.185C222.803 655.444 223.803 656.427 225.095 656.387C225.916 656.361 226.736 656.335 227.556 656.31C230.001 656.233 232.446 656.157 234.891 656.08C238.978 655.953 243.064 655.825 247.15 655.697C252.842 655.519 258.534 655.342 264.226 655.164C267.678 655.056 271.129 654.948 274.581 654.84C278.312 654.724 282.049 654.665 285.776 654.45C291.491 654.121 297.251 653.383 302.768 651.813C306.472 650.759 310.15 649.281 313.361 647.131C315.705 645.561 317.732 643.638 319.33 641.315C320.34 639.846 321.098 638.18 321.533 636.449C321.768 635.516 321.92 634.51 321.89 633.547C321.889 633.511 321.888 633.475 321.886 633.439C321.798 632.238 320.747 631.125 319.481 631.238C318.266 631.345 317.186 632.353 317.28 633.642Z" fill="#383838"/>
<path d="M192.584 618.203C191.373 622.749 189.068 626.741 185.347 629.033C185.154 629.148 184.961 629.265 184.755 629.38C177.028 633.655 157.005 636.463 139.686 634.235C139.672 634.235 139.66 634.235 139.647 634.222C132.166 632.818 125.444 630.076 120.924 625.556C115.452 620.083 112.837 597.729 111.704 571.718C111.704 571.705 111.704 571.705 111.704 571.692C111.279 561.777 111.073 551.347 110.996 541.11C110.751 505.506 112.219 472.335 112.219 472.335L151.262 472.798L185.347 473.21C185.347 473.21 176.925 515.794 173.99 544.574C173.152 552.828 172.766 559.949 173.152 564.61C173.191 565.035 173.229 565.447 173.269 565.859C173.307 566.258 173.346 566.644 173.397 567.031C173.487 567.804 173.577 568.551 173.68 569.271C173.964 571.202 174.324 572.941 174.723 574.499C174.775 574.731 174.839 574.95 174.904 575.169C175.689 578.04 176.668 580.307 177.775 582.174C177.943 582.47 178.123 582.74 178.29 583.011C178.38 583.152 178.471 583.294 178.561 583.423C178.883 583.899 179.204 584.349 179.565 584.774C179.719 584.993 179.9 585.2 180.08 585.406C180.248 585.612 180.428 585.805 180.608 585.998C181.522 587.003 182.475 587.878 183.441 588.702C183.647 588.883 183.84 589.05 184.046 589.217C185.669 590.569 187.304 591.818 188.824 593.338C192.906 597.42 195.03 608.958 192.584 618.203Z" fill="#232323"/>
<path d="M296.963 614.494C295.869 617.135 294.233 619.426 291.98 621.062C281.228 628.865 243.37 636.14 227.48 622.517C219.522 615.692 214.423 577.603 211.307 541.239C208.873 512.807 207.649 485.443 207.238 474.935C207.122 472.038 207.07 470.416 207.07 470.416L209.491 470.261L229.579 468.96L280.043 465.69C280.043 465.69 275.292 505.685 274.3 534.478C273.965 544.148 274.056 552.557 274.892 557.759C278.227 578.453 286.173 579.599 292.727 585.2C297.89 589.629 301.135 604.567 296.963 614.494Z" fill="#232323"/>
<path d="M143.394 486.911C143.394 486.911 130.337 531.298 140.793 540.44C140.793 540.44 140.252 540.89 139.402 541.702L110.996 541.11C110.751 505.505 112.219 472.334 112.219 472.334L151.262 472.798C148.802 479.893 143.394 486.911 143.394 486.911Z" fill="#161616"/>
<path d="M236.108 535.868C236.108 535.868 235.619 536.925 235.013 538.688L211.308 541.239C208.874 512.807 207.65 485.443 207.238 474.935C207.985 473.274 208.745 471.704 209.492 470.261C211.81 465.78 214.05 462.432 215.879 460.784C218.917 458.054 224.481 462.947 229.58 468.96C235.452 475.875 240.68 484.297 240.68 484.297C240.68 484.297 227.622 524.769 236.108 535.868Z" fill="#161616"/>
<path d="M363.808 346.978C363.808 346.978 363.769 347.056 363.705 347.197C362.597 349.322 353.648 366.577 345.407 378.475C344.402 379.93 343.398 381.308 342.432 382.557C339.638 386.175 337.062 388.828 335.079 389.626C332.71 390.58 325.808 386.227 317.039 379.402C307.832 372.243 296.565 362.366 286.276 352.992C283.198 350.197 280.211 347.442 277.391 344.828C265.854 334.115 257.123 325.616 256.737 325.23C256.852 325.552 258.41 329.904 260.844 336.87C262.273 340.991 263.999 346.012 265.905 351.666C267.682 356.958 269.626 362.804 271.622 368.946C277.803 387.965 284.499 409.818 288.632 427.162C292.315 442.537 293.989 454.358 291.543 457.539C287.461 462.844 268.184 474.433 238.284 481.863C204.482 490.272 157.096 493.362 102.73 476.056C101.867 475.786 101.107 475.347 100.425 474.755C99.9353 474.331 99.4977 473.841 99.0859 473.274C95.673 468.458 95.1581 458.543 96.1496 446.928C97.399 432.094 101.081 414.504 104.275 401.203C107.057 389.742 109.439 381.488 109.593 380.947L107.069 383.844C107.057 383.858 107.057 383.871 107.057 383.871C107.057 383.871 107.057 383.883 107.044 383.896L77.2721 418.329L65.5546 431.888L65.2069 432.287C65.2069 432.287 65.0139 432.21 64.6404 432.056C61.9745 430.948 50.3596 425.708 40.6246 415.612C34.6885 409.457 29.4605 401.499 27.3876 391.571C27.1813 390.515 27.0141 389.575 26.8984 388.764L36.9421 375.874L74.6067 327.535L85.2434 313.885L137.459 246.861L142.3 246.694L241.053 243.385L305.733 297.969L316.034 306.661L350.956 336.123L363.808 346.978Z" fill="#68C455"/>
<path d="M333.224 368.457C328.64 373.685 323.219 377.896 317.038 379.402C307.831 372.243 296.564 362.366 286.275 352.992C283.197 350.198 280.21 347.442 277.39 344.828C265.852 334.115 257.122 325.616 256.736 325.23C256.851 325.552 258.409 329.904 260.843 336.871C256.916 331.243 254.611 327.728 254.611 327.728L241.193 289.625C242.365 290.809 315.119 364.671 333.224 368.457Z" fill="#63B250"/>
<path d="M231.587 450.817C158.06 472.953 101.544 449.311 96.1484 446.929C97.3978 432.095 101.08 414.504 104.274 401.203C107.055 389.742 109.438 381.489 109.592 380.947L107.068 383.845C107.738 381.823 151.3 252.488 159.065 249.9C166.907 247.286 190.407 271.443 190.407 271.443C190.407 271.443 181.921 282.543 184.535 301.485C187.149 320.414 171.478 400.727 200.206 430.099C217.757 448.061 227.029 451.139 231.587 450.817Z" fill="#63B250"/>
<path d="M142.299 246.694C139.441 260.768 134.689 272.537 134.689 272.537C134.689 272.537 53.2694 371.303 51.1316 402.89C45.569 396.58 40.6755 387.759 38.2158 375.488C38.2158 375.488 37.7267 375.604 36.9414 375.874L74.606 327.535L85.2427 313.885L137.458 246.861L142.299 246.694Z" fill="#63B250"/>
<path d="M287.526 306.707C290.591 306.707 293.076 304.222 293.076 301.157C293.076 298.092 290.591 295.607 287.526 295.607C284.461 295.607 281.977 298.092 281.977 301.157C281.977 304.222 284.461 306.707 287.526 306.707Z" fill="#489635"/>
<path d="M330.804 325.978C331.508 322.996 329.661 320.006 326.678 319.302C323.695 318.598 320.706 320.445 320.002 323.428C319.298 326.411 321.145 329.4 324.128 330.104C327.11 330.808 330.1 328.961 330.804 325.978Z" fill="#489635"/>
<path d="M248.136 343.168C250.303 341.001 250.303 337.487 248.136 335.319C245.969 333.152 242.455 333.152 240.288 335.319C238.12 337.487 238.12 341.001 240.287 343.168C242.455 345.335 245.969 345.335 248.136 343.168Z" fill="#489635"/>
<path d="M184.149 351.975C187.214 351.975 189.699 349.491 189.699 346.426C189.699 343.36 187.214 340.876 184.149 340.876C181.084 340.876 178.6 343.36 178.6 346.426C178.6 349.491 181.084 351.975 184.149 351.975Z" fill="#489635"/>
<path d="M71.3078 364.821C73.4751 362.654 73.475 359.14 71.3078 356.973C69.1405 354.806 65.6266 354.806 63.4594 356.973C61.2921 359.14 61.2921 362.654 63.4593 364.821C65.6266 366.989 69.1405 366.989 71.3078 364.821Z" fill="#489635"/>
<path d="M98.8806 386.574C99.5938 383.593 97.7556 380.599 94.7749 379.885C91.7941 379.172 88.7996 381.01 88.0863 383.991C87.3731 386.972 89.2113 389.966 92.192 390.68C95.1728 391.393 98.1674 389.555 98.8806 386.574Z" fill="#489635"/>
<path d="M310.017 353.51C310.721 350.527 308.874 347.538 305.891 346.833C302.908 346.129 299.919 347.976 299.215 350.959C298.51 353.942 300.358 356.931 303.34 357.635C306.323 358.34 309.312 356.493 310.017 353.51Z" fill="#489635"/>
<path d="M271.532 330.001C273.7 327.834 273.7 324.32 271.532 322.153C269.365 319.986 265.851 319.986 263.684 322.153C261.517 324.32 261.517 327.834 263.684 330.001C265.851 332.169 269.365 332.169 271.532 330.001Z" fill="#489635"/>
<path d="M226.591 398.665C228.758 396.498 228.758 392.984 226.591 390.816C224.424 388.649 220.91 388.649 218.743 390.816C216.575 392.984 216.575 396.498 218.743 398.665C220.91 400.832 224.424 400.832 226.591 398.665Z" fill="#489635"/>
<path d="M316.04 306.655L312.447 331.739L289.591 334.997L286.281 352.986C283.204 350.192 280.216 347.436 277.396 344.822L281.105 322.597L300.691 321.283L305.738 297.963L316.04 306.655Z" fill="#489635"/>
<path d="M271.628 368.94L256.292 391.153L217.121 372.868L186.435 397.681L156.406 374.169L104.281 401.197L103.521 401.596L107.063 383.864L107.435 382.01L155.75 350.011L187.092 372.211L211.906 349.367L254.334 365.039L264.134 349.367L265.911 351.66C267.688 356.952 269.633 362.798 271.628 368.94Z" fill="#489635"/>
<path d="M116.577 357.854L114.619 373.524L85.2347 370.91L74.6113 327.528L85.248 313.879L97.6351 358.51L116.577 357.854Z" fill="#489635"/>
<path d="M291.543 457.539C287.461 462.844 268.184 474.433 238.284 481.863C237.473 482.07 236.649 482.262 235.812 482.455C235.49 482.546 235.155 482.623 234.82 482.688C233.932 482.894 233.043 483.099 232.142 483.293C231.099 483.525 230.043 483.743 228.974 483.962C227.906 484.182 226.824 484.387 225.729 484.593C224.906 484.761 224.068 484.903 223.219 485.057C222.69 485.147 222.15 485.237 221.622 485.327C219.999 485.611 218.364 485.868 216.69 486.1C215.879 486.229 215.067 486.344 214.243 486.448C213.406 486.577 212.57 486.68 211.72 486.783C210.664 486.911 209.608 487.04 208.539 487.156C204.908 487.568 201.16 487.89 197.324 488.135C196.126 488.212 194.902 488.276 193.679 488.341C193.511 488.353 193.332 488.367 193.151 488.367C192.044 488.418 190.924 488.456 189.791 488.495C188.49 488.534 187.176 488.572 185.863 488.585C184.549 488.611 183.223 488.624 181.884 488.624C158.088 488.624 131.381 485.173 102.73 476.056C101.867 475.786 101.108 475.348 100.425 474.755C100.257 474.356 100.18 474.137 100.18 474.137C100.18 474.137 99.7426 473.854 99.086 473.275C96.1888 470.699 88.9645 462.317 95.7247 446.736C95.7247 446.736 95.8667 446.8 96.1497 446.929C101.545 449.311 158.062 472.953 231.588 450.817C231.601 450.817 231.601 450.804 231.614 450.817C232.567 450.521 233.533 450.225 234.498 449.916C234.524 449.916 234.55 449.903 234.576 449.89C251.496 444.546 269.292 436.743 287.538 425.707C287.538 425.707 287.976 426.222 288.633 427.162C291.787 431.592 300.119 445.396 291.543 457.539Z" fill="#489635"/>
<path d="M238.284 481.863C237.473 482.069 236.649 482.262 235.812 482.455C235.49 482.546 235.155 482.623 234.82 482.687C233.932 482.894 233.043 483.099 232.142 483.293C231.099 483.524 230.043 483.743 228.974 483.962C227.906 484.181 226.824 484.387 225.729 484.593C224.905 484.76 224.068 484.903 223.218 485.057C222.69 485.147 222.15 485.237 221.621 485.327C219.999 485.611 218.364 485.868 216.69 486.1C215.879 486.229 215.067 486.344 214.243 486.447C213.406 486.576 212.569 486.679 211.719 486.783C210.664 486.911 209.607 487.04 208.539 487.156C204.907 487.568 201.16 487.89 197.323 488.134C196.126 488.212 194.902 488.276 193.679 488.341C193.511 488.353 193.332 488.366 193.151 488.366C192.044 488.417 190.923 488.456 189.79 488.495C188.49 488.534 187.176 488.572 185.863 488.585C184.549 488.611 183.223 488.623 181.884 488.623C158.088 488.623 131.381 485.173 102.73 476.056C101.867 475.786 101.108 475.347 100.425 474.755C99.9354 474.331 99.4978 473.841 99.0861 473.274C95.6732 468.458 95.1583 458.544 96.1498 446.929C101.545 449.311 158.062 472.953 231.588 450.817C231.601 450.817 231.601 450.804 231.614 450.817C232.966 450.714 233.893 450.315 234.498 449.916C234.55 449.89 234.588 449.865 234.64 449.826L234.576 449.89C231.074 453.341 218.776 466.772 228.936 475.812C231.614 478.194 234.885 480.112 238.284 481.863Z" fill="#40822E"/>
<path d="M78.7019 418.574C76.5384 428.051 69.8553 430.987 65.5548 431.888C65.2328 431.965 64.9235 432.017 64.6406 432.056C61.9746 430.948 50.3597 425.707 40.6247 415.612C34.6886 409.457 29.4607 401.499 27.3877 391.571C27.1815 390.515 27.0142 389.575 26.8986 388.764C25.675 380.535 33.7489 376.956 36.9422 375.874C37.7275 375.603 38.2166 375.488 38.2166 375.488C40.6763 387.759 45.5699 396.58 51.1325 402.889C61.0862 414.196 73.1778 417.492 77.2723 418.329C78.1862 418.51 78.7019 418.574 78.7019 418.574Z" fill="#489635"/>
<path d="M363.806 346.978C363.806 346.978 363.768 347.056 363.704 347.197C362.725 349.283 354.69 366.1 345.624 378.463C344.568 379.892 343.499 381.269 342.43 382.557C339.958 385.506 337.473 387.978 335.078 389.627C323.257 397.7 317.012 379.402 317.012 379.402C317.025 379.402 317.025 379.402 317.037 379.402C323.218 377.896 328.639 373.685 333.224 368.457C344.375 355.786 350.646 337.076 350.955 336.124C350.968 336.098 350.968 336.085 350.968 336.085C365.326 338.042 363.806 346.978 363.806 346.978Z" fill="#489635"/>
<path d="M239.326 250.776C216.831 277.765 170.113 273.632 170.113 273.632C170.113 273.632 149.253 262.404 140.87 253.454C138.553 250.994 137.188 248.702 137.47 246.861C138.771 238.375 143.999 230.534 143.999 230.534C145.518 231.409 147.025 232.207 148.532 232.954C159.966 238.582 170.834 240.474 180.621 240.23C207.108 239.599 225.612 223.348 225.612 223.348C231.922 224.326 240.06 234.705 241.104 243.165C241.464 246.089 241.001 248.767 239.326 250.776Z" fill="#E0222C"/>
<path d="M239.327 250.776C216.832 277.765 170.114 273.632 170.114 273.632C170.114 273.632 149.254 262.404 140.871 253.454C142.21 245.612 144.876 237.95 148.533 232.954C159.968 238.581 170.836 240.474 180.622 240.23C182.386 241.839 183.442 242.934 183.442 242.934C183.442 242.934 178.227 259.905 190.846 266.009C203.465 272.1 238.606 256.441 241.053 243.385C241.066 243.307 241.078 243.23 241.105 243.165C241.465 246.089 241.001 248.767 239.327 250.776Z" fill="#CC1F28"/>
<path d="M172.29 309.533C169.676 326.942 164.023 333.909 165.762 366.989C166.805 386.897 167.385 396.4 167.667 400.816C167.86 403.739 167.938 404.422 167.938 404.422L158.834 405.774L106.129 413.564C106.129 413.564 115.272 380.922 113.533 354.37C111.782 327.818 126.59 306.919 130.067 286.032C131.239 278.989 132.655 271.417 134.02 264.463C134.754 260.729 135.475 257.176 136.119 253.982C137.883 245.445 139.209 239.457 139.209 239.457L152.331 238.878L164.86 238.324L168.8 238.157C168.8 238.157 174.904 292.124 172.29 309.533Z" fill="#E0222C"/>
<path d="M142.751 269.486C135.565 296.257 125.122 324.328 130.337 345.227C135.565 366.114 130.994 396.799 136.866 400.727C142.751 404.641 149.279 405.298 157.108 405.298C157.803 405.298 158.371 405.465 158.834 405.774L106.129 413.565C106.129 413.565 115.272 380.922 113.533 354.37C111.782 327.818 126.59 306.919 130.067 286.032C131.239 278.989 132.655 271.418 134.02 264.464C134.754 260.73 135.475 257.176 136.119 253.982C137.883 245.445 139.209 239.457 139.209 239.457L152.331 238.878L164.86 238.324C165.8 242.097 166.251 244.672 166.251 244.672C166.251 244.672 149.936 242.715 142.751 269.486Z" fill="#CC1F28"/>
<path d="M118.752 27.4823L83.4941 54.0344C83.4941 54.0344 57.3809 39.6637 57.3809 32.697C57.3809 32.2467 57.4324 31.7961 57.5356 31.3452C58.9641 24.9195 70 19.2154 70 19.2154C70 19.2154 69.5624 7.45906 75.2274 4.40713C80.8812 1.36846 90.0232 8.75943 90.0232 8.75943C90.0232 8.75943 97.4275 -0.807599 105.257 0.0550143C107.355 0.286315 109.287 2.34672 111 5.24415C115.713 13.202 118.752 27.4823 118.752 27.4823Z" fill="#FE9C41"/>
<path d="M118.752 27.4823L83.4941 54.0344C83.4941 54.0344 57.3809 39.6637 57.3809 32.697C57.3809 32.2467 57.4324 31.7961 57.5356 31.3452C64.5009 32.504 82.6065 33.9721 97.0413 21.5977C105.45 14.3992 109.299 8.99128 110.999 5.24395C115.713 13.202 118.752 27.4823 118.752 27.4823Z" fill="#F28B44"/>
<path d="M253.518 142.881C251.986 155.5 246.5 168.506 246.5 168.506C246.5 168.506 241.543 170.901 233.559 174.738C213.111 184.524 172.845 203.672 145.005 215.944C130.145 222.498 118.814 227.096 115.916 227.275C105.473 227.919 95.6868 218.776 95.6868 218.776C95.6868 218.776 95.6868 222.047 84.5868 221.391C78.7538 221.043 72.9719 213.291 68.7995 206.029C65.0528 199.474 62.6063 193.319 62.6063 193.319C60.2107 169.819 120.487 92.7642 166.2 82.9776C211.9 73.1785 241.066 104.083 241.066 104.083C241.066 104.083 249.114 114.964 253.029 129.334C254.11 133.3 254.097 138.065 253.518 142.881Z" fill="#212121"/>
<path opacity="0.5" d="M253.518 142.881C251.985 155.5 246.5 168.506 246.5 168.506C246.5 168.506 241.542 170.901 233.559 174.738C229.129 170.36 225.858 164.192 225.228 156.749C223.927 141.078 220.012 111.487 226.979 107.56C233.932 103.645 242.212 107.135 242.212 107.135C242.212 107.135 242.65 124.545 246.564 133.249C248.341 137.202 251.109 140.164 253.518 142.881Z" fill="#0F0F0F"/>
<path opacity="0.5" d="M155.808 180.687C155.808 180.687 151.34 198.135 145.004 215.944C130.144 222.498 118.813 227.096 115.916 227.275C105.473 227.919 95.6861 218.776 95.6861 218.776C95.6861 218.776 95.6861 222.047 84.5861 221.391C78.7532 221.043 72.9712 213.291 68.7988 206.028C70.3443 204.999 71.9672 204.161 73.5377 203.544C82.6804 199.951 75.8301 179.386 81.702 173.18C87.5732 166.986 95.4156 148.366 95.4156 148.366C95.0804 138.58 121.53 111.809 124.788 147.065C128.059 182.322 155.808 180.687 155.808 180.687Z" fill="#0F0F0F"/>
<path d="M155.744 234.448C155.744 234.448 154.494 236.031 152.331 238.878C149.717 242.328 145.751 247.659 141.064 254.291C138.849 257.407 136.48 260.819 134.02 264.463C133.969 264.541 133.917 264.618 133.866 264.695C117.988 288.17 98.1582 321.096 91.501 347.738C91.4236 347.996 91.3596 348.24 91.308 348.498C91.1533 349.077 91.0244 349.657 90.8955 350.237L90.0454 350.005L55.2012 340.218C55.2012 340.218 98.287 244.028 136.158 224.005L155.744 234.448Z" fill="#E0222C"/>
<path d="M155.744 234.448C155.744 234.448 154.494 236.031 152.331 238.878C149.717 242.328 145.751 247.659 141.063 254.291C138.849 257.407 136.48 260.819 134.02 264.463C133.969 264.541 133.917 264.618 133.865 264.695C134.265 261.785 136.08 255.9 134.265 255.128C129.925 253.261 125.006 257.845 122.83 257.407C121.207 257.085 130.994 247.942 127.736 244.672C124.466 241.414 78.1091 296.257 76.8082 319.757C75.6104 341.299 89.2216 346.94 91.5008 347.738C91.7063 347.816 91.8227 347.841 91.8227 347.841C91.8227 347.841 91.6422 348.073 91.3078 348.498C91.0111 348.871 90.5866 349.386 90.0454 350.004L55.2012 340.218C55.2012 340.218 98.287 244.028 136.158 224.004L155.744 234.448Z" fill="#CC1F28"/>
<path d="M240.035 205.5C232.579 221.52 217.217 239.496 192.313 243.371C153.709 249.372 114.099 206.776 112.953 205.527C112.94 205.514 112.928 205.5 112.928 205.5C103.36 218.558 74.7865 188.529 84.3668 173.733C93.9346 158.925 108.743 178.086 108.743 178.086C100.746 161.977 103.515 140.653 103.515 140.653C167.069 87.8146 227.132 100.606 227.132 100.606C227.132 100.606 239.326 123.244 242.803 138.914C246.28 154.573 243.241 165.029 245.417 182.876C246.009 187.757 244.323 196.307 240.035 205.5Z" fill="#FFCAA6"/>
<path d="M94.7243 182.285C96.0955 182.63 97.7295 183.508 98.9027 184.537C99.9809 185.483 100.79 186.683 101.177 188.07C101.582 189.525 101.826 191.238 101.765 192.757C101.76 192.903 101.743 193.069 101.716 193.229C101.706 193.293 101.691 193.356 101.673 193.418C101.658 193.472 101.645 193.331 101.664 193.432C101.678 193.505 101.644 193.427 101.752 193.358C101.741 193.365 101.945 193.281 102.007 193.274C101.204 193.364 101.298 194.618 102.104 194.529C102.608 194.473 102.839 193.985 102.936 193.545C103.229 192.22 102.921 190.692 102.708 189.385C102.407 187.545 101.869 185.898 100.616 184.479C99.6715 183.41 98.5006 182.565 97.2281 181.926C96.5106 181.565 95.744 181.245 94.9631 181.049C94.1765 180.851 93.942 182.088 94.7243 182.285Z" fill="#FC9B78"/>
<path d="M201.363 170.621C201.605 172.066 201.607 173.435 201.453 174.71C201.295 175.981 200.965 177.18 200.335 178.09C199.732 179.014 198.683 179.531 197.498 179.199C196.318 178.906 195.179 177.893 194.275 176.74C195.351 177.342 196.378 177.855 197.232 177.842C198.087 177.858 198.742 177.398 199.25 176.661C199.758 175.926 200.149 174.973 200.472 173.932C200.794 172.887 201.068 171.774 201.363 170.621Z" fill="#FC9B78"/>
<path d="M184.287 194.314C184.287 194.314 187.347 200.647 192.013 206.187C192.135 206.327 192.239 206.454 192.362 206.593C196.322 211.191 201.378 215.122 206.65 214.167C210.473 212.729 213.043 208.308 214.51 202.986C214.608 202.628 214.689 202.273 214.784 201.9C216.331 195.413 216.571 188.774 216.571 188.774L212.909 189.405L188.482 193.585L184.287 194.314Z" fill="#810102"/>
<path d="M192.012 206.187C192.134 206.327 192.238 206.453 192.361 206.593C196.239 211.271 200.155 216.607 206.649 214.167C210.473 212.729 213.043 208.308 214.51 202.986C214.607 202.628 214.688 202.273 214.783 201.9C208.89 199.969 198.514 198.154 192.012 206.187Z" fill="#F8494E"/>
<path d="M188.482 193.585C197.556 201.001 208.619 193.098 212.909 189.404L188.482 193.585Z" fill="#FFEDDD"/>
<path d="M162.385 171.616C166.549 170.65 168.83 165.147 167.479 159.325C166.128 153.504 161.658 149.568 157.494 150.534C153.33 151.5 151.05 157.002 152.401 162.824C153.751 168.645 158.222 172.582 162.385 171.616Z" fill="#262626"/>
<path d="M161.421 136.673C159.885 135.946 158.111 135.6 156.427 135.516C152.571 135.325 149.177 136.959 146.68 139.868C146.33 140.276 145.613 140.152 145.285 139.796C144.886 139.362 145.012 138.804 145.357 138.402C148.115 135.19 152.004 133.415 156.24 133.534C158.174 133.588 160.278 133.964 162.043 134.8C163.178 135.338 162.568 137.217 161.421 136.673Z" fill="#262626"/>
<path d="M154.521 158.241C154.884 159.804 156.134 160.849 157.314 160.575C158.494 160.301 159.157 158.812 158.795 157.249C158.432 155.686 157.181 154.641 156.001 154.915C154.821 155.188 154.158 156.677 154.521 158.241Z" fill="#FCFFFF"/>
<path d="M159.673 160.974C159.783 161.449 160.163 161.767 160.522 161.684C160.881 161.601 161.082 161.148 160.972 160.673C160.862 160.197 160.482 159.88 160.123 159.963C159.764 160.046 159.563 160.499 159.673 160.974Z" fill="#FCFFFF"/>
<path d="M227.456 160.733C231.62 159.767 233.9 154.265 232.549 148.443C231.199 142.621 226.728 138.685 222.565 139.651C218.401 140.617 216.12 146.12 217.471 151.941C218.822 157.763 223.292 161.699 227.456 160.733Z" fill="#262626"/>
<path d="M226.493 125.792C224.957 125.064 223.184 124.718 221.499 124.634C217.643 124.443 214.249 126.077 211.752 128.986C211.402 129.394 210.685 129.27 210.358 128.914C209.958 128.48 210.084 127.922 210.43 127.52C213.187 124.308 217.076 122.533 221.312 122.652C223.246 122.706 225.35 123.082 227.115 123.918C228.25 124.456 227.64 126.335 226.493 125.792Z" fill="#262626"/>
<path d="M222.376 149.684C223.556 149.41 224.219 147.921 223.856 146.358C223.493 144.795 222.243 143.75 221.063 144.023C219.882 144.297 219.22 145.786 219.582 147.349C219.945 148.912 221.196 149.957 222.376 149.684Z" fill="#FCFFFF"/>
<path d="M224.745 150.092C224.855 150.568 225.235 150.885 225.594 150.802C225.953 150.719 226.155 150.266 226.044 149.791C225.934 149.316 225.554 148.998 225.195 149.081C224.836 149.164 224.635 149.617 224.745 150.092Z" fill="#FCFFFF"/>
<path d="M226.259 68.6108C226.259 68.6108 77.4036 113.667 56.504 155.452C56.504 155.452 48.4559 108.697 68.776 67.967C75.4974 54.4721 85.336 41.6469 99.6036 31.397C122.833 14.6961 158.179 23.632 185.66 37.3462C207.602 48.2657 224.521 62.2371 226.259 68.6108Z" fill="#EA480F"/>
<path d="M110.741 51.2492C113.291 48.6994 113.291 44.5655 110.741 42.0157C108.191 39.466 104.057 39.466 101.507 42.0157C98.9576 44.5655 98.9576 48.6994 101.507 51.2492C104.057 53.7989 108.191 53.7989 110.741 51.2492Z" fill="#FE9C41"/>
<path d="M149.917 66.9193C152.466 64.3696 152.466 60.2356 149.917 57.6859C147.367 55.1361 143.233 55.1361 140.683 57.6859C138.133 60.2356 138.133 64.3696 140.683 66.9193C143.233 69.4691 147.367 69.4691 149.917 66.9193Z" fill="#FE9C41"/>
<path d="M159.493 42.9796C162.043 40.4298 162.043 36.2959 159.493 33.7461C156.943 31.1964 152.809 31.1964 150.259 33.7461C147.71 36.2959 147.71 40.4298 150.259 42.9796C152.809 45.5293 156.943 45.5293 159.493 42.9796Z" fill="#FE9C41"/>
<path d="M107.258 89.553C109.808 87.0033 109.808 82.8693 107.258 80.3196C104.709 77.7698 100.575 77.7698 98.0249 80.3196C95.4752 82.8693 95.4752 87.0033 98.0249 89.553C100.575 92.1028 104.709 92.1028 107.258 89.553Z" fill="#FE9C41"/>
<path opacity="0.5" d="M226.259 68.6108C226.259 68.6108 77.4036 113.667 56.504 155.452C56.504 155.452 48.4559 108.697 68.776 67.967C69.7417 73.4911 74.8673 81.8486 96.1141 84.9388C128.511 89.6388 185.505 52.6311 185.66 37.3462C207.602 48.2657 224.521 62.2371 226.259 68.6108Z" fill="#CC3612"/>
<path d="M73.3072 105.658C75.857 103.108 75.857 98.9741 73.3072 96.4243C70.7575 93.8746 66.6235 93.8746 64.0738 96.4243C61.524 98.9741 61.524 103.108 64.0738 105.658C66.6235 108.208 70.7575 108.208 73.3072 105.658Z" fill="#FE9C41"/>
<path d="M241.067 104.087C241.067 104.087 212.339 89.2911 148.779 113.667C85.2323 138.043 62.5947 193.323 62.5947 193.323C56.0658 195.061 49.1129 169.81 53.0277 158.491C57.8941 144.404 69.9864 130.137 85.6185 116.976C126.323 82.7497 191.054 56.0819 215.159 60.0353C216.009 60.1767 216.807 60.344 217.554 60.5627C247.596 69.2679 241.067 104.087 241.067 104.087Z" fill="#FE9C41"/>
<path d="M241.067 104.087C241.067 104.087 212.339 89.2911 148.779 113.667C85.2323 138.043 62.5947 193.323 62.5947 193.323C56.0658 195.061 49.1129 169.81 53.0277 158.492C57.8941 144.404 69.9864 130.137 85.6185 116.976C86.1592 120.557 89.4941 130.96 109.891 123.673C134.254 114.968 141.22 95.807 147.324 94.9444C153.416 94.0685 162.12 92.33 165.597 87.102C169.086 81.8871 185.62 85.3641 191.71 76.6591C197.814 67.9547 208.258 76.6591 213.485 67.0788C214.541 65.1473 214.979 62.6876 215.159 60.0355C216.009 60.177 216.807 60.3442 217.554 60.563C247.596 69.2679 241.067 104.087 241.067 104.087Z" fill="#F28B44"/>
<path d="M245.855 100.606C241.284 114.32 232.141 107.791 232.141 107.791C221.698 131.949 196.885 118.891 196.885 118.891C195.571 129.334 177.827 129.334 169.457 129.334C153.142 129.334 146.613 114.32 146.613 114.32C144.334 108.191 144.45 104.559 145.854 102.512C149.627 96.9233 162.928 103.22 162.928 103.22C171.415 79.0629 192.314 91.4638 192.314 91.4638C198.185 70.5772 223.656 82.3211 223.656 82.3211C231.446 79.9903 237.266 80.2349 241.168 82.2312C247.091 85.2701 248.598 92.3391 245.855 100.606Z" fill="#212121"/>
<path d="M192.584 618.203C191.374 622.749 189.069 626.741 185.348 629.032C185.155 629.148 184.962 629.265 184.755 629.38C177.029 633.655 157.005 636.462 139.686 634.235C139.673 634.235 139.661 634.235 139.648 634.222C129.681 632.935 120.628 629.972 115.324 624.668C109.851 619.195 110.108 597.253 111.705 571.718C111.705 571.705 111.705 571.705 111.705 571.692C112.337 561.79 111.074 551.346 110.997 541.11L139.403 541.702L173.153 542.41C173.153 542.41 173.45 543.195 173.991 544.573C173.153 552.827 172.767 559.948 173.153 564.61C173.192 565.034 173.23 565.447 173.269 565.858C173.308 566.258 173.347 566.644 173.398 567.03C173.488 567.803 173.578 568.55 173.681 569.271C173.965 571.202 174.325 572.941 174.724 574.499C174.776 574.731 174.84 574.949 174.905 575.168C175.69 578.04 176.669 580.306 177.776 582.174C177.944 582.469 178.124 582.74 178.291 583.011C178.381 583.152 178.472 583.293 178.562 583.422C178.883 583.899 179.205 584.349 179.566 584.774C179.734 584.993 179.901 585.199 180.081 585.405C180.248 585.612 180.429 585.805 180.609 585.998C181.523 587.002 182.476 587.878 183.442 588.702C183.648 588.882 183.841 589.05 184.047 589.217C185.669 590.569 187.305 591.818 188.825 593.338C192.906 597.42 195.031 608.958 192.584 618.203Z" fill="#DB2C2C"/>
<path d="M192.584 618.203C191.374 622.749 189.069 626.741 185.348 629.032C185.155 629.148 184.962 629.265 184.755 629.38C177.029 633.655 157.005 636.462 139.686 634.235C139.673 634.235 139.661 634.235 139.648 634.222C129.681 632.935 120.628 629.972 115.324 624.668C109.851 619.195 110.108 597.253 111.705 571.718C115.749 571.975 125.135 572.477 135.656 572.581C136.016 572.967 136.429 573.353 136.867 573.739C136.867 573.739 127.737 603.781 149.279 616.181C168.518 627.256 187.756 622.195 192.584 618.203Z" fill="#D12020"/>
<path opacity="0.5" d="M167.835 584.247C168.34 581.163 166.25 578.253 163.166 577.748C160.082 577.243 157.172 579.333 156.667 582.417C156.162 585.501 158.252 588.41 161.336 588.916C164.42 589.421 167.329 587.331 167.835 584.247Z" fill="#B70012"/>
<path opacity="0.5" d="M131.373 608.569C134.498 608.569 137.032 606.035 137.032 602.91C137.032 599.785 134.498 597.252 131.373 597.252C128.248 597.252 125.715 599.785 125.715 602.91C125.715 606.035 128.248 608.569 131.373 608.569Z" fill="#B70012"/>
<path opacity="0.5" d="M170.112 617.274C173.237 617.274 175.77 614.741 175.77 611.616C175.77 608.491 173.237 605.957 170.112 605.957C166.986 605.957 164.453 608.491 164.453 611.616C164.453 614.741 166.986 617.274 170.112 617.274Z" fill="#B70012"/>
<path d="M296.963 614.494C296.821 614.83 296.679 615.151 296.525 615.473C296.371 615.782 296.216 616.104 296.036 616.4C295.894 616.67 295.727 616.942 295.559 617.199C295.495 617.302 295.43 617.405 295.366 617.495C295.25 617.675 295.135 617.842 295.006 617.997C294.813 618.28 294.593 618.564 294.375 618.821C294.233 618.989 294.092 619.156 293.937 619.311C293.345 619.954 292.701 620.547 291.98 621.062C281.227 628.865 243.37 636.14 227.48 622.516C226.913 622.027 226.359 621.383 225.819 620.585C225.664 620.354 225.497 620.096 225.342 619.825C225.162 619.542 224.994 619.246 224.827 618.924C224.659 618.615 224.492 618.28 224.325 617.932C223.822 616.902 223.333 615.73 222.857 614.443C222.703 614.018 222.548 613.58 222.393 613.117C222.239 612.666 222.084 612.203 221.93 611.726C221.775 611.237 221.621 610.747 221.479 610.245C221.028 608.739 220.591 607.116 220.166 605.403C220.024 604.837 219.895 604.258 219.754 603.665C219.47 602.493 219.2 601.257 218.942 599.995C218.827 599.48 218.723 598.965 218.62 598.45C218.44 597.548 218.26 596.634 218.08 595.707C217.912 594.806 217.745 593.892 217.577 592.952C216.535 587.093 215.581 580.667 214.719 573.907C214.513 572.31 214.32 570.688 214.127 569.065C213.431 563.322 212.8 557.386 212.221 551.411C212.015 549.196 211.809 546.968 211.615 544.753C211.512 543.582 211.409 542.41 211.307 541.239L235.012 538.688L274.3 534.478C273.965 544.148 274.055 552.558 274.892 557.759C275.33 560.451 275.832 562.82 276.412 564.906C280.275 578.826 287.022 580.333 292.727 585.2C297.89 589.629 301.135 604.567 296.963 614.494Z" fill="#DB2C2C"/>
<path d="M296.963 614.494C296.821 614.83 296.68 615.151 296.525 615.473C296.371 615.782 296.216 616.104 296.036 616.4C295.895 616.67 295.727 616.942 295.56 617.199C295.495 617.302 295.431 617.405 295.367 617.495C295.251 617.675 295.135 617.842 295.006 617.997C294.813 618.28 294.594 618.564 294.375 618.821C294.234 618.989 294.092 619.156 293.937 619.311C293.345 619.954 292.701 620.547 291.98 621.062C281.228 628.865 243.37 636.14 227.48 622.516C226.913 622.027 226.36 621.384 225.819 620.585C225.664 620.354 225.497 620.096 225.343 619.826C225.162 619.542 224.995 619.246 224.828 618.924C224.66 618.615 224.493 618.28 224.325 617.932C223.823 616.902 223.334 615.73 222.857 614.443C222.703 614.018 222.548 613.58 222.394 613.117C222.239 612.666 222.084 612.203 221.93 611.726C221.776 611.237 221.621 610.747 221.48 610.245C221.029 608.739 220.591 607.116 220.166 605.403C220.025 604.837 219.896 604.258 219.754 603.665C219.471 602.493 219.2 601.257 218.943 599.995C218.827 599.48 218.724 598.965 218.621 598.45C218.441 597.548 218.26 596.634 218.08 595.707C217.913 594.806 217.746 593.879 217.578 592.952C216.535 587.093 215.582 580.667 214.719 573.907C214.513 572.31 214.32 570.688 214.127 569.065C219.239 569.194 229.321 569.322 240.55 568.911C241.001 569.219 241.49 569.529 241.992 569.825C241.992 569.825 231.549 592.681 251.135 608.352C267.655 621.564 287.911 618.525 296.963 614.494Z" fill="#D12020"/>
<path opacity="0.5" d="M238.828 597.293C239.328 594.209 237.233 591.302 234.149 590.801C231.064 590.301 228.157 592.395 227.656 595.48C227.156 598.565 229.251 601.472 232.336 601.972C235.42 602.473 238.327 600.378 238.828 597.293Z" fill="#B70012"/>
<path opacity="0.5" d="M257.174 582.462C260.062 581.266 261.433 577.956 260.237 575.069C259.041 572.181 255.731 570.81 252.843 572.006C249.956 573.202 248.585 576.512 249.781 579.4C250.977 582.287 254.287 583.658 257.174 582.462Z" fill="#B70012"/>
<path opacity="0.5" d="M287.202 601.604C290.327 601.604 292.86 599.071 292.86 595.946C292.86 592.821 290.327 590.287 287.202 590.287C284.076 590.287 281.543 592.821 281.543 595.946C281.543 599.071 284.076 601.604 287.202 601.604Z" fill="#B70012"/>
<path opacity="0.5" d="M262.825 622.062C265.95 622.062 268.483 619.529 268.483 616.404C268.483 613.278 265.95 610.745 262.825 610.745C259.699 610.745 257.166 613.278 257.166 616.404C257.166 619.529 259.699 622.062 262.825 622.062Z" fill="#B70012"/>
<path d="M173.152 564.61C173.294 566.284 173.474 567.829 173.68 569.271C165.774 572.168 149.717 572.735 135.655 572.581C125.134 572.478 115.747 571.975 111.704 571.718C111.704 571.705 111.704 571.705 111.704 571.692C111.279 561.777 111.073 551.347 110.996 541.11L139.402 541.702L173.152 542.41C173.152 542.41 173.449 543.195 173.989 544.574C173.152 552.828 172.766 559.948 173.152 564.61Z" fill="#C92020"/>
<path d="M276.412 564.906C266.406 567.378 252.795 568.473 240.55 568.911C229.321 569.323 219.238 569.194 214.127 569.065C213.431 563.322 212.8 557.386 212.221 551.411C212.015 549.196 211.809 546.969 211.615 544.753C211.512 543.582 211.409 542.41 211.307 541.239L235.012 538.689L274.3 534.479C273.965 544.149 274.055 552.558 274.892 557.759C275.33 560.451 275.832 562.82 276.412 564.906Z" fill="#C92020"/>
<path d="M135.655 572.581C125.134 572.477 115.747 571.975 111.704 571.718C111.704 571.705 111.704 571.705 111.704 571.692C111.279 561.777 111.073 551.346 110.996 541.11L139.402 541.702C135.049 545.874 122.791 559.716 135.655 572.581Z" fill="#B21B1B"/>
<path d="M240.55 568.911C229.321 569.322 219.238 569.194 214.127 569.065C213.431 563.322 212.8 557.386 212.221 551.411C212.015 549.196 211.809 546.968 211.615 544.753C211.512 543.582 211.409 542.41 211.307 541.239L235.012 538.688C232.785 545.102 228.883 560.824 240.55 568.911Z" fill="#B21B1B"/>
<path d="M51.1325 402.889C51.1325 402.967 51.12 403.044 51.12 403.121C51.12 403.121 39.1824 397.134 40.6247 415.612C34.6886 409.457 29.4607 401.499 27.3877 391.571C27.1815 390.515 27.0142 389.575 26.8986 388.764C25.675 380.535 33.7489 376.956 36.9422 375.874C37.7275 375.603 38.2166 375.488 38.2166 375.488C40.6763 387.759 45.5699 396.58 51.1325 402.889Z" fill="#40822E"/>
<path d="M234.639 449.826C235.103 449.362 235.411 449.092 235.45 449.066C235.385 449.143 235.141 449.478 234.639 449.826Z" fill="#63B250"/>
<path d="M345.624 378.462C344.568 379.892 343.499 381.269 342.43 382.557C339.636 386.175 337.061 388.828 335.078 389.627C323.257 397.7 317.012 379.402 317.012 379.402C317.025 379.402 317.025 379.402 317.037 379.402C323.218 377.896 328.639 373.685 333.224 368.457C333.7 368.56 334.138 368.612 334.537 368.612C334.537 368.612 333.301 379.196 345.405 378.475C345.482 378.475 345.547 378.475 345.624 378.462Z" fill="#40822E"/>
<path opacity="0.5" d="M240.035 205.5C232.579 221.52 217.217 239.496 192.314 243.371C153.709 249.372 114.099 206.776 112.953 205.527C114.344 206.544 154.718 242.064 194.76 237.706C218.251 235.149 233.056 217.038 240.035 205.5Z" fill="#FC9B78"/>
<path opacity="0.5" d="M245.855 100.606C241.284 114.32 232.141 107.791 232.141 107.791C221.698 131.949 196.885 118.891 196.885 118.891C195.571 129.334 177.827 129.334 169.457 129.334C153.142 129.334 146.613 114.32 146.613 114.32C144.334 108.19 144.45 104.559 145.854 102.512C143.62 117.137 176.029 131.528 186.931 119.316C196.198 108.935 194.902 106.465 194.773 106.272C195.237 106.8 205.886 118.75 216.96 113.226C228.278 107.56 227.133 100.606 227.133 100.606C227.133 100.606 231.33 107.135 238.297 99.7306C245.25 92.3264 240.035 82.3211 240.035 82.3211C240.035 82.3211 240.447 82.2562 241.168 82.2312C247.091 85.2701 248.598 92.3391 245.855 100.606Z" fill="#0F0F0F"/>
<path opacity="0.5" d="M2.1543 440.122C2.1543 440.122 10.9142 427.771 11.7303 427.608C12.5464 427.444 3.13367 440.775 3.13367 440.775L2.1543 440.122Z" fill="#F48C6C"/>
<path opacity="0.5" d="M6.51305 446.869C6.04895 446.663 5.59888 446.456 5.17383 446.225C5.32853 446.186 5.41783 446.16 5.41783 446.16C5.41783 446.16 14.7777 434.79 15.4306 434.898C16.6045 435.094 6.51305 446.869 6.51305 446.869Z" fill="#F48C6C"/>
<path opacity="0.5" d="M11.3496 453.67C11.3496 453.67 20.6375 441.353 21.3064 441.427C22.2858 441.536 13.4138 453.176 13.4138 453.176L11.3496 453.67Z" fill="#F48C6C"/>
</svg>
