<svg width="732" height="638" viewBox="0 0 732 638" fill="none" xmlns="http://www.w3.org/2000/svg">
<path d="M486.368 506.395C485.694 534.455 492.03 562.676 504.528 587.278C508.39 594.88 513.057 602.387 519.911 606.892C526.766 611.396 536.289 612.13 542.451 606.577C547.987 601.589 558.165 607.872 559.629 615.502C558.477 613.558 557.283 611.566 555.547 610.221C553.811 608.877 551.383 608.314 549.526 609.454C547.931 610.432 547.116 612.374 546.061 613.996C545.006 615.618 543.224 617.112 541.484 616.485C541.018 618.625 543.77 619.388 545.799 619.505C547.829 619.622 549.811 618.751 551.843 618.748C553.875 618.744 556.232 620.199 556.097 622.391C559.245 619.878 565.564 620.352 568.702 622.881C571.84 625.409 573.186 630.248 571.859 634.229C569.352 630.154 565.784 625.547 561.325 626.386C559.115 626.802 557.34 628.516 555.367 629.67C549.061 633.358 541.187 631.091 534.807 627.555C528.428 624.018 522.448 619.227 515.412 617.743C499.762 614.442 484.944 628.327 469.008 627.796C466.354 625.898 462.244 626.271 459.637 628.243C457.03 630.215 455.707 633.981 456.445 637.327C452.085 633.792 453.538 625.75 457.818 622.102C462.098 618.454 467.906 617.948 473.34 617.518C478.775 617.089 484.605 616.417 488.722 612.556C495.379 606.313 494.506 594.879 491.697 585.847C483.353 559.022 463.114 536.522 460.957 508.316C460.62 503.905 462.091 497.935 466.182 498.067C474.634 498.338 478.915 502.076 486.368 506.395Z" fill="#43536C"/>
<path d="M398.462 493.192C397.789 521.252 404.125 549.472 416.623 574.074C420.485 581.677 425.151 589.183 432.006 593.688C438.861 598.192 448.384 598.927 454.546 593.374C460.082 588.385 470.26 594.668 471.724 602.298C470.571 600.354 469.378 598.362 467.642 597.017C465.906 595.673 463.478 595.11 461.621 596.25C460.026 597.228 459.21 599.17 458.156 600.792C457.101 602.415 455.318 603.908 453.579 603.281C453.113 605.421 455.865 606.184 457.894 606.301C459.924 606.418 461.905 605.547 463.938 605.544C465.97 605.54 468.327 606.995 468.192 609.188C471.34 606.674 477.659 607.149 480.796 609.677C483.934 612.205 485.281 617.044 483.954 621.026C481.447 616.95 477.879 612.343 473.419 613.182C471.21 613.598 469.435 615.312 467.462 616.466C461.156 620.154 453.282 617.888 446.902 614.351C440.523 610.814 434.543 606.023 427.506 604.539C411.857 601.238 397.039 615.124 381.103 614.592C378.449 612.694 374.339 613.067 371.732 615.039C369.125 617.011 367.802 620.777 368.54 624.124C364.18 620.588 365.633 612.547 369.913 608.899C374.192 605.251 380 604.744 385.435 604.315C390.87 603.886 396.7 603.213 400.817 599.353C407.474 593.11 406.601 581.675 403.791 572.643C395.447 545.818 375.209 523.319 373.052 495.113C372.715 490.701 374.186 484.732 378.277 484.863C386.729 485.134 391.01 488.872 398.462 493.192Z" fill="#43536C"/>
<path d="M586.833 1.05361C560.155 6.4108 538.589 27.7865 522.234 51.2017C505.879 74.6168 493.111 100.948 475.112 122.907C443.952 160.921 399.844 182.805 358.132 206.164C319.172 227.982 281.241 251.947 244.529 277.927C235.351 284.421 226.249 291.042 217.227 297.787C209.411 303.629 200.747 308.657 195.293 317.066C186.164 331.143 175.736 343.821 163.888 355.298C116.147 401.541 52.6539 427.756 12.0035 482.737C7.64539 488.631 3.61692 494.811 0 501.267C23.6467 489.065 47.2935 476.864 70.9402 464.662C48.9496 479.18 30.2367 499.537 17.2219 523.596C36.5755 512.793 55.9293 501.991 75.2829 491.188C69.9382 494.585 64.7686 498.273 59.905 502.442C47.4152 513.147 36.9204 527.414 33.1941 544.171C49.1401 539.503 63.9037 531.108 78.518 522.778C130.217 493.309 181.915 463.84 233.614 434.37C195.389 457.225 156.913 480.263 123.254 510.367C179.01 501.143 225.54 460.533 278.177 438.613C291.26 433.165 305.435 428.823 319.179 431.814C328.919 433.933 337.656 439.575 347.01 443.195C356.364 446.815 367.468 448.158 375.69 442.128C370.833 457.953 371.764 475.856 378.156 491.03C380.201 495.886 383.706 501.073 388.64 500.995C392.911 500.927 396.161 496.878 398.316 492.889C402.903 484.402 405.26 474.749 408.984 465.782C412.709 456.815 418.339 448.056 426.788 444.434C434.566 441.1 442.007 442.607 447.81 449.124C453.614 455.641 455.234 465.256 455.567 474.297C455.9 483.339 455.242 492.582 457.579 501.27C459.915 509.959 466.255 518.235 474.599 518.91C480.642 519.399 486.495 515.747 490.365 510.703C494.236 505.66 496.418 499.368 498.178 493.096C505.012 468.75 506.568 442.701 515.775 419.287C527.718 388.917 550.764 364.909 573.478 344.127C596.492 323.071 611.559 287.114 620.966 256.964C629.857 228.465 634.698 198.702 637.691 168.763C638.232 170.322 638.774 171.882 639.316 173.441C640.208 166.316 641.1 159.191 641.992 152.066C643.177 157.265 644.363 162.464 645.548 167.663C643.017 150.353 642.05 132.778 642.638 115.265C643.43 109.687 644.429 104.15 645.752 98.6825C648.033 89.2543 651.265 80.0897 652.984 70.5231C660.554 28.3938 624.855 -6.58157 586.833 1.05361Z" fill="#262D3D"/>
<path d="M595.745 59.32C600.419 62.5609 607.224 61.5413 610.889 57.0309C614.554 52.5207 614.605 45.0687 610.984 40.5175C607.85 36.5794 600.926 34.7243 596.43 36.9459C591.858 39.2054 589.689 46.0783 590.661 51.0781C591.304 54.3879 593.091 57.4797 595.745 59.32Z" fill="#43536C"/>
<path d="M595.364 44.7968C594.107 46.8029 593.656 49.4201 594.323 51.7335C594.856 53.584 596.067 55.1644 597.564 56.2309C600.556 58.3625 604.793 58.32 607.64 55.9675C610.487 53.615 611.621 49.0521 610.087 45.5504C607.41 39.4389 598.668 39.5217 595.364 44.7968Z" fill="#231F20"/>
<path d="M622.462 53.2402C619.778 58.5266 617.586 64.6728 619.069 70.4868C620.354 75.527 624.273 79.411 628.69 81.5364C633.106 83.6618 638.01 84.2601 642.833 84.6027C672.54 86.7123 702.236 80.0993 732.002 80.6616C730.707 72.7105 725.994 65.7818 720.22 60.6646C714.446 55.5473 707.629 52.0235 700.839 48.6679C688.617 42.6277 676.196 36.9509 663.308 32.7742C657.175 30.7867 650.337 28.199 643.855 28.7212C639.444 29.0764 637.671 31.7012 634.911 35.0546C630.214 40.7589 625.878 46.5128 622.462 53.2402Z" fill="#43536C"/>
<path d="M713.54 70.831C701.662 66.6167 689.42 63.6036 677.024 61.8505C669.982 60.8546 662.89 60.2647 655.789 60.0923C646.906 59.8767 637.43 60.5077 630.209 66.1071C647.397 66.2101 664.629 66.3156 681.699 68.4965C696.93 70.4423 712.089 74.0943 726.154 80.6452C728.101 80.625 730.049 80.6278 731.997 80.6647C731.864 79.8447 731.685 79.0383 731.481 78.2408C731.407 78.2069 731.323 78.1728 731.251 78.1388C725.459 75.4005 719.546 72.962 713.54 70.831Z" fill="#262D3D"/>
<path d="M39.455 358.216C32.6767 360.526 25.7592 362.911 20.0444 367.48C14.3295 372.049 9.93524 379.283 10.3582 386.956C63.6134 375.035 116.869 363.115 170.124 351.195C122.087 361.601 74.9777 377.007 29.6578 397.13C24.8042 399.285 19.0303 404.972 22.3949 409.327C24.382 411.898 28.0991 411.371 31.1176 410.613C56.285 404.296 81.4522 397.978 106.62 391.66C86.9995 393.723 68.2124 403.974 55.0204 419.816C132.891 401.074 212.229 389.471 291.906 385.17C343.052 382.409 395.513 382.416 443.478 363.015C451.825 359.639 460.178 355.546 466.489 348.741C472.8 341.936 476.761 331.896 474.652 322.532C471.823 309.97 459.768 302.872 448.716 297.943C423.673 286.774 397.405 278.839 370.653 274.25C344.331 269.734 314.638 266.284 288.122 270.874C279.119 272.433 272.01 278.638 263.504 281.846C249.502 287.126 235.154 291.516 221.009 296.336C192.635 306.007 164.26 315.678 135.885 325.349C103.742 336.305 71.5983 347.26 39.455 358.216Z" fill="#43536C"/>
<path d="M598.955 48.9217C600.116 48.9217 601.057 48.0057 601.057 46.8757C601.057 45.7458 600.116 44.8298 598.955 44.8298C597.795 44.8298 596.854 45.7458 596.854 46.8757C596.854 48.0057 597.795 48.9217 598.955 48.9217Z" fill="white"/>
<path d="M204.962 274.014C201.363 276.602 198.248 279.561 195.935 283.028C193.541 286.617 192.724 291.811 195.074 295.434C197.997 299.941 204.023 300.081 209.099 299.658C239.639 297.113 269.912 290.83 299.154 280.967C276.461 286.479 254.412 295.087 233.697 306.524C229.695 308.734 225.083 312.533 226.202 317.24C227.471 322.584 234.368 322.757 239.379 321.725C271.89 315.028 304.312 307.831 336.633 300.137C316.637 305.183 297.346 313.477 279.605 324.656C276.398 326.677 272.759 330.115 273.998 333.9C275.263 337.764 280.221 337.857 283.967 337.225C309.171 332.974 334.374 328.723 359.577 324.473C341.7 327.3 324.73 336.471 311.905 350.233C342.015 351.385 372.251 348.626 401.757 342.037C390.86 346.247 380.275 351.405 370.141 357.445C367.04 359.293 363.534 362.14 364.014 365.934C364.618 370.709 370.536 371.7 374.986 371.462C414.409 369.353 453.937 366.803 492.75 359.038C514.409 354.705 536.46 348.415 553.945 333.927C571.429 319.439 583.418 295.001 578.616 271.752C573.863 248.737 554.556 232.674 534.936 222.383C510.982 209.819 478.465 198.395 451.49 202.565C425.296 206.615 399.201 201.29 372.618 206.833C348.344 211.896 324.947 220.95 301.896 230.61C282.32 238.814 262.913 247.481 243.579 256.329C232.587 261.359 216.351 265.824 204.962 274.014Z" fill="#1A1F28"/>
<path d="M382.078 205.09C373.058 210.398 364.073 216.534 358.184 225.631C355.187 230.261 353.164 236.77 356.218 241.355C359.56 246.37 366.52 245.789 372.108 244.494C392.73 239.715 412.85 232.401 431.954 222.738C409.8 228.49 387.033 234.536 368.49 248.853C366.288 250.554 364.082 252.462 362.919 255.105C361.757 257.747 361.96 261.311 364.069 263.145C365.894 264.733 368.488 264.606 370.819 264.353C395.525 261.666 419.722 253.626 441.561 240.847C425.81 247.086 411.049 256.232 398.107 267.771C395.526 270.073 392.946 272.567 391.524 275.842C390.102 279.116 390.114 283.376 392.401 286.016C413.295 282.32 433.539 274.377 451.764 262.725C438.748 268.601 426.298 275.944 414.682 284.596C411.34 287.085 407.65 291.235 409.405 295.191C411.164 299.156 416.479 298.627 420.373 297.359C438.244 291.542 455.424 283.244 471.357 272.733C457.133 279.702 444.444 290.305 434.619 303.433C459.831 300.231 484.265 290.096 504.991 274.245C491.428 282.571 478.542 292.185 466.529 302.941C463.916 305.281 461.166 309.391 463.403 312.149C465.102 314.245 468.227 313.46 470.636 312.469C490.325 304.366 509.148 293.806 526.611 281.064C509.312 290.808 494.202 305.056 482.918 322.261C505.759 316.403 527.404 305.157 545.908 289.536C528.254 299.181 512.555 312.986 500.223 329.71C520.065 324.682 539.169 316.262 556.609 304.857C539.785 311.166 525.21 324.233 516.357 340.942C540.164 339.885 563.719 332.687 584.517 320.113C601.421 309.894 617.33 294.763 621.98 274.432C627.309 251.129 616.222 226.32 599.731 210.252C588.227 199.043 574.377 191.228 560.258 184.614C547.345 178.565 537.718 172.221 523.483 171.277C492.101 169.195 460.389 173.317 430.323 183.242C413.62 188.756 397.42 196.063 382.078 205.09Z" fill="#43536C"/>
</svg>
