<svg width="740" height="362" viewBox="0 0 740 362" fill="none" xmlns="http://www.w3.org/2000/svg">
<path d="M114.82 164.019C114.82 164.019 73.2811 211.946 28.5434 263.072C-16.1893 314.193 -3.40784 352.538 54.1064 352.538C248.695 352.538 443.103 366.616 637.638 357.028C672.099 355.316 734.949 359.738 728.131 310.647C721.909 265.914 680.238 174.698 635.642 154.427C600.492 138.456 156.353 128.874 114.82 164.019Z" fill="#C9D3EC"/>
<path d="M489.41 361.97H489.4C416.849 361.97 343.09 359.979 271.763 358.052C200.43 356.125 126.666 354.134 54.0957 354.134C27.755 354.134 9.56346 346.014 2.87678 331.271C-5.08169 313.73 3.60073 289.136 27.3294 262.017C71.5535 211.483 113.185 163.454 113.601 162.969C139.741 140.825 306.947 138.453 377.629 138.453C502.641 138.453 618.673 144.969 636.287 152.976C682.903 174.161 723.845 268.278 729.7 310.429C731.363 322.378 729.054 332.152 722.847 339.484C708.353 356.599 676.021 357.485 650.042 358.199C645.669 358.316 641.516 358.434 637.71 358.624C592.029 360.879 543.52 361.97 489.41 361.97ZM377.634 141.657C231.163 141.657 133.299 150.476 115.846 165.244C115.606 165.552 73.965 213.582 29.7409 264.126C7.22043 289.865 -1.51578 313.857 5.79212 329.955C11.9358 343.49 29.0903 350.945 54.1006 350.945C126.715 350.945 200.498 352.936 271.855 354.863C343.159 356.79 416.893 358.776 489.405 358.776C543.466 358.776 591.926 357.68 637.554 355.435C641.379 355.244 645.561 355.132 649.954 355.01C675.302 354.315 706.842 353.449 720.406 337.425C726.085 330.718 728.091 322.036 726.54 310.869C719.917 263.27 677.62 175.267 634.971 155.886C617.993 148.173 500.147 141.657 377.634 141.657Z" fill="#99A0D1"/>
<path d="M116.939 97.9857C116.939 97.9857 75.4004 145.913 30.6628 197.039C-14.07 248.16 -1.28363 286.504 56.2306 286.504C232.002 286.504 743.208 315.261 733.615 264.14C721.719 200.722 672.912 104.379 637.762 88.3983C602.616 72.4276 158.473 62.8402 116.939 97.9857Z" fill="#8C961C"/>
<path d="M490.436 296.146C490.417 296.146 490.402 296.146 490.382 296.146C403.705 296.146 306.961 293.603 221.604 291.362C154.683 289.606 96.8952 288.09 56.2175 288.09C29.8768 288.09 11.6951 279.97 4.99859 265.227C-2.95988 247.686 5.71764 223.092 29.4463 195.978C73.6704 145.439 115.302 97.4096 115.718 96.9303C141.858 74.7864 309.054 72.4141 379.736 72.4141C504.758 72.4141 620.795 78.9296 638.414 86.932C674.215 103.211 723.281 200.39 735.177 263.833C735.701 266.631 734.947 269.282 732.937 271.708C719.099 288.384 642.038 296.146 490.436 296.146ZM379.736 75.6082C233.275 75.6082 135.416 84.4276 117.958 99.195C117.718 99.5032 76.077 147.533 31.8529 198.077C9.33246 223.816 0.601135 247.814 7.90415 263.907C14.0479 277.441 31.2024 284.896 56.2126 284.896C96.9295 284.896 154.742 286.417 221.682 288.173C307.015 290.414 403.739 292.952 490.377 292.957C490.387 292.957 490.421 292.957 490.431 292.957C638.966 292.957 717.47 285.341 730.472 269.669C731.866 267.986 732.379 266.269 732.027 264.42C718.15 190.422 666.775 103.338 637.088 89.8425C620.12 82.1237 502.264 75.6082 379.736 75.6082Z" fill="#727612"/>
<path d="M121.198 25.5675C121.198 25.5675 79.659 73.4944 34.9262 124.62C-9.81145 175.727 2.97005 214.071 60.4843 214.071C236.26 214.071 747.461 242.828 737.879 191.707C725.983 128.289 677.166 31.9607 642.015 15.9801C606.87 0.00448906 162.736 -9.58286 121.198 25.5675Z" fill="#8687C2"/>
<path d="M494.699 223.723C494.68 223.723 494.665 223.723 494.645 223.723C407.963 223.723 311.219 221.179 225.867 218.939C158.947 217.183 101.153 215.666 60.4757 215.666C34.135 215.666 15.9484 207.546 9.25683 192.803C1.30325 175.267 9.98567 150.678 33.7143 123.564C77.9335 73.0252 119.565 25.0005 119.981 24.5162C146.126 2.37238 313.317 0 384 0C509.017 0 625.053 6.51549 642.672 14.518C678.483 30.7969 727.549 127.967 739.445 191.404C739.969 194.202 739.216 196.854 737.2 199.28C723.362 215.955 646.301 223.723 494.699 223.723ZM384 3.19415C237.538 3.19415 139.679 12.0135 122.221 26.781C121.981 27.0891 80.3401 75.1188 36.121 125.663C13.6005 151.397 4.86426 175.38 12.1673 191.478C18.311 205.013 35.4655 212.467 60.4757 212.467C101.193 212.467 159.005 213.988 225.945 215.745C311.283 217.985 408.007 220.524 494.645 220.528C494.645 220.528 494.684 220.528 494.694 220.528C643.229 220.528 721.738 212.912 734.745 197.24C736.139 195.557 736.652 193.84 736.3 191.991C722.423 118.003 671.043 30.924 641.351 17.4235C624.378 9.7145 506.522 3.19415 384 3.19415Z" fill="#7171B4"/>
<path d="M683.562 306.757C683.562 306.757 361.897 319.538 240.48 315.268C119.063 311.012 42.3743 296.098 35.9811 311.012C29.588 325.926 29.588 332.32 317.164 336.575C604.731 340.831 692.063 338.708 700.594 325.927C709.115 313.15 704.865 306.757 683.562 306.757Z" fill="#E7ECF7"/>
<g opacity="0.59">
<path d="M685.698 236.444C685.698 236.444 364.033 249.226 242.616 244.955C121.199 240.7 44.515 225.786 38.1218 240.7C31.7286 255.619 31.7286 262.007 319.3 266.263C606.876 270.518 694.209 268.395 702.73 255.619C711.256 242.837 707.005 236.444 685.698 236.444Z" fill="#C6BA3A"/>
</g>
<g opacity="0.35">
<path d="M140.359 31.9911C140.359 31.9911 87.1097 83.1269 65.8073 120.992C44.5048 158.872 221.308 147.519 453.508 151.295C685.692 155.076 740.032 133.426 511.012 96.3779C242.586 52.9512 368.288 45.2422 542.958 71.7639C717.639 98.2758 670.768 28.2051 568.526 22.5163C466.27 16.8372 180.831 5.47918 140.359 31.9911Z" fill="#E2C9E1"/>
</g>
<g opacity="0.61">
<path d="M737.87 191.69C725.974 128.272 677.156 31.9435 642.006 15.963C641.145 15.5619 639.971 15.1755 638.636 14.7891C646.854 19.7588 652.948 24.1661 655.869 27.6733C677.166 53.2363 715.511 136.314 713.383 166.142C711.24 195.965 643.087 185.317 643.087 185.317C643.087 185.317 144.629 189.572 67.9396 185.317C21.9057 182.758 11.9613 170.984 11.3596 161.984C0.202097 193.285 18.1881 214.054 60.4752 214.054C236.246 214.054 747.452 242.811 737.87 191.69Z" fill="#8687C2"/>
</g>
</svg>
