<svg width="757" height="591" viewBox="0 0 757 591" fill="none" xmlns="http://www.w3.org/2000/svg">
<path d="M275.836 300.22L302.862 282.329C304.744 281.547 306.634 280.661 308.525 279.665C314.892 276.331 321.724 273.71 327.585 269.576C332.775 265.916 337.776 262.452 342.597 259.195C373.714 238.159 409.161 224.014 446.611 223.963C457.387 223.946 469.246 225.218 482.188 227.787C496.668 230.657 511.551 235.151 526.83 241.278C551.45 251.152 572.882 259.849 597.175 267.239C602.641 268.897 610.005 272.455 610.873 278.754C611.423 282.681 611.105 286.264 609.919 289.487C608.02 294.66 604.609 300.031 599.667 305.591C598.155 307.293 596.625 308.573 595.087 309.432C593.102 310.541 590.284 311.314 586.614 311.752C579.817 312.56 572.702 313.153 565.251 313.531C565.019 313.549 564.865 313.772 564.933 313.987C564.976 314.124 565.062 314.227 565.191 314.296C568.001 315.834 570.837 317.278 573.681 318.619C583.993 323.465 595.216 328.466 607.341 333.614C614.629 336.699 619.896 340.025 622.311 348.154C624.339 354.968 622.87 361.697 617.903 368.331C613.615 374.054 607.986 377.071 600.39 380.877C578.983 391.585 559.649 400.659 542.393 408.101C541.577 408.453 541.611 408.634 542.496 408.66C562.622 409.201 583.349 411.685 603.44 410.61C607.625 410.396 612.936 409.476 619.355 407.869C643.709 401.768 665.02 391.774 683.427 375.945C687.793 372.198 692.175 368.142 696.567 363.768C699.746 360.597 705.624 358.011 709.139 362.256C711.124 364.67 712.567 367.403 713.47 370.454C719.734 391.748 710.642 415.887 693.525 429.413C690.414 431.879 687.045 434.276 683.41 436.614C682.663 437.095 682.027 437.714 681.485 438.462C668.312 456.912 652.818 472.929 635.004 486.524C630.974 489.592 627.012 492.6 623.102 495.547C613.864 502.155 604.549 508.489 595.148 514.53C588.213 518.981 581.889 522.719 576.165 525.744C574.885 526.423 573.759 526.964 572.78 527.351C572.264 527.557 572.281 527.66 572.84 527.669C591.762 527.935 609.061 528.356 624.727 528.932C632.203 529.207 638.356 529.843 643.185 530.849C644.079 531.029 644.68 531.588 644.99 532.507C645.11 532.868 645.05 533.272 644.827 533.581C643.211 535.816 639.963 535.979 637.436 535.996C610.909 535.231 590.56 534.827 576.389 534.784C473.424 534.501 332.132 534.501 152.522 534.767C141.016 534.784 122.48 535.231 96.9148 536.099L90.5127 534.432C89.6705 534.217 89.2494 533.272 89.6447 532.498C90.4267 530.969 93.2797 530.453 94.7749 530.299C102.208 529.534 109.624 529.087 117.032 528.958C132.027 528.692 147.152 528.391 162.405 528.056C162.946 528.047 163.006 527.867 162.594 527.523C161.52 526.638 160.093 526.114 158.993 525.323C145.888 515.939 134.132 505.249 123.709 493.244C117.049 485.158 111.661 477.656 107.527 470.729C96.6224 452.451 90.564 430.521 90.908 408.737C91.415 376.177 103.188 345.851 121.165 318.301C134.459 297.934 147.229 280.292 159.466 265.374C175.32 246.048 187.686 230.614 196.58 219.073C206.987 205.556 216.852 190.793 226.159 174.783C234.168 161.008 240.364 144.827 241.223 129.702C241.627 122.69 240.767 115.575 238.662 108.357C238.524 107.893 238.026 107.643 237.579 107.815C233.325 109.422 229.295 111.313 225.48 113.504C211.292 121.633 199.132 127.958 184.971 131.49C180.356 132.633 175.329 133.681 169.872 134.635C168.532 134.867 167.062 135.374 165.988 136.191C160.291 140.479 153.742 144.784 146.327 149.098C129.836 158.697 115.416 166.929 103.076 173.795C99.931 175.54 96.2102 177.25 91.9221 178.917C81.5414 182.956 77.0986 170.263 79.1868 162.985C79.8226 160.776 81.5242 158.181 84.2999 155.199C88.8285 150.344 93.89 146.065 98.1179 140.96C102.784 135.331 106.943 128.62 110.595 120.843C112.03 117.792 113.062 114.888 113.698 112.146C113.998 110.84 113.741 109.534 112.924 108.236C108.301 100.915 102.673 94.1605 109.882 85.7131C113.406 81.5798 118.261 77.0079 123.597 75.4783C123.915 75.3924 124.036 75.1862 123.967 74.8683C122.944 70.0388 122.867 65.8625 123.735 62.3306C127.129 48.4524 137.811 37.9427 148.191 27.7338C163.101 13.0736 181.697 4.45447 202.338 1.18031C218.511 -1.38041 233.678 0.22635 247.848 5.99267C264.666 12.8417 278.08 23.4543 288.091 37.8396C294.734 47.3695 300.002 57.3981 303.903 67.9163C315.762 99.8922 317.257 132.504 308.38 165.734C301.506 191.506 289.93 216.564 275.553 238.907C275.519 238.958 272.348 243.719 266.032 253.197C259.845 262.495 252.858 272.739 245.064 283.936C232.26 302.343 223.572 321.549 226.546 344.553C226.589 344.854 226.924 345.018 227.173 344.846C230.078 342.895 232.939 340.953 235.758 339.019C236.815 338.289 237.863 337.275 238.903 335.977C244.815 328.578 250.444 322.383 255.78 317.39C260.479 312.998 267.165 307.275 275.836 300.22ZM182.77 12.8756C165.145 20.3691 151.378 32.5029 139.365 47.3864C135.661 51.9838 132.997 56.8564 131.381 62.0122C130.101 66.1028 129.998 70.2017 131.081 74.318C138.72 76.2 145.389 76.3031 151.086 74.6359C153.784 73.8453 157.273 71.9204 161.561 68.8527C162.842 67.9333 164.707 67.3488 166.245 67.0395C181.206 64.0405 193.004 56.1088 202.938 44.6884C203.875 43.6143 204.185 43.7774 203.849 45.1611C202.672 50.0248 199.853 54.2873 195.394 57.9393C195.102 58.1798 194.938 58.4894 194.912 58.8673C194.517 64.9343 192.06 71.7659 185.228 73.0034C180.974 73.7682 179.401 72.3418 176.299 70.4255C175.663 70.0388 175.199 70.185 174.899 70.8724C168.256 86.2801 168.505 101.267 175.646 115.841C177.219 119.167 178.336 122.604 178.98 126.171C179.04 126.523 179.401 126.729 179.737 126.618C192.068 122.613 203.454 118.102 215.914 111.605C225.101 106.819 235.344 102.213 246.653 97.7956C252.247 95.6127 257.798 93.9888 263.307 92.9146L266.804 93.0866C267.096 93.0952 267.277 93.4217 267.131 93.6794C267.002 93.9116 266.821 94.1006 266.589 94.2467C260.35 98.2769 253.648 101.439 246.653 104.344C246.3 104.49 246.154 104.756 246.223 105.134C246.592 107.197 246.988 109.242 247.392 111.261C247.778 113.169 248.019 115.309 248.113 117.672C248.242 120.92 248.303 123.069 248.285 124.117C248.208 128.663 247.65 133.776 246.61 139.439C244.109 150.541 240.801 160.157 236.667 168.278C226.355 188.558 213.01 208.77 196.639 228.921C184.867 243.418 173.205 257.795 161.665 272.051C148.929 287.786 136.624 305.264 124.739 324.479C119.918 332.273 115.647 340.11 111.926 347.991C104.854 362.951 100.36 378.703 98.4435 395.237C97.5927 402.507 97.3866 409.794 97.8163 417.107C99.2943 442.629 109.709 465.599 125.616 485.51C134.278 497.016 144.47 507.105 156.182 515.775C161.166 519.462 166.288 522.942 171.556 526.208C173.274 527.265 174.52 527.797 175.294 527.797C253.27 527.858 331.237 527.875 409.205 527.84L430.697 527.78L556.409 527.875C557.303 527.875 558.179 527.686 559.004 527.325C565.63 524.386 572.333 521.172 578.563 517.52C594.658 508.084 610.951 497.025 627.451 484.35C645.634 470.385 661.618 454.324 675.393 436.167C675.951 435.428 676.708 434.646 677.644 433.821C678.512 433.056 679.268 432.274 679.93 431.475C685.473 428.081 690.027 424.488 693.594 420.707C699.514 414.443 703.734 407.121 706.269 398.752C707.618 394.291 708.28 389.6 708.245 384.676C708.211 379.769 707.652 375.017 706.578 370.419L704.12 366.569C703.966 366.329 703.639 366.269 703.416 366.449C700.812 368.52 698.483 370.548 696.429 372.542C686.513 382.192 676.14 391.524 664.385 397.944C659.779 400.461 654.004 403.194 647.06 406.133L632.306 411.435C631.008 411.899 631.051 412.131 632.426 412.122C634.488 412.114 636.637 411.65 638.742 411.581C645.35 411.349 652.148 410.885 659.134 410.172C666.576 409.415 672.256 408.444 676.183 407.267C683.376 405.11 689.812 400.212 695.51 392.59C695.931 392.031 696.816 392.246 696.919 392.942C697.134 394.377 696.954 395.769 696.378 397.118C692.769 405.591 685.945 411.555 677.094 414.013C674.027 414.864 671.113 415.508 668.338 415.946C659.1 417.433 650.12 418.413 641.415 418.868C637.041 419.109 632.804 419.315 628.722 419.487C624.658 419.65 620.421 419.616 616.013 419.384C608.03 418.945 599.883 418.507 591.591 418.069L588.385 417.854C588.05 417.837 587.835 417.983 587.732 418.301L587.449 419.169C587.251 419.788 586.649 420.183 586.005 420.114C573.691 418.851 561.703 417.76 550.042 416.857C536.894 415.835 524.932 415.929 514.156 417.133C511.415 417.433 508.983 418.267 506.877 419.625C484.509 434.027 460.774 444.674 436.489 455.029C426.839 459.214 416.75 462.849 407.478 467.24C402.245 469.724 396.977 472.104 391.684 474.364C362.604 486.816 332.742 494.782 302.098 498.263C286.097 500.085 268.842 500.325 253.537 498.838C238.971 497.429 224.852 493.734 211.198 487.753C206.952 485.897 202.768 483.508 198.634 480.578C186.165 471.512 177.838 460.005 173.636 446.058C164.415 415.406 180.004 387.572 202.535 367.876L219.344 353.353C219.765 352.992 219.997 352.451 219.963 351.892C219.722 347.845 219.017 343.789 218.974 339.776C218.777 323.388 222.73 308.152 230.816 294.076C233.299 289.737 236.384 285.002 240.062 279.863C248.14 268.562 256.682 255.87 265.696 241.803C274.461 228.131 281.491 215.731 286.784 204.611C305.011 166.31 313.647 123.197 301.995 82.25C297.698 67.1601 290.402 53.11 280.099 40.0996C269.374 26.5393 257.747 16.6999 241.033 11.2689C233.909 8.94869 226.682 7.59083 219.352 7.18694C206.505 5.94086 194.311 7.83996 182.77 12.8756ZM164.818 114.277C162.326 108.623 157.986 103.054 154.188 98.3882C152.272 96.0336 149.47 95.9132 146.927 97.3227C142.2 99.9436 137.062 102.298 131.519 104.404C128.992 105.358 126.38 105.796 123.716 106.251C122.694 106.432 122.032 106.999 121.731 107.97C118.543 118.256 114.238 127.821 108.824 136.663C103.445 145.454 96.7073 151.942 89.1367 158.662C86.0173 161.429 84.6164 164.419 84.9174 167.633C85.012 168.63 85.837 169.403 86.8423 169.429C88.054 169.472 89.3944 169.446 90.5545 169.086C95.8995 167.41 100.772 165.305 105.172 162.761C110.8 159.512 116.902 156.024 123.476 152.303C125.667 151.065 128.004 150.017 130.488 149.166C141.994 145.222 152.401 138.287 161.794 130.321C163.538 128.851 164.947 127.27 166.021 125.586C167.938 122.604 166.133 117.276 164.818 114.277ZM363.264 254.357L351.027 261.894C350.95 261.945 350.916 262.014 350.941 262.109C350.967 262.203 351.019 262.255 351.096 262.272C351.191 262.298 351.294 262.289 351.388 262.255C352.841 261.73 354.319 261.284 355.831 260.914C364.51 258.774 373.284 257.219 382.144 256.231C413.063 253.266 442.676 257.46 470.991 268.82C477.753 271.527 485.969 275.154 495.645 279.691C507.736 285.517 519.741 291.524 531.677 297.711C539.969 302.008 547.927 305.436 556.838 306.562C568.843 308.075 580.581 308.186 591.959 303.598C592.947 303.194 593.824 302.558 594.589 301.681C599.925 295.597 613.374 279.321 599.006 274.518C596.883 273.615 595.508 273.083 594.881 272.902C576.465 267.617 558.17 261.55 540.536 254.022C534.229 251.333 527.93 248.634 521.64 245.919C520.436 245.403 519.345 244.965 518.366 244.596C505.742 239.878 492.895 236.32 479.833 233.923C469.925 232.101 458.504 231.147 445.554 231.061C416.973 230.872 388.03 240.11 363.264 254.357ZM262.267 319.83C254.129 326.335 247.048 333.863 241.016 342.405C240.199 343.565 239.262 344.63 238.214 345.584C229.913 353.164 221.827 360.116 213.955 366.449C207.862 371.347 203.454 375.18 200.73 377.947C181.575 397.359 171.547 422.907 181.902 449.151C185.7 458.793 191.208 466.751 199.32 472.671C212.666 483.121 227.911 489.454 244.668 491.645C253.888 492.857 263.392 493.476 273.18 493.502C291.424 493.545 308.74 491.946 325.127 488.707C341.618 485.441 357.876 480.801 373.903 474.786C373.972 474.759 373.997 474.708 373.972 474.631C373.946 474.528 373.877 474.485 373.774 474.511C360.205 477.553 346.413 480.259 331.95 480.715C322.97 480.999 314.652 479.761 306.995 476.994C305.448 476.435 305.491 476.264 307.115 476.487C309.384 476.797 311.979 476.908 314.892 476.814C339.761 476.015 364.081 470.962 388.666 464.319C401.969 460.718 414.618 456.551 426.606 451.816C445.941 444.176 465.13 435.592 484.173 426.061C485.866 425.211 485.788 424.996 483.941 425.417C463.274 430.126 442.022 434.234 420.195 437.748C418.296 438.058 416.371 438.316 414.421 438.522C399.717 441.203 387.025 442.346 373.868 440.859C368.214 440.215 362.353 438.591 356.278 435.97C356.123 435.91 356.012 435.798 355.943 435.652C355.805 435.377 356.02 435.05 356.329 435.076L365.241 435.678C387.91 435.257 410.364 432.962 432.604 428.794C451.57 425.245 470.672 421.25 489.062 416.961C500.036 414.409 511.027 411.479 522.052 408.17C531.935 405.205 541.069 401.854 549.448 398.099C567.666 389.944 585.42 381.814 602.701 373.711C603.698 373.238 603.646 373.023 602.546 373.066C579.387 373.866 556.443 373.565 533.679 372.551C520.548 371.958 507.512 371.253 494.579 370.437C480.28 369.535 463.677 367.876 444.781 365.461C439.702 364.808 434.589 364.198 429.441 363.622C418.786 361.8 408.319 359.162 398.033 355.716C397.062 355.398 396.4 355.123 396.03 354.9C394.458 353.963 394.587 353.542 396.417 353.62C398.746 353.723 401.436 353.86 404.486 354.032C407.021 354.333 409.556 354.556 412.091 354.702C415.047 354.866 417.574 355.098 419.671 355.415C437.983 358.191 454.998 360.443 470.698 362.161C498.403 365.186 529.915 367.12 565.225 367.953C579.378 368.288 592.268 367.833 603.886 366.57C609.3 365.985 614.774 364.035 616.286 358.303C617.67 353.044 616.708 348.051 613.39 343.324C605.407 339.844 597.364 336.544 589.269 333.442C582.643 330.907 568.774 324.436 547.677 314.038C535.724 308.152 523.341 301.887 510.545 295.245C489.346 284.254 466.281 274.552 442.778 267.84C430.833 264.652 419.731 262.813 409.462 262.323C390.213 261.396 369.975 263.87 348.741 269.748C336.272 273.194 323.898 278.436 311.609 285.474C293.89 295.631 277.082 306.639 262.267 319.83Z" fill="#010101"/>
<path d="M219.354 7.19053C222.748 7.85215 226.159 8.47101 229.588 9.05524C230.637 9.23581 231.642 9.51933 232.596 9.90603C235.131 10.9202 237.726 11.6334 240.184 12.8107C246.612 15.8871 252.515 19.4533 257.886 23.5009C269.728 32.4466 277.204 43.7984 282.197 57.7282C286.554 69.8964 290.026 82.5027 292.612 95.5475C298.593 125.744 295.087 158.434 281.862 186.328C274.901 201.014 265.68 216.456 254.2 232.646C245.46 244.977 237.4 255.745 230.01 264.931C219.569 277.916 208.449 290.952 198.713 305.002C193.264 312.873 188.512 321.75 186.931 331.246C184.817 343.981 189.354 356.571 198.944 365.258C199.314 365.594 199.924 366.015 200.766 366.522C201.428 366.926 202.021 367.373 202.536 367.879C180.005 387.576 164.416 415.409 173.637 446.062C177.839 460.009 186.166 471.515 198.635 480.581C198.386 481.037 197.793 480.977 196.839 480.401C196.332 480.1 195.808 479.902 195.249 479.799C148.261 471.446 117.445 433.137 115.744 385.96C115.632 382.806 115.537 379.884 115.46 377.212C115.443 376.567 115.237 376.499 114.833 377.005C114.764 377.083 114.644 377.143 114.48 377.177C114.523 376.67 114.609 376.18 114.747 375.717C117.213 367.458 119.911 360.163 122.85 353.821C132.363 333.274 143.517 313.02 156.313 293.074C168.644 273.842 180.847 257.429 194.484 239.572C207.306 222.763 221.339 206.101 232.364 187.763C237.769 178.757 241.903 168.814 244.747 157.944C246.457 151.439 247.076 145.269 246.612 139.442C247.651 133.779 248.21 128.666 248.287 124.12C248.305 123.072 248.244 120.924 248.115 117.676C248.021 115.312 247.78 113.173 247.394 111.265C246.99 109.246 246.594 107.2 246.225 105.138C246.156 104.76 246.302 104.494 246.655 104.347C253.65 101.443 260.352 98.2805 266.591 94.2503C266.823 94.1042 267.004 93.9152 267.133 93.6831C267.279 93.4253 267.098 93.0988 266.806 93.0902L263.309 92.9183C258.978 92.4456 254.707 92.1964 250.487 92.1535C233.696 91.9987 217.91 100.188 203.542 108.567C198.094 111.738 193.264 114.144 189.062 115.768C184.86 117.392 180.383 117.418 175.648 115.846C168.507 101.271 168.257 86.2844 174.9 70.8764C175.201 70.189 175.665 70.0428 176.301 70.4295C179.403 72.3458 180.976 73.7725 185.229 73.0074C192.061 71.77 194.519 64.9383 194.914 58.8713C194.94 58.4932 195.103 58.1839 195.395 57.9434C199.855 54.2911 202.674 50.0288 203.851 45.1651C204.186 43.7817 203.877 43.6183 202.94 44.6924C193.006 56.1131 181.207 64.0446 166.246 67.0436C164.708 67.3529 162.843 67.9374 161.563 68.8567C157.275 71.9245 153.786 73.8494 151.088 74.64C145.39 76.3072 138.722 76.204 131.082 74.3221C134.923 68.4786 138.627 62.8069 142.193 57.3159C145.115 52.8215 150.288 46.0673 157.704 37.0528C163.342 30.204 170.491 23.3464 179.162 16.4804C180.27 15.6038 181.568 14.7702 183.063 13.971C183.364 13.8079 183.424 13.5843 183.252 13.3008C183.158 13.1546 183.003 13.0087 182.771 12.8797C194.313 7.84378 206.506 5.94467 219.354 7.19053Z" fill="#E8E1D1"/>
<path d="M219.354 7.1875C226.685 7.5914 233.912 8.94926 241.035 11.2695C257.749 16.7004 269.376 26.5399 280.101 40.1001C290.404 53.1106 297.7 67.1607 301.997 82.2506C313.649 123.198 305.013 166.311 286.787 204.611C281.493 215.731 274.464 228.131 265.698 241.803C256.684 255.871 248.142 268.563 240.065 279.863C236.386 285.002 233.302 289.737 230.818 294.077C222.732 308.153 218.779 323.389 218.977 339.776C219.02 343.79 219.724 347.845 219.965 351.893C219.999 352.452 219.767 352.993 219.346 353.354L202.538 367.876C202.022 367.37 201.429 366.923 200.768 366.519C199.925 366.012 199.315 365.591 198.946 365.255C189.356 356.568 184.818 343.978 186.932 331.243C188.514 321.747 193.266 312.87 198.714 304.999C208.45 290.949 219.57 277.913 230.011 264.928C237.401 255.742 245.462 244.974 254.201 232.643C265.682 216.453 274.903 201.011 281.863 186.325C295.088 158.431 298.595 125.741 292.613 95.5445C290.027 82.4997 286.555 69.8934 282.198 57.7252C277.206 43.7954 269.729 32.4435 257.888 23.4979C252.517 19.4503 246.613 15.8843 240.185 12.8077C237.728 11.6304 235.132 10.9172 232.597 9.903C231.644 9.5163 230.638 9.23278 229.59 9.05222C226.161 8.46798 222.749 7.84935 219.354 7.1875Z" fill="#BEB8A5"/>
<path d="M182.771 12.875C183.003 13.004 183.158 13.1499 183.252 13.2961C183.424 13.5796 183.364 13.8032 183.063 13.9663C181.568 14.7655 180.27 15.5991 179.162 16.4757C170.491 23.3417 163.342 30.1993 157.704 37.0481C150.288 46.0626 145.115 52.8168 142.193 57.3112C138.627 62.8024 134.923 68.4739 131.082 74.3174C129.999 70.2013 130.102 66.1021 131.383 62.0116C132.998 56.8555 135.662 51.9832 139.366 47.3858C151.379 32.5021 165.146 20.3685 182.771 12.875Z" fill="#FDFDFC"/>
<path d="M263.309 92.9158C257.801 93.9899 252.249 95.6141 246.655 97.7968C235.346 102.214 225.103 106.82 215.917 111.606C203.456 118.103 192.07 122.615 179.739 126.619C179.404 126.731 179.043 126.524 178.983 126.172C178.338 122.606 177.221 119.168 175.648 115.843C180.383 117.415 184.86 117.389 189.063 115.765C193.265 114.141 198.094 111.735 203.543 108.564C217.911 100.186 233.697 91.996 250.488 92.1506C254.707 92.1938 258.978 92.4432 263.309 92.9158Z" fill="#BEB8A5"/>
<path d="M164.82 114.283C166.135 117.282 167.939 122.61 166.023 125.591C164.949 127.276 163.539 128.857 161.795 130.326C152.402 138.293 141.996 145.227 130.489 149.172C128.006 150.022 125.668 151.071 123.477 152.308C116.903 156.029 110.802 159.518 105.173 162.766C100.773 165.31 95.9011 167.415 90.5559 169.091C89.3958 169.452 88.0551 169.478 86.8437 169.435C85.8383 169.409 85.0133 168.636 84.9188 167.639C84.618 164.425 86.0187 161.434 89.138 158.667C96.7087 151.948 103.446 145.459 108.825 136.669C114.239 127.826 118.544 118.262 121.733 107.975C122.033 107.004 122.695 106.437 123.718 106.257C126.382 105.801 128.994 105.363 131.52 104.409C137.063 102.304 142.202 99.9493 146.928 97.3282C149.472 95.9188 152.273 96.0391 154.189 98.3937C157.988 103.059 162.328 108.628 164.82 114.283ZM127.92 112.194C129.089 116.886 127.482 121.08 125.394 125.419C124.741 126.768 123.838 129.974 125.712 130.816C129.725 132.621 132.268 129.089 134.167 126.279C137.493 121.363 139.186 115.829 139.246 109.668C139.255 108.963 138.645 108.413 137.948 108.499C135.362 108.8 132.767 109.024 130.18 109.187C128.203 109.307 127.447 110.312 127.92 112.194Z" fill="#E3755F"/>
<path d="M125.394 125.421C127.483 121.082 129.09 116.888 127.921 112.196C127.448 110.314 128.204 109.309 130.181 109.188C132.767 109.025 135.363 108.802 137.949 108.501C138.645 108.415 139.255 108.965 139.247 109.67C139.187 115.831 137.494 121.365 134.168 126.281C132.269 129.091 129.725 132.623 125.712 130.818C123.839 129.976 124.741 126.77 125.394 125.421Z" fill="#010101"/>
<path d="M246.609 139.445C247.073 145.272 246.454 151.442 244.744 157.947C241.9 168.817 237.766 178.76 232.361 187.766C221.336 206.104 207.303 222.766 194.481 239.575C180.844 257.432 168.641 273.845 156.31 293.077C143.514 313.023 132.36 333.277 122.847 353.824C119.908 360.166 117.21 367.461 114.744 375.72C114.606 376.184 114.521 376.674 114.478 377.18C111.479 389.392 109.94 401.852 109.863 414.561C109.648 414.518 109.45 414.415 109.278 414.269C109.167 414.175 109.064 414.175 108.969 414.287C108.909 414.355 108.866 414.441 108.849 414.544C108.789 415.017 108.763 415.017 108.789 414.536C108.806 414.106 108.72 413.513 108.531 412.749C108.393 412.182 107.981 411.709 107.431 411.494C106.932 411.296 106.417 411.485 105.893 412.061C105.652 412.319 105.291 412.422 104.956 412.327C104.535 412.216 104.2 412.302 103.942 412.602C103.804 412.757 103.641 412.878 103.461 412.963C102.825 413.238 102.223 413.582 101.656 414.003C101.08 414.424 100.436 414.682 99.7228 414.776C99.4392 414.811 99.2845 414.965 99.2501 415.24C98.9322 417.715 98.4595 418.343 97.8151 417.114C97.3854 409.801 97.5917 402.514 98.4423 395.244C100.359 378.71 104.853 362.958 111.925 347.998C115.646 340.117 119.917 332.28 124.738 324.486C136.623 305.271 148.928 287.792 161.663 272.058C173.204 257.802 184.865 243.425 196.638 228.928C213.009 208.777 226.354 188.565 236.666 168.285C240.8 160.164 244.108 150.548 246.609 139.445Z" fill="#FDFDFC"/>
<path d="M518.367 244.6C516.262 244.755 514.208 244.385 512.206 243.491C510.942 242.933 509.628 242.804 508.364 242.305C507.445 241.945 506.508 241.652 505.554 241.429C504.721 241.231 503.887 241.034 503.054 240.836C502.53 240.716 502.04 240.501 501.584 240.191C500.441 239.435 498.783 239.727 497.769 240.578C496.067 242.013 494.211 243.019 492.192 243.586C485.832 245.364 478.468 245.132 471.817 244.918C467.623 244.78 461.445 243.955 456.151 243.99C455.309 243.723 454.063 243.474 452.422 243.242C439.351 241.351 426.461 241.36 413.769 243.276C406.963 244.299 399.83 246.215 392.38 249.042C391.804 249.257 390.515 249.893 388.513 250.95C387.593 250.692 386.665 250.804 385.729 251.285C385.462 251.423 385.256 251.363 385.101 251.105C385.041 251.019 384.972 250.941 384.887 250.864C384.534 250.555 384.586 250.452 385.041 250.555C385.188 250.581 385.308 250.546 385.419 250.434C385.497 250.349 385.523 250.254 385.497 250.142C385.445 249.928 385.317 249.842 385.102 249.867C383.821 250.022 382.988 250.039 382.601 249.91C381.02 249.395 381.045 248.991 382.678 248.707C383.563 248.544 384.38 248.089 385.127 247.324C385.394 247.049 385.376 246.8 385.067 246.576C384.698 246.31 384.32 246.293 383.916 246.525C381.278 248.011 378.356 248.57 375.7 249.799C371.911 251.552 367.958 253.322 363.841 255.101C363.558 255.221 363.386 255.127 363.343 254.826L363.266 254.362C388.032 240.114 416.974 230.876 445.556 231.065C458.506 231.151 469.926 232.105 479.834 233.927C492.896 236.324 505.743 239.882 518.367 244.6Z" fill="#FDFDFC"/>
<path d="M518.368 244.594C519.348 244.963 520.439 245.401 521.642 245.917C527.932 248.633 534.231 251.331 540.539 254.021C558.173 261.548 576.468 267.615 594.883 272.9C595.511 273.081 596.886 273.613 599.008 274.516C599.352 276.054 599.713 277.549 600.082 279.01C600.503 280.652 600.237 282.448 599.266 284.415C595.055 292.923 584.829 295.432 575.651 295.037C565.21 294.581 554.58 292.364 543.761 288.403C525.509 281.709 507.584 273.562 489.984 263.981C482.843 259.546 475.513 254.854 467.994 249.913C465.27 248.117 461.325 246.141 456.152 243.984C461.446 243.949 467.625 244.774 471.818 244.912C478.469 245.127 485.834 245.359 492.193 243.58C494.212 243.013 496.069 242.007 497.77 240.572C498.784 239.722 500.443 239.429 501.586 240.186C502.041 240.495 502.531 240.71 503.055 240.83C503.889 241.028 504.722 241.225 505.556 241.423C506.509 241.646 507.446 241.939 508.366 242.3C509.629 242.798 510.944 242.927 512.207 243.486C514.209 244.379 516.263 244.748 518.368 244.594Z" fill="#E8E1D1"/>
<path d="M456.15 243.986C461.324 246.143 465.268 248.119 467.992 249.915C475.511 254.856 482.841 259.548 489.982 263.983C489.785 265.401 489.553 266.827 489.278 268.262C489.192 268.718 489.286 269.156 489.57 269.586C489.802 269.938 489.733 270.221 489.364 270.419C488.865 270.685 488.625 271.098 488.633 271.657C488.642 272.069 488.53 272.447 488.307 272.791L487.765 273.607C487.671 273.753 487.636 273.942 487.688 274.114C487.817 274.553 488.015 274.707 488.289 274.587C488.522 274.484 488.805 274.596 488.891 274.845C489.02 275.197 489.278 275.421 489.647 275.507C490 275.584 490.343 275.73 490.661 275.945C492.887 277.431 494.399 278.342 495.181 278.677C496.324 279.167 496.479 279.511 495.646 279.691C485.97 275.154 477.754 271.528 470.991 268.821C442.676 257.46 413.063 253.267 382.145 256.232C383.373 253.834 385.496 252.072 388.512 250.947C390.515 249.89 391.803 249.254 392.379 249.039C399.83 246.212 406.962 244.295 413.768 243.273C426.461 241.357 439.35 241.348 452.421 243.239C454.062 243.47 455.308 243.719 456.15 243.986Z" fill="#BEB8A5"/>
<path d="M388.512 250.947C385.496 252.073 383.373 253.835 382.145 256.232C373.285 257.22 364.511 258.776 355.832 260.915C354.319 261.285 352.841 261.732 351.389 262.256C351.294 262.29 351.191 262.299 351.097 262.273C351.019 262.256 350.968 262.204 350.942 262.11C350.916 262.015 350.951 261.947 351.028 261.895L363.265 254.359L363.342 254.823C363.385 255.123 363.557 255.218 363.841 255.098C367.957 253.319 371.91 251.548 375.7 249.796C378.355 248.567 381.277 248.008 383.915 246.521C384.319 246.289 384.697 246.306 385.067 246.573C385.376 246.796 385.393 247.046 385.127 247.321C384.379 248.085 383.563 248.541 382.678 248.704C381.045 248.988 381.019 249.391 382.6 249.907C382.987 250.036 383.821 250.019 385.101 249.864C385.316 249.838 385.445 249.924 385.496 250.139C385.522 250.251 385.496 250.345 385.419 250.431C385.307 250.543 385.187 250.577 385.041 250.552C384.585 250.448 384.534 250.552 384.886 250.861C384.972 250.938 385.041 251.016 385.101 251.101C385.256 251.359 385.462 251.419 385.728 251.282C386.665 250.801 387.593 250.69 388.512 250.947Z" fill="#E8E1D1"/>
<path d="M442.782 267.84C442.704 267.934 442.67 268.02 442.661 268.089C442.653 268.269 442.739 268.346 442.919 268.321C443.014 268.304 443.108 268.312 443.211 268.347C443.409 268.424 443.409 268.493 443.211 268.57C442.309 268.905 441.656 268.991 441.252 268.828C439.765 268.218 438.287 267.779 436.809 267.513C424.082 265.27 411.124 264.222 397.933 264.351C387.157 264.462 376.87 265.983 367.083 268.914C353.462 272.987 339.807 278.951 326.101 286.797C318.582 291.111 311.063 295.442 303.552 299.781C296.256 304.001 288.239 307.017 279.499 308.83C276.672 309.415 274.214 310.678 272.109 312.628C271.086 313.582 269.978 314.51 268.783 315.413C268.74 315.438 267.769 316.289 265.853 317.956C264.736 318.927 263.541 319.546 262.27 319.829C277.084 306.639 293.893 295.631 311.612 285.473C323.901 278.435 336.275 273.193 348.744 269.747C369.978 263.869 390.216 261.395 409.465 262.323C419.734 262.812 430.837 264.652 442.782 267.84Z" fill="#FDFDFC"/>
<path d="M489.986 263.992C507.586 273.574 525.511 281.72 543.764 288.414C554.582 292.376 565.213 294.593 575.653 295.048C584.831 295.444 595.057 292.934 599.268 284.427C600.239 282.459 600.505 280.663 600.084 279.022C599.715 277.561 599.354 276.066 599.01 274.527C613.378 279.331 599.929 295.607 594.593 301.691C593.828 302.567 592.952 303.203 591.964 303.607C580.586 308.196 568.847 308.084 556.842 306.572C547.931 305.446 539.974 302.017 531.681 297.721C519.745 291.534 507.74 285.527 495.649 279.7C496.483 279.52 496.328 279.176 495.185 278.687C494.403 278.351 492.891 277.44 490.665 275.954C490.347 275.739 490.004 275.593 489.651 275.516C489.282 275.43 489.024 275.206 488.895 274.854C488.809 274.605 488.526 274.493 488.293 274.596C488.018 274.716 487.821 274.562 487.692 274.123C487.64 273.951 487.675 273.762 487.769 273.616L488.311 272.8C488.534 272.456 488.646 272.078 488.637 271.666C488.629 271.107 488.869 270.695 489.368 270.428C489.737 270.231 489.806 269.947 489.574 269.595C489.29 269.165 489.196 268.727 489.282 268.271C489.557 266.837 489.789 265.41 489.986 263.992Z" fill="#A69D92"/>
<path d="M442.783 267.844C466.286 274.555 489.351 284.257 510.551 295.248C523.346 301.891 535.729 308.155 547.682 314.041C568.779 324.44 582.649 330.91 589.274 333.445C597.369 336.547 605.413 339.847 613.396 343.328C608.996 349.008 603.324 351.93 596.372 352.11C589.481 352.29 583.654 352.144 578.885 351.68C564.8 350.314 549.461 347.504 532.868 343.242C513.919 338.369 496.621 332.998 480.964 327.112C476.298 325.359 472.371 322.747 468.237 320.237C456.49 313.122 443.858 309.186 430.341 308.438C415.732 307.622 402.782 307.536 389.239 310.596C387.425 310.999 385.732 311.609 384.169 312.426C383.894 312.563 383.842 312.942 384.074 313.148C384.272 313.311 384.504 313.414 384.77 313.457C389.617 314.179 394.773 314.866 400.23 315.528C403.005 315.863 404.93 316.516 405.987 317.487L400.264 318.406C399.929 318.458 399.817 318.879 400.066 319.094C400.436 319.412 400.917 319.592 401.518 319.618C404.835 319.799 408.135 320.091 411.427 320.478C410.971 320.331 410.636 320.306 410.404 320.392C410.103 320.503 410.103 320.623 410.387 320.761C424.119 327.249 437.894 332.207 451.703 335.636C459.085 337.466 466.398 339.099 473.625 340.517C474.983 340.783 475.533 341.591 475.275 342.94C474.347 347.727 468.186 350.15 463.872 351.113C451.489 353.88 438.599 354.198 425.88 354.292C424.652 354.301 423.423 353.974 422.142 353.949C416.265 353.811 410.378 353.837 404.492 354.035C401.441 353.863 398.751 353.725 396.423 353.622C394.592 353.545 394.463 353.966 396.036 354.903C396.405 355.126 397.067 355.401 398.038 355.719C408.324 359.165 418.791 361.803 429.447 363.625C436.493 365.954 443.376 368.609 450.105 371.574C453.826 373.215 456.877 375.089 459.257 377.177C462.729 380.21 461.491 385.409 456.894 386.578C451.746 387.884 446.659 388.803 441.649 389.328C420.69 391.527 399.447 391.399 378.634 388.7C373.263 388.004 368.107 386.793 363.175 385.074C362.883 384.971 362.582 385.22 362.625 385.529C362.839 387.059 363.321 388.468 364.068 389.766C367.085 394.965 371.364 398.411 376.89 400.121C386.248 403.352 395.752 405.354 405.402 406.128C404.74 406.007 404.148 406.024 403.632 406.179C403.28 406.282 403.288 406.368 403.649 406.429C413.944 408.087 420.544 409.092 423.457 409.453C434.946 410.88 446.573 411.378 458.32 410.94C458.887 410.923 459.223 411.567 458.887 412.023C456.137 415.726 449.907 418.133 445.481 419.619C435.427 422.996 425.571 425.033 415.92 425.729C405.084 426.511 393.878 426.425 382.295 425.463C367.875 424.26 355.406 420.986 344.415 410.949C343.719 410.313 343.521 410.442 343.831 411.335C345.609 416.431 347.749 422.112 351.419 426.064C355.552 430.507 360.364 433.498 365.856 435.019C366.156 435.096 366.165 435.207 365.89 435.354L365.246 435.68L356.334 435.079C356.025 435.053 355.81 435.379 355.948 435.654C356.016 435.801 356.128 435.912 356.283 435.973C362.358 438.593 368.219 440.218 373.873 440.862C387.03 442.349 399.722 441.206 414.425 438.525C415.01 438.482 415.414 438.542 415.637 438.714C415.843 438.877 415.852 439.049 415.671 439.246C410.971 444.299 405.729 447.986 399.937 450.315C383.3 456.992 365.684 461.039 347.088 462.457C332.935 463.54 319.202 463.755 305.513 460.223C298.922 458.521 293.294 455.703 288.61 451.776C288.498 451.681 288.335 451.767 288.335 451.905C288.559 460.352 292.09 467.88 298.415 473.44C298.75 473.732 298.699 473.912 298.26 473.972C293.818 474.582 285.104 476.138 272.128 478.638C259.075 481.156 244.466 481.99 228.31 481.122C225.243 480.959 222.269 480.589 219.373 480.013C216.134 479.369 213.255 478.63 210.72 477.788C207.523 476.722 203.725 475.02 199.325 472.674C191.213 466.754 185.705 458.796 181.906 449.154C171.551 422.91 181.58 397.362 200.734 377.95C203.459 375.183 207.867 371.35 213.96 366.452C221.831 360.119 229.917 353.167 238.219 345.587C239.267 344.634 240.204 343.568 241.02 342.408C247.053 333.866 254.134 326.338 262.271 319.833C263.543 319.55 264.738 318.931 265.855 317.96C267.771 316.293 268.742 315.442 268.785 315.416C269.98 314.514 271.088 313.586 272.111 312.632C274.216 310.681 276.674 309.418 279.501 308.834C288.241 307.021 296.258 304.004 303.554 299.785C311.065 295.445 318.584 291.114 326.103 286.8C339.809 278.955 353.464 272.991 367.085 268.918C376.872 265.987 387.158 264.466 397.935 264.354C411.125 264.225 424.084 265.274 436.811 267.517C438.289 267.783 439.767 268.221 441.254 268.831C441.658 268.995 442.311 268.909 443.213 268.574C443.411 268.496 443.411 268.427 443.213 268.35C443.11 268.316 443.015 268.307 442.921 268.325C442.74 268.35 442.655 268.273 442.663 268.092C442.672 268.024 442.706 267.938 442.783 267.844Z" fill="#E8E1D1"/>
<path d="M302.866 282.328L275.84 300.219C283.978 292.975 292.992 287.012 302.866 282.328Z" fill="#FDFDFC"/>
<path d="M613.394 343.327C616.711 348.053 617.674 353.046 616.29 358.305C614.778 364.037 609.304 365.988 603.89 366.572C592.272 367.835 579.382 368.291 565.229 367.956C529.918 367.122 498.407 365.189 470.702 362.164C455.002 360.445 437.987 358.194 419.675 355.418C417.578 355.1 415.051 354.868 412.095 354.705C409.56 354.559 407.025 354.335 404.49 354.035C410.377 353.837 416.263 353.811 422.141 353.949C423.421 353.974 424.65 354.301 425.879 354.292C438.597 354.198 451.487 353.88 463.87 351.113C468.184 350.15 474.346 347.727 475.274 342.94C475.531 341.591 474.981 340.783 473.624 340.517C466.397 339.099 459.084 337.467 451.702 335.636C437.893 332.207 424.117 327.249 410.385 320.761C410.102 320.623 410.102 320.503 410.402 320.392C410.634 320.306 410.97 320.331 411.425 320.478C434.808 322.059 457.924 325.367 480.773 330.403C481.074 330.471 481.238 330.463 481.272 330.377C481.401 330.033 481.263 329.647 480.945 329.432C478.41 327.808 475.626 326.45 472.601 325.341C454.598 318.759 435.229 316.988 415.696 317.109C411.253 317.135 408.022 317.263 405.986 317.487C404.928 316.516 403.004 315.863 400.228 315.528C394.771 314.866 389.615 314.179 384.769 313.457C384.502 313.414 384.27 313.311 384.073 313.147C383.841 312.941 383.892 312.563 384.167 312.426C385.731 311.609 387.424 310.999 389.237 310.595C402.78 307.536 415.73 307.622 430.339 308.438C443.857 309.186 456.489 313.122 468.236 320.237C472.369 322.746 476.296 325.359 480.962 327.112C496.62 332.998 513.918 338.369 532.866 343.241C549.46 347.504 564.799 350.314 578.883 351.68C583.653 352.144 589.479 352.29 596.371 352.11C603.323 351.929 608.994 349.007 613.394 343.327Z" fill="#A69D92"/>
<path d="M411.425 320.476C408.134 320.089 404.834 319.797 401.517 319.616C400.916 319.591 400.435 319.41 400.065 319.092C399.816 318.877 399.927 318.456 400.263 318.405L405.986 317.485C408.023 317.262 411.254 317.133 415.696 317.107C435.229 316.987 454.599 318.757 472.602 325.34C475.626 326.448 478.411 327.806 480.946 329.43C481.264 329.645 481.401 330.032 481.272 330.375C481.238 330.461 481.075 330.47 480.774 330.401C457.924 325.365 434.808 322.057 411.425 320.476Z" fill="#010101"/>
<path d="M429.445 363.633C434.592 364.208 439.705 364.819 444.784 365.472C463.681 367.886 480.283 369.545 494.582 370.447C507.515 371.264 520.552 371.968 533.682 372.561C556.446 373.575 579.39 373.876 602.549 373.077C603.649 373.034 603.701 373.249 602.704 373.721C585.423 381.825 567.669 389.954 549.451 398.109C541.073 401.864 531.938 405.216 522.055 408.181C511.03 411.489 500.039 414.419 489.066 416.972C470.676 421.26 451.573 425.256 432.607 428.805C410.368 432.973 387.913 435.267 365.244 435.688L365.889 435.361C366.164 435.215 366.155 435.104 365.854 435.026C360.363 433.505 355.551 430.515 351.417 426.072C347.748 422.119 345.608 416.439 343.829 411.343C343.52 410.449 343.718 410.32 344.414 410.956C355.404 420.993 367.873 424.267 382.293 425.471C393.877 426.433 405.083 426.519 415.919 425.737C425.569 425.041 435.426 423.004 445.48 419.627C449.906 418.14 456.136 415.734 458.886 412.03C459.221 411.575 458.886 410.93 458.319 410.948C446.572 411.386 434.945 410.888 423.455 409.461C420.542 409.1 413.943 408.095 403.648 406.436C403.287 406.376 403.278 406.29 403.631 406.187C404.146 406.032 404.739 406.015 405.401 406.135C416.736 406.797 427.967 406.17 439.095 404.245C453.773 401.71 465.915 395.041 475.531 384.257C475.806 383.948 475.858 383.612 475.677 383.251C475.583 383.054 475.333 382.994 475.153 383.122C464.429 390.934 451.513 395.334 438.674 397.241C421.96 399.725 404.859 400.79 387.38 400.447C387.071 400.438 385.326 400.335 382.147 400.129C380.411 400.017 378.658 400.017 376.888 400.129C371.362 398.419 367.083 394.973 364.067 389.774C363.319 388.476 362.838 387.067 362.623 385.537C362.58 385.228 362.881 384.979 363.173 385.082C368.106 386.801 373.262 388.012 378.632 388.708C399.446 391.407 420.688 391.535 441.648 389.336C446.658 388.811 451.745 387.892 456.892 386.586C461.49 385.417 462.727 380.218 459.255 377.185C456.875 375.096 453.824 373.223 450.103 371.582C443.375 368.617 436.491 365.961 429.445 363.633Z" fill="#A69D92"/>
<path d="M706.579 370.426L704.697 370.968C704.25 371.097 703.846 371.355 703.546 371.716C698.871 377.224 693.827 382.457 688.413 387.407C682.286 393.01 675.42 397.625 667.815 401.251C664.987 402.6 661.945 403.433 658.68 403.769C656.145 404.027 653.936 404.594 652.037 405.479C650.619 406.141 649.098 406.63 647.474 406.957C647.147 407.026 647.01 406.897 647.061 406.562C647.087 406.399 647.087 406.261 647.061 406.141C654.005 403.202 659.78 400.469 664.386 397.951C676.141 391.532 686.513 382.199 696.43 372.549C698.484 370.555 700.813 368.527 703.417 366.457C703.64 366.276 703.966 366.336 704.121 366.577L706.579 370.426Z" fill="#FDFDFC"/>
<path d="M706.577 370.43C707.651 375.027 708.209 379.779 708.244 384.686C708.278 389.61 707.617 394.302 706.267 398.762C703.732 407.132 699.513 414.453 693.592 420.718C690.026 424.499 685.471 428.091 679.928 431.485C683.787 428.108 687.637 424.808 691.487 421.577C692.75 420.52 693.532 419.231 694.709 418.088C696.531 416.327 697.665 414.135 698.903 412.09C700.037 410.234 698.714 407.974 698.508 405.954C698.258 403.471 697.932 400.979 697.519 398.478C697.399 397.782 697.167 397.739 696.823 398.349C695.801 400.145 694.993 401.984 694.383 403.849C691.143 413.86 684.518 423.184 676.887 429.999C655.747 448.887 631.127 464.071 604.522 474.237C590.755 479.505 576.559 484.257 561.925 488.494C543.63 493.796 524.999 499.124 506.016 504.477C500.766 505.964 495.275 507.614 489.56 509.444C474.161 514.359 458.366 519.335 442.185 524.362C439.109 525.316 434.477 526.407 430.696 527.791L409.204 527.851C409.195 527.524 409.264 527.198 409.393 526.871C409.496 526.605 409.694 526.459 409.977 526.442C412.048 526.304 414.351 525.737 416.886 524.732C422.721 522.429 428.384 520.186 433.858 517.994C459.836 507.614 484.086 494.303 506.687 478.156C518.597 469.64 530.894 461.141 543.587 452.676C544.79 451.877 545.967 451.035 547.119 450.167C548.021 449.48 547.926 449.291 546.844 449.608C519.792 457.377 491.339 459.379 463.222 457.11C453.984 456.363 447.247 456.028 439.444 455.675C439.006 455.658 438.499 455.693 437.94 455.787C436.393 456.036 435.912 455.787 436.488 455.039C460.773 444.685 484.507 434.037 506.876 419.635C508.981 418.277 511.413 417.444 514.154 417.143C524.93 415.94 536.893 415.845 550.04 416.868C561.702 417.77 573.689 418.861 586.004 420.124C586.648 420.193 587.25 419.798 587.447 419.179L587.731 418.311C587.834 417.993 588.049 417.847 588.384 417.864L591.589 418.079C595.095 420.133 599.16 422.006 603.783 423.699C613.631 427.291 624.382 427.961 633.886 423.338C636.387 422.127 638.896 420.64 641.414 418.878C650.119 418.423 659.099 417.443 668.337 415.957C671.112 415.518 674.025 414.874 677.094 414.023C685.945 411.565 692.768 405.602 696.377 397.128C696.953 395.779 697.133 394.387 696.918 392.952C696.815 392.256 695.93 392.041 695.509 392.6C689.812 400.222 683.375 405.12 676.183 407.277C672.255 408.454 666.575 409.425 659.133 410.182C652.147 410.895 645.35 411.359 638.741 411.591C636.636 411.66 634.488 412.124 632.425 412.133C631.05 412.141 631.007 411.909 632.305 411.445L647.06 406.143C647.085 406.263 647.085 406.401 647.06 406.564C647.008 406.899 647.146 407.028 647.472 406.959C649.096 406.633 650.617 406.143 652.035 405.481C653.934 404.596 656.143 404.029 658.678 403.771C661.943 403.436 664.985 402.603 667.813 401.253C675.418 397.627 682.284 393.013 688.411 387.41C693.825 382.46 698.869 377.226 703.544 371.718C703.845 371.357 704.248 371.099 704.695 370.97L706.577 370.43Z" fill="#E8E1D1"/>
<path d="M198.633 480.583C202.767 483.513 206.952 485.902 211.197 487.758C224.852 493.739 238.971 497.434 253.536 498.844C268.841 500.33 286.097 500.09 302.097 498.268C332.741 494.787 362.603 486.821 391.683 474.37C396.976 472.11 402.244 469.729 407.477 467.246C416.75 462.855 426.838 459.219 436.489 455.034C435.913 455.782 436.394 456.031 437.941 455.782C438.499 455.687 439.006 455.653 439.445 455.67C447.247 456.023 453.985 456.358 463.222 457.105C491.34 459.374 519.793 457.372 546.844 449.603C547.927 449.285 548.022 449.474 547.119 450.162C545.968 451.03 544.79 451.872 543.587 452.671C530.895 461.136 518.598 469.635 506.688 478.151C484.087 494.298 459.837 507.608 433.859 517.989C428.385 520.181 422.722 522.423 416.887 524.727C414.352 525.732 412.049 526.299 409.978 526.437C409.694 526.454 409.497 526.6 409.393 526.866C409.265 527.193 409.196 527.519 409.205 527.846C331.237 527.88 253.27 527.863 175.293 527.803C174.52 527.803 173.274 527.27 171.555 526.213C166.288 522.947 161.166 519.467 156.182 515.781C144.469 507.11 134.277 497.021 125.615 485.515C123.905 482.473 122.247 479.525 120.648 476.664C119.729 475.023 118.741 472.651 117.684 469.549C113.808 458.18 111.54 447.163 110.878 436.481C110.182 425.302 109.847 417.988 109.864 414.56C109.941 401.85 111.479 389.39 114.479 377.179C114.642 377.144 114.762 377.084 114.831 377.007C115.235 376.5 115.441 376.568 115.458 377.213C115.535 379.886 115.63 382.807 115.742 385.961C117.443 433.139 148.259 471.448 195.247 479.801C195.806 479.904 196.33 480.101 196.837 480.402C197.791 480.978 198.384 481.038 198.633 480.583Z" fill="#BEB8A5"/>
<path d="M405.399 406.128C395.749 405.355 386.245 403.353 376.887 400.121C378.657 400.01 380.41 400.01 382.146 400.121C385.326 400.328 387.07 400.431 387.379 400.439C404.858 400.783 421.959 399.718 438.673 397.234C451.512 395.326 464.427 390.926 475.152 383.115C475.332 382.986 475.581 383.046 475.676 383.244C475.857 383.605 475.805 383.94 475.53 384.25C465.914 395.034 453.772 401.703 439.094 404.237C427.966 406.162 416.734 406.79 405.399 406.128Z" fill="#010101"/>
<path d="M679.932 431.478C679.271 432.277 678.515 433.059 677.647 433.824C676.71 434.649 675.954 435.431 675.395 436.17C661.62 454.328 645.636 470.388 627.453 484.352C610.954 497.028 594.661 508.087 578.565 517.523C572.335 521.175 565.632 524.389 559.007 527.328C558.182 527.689 557.305 527.878 556.411 527.878L430.699 527.783C434.48 526.4 439.112 525.308 442.188 524.354C458.37 519.327 474.164 514.352 489.564 509.436C495.278 507.606 500.769 505.956 506.02 504.47C525.002 499.116 543.633 493.788 561.928 488.486C576.563 484.249 590.759 479.497 604.525 474.229C631.13 464.064 655.75 448.879 676.89 429.991C684.521 423.177 691.146 413.853 694.386 403.841C694.996 401.977 695.804 400.138 696.827 398.342C697.17 397.731 697.403 397.774 697.523 398.471C697.935 400.971 698.262 403.463 698.511 405.947C698.717 407.966 700.04 410.226 698.906 412.082C697.669 414.128 696.534 416.319 694.713 418.081C693.535 419.224 692.753 420.513 691.49 421.57C687.641 424.801 683.791 428.1 679.932 431.478Z" fill="#BEB8A5"/>
<path d="M109.864 414.557C109.847 417.986 110.182 425.299 110.878 436.479C111.54 447.161 113.809 458.177 117.684 469.546C118.741 472.648 119.73 475.02 120.649 476.662C122.247 479.523 123.906 482.471 125.616 485.513C109.71 465.602 99.2946 442.632 97.8164 417.11C98.4608 418.339 98.9335 417.711 99.2514 415.236C99.2858 414.961 99.4406 414.807 99.7241 414.772C100.437 414.678 101.082 414.42 101.658 413.999C102.225 413.578 102.826 413.234 103.462 412.959C103.642 412.873 103.806 412.753 103.943 412.598C104.201 412.298 104.536 412.212 104.957 412.323C105.292 412.418 105.653 412.315 105.894 412.057C106.418 411.481 106.934 411.292 107.432 411.49C107.982 411.704 108.395 412.177 108.532 412.744C108.721 413.509 108.807 414.102 108.79 414.532C108.764 415.013 108.79 415.013 108.85 414.54C108.867 414.437 108.91 414.351 108.97 414.282C109.065 414.171 109.168 414.171 109.28 414.265C109.452 414.411 109.65 414.514 109.864 414.557Z" fill="#E8E1D1"/>
<path d="M591.594 418.078C599.886 418.516 608.033 418.955 616.016 419.393C620.424 419.625 624.661 419.659 628.725 419.496C632.807 419.324 637.044 419.118 641.418 418.877C638.9 420.639 636.391 422.125 633.89 423.337C624.386 427.96 613.635 427.29 603.787 423.698C599.164 422.005 595.1 420.132 591.594 418.078Z" fill="#FDFDFC"/>
<path d="M199.32 472.675C203.72 475.021 207.518 476.722 210.715 477.788C213.25 478.63 216.129 479.369 219.369 480.014C222.265 480.589 225.238 480.959 228.306 481.122C244.461 481.99 259.07 481.157 272.123 478.639C285.099 476.138 293.813 474.582 298.256 473.972C298.694 473.912 298.746 473.732 298.411 473.44C292.086 467.88 288.554 460.352 288.331 451.905C288.331 451.767 288.494 451.681 288.605 451.776C293.289 455.703 298.918 458.522 305.509 460.223C319.198 463.755 332.93 463.54 347.083 462.457C365.679 461.039 383.296 456.992 399.932 450.315C405.724 447.986 410.966 444.3 415.667 439.247C415.847 439.049 415.839 438.877 415.632 438.714C415.409 438.542 415.005 438.482 414.421 438.525C416.371 438.319 418.296 438.061 420.195 437.751C442.023 434.237 463.274 430.129 483.941 425.42C485.788 424.999 485.866 425.214 484.173 426.064C465.13 435.595 445.941 444.179 426.606 451.819C414.618 456.554 401.969 460.721 388.666 464.322C364.081 470.965 339.762 476.018 314.892 476.817C311.979 476.911 309.384 476.8 307.115 476.49C305.491 476.267 305.448 476.439 306.995 476.997C314.652 479.764 322.97 481.002 331.95 480.718C346.413 480.263 360.205 477.556 373.774 474.514C373.877 474.488 373.946 474.531 373.972 474.634C373.998 474.711 373.972 474.763 373.903 474.789C357.876 480.804 341.618 485.444 325.127 488.71C308.74 491.949 291.424 493.548 273.181 493.505C263.393 493.479 253.889 492.86 244.668 491.649C227.91 489.458 212.666 483.124 199.32 472.675Z" fill="#A69D92"/>
</svg>
