<svg width="513" height="644" viewBox="0 0 513 644" fill="none" xmlns="http://www.w3.org/2000/svg">
<path d="M438.399 142.336C414.284 100.611 386.361 65.8442 357.643 41.7998C324.514 14.0604 290.368 0 256.151 0C221.935 0 187.789 14.0604 154.659 41.7998C125.941 65.8442 98.0178 100.611 73.9029 142.336C29.0104 220.023 0 316.394 0 387.854C0 422.428 6.77366 455.976 20.1327 487.557C33.0351 518.064 51.5014 545.455 75.0232 568.977C98.5497 592.499 125.941 610.97 156.443 623.867C188.029 637.226 221.572 644 256.151 644C290.73 644 324.274 637.226 355.859 623.867C386.361 610.97 413.753 592.499 437.279 568.977C460.801 545.455 479.267 518.064 492.17 487.557C505.529 455.976 512.302 422.428 512.302 387.854C512.302 316.394 483.292 220.023 438.399 142.336ZM256.151 629.878C254.906 629.878 253.663 629.866 252.422 629.847C252.052 629.841 251.682 629.833 251.312 629.826C250.4 629.808 249.49 629.785 248.581 629.757C248.207 629.746 247.832 629.734 247.457 629.721C246.297 629.68 245.137 629.632 243.98 629.575C243.905 629.571 243.83 629.569 243.755 629.565C242.527 629.503 241.303 629.428 240.08 629.348C239.718 629.324 239.357 629.297 238.996 629.272C238.098 629.209 237.2 629.141 236.304 629.068C235.928 629.037 235.551 629.007 235.175 628.975C234.09 628.881 233.007 628.781 231.926 628.673C231.789 628.659 231.653 628.648 231.516 628.634C230.309 628.511 229.106 628.378 227.904 628.237C227.55 628.196 227.197 628.152 226.843 628.109C225.961 628.002 225.08 627.89 224.202 627.774C223.821 627.724 223.44 627.673 223.06 627.621C222.041 627.481 221.024 627.335 220.009 627.183C219.824 627.155 219.637 627.129 219.452 627.101C218.268 626.92 217.088 626.729 215.909 626.531C215.562 626.472 215.216 626.411 214.87 626.351C214.006 626.202 213.144 626.049 212.283 625.891C211.898 625.82 211.512 625.749 211.127 625.676C210.17 625.496 209.215 625.309 208.263 625.117C208.034 625.071 207.804 625.027 207.576 624.981C206.418 624.744 205.263 624.497 204.111 624.244C203.77 624.169 203.43 624.091 203.089 624.014C202.244 623.825 201.402 623.631 200.561 623.433C200.171 623.341 199.783 623.249 199.394 623.155C198.492 622.938 197.591 622.714 196.693 622.486C196.43 622.42 196.167 622.356 195.905 622.288C194.774 621.997 193.646 621.698 192.522 621.391C192.186 621.3 191.852 621.204 191.517 621.112C190.693 620.883 189.871 620.651 189.051 620.414C188.659 620.301 188.268 620.187 187.878 620.072C187.025 619.821 186.175 619.565 185.326 619.305C185.035 619.216 184.743 619.129 184.453 619.039C183.35 618.696 182.251 618.345 181.155 617.987C180.828 617.88 180.502 617.77 180.175 617.661C179.372 617.395 178.57 617.125 177.77 616.851C177.377 616.716 176.984 616.58 176.591 616.443C175.785 616.162 174.982 615.875 174.18 615.586C173.866 615.473 173.55 615.361 173.237 615.246C172.164 614.854 171.095 614.454 170.029 614.048C169.71 613.926 169.393 613.8 169.075 613.677C168.292 613.374 167.511 613.068 166.731 612.757C166.337 612.6 165.944 612.442 165.551 612.283C164.788 611.974 164.028 611.66 163.268 611.343C162.937 611.205 162.604 611.068 162.273 610.929C161.232 610.489 160.194 610.042 159.16 609.589C158.849 609.452 158.541 609.312 158.23 609.174C157.468 608.836 156.707 608.494 155.949 608.148C155.557 607.969 155.166 607.789 154.775 607.608C154.05 607.272 153.327 606.932 152.606 606.589C152.263 606.426 151.919 606.265 151.577 606.1C150.567 605.614 149.561 605.122 148.559 604.623C148.259 604.474 147.961 604.321 147.662 604.17C146.919 603.796 146.178 603.419 145.44 603.038C145.05 602.837 144.662 602.634 144.273 602.431C143.587 602.072 142.903 601.708 142.22 601.342C141.866 601.153 141.512 600.965 141.159 600.773C140.182 600.244 139.208 599.708 138.239 599.165C137.956 599.007 137.676 598.845 137.394 598.686C136.666 598.274 135.939 597.86 135.215 597.441C134.832 597.218 134.451 596.995 134.069 596.771C133.414 596.387 132.761 595.999 132.11 595.609C131.754 595.396 131.398 595.184 131.043 594.969C130.098 594.396 129.156 593.818 128.22 593.233C127.956 593.068 127.696 592.9 127.433 592.735C126.718 592.284 126.005 591.831 125.295 591.373C124.92 591.13 124.546 590.886 124.172 590.642C123.549 590.235 122.927 589.825 122.308 589.412C121.951 589.174 121.594 588.938 121.238 588.698C120.327 588.084 119.418 587.465 118.516 586.839C118.276 586.673 118.039 586.503 117.8 586.336C117.095 585.843 116.392 585.348 115.693 584.848C115.328 584.587 114.964 584.323 114.6 584.06C114.004 583.629 113.411 583.195 112.819 582.758C112.468 582.5 112.116 582.242 111.767 581.981C110.959 581.379 110.154 580.772 109.354 580.159C109.075 579.945 108.796 579.729 108.518 579.514C107.816 578.972 107.116 578.427 106.421 577.877C106.071 577.601 105.723 577.323 105.376 577.045C104.803 576.588 104.232 576.128 103.663 575.665C103.321 575.387 102.978 575.109 102.637 574.829C101.907 574.228 101.18 573.622 100.456 573.013C100.176 572.777 99.8955 572.54 99.6159 572.302C98.907 571.699 98.2009 571.093 97.4991 570.483C97.1653 570.192 96.8335 569.899 96.5012 569.608C95.9514 569.124 95.4039 568.638 94.8588 568.15C94.5279 567.854 94.197 567.558 93.8675 567.26C93.1995 566.655 92.5358 566.046 91.8745 565.434C91.617 565.196 91.3595 564.958 91.103 564.719C90.3771 564.041 89.656 563.359 88.9391 562.673C88.6256 562.373 88.3139 562.07 88.0018 561.769C87.4723 561.256 86.9451 560.742 86.4202 560.225C86.1034 559.913 85.7862 559.601 85.4713 559.287C84.8532 558.672 84.2389 558.053 83.6275 557.43C83.4269 557.227 83.225 557.025 83.0254 556.82C82.2657 556.042 81.5121 555.257 80.7627 554.469C80.4689 554.16 80.1776 553.848 79.8857 553.538C79.3759 552.996 78.869 552.452 78.3643 551.905C78.065 551.581 77.7656 551.257 77.4681 550.931C76.8915 550.299 76.3186 549.664 75.7486 549.027C75.5513 548.806 75.3522 548.588 75.1559 548.367C74.4244 547.544 73.7 546.714 72.9798 545.88C72.7106 545.568 72.4437 545.254 72.1758 544.94C71.6834 544.364 71.193 543.787 70.7058 543.206C70.4257 542.872 70.1456 542.538 69.8674 542.203C69.327 541.552 68.7904 540.897 68.2566 540.24C68.0627 540.002 67.8669 539.765 67.6743 539.526C66.9786 538.663 66.2899 537.795 65.606 536.923C65.3631 536.613 65.123 536.301 64.8815 535.99C64.4056 535.377 63.9321 534.762 63.4619 534.144C63.203 533.804 62.9441 533.463 62.6866 533.121C62.1782 532.446 61.6741 531.767 61.1728 531.087C60.9873 530.835 60.8 530.585 60.6159 530.333C59.9569 529.431 59.3045 528.524 58.6577 527.613C58.444 527.312 58.2331 527.009 58.0213 526.707C57.5605 526.051 57.1024 525.393 56.6477 524.733C56.4105 524.389 56.1737 524.044 55.9384 523.698C55.462 522.998 54.9899 522.295 54.5206 521.59C54.3459 521.327 54.1689 521.066 53.9952 520.803C53.3753 519.863 52.7619 518.919 52.1547 517.97C51.9688 517.679 51.7852 517.386 51.6007 517.095C51.1573 516.396 50.7172 515.695 50.2813 514.991C50.0666 514.645 49.8529 514.299 49.6401 513.952C49.1948 513.225 48.7538 512.495 48.316 511.764C48.1927 511.558 48.0656 511.354 47.9427 511.147C47.9041 511.083 47.8669 511.017 47.8288 510.952C47.2423 509.963 46.6629 508.97 46.09 507.972C45.9276 507.689 45.768 507.404 45.607 507.121C45.1773 506.366 44.7513 505.608 44.33 504.848C44.1393 504.504 43.9487 504.159 43.7595 503.814C43.316 503.006 42.8778 502.194 42.4433 501.38C42.3186 501.146 42.1915 500.914 42.0677 500.679C41.5273 499.659 40.9954 498.633 40.4696 497.604C40.3114 497.294 40.1561 496.983 39.9989 496.673C39.6124 495.908 39.2297 495.142 38.8513 494.373C38.6785 494.022 38.5062 493.671 38.3354 493.32C37.9065 492.438 37.4829 491.553 37.0644 490.665C36.9769 490.479 36.887 490.294 36.7999 490.108C36.3075 489.057 35.8245 488 35.3472 486.941C35.1975 486.608 35.0502 486.274 34.9019 485.94C34.5555 485.162 34.2133 484.382 33.8748 483.6C33.7218 483.247 33.5684 482.893 33.4173 482.539C32.9979 481.556 32.5836 480.57 32.1769 479.581C32.1318 479.471 32.0851 479.363 32.0404 479.253C31.5975 478.171 31.1649 477.084 30.7375 475.995C30.6 475.645 30.4654 475.294 30.3298 474.944C30.0206 474.145 29.7151 473.343 29.4143 472.54C29.283 472.19 29.1512 471.84 29.0217 471.489C28.615 470.388 28.2135 469.284 27.8223 468.176C27.7799 468.055 27.7395 467.934 27.6971 467.814C27.3436 466.806 26.9972 465.796 26.6568 464.783C26.5344 464.419 26.4144 464.055 26.2939 463.691C26.0209 462.866 25.7526 462.039 25.4885 461.21C25.3793 460.868 25.2691 460.526 25.1618 460.184C24.8088 459.058 24.4619 457.93 24.1248 456.797C24.066 456.6 24.01 456.402 23.9521 456.204C23.6692 455.244 23.3924 454.283 23.1208 453.319C23.0158 452.946 22.9127 452.572 22.8092 452.198C22.5719 451.34 22.3399 450.479 22.112 449.617C22.0259 449.291 21.9383 448.966 21.8536 448.64C21.5552 447.49 21.2638 446.337 20.9818 445.18C20.9211 444.931 20.8632 444.68 20.8034 444.43C20.5784 443.493 20.3586 442.555 20.1439 441.615C20.0583 441.238 19.9736 440.86 19.8893 440.482C19.6883 439.579 19.4929 438.674 19.3018 437.768C19.2392 437.469 19.1738 437.171 19.1121 436.872C18.8692 435.696 18.6348 434.517 18.4094 433.336C18.3552 433.052 18.3044 432.767 18.2512 432.482C18.0775 431.554 17.9085 430.623 17.7452 429.691C17.6788 429.311 17.6129 428.93 17.5484 428.55C17.386 427.595 17.2297 426.639 17.0791 425.682C17.0377 425.418 16.9939 425.156 16.9529 424.892C16.7684 423.694 16.5929 422.493 16.4257 421.29C16.382 420.974 16.3415 420.657 16.2986 420.342C16.1739 419.417 16.0543 418.49 15.9404 417.562C15.8938 417.182 15.8472 416.802 15.802 416.421C15.6806 415.395 15.5657 414.366 15.4575 413.336C15.4358 413.132 15.4118 412.927 15.3911 412.722C15.2659 411.501 15.151 410.276 15.0442 409.049C15.015 408.712 14.9886 408.374 14.9604 408.037C14.8832 407.105 14.8107 406.172 14.7443 405.237C14.7175 404.862 14.6907 404.487 14.6657 404.112C14.5909 402.993 14.5231 401.872 14.4638 400.748C14.4572 400.621 14.4482 400.495 14.4421 400.368C14.3786 399.125 14.3268 397.879 14.2821 396.631C14.2694 396.277 14.2595 395.922 14.2482 395.568C14.2185 394.627 14.1945 393.685 14.1757 392.741C14.1682 392.371 14.1602 392.002 14.1545 391.632C14.1352 390.374 14.122 389.115 14.122 387.852C14.122 386.489 14.1371 385.114 14.1588 383.732C14.1649 383.351 14.1724 382.967 14.1804 382.585C14.203 381.454 14.2331 380.317 14.2698 379.174C14.2793 378.887 14.2863 378.602 14.2962 378.314C14.3456 376.923 14.4064 375.523 14.4765 374.116C14.4935 373.776 14.5137 373.434 14.5316 373.092C14.5918 371.961 14.6591 370.824 14.733 369.681C14.758 369.295 14.782 368.909 14.8088 368.522C14.9067 367.089 15.0126 365.65 15.1313 364.202C15.1454 364.032 15.1614 363.861 15.1755 363.692C15.2838 362.393 15.4019 361.087 15.5267 359.776C15.5667 359.358 15.6072 358.939 15.6491 358.52C15.7733 357.264 15.9047 356.003 16.0435 354.736C16.0699 354.497 16.0934 354.261 16.1202 354.022C16.2855 352.544 16.4625 351.059 16.6475 349.569C16.6964 349.173 16.7482 348.776 16.799 348.38C16.9501 347.193 17.1078 346.003 17.2712 344.809C17.3243 344.421 17.3761 344.034 17.4303 343.646C17.6411 342.141 17.86 340.631 18.0902 339.115C18.133 338.831 18.1792 338.546 18.2229 338.262C18.4192 336.988 18.6221 335.71 18.8316 334.428C18.9031 333.99 18.9752 333.551 19.0486 333.112C19.2872 331.681 19.5325 330.246 19.7881 328.806C19.8097 328.684 19.8295 328.564 19.8512 328.442C20.1275 326.891 20.416 325.333 20.7116 323.772C20.7931 323.342 20.8759 322.912 20.9588 322.482C21.2012 321.221 21.4497 319.957 21.7039 318.69C21.775 318.336 21.8442 317.984 21.9162 317.629C22.2354 316.06 22.5639 314.486 22.9014 312.908C22.9744 312.567 23.0502 312.225 23.1236 311.884C23.4037 310.588 23.6903 309.29 23.9831 307.989C24.0782 307.566 24.1728 307.143 24.2693 306.72C24.6351 305.113 25.0074 303.504 25.3915 301.891C25.4057 301.832 25.4202 301.773 25.4344 301.714C25.8062 300.154 26.1894 298.59 26.5787 297.025C26.6827 296.606 26.7877 296.187 26.8931 295.768C27.2452 294.367 27.6034 292.963 27.9687 291.557C28.0318 291.314 28.093 291.072 28.1565 290.829C28.5863 289.186 29.0264 287.539 29.4745 285.89C29.5649 285.558 29.6572 285.225 29.748 284.892C30.1279 283.506 30.5139 282.118 30.906 280.728C31.003 280.386 31.0985 280.043 31.1964 279.7C31.6747 278.018 32.1609 276.335 32.6576 274.65C32.6839 274.561 32.7107 274.472 32.7371 274.383C33.2069 272.791 33.687 271.198 34.1733 269.604C34.2749 269.27 34.3771 268.936 34.4797 268.602C35.5275 265.189 36.6111 261.772 37.731 258.353C37.8096 258.113 37.8891 257.873 37.9682 257.632C38.4921 256.04 39.0235 254.447 39.563 252.853C39.6119 252.708 39.6604 252.563 39.7099 252.418C40.914 248.87 42.1576 245.323 43.437 241.779C43.4916 241.628 43.5458 241.477 43.6004 241.326C44.8981 237.739 46.2336 234.156 47.6062 230.579C47.625 230.53 47.6443 230.48 47.6631 230.431C49.634 225.299 51.6802 220.182 53.7994 215.087C53.8253 215.025 53.8517 214.962 53.878 214.9C54.4467 213.535 55.02 212.171 55.599 210.81C55.6809 210.617 55.7633 210.424 55.8456 210.23C56.387 208.961 56.9325 207.693 57.4828 206.428C57.5746 206.216 57.6659 206.004 57.7577 205.793C58.3677 204.394 58.9825 202.997 59.6034 201.602C59.6222 201.56 59.6406 201.518 59.6594 201.475C60.3033 200.03 60.9525 198.588 61.6077 197.148C61.7414 196.855 61.8774 196.562 62.0116 196.269C62.5035 195.193 62.9973 194.118 63.4958 193.046C63.7481 192.502 64.0032 191.96 64.2574 191.417C64.641 190.598 65.0261 189.778 65.4135 188.961C65.7091 188.337 66.0061 187.715 66.3036 187.093C66.6552 186.358 67.0082 185.625 67.3627 184.892C67.6809 184.233 67.9996 183.575 68.3206 182.919C68.6624 182.219 69.0069 181.52 69.3515 180.822C69.6815 180.153 70.011 179.483 70.3433 178.816C70.6935 178.113 71.047 177.414 71.3996 176.713C71.9875 175.546 72.5792 174.381 73.1742 173.219C73.5489 172.487 73.9227 171.755 74.3002 171.025C74.6579 170.335 75.0194 169.648 75.3795 168.959C75.7184 168.312 76.0569 167.663 76.3986 167.017C76.7587 166.336 77.1212 165.657 77.4836 164.978C77.8339 164.322 78.1845 163.667 78.5371 163.013C78.893 162.353 79.2502 161.694 79.6085 161.036C79.9813 160.351 80.356 159.668 80.7311 158.985C81.0729 158.365 81.4142 157.744 81.7578 157.126C82.1847 156.357 82.6145 155.591 83.0447 154.826C83.3403 154.299 83.6345 153.772 83.932 153.247C84.6612 151.96 85.3941 150.677 86.1322 149.399C115.326 98.8745 176.242 14.1216 256.151 14.1216C256.941 14.1216 257.729 14.1329 258.516 14.1493C258.732 14.154 258.947 14.1597 259.162 14.1653C259.809 14.1828 260.455 14.2049 261.1 14.2336C261.253 14.2402 261.405 14.2454 261.557 14.2524C262.332 14.2896 263.105 14.3353 263.876 14.388C264.063 14.4007 264.249 14.4158 264.435 14.4294C265.055 14.4746 265.673 14.5254 266.29 14.5805C266.491 14.5984 266.693 14.6158 266.895 14.6351C267.662 14.7081 268.428 14.7872 269.191 14.8752C269.298 14.8874 269.405 14.902 269.512 14.9143C270.18 14.9933 270.848 15.079 271.514 15.1694C271.726 15.1986 271.939 15.2278 272.152 15.2579C272.836 15.3549 273.518 15.4565 274.198 15.5657C274.283 15.5794 274.367 15.5912 274.451 15.6048C275.208 15.7272 275.962 15.859 276.714 15.9964C276.915 16.0332 277.115 16.0713 277.315 16.1085C277.921 16.2219 278.525 16.3405 279.128 16.4634C279.301 16.4987 279.474 16.5326 279.646 16.5684C280.391 16.7237 281.134 16.8856 281.874 17.0546C282.029 17.0899 282.185 17.1276 282.34 17.1638C282.95 17.3055 283.558 17.4519 284.166 17.603C284.365 17.6524 284.565 17.7018 284.764 17.7527C285.505 17.941 286.245 18.134 286.982 18.3354C287.015 18.3444 287.048 18.3543 287.081 18.3632C287.788 18.5576 288.493 18.7596 289.196 18.9657C289.397 19.0246 289.597 19.0843 289.797 19.1441C290.414 19.3287 291.03 19.5174 291.644 19.7114C291.77 19.7509 291.897 19.7895 292.023 19.8295C292.749 20.0606 293.472 20.2993 294.194 20.5436C294.367 20.602 294.54 20.6627 294.713 20.722C295.299 20.923 295.884 21.1282 296.467 21.3372C296.641 21.3994 296.815 21.461 296.988 21.5241C297.709 21.7858 298.427 22.0527 299.143 22.3267C299.245 22.3657 299.346 22.4058 299.447 22.4448C300.073 22.6863 300.697 22.9325 301.32 23.1829C301.504 23.2568 301.687 23.3307 301.87 23.4051C302.556 23.6847 303.242 23.9685 303.924 24.259C303.951 24.2703 303.978 24.2811 304.004 24.2924C304.722 24.5984 305.436 24.9119 306.149 25.2296C306.316 25.304 306.482 25.3788 306.648 25.4541C307.249 25.7248 307.848 25.9997 308.446 26.2783C308.567 26.3348 308.688 26.3899 308.809 26.4469C309.52 26.7811 310.229 27.1209 310.935 27.4669C311.047 27.5215 311.158 27.5771 311.269 27.6321C311.881 27.9334 312.49 28.2384 313.098 28.5482C313.24 28.6207 313.382 28.6922 313.523 28.7647C314.942 29.492 316.351 30.2427 317.75 31.0143C317.877 31.0839 318.004 31.1545 318.13 31.2247C318.819 31.6069 319.506 31.9929 320.19 32.3855C320.194 32.3878 320.198 32.3897 320.201 32.392C320.925 32.8072 321.646 33.229 322.364 33.6555C322.441 33.7011 322.517 33.7468 322.594 33.7924C323.259 34.1893 323.922 34.5903 324.584 34.9961C324.633 35.0262 324.682 35.0558 324.731 35.086C326.177 35.9756 327.611 36.8884 329.035 37.8213C329.072 37.8458 329.109 37.8698 329.146 37.8943C346.519 49.2984 362.275 63.8431 376.181 79.3477C376.195 79.3637 376.21 79.3801 376.224 79.3961C378.326 81.7399 380.385 84.1052 382.4 86.4852C382.431 86.5219 382.462 86.5586 382.493 86.5949C384.496 88.9616 386.457 91.3421 388.374 93.7291C388.407 93.77 388.441 93.8115 388.474 93.8529C389.418 95.0302 390.352 96.2088 391.276 97.3884C391.313 97.4365 391.351 97.4849 391.389 97.533C392.305 98.7046 393.211 99.8767 394.106 101.049C394.126 101.075 394.147 101.101 394.167 101.128C395.059 102.298 395.941 103.466 396.812 104.634C396.874 104.716 396.934 104.798 396.995 104.88C397.866 106.048 398.726 107.216 399.575 108.38C399.584 108.393 399.594 108.406 399.603 108.419C400.442 109.57 401.269 110.72 402.087 111.866C402.156 111.964 402.227 112.062 402.296 112.16C403.101 113.29 403.895 114.418 404.679 115.542C404.736 115.623 404.793 115.705 404.849 115.787C405.61 116.878 406.359 117.965 407.099 119.049C407.164 119.144 407.229 119.239 407.294 119.333C408.044 120.432 408.783 121.527 409.512 122.617C409.593 122.737 409.673 122.858 409.754 122.978C410.463 124.04 411.163 125.098 411.853 126.149C411.9 126.221 411.948 126.293 411.995 126.365C412.699 127.44 413.392 128.507 414.075 129.569C414.16 129.702 414.245 129.835 414.331 129.967C415.007 131.021 415.674 132.069 416.331 133.108C416.384 133.193 416.437 133.277 416.491 133.363C417.126 134.371 417.751 135.371 418.367 136.364C418.441 136.485 418.517 136.606 418.591 136.726C419.22 137.743 419.839 138.752 420.447 139.751C420.513 139.859 420.578 139.966 420.643 140.075C421.236 141.05 421.819 142.017 422.392 142.975C422.44 143.056 422.489 143.137 422.538 143.218C423.131 144.212 423.713 145.195 424.285 146.167C424.342 146.264 424.399 146.361 424.456 146.458C425.038 147.45 425.61 148.432 426.17 149.4C427.126 151.053 428.071 152.718 429.011 154.388C429.242 154.797 429.472 155.205 429.701 155.615C430.619 157.255 431.531 158.902 432.434 160.557C432.571 160.806 432.705 161.056 432.84 161.306C433.745 162.971 434.643 164.642 435.533 166.321C435.597 166.442 435.662 166.562 435.726 166.683C441.387 177.38 446.739 188.352 451.751 199.492C451.753 199.496 451.755 199.501 451.757 199.506C452.264 200.632 452.767 201.76 453.267 202.889C453.284 202.929 453.302 202.968 453.319 203.008C453.815 204.13 454.308 205.253 454.797 206.378C454.803 206.393 454.81 206.408 454.817 206.423C457.792 213.268 460.637 220.166 463.345 227.094C463.374 227.169 463.404 227.244 463.433 227.319C463.823 228.317 464.209 229.316 464.593 230.315C464.68 230.541 464.767 230.767 464.853 230.993C465.209 231.923 465.562 232.852 465.913 233.783C466.023 234.075 466.134 234.368 466.243 234.661C466.579 235.556 466.913 236.451 467.244 237.346C467.363 237.669 467.482 237.991 467.601 238.314C467.926 239.197 468.249 240.08 468.569 240.963C468.687 241.288 468.804 241.613 468.921 241.938C469.241 242.826 469.561 243.715 469.876 244.603C469.982 244.9 470.085 245.196 470.19 245.492C470.517 246.416 470.842 247.34 471.164 248.265C471.222 248.43 471.279 248.597 471.336 248.762C472.447 251.965 473.527 255.169 474.577 258.371C474.637 258.556 474.699 258.741 474.759 258.926C475.03 259.755 475.296 260.584 475.563 261.413C475.694 261.822 475.827 262.231 475.958 262.64C476.2 263.4 476.438 264.158 476.677 264.917C476.827 265.395 476.978 265.873 477.126 266.351C477.353 267.078 477.577 267.806 477.8 268.532C477.956 269.04 478.112 269.547 478.266 270.055C478.481 270.763 478.695 271.471 478.907 272.178C479.065 272.704 479.222 273.23 479.377 273.756C479.584 274.451 479.789 275.146 479.992 275.84C480.149 276.379 480.305 276.918 480.461 277.457C480.658 278.139 480.855 278.821 481.049 279.503C481.207 280.057 481.362 280.611 481.518 281.165C481.706 281.833 481.895 282.501 482.08 283.168C482.24 283.742 482.396 284.317 482.553 284.891C482.73 285.537 482.909 286.184 483.083 286.83C483.269 287.519 483.45 288.207 483.633 288.894C483.911 289.944 484.186 290.992 484.458 292.04C484.627 292.692 484.797 293.344 484.963 293.996C485.113 294.585 485.259 295.173 485.407 295.762C485.566 296.394 485.725 297.026 485.882 297.658C486.029 298.251 486.172 298.843 486.316 299.435C486.468 300.061 486.621 300.686 486.77 301.311C486.911 301.9 487.05 302.488 487.188 303.076C487.337 303.706 487.485 304.337 487.63 304.967C487.765 305.546 487.897 306.125 488.029 306.704C488.174 307.341 488.318 307.977 488.459 308.612C488.587 309.182 488.714 309.752 488.839 310.321C488.981 310.97 489.122 311.618 489.261 312.266C489.38 312.819 489.499 313.37 489.616 313.921C489.76 314.599 489.899 315.275 490.04 315.951C490.147 316.469 490.256 316.989 490.361 317.507C490.513 318.253 490.66 318.997 490.808 319.74C490.897 320.188 490.988 320.636 491.075 321.083C491.304 322.256 491.529 323.426 491.747 324.593C491.796 324.854 491.842 325.114 491.891 325.375C492.062 326.298 492.232 327.22 492.396 328.139C492.477 328.591 492.554 329.041 492.634 329.493C492.761 330.22 492.889 330.948 493.013 331.673C493.096 332.163 493.177 332.651 493.258 333.14C493.372 333.826 493.486 334.512 493.597 335.196C493.678 335.698 493.757 336.2 493.836 336.701C493.941 337.368 494.045 338.035 494.147 338.701C494.224 339.207 494.3 339.711 494.375 340.216C494.474 340.876 494.57 341.535 494.665 342.193C494.737 342.695 494.809 343.197 494.879 343.698C494.972 344.363 495.063 345.027 495.152 345.69C495.217 346.176 495.283 346.661 495.346 347.145C495.436 347.834 495.523 348.52 495.608 349.207C495.665 349.661 495.724 350.116 495.779 350.57C495.871 351.33 495.958 352.087 496.046 352.844C496.089 353.217 496.134 353.592 496.175 353.965C496.302 355.092 496.423 356.216 496.537 357.334C496.545 357.413 496.553 357.492 496.561 357.571C496.666 358.611 496.767 359.648 496.863 360.68C496.898 361.056 496.929 361.43 496.962 361.805C497.027 362.54 497.093 363.274 497.153 364.006C497.189 364.441 497.222 364.874 497.256 365.308C497.309 365.976 497.36 366.642 497.408 367.307C497.441 367.762 497.472 368.216 497.502 368.669C497.546 369.311 497.588 369.952 497.628 370.59C497.656 371.05 497.683 371.509 497.709 371.967C497.745 372.597 497.779 373.225 497.811 373.851C497.834 374.308 497.857 374.764 497.878 375.219C497.907 375.85 497.933 376.478 497.958 377.106C497.975 377.547 497.993 377.988 498.009 378.428C498.032 379.077 498.051 379.724 498.069 380.37C498.08 380.782 498.093 381.195 498.103 381.606C498.12 382.311 498.131 383.012 498.143 383.713C498.148 384.058 498.156 384.406 498.16 384.75C498.172 385.79 498.18 386.826 498.18 387.856C498.181 521.307 389.605 629.878 256.151 629.878Z" fill="#494949"/>
<path d="M145.841 533.892C145.734 533.782 145.631 533.669 145.524 533.559C144.893 532.906 144.268 532.249 143.65 531.587C143.397 531.317 143.145 531.045 142.894 530.773C142.3 530.128 141.712 529.479 141.13 528.826C140.866 528.53 140.603 528.233 140.342 527.935C139.782 527.298 139.228 526.656 138.68 526.01C138.408 525.69 138.138 525.369 137.868 525.047C137.34 524.414 136.817 523.778 136.3 523.139C136.023 522.796 135.748 522.452 135.474 522.107C134.975 521.48 134.482 520.85 133.994 520.216C133.713 519.851 133.435 519.485 133.158 519.118C132.687 518.496 132.221 517.87 131.761 517.241C131.479 516.857 131.201 516.47 130.923 516.084C130.478 515.464 130.037 514.842 129.602 514.216C129.322 513.813 129.044 513.408 128.768 513.002C128.348 512.385 127.931 511.766 127.52 511.144C127.241 510.722 126.967 510.298 126.693 509.873C126.296 509.26 125.903 508.645 125.515 508.026C125.24 507.586 124.969 507.144 124.698 506.702C124.324 506.09 123.953 505.478 123.587 504.862C123.317 504.406 123.052 503.948 122.787 503.49C122.433 502.879 122.082 502.268 121.737 501.652C121.474 501.182 121.216 500.71 120.958 500.237C120.625 499.627 120.292 499.016 119.967 498.402C119.711 497.917 119.46 497.429 119.209 496.941C118.896 496.333 118.583 495.725 118.278 495.112C118.029 494.612 117.787 494.109 117.543 493.606C117.249 492.999 116.955 492.391 116.67 491.78C116.43 491.268 116.197 490.753 115.963 490.238C115.687 489.63 115.41 489.022 115.142 488.41C114.912 487.886 114.689 487.358 114.465 486.832C114.207 486.224 113.947 485.616 113.697 485.004C113.477 484.468 113.265 483.929 113.052 483.39C112.811 482.782 112.568 482.174 112.335 481.563C112.126 481.015 111.925 480.464 111.723 479.915C111.499 479.306 111.273 478.699 111.057 478.088C110.859 477.529 110.67 476.968 110.479 476.407C110.272 475.799 110.062 475.191 109.862 474.58C109.677 474.011 109.5 473.438 109.32 472.866C109.13 472.258 108.936 471.651 108.753 471.04C108.579 470.46 108.415 469.876 108.247 469.294C108.073 468.687 107.896 468.082 107.73 467.473C107.567 466.88 107.415 466.283 107.26 465.688C107.103 465.084 106.942 464.482 106.792 463.875C106.643 463.272 106.504 462.665 106.362 462.06C106.22 461.457 106.075 460.855 105.94 460.249C105.804 459.636 105.68 459.02 105.551 458.406C105.425 457.803 105.295 457.202 105.176 456.598C105.054 455.973 104.943 455.345 104.827 454.717C104.718 454.12 104.603 453.523 104.5 452.924C104.39 452.283 104.293 451.64 104.192 450.998C104.098 450.407 103.999 449.818 103.913 449.225C103.817 448.567 103.733 447.907 103.645 447.248C103.568 446.667 103.485 446.087 103.414 445.505C103.331 444.827 103.263 444.146 103.189 443.467C103.127 442.899 103.059 442.332 103.004 441.762C102.936 441.063 102.882 440.361 102.824 439.66C102.778 439.107 102.725 438.554 102.684 437.999C102.63 437.259 102.592 436.517 102.548 435.775C102.518 435.257 102.48 434.74 102.455 434.22C102.415 433.385 102.391 432.547 102.363 431.71C102.35 431.281 102.328 430.854 102.317 430.424C102.287 429.156 102.271 427.885 102.271 426.611C102.271 385.508 118.275 346.867 147.337 317.8C176.404 288.738 215.046 272.729 256.149 272.729C297.252 272.729 335.893 288.738 364.96 317.8C365.77 318.61 366.567 319.43 367.356 320.255C367.523 320.429 367.69 320.603 367.856 320.778C368.616 321.579 369.367 322.386 370.107 323.2C370.25 323.357 370.391 323.516 370.533 323.674C371.217 324.431 371.893 325.195 372.56 325.964C372.663 326.083 372.768 326.201 372.871 326.32C373.589 327.154 374.295 327.995 374.994 328.842C375.159 329.04 375.322 329.24 375.485 329.439C376.181 330.29 376.868 331.146 377.544 332.009C377.633 332.123 377.72 332.239 377.809 332.353C378.434 333.155 379.049 333.964 379.656 334.777C379.786 334.951 379.917 335.124 380.046 335.298C380.692 336.172 381.328 337.051 381.954 337.936C382.091 338.129 382.227 338.323 382.362 338.517C382.988 339.41 383.607 340.306 384.213 341.211C384.233 341.241 384.254 341.271 384.274 341.301C384.893 342.227 385.499 343.161 386.096 344.099C386.224 344.3 386.353 344.501 386.48 344.702C387.059 345.619 387.628 346.54 388.186 347.467C388.289 347.638 388.389 347.811 388.491 347.981C389.005 348.843 389.511 349.708 390.007 350.579C390.087 350.72 390.169 350.859 390.248 351C390.78 351.94 391.299 352.887 391.811 353.838C391.933 354.064 392.053 354.29 392.174 354.517C392.68 355.469 393.179 356.425 393.664 357.387C393.732 357.522 393.798 357.659 393.866 357.795C394.302 358.665 394.728 359.539 395.147 360.417C395.257 360.648 395.368 360.877 395.476 361.107C395.918 362.046 396.35 362.989 396.772 363.936C396.891 364.202 397.008 364.47 397.125 364.738C397.498 365.586 397.864 366.437 398.221 367.293C398.312 367.512 398.405 367.731 398.496 367.951C398.859 368.835 399.213 369.723 399.56 370.615C399.691 370.951 399.822 371.287 399.951 371.624C400.295 372.525 400.632 373.429 400.959 374.337C401.088 374.695 401.212 375.055 401.339 375.415C401.57 376.074 401.798 376.735 402.02 377.397C402.152 377.788 402.286 378.178 402.414 378.571C402.653 379.304 402.888 380.04 403.117 380.777C432.72 310.913 439.235 231.907 438.708 172.399C437.723 170.482 436.728 168.573 435.723 166.674C435.659 166.553 435.595 166.433 435.531 166.312C434.641 164.633 433.743 162.961 432.838 161.296C432.702 161.047 432.568 160.796 432.432 160.547C431.529 158.892 430.617 157.246 429.699 155.605C429.469 155.196 429.239 154.787 429.009 154.378C428.069 152.709 427.123 151.043 426.168 149.39C425.609 148.422 425.036 147.44 424.453 146.448C424.396 146.351 424.34 146.254 424.283 146.157C423.711 145.185 423.129 144.202 422.535 143.208C422.487 143.127 422.438 143.046 422.389 142.965C421.817 142.008 421.234 141.041 420.641 140.065C420.576 139.957 420.51 139.85 420.445 139.741C419.837 138.742 419.218 137.733 418.589 136.717C418.514 136.596 418.439 136.475 418.364 136.354C417.749 135.361 417.124 134.361 416.488 133.353C416.435 133.268 416.382 133.183 416.328 133.098C415.673 132.059 415.005 131.011 414.328 129.957C414.243 129.824 414.157 129.692 414.072 129.559C413.389 128.497 412.697 127.429 411.992 126.355C411.945 126.284 411.897 126.211 411.85 126.139C411.161 125.088 410.461 124.031 409.751 122.968C409.671 122.848 409.591 122.727 409.51 122.607C408.781 121.517 408.042 120.423 407.292 119.324C407.227 119.228 407.162 119.133 407.097 119.039C406.357 117.955 405.607 116.868 404.847 115.777C404.79 115.695 404.734 115.614 404.677 115.532C403.893 114.408 403.099 113.281 402.294 112.15C402.224 112.052 402.154 111.954 402.084 111.857C401.267 110.71 400.44 109.561 399.601 108.409C399.591 108.396 399.582 108.383 399.573 108.37C398.724 107.205 397.863 106.038 396.993 104.87C396.932 104.788 396.871 104.706 396.81 104.624C395.939 103.457 395.057 102.288 394.165 101.119C394.144 101.092 394.124 101.066 394.104 101.039C393.208 99.8669 392.302 98.6948 391.386 97.5232C391.349 97.4752 391.311 97.4267 391.273 97.3787C390.35 96.199 389.416 95.0204 388.471 93.8431C388.438 93.8022 388.405 93.7607 388.372 93.7193C386.455 91.3323 384.495 88.9514 382.491 86.5851C382.46 86.5484 382.429 86.5117 382.398 86.4754C380.382 84.0955 378.323 81.7301 376.222 79.3864C376.208 79.3704 376.193 79.3539 376.178 79.3379C363.427 65.1217 349.121 51.7114 333.44 40.7907C211.205 -4.88829 111.959 115.484 51.9655 219.536C50.4935 223.155 49.0593 226.785 47.6622 230.422C47.6433 230.471 47.624 230.521 47.6052 230.57C46.2326 234.146 44.8972 237.73 43.5994 241.316C43.5448 241.467 43.4907 241.618 43.436 241.769C42.1566 245.313 40.9135 248.861 39.7089 252.408C39.6595 252.553 39.611 252.698 39.562 252.843C39.0226 254.436 38.4912 256.03 37.9672 257.623C37.8882 257.863 37.8086 258.103 37.73 258.343C36.6097 261.763 35.5261 265.18 34.4787 268.592C34.3761 268.927 34.274 269.26 34.1723 269.594C33.686 271.188 33.2064 272.781 32.7362 274.373C32.7098 274.462 32.6825 274.552 32.6566 274.641C32.16 276.326 31.6737 278.009 31.1955 279.69C31.098 280.033 31.002 280.376 30.9051 280.719C30.5125 282.108 30.1265 283.496 29.7471 284.882C29.6562 285.215 29.564 285.548 29.4736 285.88C29.0255 287.529 28.5853 289.176 28.1556 290.82C28.092 291.063 28.0308 291.305 27.9678 291.547C27.602 292.953 27.2443 294.357 26.8922 295.758C26.7867 296.177 26.6818 296.596 26.5777 297.015C26.1885 298.581 25.8057 300.145 25.4334 301.705C25.4193 301.763 25.4047 301.822 25.3906 301.881C25.0065 303.494 24.6341 305.104 24.2684 306.71C24.1719 307.133 24.0773 307.556 23.9822 307.979C23.6894 309.28 23.4032 310.579 23.1226 311.874C23.0487 312.216 22.973 312.557 22.9005 312.898C22.563 314.476 22.2344 316.05 21.9153 317.62C21.8432 317.974 21.774 318.327 21.703 318.681C21.4483 319.947 21.2002 321.211 20.9578 322.472C20.875 322.902 20.7921 323.333 20.7107 323.762C20.4155 325.323 20.1265 326.881 19.8502 328.432C19.8286 328.554 19.8083 328.674 19.7871 328.796C19.532 330.236 19.2868 331.671 19.0476 333.102C18.9742 333.542 18.9022 333.98 18.8306 334.419C18.6212 335.7 18.4178 336.978 18.222 338.252C18.1782 338.536 18.1321 338.822 18.0893 339.106C17.8591 340.622 17.6402 342.132 17.4293 343.636C17.3747 344.025 17.3234 344.411 17.2702 344.799C17.1064 345.993 16.9492 347.183 16.7981 348.37C16.7472 348.767 16.6959 349.164 16.6465 349.559C16.4615 351.05 16.2845 352.535 16.1193 354.012C16.0925 354.251 16.0689 354.488 16.0426 354.726C15.9032 355.993 15.7724 357.254 15.6481 358.51C15.6067 358.929 15.5657 359.348 15.5257 359.766C15.401 361.077 15.2828 362.384 15.1746 363.682C15.1604 363.852 15.1444 364.023 15.1303 364.192C15.0117 365.64 14.9058 367.079 14.8079 368.512C14.7815 368.9 14.757 369.285 14.7321 369.672C14.6582 370.814 14.5913 371.951 14.5306 373.083C14.5123 373.423 14.4925 373.766 14.4755 374.106C14.4049 375.513 14.3447 376.913 14.2953 378.304C14.2849 378.592 14.2783 378.877 14.2689 379.164C14.2317 380.307 14.2021 381.444 14.1795 382.575C14.1719 382.958 14.1639 383.341 14.1578 383.723C14.1362 385.104 14.1211 386.48 14.1211 387.842C14.1211 389.105 14.1343 390.365 14.1536 391.623C14.1592 391.993 14.1672 392.362 14.1747 392.731C14.1936 393.675 14.2176 394.617 14.2472 395.558C14.2585 395.912 14.2684 396.267 14.2811 396.621C14.3259 397.869 14.3776 399.115 14.4412 400.358C14.4478 400.485 14.4562 400.612 14.4628 400.739C14.5221 401.862 14.5899 402.983 14.6648 404.102C14.6897 404.478 14.7165 404.853 14.7434 405.227C14.8102 406.162 14.8822 407.095 14.9594 408.027C14.9872 408.364 15.0136 408.702 15.0432 409.039C15.1501 410.266 15.2649 411.491 15.3901 412.712C15.4113 412.918 15.4353 413.122 15.4565 413.327C15.5648 414.357 15.6796 415.385 15.8011 416.411C15.8463 416.792 15.8924 417.172 15.9395 417.553C16.0534 418.48 16.1734 419.407 16.2977 420.332C16.3405 420.648 16.381 420.965 16.4248 421.28C16.5919 422.484 16.767 423.684 16.952 424.882C16.9929 425.146 17.0367 425.409 17.0781 425.672C17.2292 426.63 17.3855 427.586 17.5475 428.54C17.6119 428.921 17.6778 429.3 17.7442 429.681C17.9076 430.613 18.0761 431.544 18.2502 432.473C18.3034 432.757 18.3543 433.042 18.4084 433.326C18.6339 434.508 18.8683 435.687 19.1112 436.862C19.1728 437.161 19.2378 437.459 19.3009 437.758C19.4915 438.664 19.6873 439.57 19.8883 440.473C19.9726 440.85 20.0573 441.228 20.143 441.605C20.3572 442.546 20.577 443.484 20.8025 444.42C20.8627 444.67 20.9202 444.921 20.9809 445.17C21.2628 446.327 21.5542 447.48 21.8526 448.63C21.9374 448.956 22.0249 449.281 22.1111 449.607C22.3389 450.469 22.571 451.33 22.8082 452.189C22.9113 452.562 23.0149 452.936 23.1198 453.309C23.391 454.273 23.6682 455.235 23.9511 456.194C24.0095 456.392 24.0655 456.59 24.1239 456.788C24.4609 457.92 24.8078 459.048 25.1609 460.174C25.2687 460.517 25.3788 460.858 25.4875 461.2C25.7516 462.029 26.0199 462.856 26.2929 463.681C26.4134 464.045 26.5335 464.41 26.6559 464.773C26.9962 465.786 27.3426 466.797 27.6962 467.804C27.7385 467.924 27.779 468.045 27.8214 468.166C28.2125 469.274 28.6141 470.378 29.0208 471.48C29.1502 471.83 29.282 472.18 29.4133 472.53C29.7146 473.333 30.0196 474.135 30.3289 474.934C30.4645 475.285 30.5995 475.636 30.7365 475.985C31.1639 477.075 31.5965 478.162 32.0395 479.243C32.0842 479.353 32.1308 479.462 32.176 479.571C32.5827 480.56 32.9969 481.546 33.4163 482.529C33.5674 482.883 33.7209 483.237 33.8739 483.59C34.2123 484.373 34.5545 485.153 34.901 485.931C35.0493 486.264 35.1966 486.598 35.3463 486.931C35.8236 487.991 36.307 489.047 36.7989 490.099C36.886 490.284 36.9759 490.469 37.0635 490.655C37.4819 491.543 37.9056 492.428 38.3344 493.31C38.5053 493.662 38.6775 494.012 38.8503 494.363C39.2288 495.132 39.6115 495.898 39.9979 496.663C40.1547 496.973 40.3105 497.284 40.4687 497.594C40.9944 498.624 41.5268 499.649 42.0667 500.669C42.1905 500.904 42.3176 501.136 42.4424 501.37C42.8769 502.184 43.3151 502.996 43.7585 503.804C43.9477 504.149 44.1379 504.494 44.329 504.838C44.7508 505.598 45.1768 506.356 45.6061 507.111C45.7675 507.395 45.9266 507.679 46.089 507.962C46.6619 508.96 47.2413 509.953 47.8279 510.942C47.8669 511.008 47.9069 511.074 47.946 511.139C77.9477 521.56 111.381 530.244 145.841 533.892Z" fill="#EDEDED"/>
<path d="M402.023 377.411C401.8 376.748 401.573 376.087 401.341 375.428C401.215 375.069 401.09 374.709 400.962 374.35C400.634 373.443 400.298 372.539 399.954 371.638C399.825 371.301 399.694 370.964 399.563 370.628C399.216 369.737 398.863 368.849 398.498 367.965C398.408 367.745 398.315 367.525 398.223 367.306C397.867 366.451 397.501 365.6 397.128 364.751C397.011 364.484 396.894 364.216 396.775 363.949C396.352 363.002 395.921 362.059 395.479 361.12C395.37 360.89 395.259 360.66 395.15 360.431C394.731 359.553 394.305 358.678 393.869 357.808C393.801 357.672 393.735 357.536 393.667 357.401C393.181 356.439 392.683 355.483 392.176 354.53C392.056 354.303 391.935 354.077 391.814 353.851C391.302 352.9 390.783 351.954 390.25 351.013C390.171 350.873 390.089 350.733 390.009 350.593C389.513 349.722 389.008 348.857 388.494 347.995C388.392 347.823 388.291 347.652 388.189 347.481C387.631 346.554 387.061 345.632 386.483 344.716C386.356 344.514 386.228 344.313 386.099 344.112C385.501 343.175 384.896 342.241 384.277 341.315C384.257 341.284 384.235 341.254 384.215 341.224C383.609 340.32 382.99 339.423 382.365 338.53C382.229 338.336 382.094 338.142 381.957 337.949C381.331 337.064 380.695 336.185 380.048 335.312C379.919 335.138 379.788 334.964 379.659 334.791C379.051 333.977 378.436 333.169 377.812 332.366C377.723 332.252 377.636 332.137 377.547 332.023C376.871 331.159 376.183 330.303 375.488 329.452C375.325 329.253 375.161 329.054 374.997 328.855C374.298 328.009 373.592 327.167 372.873 326.333C372.771 326.214 372.666 326.097 372.563 325.977C371.896 325.208 371.22 324.445 370.536 323.687C370.394 323.529 370.253 323.371 370.11 323.213C369.369 322.399 368.618 321.592 367.859 320.792C367.693 320.617 367.525 320.443 367.359 320.269C366.569 319.444 365.773 318.623 364.963 317.813C335.896 288.751 297.255 272.742 256.151 272.742C215.048 272.742 176.407 288.751 147.34 317.813C118.278 346.88 102.273 385.521 102.273 426.625C102.273 427.898 102.289 429.169 102.32 430.438C102.33 430.867 102.353 431.295 102.366 431.723C102.393 432.561 102.417 433.399 102.458 434.234C102.483 434.753 102.521 435.27 102.551 435.789C102.594 436.53 102.633 437.273 102.687 438.013C102.727 438.568 102.78 439.12 102.827 439.673C102.885 440.374 102.939 441.076 103.006 441.776C103.061 442.345 103.13 442.912 103.191 443.48C103.265 444.16 103.334 444.841 103.416 445.518C103.487 446.101 103.57 446.681 103.648 447.261C103.736 447.921 103.819 448.581 103.915 449.238C104.002 449.831 104.101 450.421 104.194 451.012C104.296 451.654 104.394 452.297 104.503 452.937C104.605 453.537 104.72 454.133 104.83 454.731C104.945 455.358 105.056 455.987 105.179 456.612C105.298 457.216 105.428 457.817 105.554 458.419C105.682 459.034 105.807 459.65 105.943 460.263C106.077 460.868 106.223 461.47 106.364 462.074C106.507 462.679 106.645 463.286 106.795 463.889C106.945 464.495 107.105 465.097 107.263 465.701C107.418 466.297 107.57 466.893 107.732 467.486C107.899 468.095 108.076 468.701 108.25 469.307C108.417 469.89 108.582 470.474 108.756 471.054C108.939 471.664 109.132 472.272 109.323 472.88C109.502 473.451 109.679 474.024 109.865 474.593C110.065 475.204 110.274 475.812 110.481 476.42C110.672 476.981 110.862 477.543 111.059 478.101C111.275 478.712 111.501 479.32 111.725 479.928C111.928 480.478 112.129 481.029 112.338 481.576C112.571 482.188 112.813 482.796 113.054 483.404C113.268 483.942 113.48 484.482 113.7 485.018C113.95 485.629 114.209 486.237 114.468 486.845C114.692 487.372 114.915 487.899 115.144 488.423C115.413 489.035 115.689 489.643 115.966 490.252C116.2 490.767 116.433 491.282 116.672 491.794C116.958 492.405 117.252 493.012 117.546 493.62C117.789 494.122 118.032 494.626 118.281 495.126C118.586 495.738 118.898 496.346 119.211 496.954C119.463 497.442 119.714 497.93 119.97 498.415C120.295 499.03 120.627 499.641 120.961 500.251C121.219 500.723 121.477 501.196 121.74 501.666C122.085 502.281 122.436 502.892 122.789 503.503C123.054 503.961 123.32 504.42 123.59 504.876C123.955 505.492 124.327 506.104 124.701 506.715C124.972 507.158 125.243 507.6 125.518 508.04C125.905 508.658 126.299 509.273 126.695 509.887C126.97 510.311 127.245 510.736 127.523 511.157C127.934 511.78 128.35 512.398 128.771 513.015C129.047 513.421 129.324 513.826 129.605 514.23C130.04 514.855 130.481 515.477 130.926 516.097C131.203 516.484 131.482 516.87 131.764 517.255C132.224 517.883 132.69 518.509 133.161 519.132C133.438 519.498 133.716 519.865 133.997 520.229C134.484 520.863 134.978 521.494 135.477 522.121C135.751 522.465 136.026 522.809 136.303 523.152C136.82 523.792 137.342 524.428 137.871 525.06C138.14 525.382 138.411 525.703 138.683 526.023C139.231 526.669 139.785 527.311 140.345 527.949C140.606 528.247 140.869 528.543 141.133 528.839C141.715 529.492 142.302 530.142 142.897 530.787C143.147 531.059 143.4 531.329 143.652 531.6C144.271 532.262 144.895 532.92 145.527 533.572C146.128 534.193 146.727 534.817 147.341 535.43C176.407 564.497 215.049 580.502 256.152 580.502C297.255 580.502 335.896 564.497 364.963 535.43C394.025 506.368 410.03 467.727 410.03 426.624C410.03 425.462 410.013 424.304 409.988 423.147C409.98 422.794 409.968 422.442 409.958 422.089C409.934 421.258 409.904 420.427 409.867 419.598C409.851 419.224 409.834 418.85 409.815 418.477C409.766 417.545 409.709 416.615 409.644 415.686C409.629 415.46 409.617 415.233 409.6 415.007C409.516 413.876 409.418 412.748 409.31 411.622C409.277 411.281 409.239 410.94 409.204 410.599C409.121 409.795 409.033 408.991 408.938 408.189C408.889 407.779 408.839 407.37 408.787 406.961C408.688 406.176 408.581 405.393 408.47 404.611C408.418 404.25 408.37 403.889 408.316 403.529C408.155 402.45 407.982 401.373 407.798 400.3C407.736 399.937 407.667 399.576 407.602 399.214C407.469 398.469 407.332 397.724 407.188 396.983C407.097 396.514 407.003 396.046 406.908 395.579C406.775 394.931 406.638 394.284 406.498 393.639C406.395 393.163 406.293 392.687 406.185 392.214C406.013 391.457 405.832 390.703 405.649 389.95C405.479 389.251 405.302 388.554 405.123 387.858C404.963 387.24 404.803 386.622 404.635 386.006C404.484 385.449 404.326 384.893 404.169 384.337C404.027 383.839 403.883 383.342 403.736 382.845C403.563 382.259 403.389 381.672 403.209 381.088C402.951 380.252 402.689 379.417 402.417 378.586C402.288 378.192 402.154 377.802 402.023 377.411ZM256.151 566.38C255.025 566.38 253.901 566.364 252.781 566.337C252.417 566.329 252.055 566.313 251.692 566.302C250.934 566.278 250.176 566.251 249.42 566.215C248.996 566.195 248.572 566.17 248.149 566.146C247.453 566.106 246.757 566.063 246.064 566.013C245.627 565.982 245.189 565.948 244.753 565.913C244.063 565.857 243.375 565.795 242.688 565.729C242.267 565.689 241.844 565.649 241.424 565.605C240.69 565.528 239.958 565.442 239.227 565.353C238.863 565.309 238.497 565.268 238.134 565.221C237.124 565.091 236.117 564.95 235.113 564.798C235.035 564.786 234.956 564.776 234.877 564.764C233.8 564.599 232.728 564.419 231.659 564.229C231.305 564.166 230.953 564.097 230.6 564.032C229.882 563.899 229.165 563.763 228.45 563.619C228.034 563.535 227.619 563.446 227.204 563.358C226.552 563.22 225.902 563.079 225.253 562.932C224.823 562.835 224.394 562.735 223.965 562.634C223.328 562.483 222.693 562.327 222.059 562.167C221.637 562.061 221.215 561.955 220.794 561.845C220.132 561.672 219.473 561.491 218.815 561.308C218.433 561.202 218.05 561.1 217.67 560.99C216.834 560.751 216.002 560.501 215.173 560.246C214.977 560.186 214.779 560.13 214.584 560.069C213.581 559.756 212.585 559.43 211.592 559.096C211.215 558.969 210.842 558.835 210.467 558.705C209.836 558.486 209.205 558.266 208.578 558.038C208.149 557.882 207.722 557.721 207.295 557.562C206.725 557.348 206.155 557.132 205.589 556.912C205.146 556.739 204.704 556.564 204.264 556.387C203.714 556.167 203.167 555.942 202.622 555.715C202.18 555.532 201.739 555.347 201.3 555.16C200.749 554.924 200.202 554.681 199.654 554.439C199.231 554.25 198.806 554.065 198.384 553.873C197.772 553.594 197.164 553.306 196.557 553.018C196.056 552.781 195.555 552.543 195.057 552.301C194.308 551.935 193.562 551.566 192.821 551.187C192.385 550.965 191.954 550.734 191.52 550.507C191.026 550.249 190.531 549.99 190.04 549.726C189.578 549.476 189.119 549.221 188.66 548.967C188.206 548.715 187.751 548.463 187.299 548.206C186.829 547.938 186.361 547.668 185.894 547.395C185.462 547.142 185.031 546.887 184.602 546.63C184.128 546.347 183.655 546.062 183.185 545.773C182.773 545.52 182.364 545.262 181.955 545.004C181.476 544.703 180.996 544.403 180.522 544.097C180.148 543.856 179.78 543.608 179.409 543.364C178.311 542.64 177.224 541.902 176.148 541.149C175.956 541.015 175.763 540.884 175.572 540.749C175.054 540.382 174.542 540.007 174.03 539.633C173.707 539.398 173.382 539.165 173.061 538.926C172.559 538.554 172.063 538.176 171.566 537.798C171.244 537.552 170.922 537.307 170.603 537.059C170.105 536.672 169.61 536.282 169.118 535.889C168.975 535.775 168.829 535.663 168.686 535.549H168.682C168.299 535.242 167.92 534.93 167.542 534.619C167.436 534.533 167.33 534.448 167.224 534.36C166.487 533.751 165.76 533.132 165.036 532.509C164.874 532.37 164.712 532.231 164.551 532.091C163.846 531.478 163.149 530.859 162.457 530.232C162.295 530.086 162.134 529.939 161.973 529.792C161.272 529.151 160.577 528.506 159.889 527.852C159.772 527.74 159.656 527.626 159.538 527.514C158.861 526.866 158.191 526.211 157.527 525.549C157.46 525.483 157.392 525.417 157.325 525.35C156.632 524.657 155.948 523.953 155.269 523.245C155.14 523.11 155.009 522.975 154.881 522.839C154.224 522.149 153.575 521.451 152.933 520.747C152.799 520.601 152.667 520.454 152.534 520.308C151.886 519.592 151.243 518.87 150.61 518.14C150.515 518.031 150.421 517.921 150.327 517.811C149.693 517.076 149.066 516.336 148.447 515.588C148.404 515.536 148.36 515.485 148.317 515.433C147.681 514.663 147.056 513.884 146.437 513.099C146.331 512.966 146.225 512.833 146.12 512.699C145.524 511.939 144.936 511.172 144.356 510.399C144.244 510.25 144.133 510.101 144.021 509.951C143.437 509.168 142.861 508.38 142.293 507.584C142.213 507.473 142.135 507.36 142.056 507.248C141.482 506.438 140.915 505.624 140.358 504.801C140.331 504.761 140.303 504.721 140.276 504.681C139.71 503.844 139.155 502.998 138.607 502.148C138.52 502.012 138.431 501.877 138.344 501.741C137.818 500.919 137.302 500.091 136.793 499.258C136.699 499.104 136.605 498.949 136.512 498.795C136.001 497.952 135.499 497.105 135.006 496.251C134.939 496.135 134.874 496.018 134.807 495.901C134.306 495.027 133.812 494.147 133.33 493.262C133.312 493.229 133.293 493.196 133.275 493.163C132.788 492.267 132.313 491.364 131.845 490.456C131.772 490.316 131.7 490.176 131.627 490.035C131.18 489.16 130.743 488.279 130.313 487.394C130.235 487.232 130.156 487.07 130.079 486.907C129.65 486.014 129.229 485.117 128.819 484.214C128.762 484.089 128.707 483.962 128.65 483.837C128.232 482.908 127.822 481.977 127.423 481.037C127.411 481.009 127.399 480.981 127.387 480.953C126.986 480.006 126.597 479.052 126.217 478.094C126.159 477.947 126.099 477.801 126.041 477.653C125.679 476.733 125.327 475.808 124.985 474.878C124.921 474.706 124.858 474.533 124.795 474.36C124.453 473.424 124.121 472.484 123.799 471.54C123.753 471.405 123.709 471.269 123.663 471.133C123.334 470.156 123.013 469.175 122.705 468.188C122.699 468.167 122.691 468.145 122.685 468.123C122.375 467.13 122.079 466.131 121.792 465.128C121.748 464.976 121.703 464.824 121.66 464.671C121.388 463.711 121.127 462.745 120.875 461.776C120.828 461.595 120.782 461.413 120.735 461.231C120.486 460.257 120.246 459.279 120.017 458.297C119.984 458.154 119.952 458.01 119.919 457.867C119.685 456.847 119.46 455.823 119.249 454.794C119.245 454.777 119.241 454.76 119.238 454.744C119.026 453.71 118.828 452.671 118.639 451.629C118.611 451.473 118.581 451.317 118.554 451.161C118.376 450.163 118.211 449.162 118.055 448.158C118.026 447.97 117.997 447.782 117.969 447.593C117.816 446.585 117.673 445.574 117.543 444.56C117.523 444.408 117.505 444.256 117.487 444.105C117.354 443.045 117.23 441.981 117.121 440.913C117.12 440.905 117.119 440.896 117.118 440.888C117.009 439.818 116.916 438.744 116.831 437.668C116.819 437.508 116.805 437.349 116.793 437.189C116.716 436.16 116.651 435.129 116.596 434.095C116.586 433.901 116.576 433.708 116.567 433.513C116.516 432.477 116.475 431.437 116.448 430.395C116.443 430.237 116.441 430.079 116.437 429.921C116.412 428.825 116.395 427.727 116.395 426.624C116.395 349.558 179.091 286.863 256.152 286.863C257.293 286.863 258.432 286.879 259.567 286.906C259.938 286.915 260.307 286.932 260.677 286.944C261.441 286.968 262.204 286.994 262.965 287.032C263.403 287.053 263.839 287.08 264.276 287.105C264.968 287.145 265.66 287.187 266.349 287.237C266.807 287.271 267.265 287.308 267.722 287.346C268.391 287.401 269.059 287.46 269.724 287.524C270.184 287.569 270.643 287.616 271.101 287.665C271.768 287.736 272.434 287.813 273.098 287.893C273.546 287.948 273.993 288.002 274.439 288.061C275.127 288.151 275.812 288.249 276.497 288.349C276.913 288.41 277.329 288.468 277.742 288.533C278.506 288.651 279.266 288.781 280.025 288.912C280.355 288.969 280.686 289.021 281.015 289.081C282.106 289.277 283.193 289.485 284.275 289.707C284.307 289.714 284.338 289.721 284.37 289.727C285.416 289.942 286.457 290.171 287.495 290.409C287.832 290.487 288.167 290.571 288.504 290.651C289.235 290.826 289.966 291.001 290.692 291.187C291.088 291.288 291.482 291.394 291.877 291.499C292.542 291.675 293.207 291.853 293.869 292.039C294.282 292.155 294.693 292.274 295.104 292.394C295.747 292.581 296.389 292.771 297.029 292.967C297.44 293.093 297.851 293.221 298.261 293.351C298.904 293.554 299.544 293.763 300.183 293.976C300.578 294.108 300.974 294.239 301.368 294.374C302.035 294.602 302.697 294.838 303.359 295.077C303.717 295.206 304.077 295.332 304.434 295.464C305.186 295.742 305.934 296.029 306.681 296.32C306.941 296.421 307.202 296.518 307.461 296.62C308.478 297.023 309.489 297.435 310.493 297.861C310.52 297.872 310.547 297.884 310.574 297.896C311.538 298.305 312.496 298.726 313.448 299.156C313.74 299.288 314.029 299.425 314.32 299.559C315.007 299.875 315.693 300.193 316.374 300.519C316.722 300.686 317.067 300.858 317.413 301.027C318.035 301.331 318.654 301.638 319.271 301.951C319.634 302.136 319.996 302.324 320.358 302.512C320.955 302.822 321.55 303.136 322.142 303.454C322.504 303.649 322.866 303.845 323.226 304.043C323.819 304.369 324.409 304.7 324.998 305.035C325.344 305.232 325.692 305.428 326.036 305.628C326.651 305.984 327.261 306.348 327.869 306.713C328.179 306.898 328.489 307.081 328.797 307.269C329.497 307.698 330.192 308.134 330.885 308.574C331.093 308.706 331.303 308.834 331.51 308.968C332.421 309.553 333.324 310.148 334.22 310.753C334.283 310.795 334.343 310.839 334.406 310.881C335.225 311.436 336.037 312 336.843 312.572C337.109 312.761 337.372 312.955 337.637 313.146C338.236 313.577 338.834 314.011 339.426 314.451C339.738 314.684 340.047 314.92 340.358 315.156C340.898 315.565 341.436 315.976 341.97 316.392C342.295 316.646 342.618 316.902 342.942 317.159C343.457 317.568 343.97 317.981 344.479 318.398C344.802 318.662 345.124 318.927 345.445 319.194C345.953 319.617 346.457 320.044 346.959 320.474C347.269 320.74 347.58 321.005 347.888 321.274C348.407 321.726 348.921 322.185 349.433 322.645C349.713 322.897 349.995 323.146 350.273 323.399C350.857 323.933 351.435 324.474 352.011 325.017C352.208 325.204 352.408 325.386 352.605 325.574C353.374 326.309 354.136 327.052 354.889 327.805C355.029 327.945 355.166 328.088 355.305 328.228C355.911 328.839 356.514 329.454 357.109 330.077C357.371 330.35 357.628 330.629 357.888 330.905C358.355 331.401 358.821 331.898 359.281 332.401C359.57 332.717 359.855 333.037 360.141 333.355C360.564 333.827 360.986 334.301 361.403 334.778C361.698 335.115 361.99 335.455 362.282 335.795C362.683 336.264 363.082 336.735 363.477 337.209C363.769 337.559 364.059 337.909 364.347 338.261C364.737 338.737 365.122 339.217 365.505 339.698C365.787 340.052 366.069 340.405 366.348 340.762C366.737 341.26 367.119 341.762 367.501 342.266C367.763 342.61 368.028 342.953 368.286 343.301C368.706 343.864 369.118 344.434 369.529 345.004C369.74 345.296 369.956 345.585 370.164 345.879C370.766 346.728 371.36 347.582 371.944 348.444C372.147 348.745 372.344 349.05 372.545 349.352C372.932 349.933 373.318 350.513 373.696 351.099C373.947 351.488 374.191 351.881 374.437 352.273C374.757 352.779 375.076 353.285 375.389 353.796C375.648 354.217 375.901 354.642 376.155 355.067C376.447 355.554 376.737 356.042 377.023 356.533C377.279 356.974 377.532 357.417 377.784 357.86C378.057 358.342 378.328 358.826 378.596 359.312C378.847 359.766 379.095 360.22 379.341 360.677C379.601 361.16 379.856 361.646 380.11 362.133C380.352 362.595 380.594 363.057 380.83 363.522C381.079 364.013 381.322 364.507 381.566 365.001C381.796 365.468 382.028 365.933 382.253 366.403C382.497 366.912 382.733 367.426 382.971 367.938C383.184 368.398 383.402 368.854 383.611 369.316C384.028 370.241 384.436 371.172 384.834 372.107C385.046 372.606 385.248 373.11 385.454 373.611C385.655 374.099 385.858 374.586 386.053 375.076C386.261 375.599 386.461 376.125 386.663 376.651C386.846 377.126 387.029 377.601 387.207 378.078C387.406 378.614 387.598 379.153 387.791 379.691C387.96 380.163 388.128 380.635 388.292 381.11C388.48 381.657 388.665 382.206 388.848 382.756C389.003 383.226 389.156 383.697 389.307 384.168C389.486 384.727 389.662 385.287 389.834 385.85C389.976 386.315 390.113 386.781 390.251 387.249C390.419 387.822 390.588 388.395 390.749 388.971C390.876 389.425 390.997 389.881 391.119 390.336C391.279 390.93 391.441 391.524 391.593 392.121C391.698 392.532 391.795 392.947 391.896 393.36C392.453 395.63 392.953 397.922 393.397 400.233C393.465 400.589 393.539 400.943 393.605 401.3C393.616 401.357 393.624 401.415 393.635 401.472C393.748 402.095 393.852 402.72 393.958 403.346C394.038 403.82 394.119 404.294 394.194 404.771C394.287 405.355 394.371 405.942 394.457 406.529C394.532 407.054 394.608 407.579 394.678 408.107C394.752 408.665 394.822 409.224 394.889 409.784C394.957 410.349 395.022 410.914 395.084 411.48C395.142 412.015 395.198 412.551 395.249 413.088C395.308 413.69 395.36 414.294 395.41 414.898C395.453 415.408 395.496 415.918 395.533 416.429C395.58 417.08 395.619 417.734 395.657 418.387C395.684 418.858 395.715 419.328 395.738 419.8C395.774 420.543 395.799 421.289 395.823 422.035C395.836 422.423 395.854 422.81 395.863 423.199C395.891 424.337 395.907 425.479 395.907 426.625C395.908 503.685 333.213 566.38 256.151 566.38Z" fill="#494949"/>
<path d="M322.545 489.622C353.568 465.433 376.605 434.833 393.597 401.301C393.532 400.943 393.46 400.586 393.392 400.23C392.948 397.918 392.447 395.627 391.892 393.356C391.79 392.943 391.693 392.529 391.588 392.117C391.436 391.52 391.274 390.926 391.114 390.332C390.992 389.877 390.872 389.421 390.744 388.968C390.583 388.392 390.414 387.818 390.246 387.245C390.108 386.778 389.971 386.311 389.829 385.846C389.657 385.284 389.481 384.724 389.302 384.164C389.152 383.693 388.999 383.222 388.843 382.752C388.661 382.202 388.476 381.653 388.287 381.106C388.123 380.632 387.955 380.16 387.786 379.687C387.593 379.149 387.401 378.61 387.202 378.075C387.024 377.597 386.841 377.123 386.658 376.647C386.456 376.122 386.257 375.595 386.049 375.073C385.853 374.582 385.649 374.095 385.449 373.607C385.243 373.106 385.041 372.602 384.829 372.104C384.431 371.168 384.024 370.238 383.606 369.312C383.397 368.851 383.18 368.394 382.966 367.935C382.728 367.422 382.492 366.908 382.248 366.399C382.023 365.93 381.791 365.464 381.561 364.998C381.317 364.504 381.074 364.01 380.825 363.519C380.589 363.053 380.347 362.591 380.105 362.129C379.851 361.643 379.596 361.157 379.336 360.673C379.091 360.217 378.842 359.762 378.591 359.308C378.324 358.822 378.052 358.339 377.779 357.857C377.527 357.413 377.274 356.97 377.018 356.53C376.732 356.039 376.442 355.55 376.15 355.063C375.896 354.639 375.643 354.214 375.384 353.792C375.071 353.282 374.752 352.776 374.433 352.269C374.186 351.878 373.942 351.484 373.691 351.096C373.313 350.51 372.927 349.929 372.54 349.349C372.339 349.047 372.143 348.741 371.939 348.44C371.355 347.578 370.762 346.724 370.159 345.876C369.951 345.582 369.735 345.293 369.524 345C369.113 344.43 368.701 343.861 368.281 343.297C368.022 342.95 367.758 342.607 367.497 342.262C367.114 341.759 366.732 341.256 366.343 340.758C366.064 340.401 365.782 340.048 365.5 339.694C365.117 339.213 364.732 338.733 364.342 338.257C364.054 337.905 363.764 337.555 363.472 337.206C363.077 336.732 362.678 336.26 362.277 335.792C361.985 335.451 361.693 335.112 361.398 334.774C360.981 334.297 360.56 333.823 360.136 333.352C359.85 333.033 359.565 332.714 359.276 332.398C358.816 331.894 358.35 331.397 357.883 330.901C357.623 330.625 357.366 330.347 357.105 330.073C356.509 329.451 355.906 328.836 355.3 328.225C355.16 328.084 355.024 327.941 354.885 327.801C354.131 327.049 353.37 326.305 352.6 325.57C352.403 325.383 352.203 325.2 352.006 325.013C351.43 324.47 350.852 323.929 350.268 323.396C349.99 323.142 349.708 322.893 349.428 322.642C348.916 322.181 348.402 321.723 347.883 321.27C347.575 321.002 347.264 320.737 346.954 320.471C346.452 320.041 345.948 319.613 345.44 319.19C345.12 318.923 344.797 318.658 344.474 318.394C343.965 317.978 343.452 317.565 342.937 317.155C342.614 316.899 342.291 316.642 341.965 316.389C341.431 315.972 340.893 315.561 340.353 315.152C340.043 314.917 339.734 314.68 339.421 314.448C338.829 314.007 338.231 313.574 337.632 313.142C337.367 312.951 337.104 312.757 336.838 312.568C336.032 311.996 335.22 311.433 334.401 310.878C334.339 310.835 334.278 310.792 334.215 310.749C333.32 310.143 332.416 309.549 331.505 308.964C331.298 308.831 331.088 308.702 330.88 308.57C330.188 308.13 329.493 307.693 328.792 307.266C328.484 307.078 328.173 306.895 327.864 306.709C327.256 306.344 326.646 305.98 326.031 305.624C325.686 305.424 325.339 305.228 324.993 305.031C324.405 304.697 323.814 304.365 323.221 304.039C322.861 303.842 322.499 303.645 322.137 303.451C321.545 303.132 320.95 302.818 320.353 302.508C319.991 302.321 319.63 302.133 319.266 301.948C318.65 301.635 318.03 301.328 317.408 301.023C317.062 300.854 316.717 300.682 316.369 300.515C315.688 300.189 315.002 299.871 314.315 299.555C314.024 299.421 313.735 299.284 313.443 299.152C312.491 298.722 311.533 298.302 310.569 297.893C310.541 297.881 310.515 297.869 310.488 297.857C309.483 297.432 308.473 297.019 307.456 296.616C307.197 296.514 306.936 296.417 306.676 296.316C305.929 296.026 305.182 295.739 304.429 295.46C304.072 295.329 303.713 295.202 303.354 295.073C302.692 294.835 302.029 294.599 301.363 294.37C300.969 294.235 300.573 294.104 300.178 293.972C299.539 293.76 298.899 293.551 298.256 293.347C297.846 293.217 297.435 293.09 297.024 292.964C296.384 292.768 295.743 292.577 295.099 292.39C294.688 292.27 294.277 292.151 293.864 292.035C293.203 291.849 292.538 291.671 291.872 291.495C291.477 291.391 291.083 291.284 290.687 291.183C289.961 290.997 289.23 290.821 288.499 290.648C288.163 290.568 287.827 290.483 287.49 290.406C286.452 290.167 285.411 289.939 284.365 289.724C284.334 289.717 284.302 289.71 284.271 289.703C283.188 289.481 282.101 289.274 281.01 289.077C280.681 289.018 280.35 288.965 280.02 288.908C279.261 288.777 278.501 288.648 277.738 288.529C277.324 288.465 276.908 288.407 276.492 288.345C275.808 288.245 275.123 288.147 274.435 288.057C273.988 287.999 273.541 287.944 273.093 287.89C272.429 287.809 271.764 287.732 271.096 287.661C270.638 287.612 270.179 287.565 269.719 287.521C269.053 287.456 268.386 287.397 267.717 287.342C267.26 287.305 266.802 287.267 266.344 287.234C265.655 287.184 264.963 287.142 264.271 287.102C263.834 287.076 263.398 287.049 262.96 287.028C262.2 286.991 261.436 286.965 260.673 286.94C260.302 286.929 259.933 286.912 259.562 286.903C258.427 286.875 257.289 286.859 256.147 286.859C179.086 286.859 116.391 349.554 116.391 426.621C116.391 427.723 116.407 428.821 116.433 429.917C116.436 430.075 116.439 430.233 116.443 430.391C116.471 431.434 116.511 432.473 116.562 433.51C116.571 433.703 116.581 433.897 116.592 434.091C116.646 435.125 116.711 436.157 116.788 437.185C116.8 437.345 116.814 437.504 116.827 437.664C116.911 438.741 117.004 439.815 117.113 440.884C117.114 440.893 117.115 440.901 117.116 440.91C117.225 441.978 117.349 443.041 117.482 444.102C117.501 444.253 117.518 444.405 117.538 444.556C117.668 445.571 117.811 446.582 117.964 447.59C117.992 447.778 118.021 447.966 118.05 448.154C118.206 449.159 118.371 450.16 118.549 451.157C118.577 451.313 118.606 451.469 118.635 451.626C118.823 452.668 119.021 453.707 119.233 454.74C119.236 454.757 119.24 454.774 119.244 454.791C119.455 455.82 119.68 456.843 119.914 457.864C119.947 458.007 119.979 458.151 120.012 458.294C120.241 459.276 120.481 460.254 120.73 461.228C120.777 461.41 120.823 461.591 120.87 461.772C121.122 462.742 121.384 463.707 121.656 464.668C121.699 464.82 121.743 464.972 121.787 465.124C122.075 466.127 122.371 467.126 122.68 468.12C122.687 468.141 122.694 468.163 122.701 468.185C123.008 469.171 123.329 470.152 123.659 471.129C123.704 471.265 123.748 471.4 123.795 471.536C124.116 472.481 124.449 473.42 124.79 474.356C124.853 474.529 124.916 474.702 124.98 474.875C125.323 475.805 125.675 476.729 126.037 477.65C126.094 477.797 126.154 477.943 126.212 478.09C126.593 479.048 126.981 480.001 127.382 480.949C127.394 480.977 127.406 481.005 127.419 481.034C127.817 481.972 128.227 482.905 128.645 483.833C128.702 483.959 128.757 484.085 128.814 484.21C129.224 485.113 129.645 486.011 130.074 486.904C130.152 487.066 130.23 487.228 130.308 487.39C130.738 488.276 131.175 489.156 131.623 490.032C131.695 490.172 131.768 490.312 131.84 490.452C132.308 491.36 132.783 492.264 133.271 493.159C133.288 493.192 133.307 493.225 133.325 493.258C133.807 494.144 134.301 495.023 134.802 495.897C134.869 496.014 134.935 496.131 135.001 496.247C135.494 497.101 135.997 497.949 136.507 498.791C136.6 498.946 136.694 499.1 136.788 499.254C137.297 500.087 137.814 500.915 138.339 501.737C138.426 501.873 138.515 502.008 138.602 502.145C139.15 502.995 139.705 503.84 140.271 504.677C140.298 504.717 140.326 504.757 140.354 504.798C140.91 505.62 141.477 506.435 142.051 507.244C142.13 507.356 142.209 507.469 142.288 507.58C142.856 508.376 143.432 509.164 144.016 509.948C144.127 510.097 144.239 510.247 144.351 510.395C144.931 511.168 145.52 511.936 146.116 512.696C146.221 512.829 146.326 512.963 146.432 513.096C147.051 513.88 147.677 514.659 148.312 515.429C148.355 515.481 148.399 515.533 148.442 515.585C149.06 516.332 149.688 517.072 150.322 517.807C150.417 517.917 150.51 518.028 150.605 518.137C151.238 518.866 151.88 519.588 152.529 520.304C152.662 520.451 152.795 520.598 152.928 520.744C153.57 521.447 154.219 522.145 154.876 522.835C155.005 522.972 155.135 523.106 155.264 523.241C155.943 523.95 156.627 524.653 157.321 525.347C157.387 525.414 157.455 525.479 157.522 525.546C158.186 526.208 158.857 526.862 159.533 527.51C159.651 527.623 159.767 527.736 159.885 527.848C160.572 528.502 161.268 529.148 161.968 529.788C162.129 529.935 162.29 530.082 162.452 530.229C163.144 530.855 163.842 531.475 164.546 532.087C164.707 532.227 164.869 532.366 165.031 532.505C165.754 533.129 166.483 533.748 167.219 534.356C167.325 534.443 167.432 534.529 167.537 534.616C167.919 534.93 168.306 535.236 168.692 535.546C221.681 537.493 275.805 526.067 322.545 489.622Z" fill="#FFC83C"/>
<path d="M395.862 423.206C395.853 422.817 395.835 422.43 395.822 422.042C395.798 421.296 395.773 420.55 395.737 419.808C395.715 419.335 395.684 418.865 395.656 418.394C395.618 417.741 395.579 417.088 395.532 416.437C395.495 415.926 395.452 415.415 395.41 414.905C395.359 414.301 395.306 413.698 395.249 413.096C395.197 412.558 395.141 412.023 395.083 411.488C395.022 410.921 394.956 410.356 394.888 409.792C394.821 409.231 394.752 408.672 394.677 408.114C394.607 407.587 394.532 407.061 394.456 406.536C394.371 405.949 394.286 405.363 394.194 404.778C394.118 404.302 394.037 403.828 393.957 403.353C393.851 402.728 393.748 402.102 393.634 401.479C393.624 401.423 393.612 401.368 393.602 401.312C376.609 434.845 353.573 465.444 322.549 489.633C275.81 526.079 221.686 537.504 168.695 535.557C168.836 535.67 168.976 535.784 169.117 535.897C169.609 536.29 170.104 536.68 170.602 537.067C170.921 537.315 171.243 537.561 171.565 537.806C172.062 538.184 172.559 538.563 173.06 538.935C173.381 539.173 173.706 539.406 174.029 539.642C174.542 540.016 175.053 540.391 175.571 540.757C175.762 540.892 175.956 541.023 176.147 541.157C177.223 541.911 178.31 542.648 179.408 543.372C179.779 543.616 180.147 543.864 180.521 544.105C180.996 544.412 181.475 544.711 181.954 545.013C182.363 545.27 182.772 545.528 183.184 545.781C183.654 546.07 184.127 546.355 184.601 546.639C185.031 546.896 185.461 547.151 185.894 547.403C186.36 547.676 186.828 547.947 187.299 548.214C187.75 548.471 188.205 548.724 188.659 548.976C189.118 549.23 189.577 549.485 190.04 549.734C190.531 549.998 191.025 550.257 191.52 550.516C191.953 550.743 192.384 550.973 192.82 551.196C193.562 551.574 194.308 551.943 195.057 552.309C195.555 552.552 196.055 552.789 196.556 553.027C197.163 553.314 197.771 553.602 198.383 553.881C198.805 554.073 199.23 554.259 199.654 554.447C200.201 554.69 200.748 554.932 201.299 555.168C201.738 555.356 202.179 555.54 202.621 555.723C203.167 555.95 203.714 556.175 204.263 556.396C204.703 556.573 205.145 556.748 205.588 556.92C206.155 557.141 206.724 557.356 207.294 557.57C207.721 557.73 208.148 557.891 208.577 558.046C209.204 558.274 209.835 558.494 210.466 558.713C210.841 558.843 211.214 558.977 211.591 559.104C212.584 559.439 213.581 559.764 214.583 560.078C214.779 560.139 214.976 560.194 215.172 560.255C216.002 560.51 216.833 560.759 217.669 560.999C218.049 561.108 218.432 561.211 218.814 561.316C219.472 561.499 220.131 561.68 220.793 561.854C221.213 561.964 221.636 562.069 222.058 562.176C222.692 562.335 223.327 562.491 223.964 562.642C224.393 562.744 224.822 562.843 225.253 562.94C225.901 563.087 226.551 563.229 227.203 563.366C227.619 563.454 228.033 563.543 228.449 563.627C229.164 563.771 229.881 563.907 230.6 564.04C230.953 564.105 231.304 564.175 231.658 564.238C232.727 564.427 233.8 564.607 234.877 564.772C234.955 564.784 235.034 564.794 235.112 564.806C236.116 564.958 237.123 565.099 238.133 565.23C238.496 565.277 238.862 565.317 239.226 565.361C239.957 565.45 240.689 565.536 241.423 565.613C241.844 565.657 242.266 565.697 242.688 565.737C243.374 565.803 244.063 565.865 244.752 565.922C245.189 565.957 245.625 565.99 246.063 566.022C246.757 566.071 247.452 566.115 248.148 566.154C248.572 566.178 248.995 566.203 249.419 566.223C250.175 566.259 250.933 566.286 251.692 566.31C252.054 566.321 252.417 566.337 252.78 566.346C253.901 566.372 255.024 566.388 256.151 566.388C333.212 566.388 395.907 503.693 395.907 426.632C395.906 425.487 395.89 424.345 395.862 423.206Z" fill="#F4B934"/>
<path d="M498.162 384.747C498.158 384.403 498.149 384.055 498.144 383.71C498.133 383.009 498.122 382.308 498.105 381.603C498.095 381.192 498.082 380.779 498.07 380.367C498.052 379.721 498.033 379.074 498.011 378.425C497.995 377.985 497.977 377.544 497.96 377.103C497.935 376.475 497.908 375.847 497.879 375.216C497.858 374.761 497.836 374.305 497.812 373.848C497.78 373.222 497.747 372.594 497.711 371.964C497.684 371.506 497.658 371.047 497.629 370.587C497.59 369.949 497.547 369.308 497.504 368.666C497.474 368.213 497.443 367.759 497.41 367.304C497.362 366.64 497.31 365.973 497.258 365.305C497.224 364.871 497.191 364.438 497.155 364.002C497.095 363.271 497.03 362.537 496.964 361.802C496.93 361.427 496.899 361.053 496.864 360.677C496.769 359.644 496.668 358.608 496.562 357.568C496.554 357.489 496.547 357.411 496.539 357.331C496.425 356.212 496.303 355.089 496.177 353.962C496.135 353.589 496.09 353.215 496.047 352.841C495.96 352.084 495.873 351.327 495.78 350.567C495.725 350.113 495.667 349.658 495.61 349.204C495.524 348.517 495.438 347.831 495.348 347.142C495.285 346.658 495.219 346.173 495.153 345.687C495.064 345.024 494.974 344.36 494.881 343.695C494.811 343.194 494.739 342.693 494.667 342.19C494.572 341.532 494.476 340.873 494.377 340.213C494.302 339.708 494.226 339.203 494.149 338.698C494.047 338.032 493.943 337.365 493.838 336.697C493.759 336.196 493.68 335.695 493.599 335.193C493.488 334.509 493.374 333.824 493.26 333.137C493.178 332.648 493.098 332.16 493.014 331.67C492.891 330.945 492.763 330.218 492.635 329.49C492.556 329.038 492.479 328.588 492.398 328.136C492.234 327.217 492.064 326.295 491.893 325.372C491.844 325.111 491.798 324.851 491.749 324.59C491.531 323.423 491.306 322.253 491.077 321.08C490.989 320.633 490.899 320.185 490.81 319.737C490.662 318.993 490.514 318.25 490.363 317.504C490.257 316.987 490.149 316.467 490.041 315.948C489.902 315.272 489.761 314.596 489.618 313.918C489.501 313.368 489.382 312.816 489.263 312.263C489.123 311.616 488.983 310.968 488.841 310.318C488.715 309.749 488.589 309.179 488.461 308.609C488.319 307.974 488.176 307.338 488.031 306.701C487.899 306.122 487.766 305.543 487.632 304.964C487.486 304.334 487.338 303.703 487.19 303.073C487.051 302.485 486.913 301.897 486.772 301.308C486.622 300.683 486.47 300.058 486.318 299.432C486.174 298.84 486.03 298.248 485.883 297.655C485.727 297.023 485.568 296.391 485.409 295.759C485.261 295.17 485.115 294.582 484.965 293.993C484.799 293.342 484.629 292.69 484.46 292.037C484.188 290.99 483.913 289.941 483.634 288.891C483.452 288.204 483.271 287.516 483.085 286.827C482.91 286.181 482.732 285.535 482.555 284.888C482.397 284.314 482.241 283.739 482.082 283.165C481.897 282.497 481.708 281.83 481.52 281.162C481.364 280.608 481.209 280.054 481.051 279.5C480.857 278.819 480.659 278.136 480.462 277.454C480.306 276.915 480.151 276.376 479.993 275.837C479.791 275.143 479.585 274.448 479.379 273.753C479.223 273.227 479.067 272.701 478.909 272.175C478.697 271.468 478.483 270.76 478.268 270.052C478.113 269.544 477.958 269.037 477.802 268.529C477.579 267.803 477.355 267.075 477.128 266.348C476.979 265.87 476.829 265.392 476.679 264.914C476.44 264.155 476.201 263.397 475.959 262.637C475.829 262.228 475.696 261.819 475.564 261.41C475.298 260.581 475.032 259.752 474.761 258.923C474.701 258.738 474.638 258.553 474.578 258.368C473.529 255.166 472.449 251.962 471.338 248.759C471.28 248.593 471.224 248.427 471.166 248.262C470.844 247.337 470.519 246.413 470.192 245.489C470.087 245.193 469.983 244.896 469.878 244.6C469.562 243.712 469.243 242.823 468.923 241.935C468.805 241.61 468.689 241.285 468.571 240.96C468.25 240.077 467.927 239.194 467.603 238.311C467.484 237.988 467.365 237.665 467.245 237.343C466.914 236.448 466.581 235.553 466.245 234.658C466.135 234.365 466.025 234.073 465.915 233.78C465.563 232.849 465.211 231.92 464.855 230.99C464.768 230.764 464.681 230.538 464.594 230.312C464.21 229.313 463.825 228.314 463.435 227.316C463.406 227.241 463.376 227.166 463.347 227.091C460.639 220.163 457.793 213.265 454.818 206.42C454.812 206.405 454.805 206.39 454.799 206.375C454.31 205.25 453.817 204.127 453.321 203.005C453.304 202.965 453.286 202.926 453.268 202.886C452.769 201.757 452.266 200.629 451.759 199.503C451.757 199.498 451.755 199.494 451.753 199.489C447.63 190.328 443.277 181.28 438.712 172.406C439.239 231.915 432.724 310.92 403.121 380.784C403.151 380.882 403.18 380.982 403.21 381.081C403.39 381.665 403.565 382.252 403.738 382.838C403.885 383.335 404.028 383.832 404.17 384.33C404.328 384.885 404.485 385.441 404.637 385.999C404.805 386.615 404.964 387.233 405.124 387.851C405.304 388.547 405.48 389.244 405.65 389.943C405.834 390.696 406.015 391.45 406.187 392.207C406.294 392.681 406.397 393.156 406.5 393.631C406.64 394.277 406.777 394.924 406.909 395.572C407.004 396.039 407.099 396.507 407.19 396.975C407.334 397.718 407.47 398.461 407.604 399.207C407.669 399.569 407.738 399.93 407.8 400.293C407.984 401.366 408.156 402.443 408.317 403.522C408.371 403.882 408.42 404.243 408.471 404.604C408.583 405.386 408.689 406.169 408.789 406.954C408.84 407.363 408.891 407.772 408.939 408.182C409.034 408.984 409.122 409.787 409.205 410.592C409.241 410.933 409.278 411.273 409.311 411.615C409.419 412.741 409.517 413.869 409.601 415C409.618 415.226 409.63 415.453 409.646 415.679C409.711 416.608 409.768 417.538 409.816 418.47C409.836 418.844 409.852 419.217 409.869 419.591C409.906 420.42 409.936 421.25 409.959 422.082C409.969 422.435 409.981 422.786 409.989 423.139C410.014 424.296 410.031 425.455 410.031 426.617C410.031 467.72 394.027 506.361 364.965 535.423C335.898 564.49 297.257 580.495 256.153 580.495C215.05 580.495 176.409 564.49 147.342 535.423C146.838 534.92 146.335 534.411 145.845 533.898C111.385 530.25 77.9519 521.566 47.9492 511.145C48.0716 511.351 48.1954 511.555 48.3183 511.76C48.756 512.491 49.1971 513.221 49.6424 513.948C49.8552 514.295 50.0689 514.641 50.2835 514.987C50.7199 515.691 51.16 516.392 51.6029 517.091C51.7879 517.383 51.971 517.675 52.157 517.966C52.7642 518.915 53.3775 519.859 53.9975 520.799C54.1712 521.062 54.3482 521.323 54.5228 521.586C54.9921 522.291 55.4642 522.994 55.9406 523.694C56.176 524.04 56.4127 524.385 56.65 524.729C57.1042 525.39 57.5627 526.047 58.0235 526.703C58.2358 527.005 58.4467 527.308 58.6599 527.609C59.3067 528.52 59.9591 529.427 60.6181 530.329C60.8022 530.581 60.99 530.831 61.175 531.083C61.6763 531.763 62.1805 532.442 62.6888 533.117C62.9463 533.459 63.2047 533.8 63.4641 534.141C63.9343 534.758 64.4079 535.373 64.8838 535.986C65.1253 536.297 65.3653 536.609 65.6082 536.919C66.2922 537.791 66.9809 538.659 67.6766 539.522C67.8696 539.761 68.0654 539.998 68.2589 540.236C68.7927 540.893 69.3288 541.548 69.8697 542.199C70.1479 542.534 70.4279 542.868 70.708 543.202C71.1952 543.782 71.6852 544.36 72.1781 544.936C72.4459 545.25 72.7128 545.564 72.982 545.876C73.7022 546.71 74.4271 547.54 75.1582 548.363C75.3545 548.584 75.5536 548.803 75.7508 549.023C76.3209 549.66 76.8937 550.295 77.4703 550.927C77.7678 551.253 78.0672 551.577 78.3666 551.901C78.8712 552.448 79.3787 552.991 79.888 553.534C80.1803 553.844 80.4717 554.155 80.7649 554.465C81.5143 555.253 82.2679 556.038 83.0277 556.816C83.2272 557.021 83.4297 557.223 83.6297 557.427C84.2412 558.049 84.8555 558.668 85.4735 559.284C85.7889 559.598 86.1057 559.909 86.4225 560.221C86.9473 560.738 87.4745 561.253 88.0041 561.765C88.3162 562.066 88.6273 562.369 88.9413 562.669C89.6587 563.355 90.3798 564.037 91.1052 564.715C91.3613 564.954 91.6192 565.192 91.8767 565.43C92.5376 566.042 93.2018 566.651 93.8697 567.256C94.1987 567.554 94.5301 567.85 94.8611 568.146C95.4061 568.634 95.9536 569.12 96.5034 569.604C96.8357 569.896 97.1676 570.188 97.5013 570.479C98.2032 571.089 98.9092 571.695 99.6181 572.298C99.8978 572.536 100.178 572.773 100.458 573.009C101.182 573.618 101.909 574.224 102.64 574.825C102.98 575.105 103.323 575.383 103.665 575.661C104.234 576.124 104.805 576.584 105.378 577.041C105.726 577.319 106.074 577.597 106.423 577.873C107.119 578.422 107.818 578.968 108.52 579.51C108.799 579.725 109.077 579.941 109.356 580.155C110.157 580.768 110.961 581.375 111.769 581.977C112.119 582.238 112.47 582.496 112.821 582.754C113.413 583.191 114.007 583.625 114.603 584.056C114.966 584.319 115.33 584.583 115.696 584.844C116.395 585.344 117.097 585.84 117.802 586.332C118.041 586.499 118.278 586.669 118.518 586.835C119.421 587.462 120.329 588.08 121.241 588.694C121.596 588.934 121.953 589.17 122.31 589.408C122.93 589.82 123.55 590.231 124.174 590.638C124.548 590.882 124.922 591.126 125.298 591.369C126.008 591.827 126.72 592.28 127.435 592.731C127.698 592.897 127.959 593.064 128.222 593.229C129.159 593.815 130.101 594.393 131.046 594.965C131.4 595.181 131.756 595.392 132.112 595.605C132.763 595.995 133.416 596.383 134.071 596.767C134.453 596.991 134.835 597.215 135.218 597.437C135.941 597.856 136.668 598.27 137.397 598.682C137.678 598.841 137.959 599.003 138.241 599.161C139.21 599.704 140.184 600.239 141.161 600.769C141.514 600.96 141.868 601.149 142.222 601.339C142.905 601.704 143.589 602.067 144.276 602.427C144.664 602.63 145.052 602.833 145.442 603.034C146.18 603.415 146.921 603.792 147.664 604.166C147.963 604.317 148.261 604.47 148.561 604.619C149.563 605.119 150.569 605.61 151.579 606.096C151.921 606.261 152.265 606.422 152.608 606.585C153.33 606.928 154.053 607.268 154.777 607.604C155.168 607.785 155.559 607.965 155.951 608.144C156.709 608.49 157.47 608.831 158.233 609.17C158.543 609.308 158.852 609.448 159.163 609.585C160.196 610.038 161.234 610.485 162.275 610.925C162.606 611.065 162.939 611.201 163.271 611.339C164.03 611.656 164.791 611.97 165.554 612.279C165.947 612.438 166.34 612.596 166.734 612.753C167.513 613.064 168.294 613.371 169.077 613.673C169.395 613.796 169.712 613.922 170.032 614.044C171.097 614.451 172.166 614.85 173.239 615.243C173.553 615.357 173.868 615.469 174.182 615.582C174.984 615.871 175.788 616.158 176.593 616.439C176.986 616.576 177.379 616.712 177.773 616.847C178.572 617.121 179.374 617.391 180.177 617.657C180.504 617.766 180.83 617.876 181.158 617.983C182.253 618.341 183.352 618.692 184.455 619.035C184.746 619.125 185.038 619.212 185.328 619.301C186.177 619.561 187.027 619.817 187.88 620.068C188.271 620.183 188.662 620.297 189.053 620.41C189.873 620.647 190.696 620.879 191.519 621.108C191.854 621.2 192.188 621.296 192.524 621.387C193.648 621.694 194.776 621.993 195.907 622.284C196.169 622.351 196.433 622.415 196.695 622.482C197.594 622.71 198.494 622.933 199.396 623.151C199.785 623.245 200.174 623.337 200.563 623.429C201.404 623.627 202.247 623.821 203.091 624.01C203.432 624.087 203.772 624.165 204.113 624.24C205.265 624.493 206.42 624.74 207.578 624.977C207.806 625.023 208.036 625.067 208.265 625.113C209.218 625.305 210.172 625.492 211.129 625.672C211.514 625.745 211.9 625.816 212.286 625.887C213.146 626.045 214.008 626.199 214.872 626.347C215.219 626.407 215.565 626.468 215.912 626.527C217.09 626.725 218.27 626.916 219.454 627.097C219.64 627.125 219.826 627.15 220.012 627.179C221.026 627.331 222.043 627.478 223.062 627.617C223.442 627.67 223.823 627.72 224.204 627.77C225.083 627.887 225.963 627.998 226.845 628.105C227.199 628.148 227.552 628.192 227.906 628.234C229.108 628.374 230.311 628.507 231.518 628.63C231.654 628.644 231.791 628.655 231.928 628.669C233.009 628.777 234.093 628.877 235.178 628.971C235.554 629.003 235.93 629.033 236.306 629.064C237.202 629.137 238.1 629.205 238.998 629.268C239.36 629.294 239.721 629.32 240.082 629.344C241.305 629.424 242.529 629.498 243.757 629.561C243.832 629.565 243.908 629.567 243.982 629.571C245.139 629.628 246.298 629.676 247.46 629.717C247.834 629.73 248.209 629.741 248.584 629.753C249.493 629.781 250.403 629.804 251.314 629.822C251.684 629.829 252.054 629.837 252.424 629.843C253.666 629.862 254.908 629.874 256.153 629.874C389.607 629.874 498.183 521.303 498.183 387.85C498.181 386.823 498.174 385.787 498.162 384.747Z" fill="#D3D3D3"/>
<path d="M333.437 40.7961C332.016 39.8067 330.584 38.8375 329.141 37.8899C329.104 37.8654 329.067 37.8414 329.029 37.8169C327.605 36.8835 326.171 35.9713 324.726 35.0816C324.677 35.0515 324.628 35.0213 324.578 34.9917C323.917 34.5855 323.254 34.1844 322.588 33.7881C322.511 33.7424 322.435 33.6963 322.358 33.6511C321.64 33.2246 320.919 32.8028 320.196 32.3877C320.192 32.3853 320.188 32.383 320.184 32.3811C319.5 31.9885 318.813 31.6025 318.125 31.2203C317.998 31.1502 317.871 31.08 317.745 31.0099C316.345 30.2379 314.936 29.4876 313.518 28.7603C313.376 28.6878 313.234 28.6158 313.092 28.5438C312.485 28.2345 311.875 27.929 311.263 27.6278C311.152 27.5732 311.041 27.5171 310.93 27.4625C310.223 27.1166 309.514 26.7767 308.803 26.4425C308.683 26.386 308.561 26.3305 308.441 26.274C307.843 25.9948 307.243 25.7204 306.642 25.4498C306.476 25.3749 306.31 25.2996 306.144 25.2252C305.431 24.9075 304.716 24.594 303.999 24.288C303.972 24.2767 303.945 24.2659 303.919 24.2546C303.236 23.9642 302.551 23.6803 301.865 23.4007C301.682 23.3263 301.498 23.252 301.314 23.1785C300.692 22.9281 300.067 22.6814 299.441 22.4404C299.34 22.4014 299.239 22.3609 299.138 22.3223C298.422 22.0483 297.703 21.7814 296.983 21.5197C296.81 21.4566 296.635 21.3954 296.462 21.3328C295.879 21.1234 295.294 20.9186 294.708 20.7176C294.535 20.6583 294.361 20.598 294.188 20.5392C293.467 20.2949 292.743 20.0567 292.018 19.8251C291.892 19.7851 291.765 19.7465 291.639 19.707C291.025 19.513 290.408 19.3243 289.791 19.1398C289.591 19.08 289.391 19.0202 289.191 18.9614C288.487 18.7547 287.783 18.5528 287.076 18.3588C287.042 18.3499 287.009 18.34 286.976 18.3311C286.239 18.1296 285.5 17.9366 284.758 17.7483C284.559 17.698 284.359 17.6485 284.16 17.5986C283.553 17.448 282.945 17.3011 282.335 17.1594C282.179 17.1232 282.024 17.086 281.868 17.0502C281.128 16.8813 280.385 16.7193 279.641 16.564C279.468 16.5282 279.295 16.4943 279.123 16.459C278.52 16.3362 277.915 16.218 277.31 16.1041C277.109 16.0664 276.909 16.0283 276.709 15.9921C275.956 15.8551 275.202 15.7233 274.446 15.6004C274.362 15.5868 274.277 15.5745 274.193 15.5613C273.512 15.4526 272.83 15.3505 272.146 15.2535C271.934 15.2234 271.721 15.1937 271.508 15.165C270.842 15.0742 270.174 14.989 269.506 14.9099C269.399 14.8972 269.293 14.8831 269.186 14.8708C268.422 14.7828 267.657 14.7037 266.889 14.6307C266.688 14.6114 266.486 14.5945 266.284 14.5761C265.667 14.5206 265.049 14.4702 264.43 14.425C264.243 14.4114 264.057 14.3963 263.871 14.3836C263.1 14.3309 262.327 14.2852 261.552 14.2481C261.4 14.241 261.247 14.2358 261.095 14.2292C260.45 14.201 259.804 14.1784 259.156 14.161C258.941 14.1553 258.726 14.1497 258.511 14.145C257.724 14.1285 256.936 14.1172 256.146 14.1172C176.236 14.1172 115.321 98.8701 86.1267 149.397C85.3886 150.674 84.6557 151.958 83.9265 153.245C83.6295 153.77 83.3348 154.297 83.0392 154.824C82.609 155.589 82.1792 156.355 81.7523 157.123C81.4086 157.742 81.0674 158.362 80.7256 158.983C80.35 159.665 79.9758 160.349 79.603 161.034C79.2448 161.692 78.8875 162.35 78.5316 163.011C78.179 163.665 77.8284 164.32 77.4782 164.976C77.1157 165.655 76.7532 166.334 76.3931 167.015C76.0519 167.661 75.7134 168.31 75.374 168.957C75.0139 169.646 74.6524 170.333 74.2947 171.023C73.9172 171.752 73.5434 172.485 73.1687 173.217C72.5733 174.379 71.982 175.544 71.3941 176.711C71.0415 177.411 70.688 178.111 70.3378 178.814C70.0055 179.481 69.676 180.151 69.346 180.82C69.0015 181.518 68.6569 182.216 68.3151 182.917C67.9946 183.573 67.6759 184.232 67.3572 184.89C67.0028 185.623 66.6497 186.356 66.2981 187.091C66.0006 187.713 65.7036 188.336 65.408 188.959C65.0206 189.777 64.6355 190.596 64.2519 191.415C63.9977 191.958 63.7431 192.5 63.4903 193.044C62.9923 194.116 62.498 195.191 62.0061 196.267C61.8719 196.56 61.7359 196.853 61.6022 197.146C60.947 198.586 60.2974 200.028 59.6539 201.473C59.6351 201.516 59.6167 201.558 59.5979 201.6C58.977 202.995 58.3623 204.392 57.7522 205.791C57.6599 206.002 57.5691 206.214 57.4773 206.426C56.9275 207.691 56.381 208.959 55.8401 210.228C55.7578 210.421 55.6759 210.615 55.5935 210.808C55.015 212.17 54.4407 213.533 53.8725 214.898C53.8467 214.96 53.8203 215.023 53.7939 215.085C53.1768 216.57 52.5653 218.056 51.9609 219.544C111.954 115.49 211.2 -4.88244 333.437 40.7961Z" fill="white"/>
</svg>
