<svg width="757" height="757" viewBox="0 0 757 757" fill="none" xmlns="http://www.w3.org/2000/svg">
<path d="M350.135 599.698C341.917 594.958 333.779 590.098 325.654 585.221C317.469 580.447 309.317 575.605 300.943 571.21C296.771 568.998 292.551 566.847 288.159 565.201C285.965 564.377 283.719 563.719 281.419 563.34C279.12 562.969 276.771 562.782 274.427 562.726C265.012 562.563 255.682 565.097 247.057 568.974C251.265 566.794 255.69 564.985 260.284 563.717C264.878 562.453 269.644 561.763 274.433 561.717C276.827 561.704 279.221 561.842 281.604 562.221C283.988 562.593 286.32 563.256 288.568 564.079C293.072 565.726 297.341 567.856 301.556 570.051C309.921 574.567 318.089 579.396 326.171 584.359C334.195 589.42 342.205 594.5 350.135 599.698Z" fill="#3B3734"/>
<path d="M350.455 596.221C348.09 590.671 345.127 585.398 341.684 580.471C338.271 575.526 334.36 570.928 329.996 566.818C325.612 562.74 320.9 558.994 315.74 555.947C314.476 555.147 313.114 554.513 311.808 553.787L309.828 552.731L307.772 551.832C306.395 551.249 305.041 550.606 303.646 550.071L299.393 548.644C288.05 544.773 275.789 544.054 263.928 545.599C257.971 546.329 252.125 547.841 246.435 549.762C240.736 551.672 235.204 554.122 229.994 557.163C235.053 553.865 240.56 551.282 246.219 549.155C251.904 547.098 257.774 545.461 263.783 544.6C265.271 544.292 266.793 544.23 268.299 544.045C269.809 543.881 271.319 543.733 272.84 543.74C274.358 543.71 275.876 543.654 277.394 543.648L281.944 543.904C283.466 543.938 284.968 544.174 286.472 544.395C287.973 544.629 289.491 544.777 290.978 545.083L295.418 546.125C296.155 546.309 296.904 546.453 297.632 546.669L299.793 547.395L304.107 548.875C305.522 549.428 306.894 550.089 308.288 550.691L310.371 551.618L312.375 552.704C313.699 553.449 315.075 554.104 316.354 554.924C321.559 558.066 326.364 561.849 330.694 566.095C339.342 574.597 346.181 584.934 350.455 596.221Z" fill="#3B3734"/>
<path d="M356.449 601.437C358.251 595.952 362.557 591.531 367.569 588.717C372.649 585.892 378.446 584.668 384.171 584.198C389.919 583.74 395.702 583.983 401.413 584.737C407.133 585.499 412.702 586.916 418.311 587.84C423.902 588.842 429.594 589.109 435.255 588.632C440.918 588.186 446.51 587.039 452.013 585.579C457.516 584.101 462.913 582.213 468.237 580.14C473.578 578.105 478.83 575.83 484.106 573.612C473.797 578.56 463.336 583.335 452.285 586.551C441.294 589.776 429.509 591.183 418.093 589.133C412.416 588.156 406.877 586.705 401.25 585.918C395.625 585.116 389.913 584.905 384.241 585.201C378.594 585.543 372.901 586.634 367.873 589.28C362.862 591.858 358.528 596.069 356.449 601.437Z" fill="#3B3734"/>
<path d="M358.709 601.881C359.729 603.57 361.18 604.937 362.825 605.971C364.476 607.001 366.289 607.745 368.146 608.33C369.999 608.937 371.898 609.397 373.811 609.845C375.721 610.301 377.636 610.73 379.552 611.148C387.212 612.805 394.952 614.183 402.758 614.352C406.655 614.468 410.552 614.303 414.424 613.798C418.3 613.321 422.137 612.525 425.985 611.76L437.521 609.33C441.378 608.563 445.224 607.752 449.089 607.023C441.482 609.032 433.855 610.916 426.203 612.746C418.563 614.575 410.668 615.898 402.722 615.662C394.795 615.379 386.973 614.002 379.326 612.127C377.416 611.649 375.509 611.16 373.61 610.646C371.712 610.136 369.798 609.621 367.938 608.934C366.081 608.246 364.266 607.394 362.634 606.258C361.817 605.692 361.069 605.03 360.389 604.311C359.724 603.573 359.172 602.747 358.709 601.881Z" fill="#3B3734"/>
<path d="M359.417 630.523C362.02 628.001 365.441 626.432 368.946 625.517C372.48 624.63 376.131 624.353 379.75 624.308C383.35 624.348 386.907 624.098 390.542 624.052C394.162 623.994 397.811 624.159 401.414 624.737C408.617 625.912 415.539 628.87 421.322 633.285C427.135 637.671 431.901 643.352 435.295 649.709C433.352 646.676 431.195 643.788 428.738 641.182C426.321 638.541 423.632 636.161 420.725 634.1C417.82 632.039 414.708 630.268 411.435 628.894C408.159 627.523 404.711 626.586 401.203 626.031C397.699 625.43 394.129 625.227 390.551 625.245C386.985 625.231 383.347 625.512 379.744 625.313C376.171 625.236 372.581 625.399 369.092 626.14C365.602 626.835 362.213 628.231 359.417 630.523Z" fill="#3B3734"/>
<path d="M351.632 644.966C360.112 648.632 369.414 649.887 378.541 649.528C387.699 649.176 396.73 647.251 405.512 644.604C414.312 642.009 423.005 638.883 431.631 635.73C435.925 634.106 440.149 632.291 444.158 630.061C446.16 628.947 448.115 627.741 449.978 626.399C451.825 625.035 453.59 623.559 455.251 621.959C452.153 625.382 448.433 628.215 444.48 630.618C440.496 632.984 436.278 634.921 432.001 636.669C427.724 638.428 423.365 639.931 419.03 641.498C414.684 643.042 410.314 644.535 405.884 645.861C397.016 648.42 387.864 650.393 378.569 650.533C373.933 650.595 369.288 650.247 364.735 649.381C360.197 648.455 355.753 647.041 351.632 644.966Z" fill="#3B3734"/>
<path d="M363.942 656.049C366.073 653.242 368.5 650.663 371.07 648.237C373.668 645.842 376.447 643.638 379.343 641.606C385.15 637.55 391.485 634.299 397.996 631.548C404.552 628.894 411.289 626.729 418.111 624.951C421.525 624.07 424.952 623.255 428.388 622.483C431.834 621.753 435.275 621.016 438.735 620.361L428.541 623.108C425.14 624.005 421.748 624.928 418.38 625.924C411.641 627.896 404.951 630.037 398.496 632.76C392.006 635.383 385.762 638.609 379.906 642.438C374.053 646.268 368.637 650.799 363.942 656.049Z" fill="#3B3734"/>
<path d="M365.321 664.312C367.848 666.328 370.929 667.491 374.072 667.912C377.22 668.374 380.424 668.137 383.543 667.519C386.662 666.884 389.737 665.996 392.806 665.03C395.878 664.081 398.934 663.08 401.981 662.053C408.102 660.082 414.153 657.9 420.187 655.672C426.224 653.447 432.21 651.082 438.204 648.71C435.322 650.156 432.389 651.492 429.457 652.835C426.508 654.138 423.535 655.387 420.552 656.613C414.576 659.042 408.501 661.222 402.393 663.297C399.324 664.29 396.246 665.257 393.152 666.17C390.064 667.081 386.944 668.014 383.718 668.508C380.506 669.02 377.184 669.152 373.966 668.542C370.777 667.9 367.659 666.56 365.321 664.312Z" fill="#3B3734"/>
<path d="M353.857 586.561C350.73 583.357 346.868 581.07 342.96 578.964C339.046 576.841 335.103 574.776 331.088 572.856C323.076 568.98 314.932 565.378 306.698 561.978C298.504 558.481 290.22 555.182 282.022 551.662C277.924 549.902 273.84 548.103 269.783 546.249C265.74 544.362 261.718 542.428 257.76 540.373C261.847 542.159 265.915 543.975 270.042 545.661C274.147 547.393 278.268 549.085 282.41 550.729C290.679 554.053 298.958 557.361 307.205 560.77C315.409 564.276 323.59 567.873 331.537 571.957C335.512 573.993 339.417 576.164 343.277 578.408C347.084 580.703 350.944 583.148 353.857 586.561Z" fill="#3B3734"/>
<path d="M343.829 623.024C341.929 619.615 339.69 616.414 337.15 613.478C334.641 610.521 331.831 607.822 328.75 605.489C325.662 603.169 322.362 601.141 318.858 599.536C315.381 597.843 311.621 596.891 307.878 596.028C300.322 594.573 292.427 594.919 284.978 596.976C281.231 597.931 277.593 599.325 274.109 601.035C270.603 602.701 267.245 604.699 264.119 607.035C267.063 604.464 270.378 602.337 273.818 600.461C277.278 598.617 280.923 597.096 284.705 596.004C288.47 594.864 292.386 594.171 296.329 593.998C300.275 593.692 304.231 594.119 308.13 594.741C315.873 596.34 323.242 599.736 329.372 604.7C335.498 609.652 340.484 615.968 343.829 623.024Z" fill="#3B3734"/>
<path d="M312.026 572.25C312.901 575.73 314.932 581.878 319.901 587.999C324.387 593.525 329.344 596.661 332.418 598.293C328.828 595.89 324.683 593.386 319.982 590.975C315.701 588.778 311.292 586.828 306.785 585.141C313.802 590.806 320.25 597.177 325.998 604.125C316.132 593.418 300.114 590.033 290.395 579.19C287.551 576.017 285.057 572.086 280.999 570.789C291.153 592.511 310.983 607.853 330.097 622.332C318.322 616.897 306.323 611.313 296.87 602.434C291.355 597.256 286.868 591.098 282.416 584.982C287.055 595.929 293.75 606.001 302.046 614.518C307.43 620.045 313.694 625.24 316.28 632.509C310.247 629.441 304.57 625.672 299.401 621.301C302.583 625.602 305.359 630.202 307.684 635.019C304.374 634.835 297.895 634.032 291.026 629.997C283.574 625.621 279.598 619.755 277.901 616.872C278.857 623.649 281.469 635.018 289.713 645.746C301.041 660.488 316.103 665.045 330.4 669.371C342.231 672.951 377.033 683.48 406.522 665.433C411.831 662.184 415.761 658.747 418.334 656.246C402.764 661.403 390.046 661.92 381.585 661.495C369.665 660.898 359.202 658.081 359.273 657.558C359.325 657.176 364.915 658.757 371.567 656.948C381.065 654.366 387.898 646.184 386.835 644.433C385.928 642.94 379.992 647.314 371.085 647.058C363.033 646.827 356.405 642.921 351.64 639.088C361.838 640.613 374.979 640.613 388.319 635.119C396.141 631.899 403.836 627.806 409.467 621.493C408.264 623.03 406.02 623.142 404.069 623.122C398.113 623.06 392.157 622.997 386.202 622.935C380.286 622.873 374.193 622.777 368.748 620.464C374.364 617.513 382.397 612.927 391.434 606.376C394.411 604.218 410.933 592.241 409.535 589.79C408.127 587.325 392.073 600.631 368.529 600.469C344.79 600.305 326.957 586.541 323.837 584.061C318.483 579.804 314.617 575.502 312.026 572.25Z" fill="#3B3734"/>
<path d="M525.404 117.145C524.026 133.314 522.648 149.484 521.27 165.653C520.81 171.06 520.351 176.468 519.892 181.888C518.947 192.965 517.976 204.161 514.589 214.753C504.837 245.294 476.712 266.371 461.159 294.222C459.308 297.543 457.629 300.955 456.185 304.498C459.203 300.102 462.458 295.849 465.923 291.794C478.26 277.318 493.288 265.138 510.022 256.121C508.801 262.29 507.646 268.458 506.57 274.653C500.441 309.643 496.543 345.001 494.902 380.49C494.535 388.233 494.285 396.003 493.918 403.786C492.934 425.337 491.135 446.835 484.18 467.151C477.551 486.536 465.044 504.95 448.258 516.027C441.105 520.752 433.165 524.151 424.555 525.713C440.527 525.254 456.435 522.812 471.816 518.468C470.018 518.98 455.831 549.141 452.261 553.091C442.785 563.551 431.078 571.583 418.268 577.384C397.584 586.742 369.943 594.171 347.514 587.004C305.909 573.696 278.36 521.723 272.047 476.181C270.433 464.539 270.21 453.318 271.483 443.277C286.931 455.956 304.268 466.324 322.734 473.949C305.134 451.52 287.534 429.09 269.921 406.647C283.859 383.626 295.067 358.992 303.402 333.425C310.778 310.838 315.923 287.529 318.731 263.931C322.353 233.574 322.117 202.77 317.839 172.505C324.532 189.685 336.712 204.674 352.147 214.74C347.514 193.399 342.88 172.059 338.235 150.719C336.187 141.296 334.14 131.465 336.424 122.094C339.692 108.628 350.703 99.4281 361.702 90.3983C365.154 87.5504 368.618 84.7284 371.834 81.8017C388.45 66.6428 399.75 46.6019 414.541 29.6446C429.333 12.7007 450.043 -1.85437 472.447 0.19279C496.255 2.35811 514.971 23.2262 522.176 46.0104C529.38 68.7941 527.425 93.3368 525.404 117.145Z" fill="#3B3734"/>
<path d="M510.021 256.122C508.801 262.291 507.646 268.459 506.57 274.654C492.763 279.628 479.074 285.232 465.923 291.795C478.26 277.318 493.288 265.139 510.021 256.122Z" fill="#514D4C"/>
<path d="M521.269 165.651C520.81 171.059 520.35 176.466 519.891 181.887C518.946 192.964 517.975 204.159 514.588 214.751C504.837 245.292 476.711 266.37 461.158 294.22C441.327 304.523 422.861 317.109 407.203 333.017C398.226 342.125 390.01 352.808 387.713 365.382C386.506 355.958 377.726 349.75 370.612 343.45C350.19 325.352 339.559 299.024 325.818 275.439C323.547 271.541 321.171 267.708 318.73 263.929C322.352 233.571 322.117 202.768 317.838 172.503C324.531 189.683 336.711 204.672 352.146 214.738C347.513 193.397 342.88 172.057 338.234 150.717C336.187 141.293 334.139 131.463 336.423 122.092C339.691 108.626 350.702 99.4259 361.701 90.3961C371.374 120.097 379.984 150.165 387.491 180.496C393.79 205.906 399.303 231.498 404.041 257.236C407.191 241.447 420.945 230.304 434.057 220.973C462.117 200.957 491.371 182.766 521.269 165.651Z" fill="#514D4C"/>
<path d="M493.918 403.786C492.934 425.336 491.135 446.834 484.18 467.151C477.551 486.536 465.044 504.949 448.258 516.027C419.384 519.19 391.324 525.936 365.245 538.903C363.972 531.815 357.961 526.645 352.16 522.366C327.38 504.031 299.543 490.342 272.047 476.181C270.433 464.539 270.21 453.318 271.483 443.277C286.931 455.956 304.268 466.324 322.734 473.95C305.134 451.52 287.534 429.09 269.921 406.647C283.859 383.626 295.067 358.992 303.402 333.425C324.546 374.243 348.445 413.63 374.878 451.231C414.554 435.416 454.242 419.601 493.918 403.786Z" fill="#514D4C"/>
<path opacity="0.1" d="M356.784 580.051C345.902 560.285 337.617 539.09 332.209 517.183C335.879 522.802 340.899 527.533 346.724 530.864C344.643 507.956 342.562 485.048 340.481 462.14C345.837 470.764 351.195 479.388 356.552 488.012C353.497 457.595 344.206 427.818 329.422 401.061C335.401 411.463 341.38 421.866 347.359 432.268C346.307 405.638 343.031 379.098 337.575 353.012C344.157 369.495 352.077 385.442 361.232 400.647C345.718 346.317 367.779 289.022 369.863 232.558C370.45 241.948 374.409 251.092 380.854 257.945C378.055 221.27 384.674 183.913 399.906 150.433C396.051 157.686 397.918 167.504 404.167 172.837C411.264 122.149 446.053 76.2209 492.924 55.6608C467.308 90.3648 452.119 132.664 449.807 175.736C455.65 167.161 461.492 158.587 467.335 150.012C459.177 178.456 446.674 205.649 430.391 230.357C438.925 221.763 447.459 213.169 455.992 204.574C444.237 236.141 429.559 266.619 412.208 295.491C419.229 292.348 426.25 289.205 433.271 286.062C427.064 305.261 419.388 323.984 410.333 342.015C417.232 336.719 424.131 331.423 431.03 326.127C412.39 359.37 414.072 399.82 416.461 437.858C417.253 450.483 418.048 463.341 415.024 475.624C410.171 495.342 396.084 511.397 388.103 530.069C395.895 525.914 402.899 520.288 408.634 513.574C405.419 528.525 396.523 542.182 384.147 551.166C386.577 550.977 389.005 550.788 391.434 550.6C383.048 563.694 372.092 575.135 359.372 584.079C355.875 577.711 352.377 571.343 348.879 564.974L356.784 580.051Z" fill="white"/>
<path d="M445.206 116.308C437.304 129.128 430.798 142.789 425.334 156.827C414.414 184.955 407.56 214.459 401.873 243.971C390.457 303.048 383.035 362.777 375.036 422.24C367.042 481.696 358.484 541.043 344.849 599.111C332.182 653.701 314.801 707.191 290.241 757C298.213 755.15 306.172 753.257 314.054 751.128C334.619 703.163 348.96 652.923 359.27 602.278C371.478 543.031 378.431 483.128 384.808 423.418C391.186 363.696 396.956 303.988 406.718 244.839C411.576 215.306 417.574 185.878 427.639 157.69C432.677 143.62 438.757 129.894 446.262 116.94C453.755 103.992 462.703 91.832 473.195 81.0842C462.414 91.5396 453.097 103.493 445.206 116.308Z" fill="#3B3734"/>
<g opacity="0.1">
<path d="M390.69 88.0604C391.18 102.93 393.44 117.688 397.44 132.018C397.187 131.113 397.473 129.685 397.473 128.737C397.473 127.736 397.712 126.43 397.44 125.456C393.461 111.202 391.195 96.5231 390.707 81.7322C390.693 81.3043 390.673 82.274 390.682 82.063C390.654 82.7137 390.668 83.3731 390.666 84.0238C390.663 85.3684 390.645 86.7163 390.69 88.0604Z" fill="white"/>
</g>
<g opacity="0.1">
<path d="M375.506 120.486C378.211 141.063 383.1 161.311 390.083 180.856C389.79 180.036 390.116 178.456 390.116 177.574C390.116 176.626 390.408 175.201 390.083 174.293C383.1 154.749 378.211 134.501 375.506 113.923C375.787 116.066 375.222 118.33 375.506 120.486Z" fill="white"/>
</g>
<g opacity="0.1">
<path d="M361.683 182.745C368.251 201.358 374.819 219.97 381.386 238.582C381.096 237.758 381.419 236.187 381.419 235.301C381.419 234.35 381.708 232.931 381.386 232.02C374.819 213.407 368.251 194.795 361.683 176.182C361.974 177.006 361.65 178.578 361.65 179.463C361.65 180.416 361.362 181.833 361.683 182.745Z" fill="white"/>
</g>
<g opacity="0.1">
<path d="M354.516 250.706C360.674 265.277 366.608 279.942 372.314 294.695C372.01 293.909 372.347 292.27 372.347 291.414C372.347 290.487 372.655 289.014 372.314 288.133C366.608 273.379 360.674 258.715 354.516 244.144C354.832 244.891 354.483 246.6 354.483 247.425C354.483 248.327 354.158 249.859 354.516 250.706Z" fill="white"/>
</g>
<g opacity="0.1">
<path d="M328.358 230.6C333.366 245.265 338.374 259.93 343.383 274.595C343.097 273.758 343.416 272.209 343.416 271.314C343.416 270.354 343.697 268.954 343.383 268.033C338.374 253.368 333.366 238.703 328.358 224.037C328.644 224.875 328.325 226.423 328.325 227.319C328.325 228.278 328.043 229.678 328.358 230.6Z" fill="white"/>
</g>
<g opacity="0.1">
<path d="M320.827 314.768C328.472 333.993 336.118 353.217 343.763 372.442C343.455 371.667 343.796 370.007 343.796 369.161C343.796 368.241 344.109 366.75 343.763 365.88C336.118 346.655 328.472 327.43 320.827 308.206C321.135 308.981 320.794 310.64 320.794 311.487C320.794 312.407 320.481 313.898 320.827 314.768Z" fill="white"/>
</g>
<g opacity="0.1">
<path d="M321.709 379.507C329.166 393.572 336.172 407.87 342.717 422.381C342.654 422.24 342.74 421.477 342.74 421.42C342.75 420.647 342.75 419.874 342.75 419.1C342.75 418.219 343.087 416.64 342.717 415.819C336.172 401.308 329.166 387.009 321.709 372.945C321.771 373.061 321.686 373.886 321.686 373.906C321.677 374.679 321.676 375.453 321.676 376.226C321.676 376.999 321.677 377.773 321.686 378.546C321.689 378.788 321.599 379.3 321.709 379.507Z" fill="white"/>
</g>
<g opacity="0.1">
<path d="M328.97 444.979C337.815 460.673 345.843 476.815 353.017 493.34C352.953 493.193 353.04 492.444 353.041 492.379C353.05 491.606 353.05 490.832 353.05 490.059C353.05 489.166 353.381 487.615 353.017 486.778C345.843 470.253 337.815 454.111 328.97 438.417C329.03 438.524 328.946 439.372 328.946 439.378C328.938 440.151 328.937 440.925 328.937 441.698C328.937 442.471 328.937 443.245 328.946 444.018C328.949 444.254 328.858 444.781 328.97 444.979Z" fill="white"/>
</g>
<g opacity="0.1">
<path d="M504.427 109.562C504.848 109.842 505.009 110.023 505.031 110.583C505.033 108.434 505.036 106.286 505.039 104.137C504.734 106.043 502.976 107.385 501.727 108.721C500.172 110.384 498.617 112.047 497.062 113.711C493.878 117.116 490.694 120.522 487.51 123.928C481.142 130.74 474.774 137.551 468.406 144.362C468.04 144.753 468.373 147.095 468.373 147.644C468.373 148.417 468.373 149.191 468.383 149.964C468.384 150.12 468.489 150.836 468.406 150.925C475.959 142.846 483.511 134.767 491.064 126.689C494.767 122.729 498.469 118.768 502.171 114.808C503.666 113.209 505.035 112.023 505.062 109.739C505.08 108.192 505.08 106.645 505.062 105.098C505.052 104.272 505.19 103.508 504.426 103C504.658 103.154 504.393 105.916 504.393 106.281C504.394 106.704 504.074 109.328 504.427 109.562Z" fill="white"/>
</g>
<g opacity="0.1">
<path d="M498.816 141.601C480.026 157.723 462.307 175.068 445.788 193.511C445.419 193.923 445.755 196.227 445.755 196.792C445.755 197.565 445.756 198.339 445.765 199.112C445.767 199.272 445.873 199.979 445.788 200.073C462.307 181.63 480.026 164.285 498.816 148.163C499.154 147.873 498.849 145.352 498.849 144.882C498.849 144.415 498.478 141.892 498.816 141.601Z" fill="white"/>
</g>
<g opacity="0.1">
<path d="M468.712 215.541C451.896 235.033 435.78 255.123 420.4 275.766C420.021 276.275 420.367 278.407 420.367 279.047C420.367 279.821 420.368 280.594 420.377 281.368C420.379 281.547 420.49 282.207 420.4 282.329C435.78 261.685 451.896 241.595 468.712 222.104C469.084 221.672 468.745 219.403 468.745 218.822C468.745 218.049 468.744 217.275 468.735 216.502C468.733 216.338 468.626 215.641 468.712 215.541Z" fill="white"/>
</g>
<g opacity="0.1">
<path d="M443.82 311.318C432.725 324.402 422.666 338.334 413.739 352.983C413.362 353.601 413.706 355.539 413.706 356.264C413.706 357.037 413.706 357.811 413.716 358.584C413.718 358.786 413.832 359.393 413.739 359.545C422.666 344.896 432.725 330.964 443.82 317.881C444.193 317.441 443.853 315.186 443.853 314.6C443.853 313.826 443.853 313.053 443.844 312.279C443.842 312.113 443.734 311.42 443.82 311.318Z" fill="white"/>
</g>
<g opacity="0.1">
<path d="M463.765 331.24C443.194 360.617 425.329 391.872 410.488 424.521C406.284 433.771 402.327 443.132 398.609 452.587C398.282 453.419 398.577 454.977 398.577 455.868C398.577 456.641 398.577 457.415 398.586 458.188C398.589 458.436 398.695 458.931 398.609 459.149C411.733 425.774 427.916 393.616 446.933 363.209C452.321 354.595 457.938 346.126 463.765 337.803C464.145 337.26 463.798 335.188 463.798 334.522C463.798 333.748 463.797 332.975 463.788 332.201C463.786 332.015 463.674 331.372 463.765 331.24Z" fill="white"/>
</g>
<g opacity="0.1">
<path d="M459.822 418.071C458.909 412.446 460.342 412.83 459.247 415.277C458.972 415.89 458.629 416.472 458.277 417.044C457.431 418.419 456.519 419.757 455.63 421.104C453.882 423.752 452.114 426.387 450.326 429.007C446.692 434.333 442.977 439.604 439.181 444.816C431.71 455.074 423.928 465.107 415.849 474.893C411.223 480.498 406.498 486.019 401.683 491.461C401.313 491.879 401.65 494.173 401.65 494.742C401.65 495.516 401.651 496.289 401.66 497.063C401.662 497.225 401.768 497.928 401.683 498.024C420.198 477.096 437.33 454.954 452.907 431.755C455.006 428.629 457.481 425.492 459.121 422.097C459.851 420.587 459.951 419.185 459.961 417.541C459.973 415.565 460.14 413.471 459.822 411.509C460.166 413.631 459.475 415.932 459.822 418.071Z" fill="white"/>
</g>
</svg>
