<svg width="414" height="628" viewBox="0 0 414 628" fill="none" xmlns="http://www.w3.org/2000/svg">
<path d="M112.762 96.1484C115.354 101.668 117.956 107.494 119.213 113.49C120.302 118.68 120.573 124.206 119.135 129.351C117.383 135.61 113.462 140.988 110.006 146.393C103.269 156.925 98.372 168.315 101.164 180.943L100.63 180.788C95.958 173.684 92.1052 165.291 91.4752 156.724C91.0599 151.074 91.6064 145.696 94.4112 140.675C96.2266 137.425 98.7452 134.655 101.151 131.844C111.569 119.667 114.003 112.076 112.762 96.1484Z" fill="#F96D00"/>
<path d="M268.865 67.9609C269.389 68.7677 268.613 69.9447 268.285 70.8487C266.6 75.4825 265.41 81.0147 265.807 85.9609C266.46 94.0825 270.669 102.342 273.402 109.966C276.785 119.403 279.055 129.275 276.494 139.227C275.438 143.33 273.602 147.131 271.807 150.946L270.301 144.663C268.676 139.389 266.85 134.529 264.006 129.778C261.58 125.725 258.648 121.981 256.307 117.876C251.453 109.369 249.906 99.6834 252.615 90.1678C255.216 81.0294 260.431 72.6606 268.865 67.9609Z" fill="#F96D00"/>
<path d="M237.294 4.50781L237.654 5.25629C236.267 7.01858 234.311 8.39776 232.583 9.82356L224.323 16.768C220.911 19.6822 217.79 22.9725 214.781 26.2961C202.866 39.4538 192.158 54.6714 184.613 70.7935C180.619 79.3276 177.573 88.281 175.051 97.3458C171.196 111.201 169.024 125.86 170.733 140.239C171.618 147.687 173.071 155.118 175.095 162.343L182.833 187.226C191.104 216.503 189.496 249.335 181.292 278.464L173.749 264.272C167.736 254.06 160.716 244.295 153.42 234.971C149.938 230.519 146.466 225.938 142.352 222.042C146.787 248.214 136.673 276.361 124.732 299.317C118.688 310.936 111.803 321.981 106.342 333.92C102.473 342.378 99.7149 351.134 97.2588 360.088C83.6262 349.229 75.2476 334.966 71.0605 318.224C69.6238 312.48 68.8654 306.642 68.1727 300.773C66.8447 289.519 68.8184 277.442 71.0456 266.436C71.8414 262.503 73.3326 258.126 73.5337 254.165L76.1992 245.928C74.2098 248.049 72.4314 251.31 71.0273 253.869C68.0967 255.911 66.6505 259.104 64.8447 262.091C55.3462 277.802 49.1529 295.932 45.9036 313.977C41.9489 335.939 41.1482 358.461 44.4016 380.565C45.4857 387.928 46.9155 395.444 49.1936 402.538C53.0505 414.55 58.7417 425.541 65.9308 435.884C68.9313 440.201 72.3797 444.105 76.1075 447.799C77.8786 449.554 79.8304 451.553 81.9427 452.874C78.3449 463.854 75.9817 475.448 75.6779 487.023C75.6676 491.951 75.51 497.017 76.0088 501.924C77.8866 520.403 86.2127 536.318 99.1991 549.394L101.508 551.582L101.113 551.457C98.853 550.708 97.0397 549.263 95.0892 547.939C89.4265 544.095 84.782 540.038 79.7725 535.427C82.2253 542.843 84.3089 550.281 87.4278 557.469C89.383 561.976 91.9268 566.117 93.9978 570.536C104.567 585.738 117.17 598.814 133.269 608.231C142.245 613.48 152.04 617.374 161.897 620.608L172.702 623.638C175.611 624.339 179.422 624.697 181.913 626.326C176.72 626.16 171.254 624.911 166.173 623.912C141.805 619.12 118.412 610.339 96.659 598.396C89.7247 594.59 82.7076 590.563 76.2451 585.991C37.4573 558.551 9.91957 519.608 1.87695 472.293C-1.61979 451.721 -0.15101 431.35 5.61762 411.355C6.44057 408.504 7.28944 403.876 8.99814 401.466C9.53645 406.226 10.492 410.785 11.7805 415.397C17.6212 436.309 30.8957 455.145 48.4171 467.89C50.486 469.394 52.433 471.201 54.6581 472.452L47.5547 462.553C41.4252 453.551 36.7391 444.032 32.6886 433.942C20.4444 403.441 17.2856 370.49 23.4885 338.208C31.5448 296.28 55.1415 251.297 91.0761 226.92C85.0165 235.336 82.0684 245.796 80.1396 255.862C76.2066 276.39 78.2767 298.881 90.2354 316.474L108.774 278.121C122.029 247.487 124.438 208.816 112.072 177.524C124.334 185.149 135.942 194.296 146.26 204.387L158.526 217.424C159.906 210.761 159.527 203.5 158.847 196.76C157.44 182.806 153.272 170.116 149.859 156.652C144.601 135.907 145.526 114.301 152.483 94.0471C160.161 71.6921 174.261 53.0438 191.242 36.9053C205.155 23.6823 219.973 12.909 237.294 4.50781Z" fill="#E53500"/>
<path d="M93.9996 570.536C89.0649 569.855 83.6583 565.555 79.622 562.769C65.5898 553.088 53.8702 540.073 44.2487 526.097C40.005 519.933 35.9131 513.404 32.7982 506.583C25.949 491.583 21.8351 476.041 18.8984 459.898C32.3292 479.799 52.0329 491.993 75.3089 497.052C75.8003 494.945 75.3905 491.959 75.3803 489.759C75.3756 488.815 75.2341 487.888 75.6794 487.024C75.6691 491.952 75.5115 497.018 76.0103 501.925C77.8881 520.404 86.2141 536.319 99.2005 549.395L101.51 551.583L101.115 551.457C98.8545 550.708 97.0412 549.263 95.0906 547.939C89.428 544.095 84.7834 540.039 79.7739 535.428C82.2267 542.843 84.3104 550.281 87.4292 557.47C89.385 561.976 91.9288 566.117 93.9996 570.536Z" fill="#F96D00"/>
<path d="M237.295 4.50968L246.759 0C228.122 24.6004 220.368 53.8054 224.565 84.4206C226.878 101.291 231.865 117.625 238.763 133.163C241.841 140.099 245.112 146.88 249.143 153.323C255.815 163.988 263.722 173.353 271.482 183.198C287.867 203.986 303.263 224.776 312.211 249.966C313.846 254.566 315.503 259.137 316.464 263.932C316.587 264.547 316.52 264.302 316.765 264.895C323.958 245.465 325.792 223.056 325.026 202.486C324.786 196.022 324.485 189.431 323.485 183.034C329.477 191.137 334.22 200.074 338.438 209.199C346.383 226.384 351.785 244.105 351.992 263.177C352.065 269.966 351.25 276.882 350.246 283.589C349.059 291.514 347.083 299.438 344.768 307.106C342.101 315.941 339.042 324.536 337.681 333.713C336.579 341.147 336.785 348.898 337.854 356.314C338.146 358.342 338.245 362.701 339.194 364.348L339.387 364.607C339.841 357.188 341.894 350.484 344 343.409C350.953 320.055 363.124 299.637 379.522 281.675C384.062 276.703 389.055 272.123 393.996 267.556C393.212 270.74 391.636 274.047 390.547 277.182C383.735 300.217 381.079 323.772 385.12 347.616C387.826 363.584 393.044 378.826 398.77 393.924C403.495 406.384 409.203 418.561 411.817 431.724C414.291 444.182 414.401 456.815 413.268 469.42C408.035 527.577 366.778 573.909 317.246 600.899C304.578 607.802 291.217 612.817 277.464 617.102C273.462 618.349 269.343 619.825 265.217 620.583C260.543 622.082 255.588 622.981 250.778 623.949C231.411 627.847 211.25 628.86 191.568 627.297C188.734 627.072 184.792 627.245 182.144 626.447L181.915 626.328C179.424 624.699 175.612 624.341 172.704 623.64L161.898 620.61C152.042 617.376 142.246 613.482 133.271 608.232C117.172 598.816 104.568 585.74 93.9996 570.538C91.9288 566.119 89.385 561.978 87.4296 557.471C84.3107 550.283 82.2271 542.845 79.7743 535.429C84.7838 540.04 89.4283 544.097 95.091 547.941C97.0415 549.264 98.8548 550.709 101.115 551.458L101.51 551.584L99.2009 549.396C86.2145 536.32 77.8884 520.405 76.0106 501.926C75.5118 497.019 75.6694 491.953 75.6797 487.025C75.9835 475.45 78.3466 463.856 81.9446 452.876C79.8322 451.555 77.8804 449.556 76.1093 447.801C72.3815 444.106 68.9331 440.203 65.9326 435.886C58.7435 425.542 53.0523 414.551 49.1954 402.54C46.9173 395.446 45.4873 387.93 44.4034 380.567C41.15 358.463 41.9505 335.941 45.9054 313.979C49.1547 295.934 55.348 277.804 64.8466 262.093C66.6523 259.106 68.0985 255.913 71.0291 253.871C72.4332 251.312 74.2118 248.051 76.201 245.93L73.5355 254.167C73.3344 258.128 71.8432 262.505 71.0474 266.438C68.8202 277.444 66.8467 289.521 68.1745 300.775C68.8672 306.644 69.6256 312.482 71.0623 318.226C75.2495 334.968 83.628 349.231 97.2606 360.09C99.7167 351.136 102.475 342.38 106.344 333.922C111.805 321.983 118.69 310.938 124.734 299.318C136.675 276.363 146.788 248.216 142.354 222.044C146.468 225.94 149.94 230.521 153.422 234.973C160.718 244.297 167.737 254.062 173.751 264.274L181.294 278.465C189.498 249.337 191.106 216.504 182.835 187.228L175.096 162.344C173.072 155.12 171.62 147.689 170.735 140.241C169.026 125.861 171.198 111.203 175.053 97.3477C177.575 88.2827 180.621 79.3293 184.615 70.7954C192.16 54.6733 202.868 39.4557 214.783 26.2979C217.792 22.9743 220.913 19.6843 224.325 16.7699L232.585 9.82543C234.313 8.39963 236.268 7.02045 237.656 5.25816L237.295 4.50968Z" fill="url(#paint0_linear_10_88207)"/>
<path d="M71.027 253.871C72.4311 251.311 74.2097 248.05 76.1989 245.93L73.5334 254.166L73.3609 254.406L73.0774 254.809C71.8235 256.55 70.9434 258.321 70.1618 260.308C68.0883 265.578 66.9017 271.539 65.6913 277.077C60.6226 300.265 60.106 323.544 69.7684 345.661C66.2581 342.227 63.501 336.851 61.3893 332.432C51.4858 311.705 55.4147 288.982 64.0045 268.526C65.1904 265.701 66.4375 262.805 67.892 260.106C68.9516 258.14 70.1891 256.324 70.9197 254.196L71.027 253.871Z" fill="#F96D00"/>
<path d="M329.695 201.805C330.514 202.482 331.125 204.051 331.545 205.032C333.76 210.188 335.018 215.826 336.309 221.275C340.264 237.976 343.378 256.48 341.483 273.665C340.898 278.963 339.18 283.977 337.356 288.946C336.744 290.033 335.881 292.031 334.752 292.569L334.218 292.061L334.409 290.702C334.743 288.46 334.401 285.692 334.427 283.36C334.471 279.243 334.734 275.114 334.559 270.993L333.598 254.172L332.43 216.622C332.238 213.448 332.612 208.648 330.874 205.899C330.439 205.211 330.55 205.504 330.304 204.757L330.146 204.23C329.796 203.319 329.724 202.784 329.695 201.805Z" fill="#F9A301"/>
<path d="M149.247 270.227C151.599 271.62 153.338 273.783 155.012 275.908C159.521 281.628 163.089 288.114 164.901 295.192C168.002 307.31 167.187 321.722 160.674 332.62C156.539 339.539 150.762 345.198 146.18 351.78C141.137 359.025 138.139 367.308 136.633 375.962L134.527 373.399C135.196 372.479 134.932 370.626 134.993 369.485C135.312 363.505 136.297 357.391 138.387 351.754C142.423 340.863 151.239 332.888 155.972 322.317C159.784 313.806 160.186 304.385 159.271 295.232C158.873 291.247 158.164 286.963 156.491 283.294C154.505 278.934 151.018 274.953 149.365 270.553L149.247 270.227Z" fill="#F96D00"/>
<path d="M134.522 373.399C132.771 371.129 131.307 368.397 130.141 365.781C123.039 349.844 125.502 330.738 135.011 316.362C139.456 309.642 145.079 303.299 147.946 295.669C149.023 292.804 149.786 289.994 150.243 286.965C151.401 279.282 149.358 272.914 145.445 266.375L149.241 270.226L149.36 270.553C151.013 274.953 154.5 278.935 156.486 283.294C158.159 286.963 158.868 291.247 159.266 295.232C160.181 304.385 159.779 313.805 155.967 322.317C151.234 332.888 142.418 340.864 138.382 351.754C136.292 357.39 135.307 363.505 134.988 369.485C134.927 370.626 135.191 372.479 134.522 373.399Z" fill="url(#paint1_linear_10_88207)"/>
<path d="M301.904 302.977C302.088 303.19 302.384 303.344 302.458 303.616C302.594 304.12 302.241 305.747 302.174 306.335C301.928 308.486 301.692 310.709 301.869 312.876C302.168 316.566 303.349 320.242 305.038 323.52C307.113 327.548 309.856 331.229 312.376 334.98C318.171 343.601 323.013 352.374 322.83 363.065C322.59 377.042 315.813 389.075 305.953 398.519L300.252 403.02C302.204 397.581 303.168 391.915 303.865 386.193C304.493 381.051 304.939 375.502 304.268 370.337C303.693 365.913 302.985 361.71 301.44 357.498C298.308 348.958 293.072 341.146 292.137 331.899C291.011 320.764 294.915 311.461 301.904 302.977Z" fill="#F96D00"/>
<path d="M297.886 315.914C299.346 317.232 298.67 322.45 299.806 324.444L304.981 334.118C307.329 338.086 310.156 341.898 312.07 346.095C316.866 356.611 314.535 367.573 310.695 377.951L308.946 382.718C308.903 374.527 308.453 366.496 306.351 358.531C304.637 352.036 301.594 346.409 299.363 340.162C297.686 335.462 296.656 330.291 296.597 325.297C296.576 323.44 296.473 321.492 296.819 319.666L296.903 319.25C297.13 318.057 297.422 317.041 297.886 315.914Z" fill="url(#paint2_linear_10_88207)"/>
<path d="M339.386 364.605C339.841 357.186 341.893 350.482 344 343.408C350.952 320.054 363.124 299.635 379.522 281.674C384.062 276.702 389.055 272.122 393.996 267.555C393.211 270.739 391.636 274.046 390.547 277.181C387.297 279.144 385.8 283.431 383.898 286.634C372.644 305.594 362.855 326.491 357.54 347.984C352.583 368.031 352.198 388.398 352.756 408.916C347.004 400.307 342.03 391.122 340.144 380.836C339.203 375.7 339.15 370.162 339.416 364.972L339.386 364.605Z" fill="#E53500"/>
<path d="M374.517 315.172C375.088 316.064 374.85 331.4 374.954 333.863C375.262 341.186 376.07 348.387 377.376 355.6C378.921 364.133 381.757 372.229 385.343 380.095C393.766 398.575 405.212 415.548 405.442 436.675C405.64 454.718 398.159 474.597 385.542 487.536C383.037 489.833 380.608 491.752 377.744 493.609C379.911 487.505 381.904 481.088 382.616 474.632C384.939 453.572 374.664 432.439 369.464 412.482C362.977 387.579 362.889 361.199 367.872 336.013C369.252 329.039 370.874 321.352 374.517 315.172Z" fill="#F96D00"/>
<path d="M371.526 342.734C372.331 344.912 372.189 347.755 372.574 350.08L376.23 368.229C377.5 373.25 378.856 378.317 380.581 383.203L390.269 408.036C396.935 426.153 400.963 446.456 392.499 464.762L389.695 469.212C389.884 461.915 388.72 455.225 387.293 448.109L377.667 409.755C373.827 393.791 371.68 377.12 370.991 360.723L370.859 348.857C370.937 346.786 370.931 344.735 371.526 342.734Z" fill="#F9A301"/>
<path d="M255.092 314.281C256.334 313.073 256.246 310.101 256.525 308.369C257.62 301.574 258.712 294.899 258.803 287.997C259.124 263.528 246.816 238.672 232.643 219.344C224.368 208.058 215.024 197.428 207.61 185.533C196.179 167.192 188.971 147.587 187.346 125.96C186.386 113.193 186.753 100.281 190.302 87.899C192.116 81.5689 194.781 75.4726 197.447 69.4655C202.913 57.15 209.202 45.5052 216.119 33.9531C213.06 45.7023 210.684 58.3372 210.361 70.5059C210.164 77.882 210.944 85.1526 211.942 92.4476C212.605 97.3028 213.21 102.065 214.249 106.864C217.399 121.411 223.446 136.599 231.015 149.415C235.25 156.589 240.234 163.242 245.018 170.046L259.553 192.237C272.285 213.436 281.15 237.326 284.732 261.821C285.702 268.455 286.621 275.152 286.707 281.868C286.756 285.62 286.424 289.398 286.201 293.143C285.768 300.411 285.023 307.744 283.24 314.82C281.076 323.417 278.414 331.86 275.275 340.148C273.279 345.418 270.567 351.436 266.949 355.779C265.538 357.473 264.896 359.267 263.007 360.572L262.837 360.772L255.092 314.281Z" fill="#F96D00"/>
<path d="M206.492 69.7656C206.329 74.691 205.863 79.5202 205.992 84.4659C206.579 106.983 212.466 130.751 222.159 151.059C227.786 162.851 235.109 173.151 241.91 184.224C253.199 202.601 262.352 221.693 267.842 242.614C269.403 248.562 270.943 254.577 271.734 260.681C270.862 259.226 270.237 257.625 269.557 256.074C262.547 242.093 254.321 228.982 244.898 216.492C234.133 202.223 222.26 188.653 213.918 172.709C208.936 163.184 204.456 152.308 201.967 141.839C197.724 123.999 198.04 105.585 201.524 87.6589C202.699 81.6115 204.658 75.6362 206.492 69.7656Z" fill="#F9A301"/>
<path d="M81.9403 452.875C89.618 430.549 101.042 409.641 114.676 390.432C118.181 385.494 121.703 380.404 125.737 375.885C125.023 379.302 124.739 382.862 124.35 386.329C123.056 397.836 123.163 408.823 124.944 420.289C125.978 426.947 127.441 433.569 130.453 439.637C132.378 432.226 134.007 424.92 136.41 417.623C144.346 393.527 156.394 370.193 168.715 348.08C179.652 328.451 191.493 309.382 200.048 288.531C210.214 263.758 217.535 233.049 206.629 207.276L206.49 206.953C209.71 209.804 212.567 214.606 215.009 218.169C221.008 226.925 225.956 236.144 230.675 245.634C241.572 267.546 249.757 290.392 255.086 314.277L262.831 360.769L276.257 413.845C279.083 424.505 282.252 435.109 284.102 445.996C286.179 458.212 286.837 470.067 286.82 482.42C291.736 478.558 296.558 474.956 300.785 470.306C310.825 459.26 316.468 443.067 318.254 428.459C319.139 421.218 319.377 414.255 318.648 406.984C318.345 403.966 317.372 400.591 317.41 397.62C324.73 408.88 331.95 420.133 337.661 432.33C350.963 460.736 355.166 492.851 348.678 523.613L343.897 540.99C339.659 541.902 335.696 545.18 331.885 547.262C325.066 550.987 317.889 554.034 310.732 557.04C307.731 558.3 303.331 560.496 300.118 560.625C312.169 540.947 320.036 518.105 321.628 495.002C322.039 489.024 321.839 482.959 321.786 476.97C319.139 483.08 316.981 489.1 313.314 494.72C304.913 507.598 292.227 516.094 278.568 522.619C271.508 525.991 264.463 528.819 256.783 530.461C261.221 520.899 265.358 510.451 267.923 500.21C268.474 497.064 269.606 494.689 269.108 491.408C268.124 484.919 266.674 478.767 264.204 472.664C260.247 462.888 254.055 453.662 248.647 444.636C233.147 418.765 219.317 387.731 221.284 356.874C221.758 349.436 223.506 342.269 225.107 335.024C224.021 336.356 223.234 338.335 222.282 339.805L216.452 347.932L184.142 390.777L171.131 411.728C165.777 421.122 160.791 430.752 157.577 441.125C152.168 458.581 151.706 477.6 155.047 495.484C156.19 502.257 157.945 509.786 160.906 516.026C154.601 512.162 148.329 508.267 142.555 503.627C133.556 496.398 125.254 486.785 119.421 476.843C116.68 472.17 114.317 467.286 112.726 462.098C112.559 461.553 110.841 455.999 110.672 455.931C109.01 461.703 108.277 467.403 107.584 473.352C104.1 503.254 110.874 532.395 121.413 560.251C116.338 558.458 111.272 556.587 106.396 554.303C104.721 553.518 103.243 552.16 101.507 551.584L99.1973 549.396C86.2109 536.32 77.8849 520.405 76.0071 501.926C75.5083 497.019 75.6659 491.953 75.6761 487.025C75.9792 475.45 78.3425 463.855 81.9403 452.875Z" fill="url(#paint3_linear_10_88207)"/>
<path d="M155.05 495.483C151.708 477.6 152.171 458.581 157.58 441.125C160.794 430.752 165.779 421.122 171.134 411.727L184.145 390.777L216.454 347.932L222.285 339.805C223.237 338.335 224.024 336.355 225.11 335.023C223.509 342.269 221.761 349.436 221.286 356.874C219.32 387.731 233.149 418.764 248.65 444.636C254.057 453.662 260.25 462.888 264.206 472.664C266.677 478.767 268.127 484.919 269.111 491.408C269.609 494.689 268.477 497.064 267.925 500.21C265.361 510.451 261.223 520.899 256.786 530.46C264.466 528.819 271.51 525.991 278.57 522.619C292.23 516.094 304.916 507.598 313.317 494.72C316.984 489.1 319.142 483.08 321.788 476.97C321.842 482.959 322.042 489.024 321.631 495.002C320.039 518.105 312.172 540.947 300.121 560.625C303.334 560.496 307.734 558.3 310.734 557.04C317.891 554.034 325.069 550.987 331.888 547.262C335.699 545.18 339.661 541.902 343.9 540.99C341.193 547.421 338.565 553.838 335.158 559.943C320.681 585.886 297.707 606.902 270.116 618.098C268.594 618.716 266.288 619.323 265.216 620.582C260.543 622.082 255.587 622.981 250.777 623.949C231.41 627.847 211.249 628.86 191.567 627.296C188.733 627.072 184.791 627.245 182.144 626.447L181.914 626.328C179.423 624.698 175.612 624.341 172.703 623.639L161.898 620.61C152.041 617.376 142.246 613.482 133.27 608.232C117.171 598.815 104.568 585.74 93.9988 570.537C91.928 566.118 89.3842 561.978 87.4288 557.471C84.3099 550.283 82.2263 542.845 79.7734 535.429C84.783 540.04 89.4275 544.096 95.0902 547.94C97.0407 549.264 98.854 550.709 101.114 551.458L101.509 551.584C103.246 552.159 104.724 553.518 106.398 554.302C111.275 556.587 116.341 558.458 121.416 560.251C110.877 532.395 104.103 503.253 107.587 473.351C108.28 467.403 109.012 461.703 110.675 455.931C110.843 455.999 112.562 461.553 112.729 462.098C114.32 467.286 116.683 472.169 119.424 476.842C125.257 486.785 133.558 496.398 142.557 503.627C148.332 508.266 154.604 512.162 160.909 516.026C157.948 509.786 156.192 502.257 155.05 495.483Z" fill="url(#paint4_linear_10_88207)"/>
<path d="M181.163 516.654C179.868 507.19 180.396 497.712 181.87 488.3C186.145 461.009 198.832 436.006 209.482 410.797C209.066 425.249 211.649 439.198 216.451 452.807L222.484 467.963C225.629 476.485 227.425 485.311 226.275 494.415C225.63 499.522 223.99 504.475 222.421 509.353L218 518.536L223.817 513.96C224.614 513.304 225.84 512.479 226.418 511.661C228.655 510.036 230.928 507.389 232.681 505.241C240.699 495.422 243.445 484.319 246.814 472.427L249.37 499.741C250.452 517.753 250.218 538.83 241.721 555.251C239.359 559.814 236.148 563.973 233.123 568.111L233.447 567.944C237.183 566.047 241.229 564.646 245.101 563.047C256.89 558.179 269.463 552.919 277.292 542.342C278.743 540.381 279.776 538.153 280.85 535.973C280.846 538.365 279.909 540.77 279.207 543.04C276.423 552.04 272.064 561.134 266.68 568.879L266.515 568.87C264.763 568.769 262.972 569.227 261.246 569.506L252.144 570.898C243.163 572.114 233.89 573.04 224.841 573.416C207.979 574.116 190.741 574.082 173.943 572.301L159.013 570.277C156.12 569.804 153.193 569.067 150.278 568.82L149.998 568.799L149.762 568.663C139.702 553.09 132.756 535.871 128.91 517.774C130.854 521.442 132.479 525.212 134.687 528.745C141.296 539.318 152.041 547.706 163.052 553.373C170.172 557.037 176.95 560.149 183.594 564.673C176.385 555.354 172.119 543.618 169.533 532.22C167.913 525.083 166.849 517.413 167.297 510.088C170.255 516.66 174.053 522.6 178.853 527.993C181.763 531.262 184.938 534.205 187.714 537.609C184.827 530.759 182.501 523.981 181.163 516.654Z" fill="url(#paint5_linear_10_88207)"/>
<path d="M93.9988 570.53C91.928 566.111 89.3842 561.97 87.4288 557.464C84.3099 550.275 82.2263 542.837 79.7734 535.422C84.783 540.032 89.4275 544.089 95.0902 547.933C97.0407 549.257 98.854 550.702 101.114 551.451L101.509 551.577C103.246 552.152 104.724 553.511 106.398 554.295C111.275 556.58 116.341 558.45 121.416 560.244L121.776 560.729L149.765 568.661L150.001 568.797L150.281 568.818C153.196 569.065 156.123 569.802 159.016 570.274L173.946 572.299C190.744 574.08 207.982 574.114 224.844 573.414C233.893 573.038 243.166 572.112 252.147 570.896L261.249 569.504C262.975 569.224 264.766 568.767 266.518 568.868L266.683 568.877L271.492 568.098L274.891 567.416L275.764 567.288L291.517 563.548L292.925 563.215C294.471 562.725 296.197 562.133 297.803 561.908C299.006 561.74 299.241 561.414 300.122 560.618C303.334 560.489 307.734 558.293 310.735 557.033C317.892 554.027 325.069 550.98 331.888 547.254C335.699 545.173 339.662 541.895 343.9 540.983C341.193 547.413 338.565 553.83 335.158 559.935C320.681 585.878 297.708 606.895 270.117 618.091C268.594 618.709 266.288 619.316 265.217 620.575C260.543 622.074 255.588 622.974 250.777 623.941C231.411 627.84 211.25 628.853 191.568 627.289C188.734 627.064 184.792 627.238 182.144 626.44L181.914 626.321C179.423 624.691 175.612 624.334 172.703 623.632L161.898 620.602C152.041 617.369 142.246 613.474 133.271 608.225C117.171 598.808 104.568 585.733 93.9988 570.53Z" fill="#E88F00"/>
<path d="M121.777 560.734L149.766 568.666L150.002 568.802C151.841 572.68 154.476 576.395 156.913 579.922C162.935 588.639 169.545 596.56 176.728 604.347C180.167 608.075 183.526 611.962 187.241 615.415C189.603 617.61 192.048 619.754 194.613 621.708C196.327 623.015 198.392 624.239 199.884 625.782C196.863 625.682 193.133 623.653 190.302 622.559C161.85 611.558 134.302 588.925 121.777 560.734Z" fill="#F9A301"/>
<path d="M150 568.797L150.279 568.818C153.195 569.065 156.122 569.802 159.015 570.274L173.945 572.299C190.742 574.08 207.981 574.113 224.843 573.414C233.891 573.038 243.165 572.112 252.146 570.895L261.248 569.504C262.974 569.224 264.765 568.767 266.517 568.868C265.534 572.126 262.061 575.907 259.954 578.694C246.245 596.825 229.018 614.181 208.849 625.033C206.796 626.138 204.686 626.868 202.41 627.36L199.882 625.777C198.39 624.234 196.325 623.009 194.611 621.703C192.046 619.748 189.601 617.605 187.239 615.41C183.524 611.956 180.165 608.07 176.726 604.342C169.543 596.555 162.933 588.634 156.911 579.917C154.474 576.39 151.839 572.675 150 568.797Z" fill="#EEBA24"/>
<defs>
<linearGradient id="paint0_linear_10_88207" x1="235.01" y1="618.661" x2="215.383" y2="2.92032" gradientUnits="userSpaceOnUse">
<stop stop-color="#EC4000"/>
<stop offset="1" stop-color="#FD5F00"/>
</linearGradient>
<linearGradient id="paint1_linear_10_88207" x1="161.785" y1="355.892" x2="122.365" y2="288.823" gradientUnits="userSpaceOnUse">
<stop stop-color="#FB7200"/>
<stop offset="1" stop-color="#FC9A01"/>
</linearGradient>
<linearGradient id="paint2_linear_10_88207" x1="311.779" y1="346.621" x2="300.467" y2="350.266" gradientUnits="userSpaceOnUse">
<stop stop-color="#FC8F01"/>
<stop offset="1" stop-color="#FCAE01"/>
</linearGradient>
<linearGradient id="paint3_linear_10_88207" x1="213.155" y1="560.031" x2="215.8" y2="210.052" gradientUnits="userSpaceOnUse">
<stop stop-color="#FE9400"/>
<stop offset="1" stop-color="#FBC265"/>
</linearGradient>
<linearGradient id="paint4_linear_10_88207" x1="207.093" y1="575.665" x2="237.276" y2="337.329" gradientUnits="userSpaceOnUse">
<stop stop-color="#FFAA00"/>
<stop offset="1" stop-color="#FEF07F"/>
</linearGradient>
<linearGradient id="paint5_linear_10_88207" x1="205.819" y1="573.19" x2="202.605" y2="414.674" gradientUnits="userSpaceOnUse">
<stop stop-color="#FEC95A"/>
<stop offset="1" stop-color="#FFFB9B"/>
</linearGradient>
</defs>
</svg>
