<svg width="671" height="649" viewBox="0 0 671 649" fill="none" xmlns="http://www.w3.org/2000/svg">
<path d="M580.251 148.06C582.088 146.65 583.964 145.293 585.878 143.989C587.792 142.685 589.742 141.437 591.727 140.244C593.712 139.05 595.73 137.914 597.78 136.836C599.83 135.758 601.909 134.738 604.016 133.778C606.124 132.817 608.258 131.918 610.416 131.078C612.575 130.239 614.756 129.462 616.959 128.747C619.162 128.032 621.383 127.38 623.623 126.791C625.863 126.202 628.118 125.677 630.388 125.216C634.91 124.303 639.831 123.33 644.453 123.966C647.558 124.393 650.194 125.826 651.999 128.427C660.899 141.25 648.312 168.049 653.354 183.66C655.711 190.955 661.336 196.32 665.258 202.722C669.494 209.336 671.519 215.948 669.85 223.827C668.039 232.374 661.786 239.545 654.591 244.177C652.767 245.329 650.882 246.372 648.937 247.305C646.992 248.239 644.999 249.057 642.959 249.76C635.233 251.923 627.471 253.493 619.654 255.247C617.988 255.621 616.198 255.498 614.584 255.962C611.522 256.212 608.494 256.349 605.422 256.374C607.055 254.88 608.573 253.272 610.107 251.679C615.503 240.548 641.829 235.055 650.913 223.793C656.459 216.917 660.25 204.847 656.854 196.357C654.717 191.013 651.182 187.269 650.324 181.296C649.148 173.114 651.514 165.288 650.706 157.664C652.458 150.689 653.084 139.172 650.274 132.355C649.492 130.457 648.173 128.533 646.156 127.833C642.763 126.658 638.004 127.393 634.515 127.857C619.04 129.914 603.909 136.659 590.481 144.428C586.276 146.861 582.372 149.798 578.054 152.036L577.514 152.312C576.424 148.709 575.468 144.913 573.457 141.696C573.179 141.253 572.879 140.826 572.557 140.414C572.235 140.002 571.893 139.608 571.529 139.233C571.167 138.856 570.786 138.5 570.386 138.163C569.987 137.826 569.571 137.51 569.139 137.217C568.707 136.923 568.261 136.651 567.801 136.403C567.341 136.156 566.87 135.932 566.387 135.733C565.904 135.534 565.412 135.36 564.911 135.212C564.41 135.063 563.902 134.941 563.388 134.845C561.876 134.557 560.304 134.641 558.806 134.282L558.265 134.148C559.195 133.416 559.764 133.615 560.95 133.684C569.31 134.17 573.683 139.716 576.412 146.958C576.798 147.985 577.267 149.921 578.027 150.661C578.405 151.029 579.148 150.855 579.603 150.74C580.542 150.503 581.006 149.875 581.447 149.093C581.343 149.019 581.242 148.943 581.135 148.874C577.319 146.426 577.035 140.904 573.403 137.456C568.663 132.957 563.444 133.548 560.788 131.667C560.638 131.561 560.495 131.446 560.349 131.336C565.7 131.542 570.789 133.395 574.451 137.452C577.166 140.462 578.838 144.306 580.251 148.06Z" fill="#999B03"/>
<path d="M610.106 251.679C614.416 249.908 618.527 247.798 622.92 246.199C638.24 240.621 656.961 235.916 663.419 218.905C665.021 214.686 663.785 205.004 664.885 203.229C664.996 203.05 665.134 202.89 665.258 202.722C669.494 209.336 671.519 215.948 669.85 223.827C668.039 232.374 661.786 239.545 654.591 244.177C652.767 245.329 650.882 246.372 648.937 247.305C646.992 248.239 644.999 249.057 642.959 249.76C635.233 251.923 627.471 253.493 619.654 255.247C617.988 255.621 616.198 255.498 614.584 255.962C611.522 256.212 608.494 256.349 605.422 256.374C607.055 254.88 608.572 253.272 610.106 251.679Z" fill="#6F6E04"/>
<path d="M323.831 215.082C325.33 213.962 326.908 212.969 328.567 212.102C330.224 211.235 331.941 210.506 333.716 209.916C349.683 204.456 365.645 206.958 380.459 214.167C385.398 213.487 390.408 212.514 395.391 212.309C398.812 213.181 402.617 214.579 406.074 215.077C415.293 219.812 422.64 224.802 429.079 233.077C426.616 233.814 413.838 234.991 411.67 234.289C404.348 235.308 397.68 237.277 390.831 240.007C388.217 241.049 385.593 242.133 383.054 243.344C379.874 244.86 374.909 248.858 371.541 249.04C371.796 248.138 371.668 247.421 371.565 246.504C365.395 241.43 357.834 242.279 350.328 241.959C348.467 242.13 346.404 241.66 344.524 241.52C342.869 241.076 341.33 240.589 339.838 239.727C331.116 234.684 326.487 224.331 323.831 215.082Z" fill="#D84F01"/>
<path d="M344.524 241.52C346.937 240.666 353.224 232.223 355.754 229.842C360.699 225.186 366.49 220.777 372.802 218.171C364.39 225.422 356.804 232.893 350.328 241.959C348.467 242.13 346.404 241.66 344.524 241.52Z" fill="#972000"/>
<path d="M371.565 246.504C377.974 239.512 400.717 233.668 410.453 233.177L409.435 233.617L409.843 234.337L409.204 233.897L411.67 234.289C404.348 235.307 397.68 237.276 390.831 240.006C388.217 241.049 385.593 242.133 383.054 243.344C379.874 244.859 374.909 248.858 371.541 249.04C371.796 248.138 371.668 247.421 371.565 246.504Z" fill="#972000"/>
<path d="M348.01 212.069C354.674 211.044 362.044 212.216 368.5 213.837C362.689 218.614 356.359 222.981 349.955 226.923C348.249 227.919 346.79 228.352 344.885 228.778C342.027 228.166 339.636 227.255 337.143 225.734C335.105 224.489 332.457 222.654 332.093 220.083C331.921 218.866 332.32 217.755 333.117 216.84C336.252 213.239 343.536 212.548 348.01 212.069Z" fill="#EC6801"/>
<path d="M384.895 216.878C387.56 216.34 391.227 216.409 393.946 216.754C400.596 217.598 406.046 221.152 410.112 226.375C404.155 227.316 398.278 228.162 392.451 229.757C388.944 230.543 385.392 231.466 381.84 232.009C378.427 232.531 373.23 232.479 370.401 230.195C369.53 229.491 369.135 228.703 369.039 227.583C368.897 225.953 370.019 224.04 371.006 222.833C374.413 218.661 379.775 217.301 384.895 216.878Z" fill="#EC6801"/>
<path d="M244.757 21.445C253.891 17.6235 263.685 15.9165 273.12 19.7624C280.757 22.8746 286.427 29.2424 289.494 36.822C292.247 43.6287 292.472 51.1234 289.536 57.914C289.359 58.3169 289.172 58.7153 288.976 59.1091C288.779 59.5022 288.573 59.8905 288.358 60.2737C288.142 60.6571 287.917 61.0349 287.682 61.4077C287.447 61.7796 287.204 62.146 286.952 62.5066C286.699 62.8664 286.438 63.2201 286.168 63.5672C285.897 63.9143 285.619 64.2546 285.332 64.5881C285.045 64.9217 284.75 65.2478 284.447 65.567C284.144 65.8862 283.833 66.1974 283.515 66.5008C283.196 66.8042 282.87 67.0996 282.537 67.387C282.204 67.6744 281.864 67.9536 281.517 68.2246C281.17 68.4947 280.817 68.7565 280.458 69.01C280.098 69.2628 279.732 69.5065 279.36 69.7412C278.988 69.9767 278.61 70.2021 278.227 70.4179C277.844 70.6345 277.455 70.8411 277.062 71.038C276.669 71.235 276.271 71.4225 275.868 71.6005C275.466 71.778 275.059 71.9449 274.648 72.1019C269.401 74.096 263.647 74.3463 258.483 71.9298C254.505 70.0692 251.439 66.8334 250.031 62.6514C248.803 59.0025 248.791 54.7844 250.561 51.3076C252.124 48.2404 254.91 46.1137 258.19 45.1563C261.584 44.1659 264.959 44.4999 268.332 45.3442C263.595 45.7674 258.978 46.0007 255.764 50.0275C254.402 51.7332 253.813 53.7522 254.066 55.9275C254.343 58.3122 255.855 60.6866 257.738 62.1421C260.279 64.1034 263.574 64.6004 266.69 64.1567C271.676 63.4449 276.34 60.4195 279.297 56.3814C281.602 53.2305 282.988 49.2613 282.357 45.3362C281.522 40.1436 277.463 35.0064 273.237 32.1531C268.427 28.906 262.12 26.9753 256.343 28.1103C246.096 30.1237 236.696 38.0112 231.125 46.598C217.68 67.3212 218.557 95.3974 223.653 118.585C228.855 142.249 239.228 164.312 252.414 184.522C254.333 187.463 256.922 192.393 259.652 194.566L259.894 194.623C260.662 200.576 261.271 206.983 261.195 212.984C259.616 211.756 257.546 211.157 255.693 210.437C236.388 206.927 224.114 207.56 205.123 211.966C218.548 199.446 224.512 182.242 227.222 164.568C227.428 157.501 227.4 150.538 226.449 143.516C224.809 131.398 220.126 120.616 210.168 113.064C207.518 97.1243 206.711 77.5885 212.129 62.1712C212.471 60.6622 212.912 59.1826 213.452 57.7322C219.133 42.2895 229.663 28.5056 244.757 21.445Z" fill="#BDC216"/>
<path d="M212.128 62.1717C212.471 60.6627 212.912 59.183 213.452 57.7327C219.133 42.2894 229.663 28.5054 244.757 21.4448C243.044 27.3113 231.813 34.6985 227.559 39.8764C223.328 45.0304 218.894 52.6859 216.36 58.9086L215.762 59.0772C215.454 57.8425 216.389 56.5023 217.012 55.4577C217.414 54.7865 217.793 54.5455 217.636 53.7385C217.628 53.6999 217.349 52.9428 217.346 52.9337C217.255 52.6225 217.214 52.2988 217.129 51.9864C217.083 51.8166 217.023 51.6514 216.969 51.4851C214.631 54.4007 215.026 59.5675 212.128 62.1717Z" fill="#D9E030"/>
<path d="M432.835 133.333C434.949 126.255 438.235 120.632 445.021 117.117C451.429 113.795 458.994 113.865 465.733 116.096C474.046 118.848 481.385 125.144 485.237 133.032C489.262 141.272 489.535 151.598 486.566 160.209C480.157 178.801 458.091 194.607 440.874 202.868C434.286 205.959 427.517 208.586 420.569 210.748C416.146 212.087 409.991 212.765 406.074 215.076C402.618 214.578 398.812 213.181 395.391 212.309C410.767 204.551 425.173 192.047 430.642 175.2C433.58 166.147 432.969 156.142 430.403 147.077C427.113 150.306 423.81 153.008 418.944 153.012C413.764 153.017 407.258 150.406 403.701 146.627C400.038 142.736 398.086 136.681 398.473 131.365C398.766 127.334 400.645 123.772 403.756 121.201C404.155 120.868 404.571 120.556 405.002 120.264C405.433 119.974 405.878 119.706 406.337 119.461C406.796 119.215 407.266 118.993 407.747 118.796C408.229 118.599 408.719 118.427 409.218 118.28C409.717 118.133 410.222 118.012 410.734 117.916C411.246 117.82 411.761 117.751 412.279 117.708C412.797 117.666 413.316 117.65 413.836 117.661C414.357 117.671 414.875 117.708 415.391 117.772C420.968 118.45 425.883 122.056 429.205 126.454C430.806 128.574 431.878 130.868 432.835 133.333Z" fill="#BDC216"/>
<path d="M411.859 127.034C413.731 126.837 415.371 126.838 417.152 127.547C420.33 128.813 422.903 131.57 424.177 134.714C425.033 136.823 425.364 139.334 424.317 141.44C423.264 143.559 421.757 144.345 419.594 145.062C418.602 145.037 417.613 144.994 416.635 144.808C413.063 144.127 409.49 142.004 407.54 138.876C406.403 137.054 405.83 134.78 406.446 132.674C407.251 129.921 409.432 128.296 411.859 127.034Z" fill="#FEFEFE"/>
<path d="M453.817 123.438C456.472 123.207 458.941 123.241 461.543 123.887C468.337 125.574 474.606 130.162 478.091 136.255C481.425 142.083 481.629 148.485 479.78 154.793C474.634 172.355 455.649 184.73 440.336 193.048C437.108 194.768 433.803 196.326 430.422 197.723C427.041 199.119 423.6 200.346 420.099 201.407C433.014 189.086 439.917 174.668 438.816 156.653C438.342 148.911 437.526 141.114 441.095 133.896C443.838 128.349 448.198 125.456 453.817 123.438Z" fill="#FEFEFE"/>
<path d="M511.417 192.515C511.248 189.727 511.237 186.937 511.383 184.148C511.53 181.359 511.833 178.586 512.293 175.83C514.816 160.862 522.478 147.337 535.046 138.501C541.809 133.745 551.964 129.841 560.348 131.336C560.494 131.446 560.638 131.562 560.787 131.667C563.444 133.548 568.662 132.957 573.402 137.456C577.034 140.905 577.318 146.427 581.135 148.875C581.241 148.944 581.343 149.019 581.447 149.093C581.006 149.875 580.542 150.503 579.602 150.74C579.147 150.855 578.405 151.03 578.027 150.662C577.266 149.922 576.798 147.985 576.412 146.959C573.683 139.716 569.31 134.171 560.949 133.684C559.764 133.615 559.195 133.417 558.265 134.148C552.434 134.354 548.266 135.803 542.774 137.257L542.235 137.666C534.886 143.193 527.538 146.264 526.048 156.384C524.768 165.078 525.618 173.123 528.038 181.521C528.342 182.578 528.725 184.762 529.326 185.613C529.48 185.831 529.706 185.989 529.893 186.18C530.032 186.322 530.168 186.468 530.305 186.613L529.526 192.282C530.272 192.478 530.474 192.51 531.268 192.378C530.071 197.458 528.947 202.483 528.401 207.685C528.336 214.974 528.153 222.794 529.044 230.022C530.478 241.173 529.801 252.767 528.195 263.867C526.665 276.132 528.005 281.547 521.763 293.424C512.033 279.141 500.399 267.799 487.932 255.962C485.115 253.94 482.505 251.628 479.86 249.388C475.637 246.695 471.315 244.171 466.896 241.817C464.611 240.599 462.162 239.653 459.958 238.307C454.641 229.419 453.476 220.316 455.977 210.266C459.478 196.208 470.345 183.889 482.608 176.595C486.796 174.105 495.078 168.969 500.07 170.225C503.11 172.373 509.565 188.454 511.417 192.515Z" fill="#868604"/>
<path d="M525.889 217.366C525.751 211.441 525.883 205.685 526.847 199.811C527.46 196.078 529.064 192.351 529.02 188.527C528.989 185.823 527.192 182.191 526.462 179.519C524.681 173.005 524.082 166.548 524.431 159.813C524.78 153.042 526.498 148.698 531.621 144.129C533.855 142.136 539.627 137.069 542.774 137.257L542.235 137.665C534.886 143.193 527.537 146.263 526.048 156.384C524.768 165.077 525.618 173.123 528.038 181.521C528.342 182.578 528.725 184.761 529.326 185.612C529.48 185.831 529.706 185.988 529.893 186.179C530.032 186.322 530.168 186.468 530.305 186.613L529.526 192.282C530.272 192.478 530.473 192.51 531.268 192.377C530.07 197.458 528.946 202.483 528.401 207.685C528.335 214.973 528.153 222.794 529.044 230.022C527.977 231.589 527.647 234.867 525.85 235.746C523.892 236.705 521.631 236.557 519.638 235.794C507.972 231.332 503.509 217.179 497.611 207.45C496.252 205.208 493.39 202.498 492.614 200.074C492.174 198.697 493.059 197.082 492.431 195.773C491.564 196.168 491.309 196.834 490.785 197.608C485.423 209.329 480.973 221.353 479.998 234.328L479.451 236.541L479.049 236.628C478.997 236.521 478.932 236.42 478.892 236.309C477.076 231.181 482.73 212.326 484.768 207.193C486.141 203.736 488.342 200.349 489.469 196.855C489.761 195.951 487.22 185.503 486.746 183.955C486.292 182.47 485.496 181.039 484.783 179.665C488.377 177.98 492.171 176.836 495.94 175.622C499.306 182.961 502.412 190.489 506.607 197.404C510.332 203.542 515.292 212.161 521.504 215.922C522.785 216.697 524.444 217.012 525.889 217.366Z" fill="#999B03"/>
<path d="M528.401 207.685C527.902 209.705 528.455 214.721 526.982 216.094C525.822 208.839 526.898 199.123 529.526 192.282C530.272 192.478 530.474 192.51 531.268 192.377C530.07 197.458 528.946 202.483 528.401 207.685Z" fill="#BECD13"/>
<path d="M490.785 197.609C491.309 196.835 491.564 196.168 492.431 195.773C493.059 197.082 492.174 198.698 492.614 200.074C493.39 202.498 496.251 205.209 497.611 207.451C503.509 217.18 507.972 231.333 519.638 235.794C521.631 236.557 523.892 236.705 525.85 235.747C527.647 234.867 527.977 231.589 529.044 230.022C530.478 241.172 529.801 252.767 528.195 263.867C526.665 276.132 528.005 281.547 521.763 293.424C512.033 279.141 500.398 267.799 487.932 255.962C485.115 253.94 482.505 251.628 479.86 249.388C479.529 244.369 479.883 239.35 479.998 234.329C480.973 221.354 485.423 209.329 490.785 197.609Z" fill="#868604"/>
<path d="M490.785 197.608L491.772 198.17C491.85 198.861 491.851 199.062 491.642 199.758C490.531 203.339 489.586 206.963 488.808 210.631C488.028 214.298 487.418 217.993 486.978 221.717C486.536 225.44 486.266 229.176 486.167 232.924C486.068 236.671 486.14 240.416 486.384 244.158C486.603 248.077 487.994 252.104 487.932 255.961C485.115 253.94 482.505 251.628 479.86 249.388C479.529 244.368 479.883 239.35 479.998 234.328C480.973 221.353 485.423 209.329 490.785 197.608Z" fill="#6F6E04"/>
<path d="M490.785 197.609C491.309 196.835 491.564 196.168 492.43 195.773C493.059 197.082 492.174 198.698 492.614 200.074C493.39 202.498 496.251 205.209 497.611 207.451C503.508 217.18 507.972 231.333 519.638 235.794C521.631 236.557 523.892 236.705 525.85 235.747C527.647 234.867 527.977 231.589 529.044 230.022C530.478 241.172 529.801 252.767 528.195 263.867C520.927 262.743 516.737 259.165 512.195 253.725C501.445 240.853 495.363 229.498 492.716 212.745C492.056 208.569 491.265 203.973 491.642 199.758C491.851 199.062 491.85 198.862 491.772 198.17L490.785 197.609Z" fill="#8D8D02"/>
<path d="M558.879 245.624C558.974 245.715 559.084 245.792 559.163 245.896C559.78 246.697 564.288 270.426 564.854 270.994C565.011 271.152 565.284 271.116 565.501 271.168C570.791 272.421 580.648 269.662 587.301 271.575C593.242 270.549 606.956 276.776 614.107 276.901C617.122 276.954 620.196 276.044 622.288 273.781C625.661 270.134 625.703 264.452 625.637 259.793C625.429 259.567 625.221 259.338 625 259.124C621.696 255.946 618.949 255.813 614.584 255.962C616.198 255.498 617.988 255.62 619.654 255.247C627.471 253.493 635.233 251.923 642.959 249.76L643.59 250.175C645.596 251.47 647.794 252.423 649.794 253.745C656.037 257.869 659.701 264.025 661.278 271.258C663.744 282.578 660.255 293.945 654.094 303.469C647.297 313.978 635.941 323.731 623.432 326.375C617.465 327.636 611.294 327.174 605.992 323.935C606.697 325.951 612.304 328.535 614.193 329.916C615.733 331.397 615.925 333.674 615.913 335.716C615.899 337.957 615.564 340.543 614.582 342.559C610.528 351.791 601.543 357.37 592.472 360.945C580.328 365.73 566.424 367.505 554.22 362.084C553.954 361.966 553.69 361.839 553.427 361.714C551.787 359.985 548.131 346.795 546.963 343.638C543.417 334.048 539.239 324.839 534.75 315.657C532.648 311.424 530.591 307.231 527.931 303.313C527.372 302.424 526.868 301.493 526.343 300.583C527.6 296.711 530.285 292.713 532.242 289.116C533.98 281.019 541.012 273.41 544.77 266.049C545.923 265.305 557.17 248.112 558.879 245.624Z" fill="url(#paint0_linear_24_118057)"/>
<path d="M614.193 329.916C613.775 329.966 613.328 330.045 612.905 329.978C611.402 329.742 609.234 327.659 607.858 326.83C604.418 324.757 595.67 320.617 593.648 317.424C592.92 316.275 592.674 314.995 592.922 313.666C593.838 313.587 593.966 313.771 594.661 314.336C596.301 315.673 597.562 317.518 599.115 318.969C601.107 320.828 603.494 322.011 605.629 323.641C605.752 323.735 605.871 323.837 605.992 323.935C606.697 325.951 612.304 328.535 614.193 329.916Z" fill="#999B03"/>
<path d="M527.93 303.313C528.716 302.543 529.516 301.722 530.533 301.266C533.924 299.748 545.63 298.254 549.536 298.324C556.051 298.441 561.593 301.433 565.963 306.094C569.915 310.31 572.8 315.089 574.223 320.709C571.278 317.468 566.01 314.584 561.899 313.13C553.842 310.282 542.336 312.048 534.749 315.658C532.648 311.425 530.591 307.231 527.93 303.313Z" fill="#6F6E04"/>
<path d="M558.879 245.624C558.974 245.715 559.084 245.792 559.163 245.896C559.78 246.697 564.288 270.426 564.854 270.994C565.011 271.152 565.284 271.116 565.501 271.168C570.791 272.421 580.648 269.662 587.301 271.575C587.182 271.606 587.064 271.638 586.946 271.665C583.209 272.536 578.955 271.647 575.133 271.502C571.765 271.374 568.035 271.82 564.773 272.645C557.328 274.527 548.346 277.85 541.985 282.15C539.063 284.125 535.415 287.942 532.242 289.116C533.98 281.019 541.012 273.41 544.77 266.049C545.922 265.305 557.17 248.112 558.879 245.624Z" fill="#8D8D02"/>
<path d="M534.749 315.657C542.336 312.048 553.843 310.281 561.899 313.13C566.011 314.583 571.278 317.468 574.223 320.708C579.543 328.829 587.384 344.362 597.335 346.42C604.633 347.931 611.29 341.394 614.581 342.559C610.527 351.791 601.543 357.37 592.472 360.945C580.328 365.73 566.424 367.505 554.22 362.085C553.954 361.966 553.69 361.839 553.426 361.715C551.786 359.985 548.131 346.795 546.963 343.638C543.417 334.048 539.238 324.838 534.749 315.657Z" fill="url(#paint1_linear_24_118057)"/>
<path d="M429.079 233.076C433.33 233.516 437.735 233.219 441.935 234.001C445.945 234.773 449.928 235.67 453.883 236.69C455.823 237.199 457.988 238.063 459.957 238.306C462.162 239.652 464.61 240.598 466.895 241.816C471.315 244.171 475.636 246.695 479.86 249.388C482.505 251.628 485.114 253.94 487.932 255.961C500.398 267.798 512.033 279.14 521.763 293.423C522.877 295.198 524.012 296.923 525.243 298.619L526.342 300.583C526.867 301.493 527.371 302.425 527.93 303.313C530.591 307.231 532.648 311.424 534.749 315.658C539.238 324.839 543.416 334.048 546.962 343.638C548.13 346.795 551.786 359.985 553.426 361.714C553.457 361.971 553.483 362.229 553.515 362.486C554.036 366.58 555.763 370.735 556.672 374.784C558.856 384.864 560.718 395.003 562.256 405.202C569.981 457.626 559.214 504.337 527.253 546.847C525.684 548.935 524.078 551.034 522.242 552.898C518.117 557.655 506.104 571.808 501.199 574.655L500.87 574.345C500.855 574.167 500.877 573.98 500.822 573.809C500.64 573.26 500.414 572.927 500.289 572.326C504.575 564.808 510.606 558.075 515.492 550.906C522.213 541.045 528.078 530.647 532.356 519.483C540.819 497.391 545.422 461.539 540.996 438.248C539.82 434.468 539.902 428.748 539.26 424.649C539.004 423.004 538.232 421.512 538.004 419.883C537.74 417.992 537.913 415.916 537.484 414.064C532.108 390.862 523.853 367.283 511.977 346.56C508.464 340.43 503.642 335.082 500.252 328.872C500.189 328.755 500.131 328.637 500.071 328.519C497.683 327.206 488.296 312.739 485.456 309.535C474.658 297.355 457.159 281.549 442.857 273.666C428.79 265.912 411.723 257.759 395.674 255.812C389.586 255.073 383.712 255.368 377.626 255.723C374.163 255.926 370.429 255.619 367.047 256.418C363.107 257.349 360.133 261.147 356.254 262.1C355.988 262.165 355.72 262.214 355.453 262.272C359.474 258.877 365.049 257.307 368.559 253.408C369.677 252.047 370.586 250.517 371.54 249.04C374.908 248.858 379.874 244.859 383.053 243.344C385.593 242.133 388.216 241.049 390.83 240.007C397.679 237.277 404.348 235.307 411.669 234.289C413.838 234.99 426.616 233.813 429.079 233.076Z" fill="url(#paint2_linear_24_118057)"/>
<path d="M368.56 253.408C368.78 253.531 368.995 253.664 369.22 253.779C372.421 255.431 381.427 253.357 385.399 253.174C388.77 253.018 392.334 253.04 395.683 253.454C418.773 256.311 437.685 262.993 457.961 274.242L457.834 274.487C454.177 273.908 446.179 268.447 442.215 266.697C437.121 264.45 431.754 262.484 426.45 260.793C423.205 259.758 419.798 258.964 416.64 257.7C413.6 256.483 404.279 255.206 400.816 255.212L400.518 255.53C404.05 256.973 408.556 257.474 412.286 258.615C417.76 260.289 423.593 262.823 428.842 265.146C437.832 269.125 446.642 273.946 454.672 279.626C465.304 287.145 481.342 302.222 489.584 312.397C492.214 315.644 494.387 319.221 496.627 322.741C497.807 324.595 499.212 326.499 500.071 328.519C497.683 327.206 488.296 312.739 485.456 309.535C474.658 297.355 457.159 281.549 442.857 273.666C428.79 265.912 411.724 257.759 395.674 255.812C389.586 255.073 383.712 255.368 377.626 255.724C374.163 255.926 370.429 255.619 367.047 256.418C363.107 257.349 360.133 261.147 356.254 262.1C355.989 262.165 355.72 262.214 355.453 262.272C359.475 258.877 365.05 257.307 368.56 253.408Z" fill="#D84F01"/>
<path d="M540.996 438.248L541.399 436.819C542.905 443.356 542.924 454.728 542.898 461.632C542.887 464.529 542.512 468.053 542.958 470.883C543.288 472.978 545.041 475.961 546.773 477.112L547.413 477.061L547.981 476.218L548.491 476.521C549.096 468.666 549.172 460.805 548.717 452.939C548.435 448.029 547.401 442.512 547.922 437.653C551.454 467.55 548.778 496.45 537.064 524.252C534.52 530.288 531.174 535.846 528.462 541.769C527.243 544.431 522.356 549.106 522.003 551.492C521.934 551.963 522.162 552.43 522.242 552.899C518.116 557.656 506.103 571.809 501.198 574.655L500.87 574.345C500.854 574.167 500.877 573.981 500.821 573.81C500.639 573.261 500.414 572.927 500.288 572.326C504.574 564.808 510.606 558.075 515.492 550.907C522.212 541.046 528.078 530.648 532.355 519.484C540.819 497.391 545.422 461.539 540.996 438.248Z" fill="#972000"/>
<path d="M577.514 152.312L578.054 152.036C582.372 149.798 586.275 146.861 590.481 144.428C603.908 136.659 619.039 129.914 634.514 127.857C638.004 127.393 642.763 126.658 646.156 127.833C648.173 128.533 649.491 130.457 650.273 132.355C653.083 139.172 652.458 150.689 650.706 157.664C651.514 165.288 649.147 173.114 650.323 181.296C651.182 187.269 654.716 191.013 656.853 196.357C660.25 204.847 656.458 216.917 650.913 223.793C641.829 235.055 615.502 240.548 610.106 251.679C608.572 253.272 607.055 254.88 605.422 256.374C608.493 256.349 611.522 256.212 614.583 255.962C618.949 255.813 621.695 255.947 624.999 259.124C625.221 259.338 625.428 259.567 625.636 259.793C625.702 264.452 625.66 270.134 622.287 273.781C620.196 276.044 617.122 276.954 614.107 276.901C606.955 276.776 593.241 270.549 587.3 271.576C580.648 269.662 570.791 272.421 565.501 271.168C565.284 271.116 565.011 271.152 564.853 270.994C564.287 270.426 559.78 246.697 559.163 245.896C559.084 245.792 558.974 245.715 558.879 245.624C557.17 248.112 545.922 265.305 544.769 266.049C541.011 273.41 533.979 281.019 532.241 289.116C530.284 292.713 527.599 296.712 526.342 300.583L525.243 298.62C524.012 296.923 522.876 295.198 521.763 293.424C528.004 281.547 526.664 276.132 528.194 263.867C529.8 252.766 530.477 241.172 529.043 230.022C528.153 222.794 528.335 214.974 528.4 207.685C528.946 202.483 530.07 197.458 531.267 192.377C530.473 192.51 530.271 192.478 529.525 192.282L530.304 186.613C530.167 186.468 530.031 186.322 529.892 186.18C529.705 185.989 529.479 185.831 529.325 185.613C528.724 184.762 528.342 182.578 528.037 181.521C525.617 173.123 524.767 165.077 526.048 156.384C527.537 146.264 534.886 143.193 542.234 137.665L542.773 137.257C548.265 135.802 552.433 134.354 558.264 134.148L558.805 134.283C560.303 134.641 561.875 134.558 563.387 134.845C563.901 134.941 564.408 135.063 564.909 135.212C565.411 135.361 565.903 135.534 566.385 135.733C566.868 135.933 567.34 136.156 567.8 136.403C568.26 136.652 568.706 136.923 569.138 137.217C569.57 137.511 569.986 137.826 570.385 138.163C570.785 138.5 571.166 138.856 571.528 139.233C571.891 139.609 572.234 140.003 572.556 140.414C572.878 140.826 573.178 141.253 573.456 141.696C575.468 144.913 576.424 148.709 577.514 152.312Z" fill="url(#paint3_linear_24_118057)"/>
<path d="M530.305 186.613C530.812 184.96 531.45 183.341 532.077 181.73C537.951 166.662 550.966 150.963 565.978 144.381C554.216 152.717 540.345 166.029 535.494 179.883C533.93 183.391 532.491 186.931 531.718 190.708L531.268 192.377C530.473 192.51 530.272 192.478 529.526 192.282L530.305 186.613Z" fill="#D9E030"/>
<path d="M622.156 140.306C623.158 140.146 623.836 139.991 624.831 140.287C625.076 143.703 624.309 147.725 624.267 151.246C622.635 154.393 620.874 155.93 617.858 157.657C616.244 156.245 615.119 154.906 614.746 152.74C614.222 149.688 614.893 146.343 616.704 143.811C618.255 141.641 619.559 140.796 622.156 140.306Z" fill="#D9E030"/>
<path d="M561.576 229.062L560.87 228.932C560.229 226.84 561.049 223.723 561.004 221.482C560.895 215.965 559.974 210.471 559.894 204.909C559.757 195.467 561.688 174.022 568.522 166.996L569.128 167.17C562.927 182.568 561.633 198.556 565.172 214.754C565.695 217.146 566.117 219.765 566.916 222.065C565.144 224.4 563.397 226.764 561.576 229.062Z" fill="#D9E030"/>
<path d="M572.437 161.651C572.501 178.386 569.931 192.633 572.282 209.717C572.495 211.263 572.571 213.76 573.374 215.094C571.532 217.519 569.279 220.134 566.916 222.065C566.117 219.765 565.695 217.146 565.172 214.754C561.633 198.556 562.927 182.568 569.128 167.17C570.32 165.383 571.368 163.514 572.437 161.651Z" fill="#999B03"/>
<path d="M573.374 215.095C578.62 208.264 584.574 202.044 590.328 195.651C596.752 188.514 602.938 181.123 609.411 174.043C618.498 164.105 627.409 154.66 635.571 143.887L636.167 144.161C626.738 158.817 614.066 171.456 602.849 184.736C589.681 200.619 576.874 216.789 564.429 233.244L563.392 234.555L563.497 235.672C563.6 235.6 563.703 235.525 563.808 235.454C564.264 235.14 564.734 234.862 565.21 234.582L565.987 234.755C564.627 235.833 561.947 239.615 561.586 241.262C561.562 241.374 561.562 241.489 561.551 241.604C560.787 242.97 559.523 244.265 558.879 245.624C557.17 248.113 545.922 265.306 544.769 266.049C541.012 273.41 533.98 281.02 532.241 289.116C530.284 292.713 527.6 296.712 526.342 300.584L525.243 298.62C524.012 296.924 522.877 295.199 521.763 293.424C528.005 281.547 526.665 276.133 528.195 263.867C529.801 252.767 530.478 241.173 529.044 230.022C528.153 222.795 528.335 214.974 528.401 207.685C528.946 202.484 530.07 197.458 531.268 192.378L531.718 190.708C532.491 186.931 533.93 183.391 535.494 179.884C537.365 183.109 538.466 191.573 539.48 195.615C541.039 201.831 542.885 208.322 545.466 214.18C548.977 222.149 559.014 227.29 559.483 228.416C559.969 229.578 558.552 230.782 559.404 232.407C560.281 231.31 560.998 230.346 561.576 229.062C563.397 226.765 565.144 224.401 566.916 222.065C569.279 220.135 571.533 217.519 573.374 215.095Z" fill="url(#paint4_linear_24_118057)"/>
<path d="M525.244 298.619C527.028 290.166 538.542 269.187 543.906 262.023C543.862 262.275 543.823 262.529 543.772 262.78C542.757 267.777 535.183 274.688 535.715 279.387C537.523 276.489 542.319 267.51 544.769 266.049C541.012 273.41 533.98 281.019 532.241 289.116C530.285 292.712 527.6 296.711 526.342 300.583L525.244 298.619Z" fill="url(#paint5_linear_24_118057)"/>
<path d="M543.906 262.023C545.581 257.282 559.232 239.182 563.393 234.554L563.497 235.671C563.6 235.599 563.703 235.524 563.808 235.453C564.264 235.139 564.734 234.861 565.21 234.581L565.987 234.755C564.628 235.832 561.947 239.615 561.586 241.261C561.563 241.373 561.563 241.489 561.551 241.603C560.787 242.969 559.523 244.264 558.879 245.623C557.17 248.112 545.923 265.305 544.769 266.049C542.319 267.51 537.524 276.49 535.715 279.387C535.183 274.688 542.757 267.777 543.772 262.78C543.823 262.529 543.861 262.275 543.906 262.023Z" fill="#BDC216"/>
<path d="M535.16 208.949C538.093 219.631 543.086 237.096 549.517 245.877C545.305 253.131 540.53 260.579 535.559 267.336C537.494 257.366 537.256 246.079 536.889 235.957C536.665 229.789 533.872 212.762 535.16 208.949Z" fill="#8D8D02"/>
<path d="M535.494 179.883C537.365 183.109 538.466 191.572 539.48 195.614C541.039 201.831 542.885 208.322 545.466 214.18C548.977 222.149 559.014 227.289 559.484 228.416C559.969 229.578 558.552 230.781 559.404 232.406C556.162 236.936 552.866 241.426 549.517 245.877C543.086 237.095 538.093 219.631 535.161 208.949C533.897 205.411 533.337 192.898 532.599 191.662C532.377 191.291 532.013 191.026 531.719 190.708C532.491 186.931 533.93 183.391 535.494 179.883Z" fill="#999B03"/>
<path d="M636.167 144.161C640.813 139.65 643.325 133.367 647.034 128.158C641.001 148.242 620.017 168.268 607.323 184.832C607.392 184.82 607.462 184.811 607.531 184.795C610.455 184.116 613.369 184.957 616.308 185.275C622.686 185.964 630.819 184.35 636.183 180.707C642.106 176.685 649.31 164.596 650.706 157.664C651.514 165.288 649.147 173.114 650.323 181.296C651.182 187.27 654.716 191.014 656.853 196.357C660.25 204.848 656.458 216.917 650.912 223.794C641.829 235.055 615.502 240.549 610.106 251.68C608.572 253.272 607.054 254.881 605.421 256.375C608.493 256.35 611.522 256.213 614.583 255.963C618.949 255.813 621.695 255.947 624.999 259.125C625.221 259.339 625.428 259.567 625.636 259.794C625.702 264.452 625.66 270.134 622.287 273.782C620.196 276.044 617.122 276.954 614.107 276.901C606.955 276.777 593.241 270.549 587.3 271.576C580.648 269.662 570.791 272.421 565.501 271.168C565.283 271.116 565.011 271.153 564.853 270.994C564.287 270.426 559.779 246.697 559.163 245.897C559.083 245.793 558.974 245.716 558.878 245.624C559.523 244.265 560.787 242.97 561.551 241.604C561.562 241.49 561.562 241.374 561.586 241.262C561.947 239.616 564.627 235.833 565.986 234.755L565.21 234.582C564.733 234.862 564.263 235.14 563.807 235.454C563.702 235.525 563.599 235.6 563.496 235.672L563.392 234.555L564.429 233.244C576.874 216.789 589.68 200.619 602.848 184.736C614.066 171.457 626.738 158.817 636.167 144.161Z" fill="#A4A911"/>
<path d="M636.167 144.161C640.813 139.65 643.325 133.367 647.034 128.158C641.001 148.242 620.017 168.268 607.323 184.832C597.94 196.177 588.044 207.073 578.706 218.463C575.484 222.395 571.828 226.342 568.993 230.544C575.281 227.753 583.242 226.569 590.035 225.488C599.026 223.939 619.131 222.03 627.167 225.255C608.688 226.565 590.298 229.014 572.8 235.332C569.028 236.693 564.714 237.9 562.047 241.014L561.551 241.604C561.562 241.49 561.562 241.374 561.586 241.262C561.947 239.616 564.627 235.833 565.987 234.755L565.21 234.582C564.734 234.862 564.264 235.14 563.808 235.454C563.703 235.525 563.6 235.6 563.497 235.672L563.392 234.555L564.429 233.244C576.874 216.789 589.681 200.619 602.849 184.736C614.066 171.457 626.738 158.817 636.167 144.161Z" fill="#D9E030"/>
<path d="M259.894 194.622C259.708 191.829 259.966 189.049 260.251 186.271C262.604 163.299 275.765 144.081 291.171 127.641C295.439 123.087 299.807 118.531 304.687 114.624C308.613 111.544 312.793 108.86 317.228 106.572C326.084 101.99 347.134 93.6148 356.74 94.9445C367.203 96.3945 370.25 108.548 375.207 116.185C377.481 119.689 380.705 122.587 383.217 125.935C388.098 131.517 391.161 138.122 390.707 145.676C390.683 146.065 390.65 146.454 390.608 146.842C390.565 147.23 390.513 147.616 390.451 148.002C390.389 148.387 390.318 148.77 390.237 149.152C390.156 149.534 390.065 149.913 389.965 150.29C389.865 150.668 389.756 151.042 389.637 151.414C389.519 151.786 389.391 152.154 389.254 152.519C389.117 152.885 388.971 153.247 388.817 153.604C388.661 153.963 388.497 154.317 388.324 154.667C388.152 155.016 387.971 155.362 387.781 155.703C387.591 156.044 387.393 156.38 387.187 156.711C386.98 157.042 386.766 157.367 386.543 157.688C386.32 158.008 386.089 158.323 385.85 158.632C385.612 158.94 385.366 159.243 385.113 159.539C384.859 159.836 384.598 160.126 384.33 160.41C384.063 160.693 383.788 160.97 383.505 161.24C383.224 161.51 382.936 161.772 382.641 162.028C376.945 166.976 368.646 169.477 361.159 168.878C355.692 168.441 349.866 165.946 346.252 161.72C346.154 161.607 346.069 161.482 345.979 161.363L343.49 159.344C331.361 170.48 322.576 184.57 321.941 201.416C321.869 203.73 321.992 206.035 322.31 208.328C322.627 210.622 323.134 212.873 323.832 215.082C326.487 224.331 331.116 234.683 339.839 239.726C341.331 240.589 342.87 241.075 344.525 241.519C346.405 241.659 348.468 242.129 350.328 241.958C357.834 242.279 365.396 241.43 371.565 246.504C371.668 247.42 371.796 248.138 371.541 249.04C370.587 250.517 369.679 252.047 368.56 253.407C365.051 257.306 359.475 258.876 355.454 262.272C350.538 265.411 346.479 270.119 342.231 274.082C338.622 277.449 334.574 280.328 330.41 282.965C326.044 278.823 320.283 277.513 314.465 277.171C302.981 277.541 291.618 285.43 283.307 292.812C276.47 288.261 271.061 285.726 262.987 284.035C256.703 274.469 248.489 267.388 240.051 259.841C237.309 257.251 234.805 254.547 232.348 251.687C233.492 249.819 243.875 245.373 246.419 244.247L246.486 243.947C248.766 242.795 251.185 240.864 253.069 239.122C261.117 231.687 260.807 223.105 261.195 212.983C261.27 206.983 260.662 200.576 259.894 194.622Z" fill="#868604"/>
<path d="M367.025 137.924C368.159 139.877 368.485 141.011 368.142 143.242L367.546 144.011C366.573 144 365.599 143.647 364.875 142.934L365.696 142.682C366.689 141.79 366.797 139.238 367.025 137.924Z" fill="#6F6E04"/>
<path d="M354.663 108.32C355.498 108.355 355.583 108.362 356.254 108.746C357.182 110.145 358.11 111.572 358.242 113.298C358.349 114.694 358.019 114.764 357.1 115.764C356.542 115.473 356.545 115.503 356.125 115.207C354.767 114.253 353.472 113.083 353.28 111.344C353.143 110.099 353.951 109.233 354.663 108.32Z" fill="#5D5A06"/>
<path d="M352.497 137.25C356.89 137.731 360.641 142.41 363.344 145.642C362.94 146.558 362.549 147.564 362.033 148.421C361.349 149.558 360.545 149.584 359.366 149.854C358.583 149.954 357.891 150.053 357.117 149.836C354.212 149.017 350.614 146.505 349.094 143.912C348.425 142.769 348.006 141.286 348.498 139.999C349.136 138.34 350.998 137.856 352.497 137.25Z" fill="#BECD13"/>
<path d="M266.488 271.753C281.423 259.175 277.897 234.07 274.955 216.923C273.766 209.995 272.097 203.11 271.819 196.061C271.763 194.683 271.764 193.305 271.822 191.928C271.88 190.551 271.995 189.178 272.166 187.809C272.338 186.441 272.566 185.083 272.849 183.734C273.132 182.384 273.471 181.048 273.864 179.727C279.351 161.034 295.446 140.665 312.66 131.288C326.034 124.002 340.517 121.769 355.149 126.446C360.772 128.243 364.416 132.886 367.025 137.923C366.797 139.237 366.689 141.789 365.696 142.681L364.874 142.934C361.103 139.048 357.339 135.05 351.509 135.017C348.303 135 343.801 135.608 341.471 138.074C339.761 139.883 339.448 142.544 339.581 144.928C339.986 152.205 344.295 154.743 346.109 159.927C346.321 160.532 346.258 160.837 345.978 161.363L343.489 159.343C339.99 153.965 338.429 153.273 336.774 146.407C336.87 142.613 337.786 139.379 340.635 136.735C341.815 135.64 343.139 134.742 344.486 133.869C330.612 132.092 316.473 136.827 305.515 145.257C290.81 156.573 279.971 175.472 277.754 193.884C277.084 199.437 276.396 207.734 278.51 213.052C279.032 212.182 279.342 210.977 279.731 210.017C280.696 215.197 281.269 220.367 282.053 225.568C284.113 239.24 288.491 261.682 280.263 273.707C278.648 276.07 276.392 277.866 274.722 280.147C276.258 279.903 277.704 279.852 279.258 279.852L278.181 280.101C284.507 280.239 291.292 278.786 297.462 279.643C303.439 278.771 309.401 276.896 315.244 275.362C314.822 276.03 314.504 276.364 314.465 277.171C302.981 277.541 291.617 285.431 283.307 292.812C276.469 288.261 271.061 285.726 262.987 284.035C256.703 274.469 248.488 267.389 240.051 259.841L241.924 259.375C243.974 261.559 246.373 263.373 248.916 264.949C249.133 265.491 249.352 266.063 249.747 266.506C253.392 270.579 261.371 271.901 266.488 271.753Z" fill="#5D5A06"/>
<path d="M274.722 280.147C276.258 279.903 277.704 279.852 279.258 279.852L278.181 280.101C284.508 280.239 291.293 278.786 297.462 279.643C297.008 279.823 296.879 279.891 296.339 280.008C292.641 280.818 269.402 283.305 267.311 281.774C267.695 280.632 268.385 280.46 269.379 279.823C270.931 280.613 273.014 279.94 274.722 280.147Z" fill="#868604"/>
<path d="M279.731 210.018C280.696 215.198 281.269 220.368 282.053 225.568C284.113 239.24 288.491 261.683 280.263 273.708C278.648 276.07 276.392 277.866 274.722 280.148C273.014 279.941 270.93 280.613 269.379 279.823C271.792 277.575 273.976 275.386 275.785 272.613C286.047 256.877 282.051 230.518 278.51 213.052C279.032 212.183 279.342 210.977 279.731 210.018Z" fill="#8D8D02"/>
<path d="M259.895 194.622C259.708 191.829 259.966 189.049 260.251 186.271C262.604 163.299 275.766 144.081 291.172 127.641C295.439 123.087 299.807 118.531 304.687 114.624C308.613 111.544 312.793 108.86 317.228 106.572C326.084 101.99 347.134 93.6148 356.74 94.9445C367.203 96.3945 370.25 108.548 375.207 116.185C377.481 119.689 380.705 122.587 383.217 125.935C382.741 127.244 383.541 128.414 384.107 129.653C385.761 133.271 388.303 137.591 386.769 141.678C385.871 144.073 383.633 145.555 381.489 146.737C380.482 144.924 380.397 139.914 379.443 137.31C375.799 127.367 369.941 118.58 363.372 110.383C361.796 108.419 360.035 105.425 357.479 104.692C355.388 104.093 352.001 104.515 350.139 105.638C349.323 106.13 348.734 106.727 348.604 107.715C348.3 110.016 350.379 112.831 351.907 114.334C354.976 117.353 361.831 120.224 363.414 124.381C360.628 125.167 349.255 119.819 344.962 119.194C329.023 116.873 309.208 127.136 297.345 137.29C290.069 143.518 282.734 152.362 278.025 160.731C270.152 174.726 268.598 190.292 269.431 206.05C269.768 212.432 271.913 218.795 272.772 225.146C274.509 237.993 274.406 259.92 259.022 264.591C255.578 265.636 252.44 265.629 248.916 264.949C246.373 263.373 243.974 261.559 241.924 259.375L240.051 259.841C237.309 257.251 234.805 254.548 232.348 251.688C233.492 249.819 243.875 245.373 246.418 244.247L246.486 243.947C248.766 242.795 251.184 240.864 253.069 239.123C261.117 231.688 260.807 223.105 261.195 212.984C261.271 206.983 260.662 200.576 259.895 194.622Z" fill="#A4A911"/>
<path d="M232.348 251.688C233.492 249.819 243.875 245.374 246.418 244.248C244.134 247.603 240.843 250.168 238.482 253.593C239.378 255.795 240.301 257.591 241.924 259.375L240.051 259.841C237.308 257.252 234.805 254.548 232.348 251.688Z" fill="#868604"/>
<path d="M334.43 101.454L335.1 101.496C329.032 104.557 322.315 105.59 316.828 110.064L317.029 110.413C317.779 110.398 318.56 110.451 319.27 110.171C320.492 109.689 321.927 108.87 323.266 109.028C320.224 111.381 316.675 112.923 313.54 115.115C311.814 116.323 310.44 117.978 308.649 119.112C308.427 119.253 308.202 119.388 307.979 119.524L307.96 120.049C309.351 119.965 312.689 117.293 313.894 116.44C314.352 116.116 314.51 115.927 315.001 115.675C319.521 113.355 331.79 108.583 336.611 110.051C337.652 110.368 339.554 110.751 340.059 111.677C339.687 111.559 339.312 111.453 338.948 111.31C337.301 110.662 336.071 110.315 334.261 110.373C317.333 110.913 302.779 125.11 291.964 136.679C277.455 152.199 267.149 173.315 266.469 194.727C266.16 204.482 267.4 213.933 267.745 223.634C267.961 226.825 267.922 230.012 267.63 233.196C266.988 240.207 265.029 245.97 259.451 250.55C256.544 252.937 251.943 255.973 248.062 255.415C246.765 255.229 245.983 254.709 245.176 253.672C243.759 249.257 254.529 242.485 257.366 239.28C269.187 225.934 262.423 200.661 264.326 183.774C265.369 174.51 268.454 165.984 272.729 157.734C281.264 141.262 297.089 122.133 312.389 111.862C319.381 107.169 326.432 103.994 334.43 101.454Z" fill="#BDC216"/>
<path d="M278.51 213.052C276.396 207.734 277.084 199.437 277.754 193.884C279.971 175.472 290.81 156.573 305.515 145.257C316.473 136.827 330.612 132.092 344.486 133.869C343.14 134.742 341.815 135.641 340.635 136.735C337.786 139.379 336.871 142.614 336.774 146.407C338.429 153.273 339.99 153.965 343.489 159.344C331.36 170.48 322.575 184.57 321.94 201.415C321.868 203.73 321.991 206.035 322.309 208.328C322.626 210.622 323.133 212.873 323.831 215.082C326.487 224.331 331.116 234.683 339.838 239.726C341.33 240.589 342.869 241.075 344.524 241.519C346.404 241.659 348.467 242.129 350.328 241.958C357.834 242.278 365.395 241.43 371.565 246.503C371.668 247.42 371.796 248.138 371.541 249.04C370.587 250.517 369.678 252.047 368.56 253.407C365.05 257.306 359.475 258.876 355.453 262.272C350.537 265.411 346.478 270.119 342.231 274.082C338.621 277.449 334.573 280.328 330.409 282.965C326.044 278.823 320.282 277.513 314.464 277.17C314.504 276.363 314.822 276.029 315.243 275.362C309.401 276.895 303.439 278.771 297.462 279.642C291.292 278.785 284.507 280.239 278.18 280.1L279.258 279.851C277.704 279.851 276.257 279.902 274.721 280.147C276.392 277.865 278.648 276.069 280.263 273.707C288.491 261.682 284.113 239.239 282.053 225.567C281.269 220.367 280.696 215.197 279.731 210.017C279.342 210.977 279.032 212.182 278.51 213.052Z" fill="#6F6E04"/>
<path d="M299.591 156.052C296.98 160.103 294.069 163.832 291.83 168.124L291.618 168.149L291.294 168.876L291.039 168.925C291.181 167.854 291.91 166.795 292.406 165.834L293.307 165.763L292.725 165.081L292.729 165.073C289.805 166.62 284.629 176.562 282.716 179.761C282.489 178.999 283.444 177.058 283.78 176.302C286.275 170.702 293.763 158.318 299.591 156.052Z" fill="#868604"/>
<path d="M309.151 233.108L309.856 233.049C311.176 236.207 312.35 239.582 313.939 242.605C317.059 248.542 322.491 254.971 326.981 259.935C329.138 262.321 331.732 264.511 333.753 266.985L330.807 268.735L329.233 268.791C327.27 266.301 324.963 264.016 322.967 261.524C315.996 252.819 312.077 243.775 309.151 233.108Z" fill="#8D8D02"/>
<path d="M309.151 233.108C309.037 232.909 308.897 232.723 308.81 232.51C307.983 230.491 307.678 227.795 307.18 225.641C304.001 211.877 304.386 198.452 308.754 184.939C311.665 175.935 316.249 167.869 322.183 160.504C323.216 159.223 324.378 157.487 325.859 156.722L325.963 157.533C315.111 170.728 309 187.149 310.608 204.315C312.012 219.298 318.806 234.282 330.584 243.889C336.838 248.99 343.234 251.698 351.069 253.366C346.737 258.026 339.415 263.928 333.752 266.985C331.732 264.511 329.138 262.321 326.981 259.935C322.491 254.971 317.058 248.543 313.939 242.605C312.35 239.582 311.175 236.207 309.856 233.05L309.151 233.108Z" fill="#868604"/>
<path d="M299.591 156.052C306.278 149.143 312.875 144.903 322.686 144.524C319.549 149.999 315.738 155.025 312.475 160.418C299.257 182.269 293.478 203.204 300.323 228.547C303.688 241.005 309.144 252.49 318.945 261.146C322.099 263.931 325.658 266.145 328.826 268.951L329.233 268.791L330.806 268.735C325.959 271.737 320.688 273.723 315.243 275.362C309.401 276.896 303.439 278.771 297.462 279.643C291.292 278.786 284.507 280.239 278.18 280.101L279.258 279.852C277.704 279.852 276.257 279.903 274.721 280.147C276.392 277.866 278.648 276.069 280.263 273.707C288.491 261.682 284.113 239.24 282.053 225.568C281.269 220.367 280.696 215.197 279.731 210.017C279.71 209.859 279.683 209.701 279.671 209.543C278.764 197.838 283.328 177.835 291.038 168.925L291.293 168.877L291.618 168.149L291.829 168.124C294.069 163.832 296.98 160.103 299.591 156.052Z" fill="url(#paint6_linear_24_118057)"/>
<path d="M70.598 0C71.6061 0.300731 72.6082 0.619514 73.6041 0.956759C94.9361 8.24219 111.131 26.8645 120.839 46.5464C122.256 48.8417 124.327 53.1458 127.228 53.7684C137.806 56.0376 149.972 25.2191 172.244 51.4957C182.988 64.1717 189.841 84.1365 188.385 100.761C187.59 109.833 184.121 117.478 181.809 126.105C192.736 121.208 196.056 108.455 210.168 113.065C220.126 120.616 224.809 131.399 226.449 143.517C227.4 150.538 227.428 157.501 227.222 164.568C224.512 182.242 218.548 199.447 205.122 211.966C203.096 212.875 200.953 214.034 198.832 214.658C189.302 217.091 170.144 222.49 162.649 227.688C160.89 228.461 159.332 229.44 157.719 230.471C151.951 231.837 146.085 232.817 140.409 234.541C125.668 239.019 112.05 247.75 100.356 257.666C96.0902 261.282 92.2556 267.042 87.4601 269.799C77.1597 269.38 68.841 266.041 60.3221 260.293C48.625 252.399 33.6765 237.997 31.0167 223.47C30.0892 218.404 30.9479 214.119 33.8845 209.918C35.7262 207.872 37.7546 206.885 40.2283 205.822L38.4174 204.98C30.4622 204.265 22.3771 198.71 16.8479 193.293C7.73097 184.362 0.0276749 171.287 0.000596813 158.217C-0.00268538 157.671 0.00757021 157.126 0.0313661 156.582C0.0549568 156.038 0.092085 155.494 0.142549 154.951C0.193012 154.408 0.256811 153.867 0.333738 153.327C0.410869 152.787 0.501126 152.25 0.60472 151.715C0.708314 151.179 0.824831 150.647 0.954682 150.117C1.08453 149.588 1.22711 149.062 1.3828 148.539C1.5385 148.017 1.70692 147.499 1.88806 146.984C2.06919 146.47 2.26285 145.96 2.46921 145.456C2.67558 144.952 2.89405 144.452 3.12483 143.958C3.35561 143.463 3.59849 142.976 3.85327 142.494C4.10825 142.012 4.37473 141.537 4.65289 141.068C4.93126 140.599 5.22071 140.137 5.52185 139.683C5.82279 139.228 6.1348 138.781 6.45789 138.342C6.78098 137.903 7.11454 137.472 7.45876 137.049C7.80298 136.626 8.15745 136.212 8.52198 135.807C8.88651 135.401 9.26088 135.005 9.6451 134.618C16.6565 127.692 21.1652 128.548 29.9262 128.544L30.7258 128.539C22.5332 117.606 12.0735 101.073 14.384 86.6519C16.4407 73.814 28.8277 66.7866 38.498 59.8952C53.7477 49.0277 52.7041 43.0486 55.597 26.0413C57.2407 16.3804 62.4559 5.78691 70.598 0Z" fill="#8D8D02"/>
<path d="M113.497 134.69C111.843 130.944 112.601 128.765 113.935 125.091C114.308 126.504 114.625 127.967 115.125 129.34C115.786 128.69 116.077 127.923 116.767 127.28L115.719 131.12C114.844 132.291 114.088 133.349 113.497 134.69Z" fill="#BECD13"/>
<path d="M80.8623 114.844L81.5538 114.514C88.3705 118.7 95.0073 123.928 101.387 128.758C103.61 130.441 106.161 133.305 108.679 134.338L109.832 136.645C110.469 139.045 111.962 141.558 112.963 143.865C108.75 138.603 104.405 133.322 99.0707 129.15C93.398 123.901 87.0689 119.431 80.8623 114.844Z" fill="#868604"/>
<path d="M30.1877 137.401C34.9265 136.712 42.4165 138.165 46.5383 140.605C48.0707 141.511 48.1804 142.388 48.5484 144C43.5675 144.226 37.6551 142.671 33.2196 140.363C31.6856 139.565 30.7165 139.091 30.1877 137.401Z" fill="#BECD13"/>
<path d="M119.517 216.304C115.92 218.28 110.76 218.286 106.798 219.621C93.8372 223.992 81.5901 230.209 68.6243 234.573C66.9095 235.15 63.6907 235.764 62.336 236.752C61.4773 237.148 60.61 237.524 59.734 237.88C58.2944 238.452 57.5881 238.27 56.1554 237.638L56.2504 237.176C59.7939 235.228 64.6065 234.819 68.4364 233.256C81.264 228.02 93.3041 220.528 107.036 217.765C111.121 216.942 115.371 216.685 119.517 216.304Z" fill="#6F6E04"/>
<path d="M38.4178 204.98C43.435 200.8 51.9201 199.778 57.9829 197.517C59.2777 197.035 60.3416 196.884 61.7268 196.809L62.2485 196.787C62.9185 195.587 61.4483 195.914 61.5322 194.706L62.1976 194.978C62.8132 195.901 62.8235 196.69 62.8972 197.756C64.202 197.544 64.5462 198.026 65.7481 198.239C64.7883 199.221 63.8512 200.234 62.8134 201.134C59.0051 203.609 55.0913 206.788 50.2745 205.83C50.065 205.788 49.8603 205.73 49.6509 205.693C49.5932 205.683 49.5354 205.688 49.4777 205.686C49.0514 205.767 48.6235 205.84 48.1942 205.906C45.9555 206.245 42.0813 207.199 40.2287 205.822L38.4178 204.98Z" fill="#6F6E04"/>
<path d="M62.8973 197.756C64.2022 197.544 64.5464 198.026 65.7483 198.239C64.7884 199.221 63.8514 200.234 62.8136 201.134C59.0052 203.609 55.0914 206.787 50.2746 205.83C50.0651 205.788 49.8604 205.73 49.651 205.693C49.5933 205.683 49.5355 205.688 49.4778 205.686C54.4348 203.813 59.5652 202.126 62.8973 197.756Z" fill="#999B03"/>
<path d="M95.9514 131.63C92.1711 127.941 88.2391 124.422 84.1548 121.073C80.0705 117.723 75.8494 114.557 71.4913 111.574C64.7322 107.032 54.1851 101.874 48.7287 96.0443L49.1576 95.5439C60.1417 101.175 70.7341 107.8 80.8624 114.844C87.069 119.432 93.3981 123.901 99.0705 129.15L98.8668 129.74C96.2353 127.578 93.3663 124.31 90.1622 123.204L89.5612 124.381L89.4785 124.322C91.0133 126.429 95.4771 129.405 95.9514 131.63Z" fill="#D9E030"/>
<path d="M108.925 146.939C107.107 145.875 105.653 143.589 104.312 141.972C96.5388 132.601 87.4832 124.934 78.1516 117.185C77.2326 117.233 76.1098 117.352 75.2111 117.149C74.6634 117.026 65.9712 111.88 65.0997 111.228C63.6646 110.156 63.6896 108.03 62.3041 106.859C59.5957 104.567 47.0883 97.0738 45.9328 95.6274C45.5615 95.1621 45.4755 94.1775 45.0784 93.7645C43.52 92.1437 39.1071 91.9095 36.981 89.1118L37.3498 88.6636C37.844 88.6987 37.9519 88.6907 38.5027 88.8232C43.0752 89.9256 54.8683 96.156 59.1387 98.7342C60.6665 99.6567 61.9784 100.882 63.5198 101.793C66.2508 103.405 71.3755 105.275 72.8785 108.065L72.2957 108.04C68.7272 104.976 64.2012 103.266 60.4606 100.454C56.7324 97.6533 50.3527 94.2296 45.8163 93.16C46.493 94.199 48.1013 94.8407 49.1573 95.5435L48.7284 96.0438C54.1848 101.874 64.7319 107.031 71.491 111.573C75.8491 114.556 80.0702 117.723 84.1545 121.072C88.2388 124.421 92.171 127.941 95.9511 131.63C100.001 136.64 106.094 141.072 108.925 146.939Z" fill="#BECD13"/>
<path d="M69.4322 134.863C71.5691 134.633 72.8865 135.581 74.5637 136.808C76.6723 138.349 78.139 140.71 78.4209 143.324C78.5725 144.72 78.2465 146.781 77.2042 147.79C76.412 148.556 75.5994 148.671 74.5637 148.675C72.7167 148.979 70.9974 148.921 69.1821 148.415C67.4857 147.942 65.8751 146.671 65.0804 145.089C64.3742 143.684 64.3233 141.977 64.8236 140.497C65.5943 138.221 67.2898 135.958 69.4322 134.863Z" fill="#BECD13"/>
<path d="M69.078 135.77C69.8669 135.707 70.5096 135.668 71.2918 135.865C73.2701 136.363 76.2344 138.636 77.0038 140.563C77.3784 141.499 77.4418 142.638 76.9417 143.544C76.0658 145.128 74.3986 145.54 72.7981 146.006C71.2826 146.87 70.1463 147.676 68.3378 147.365C66.7521 146.468 65.8694 144.734 64.8825 143.247C65.9328 140.514 66.7817 137.726 69.078 135.77Z" fill="#BDC216"/>
<path d="M65.7485 198.239C66.8486 199.058 68.6333 200.091 69.0136 201.466C69.0532 201.608 69.0374 201.758 69.0487 201.904L68.9207 201.716C68.9818 201.983 69.0487 202.248 69.1051 202.515C69.4582 204.203 69.0179 205.693 68.0774 207.112C64.69 212.23 55.321 215.2 49.5263 216.221C44.637 217.084 40.1414 216.123 35.2832 216.03C36.4523 215.709 37.5097 215.131 38.6961 214.827C45.7833 213.007 55.1195 211.691 60.4582 206.18C61.8016 204.793 62.8156 203.091 62.8134 201.134C63.8516 200.235 64.7886 199.222 65.7485 198.239Z" fill="#A4A911"/>
<path d="M62.8134 201.134C62.8157 203.091 61.8017 204.793 60.4582 206.179C55.1196 211.69 45.7836 213.006 38.6961 214.826C37.5096 215.131 36.4523 215.708 35.2832 216.029C34.9716 215.745 34.8213 215.623 34.5337 215.28C33.3234 213.834 33.7562 211.661 33.8846 209.918C35.7263 207.871 37.7547 206.884 40.2285 205.822C42.0813 207.199 45.9553 206.245 48.1939 205.905C48.6233 205.84 49.051 205.766 49.4775 205.686C49.5351 205.688 49.593 205.682 49.6506 205.693C49.86 205.73 50.0648 205.788 50.2742 205.83C55.0912 206.787 59.0051 203.609 62.8134 201.134Z" fill="#BECD13"/>
<path d="M95.9513 131.629C95.4771 129.404 91.0133 126.429 89.4787 124.321L89.5613 124.38L90.1624 123.203C93.3664 124.309 96.2355 127.577 98.867 129.739L99.0707 129.149C104.405 133.321 108.75 138.602 112.963 143.865C111.962 141.557 110.469 139.045 109.832 136.644L110.707 136.095C113.715 141.65 114.769 148.581 118.213 153.716C121.763 162.786 125.085 171.913 127.72 181.294C127.713 181.413 127.703 181.532 127.699 181.651C127.587 185.752 129.904 191.062 130.974 195.067C132.091 199.248 132.556 203.499 133.805 207.72C134.077 208.637 134.808 209.79 134.26 210.58C132.367 206.705 130.288 202.808 128.678 198.81C127.662 196.286 124.965 185.511 123.54 184.416C119.725 170.962 117.361 158.455 108.925 146.939C106.094 141.072 100.001 136.64 95.9513 131.629Z" fill="#BDC216"/>
<path d="M118.212 153.716L118.787 153.81C123.814 163.656 126.875 175.516 129.896 186.15C130.786 189.285 131.392 192.627 132.484 195.681C133.878 199.572 134.312 204.277 135.373 208.341C136.668 213.304 138.742 218.116 139.692 223.133C140.151 225.565 142.173 229.693 141.084 231.996C138.999 230.956 135.085 218.418 133.583 215.414C132.669 213.585 131.362 211.644 130.034 210.085L129.562 210.646L130.16 210.254L129.717 210.998C130.635 212.652 133.595 215.998 133.333 217.731C133.067 219.497 131.015 220.539 130.653 222.227C130.203 224.332 130.75 226.802 130.505 228.977C130.341 230.422 129.982 231.747 129.14 232.949C127.88 234.747 120.915 240.323 118.852 241.463C118.412 241.706 117.954 241.917 117.506 242.147C113.508 244.2 109.85 247.184 105.877 249.396C101.963 251.575 97.7846 252.903 94.395 254.753C87.4129 258.561 70.9454 257.555 63.5141 255.393C59.701 254.283 54.677 251.267 50.9648 249.433L51.1347 248.954C55.0415 249.039 61.9862 253.853 66.8213 254.976C68.6027 255.39 70.5517 255.375 72.3772 255.599C75.1275 255.937 78.0657 256.478 80.8362 256.353C94.4245 255.747 107.943 247.781 118.648 239.963C121.179 238.114 124.226 236.601 126.517 234.504C128.941 232.286 129.674 229.093 129.765 225.903C129.78 225.392 129.7 224.991 129.599 224.493L129.106 224.541L129.125 225.019L127.972 226.37C128.175 225.894 128.365 225.419 128.558 224.94C129.902 221.605 128.458 218.332 127.27 215.166C126.754 213.869 126.218 212.58 125.662 211.3C116.512 190.487 91.7423 175.977 69.7517 173.811C61.4522 172.993 48.782 173.732 41.3131 170.818C44.456 170.346 48.4741 171.359 51.7843 171.346C69.2739 171.277 80.7626 169.567 97.6378 176.9C107.986 179.715 115.479 185.578 122.254 193.665C123.968 195.709 125.818 198.54 128.072 199.949C126.423 195.172 123.898 189.43 123.54 184.416C124.965 185.512 127.662 196.287 128.678 198.81C130.288 202.809 132.367 206.706 134.26 210.581C134.808 209.791 134.077 208.638 133.805 207.721C132.556 203.499 132.09 199.248 130.974 195.067C129.904 191.062 127.587 185.753 127.699 181.651C127.703 181.532 127.713 181.413 127.72 181.295C125.085 171.913 121.763 162.786 118.212 153.716Z" fill="#6F6E04"/>
<path d="M127.72 181.295C131.019 189.124 132.192 198.041 134.285 206.266C136.424 214.67 139.306 222.887 140.898 231.429C138.677 226.035 136.874 219.767 133.951 214.737C134.408 210.165 130.173 203.972 128.071 199.949C126.422 195.172 123.897 189.43 123.54 184.416C124.965 185.512 127.662 196.287 128.678 198.811C130.287 202.809 132.366 206.706 134.26 210.581C134.808 209.791 134.076 208.638 133.805 207.721C132.555 203.5 132.09 199.249 130.973 195.068C129.904 191.062 127.587 185.753 127.699 181.651C127.702 181.533 127.713 181.414 127.72 181.295Z" fill="#999B03"/>
<path d="M97.6375 176.9C107.985 179.715 115.479 185.578 122.254 193.666C123.967 195.71 125.818 198.54 128.071 199.949C130.173 203.972 134.408 210.165 133.951 214.737C132.044 212.078 130.539 209.044 128.655 206.326C123.475 198.85 116.535 191.366 109.524 185.612C105.717 182.489 101.436 180.054 97.6375 176.9Z" fill="#868604"/>
<path d="M127.27 215.166C128.457 218.332 129.902 221.605 128.558 224.94C128.365 225.419 128.175 225.894 127.972 226.37C125.824 231.257 115.984 235.004 111.392 236.788C102.415 240.274 90.9182 244.268 81.1746 243.067C77.5336 242.617 73.9119 241.353 70.4849 240.1C68.3412 239.317 65.6942 238.612 63.7078 237.516C63.4723 237.386 63.2506 237.232 63.022 237.091L63.0809 236.853L62.3363 236.751C63.691 235.763 66.9098 235.15 68.6245 234.572C81.5904 230.208 93.8375 223.991 106.799 219.62C110.76 218.285 115.92 218.279 119.518 216.303C121.209 215.107 125.116 215.784 127.27 215.166Z" fill="#868604"/>
<path d="M70.598 0C71.606 0.300731 72.6081 0.619514 73.604 0.956759C94.936 8.24219 111.131 26.8645 120.839 46.5464C120.673 46.4604 120.503 46.3835 120.342 46.2893C118.613 45.2809 117.425 41.589 116.166 39.8913C115.773 39.3617 115.481 38.6451 115.187 38.0521L114.671 37.9275C114.747 39.0242 120.151 50.5254 121.067 52.076C122.037 53.7194 123.193 55.1375 124.503 56.5173C127.202 57.5438 128.726 57.5856 131.385 56.3757C138.392 53.1862 143.22 47.0044 150.871 44.8009C157.85 48.4905 160.147 57.7678 162.345 64.8448C169.161 86.7868 162.411 111.96 151.843 131.742C149.443 136.236 146.795 140.643 144.574 145.227C142.839 148.807 141.598 152.627 139.723 156.136C136.922 161.377 135.459 168.423 133.933 174.192C133.415 176.155 133.081 178.704 132.05 180.442C130.873 178.78 130.84 175.715 129.984 173.678C128.73 170.69 128.011 167.349 126.984 164.264C124.028 155.398 120.375 145.513 115.345 137.643L113.497 134.69C114.088 133.349 114.844 132.29 115.719 131.12L116.767 127.28C116.077 127.923 115.786 128.69 115.125 129.34C114.624 127.967 114.308 126.504 113.935 125.091C120.184 109.364 128.521 95.1043 136.021 80.0153C135.56 78.0369 137.876 76.9335 137.982 75.0128C137.179 75.8063 136.382 76.5519 135.501 77.2605C132.864 79.3837 131.025 82.1905 128.195 84.1305C121.797 88.5151 118.216 96.1682 114.546 102.764C113.402 104.82 112.07 106.54 111.233 108.76L110.726 108.943C110.591 106.366 113.5 103.472 114.483 101.233C115.827 98.1748 116.353 92.3337 115.877 89.013C116.036 88.8251 116.2 88.6407 116.355 88.4482C117.14 87.4761 117.383 86.5288 117.247 85.2871C117.1 83.9459 115.947 82.2617 114.826 81.5454C114.493 81.3337 114.271 81.3156 113.917 81.2465C112.068 88.0938 108.132 94.4319 107.207 101.532C106.785 104.774 107.568 107.908 107.374 111.138C108.136 113.727 109.122 116.346 109.004 119.076C109.378 118.647 109.224 118.907 109.405 118.341C111.475 111.86 116.029 101.873 120.305 96.7239C115.943 104.789 108.829 117.853 107.559 126.737L107.671 126.657C106.978 126.165 107.327 126.327 106.657 126.113L106.401 126.223L110.707 136.095L109.832 136.644L108.679 134.338C106.658 128.751 103.99 123.535 101.216 118.298C96.5523 114.387 94.3395 105.629 91.0641 100.418C87.6563 94.9991 78.491 97.6203 71.9176 96.1671C66.1081 94.8826 61.0751 92.0656 55.527 90.1031C53.4694 89.3765 51.2646 89.2034 49.3384 88.128C46.4581 86.5198 36.5026 77.1893 34.9236 74.5149C34.8127 74.326 34.7111 74.1336 34.6046 73.9422C33.8875 74.5951 33.4791 75.2879 32.4819 75.3072C31.4564 73.6763 32.5174 72.5479 32.2021 70.7098C28.9658 71.5993 26.6564 76.603 23.9564 78.6482C23.7435 78.8101 23.5254 78.9639 23.3098 79.1225C21.8037 81.4223 21.1296 83.8444 21.6453 86.5969C23.6233 97.1588 44.8348 116.815 48.5076 132.715C48.9105 134.46 49.5035 136.148 48.6061 137.829C47.1381 138.734 45.7188 138.542 44.0754 138.165C39.0028 137 33.8315 132.622 30.7257 128.539C22.5332 117.606 12.0734 101.073 14.3839 86.6515C16.4406 73.8136 28.8276 66.7862 38.4979 59.8948C53.7476 49.0273 52.7041 43.0482 55.5969 26.0409C57.2407 16.3804 62.4559 5.78691 70.598 0Z" fill="url(#paint7_linear_24_118057)"/>
<path d="M115.719 131.12C115.888 132.96 115.995 135.904 115.345 137.643L113.497 134.69C114.088 133.349 114.844 132.29 115.719 131.12Z" fill="#999B03"/>
<path d="M136.021 80.0153C136.133 79.884 136.245 79.7527 136.355 79.6191C137.928 77.711 139.062 75.2062 140.419 73.1024C142.662 69.6255 151.404 56.7683 155.457 56.3622C156.122 56.2953 155.965 56.3587 156.584 56.7808C156.332 59.8062 146.352 71.6627 144.072 75.1701C134.572 89.7894 123.165 111.276 116.767 127.28C116.077 127.923 115.786 128.69 115.125 129.34C114.624 127.967 114.308 126.504 113.935 125.091C120.184 109.364 128.521 95.1041 136.021 80.0153Z" fill="#D9E030"/>
<path d="M61.3184 20.1753C63.3884 14.2821 66.2803 7.47935 71.303 3.46729C88.4882 8.98403 99.2933 20.9012 107.439 36.6309C114.893 51.0217 117.48 67.9543 112.367 83.5505C110.44 89.4256 107.025 95.7998 106.321 101.928C105.983 104.861 107.314 107.963 106.802 110.865L107.374 111.139C108.136 113.727 109.122 116.346 109.004 119.076C109.378 118.647 109.224 118.908 109.405 118.342C111.475 111.861 116.029 101.874 120.305 96.7245C115.943 104.79 108.829 117.854 107.559 126.737L107.671 126.658C106.978 126.166 107.327 126.328 106.657 126.114L106.401 126.223L110.707 136.096L109.832 136.645L108.679 134.338C106.658 128.752 103.99 123.536 101.216 118.299C96.5523 114.387 94.3395 105.63 91.0641 100.419C87.6563 94.9997 78.491 97.621 71.9176 96.1678C66.1081 94.8832 61.0751 92.0663 55.527 90.1038C53.4695 89.3772 51.2647 89.204 49.3384 88.1287C46.4581 86.5204 36.5026 77.19 34.9237 74.5156C34.8127 74.3267 34.7111 74.1343 34.6047 73.9429C33.8875 74.5958 33.4791 75.2886 32.4819 75.3078C31.4564 73.677 32.5174 72.5485 32.2021 70.7105C28.9659 71.6 26.6564 76.6037 23.9564 78.6489C23.7435 78.8108 23.5254 78.9646 23.3098 79.1232C31.4019 67.4228 46.0029 61.7366 53.5249 49.6514C58.9688 40.905 55.8517 29.2204 61.1102 20.5092C61.1781 20.3966 61.2495 20.2864 61.3184 20.1753Z" fill="#BECD13"/>
<path d="M77.8721 46.8562C77.9422 43.2628 75.7093 38.0338 76.7516 34.7426L77.5313 34.4482C78.4503 38.8078 80.1185 42.9887 81.0092 47.3132C80.8484 47.0947 80.681 46.8797 80.5271 46.658C79.3886 45.0169 78.9131 42.5655 78.3734 40.6448C78.3792 46.1328 80.0756 51.4274 80.2555 56.8849C79.108 53.6593 78.5037 50.2118 77.8721 46.8562Z" fill="#BDC216"/>
<path d="M72.4846 13.6982C74.2683 17.7144 73.7239 22.8933 74.5489 27.2276C75.3219 33.5001 75.5664 40.9857 77.8719 46.8564C78.5035 50.2122 79.1079 53.6595 80.2554 56.8851C84.4441 76.4244 92.3249 95.3817 100.324 113.618C102.068 117.593 103.807 122.783 106.401 126.223L110.706 136.096L109.831 136.645L108.679 134.338C106.658 128.751 103.99 123.535 101.216 118.298C99.1653 113.316 96.0347 108.645 93.6071 103.814C88.6371 93.7876 84.1087 83.566 80.0222 73.1489C80.3368 73.3561 80.8234 73.9412 81.0928 74.2185C81.3849 68.0447 77.874 60.9324 76.5057 54.8739C73.579 41.9216 71.766 26.9831 72.4846 13.6982Z" fill="#D9E030"/>
<path d="M80.2557 56.8851C80.0758 51.4276 78.3791 46.133 78.3736 40.645C78.9135 42.5657 79.3888 45.0171 80.5273 46.6582C80.6812 46.8799 80.8487 47.0951 81.0094 47.3134C84.3958 58.7467 87.8183 70.196 92.5604 81.1595C96.5614 90.4073 101.578 99.1913 105.617 108.421L106.802 110.865L107.375 111.138C108.136 113.727 109.122 116.346 109.004 119.076C109.378 118.647 109.224 118.907 109.405 118.341C111.475 111.861 116.029 101.874 120.305 96.7241C115.944 104.789 108.829 117.853 107.559 126.737L107.671 126.658C106.978 126.165 107.327 126.327 106.657 126.113L106.401 126.223C103.807 122.783 102.069 117.593 100.325 113.618C92.3251 95.3817 84.4444 76.4242 80.2557 56.8851Z" fill="#999B03"/>
<path d="M61.3184 20.1753C62.3111 32.3934 63.5265 40.609 69.2693 51.7571C71.0712 55.2543 73.5101 58.558 75.0923 62.1414C76.3361 64.9608 77.9964 71.2183 80.0224 73.1492C84.1089 83.5663 88.6371 93.7878 93.6074 103.814C96.0349 108.645 99.1655 113.316 101.216 118.299C96.5523 114.387 94.3395 105.629 91.0641 100.419C87.6563 94.9996 78.491 97.6208 71.9176 96.1676C66.1081 94.8831 61.0751 92.0661 55.527 90.1036C53.4695 89.377 51.2646 89.2039 49.3384 88.1285C46.4581 86.5203 36.5026 77.1898 34.9237 74.5154C34.8127 74.3265 34.7111 74.1341 34.6047 73.9427C33.8875 74.5956 33.4791 75.2884 32.4819 75.3077C31.4564 73.6768 32.5174 72.5484 32.2021 70.7104C28.9659 71.5998 26.6564 76.6035 23.9564 78.6487C23.7435 78.8106 23.5254 78.9644 23.3098 79.123C31.4019 67.4226 46.0029 61.7364 53.5248 49.6512C58.9688 40.9048 55.8517 29.2202 61.1102 20.5091C61.1781 20.3966 61.2495 20.2865 61.3184 20.1753Z" fill="#BDC216"/>
<path d="M205.123 211.966C224.114 207.56 236.388 206.928 255.693 210.437C257.546 211.157 259.616 211.756 261.195 212.984C260.807 223.106 261.116 231.688 253.068 239.123C251.184 240.864 248.765 242.795 246.486 243.947L246.418 244.247C243.875 245.374 233.492 249.819 232.348 251.688C234.805 254.548 237.308 257.252 240.051 259.841C248.488 267.389 256.703 274.469 262.986 284.035C271.06 285.726 276.469 288.261 283.306 292.812C281.715 293.788 279.1 297.596 277.526 297.856C268.178 289.866 259.531 287.396 247.215 288.348C227.106 289.902 204.795 302.512 189.531 315.356C183.117 320.753 177.319 326.875 171.91 333.269C163.056 343.736 155.975 354.621 149.29 366.571C146.752 371.105 143.974 375.535 141.68 380.197C132.727 398.396 127.805 418.202 124.17 438.056C122.615 446.553 121.045 455.06 120.31 463.676C120.251 464.366 120.227 464.631 119.867 465.196L119.458 467.651C118.857 471.472 120.021 476.262 118.644 479.817C118.375 518.807 129.021 548.941 150.587 581.311C156.51 590.144 163.031 598.511 170.148 606.414C170.941 607.292 178.115 614.839 178.082 615.241C178.061 615.485 177.878 615.69 177.747 615.897C177.712 615.955 177.642 615.982 177.589 616.024C174.883 615.476 172.251 614.73 169.597 613.972C155.925 609.885 143.038 603.264 130.673 596.259C126.906 594.126 122.958 592.089 119.394 589.626C109.182 584.422 99.4892 576.311 90.5719 569.185C88.8772 567.938 87.2074 566.659 85.5626 565.348C83.917 564.037 82.2971 562.696 80.7027 561.323C79.1092 559.951 77.5424 558.548 76.0024 557.115C74.4617 555.683 72.9492 554.221 71.465 552.73C69.9809 551.239 68.5258 549.72 67.0997 548.174C65.6736 546.628 64.2774 545.054 62.911 543.455C61.5454 541.855 60.2106 540.23 58.9067 538.578C57.6037 536.927 56.3323 535.252 55.0926 533.553C53.853 531.853 52.6464 530.13 51.4732 528.384C50.2998 526.638 49.1603 524.87 48.054 523.08C46.9485 521.291 45.8775 519.481 44.8409 517.65C43.805 515.82 42.8041 513.97 41.8383 512.101C40.8725 510.232 39.9429 508.345 39.0497 506.441C38.1565 504.536 37.3001 502.615 36.4804 500.678C35.6606 498.741 34.8782 496.789 34.1332 494.822C33.3881 492.854 32.681 490.873 32.0121 488.879C26.3811 476.518 23.2482 449.589 22.7224 435.557C20.4594 375.17 46.7107 313.69 87.461 269.798C92.2565 267.041 96.0909 261.282 100.357 257.666C112.05 247.75 125.669 239.018 140.41 234.541C146.086 232.817 151.952 231.837 157.72 230.471C159.333 229.44 160.891 228.461 162.65 227.688C170.145 222.49 189.303 217.091 198.833 214.658C200.953 214.034 203.097 212.875 205.123 211.966Z" fill="url(#paint8_linear_24_118057)"/>
<path d="M106.483 316.904C105.77 317.242 105.054 317.525 104.314 317.799L103.9 317.338C105.142 313.592 108.787 311.042 110.936 307.848C113.944 303.379 119.265 298.998 123.688 295.98L123.565 296.213C128.335 294.176 133.909 287.793 139.131 285.043C141.298 283.901 143.256 282.427 145.44 281.269L145.966 281.873C130.38 291.226 117.618 302.487 106.483 316.904Z" fill="#EC6801"/>
<path d="M169.597 613.972C166.868 610.029 162.326 606.37 158.931 602.914C154.316 598.228 150.031 593.258 146.075 588.004C124.554 559.723 112.969 521.714 112.984 486.404C112.986 480.946 112.992 475.534 113.725 470.117C113.439 480.841 113.063 491.485 114.054 502.189C114.277 504.514 114.547 506.834 114.865 509.148C115.182 511.462 115.546 513.769 115.959 516.068C116.371 518.367 116.83 520.657 117.335 522.937C117.842 525.217 118.394 527.486 118.994 529.743C119.593 532.001 120.238 534.245 120.929 536.476C121.62 538.707 122.357 540.923 123.138 543.124C123.92 545.325 124.747 547.509 125.618 549.676C126.489 551.844 127.405 553.992 128.365 556.122C129.325 558.251 130.327 560.36 131.373 562.448C132.42 564.537 133.508 566.603 134.638 568.647C135.769 570.69 136.942 572.71 138.156 574.705C139.369 576.701 140.623 578.671 141.918 580.616C143.212 582.56 144.546 584.477 145.919 586.366C147.292 588.256 148.703 590.117 150.152 591.948C151.601 593.78 153.088 595.582 154.611 597.352C156.134 599.123 157.693 600.862 159.288 602.569C160.649 604.047 162.484 606.057 164.596 606.145C165.284 605.591 165.902 605.085 166.503 604.429L165.288 603.084C165.287 600.318 153.419 587.712 151.379 583.619C149.497 579.845 146.618 576.404 144.365 572.825C143.366 571.236 142.735 569.521 141.837 567.886C140.011 564.569 138.014 561.346 136.215 558.016C127.566 542.009 120.489 519.887 118.811 501.741C117.861 491.47 118.194 481.216 118.202 470.918L118.552 471.333C118.527 471.134 118.515 470.933 118.479 470.735C118.454 470.595 118.405 470.462 118.369 470.325L118.573 470.507C118.518 473.618 118.477 476.707 118.644 479.816C118.376 518.806 129.022 548.94 150.588 581.31C156.511 590.143 163.031 598.51 170.149 606.413C170.942 607.292 178.115 614.839 178.083 615.24C178.062 615.485 177.879 615.689 177.748 615.897C177.713 615.954 177.642 615.982 177.59 616.023C174.884 615.476 172.251 614.73 169.597 613.972Z" fill="#972000"/>
<path d="M232.348 251.687C225.947 246.233 215.219 240.506 207.337 237.559C204.03 236.322 198.564 235.925 195.849 233.796C196.269 233.525 196.737 233.398 197.184 233.181L196.657 232.975L196.512 232.437L197.19 232.197C199.125 233.039 206.713 233.532 209.593 234.188C220.938 236.789 232.145 239.892 243.213 243.496C244.29 243.649 245.402 243.867 246.486 243.947L246.418 244.247C243.875 245.373 233.492 249.819 232.348 251.687Z" fill="#D84F01"/>
<path d="M198.832 214.658C213.851 215.709 227.894 217.655 238.321 229.714C239.393 230.942 240.381 232.234 241.286 233.588C242.192 234.942 243.009 236.349 243.734 237.807C241.244 237.536 238.16 235.78 235.813 234.832C230.236 232.576 224.529 230.34 218.529 229.546C203.013 227.492 187.142 227.585 171.536 228.075C168.974 228.155 164.99 228.728 162.65 227.688C170.145 222.49 189.302 217.091 198.832 214.658Z" fill="#EC6801"/>
<path d="M90.5718 569.185C90.5503 569.073 90.5323 568.96 90.5062 568.849C89.5419 564.647 82.1502 557.11 79.4465 553.024C64.2612 530.077 58.3171 505.074 57.8599 477.85C57.7965 474.059 57.0767 460.207 58.4372 457.2C58.4915 457.08 58.5887 456.985 58.6659 456.876C58.9104 463.278 59.508 469.599 60.0782 475.976C60.3839 479.392 60.4495 482.817 60.9893 486.211C61.6242 490.199 62.808 494.073 63.7633 497.989C68.5451 517.606 75.8215 535.733 87.5331 552.296C94.7086 562.444 103.408 571.914 112.306 580.578C113.723 581.956 119.459 586.738 119.688 588.369C119.713 588.55 119.47 589.439 119.394 589.626C109.182 584.422 99.4893 576.311 90.5718 569.185Z" fill="#972000"/>
<path d="M205.123 211.966C224.114 207.56 236.388 206.928 255.693 210.437C257.546 211.157 259.616 211.756 261.195 212.984C260.807 223.106 261.117 231.688 253.068 239.123C251.184 240.864 248.765 242.795 246.486 243.947C245.402 243.867 244.29 243.65 243.213 243.496C243.749 243.237 244.243 243.179 244.49 242.596C245.137 241.065 244.262 239.252 243.735 237.808C243.009 236.349 242.193 234.943 241.287 233.588C240.381 232.234 239.393 230.943 238.321 229.714C227.894 217.655 213.851 215.709 198.832 214.658C200.953 214.034 203.097 212.875 205.123 211.966Z" fill="#D84F01"/>
<path d="M145.965 281.874C153.091 278.709 160.014 275.254 167.469 272.884C187.605 266.481 218.469 264.108 238.464 271.833C240.661 272.683 242.796 273.667 244.87 274.785C246.942 275.903 248.937 277.147 250.855 278.515C214.765 282.06 181.201 304.868 158.547 332.418C140.3 354.608 124.185 381.96 112.272 408.114C106.877 420.24 101.93 432.545 97.4315 445.031C96.5736 447.434 94.362 457.425 93.2145 458.757C93.3062 454.72 100.374 436.395 100.04 435.545C100.001 435.445 99.5309 434.932 99.4143 434.818C97.9408 433.369 95.813 432.303 93.9772 431.382L92.7197 429.162C91.8698 429.642 91.7406 429.797 90.7436 429.523C87.6709 428.678 84.9206 425.978 81.8454 425.442C80.3662 425.184 78.3788 422.798 75.5413 421.929L74.7231 422.725C72.4912 420.327 71.3209 418.679 68.4055 417.064C68.3443 416.947 68.2832 416.83 68.2198 416.714C67.7342 415.829 67.3925 415.731 66.4835 415.334C66.3342 414.562 66.1697 413.794 65.99 413.029L65.0472 412.723C64.29 414.879 64.1146 417.055 63.6641 419.276C62.8549 423.257 61.9233 427.199 61.3608 431.227C60.8956 434.554 60.761 437.801 60.1216 441.124C61.912 410.389 74.2949 373.975 89.3003 347.254C93.5456 339.694 105.179 324.25 106.482 316.904C117.618 302.487 130.38 291.225 145.965 281.874Z" fill="#FE9C0E"/>
<path d="M186.748 276.613C187.022 276.605 187.287 276.717 187.553 276.784C185.209 277.984 182.662 278.832 180.255 279.921C173.401 283.027 166.719 286.181 160.278 290.101C135.591 305.122 119.006 323.887 102.61 347.339C94.0022 359.65 85.9428 372.717 79.5766 386.338L79.4453 386.366L79.1319 386.07C79.863 381.819 81.8335 377.473 83.3003 373.413C89.4991 356.244 96.6056 338.599 107.902 324.082C127.043 299.483 155.497 280.615 186.748 276.613Z" fill="#FECA45"/>
<path d="M87.4605 269.799C92.2559 267.042 96.0904 261.282 100.356 257.666C112.05 247.75 125.669 239.018 140.409 234.541C146.085 232.817 151.951 231.837 157.72 230.471C157.937 230.528 158.152 230.59 158.371 230.642C162.154 231.532 169.19 229.959 173.694 230.548C175.298 230.758 176.842 231.366 178.431 231.679C181.606 232.302 184.972 232.39 188.092 233.228C192.811 234.495 197.667 236.777 202.154 238.729C215.466 244.518 229.58 250.842 237.912 263.376C238.321 263.997 238.695 264.638 239.035 265.299C205.856 255.823 168.658 264.26 139.042 280.597C133.649 283.572 127.644 286.891 122.749 290.585C120.162 292.537 118.013 294.984 115.311 296.809C111.191 299.592 108.455 303.306 105.191 306.87C103.28 308.958 101.127 310.828 99.3059 313.002C95.8867 317.083 93.201 321.872 90.2436 326.3C87.1515 330.93 83.7799 335.366 80.9775 340.187C67.7774 362.899 55.6085 394.846 50.8177 420.675C50.1397 424.334 49.7481 428.039 49.0736 431.694C48.0131 437.43 45.7133 444.207 46.1094 450.045C46.1931 449.837 46.269 449.624 46.3617 449.418C46.6481 448.778 47.0214 448.155 47.3521 447.536C47.8422 448.477 47.653 450.932 47.3624 452.027C46.8926 453.798 45.7881 454.723 45.6636 456.716C45.2427 463.474 44.6835 470.193 44.5148 476.969C44.4209 480.766 45.0818 485.266 44.4186 488.95C44.138 490.503 43.1035 492.072 42.2604 493.377C41.2441 493.63 41.183 493.583 40.2017 493.189C38.2192 490.87 37.6167 487.684 35.9352 485.131C32.8403 480.43 30.032 470.318 28.3552 464.69C27.507 461.844 27.0399 457.232 25.2439 454.94C26.2033 466.201 29.2237 477.103 32.4142 487.905C32.612 488.574 32.6608 488.26 32.2969 488.836L32.0116 488.879C26.3805 476.519 23.2477 449.589 22.7219 435.557C20.4591 375.171 46.7104 313.691 87.4605 269.799Z" fill="url(#paint9_linear_24_118057)"/>
<path d="M157.098 243.328C162.152 243.314 166.83 243.946 171.791 244.888C168.182 245.256 164.515 245.075 160.887 245.486C150.654 246.646 140.435 251.169 131.531 256.18C120.313 262.492 110.611 270.694 101.337 279.546C76.4992 303.256 55.3098 332.736 46.0064 366.166C45.0874 369.576 44.2951 373.1 42.955 376.372C43.0354 370.16 45.5299 362.925 47.1291 356.924C49.4549 348.194 51.8838 339.35 55.1297 330.91C62.3392 312.166 73.6638 294.056 86.8967 278.988C105.896 257.35 128.22 245.234 157.098 243.328Z" fill="#FECA45"/>
<path d="M355.453 262.272C355.721 262.215 355.989 262.165 356.255 262.1C360.133 261.148 363.108 257.349 367.048 256.419C370.429 255.62 374.163 255.926 377.626 255.724C383.712 255.369 389.586 255.073 395.674 255.812C411.724 257.76 428.79 265.912 442.857 273.666C457.159 281.549 474.658 297.355 485.457 309.536C488.296 312.74 497.683 327.206 500.071 328.519C500.131 328.637 500.189 328.756 500.253 328.872C503.642 335.083 508.465 340.43 511.978 346.56C523.854 367.283 532.108 390.863 537.484 414.064C537.913 415.916 537.741 417.993 538.005 419.883C538.232 421.513 539.004 423.005 539.261 424.649C539.903 428.748 539.82 434.468 540.996 438.249C545.422 461.54 540.82 497.391 532.356 519.484C528.079 530.648 522.213 541.046 515.492 550.907C510.606 558.076 504.575 564.808 500.289 572.326C500.415 572.927 500.64 573.261 500.822 573.81C500.878 573.981 500.855 574.167 500.871 574.345L501.199 574.655C497.627 578.721 493.081 582.273 488.827 585.609C470.367 600.089 450.071 609.81 427.583 616.29C423.427 617.34 419.275 618.058 415.028 618.622C409.839 619.954 404.98 624.095 400.107 626.429C381.426 635.377 360.805 641.476 339.886 640.408L336.547 640.1C336.757 638.326 344.643 631.23 346.364 629.146C350.164 624.573 353.736 619.829 357.082 614.913C360.427 609.996 363.529 604.932 366.388 599.719C395.971 545.094 399.339 489.903 390.475 429.345C387.688 410.297 384.187 391.184 378.693 372.718C377.664 367.671 375.633 362.515 373.965 357.648C369.994 346.069 366.02 334.123 360.053 323.381C357.285 318.399 354.485 313.323 351.427 308.512C350.276 306.703 346.596 302.912 346.341 301.001L347.148 301.359C343.381 295.238 336.417 288.978 331.365 283.782L330.41 282.966C334.574 280.329 338.622 277.45 342.231 274.082C346.478 270.12 350.537 265.412 355.453 262.272Z" fill="url(#paint10_linear_24_118057)"/>
<path d="M491.981 359.66C493.212 359.798 494.131 360.1 495.178 360.783C502.032 365.25 508.464 376.277 510.055 384.244C511.005 389.007 510.451 393.532 507.706 397.574C504.653 396.353 502.362 394.296 500.274 391.813C495.642 386.308 488.423 370.892 489.322 363.617C489.559 361.695 490.534 360.833 491.981 359.66Z" fill="url(#paint11_linear_24_118057)"/>
<path d="M471.113 438.178C472.097 440.509 472.021 443.475 472.136 446.002C472.853 461.795 470.088 479.593 464.132 494.247C456.532 512.949 439.639 528.982 421.107 536.634C417.141 538.269 413.061 539.539 408.867 540.443C413.155 521.433 413.855 502.222 413.073 482.789C412.709 473.78 411.351 464.026 412.253 455.069C414.554 458.789 415.67 463.379 416.958 467.538C419.356 475.285 421.456 483.373 425.022 490.675C428.56 497.918 435.054 505.182 442.92 507.702C445.918 508.663 452.465 509.865 455.194 507.91C456.796 506.764 458.11 504.237 459.095 502.549C466.952 489.073 470.797 469.991 471.49 454.445C471.724 449.181 470.709 443.905 471.072 438.67C471.084 438.505 471.1 438.342 471.113 438.178Z" fill="#D84F01"/>
<path d="M415.027 618.622C418.175 615.006 423.553 611.609 427.252 608.29C431.724 604.307 435.991 600.114 440.051 595.713C444.111 591.311 447.947 586.721 451.557 581.943C480.902 543.204 495.107 496.787 488.354 448.317C482.106 403.474 460.393 358.042 431.544 323.379C424.981 315.495 418.185 307.888 410.266 301.33C402.626 295.005 394.494 289.729 385.841 284.898C381.587 282.523 376.832 280.597 372.935 277.654C378.716 277.866 408.761 297.015 414.851 301.37C423.055 307.237 430.269 314.508 436.985 322.006C467.128 355.65 486.74 399.995 494.113 444.413C499.043 474.111 496.995 502.027 488.157 530.682C486.473 536.14 484.881 541.793 482.629 547.05C476.332 561.743 466.693 576.645 456.399 588.811C451.563 594.526 446.401 600.1 440.769 605.044C436.688 608.627 431.028 611.366 427.912 615.809C427.801 615.969 427.692 616.131 427.583 616.291C423.426 617.34 419.274 618.058 415.027 618.622Z" fill="url(#paint12_linear_24_118057)"/>
<path d="M331.364 283.782C340.329 285.724 352.003 301.544 356.863 309.043C369.345 328.302 377.149 350.737 383.645 372.615C400.56 429.577 408.415 488.568 395.686 547.237C389.989 573.496 379.674 604.151 361.022 624.204C355.306 630.349 348.799 635.164 341.866 639.811C341.21 640.251 340.651 640.297 339.886 640.408L336.546 640.1C336.756 638.326 344.643 631.23 346.363 629.146C350.163 624.573 353.736 619.828 357.081 614.913C360.426 609.996 363.528 604.932 366.388 599.719C395.97 545.094 399.339 489.903 390.475 429.345C387.687 410.297 384.186 391.184 378.693 372.718C377.664 367.671 375.632 362.515 373.964 357.648C369.994 346.069 366.02 334.123 360.052 323.381C357.285 318.399 354.485 313.322 351.427 308.511C350.276 306.703 346.595 302.911 346.34 301.001L347.147 301.358C343.381 295.238 336.417 288.978 331.364 283.782Z" fill="url(#paint13_linear_24_118057)"/>
<path d="M412.253 455.069C411.83 450.751 410.619 446.441 409.864 442.161C405.576 417.825 398.882 394.424 390.838 371.088C386.216 357.682 381.346 344.395 375.159 331.613C371.966 325.017 368.002 319.083 364.144 312.89C362.13 309.656 360.345 306.291 358.164 303.157C353.781 296.857 347.887 290.595 342.307 285.35C340.398 283.556 337.409 282.24 335.958 280.206C338.65 278.024 344.224 272.515 347.557 272.172C353.108 271.6 386.294 290.782 392.164 295.098C405.852 305.168 414.66 313.863 425.475 326.999C430.363 332.935 435.231 338.989 439.397 345.462C454.129 368.349 463.817 397.712 469.029 424.257C469.913 428.755 470.34 433.256 471.047 437.769L471.113 438.178C471.1 438.342 471.084 438.505 471.073 438.669C470.709 443.905 471.725 449.18 471.49 454.444C470.798 469.99 466.953 489.072 459.095 502.549C458.11 504.237 456.796 506.763 455.195 507.91C452.465 509.864 445.919 508.663 442.921 507.702C435.055 505.182 428.56 497.917 425.022 490.675C421.456 483.373 419.357 475.285 416.959 467.538C415.67 463.379 414.554 458.789 412.253 455.069Z" fill="#EC6801"/>
<path d="M424.974 377.725C425.194 377.731 425.415 377.732 425.635 377.741C427.808 377.828 429.26 378.686 430.673 380.303C435.377 385.685 438.112 395.964 437.696 403.056C437.469 406.951 436.591 409.525 433.655 412.111C433.119 412.183 432.466 412.307 431.917 412.275C430.114 412.169 428.592 410.968 427.449 409.655C422.779 404.293 420.642 392.865 421.248 385.925C421.555 382.414 422.269 380.057 424.974 377.725Z" fill="#F68206"/>
<path d="M355.777 288.779C355.945 288.797 356.114 288.802 356.28 288.836C360.185 289.65 372.497 305.655 375.544 309.558C391.063 329.44 402.984 351.245 406.903 376.435C407.577 380.763 408.51 385.662 407.976 390.003C407.227 389.951 406.663 389.792 405.959 389.532C401.105 384.932 398.051 374.171 395.36 368.009C392.654 361.808 389.709 355.712 387.088 349.475C383.44 340.794 380.115 331.968 376.389 323.324C374.388 318.681 372.046 314.169 369.766 309.661C366.493 303.194 362.776 297.736 358.09 292.212C357.17 291.128 356.165 290.188 355.777 288.779Z" fill="#FE9C0E"/>
<path d="M314.465 277.171C320.282 277.514 326.044 278.823 330.409 282.966L331.365 283.782C336.417 288.978 343.381 295.238 347.148 301.358L346.341 301.001C346.595 302.911 350.276 306.703 351.427 308.511C354.485 313.323 357.285 318.399 360.052 323.381C366.02 334.122 369.994 346.069 373.964 357.648C375.633 362.515 377.664 367.671 378.693 372.718C384.187 391.184 387.687 410.297 390.475 429.344C399.339 489.903 395.971 545.094 366.388 599.718C363.529 604.931 360.426 609.996 357.082 614.913C353.736 619.828 350.163 624.573 346.364 629.146C344.643 631.23 336.757 638.326 336.546 640.1C333.616 640.945 330.781 642.218 327.954 643.362C314.022 648.94 295.265 649.533 280.699 646.521C275.093 645.362 269.766 643.395 264.404 641.434L260.356 641.461C238.745 642.441 216.221 636.349 197.051 626.457C190.804 623.233 184.815 618.464 178.169 616.218L177.59 616.024C177.642 615.983 177.712 615.955 177.747 615.898C177.878 615.69 178.062 615.486 178.082 615.241C178.115 614.84 170.942 607.293 170.148 606.414C163.031 598.511 156.511 590.144 150.588 581.311C129.021 548.941 118.376 518.807 118.644 479.817C120.021 476.262 118.858 471.472 119.459 467.651L119.867 465.196C120.227 464.632 120.251 464.367 120.31 463.676C121.046 455.06 122.615 446.554 124.17 438.056C127.806 418.202 132.728 398.396 141.68 380.198C143.974 375.535 146.753 371.105 149.29 366.571C155.976 354.622 163.056 343.736 171.91 333.269C177.319 326.875 183.117 320.753 189.531 315.357C204.796 302.512 227.106 289.903 247.215 288.349C259.531 287.396 268.178 289.867 277.527 297.856C279.1 297.597 281.715 293.788 283.307 292.813C291.617 285.431 302.98 277.541 314.465 277.171Z" fill="url(#paint14_linear_24_118057)"/>
<path d="M290.074 359.136L291.242 359.492C292.323 360.506 292.938 361.511 293.326 362.957C294.66 367.921 293.713 375.924 290.936 380.264C289.97 381.776 289.151 382.179 287.427 382.591C286.568 382.235 285.759 381.858 285.041 381.255C283.723 380.149 283.171 378.345 283.011 376.688C282.415 370.46 286.114 363.67 290.074 359.136Z" fill="#FECA45"/>
<path d="M314.465 277.171C320.282 277.514 326.044 278.823 330.409 282.966L331.365 283.782C336.417 288.978 343.381 295.238 347.148 301.358L346.341 301.001C346.595 302.911 350.276 306.703 351.427 308.511C354.485 313.323 357.285 318.399 360.052 323.381C366.02 334.122 369.994 346.069 373.964 357.648C375.632 362.515 377.664 367.671 378.693 372.718C378.093 372.214 377.862 371.679 377.594 370.953C372.763 357.896 369.09 344.612 363.43 331.826C360.487 325.179 356.603 319.477 352.782 313.361C351.446 311.223 350.285 308.752 348.795 306.746C347.718 305.298 346.346 304.083 345.326 302.597C343.602 300.084 341.11 299.199 338.939 297.198C334.215 292.842 330.871 288.174 325.222 284.719C320.834 282.035 315.441 280.057 310.333 281.428C307.598 282.162 305.637 281.484 302.929 281.492C299.348 281.503 292.38 286.729 289.538 288.799C283.087 293.498 277.07 300.076 272.376 306.525C266.091 315.158 256.026 334.785 251.922 344.8C250.432 348.436 249.248 352.207 247.846 355.88C247.062 357.935 245.655 359.627 244.891 361.566C243.341 365.503 241.519 372.363 240.899 376.546C240.881 376.672 240.865 376.799 240.848 376.926L240.561 376.944C240.153 373.566 241.791 370.179 242.712 366.997C243.25 365.142 243.529 363.227 244.126 361.381C247.793 350.026 252.893 339.339 258.238 328.712C259.018 327.162 259.526 325.504 260.327 323.976C262.582 319.679 265.025 316.084 267.195 311.589C266.402 311.675 264.751 314.514 263.85 315.203C263.661 315.347 263.464 315.482 263.27 315.621C264.169 313.019 275.035 299.302 277.527 297.856C279.1 297.597 281.716 293.788 283.307 292.812C291.617 285.431 302.98 277.541 314.465 277.171Z" fill="#EC6801"/>
<path d="M293.127 297.187L293.321 297.385C293.7 299.267 289.664 305.732 288.634 307.756C286.796 311.368 285.267 315.123 283.381 318.712C278.803 327.422 274.012 335.894 270.048 344.923C266.643 352.68 263.273 360.608 260.598 368.647C258.598 374.657 257.101 380.839 255.208 386.887C252.59 395.246 249.741 403.517 247.419 411.967C246.842 411.355 246.795 410.888 246.815 410.063C247.445 384.457 261.717 343.272 274.533 321.227C279.435 312.793 286.107 303.928 293.127 297.187Z" fill="#FECA45"/>
<path d="M274.628 465.719C276.141 465.661 278.096 465.921 279.384 466.758C282.981 469.094 284.712 473.751 285.68 477.751C287.74 486.268 288.173 499.556 283.253 507.244C281.362 510.203 279.77 511.072 276.397 511.836C275.293 511.594 274.082 511.363 273.056 510.878C269.571 509.228 267.28 505.252 265.963 501.778C262.74 493.27 262.441 481.614 266.412 473.289C268.231 469.478 270.68 467.155 274.628 465.719Z" fill="url(#paint15_linear_24_118057)"/>
<path d="M288.142 391.796C289.295 391.903 290.402 392.108 291.448 392.635C294.744 394.3 296.636 398.521 297.659 401.871C300.515 411.229 300.534 422.99 295.774 431.754C293.773 435.437 291.152 438.273 287.072 439.493C286.463 439.423 285.86 439.362 285.264 439.21C282.418 438.485 280.126 436.469 278.664 433.969C274.54 426.917 275.438 416.656 277.383 409.08C279.04 402.628 282.225 395.332 288.142 391.796Z" fill="#FECA45"/>
<path d="M211.019 494.175C211.817 480.522 212.964 466.704 215.227 453.204C217.039 442.39 219.595 431.836 222.154 421.181C223.343 416.23 224.033 410.944 225.528 406.11C226.67 402.418 228.867 399.758 230.467 396.351C232.071 392.938 232.561 389.395 233.803 385.928C234.572 383.786 235.845 381.787 236.479 379.609C237.298 376.798 238.318 374.076 239.655 371.469L240.624 371.461L239.971 371.181L240.196 371.046L240.568 371.371C239.052 373.972 238.772 377.179 237.59 379.866C236.413 382.543 235.945 386.086 234.435 388.49C233.213 390.434 233.579 392.765 232.49 394.711C226.615 405.213 220.09 453.889 219.573 467.427C218.094 475.422 219.194 488.115 219.109 496.597C219.044 503.133 218.323 509.552 218.492 516.125C219.468 554.158 227.922 594.047 249.783 625.714C252.32 629.414 255.226 632.797 258.5 635.864C260.341 637.602 262.937 639.406 264.404 641.434L260.356 641.461C258.4 638.705 249.367 633.01 245.682 629.334C214.107 597.841 211.069 536.172 211.019 494.175Z" fill="url(#paint16_linear_24_118057)"/>
<path d="M219.573 467.427L219.611 467.948C220.244 478.115 219.072 488.386 219.706 498.583C219.964 502.719 220.705 506.914 221.292 511.015C223.696 527.797 227.443 540.694 234.164 556.191C236.294 561.102 238.479 566.14 241.403 570.634C244.478 575.358 248.453 579.759 252.636 583.523C268.285 597.605 285.158 601.52 305.637 600.333C326.928 599.098 346.01 590.221 360.166 574.224C367.868 565.522 373.385 555.94 378.333 545.463C380.071 541.784 381.166 537.505 383.442 534.15C384.759 537.172 377.913 556.095 376.292 560.204C369.979 576.216 360.04 598.271 351.107 612.788C348.552 616.977 345.73 620.978 342.642 624.79C338.7 629.689 329.732 637.917 327.954 643.362C314.022 648.94 295.265 649.533 280.699 646.522C275.093 645.363 269.766 643.396 264.404 641.434C262.937 639.406 260.34 637.602 258.5 635.865C255.226 632.797 252.32 629.414 249.783 625.714C227.921 594.047 219.468 554.159 218.491 516.125C218.323 509.552 219.044 503.133 219.109 496.597C219.194 488.115 218.094 475.422 219.573 467.427Z" fill="url(#paint17_linear_24_118057)"/>
<path d="M119.867 465.197C120.227 464.632 120.251 464.367 120.31 463.676C121.045 455.06 122.615 446.554 124.17 438.056C127.805 418.202 132.727 398.396 141.68 380.198C143.974 375.535 146.752 371.105 149.29 366.571C155.975 354.622 163.056 343.736 171.91 333.27C177.319 326.875 183.117 320.753 189.531 315.357C204.795 302.512 227.106 289.903 247.215 288.349C259.531 287.396 268.177 289.867 277.526 297.856C275.034 299.302 264.168 313.02 263.269 315.622C262.792 318.305 258.403 322.915 256.82 325.433C253.589 330.578 250.725 336.229 248.045 341.679C239.653 358.743 234.118 376.644 228.34 394.691C227.48 397.377 226.03 399.867 225.228 402.546C222.503 411.663 220.425 420.775 218.125 430.009C215.374 441.054 212.315 451.65 211.067 463.047C210.16 471.336 209.256 479.87 208.921 488.2C208.788 491.511 209.535 495.447 208.874 498.653C207.637 504.663 204.662 512.054 201.913 517.563C201.138 519.118 197.721 523.228 197.773 524.38C201.137 523.215 206.829 507.872 207.876 504.404C208.788 501.383 209.248 496.75 211.019 494.175C211.068 536.172 214.106 597.841 245.681 629.334C249.366 633.01 258.399 638.706 260.355 641.461C238.744 642.442 216.22 636.349 197.05 626.457C190.803 623.233 184.814 618.465 178.168 616.218L177.589 616.024C177.641 615.983 177.711 615.955 177.746 615.898C177.877 615.69 178.061 615.486 178.081 615.241C178.114 614.84 170.941 607.293 170.147 606.414C163.03 598.511 156.51 590.144 150.587 581.311C129.02 548.941 118.375 518.807 118.643 479.817C120.02 476.262 118.857 471.472 119.458 467.651L119.867 465.197Z" fill="#F68206"/>
<path d="M190.895 459.428C191.494 459.429 192.123 459.411 192.687 459.653C193.937 460.189 194.845 461.663 195.364 462.855C197.917 468.71 196.955 478.676 194.691 484.543C193.302 488.141 191.345 491.105 187.724 492.688C186.268 492.09 185.357 491.438 184.395 490.208C181.641 486.686 181.25 482.042 181.758 477.739C182.522 471.24 185.681 463.538 190.895 459.428Z" fill="#FE9C0E"/>
<path d="M181.612 415.383C181.801 415.456 182.002 415.503 182.179 415.605C183.772 416.519 184.377 419.049 184.62 420.717C185.779 428.642 183.001 440.59 178.149 447.012C176.545 449.134 175.239 449.846 172.629 450.208C171.585 449.416 170.721 448.646 170.063 447.491C167.584 443.145 168.596 436.485 169.884 431.855C171.687 425.374 175.674 418.762 181.612 415.383Z" fill="#FE9C0E"/>
<path d="M195.033 346.036C195.673 346.106 196.26 346.15 196.826 346.486C198.618 347.556 199.431 349.652 199.794 351.605C201.175 359.032 198.42 373.208 194.094 379.526C192.083 382.463 190.264 383.822 186.779 384.463C185.425 383.828 184.253 383.056 183.368 381.824C181.034 378.576 181.053 374.079 181.723 370.302C183.126 362.39 188.306 350.678 195.033 346.036Z" fill="#FECA45"/>
<path d="M233.757 298.029L234.177 298.148L233.91 298.686C209.291 312.351 175.869 357.736 163.602 382.844C159.361 391.744 155.406 400.769 151.738 409.92C150.14 413.887 148.996 418.241 147.097 422.052C147.109 417.692 163.514 380.028 166.377 375.941C166.953 375.119 166.77 375.585 166.96 374.735C165.775 374.748 165.116 374.984 164.167 374.234C163.953 372.814 164.247 371.202 164.685 369.835C171.576 348.329 186.771 332.937 203.499 318.748C206.431 316.261 209.744 312.478 213.064 310.667C212.45 312.163 210.404 313.824 210.336 315.31L210.923 315.599C212.723 315.139 222.68 306.269 224.705 304.33L224.975 304.067C226.02 303.517 226.905 302.682 227.811 301.931L227.529 301.768C223.324 303.054 219.698 305.186 215.854 307.221C212.34 309.082 208.654 310.634 205.176 312.561C197.542 316.793 190.248 322.632 183.933 328.591C168.956 342.723 158.931 356.93 150.452 375.692C148.936 379.046 146.413 383.336 146.296 387.069C148.443 385.87 149.456 379.284 151.214 376.823L150.843 379.907L151.169 379.943L150.792 381.07L149.937 380.677L150.749 380.569C150.556 384.576 146.99 387.235 146.22 390.951C145.268 395.543 142.864 402.375 139.942 406.05L139.53 405.776C141.017 402.104 143.003 398.026 144.06 394.241C144.992 390.901 145.014 387.113 146.213 383.837C147.321 380.809 148.929 377.864 150.264 374.926C152.144 370.786 153.897 366.526 156.121 362.556C166.537 343.959 182.354 326.454 200.331 314.932C210.797 308.225 222.441 303.104 233.757 298.029Z" fill="#FECA45"/>
<path d="M119.867 465.196C119.881 465.366 119.898 465.536 119.91 465.706C120.226 470.026 119.595 474.484 119.583 478.839C119.54 493.997 120.051 505.388 123.741 520.255C124.468 523.179 124.729 526.881 126.041 529.497L125.775 529.772L126.404 529.865C128.89 530.243 131.116 530.958 133.43 531.926C136.99 533.413 141.297 532.123 144.926 533.833C145.987 534.333 147.264 534.135 148.401 534.087C149.238 534.051 149.763 534.176 150.56 534.387L151.059 533.959C151.575 534.216 152.075 534.465 152.567 534.766C152.749 534.751 152.93 534.731 153.112 534.719C157.014 534.447 163.972 537.699 167.088 535.108L168.236 535.065C167.229 534.265 168.141 534.787 166.859 534.626C164.885 534.378 161.175 531.702 159.457 530.49C146.056 521.037 137.61 508.647 131.014 493.799C125.251 480.827 124.071 469.041 125.042 454.947C125.188 452.829 125.024 449.063 125.815 447.216C125.91 446.996 126.074 446.813 126.203 446.611L125.971 446.215L126.22 445.978L126.135 445.472L126.377 445.639C126.736 453.438 125.362 461.193 125.824 469.04C126.984 488.751 139.01 511.311 153.503 524.418C161.056 531.25 171.325 536.478 181.749 536.017C187.412 535.767 193.24 529.348 196.753 525.33C197.071 524.965 197.39 524.673 197.774 524.38C201.138 523.215 206.829 507.872 207.876 504.404C208.789 501.383 209.249 496.75 211.019 494.175C211.069 536.172 214.107 597.841 245.681 629.334C249.367 633.01 258.399 638.706 260.356 641.462C238.745 642.442 216.221 636.349 197.051 626.457C190.803 623.233 184.815 618.465 178.169 616.218L177.59 616.025C177.642 615.983 177.712 615.955 177.747 615.898C177.878 615.691 178.062 615.486 178.082 615.241C178.115 614.84 170.942 607.293 170.148 606.414C163.031 598.512 156.51 590.144 150.587 581.311C129.021 548.941 118.376 518.807 118.644 479.817C120.021 476.262 118.858 471.473 119.459 467.652L119.867 465.196Z" fill="url(#paint18_linear_24_118057)"/>
<defs>
<linearGradient id="paint0_linear_24_118057" x1="575.774" y1="336.505" x2="617.328" y2="239.881" gradientUnits="userSpaceOnUse">
<stop stop-color="#808001"/>
<stop offset="1" stop-color="#989902"/>
</linearGradient>
<linearGradient id="paint1_linear_24_118057" x1="558.439" y1="363.045" x2="578.342" y2="321.437" gradientUnits="userSpaceOnUse">
<stop stop-color="#6D5D01"/>
<stop offset="1" stop-color="#7D7701"/>
</linearGradient>
<linearGradient id="paint2_linear_24_118057" x1="470.15" y1="545.446" x2="454.209" y2="232.151" gradientUnits="userSpaceOnUse">
<stop stop-color="#A72302"/>
<stop offset="1" stop-color="#E55C01"/>
</linearGradient>
<linearGradient id="paint3_linear_24_118057" x1="564.487" y1="230.325" x2="630.095" y2="118.978" gradientUnits="userSpaceOnUse">
<stop stop-color="#ABAF01"/>
<stop offset="1" stop-color="#C9D314"/>
</linearGradient>
<linearGradient id="paint4_linear_24_118057" x1="517.769" y1="226.692" x2="618.154" y2="219.611" gradientUnits="userSpaceOnUse">
<stop stop-color="#757000"/>
<stop offset="1" stop-color="#979B08"/>
</linearGradient>
<linearGradient id="paint5_linear_24_118057" x1="521.523" y1="291.38" x2="536.222" y2="280.49" gradientUnits="userSpaceOnUse">
<stop stop-color="#8F9402"/>
<stop offset="1" stop-color="#A9AF02"/>
</linearGradient>
<linearGradient id="paint6_linear_24_118057" x1="324.836" y1="211.34" x2="273.619" y2="213.914" gradientUnits="userSpaceOnUse">
<stop stop-color="#7D7800"/>
<stop offset="1" stop-color="#9BA320"/>
</linearGradient>
<linearGradient id="paint7_linear_24_118057" x1="46.5347" y1="144.033" x2="149.098" y2="42.8216" gradientUnits="userSpaceOnUse">
<stop stop-color="#838200"/>
<stop offset="1" stop-color="#B6BD0B"/>
</linearGradient>
<linearGradient id="paint8_linear_24_118057" x1="280.263" y1="487.348" x2="86.613" y2="309.946" gradientUnits="userSpaceOnUse">
<stop stop-color="#B12C00"/>
<stop offset="1" stop-color="#F97204"/>
</linearGradient>
<linearGradient id="paint9_linear_24_118057" x1="151.558" y1="394.732" x2="61.6418" y2="292.387" gradientUnits="userSpaceOnUse">
<stop stop-color="#E24A03"/>
<stop offset="1" stop-color="#FF9902"/>
</linearGradient>
<linearGradient id="paint10_linear_24_118057" x1="481.347" y1="590.559" x2="305.789" y2="291.537" gradientUnits="userSpaceOnUse">
<stop stop-color="#B23300"/>
<stop offset="1" stop-color="#F76A02"/>
</linearGradient>
<linearGradient id="paint11_linear_24_118057" x1="507.469" y1="396.127" x2="493.209" y2="359.93" gradientUnits="userSpaceOnUse">
<stop stop-color="#DB5700"/>
<stop offset="1" stop-color="#ED7101"/>
</linearGradient>
<linearGradient id="paint12_linear_24_118057" x1="501.21" y1="538.41" x2="329.631" y2="381.501" gradientUnits="userSpaceOnUse">
<stop stop-color="#901D00"/>
<stop offset="1" stop-color="#CD4401"/>
</linearGradient>
<linearGradient id="paint13_linear_24_118057" x1="425.68" y1="514.341" x2="259.318" y2="418.693" gradientUnits="userSpaceOnUse">
<stop stop-color="#981B00"/>
<stop offset="1" stop-color="#E76609"/>
</linearGradient>
<linearGradient id="paint14_linear_24_118057" x1="350.445" y1="632.716" x2="194.131" y2="338.475" gradientUnits="userSpaceOnUse">
<stop stop-color="#CB3300"/>
<stop offset="1" stop-color="#FFB617"/>
</linearGradient>
<linearGradient id="paint15_linear_24_118057" x1="280.216" y1="509.412" x2="270.533" y2="467.643" gradientUnits="userSpaceOnUse">
<stop stop-color="#F8860D"/>
<stop offset="1" stop-color="#FEA427"/>
</linearGradient>
<linearGradient id="paint16_linear_24_118057" x1="189.473" y1="550.891" x2="282.189" y2="484.979" gradientUnits="userSpaceOnUse">
<stop stop-color="#941D00"/>
<stop offset="1" stop-color="#CC4605"/>
</linearGradient>
<linearGradient id="paint17_linear_24_118057" x1="323.772" y1="644.069" x2="290.815" y2="487.616" gradientUnits="userSpaceOnUse">
<stop stop-color="#B63500"/>
<stop offset="1" stop-color="#D24D02"/>
</linearGradient>
<linearGradient id="paint18_linear_24_118057" x1="169.223" y1="618.449" x2="207.666" y2="498.455" gradientUnits="userSpaceOnUse">
<stop stop-color="#B33200"/>
<stop offset="1" stop-color="#E86403"/>
</linearGradient>
</defs>
</svg>
