<svg width="185" height="591" viewBox="0 0 185 591" fill="none" xmlns="http://www.w3.org/2000/svg">
<path fill-rule="evenodd" clip-rule="evenodd" d="M156.212 50.6581C156.212 50.6581 163.521 19.2966 163.881 12.303C164.239 5.30951 155.987 4.06615 153.202 3.44775C150.417 2.82822 140.551 0.450754 136.543 0.0433882C132.534 -0.364656 128.695 2.03747 126.482 10.1409C124.268 18.2443 118.835 40.4554 118.835 40.4554C118.835 40.4554 149.164 57.2402 156.212 50.6581Z" fill="#A2A5BD"/>
<path fill-rule="evenodd" clip-rule="evenodd" d="M156.212 50.6581C156.212 50.6581 163.521 19.2966 163.881 12.3031C164.239 5.30958 155.987 4.06622 153.202 3.44782C152.248 3.23679 150.458 2.81608 148.363 2.34131C151.506 5.49302 154.367 9.86819 153.46 14.9022C152.134 22.2835 147.858 41.3772 145.57 51.4772C150.2 52.5086 154.176 52.5584 156.212 50.6581Z" fill="#8E818F"/>
<path fill-rule="evenodd" clip-rule="evenodd" d="M124.356 43.309C126.513 44.3689 129.148 45.6141 131.986 46.8273L140.623 12.3845C141.184 10.1753 139.842 7.93013 137.634 7.36828C135.426 6.80756 133.179 8.14795 132.619 10.3587L124.356 43.309Z" fill="#C9C8D5"/>
<path fill-rule="evenodd" clip-rule="evenodd" d="M14.4633 554.381C14.7157 553.269 14.0164 552.162 12.9042 551.909C11.7916 551.654 10.6853 552.354 10.4301 553.467L2.61011 588.224C2.35769 589.336 3.05752 590.444 4.16969 590.696C5.28186 590.949 6.38928 590.249 6.64216 589.138L14.4633 554.381Z" fill="#8E818F"/>
<path fill-rule="evenodd" clip-rule="evenodd" d="M104.848 54.2322C104.848 54.2322 65.4976 184.899 37.941 301.854C10.3844 418.809 5.87444 467.167 1.45878 507.005C-2.95846 546.842 3.35786 566.853 11.0173 567.411C18.6747 567.971 34.1374 539.132 52.7568 486.743C71.3764 434.356 164.029 88.3679 160.121 69.5128C156.212 50.6579 118.836 40.4552 104.848 54.2322Z" fill="#DF2816"/>
<path fill-rule="evenodd" clip-rule="evenodd" d="M5.48584 563.03C7.13091 565.806 9.02795 567.265 11.0175 567.411C18.6749 567.971 34.1376 539.132 52.757 486.743C71.3766 434.356 164.03 88.368 160.121 69.5129C158.234 60.414 148.554 53.3323 137.471 49.9858C136.154 65.0896 132.59 97.6632 123.142 154.075C109.232 237.153 50.2395 452.662 32.3507 503.52C19.859 539.034 12.1826 554.799 5.48584 563.03Z" fill="#A41809"/>
<path fill-rule="evenodd" clip-rule="evenodd" d="M6.52156 463.856C4.31373 480.458 2.8806 494.177 1.45878 507.006C-2.95846 546.843 3.35786 566.853 11.0173 567.411C18.6747 567.971 34.1374 539.132 52.7568 486.743C53.8167 483.761 55.1282 479.785 56.6382 475.011C34.8818 474.545 16.1185 467.939 6.52156 463.856Z" fill="#A2A5BD"/>
<path fill-rule="evenodd" clip-rule="evenodd" d="M5.48584 563.031C7.13091 565.806 9.02795 567.265 11.0175 567.411C18.6749 567.971 34.1376 539.132 52.757 486.743C53.8169 483.761 55.1284 479.784 56.6384 475.011C51.5329 474.901 46.592 474.453 41.8963 473.781C38.0803 486.311 34.8239 496.494 32.351 503.52C19.859 539.034 12.1826 554.8 5.48584 563.031Z" fill="#8E818F"/>
<path fill-rule="evenodd" clip-rule="evenodd" d="M4.57045 479.347C3.37436 489.371 2.41285 498.389 1.45878 507.005C-2.95846 546.843 3.35786 566.853 11.0173 567.411C18.517 567.959 33.4989 540.314 51.601 489.975C31.4883 489.198 14.1441 483.316 4.57045 479.347Z" fill="#C9C8D5"/>
<path fill-rule="evenodd" clip-rule="evenodd" d="M5.48585 563.028V563.031C5.48585 563.031 7.96328 522.536 20.5378 484.887C17.083 483.905 13.9177 482.868 11.0998 481.863C7.81829 497.063 0.383255 536.666 5.48585 563.028Z" fill="#E1DFE2"/>
<path fill-rule="evenodd" clip-rule="evenodd" d="M5.48584 563.031C7.13091 565.806 9.02795 567.265 11.0175 567.411C18.5172 567.959 33.4991 540.314 51.6012 489.975C46.6416 489.783 41.8525 489.283 37.3056 488.575C35.4285 494.483 33.7612 499.515 32.3512 503.52C19.859 539.034 12.1826 554.8 5.48584 563.031Z" fill="#A2A5BD"/>
<path fill-rule="evenodd" clip-rule="evenodd" d="M98.3648 136.638C95.0391 135.642 77.0148 188.715 62.1407 239.981C47.2654 291.245 34.7171 354.078 28.4797 381.627C22.2417 409.177 11.8374 457.145 16.7435 458.182C21.6493 459.221 39.4677 366.011 50.1482 324.14C60.8292 282.271 83.2696 203.853 90.7244 178.77C98.1775 153.685 102.194 136.917 98.3648 136.638Z" fill="#F46942"/>
<path fill-rule="evenodd" clip-rule="evenodd" d="M104.848 54.2325C104.848 54.2325 167.611 71.0311 169.623 78.0863C171.634 85.1403 151.879 175.377 145.617 206.398C139.352 237.419 136.5 249.101 141.027 250.676C145.554 252.252 161.332 198.938 173.746 146.211C186.16 93.4844 186.038 57.4319 181.983 54.0389C177.928 50.6481 117.155 33.6462 113.519 35.3812C109.881 37.1163 105.573 48.5771 104.848 54.2325Z" fill="#C9C8D5"/>
<path fill-rule="evenodd" clip-rule="evenodd" d="M104.848 54.2326C104.848 54.2326 120.316 58.373 136.144 63.4059L136.145 63.4043C136.145 63.4043 141.87 45.3029 128.851 37.9362L128.847 37.9332C120.697 35.9973 114.597 34.8681 113.518 35.3816C109.881 37.1165 105.573 48.5772 104.848 54.2326Z" fill="#E1DFE2"/>
</svg>
