<svg width="462" height="757" viewBox="0 0 462 757" fill="none" xmlns="http://www.w3.org/2000/svg">
<path d="M4 283.196L240.582 262.57L264.701 504.562L4 283.196Z" fill="#F8D72B" stroke="#E5B133" stroke-width="2.9491" stroke-miterlimit="10"/>
<path d="M214.57 0L4 283.202L240.582 262.576L214.57 0Z" fill="#F63D34" stroke="#A62F1A" stroke-width="2.9491" stroke-miterlimit="10" stroke-linecap="round" stroke-linejoin="round"/>
<path d="M269.082 501.438C284.207 514.235 276.913 528.302 277.223 530.523C280.074 550.944 308.357 569.65 319.692 586.943C324.272 593.929 329.242 600.662 333.721 607.713C341.072 619.286 347.138 631.883 349.5 645.352C351.862 658.822 350.271 673.279 343.196 685.02C337.945 693.735 316.571 713.824 304.414 746.921" stroke="#BDCB36" stroke-width="5.8981" stroke-miterlimit="22.926" stroke-linejoin="bevel"/>
<path d="M264.693 504.58L240.664 262.127L457.919 236.273L264.693 504.58Z" fill="#6EE0D8" stroke="#3CABBE" stroke-width="2.9491" stroke-miterlimit="10"/>
<path d="M457.92 236.261L240.575 262.576L214.562 0L457.92 236.261Z" fill="#00AB5A" stroke="#007246" stroke-width="2.9491" stroke-linecap="round" stroke-linejoin="round"/>
<path d="M308.637 568.341C309.388 568.109 351.291 578.478 351.291 578.478L382.172 546.597L339.431 537.508L308.637 568.341Z" fill="#F63D34" stroke="#A62F1A" stroke-width="2.9491" stroke-miterlimit="10" stroke-linecap="round" stroke-linejoin="round"/>
<path d="M273.729 661.768C274.346 661.28 317.178 655.9 317.178 655.9L334.538 615.05L291.385 621.928L273.729 661.768Z" fill="#00AB5A" stroke="#007246" stroke-width="2.9491" stroke-linecap="round" stroke-linejoin="round"/>
<path d="M338.886 702.04C339.667 702.135 373.682 728.713 373.682 728.713L414.89 712.222L379.587 686.47L338.886 702.04Z" fill="#C05499" stroke="#773A6D" stroke-width="3.3403" stroke-miterlimit="10" stroke-linecap="round" stroke-linejoin="round"/>
<path d="M196.924 42.9922L48.0273 252.154" stroke="white" stroke-width="4.8527" stroke-miterlimit="10" stroke-linecap="round"/>
<path d="M238.977 38.8672L415.53 211.969" stroke="white" stroke-width="4.8527" stroke-miterlimit="10" stroke-linecap="round"/>
<path d="M56.4102 301.742L173.849 405.586" stroke="white" stroke-width="4.8527" stroke-miterlimit="10" stroke-linecap="round"/>
<path d="M187.512 418.852L221.856 448.678" stroke="white" stroke-width="4.8527" stroke-miterlimit="10" stroke-linecap="round"/>
</svg>
