<svg width="708" height="603" viewBox="0 0 708 603" fill="none" xmlns="http://www.w3.org/2000/svg">
<path d="M167.848 601.562C198.007 479.546 344.988 262.676 344.988 262.676L415.401 306.215L420.551 317.981C272.468 556.049 167.848 601.562 167.848 601.562Z" fill="url(#paint0_linear_10_83626)"/>
<path d="M168.063 601.95L167.206 602.323L167.424 601.433C194.207 493.11 312.824 310.342 339.345 270.32C342.731 265.212 344.616 262.431 344.616 262.431L344.831 262.113L415.738 305.957L421.036 318.057L420.932 318.226C411.863 332.805 402.957 346.662 394.229 359.83C260.394 561.749 168.143 601.916 168.063 601.95ZM171.829 599.081C174.603 597.595 178.719 595.246 184.077 591.793C194.795 584.888 210.487 573.578 230.362 555.958C270.109 520.72 326.592 460.249 393.478 359.333C402.169 346.221 411.038 332.428 420.066 317.917L415.063 306.483L345.147 263.252C344.565 264.114 342.818 266.709 340.095 270.817C313.663 310.685 195.647 492.586 168.503 600.782C169.199 600.448 170.311 599.895 171.829 599.081Z" fill="#B2B4B6"/>
<path d="M170.303 590.168C169.314 593.625 168.401 597.022 167.58 600.344C167.58 600.344 272.2 554.831 420.283 316.764L416.016 307.014C293.254 503.649 200.68 571.609 170.303 590.168Z" fill="url(#paint1_linear_10_83626)"/>
<path d="M167.791 600.729L166.935 601.101L167.153 600.211C167.977 596.884 168.89 593.481 169.879 590.022L169.918 589.885L170.041 589.811C198.15 572.636 279.756 512.994 389.333 347.673C397.931 334.701 406.704 321.079 415.633 306.774L416.06 306.09L420.765 316.837L420.66 317.005C411.591 331.584 402.685 345.44 393.959 358.61C260.124 560.528 167.871 600.695 167.791 600.729ZM171.559 597.86C174.333 596.374 178.448 594.023 183.807 590.57C194.526 583.667 210.216 572.358 230.09 554.736C269.84 519.499 326.32 459.026 393.208 358.112C401.899 345 410.766 331.205 419.796 316.695L415.965 307.941C407.179 322 398.547 335.4 390.085 348.171C280.615 513.33 199.012 573.116 170.683 590.455C169.802 593.542 168.981 596.581 168.231 599.56C168.928 599.226 170.04 598.674 171.559 597.86Z" fill="#B2B4B6"/>
<path d="M178.29 577.654C231.001 441.149 345.435 268.501 345.435 268.501L371.368 284.727C296.633 363.292 178.29 577.654 178.29 577.654Z" fill="white"/>
<path d="M416.029 306.967C403.143 280.732 426.102 252.607 426.102 252.607C432.755 242.569 454.307 227.96 454.307 227.96C502.048 199.887 531.314 108.521 531.314 108.521C534.525 97.1653 558.221 90.7185 558.221 90.7185C568.21 88.671 573.914 70.2986 573.914 70.2986C570.071 53.3044 521.004 15.0031 521.004 15.0031C511.258 8.54345 480.654 54.7168 480.654 54.7168C411.874 153.603 345.1 262.486 345.1 262.486L416.029 306.967Z" fill="#663411"/>
<path d="M558.536 91.5227C558.533 91.5238 557.363 91.8414 555.485 92.4713C553.608 93.0997 551.037 94.036 548.281 95.2597C542.766 97.6939 536.52 101.321 533.595 105.762C532.942 106.747 532.452 107.766 532.149 108.84C532.135 108.875 518.502 151.451 494.609 187.503C483.481 204.288 470.137 219.67 454.856 228.658C454.845 228.667 449.489 232.295 443.292 237.187C437.097 242.066 430.07 248.23 426.849 253.104L426.829 253.134L426.806 253.162C426.806 253.166 425.701 254.515 424.1 256.931C418.446 265.416 406.989 286.805 416.808 306.679L418.037 309.179L343.916 262.695L344.335 262.011C344.338 262.007 383.851 197.574 433.401 122.816C448.266 100.389 464.035 77.0343 479.903 54.2202C479.909 54.2117 485.774 45.3628 493.202 35.9338C500.668 26.4998 509.521 16.5135 516.089 14.0735C517.968 13.3822 519.858 13.2904 521.447 14.3356L521.485 14.3611L521.509 14.3808C521.521 14.3906 533.801 23.9768 546.585 35.7077C559.363 47.4883 572.65 61.1917 574.762 70.2068L574.809 70.4156L574.749 70.6112C574.735 70.6451 572.674 77.3007 568.806 83.1436C566.216 87.0271 562.845 90.6199 558.536 91.5227ZM557.952 89.9031C561.581 89.1815 564.83 85.9098 567.307 82.1495C569.17 79.3385 570.618 76.2885 571.595 73.9467C572.373 72.0809 572.85 70.6772 573.012 70.1822C571.576 64.2182 563.931 54.9244 554.883 45.8774C545.733 36.6925 535.175 27.6318 528.2 21.8601C523.83 18.2441 520.877 15.9271 520.53 15.6545C519.682 15.103 518.494 15.048 516.853 15.6406C515.217 16.2326 513.267 17.463 511.186 19.145C507.017 22.5067 502.294 27.6481 497.878 32.9964C489.037 43.6948 481.418 55.1912 481.393 55.2283C465.525 78.0428 449.761 101.39 434.901 123.81C397.748 179.862 366.238 230.112 352.807 251.732C349.398 257.218 347.158 260.852 346.28 262.281L414.168 304.854C405.909 284.663 417.121 264.245 422.6 255.938C424.103 253.671 425.192 252.301 425.367 252.084C432.228 241.812 453.722 227.304 453.795 227.239C468.802 218.418 482.057 203.192 493.109 186.509C510.924 159.635 523.047 129.004 527.985 115.387C529.631 110.847 530.475 108.211 530.47 108.228C530.814 107.009 531.375 105.856 532.096 104.768C538.605 95.0722 557.844 89.9697 557.952 89.9031Z" fill="#35121F"/>
<path d="M371.504 220.193C354.906 246.458 344.662 263.163 344.662 263.163L415.591 307.644C405.981 288.079 416.306 267.466 422.177 258.247C407.239 251.191 381.299 237.065 371.504 220.193Z" fill="url(#paint2_linear_10_83626)"/>
<path d="M344.07 263.269L344.279 262.927C344.279 262.926 354.525 246.22 371.122 219.953L371.494 219.364L371.877 220.023C376.972 228.81 386.569 236.914 396.7 243.624C405.782 249.643 415.286 254.551 422.334 257.88L422.803 258.102L422.553 258.492C416.694 267.674 406.473 288.195 415.98 307.502L416.596 308.753L344.07 263.269ZM414.626 306.567C406.036 287.398 415.751 267.643 421.548 258.399C414.52 255.061 405.197 250.22 396.257 244.294C386.308 237.698 376.826 229.769 371.513 221.019C363.384 233.886 356.805 244.421 352.237 251.768C348.367 257.997 345.949 261.927 345.252 263.062L414.626 306.567Z" fill="#939598"/>
<path d="M406.236 301.756L414.837 307.149C405.227 287.585 415.552 266.971 421.423 257.753C419.038 256.627 416.373 255.319 413.54 253.851C407.364 264.913 400.098 283.35 406.236 301.756Z" fill="url(#paint3_linear_10_83626)"/>
<path d="M406.023 302.094L405.872 302L405.82 301.841C399.629 283.243 406.955 264.727 413.15 253.624L413.335 253.291L413.714 253.487C416.541 254.952 419.201 256.257 421.579 257.38L422.048 257.602L421.8 257.993C415.941 267.175 405.718 287.695 415.225 307.003L415.843 308.254L406.023 302.094ZM413.872 306.068C405.286 286.898 414.997 267.142 420.796 257.899C418.636 256.874 416.258 255.704 413.742 254.408C407.643 265.43 400.666 283.526 406.596 301.505L413.872 306.068Z" fill="#939598"/>
<path d="M490.441 42.3312C506.973 54.6135 534.718 78.3438 536.635 100.484L537.268 101.197C545.059 93.9004 559.856 89.87 559.856 89.87C569.845 87.8227 575.549 69.4502 575.549 69.4502C571.706 52.4559 522.639 14.1547 522.639 14.1547C516.11 9.8273 500.219 29.1224 490.441 42.3312Z" fill="url(#paint4_linear_10_83626)"/>
<path d="M560.015 90.287C560.008 90.2907 556.341 91.2865 551.69 93.1985C547.04 95.106 541.425 97.929 537.591 101.525L537.27 101.823L536.215 100.633L536.203 100.491C534.355 78.6573 506.712 54.9071 490.198 42.6661L489.842 42.401L490.078 42.0834C497.433 32.1612 508.172 18.8288 515.985 14.5214C518.583 13.0987 520.963 12.5998 522.895 13.8566C522.9 13.8626 535.174 23.4442 547.938 35.1579C560.702 46.8995 573.958 60.6626 575.976 69.4181L576 69.5224L575.969 69.6216C575.962 69.6377 573.904 76.2723 570.07 82.0605C567.508 85.9139 564.169 89.4253 560.015 90.287ZM559.725 89.4772C563.536 88.7066 566.815 85.3558 569.32 81.5634C572.821 76.2843 574.833 70.2396 575.1 69.4068C573.186 61.155 560.049 47.3401 547.371 35.7309C534.641 24.0462 522.413 14.5017 522.418 14.5048C521.054 13.5751 519 13.8664 516.475 15.2563C513.969 16.6318 511.078 19.0334 508.087 21.9863C502.198 27.8017 495.894 35.7542 491.042 42.2911C507.596 54.6604 534.979 78.1211 537.059 100.365L537.271 100.604C545.251 93.4036 559.673 89.4964 559.725 89.4772Z" fill="#939598"/>
<path d="M571.569 61.8731C571.569 61.8731 564.931 83.2544 553.305 85.6374C553.305 85.6374 543.762 88.2391 535.143 93.0711C535.746 95.1642 536.153 97.2541 536.333 99.3296L536.966 100.042C544.757 92.7456 559.554 88.7153 559.554 88.7153C569.543 86.6678 575.247 68.2953 575.247 68.2953C574.673 65.7555 573.083 62.7372 570.802 59.4444C571.131 60.2878 571.394 61.1012 571.569 61.8731Z" fill="url(#paint5_linear_10_83626)"/>
<path d="M559.71 89.1147C559.704 89.1178 556.036 90.1144 551.387 92.0255C546.735 93.9332 541.122 96.7568 537.285 100.352L536.966 100.65L535.91 99.4593L535.899 99.3177C535.72 97.2721 535.319 95.2076 534.724 93.139L534.638 92.8469L534.893 92.7029C543.565 87.8418 553.129 85.238 553.171 85.2255C557.635 84.3223 561.458 80.4092 564.381 75.9908C568.482 69.8028 570.827 62.7191 571.117 61.8115C570.951 61.0974 570.702 60.338 570.395 59.5496L571.156 59.2368C573.454 62.5596 575.073 65.6121 575.671 68.2449L575.694 68.3486L575.664 68.4487C575.658 68.4653 573.6 75.1006 569.766 80.8883C567.204 84.7405 563.865 88.2539 559.71 89.1147ZM559.42 88.304C563.232 87.5333 566.51 84.1819 569.014 80.3898C572.515 75.1115 574.528 69.0689 574.796 68.2342C574.369 66.4159 573.392 64.308 571.991 62.0115L571.987 62.0257C571.979 62.0432 569.587 69.761 565.129 76.4867C562.152 80.9681 558.267 85.0422 553.463 86.036C553.457 86.0381 551.094 86.6825 547.645 87.9301C544.264 89.1555 539.853 90.9588 535.644 93.291C536.197 95.2625 536.575 97.2327 536.754 99.192L536.967 99.4318C544.947 92.2301 559.37 88.3235 559.42 88.304Z" fill="#939598"/>
<path d="M533.433 61.9559C534.434 68.8569 541.062 74.3218 548.239 74.1619C555.414 74.003 560.423 68.2809 559.423 61.3799C558.423 54.4805 551.795 49.0158 544.618 49.1743C537.441 49.3335 532.435 55.0576 533.433 61.9559Z" fill="url(#paint6_linear_10_83626)"/>
<path d="M548.256 74.3615C545.176 74.4293 542.194 73.4775 539.704 71.826C536.303 69.5727 533.814 66.0157 533.228 61.972C532.798 59.0114 533.46 56.2618 534.917 54.0628C536.905 51.0627 540.38 49.0866 544.583 48.9927C547.663 48.9251 550.644 49.8771 553.135 51.5277C556.535 53.7812 559.025 57.3402 559.612 61.3833C560.039 64.3444 559.379 67.0943 557.922 69.292C555.934 72.2931 552.459 74.2682 548.256 74.3615ZM539.907 71.5201C542.325 73.1229 545.215 74.0471 548.205 73.9807C552.285 73.8896 555.651 71.975 557.58 69.0647C558.993 66.9332 559.634 64.2693 559.217 61.3954C558.65 57.473 556.234 54.0226 552.932 51.8335C550.514 50.2305 547.624 49.3072 544.634 49.3741C540.555 49.4642 537.189 51.3804 535.261 54.2903C533.848 56.4221 533.206 59.0854 533.622 61.9586C534.191 65.8816 536.605 69.3322 539.907 71.5201Z" fill="#636467"/>
<path d="M538.032 62.669C538.787 67.878 543.791 72.0032 549.21 71.8831C554.629 71.7641 558.41 67.4424 557.654 62.233C556.898 57.0235 551.894 52.8978 546.477 53.0175C541.056 53.1381 537.277 57.457 538.032 62.669Z" fill="white"/>
<path d="M549.219 71.9694C546.908 72.0205 544.671 71.3064 542.803 70.0686C540.252 68.378 538.385 65.7098 537.946 62.6777C537.623 60.4552 538.118 58.3928 539.211 56.7441C540.703 54.4935 543.309 53.0133 546.463 52.9425C548.772 52.891 551.008 53.6052 552.877 54.8443C555.426 56.5339 557.295 59.2028 557.735 62.2365C558.057 64.457 557.561 66.5194 556.469 68.1676C554.977 70.4183 552.372 71.9003 549.219 71.9694ZM542.889 69.9386C544.727 71.1567 546.924 71.8587 549.197 71.8084C552.299 71.7393 554.857 70.2838 556.323 68.071C557.397 66.4505 557.885 64.4258 557.567 62.242C557.135 59.2604 555.299 56.6367 552.791 54.9744C550.953 53.7558 548.755 53.0544 546.484 53.1033C543.384 53.174 540.824 54.628 539.357 56.8407C538.283 58.4614 537.796 60.4871 538.113 62.6717C538.546 65.6524 540.38 68.2756 542.889 69.9386Z" fill="#939598"/>
<path d="M528.584 100.909C507.686 117.52 464.517 159.359 427.323 243.791C436.114 234.513 451.451 224.117 451.451 224.117C499.192 196.044 528.458 104.679 528.458 104.679C528.749 103.651 529.211 102.664 529.804 101.718L528.584 100.909Z" fill="#704121"/>
<path d="M486.767 82.7262C487.616 88.5782 493.237 93.2116 499.324 93.0774C505.408 92.9424 509.655 88.0897 508.807 82.2388C507.959 76.3866 502.338 71.7526 496.251 71.8867C490.166 72.0221 485.922 76.8766 486.767 82.7262Z" fill="#231F20"/>
<path d="M487.378 82.58C488.167 88.0251 493.398 92.3373 499.063 92.211C504.726 92.086 508.677 87.5685 507.889 82.1255C507.099 76.6781 501.868 72.3663 496.205 72.4915C490.539 72.6181 486.589 77.1325 487.378 82.58Z" fill="url(#paint7_radial_10_83626)"/>
<path d="M398.939 215.226C399.787 221.078 405.409 225.712 411.496 225.577C417.58 225.442 421.827 220.59 420.979 214.739C420.131 208.886 414.51 204.252 408.423 204.387C402.337 204.522 398.093 209.376 398.939 215.226Z" fill="#231F20"/>
<path d="M399.554 215.08C400.343 220.525 405.574 224.837 411.239 224.711C416.902 224.586 420.853 220.068 420.065 214.625C419.275 209.178 414.044 204.866 408.38 204.991C402.715 205.118 398.765 209.632 399.554 215.08Z" fill="url(#paint8_radial_10_83626)"/>
<path d="M397.963 239.702C378.809 232.785 374.385 218.295 374.385 218.295L469.165 76.9264C369.031 221.489 397.963 239.702 397.963 239.702Z" fill="#704121"/>
<path d="M512.395 67.0436C505.585 52.8983 489.261 44.9678 489.261 44.9678C480.665 54.6809 464.729 83.6079 464.729 83.6079C488.13 54.8133 512.395 67.0436 512.395 67.0436Z" fill="#704121"/>
<defs>
<linearGradient id="paint0_linear_10_83626" x1="319.22" y1="472.179" x2="240.617" y2="420.08" gradientUnits="userSpaceOnUse">
<stop stop-color="white"/>
<stop offset="1" stop-color="#C6C8CA"/>
</linearGradient>
<linearGradient id="paint1_linear_10_83626" x1="188.977" y1="614.527" x2="399.886" y2="296.323" gradientUnits="userSpaceOnUse">
<stop stop-color="white"/>
<stop offset="1" stop-color="#C6C8CA"/>
</linearGradient>
<linearGradient id="paint2_linear_10_83626" x1="357.513" y1="241.301" x2="428.415" y2="288.295" gradientUnits="userSpaceOnUse">
<stop stop-color="white"/>
<stop offset="1" stop-color="#231F20"/>
</linearGradient>
<linearGradient id="paint3_linear_10_83626" x1="401.7" y1="271.715" x2="427.145" y2="288.58" gradientUnits="userSpaceOnUse">
<stop stop-color="white"/>
<stop offset="1" stop-color="#231F20"/>
</linearGradient>
<linearGradient id="paint4_linear_10_83626" x1="495.435" y1="34.7966" x2="568.673" y2="83.3397" gradientUnits="userSpaceOnUse">
<stop stop-color="#C6C8CA"/>
<stop offset="1" stop-color="#231F20"/>
</linearGradient>
<linearGradient id="paint5_linear_10_83626" x1="547.001" y1="75.1811" x2="565.074" y2="87.16" gradientUnits="userSpaceOnUse">
<stop stop-color="#C6C8CA"/>
<stop offset="1" stop-color="#231F20"/>
</linearGradient>
<linearGradient id="paint6_linear_10_83626" x1="539.806" y1="71.6596" x2="553.051" y2="51.6773" gradientUnits="userSpaceOnUse">
<stop stop-color="white"/>
<stop offset="1" stop-color="#231F20"/>
</linearGradient>
<radialGradient id="paint7_radial_10_83626" cx="0" cy="0" r="1" gradientUnits="userSpaceOnUse" gradientTransform="translate(497.633 82.3512) rotate(-1.26876) scale(10.2585 9.88863)">
<stop stop-color="#D1D3D4"/>
<stop offset="0.1664" stop-color="#CCCECF"/>
<stop offset="0.3668" stop-color="#BDBFC1"/>
<stop offset="0.5845" stop-color="#A5A7A9"/>
<stop offset="0.813" stop-color="#848588"/>
<stop offset="1" stop-color="#636467"/>
</radialGradient>
<radialGradient id="paint8_radial_10_83626" cx="0" cy="0" r="1" gradientUnits="userSpaceOnUse" gradientTransform="translate(409.809 214.851) rotate(-1.26875) scale(10.2584 9.88859)">
<stop stop-color="#D1D3D4"/>
<stop offset="0.1664" stop-color="#CCCECF"/>
<stop offset="0.3668" stop-color="#BDBFC1"/>
<stop offset="0.5845" stop-color="#A5A7A9"/>
<stop offset="0.813" stop-color="#848588"/>
<stop offset="1" stop-color="#636467"/>
</radialGradient>
</defs>
</svg>
