<svg width="668" height="668" viewBox="0 0 668 668" fill="none" xmlns="http://www.w3.org/2000/svg">
<g clip-path="url(#clip0_2_75408)">
<path d="M201.702 621.367C202.567 626.722 202.753 631.946 199.747 636.74C198.27 637.33 196.863 637.859 195.301 638.196C195.624 637.737 195.947 637.276 196.258 636.808C199.094 632.559 198.823 628.285 197.882 623.518C199.315 622.992 200.455 622.221 201.702 621.367Z" fill="#EF9015"/>
<path d="M183.918 602.047C189.681 603.115 193.444 606.021 196.733 610.764C198.849 613.813 200.975 617.663 201.705 621.336C200.459 622.19 199.319 622.961 197.886 623.486C195.986 614.805 190.868 607.406 183.918 602.047Z" fill="#F8B64E"/>
<path d="M181.926 601.68L183.908 602.047C190.858 607.406 195.976 614.805 197.876 623.486C198.817 628.254 199.087 632.528 196.252 636.777C195.94 637.245 195.618 637.705 195.294 638.165C193.518 638.629 191.747 639.15 189.925 639.396C190.615 638.469 191.669 637.706 192.445 636.825C195.766 633.058 195.644 629.009 195.28 624.349C193.744 614.761 189.385 607.756 181.926 601.68Z" fill="#B94210"/>
<path d="M322.246 591.891C328.862 591.964 334.451 594.091 339.142 598.869C343.541 603.35 346.728 610.324 346.534 616.671C346.455 619.258 345.533 621.793 343.628 623.601C342.756 624.428 341.671 625.037 340.593 625.55C341.451 623.198 341.7 620.271 341.557 617.779C341.09 609.653 336.052 600.725 329.054 596.473C326.682 595.032 324.028 594.378 321.914 592.47L322.246 591.891Z" fill="#D1751C"/>
<path d="M500.895 21.9922C513.825 26.3712 523.565 36.7721 529.489 48.8441C531.113 52.1544 532.347 55.5881 533.328 59.1381C535.732 50.2043 536.472 39.1851 545.309 33.9837C545.497 33.8729 545.687 33.7661 545.876 33.6574C543.394 39.3553 541.389 44.7167 539.961 50.7838C547.733 46.6163 555.304 43.2852 563.94 41.2809C556.159 49.1494 549.299 56.5411 544.192 66.4965C555.466 57.7069 566.578 51.8195 581.371 53.638C582.217 53.7418 583.06 53.8603 583.901 53.9928C575.151 57.713 565.341 63.0821 558.831 70.0885C568.896 65.9277 578.227 63.2315 589.177 62.9098C587.146 64.9129 584.381 66.4041 582.023 68.0089C578.801 70.2021 575.631 72.5269 572.543 74.9047C567.881 77.7913 563.5 80.8285 559.364 84.4477C555.93 87.4537 552.451 91.3763 548.547 93.7116C547.897 93.4694 547.961 93.3932 547.244 93.5897C539.806 95.6219 532.247 94.0731 524.827 96.4953C526.941 93.1767 528.702 89.9889 529.883 86.2227C530.991 82.6902 531.777 78.9923 531.56 75.2724C530.929 64.4252 521.579 39.9572 514.217 32.206C511.307 29.1424 502.432 25.4504 501.135 22.58C501.049 22.3871 500.975 22.1881 500.895 21.9922Z" fill="#8D1F0C"/>
<path d="M164.672 603.625C169.801 601.637 176.504 599.854 181.931 601.666C189.39 607.743 193.749 614.748 195.285 624.336C195.649 628.996 195.77 633.045 192.45 636.812C191.674 637.693 190.62 638.456 189.93 639.383C188.016 639.923 186.153 640.211 184.188 640.471C182.78 640.657 181.366 640.883 179.951 641.006C175.968 641.651 171.875 641.796 167.847 641.985L162.989 642.197C156.88 642.657 149.962 641.986 143.977 640.698C138.634 639.547 133.02 637.505 129.926 632.712C131.962 628.035 135.513 624.205 139.134 620.68C141.356 618.516 150.443 609.952 153.006 609.992L153.207 609.817C155.023 606.961 159.708 605.955 162.47 604.184L164.672 603.625Z" fill="#F8B64E"/>
<path d="M165.992 604.163C169.234 603.926 173.107 606.7 175.473 608.743C180.678 613.238 184.537 619.851 185.919 626.587C186.586 631.539 186.416 635.534 184.325 640.172L184.19 640.478C182.782 640.663 181.368 640.889 179.953 641.012C180.009 640.915 180.063 640.817 180.12 640.721C183.362 635.208 183.398 630.241 182.193 624.178C181.399 621.567 180.51 618.994 179.287 616.547C176.403 610.78 172.227 606.215 165.992 604.163Z" fill="#B94210"/>
<path d="M195.289 624.359C195.653 629.019 195.774 633.068 192.454 636.836C191.678 637.716 190.624 638.479 189.933 639.406C188.02 639.946 186.156 640.234 184.191 640.495L184.326 640.189C186.418 635.551 186.588 631.556 185.92 626.603C188.357 626.457 192.743 626.728 194.783 625.474C195.255 625.184 195.179 624.857 195.289 624.359Z" fill="#EF9015"/>
<path d="M182.196 624.203C183.401 630.265 183.365 635.233 180.123 640.745C180.066 640.842 180.012 640.94 179.956 641.037C175.973 641.682 171.88 641.828 167.852 642.017C169.921 638.046 170.829 635.018 170.979 630.507C174.734 628.858 178.9 626.625 182.196 624.203Z" fill="#EF9015"/>
<path d="M153.207 609.852C158.444 610.575 162.51 612.393 165.816 616.724C168.917 620.786 170.351 625.497 170.974 630.509C170.824 635.02 169.916 638.049 167.847 642.019L162.989 642.231C156.88 642.691 149.961 642.02 143.977 640.732C138.634 639.581 133.02 637.539 129.926 632.746C131.962 628.069 135.513 624.239 139.134 620.713C141.356 618.55 150.443 609.986 153.006 610.025L153.207 609.852Z" fill="#F8B64E"/>
<path d="M153.212 609.852C158.449 610.575 162.515 612.393 165.821 616.724C168.922 620.786 170.356 625.497 170.979 630.509C170.829 635.02 169.921 638.049 167.852 642.019L162.994 642.231C165.05 640.508 166.349 638.826 167.22 636.255C168.973 631.079 167.761 624.674 165.356 619.887C162.272 613.748 159.34 612.1 153.012 610.025L153.212 609.852Z" fill="#B94210"/>
<path d="M572.545 74.9219C572.628 74.9623 572.708 75.014 572.797 75.0437C574.299 75.5565 577.05 74.8205 578.821 75.0404C586.191 75.9542 591.971 82.7542 595.542 88.8198C600.647 97.49 602.986 107.379 600.318 117.252C598.17 125.199 593.68 132.42 586.321 136.436C585.842 136.697 585.356 136.914 584.857 137.133C582.682 134.392 580.385 131.759 578.081 129.128C575.989 127.536 574.709 125.294 572.73 123.594C570.809 120.29 566.957 117.087 564.265 114.332C561.32 111.282 557.909 108.461 555.219 105.204C550.887 102.403 547.038 99.1655 542.523 96.5703C544.659 95.9011 546.678 94.9533 548.549 93.7287C552.453 91.3932 555.932 87.4709 559.366 84.4649C563.502 80.8457 567.882 77.8085 572.545 74.9219Z" fill="#EF9015"/>
<path d="M555.227 105.195C563.643 105.125 569.165 100.217 575.312 95.1567C577.128 93.6615 579.025 92.034 581.215 91.1082C582.793 90.4421 583.991 90.7828 585.531 91.3535C584.406 94.7899 575.259 102.422 575.36 105.084C572.267 109.231 568.938 112.005 564.273 114.323C561.327 111.273 557.917 108.451 555.227 105.195Z" fill="#B94210"/>
<path d="M585.528 91.3359C589.167 93.4939 591.349 96.6193 592.408 100.712C593.482 104.863 593.567 110.452 592.345 114.569C591.609 119.142 588.895 123.19 585.159 125.871C582.971 127.441 580.666 128.392 578.085 129.102C575.994 127.509 574.714 125.268 572.734 123.568C570.813 120.263 566.962 117.061 564.27 114.306C568.935 111.988 572.264 109.214 575.357 105.067C575.256 102.405 584.403 94.7724 585.528 91.3359Z" fill="#D70901"/>
<path d="M585.532 91.3359C589.171 93.4939 591.353 96.6193 592.412 100.712C593.486 104.863 593.571 110.452 592.349 114.569C590.593 111.677 591.43 107.183 587.82 102.62C586.713 101.222 585.295 100.242 583.488 100.077C579.029 99.6697 578.55 102.551 575.717 104.793C575.6 104.886 575.479 104.976 575.36 105.067C575.26 102.405 584.407 94.7724 585.532 91.3359Z" fill="#8D1F0C"/>
<path d="M28.7354 509.798C23.6409 504.459 22.409 497.962 22.5541 490.769C22.7601 480.578 26.1415 470.799 33.6839 463.707C37.8214 459.816 42.9544 456.93 48.5072 455.67C58.8278 453.328 77.7544 457.236 84.8232 448.015C85.8812 446.634 86.413 444.992 86.9212 443.352C87.8938 444.254 87.847 446.041 87.8886 447.322C88.0496 452.279 85.5546 456.573 82.1864 460.104C78.9836 463.461 74.7861 465.882 70.3176 467.108C75.338 466.946 79.7036 467.256 84.5596 468.518C74.8846 470.785 68.291 474.928 62.9399 483.48C56.7014 493.451 53.4018 508.786 40.4664 512.323C35.6992 513.205 32.8 512.141 28.7354 509.798Z" fill="#691106"/>
<path d="M533.244 593.055C540.779 591.505 548.073 591.155 554.741 595.587C560.705 599.549 564.511 606.105 565.848 613.051C566.764 617.809 566.816 623.638 563.956 627.767C562.266 630.206 560.022 631.576 557.326 632.693C555.268 633.196 553.212 633.731 551.143 634.189C547.753 634.878 544.29 635.347 540.847 635.685L536.478 636.159C530.874 637.773 512.95 635.738 506.85 634.479C506.741 633.154 507.162 631.643 507.136 630.255C507.03 624.708 505.413 620.697 502.895 615.813C503.508 614.933 504.002 614.015 504.562 613.105C510.531 603.4 522.305 595.733 533.244 593.055Z" fill="#D1751C"/>
<path d="M520.414 599.398C522.139 599.891 523.905 600.295 525.577 600.952C532.643 603.729 538.418 609.371 541.368 616.366C544.268 623.244 543.598 628.948 540.847 635.729L536.478 636.204L536.387 635.604C539.049 630.249 540.495 625.562 538.807 619.626C536.096 610.088 528.762 603.99 520.414 599.398Z" fill="#B94210"/>
<path d="M534.113 594.414C536.032 594.815 537.956 595.361 539.823 595.955C546.955 598.228 553.054 603.459 556.447 610.115C560.537 618.135 560.039 624.387 557.328 632.708C555.27 633.211 553.214 633.746 551.145 634.204C552.108 633.036 552.998 631.869 553.654 630.496C556.302 624.958 556.164 618.008 554.068 612.317C550.471 602.546 543.044 598.492 534.113 594.414Z" fill="#B94210"/>
<path d="M416.66 608.126C417.802 606.674 418.755 605.082 419.964 603.678C429.241 592.904 446.176 591.523 459.369 590.594C460.178 593.754 460.924 596.991 463.176 599.476L464.781 600.302C470.951 599.594 476.677 599.885 482.745 601.292C483.312 601.424 483.099 601.382 483.792 601.304L484.083 601.42C491.735 604.184 498.61 608.779 502.896 615.831C505.415 620.714 507.031 624.726 507.137 630.273C507.163 631.661 506.743 633.172 506.852 634.497C506.769 634.586 506.684 634.671 506.604 634.763C502.939 638.989 502.794 640.142 497.136 641.552C495.144 641.95 493.148 642.399 491.144 642.729C488.518 643.125 485.871 643.483 483.216 643.597C481.67 643.727 480.122 643.877 478.574 643.983C474.625 644.57 468.359 644.898 464.413 644.316L461.385 644.297C452.161 644.309 436.287 642.086 429.161 636.03C422.478 630.014 419.618 623.823 417.783 615.103L416.66 608.126Z" fill="#F8B64E"/>
<path d="M446.859 609.477C454.597 611.425 460.596 614.831 464.834 621.817C468.054 627.124 469.364 633.701 467.798 639.784C467.418 641.26 466.682 643.004 465.56 644.061L464.406 644.31L461.377 644.291C464.327 640.324 465.061 635.002 464.346 630.189C463.326 623.318 459.085 617.051 453.533 612.987C451.441 611.458 449.26 610.422 446.859 609.477Z" fill="#B94210"/>
<path d="M478.56 643.968C478.334 643.255 479.98 641.461 480.39 640.596C482.082 637.027 482.635 632.869 482.599 628.953C482.534 621.989 479.382 613.825 474.595 608.663C472.934 606.871 470.705 605.614 468.957 603.881C469.714 603.795 470.343 604.124 470.99 604.5C478.143 608.647 483.118 615.234 485.461 623.12C487.609 630.352 486.798 637.012 483.201 643.582C481.655 643.712 480.108 643.862 478.56 643.968Z" fill="#B94210"/>
<path d="M484.075 601.422C491.727 604.186 498.602 608.781 502.888 615.833C505.407 620.716 507.024 624.728 507.129 630.275C507.155 631.663 506.735 633.174 506.844 634.499C506.761 634.588 506.676 634.673 506.596 634.765C502.931 638.992 502.787 640.143 497.128 641.554C495.136 641.952 493.14 642.401 491.137 642.731L491.466 642.379C495.35 638.16 496.936 632.675 496.676 627.009C496.206 616.73 491.144 608.905 483.77 602.172L484.075 601.422Z" fill="#F8B64E"/>
<path d="M483.77 602.18C490.172 604.883 495.324 611.68 497.904 617.947C500.496 624.245 501.44 631.957 498.856 638.419C498.413 639.528 497.768 640.557 497.128 641.562C495.136 641.96 493.14 642.408 491.136 642.739L491.466 642.387C495.35 638.167 496.935 632.683 496.676 627.016C496.207 616.738 491.144 608.913 483.77 602.18Z" fill="#B94210"/>
<path d="M416.66 608.126C417.802 606.674 418.755 605.082 419.964 603.678C429.241 592.904 446.176 591.523 459.369 590.594C460.178 593.754 460.924 596.991 463.176 599.476L464.781 600.302C464.598 600.395 464.415 600.49 464.231 600.581C461.401 601.974 458.177 602.624 455.283 604.017C446.518 608.238 439.427 616.755 434.755 625.096C432.807 628.574 431.412 632.8 429.161 636.03C422.478 630.014 419.618 623.823 417.783 615.103L416.66 608.126Z" fill="#EF9015"/>
<path d="M416.66 608.126C417.802 606.674 418.755 605.082 419.964 603.678C429.241 592.904 446.176 591.523 459.369 590.594C460.178 593.754 460.924 596.991 463.176 599.476C450.652 599.716 439.198 602.716 428.278 608.859C424.819 610.806 421.409 613.606 417.783 615.103L416.66 608.126Z" fill="#D1751C"/>
<path d="M243.717 451.299C254.012 448.559 259.452 447.382 270.292 449.076C277.493 450.201 284.437 453.835 291.075 456.752L314.887 467.356C319.831 469.544 325.352 471.35 330.086 473.906C330.186 473.96 330.284 474.021 330.383 474.079C323.932 486.793 316.338 498.31 307.794 509.738C300.632 519.317 285.754 535.079 282.105 545.36C279.751 551.994 280.493 559.77 282.627 566.347C285.501 575.203 293.224 591.23 301.902 595.623C303.505 596.435 305.272 596.71 307.038 596.918C310.513 595.109 313.823 593.26 317.65 592.288C319.108 591.937 320.747 591.979 322.245 591.897L321.912 592.476C324.027 594.385 326.681 595.038 329.052 596.48C336.051 600.732 341.088 609.66 341.556 617.786C341.699 620.278 341.449 623.204 340.591 625.557C338.832 626.162 337.097 626.796 335.267 627.152C332.591 627.73 329.934 628.203 327.222 628.58L322.163 629.246C313.101 630.064 304.319 629.859 295.323 628.382C278.613 624.851 274.499 620.36 265.318 606.276C259.163 596.834 234.211 553.177 236.607 543.247C237.714 538.655 241.11 534.155 243.13 529.849C245.9 523.942 247.792 517.246 249.123 510.856C252.725 493.561 250.906 471.001 241.042 455.936C241.7 454.252 242.722 452.798 243.717 451.299Z" fill="#CA5B07"/>
<path d="M309.855 599.229L310.065 598.619C311.66 598.003 313.408 598.909 314.91 599.565C320.572 602.039 325.161 606.976 327.403 612.737C329.335 617.704 329.377 623.684 327.225 628.592L322.166 629.258C322.408 627.725 323.297 626.261 323.711 624.75C324.611 621.466 324.451 617.039 323.541 613.763C321.592 606.752 315.953 602.542 309.855 599.229Z" fill="#B94210"/>
<path d="M317.652 592.281C319.11 591.93 320.749 591.973 322.247 591.891L321.915 592.47C324.029 594.378 326.683 595.032 329.055 596.473C336.053 600.725 341.091 609.653 341.558 617.779C341.701 620.271 341.452 623.198 340.593 625.55C338.835 626.156 337.099 626.79 335.27 627.146C335.317 624.429 337.161 621.472 337.095 617.264C336.961 608.723 331.745 600.347 324.499 595.929C322.705 594.835 319.357 594.084 317.97 592.635C317.861 592.52 317.758 592.399 317.652 592.281Z" fill="#B94210"/>
<path d="M295.324 628.391C296.693 620.929 304.627 604.79 309.854 599.227C315.952 602.54 321.591 606.75 323.539 613.76C324.45 617.036 324.61 621.463 323.71 624.747C323.295 626.259 322.406 627.723 322.164 629.256C313.102 630.073 304.321 629.869 295.324 628.391Z" fill="#D1751C"/>
<path d="M469.93 477.644C495.389 467.327 519.117 452.282 538.157 432.33C541.376 428.957 543.868 425.046 546.959 421.588L547.181 421.344C545.025 436.355 540.597 451.212 537.534 466.093C533.501 485.687 530.469 505.431 527.843 525.256C525.988 539.265 523.612 557.464 524.311 571.425C524.531 575.827 525.116 580.269 526.9 584.335C528.496 587.594 530.616 590.534 533.234 593.058C522.295 595.736 510.521 603.403 504.552 613.108C503.992 614.018 503.498 614.936 502.884 615.816C498.598 608.764 491.723 604.17 484.071 601.405L483.781 601.29C483.088 601.367 483.301 601.409 482.733 601.277C476.665 599.87 470.939 599.579 464.77 600.287L463.165 599.461C460.913 596.976 460.167 593.74 459.358 590.579C457.808 584.26 457.522 577.462 457.081 570.987C456.453 561.777 455.868 552.515 455.714 543.285C455.585 535.48 455.837 527.602 455.395 519.811C455.56 512.646 455.615 505.486 456.049 498.329C456.37 493.024 457.189 487.503 457.065 482.204C461.39 480.776 465.659 479.224 469.93 477.644Z" fill="#CA5B07"/>
<path d="M469.93 477.656C471.276 493.08 473.457 508.521 475.124 523.928C477.729 548.001 480.006 572.144 482.986 596.171C483.138 597.89 483.227 599.654 483.781 601.302C483.088 601.38 483.301 601.421 482.733 601.29C476.665 599.882 470.939 599.591 464.77 600.3L463.165 599.473C460.913 596.989 460.167 593.752 459.358 590.591C457.808 584.273 457.522 577.475 457.081 571C456.453 561.79 455.868 552.528 455.714 543.298C455.585 535.492 455.837 527.615 455.395 519.823C455.56 512.659 455.615 505.498 456.049 498.342C456.37 493.036 457.189 487.516 457.065 482.216C461.39 480.789 465.659 479.236 469.93 477.656Z" fill="#FCFAF4"/>
<path d="M496.224 20.6172C497.82 21.0051 499.385 21.3492 500.896 22.0098C500.977 22.2061 501.05 22.4051 501.137 22.5982C502.434 25.4683 511.31 29.1607 514.219 32.2242C521.581 39.9751 530.93 64.4434 531.562 75.2906C531.778 79.0102 530.993 82.7084 529.885 86.241C528.704 90.0071 526.943 93.195 524.829 96.5136C532.248 94.0914 539.808 95.6401 547.246 93.608C547.963 93.4117 547.899 93.488 548.549 93.7298C546.678 94.9544 544.659 95.9022 542.523 96.5714C539.746 96.261 534.601 94.7318 532.137 96.3541C532.092 96.3841 531.657 96.7762 531.592 96.8341C529.337 95.9619 527.491 96.6161 525.369 97.5875C516.631 101.587 510.685 108.835 506.772 117.351C502.715 107.719 495.286 101.226 485.67 97.2673C483.146 96.2279 480.503 95.4565 477.864 94.7667C473.605 96.6121 469.998 99.0331 466.433 101.993L466.591 101.126C469.185 98.0345 473.38 95.6885 477.049 94.1379C470.917 93.5357 460.128 91.5385 454.701 95.3609L456.636 96.6513L456.761 97.6199C444.987 105.196 436.221 117.168 426.441 126.978L425.834 126.691L425.2 127.337C423.525 129.435 421.228 131.096 419.152 132.784C414.428 129.669 409.587 126.092 406.235 121.487C398.292 132.66 390.776 143.074 385.114 155.635C379.688 167.672 376.769 180.508 372.584 192.984C370.779 198.362 368.274 203.282 366.152 208.507C369.03 206.771 371.656 204.559 374.282 202.465C372.142 212.058 372.15 224.032 375.425 233.335C375.735 234.215 376.158 235.778 376.731 236.475C376.841 236.609 377.008 236.684 377.147 236.788C377.882 239.05 379.619 247.857 380.904 248.968L381.057 248.647C381.098 248.754 381.147 248.857 381.181 248.966C381.336 249.444 381.351 249.757 381.399 250.24C382.554 261.966 396.636 285.617 405.368 293.439C405.855 293.874 406.095 294.018 406.718 294.115C409.298 295.923 411.859 299.7 414.251 301.973C420.207 307.637 427.177 312.361 434.195 316.591C429.21 306.703 425.661 298.206 426.513 286.888C428.807 309.538 446.262 320.445 461.26 334.829C476.912 349.84 485.304 369.879 485.753 391.54C493.357 371.04 493.177 354.673 487.191 333.822C500.284 355.085 505.102 376.305 503.551 401.104C516.635 389.075 525.66 371.215 533.256 355.375C530.779 368.271 527.6 380.162 522.248 392.18C525.649 389.43 529.295 386.995 532.677 384.213C536.679 380.921 540.383 377.283 544.095 373.674C556.356 361.758 564.397 351.514 571.645 335.883C568.911 349.072 565.703 358.458 560.3 370.778C578.237 350.62 592.785 326.521 599.074 300.121C599.904 296.634 601.119 282.297 601.938 280.895C609.879 306.758 606.552 334.401 594.427 358.464C593.801 352.606 592.395 347.045 590.983 341.341C586.408 366.1 574.745 387.74 562.459 409.373C561.711 404.344 561.856 395.123 559.312 390.952C558.665 400.257 556.467 406.594 551.532 414.427C550.106 416.691 548.372 418.986 547.185 421.369L546.963 421.614C543.872 425.072 541.38 428.983 538.161 432.356C519.121 452.307 495.393 467.352 469.935 477.669C465.664 479.249 461.394 480.802 457.07 482.23C457.193 487.53 456.374 493.05 456.053 498.355C455.619 505.512 455.565 512.672 455.399 519.837C454.949 523.311 455.24 527.232 455.206 530.748C445.045 511.312 443.7 485.16 444.348 463.578C444.9 445.165 447.389 426.526 439.712 409.102C430.729 388.715 408.1 376.05 391.937 361.895C379.3 350.828 367.689 336.31 361.322 320.624C358.431 313.504 354.222 297.093 357.235 289.961C357.134 277.708 359.949 266.341 366.658 256.002C360.832 257.843 355.316 259.963 350.035 263.09C344.703 266.246 339.662 270.051 334.042 272.69C333.696 271.198 333.455 269.662 333.402 268.128C333.123 260.017 337.394 250.561 342.121 244.165C344.327 241.18 346.986 238.474 349.493 235.742C342.801 239.504 337.856 243.182 332.914 249.062C335.165 236.865 342.871 227.572 352.791 220.506C346.238 221.9 340.982 221.955 334.83 219.111C337.706 217.67 340.414 216.464 343.002 214.498C374.495 190.583 364.323 133.848 393.123 105.055C386.906 108.295 381.681 112.015 376.576 116.805C381.193 103.525 389.944 92.0234 400.053 82.4684C394.954 84.3062 390.266 86.8814 385.493 89.42C390.653 81.9798 398.308 74.3278 405.691 69.1641C414.797 62.7955 424.11 60.936 434.964 62.8588C424.065 58.9721 417.774 55.4735 405.878 54.8845C409.609 52.5985 413.504 50.8122 417.663 49.4483C434.501 43.9265 447.115 50.1852 461.89 57.6557C452.474 48.0156 446.89 41.6123 434.16 36.3675C439.208 35.2468 444.264 34.4269 449.452 34.4667C466.286 34.5962 482.9 41.6243 494.696 53.6008C490.354 43.2208 484.534 34.6042 477.368 26.0044C478.437 26.1452 479.505 26.2979 480.566 26.4933C494.822 29.1151 504.136 37.6074 512.106 49.2484C509.538 37.8915 503.196 29.5666 496.224 20.6172Z" fill="url(#paint0_linear_2_75408)"/>
<path d="M386.045 337.323L386.384 337.173C387.802 338.374 389.194 340.786 390.006 342.476C390.202 342.884 390.02 342.692 390.577 342.913C390.597 342.262 390.536 341.835 390.361 341.213L390.248 340.823C389.672 338.794 388.207 337.451 387.293 335.614C386.227 333.471 385.939 331.182 385.593 328.846C384.251 319.821 385.616 311.971 388.51 303.391C388.042 308.211 387.805 312.841 388.174 317.689C387.757 328.181 389.012 337.45 393.073 347.204C390.402 344.148 388.217 340.742 386.045 337.323Z" fill="#691106"/>
<path d="M412.312 79.1489C412.931 77.5656 414.035 76.9316 415.57 76.2883C420.072 74.4004 425.25 75.1097 429.609 77.0197C438.863 81.0755 446.434 88.4783 454.693 94.0963C457.224 93.4519 459.782 92.7434 462.386 92.4811C472.533 91.4567 484.263 94.474 492.963 99.6993C497.168 102.225 500.497 106.543 503.56 108.317L506.872 115.267C507.831 113.09 508.73 110.899 509.594 108.683C514.52 104.349 519.119 99.8343 524.831 96.4747C532.25 94.0525 539.809 95.6013 547.247 93.5691C547.965 93.3729 547.9 93.4491 548.551 93.6909C546.68 94.9155 544.661 95.8633 542.525 96.5325C539.748 96.2221 534.603 94.6929 532.139 96.3152C532.094 96.3452 531.658 96.7374 531.593 96.7952C529.338 95.923 527.492 96.5772 525.37 97.5486C516.632 101.548 510.686 108.796 506.773 117.312C502.717 107.68 495.287 101.187 485.672 97.2284C483.148 96.1891 480.504 95.4176 477.866 94.7278C473.607 96.5733 469.999 98.9942 466.435 101.954L466.593 101.087C469.187 97.9956 473.381 95.6496 477.05 94.099C470.918 93.4968 460.129 91.4996 454.702 95.3221C452.088 94.0148 449.684 91.8902 447.378 90.1143C441.594 85.6602 433.284 78.6083 426.243 76.7001C421.096 75.3059 416.776 76.5884 412.312 79.1489Z" fill="#691106"/>
<path d="M494.961 37.5938C504.634 44.5272 511.622 60.4478 513.538 71.8935C515.073 81.0655 514.271 90.0957 512.027 99.0773C511.24 102.226 510.017 105.513 509.597 108.718C508.732 110.935 507.834 113.126 506.874 115.303L503.563 108.352C497.29 89.7131 488.254 72.2544 475.502 57.2045C471.93 52.9881 468.159 48.8034 463.484 45.794C478.372 48.7226 491.427 58.7717 499.823 71.2485C501.504 73.7457 502.915 76.3693 504.238 79.0688C504.212 69.2362 503.113 56.4499 499.604 47.2142C498.34 43.8886 496.538 40.7788 494.961 37.5938Z" fill="#B94210"/>
<path d="M412.314 79.1849C416.777 76.6244 421.097 75.3419 426.244 76.7367C433.285 78.6449 441.595 85.6966 447.379 90.1509C449.685 91.9265 452.089 94.0511 454.703 95.3587L456.638 96.6491L456.763 97.6177C444.99 105.194 436.223 117.166 426.444 126.976L425.836 126.689L425.202 127.335C423.528 129.433 421.23 131.094 419.154 132.781C414.43 129.667 409.59 126.09 406.237 121.485C402.981 116.59 401.488 110.511 401.381 104.683C401.256 97.8369 403.09 89.7869 407.31 84.251C408.679 82.4551 410.521 81.0812 412.068 79.4522C412.151 79.3643 412.231 79.2743 412.314 79.1849Z" fill="#EF9015"/>
<path d="M416.562 89.4172C420.961 88.4556 424.742 90.2104 428.385 92.5248C432.129 94.9044 435.765 97.6502 439.082 100.596C440.989 102.289 442.885 104.449 444.994 105.851C448.314 102.435 452.592 99.1298 456.636 96.643L456.761 97.6116C444.988 105.188 436.221 117.16 426.442 126.97L425.834 126.683L425.2 127.329C419.109 124.487 413.326 121.432 410.142 115.214C407.472 110 406.847 103.408 408.785 97.8504C410.205 93.7781 412.717 91.1968 416.562 89.4172Z" fill="#D70901"/>
<path d="M420.055 92.7656C423.271 94.2431 426.33 96.7651 429.227 98.8C433.754 101.979 438.267 105.133 442.944 108.089C443.651 107.372 444.417 106.679 444.993 105.854C448.312 102.439 452.591 99.1334 456.635 96.6466L456.76 97.6152C444.987 105.192 436.22 117.163 426.44 126.973L425.833 126.686C430.36 121.516 434.888 116.356 439.803 111.548C439.715 111.531 439.628 111.514 439.539 111.495L439.103 111.4C432.553 110.008 429.828 102.427 425.856 97.7107C424.247 95.7992 421.941 94.4124 420.055 92.7656Z" fill="#691106"/>
<path d="M416.562 89.4172C420.961 88.4556 424.743 90.2104 428.385 92.5248C432.129 94.9044 435.765 97.6502 439.083 100.596C440.99 102.289 442.885 104.449 444.995 105.851C444.418 106.675 443.653 107.369 442.946 108.085C438.269 105.129 433.756 101.975 429.229 98.7964C426.331 96.7618 423.273 94.2398 420.056 92.7621C419.679 92.5214 419.31 92.2762 418.938 92.0282C417.782 91.2589 417.238 90.639 416.562 89.4172Z" fill="#B94210"/>
<path d="M423.598 345.531C427.216 348.05 430.503 351.248 433.828 354.149C454.777 372.429 463.139 389.139 468.04 416.277C469.48 424.252 469.229 432.342 469.866 440.394L473.649 426.152C476.983 436.631 476.57 448.25 475.774 459.107C480.264 451.596 484.995 443.097 489.906 435.981C487.134 444.247 483.844 452.171 480.559 460.236C500.022 450.028 523.227 433.558 537.483 416.644C544.972 407.757 550.204 397.562 556.599 387.963C557.161 387.12 557.637 386.22 558.549 385.74C559.018 386.925 559.664 389.788 559.316 390.934C558.669 400.24 556.471 406.576 551.536 414.41C550.11 416.673 548.376 418.969 547.189 421.352L546.968 421.597C543.876 425.054 541.384 428.965 538.166 432.338C519.126 452.29 495.397 467.335 469.939 477.652C465.668 479.232 461.398 480.784 457.074 482.213C456.344 476.542 459.056 462.666 460.017 456.165C461.074 449.019 462.004 441.911 462.447 434.697C463.847 411.895 457.985 387.104 443.941 368.8C438.544 361.767 431.885 355.779 426.009 349.147C425.201 347.944 424.381 346.749 423.598 345.531Z" fill="#691106"/>
<path d="M358.79 301.704C359.949 299.651 359.7 296.007 360.189 293.633C362.176 283.992 368.766 275.323 376.886 269.961C375.694 272.244 374.465 274.516 373.357 276.841C373.36 277.018 373.366 277.196 373.366 277.374C373.367 280.556 370.99 286.851 370.689 291.164C369.72 305.024 374.324 318.22 381.236 330.007C382.612 332.354 384.196 335.355 386.05 337.315C388.223 340.734 390.407 344.14 393.078 347.195C389.017 337.441 387.763 328.172 388.179 317.68C388.265 317.819 388.355 317.958 388.439 318.099C389.623 320.081 390.226 322.993 390.981 325.196C392.24 328.866 393.699 332.429 395.605 335.816C398.091 340.236 401.086 344.496 404.503 348.248C410.477 354.805 417.784 360.478 424.656 366.066C429.804 370.252 434.934 374.619 440.436 378.335C438.998 376.455 437.606 374.57 436.415 372.521C433.987 368.342 426.528 353.439 426.008 349.136C431.885 355.769 438.544 361.756 443.941 368.789C457.985 387.094 463.847 411.884 462.446 434.687C462.003 441.9 461.073 449.008 460.017 456.154C459.056 462.656 456.344 476.531 457.073 482.202C457.197 487.501 456.378 493.022 456.057 498.327C455.623 505.484 455.568 512.644 455.403 519.809C454.953 523.283 455.244 527.204 455.21 530.72C445.049 511.284 443.704 485.132 444.351 463.55C444.903 445.136 447.393 426.498 439.716 409.074C430.732 388.686 408.103 376.022 391.941 361.867C379.304 350.8 367.692 336.282 361.326 320.596C358.435 313.476 354.226 297.065 357.239 289.933C357.607 293.834 357.758 297.912 358.79 301.704Z" fill="#CA5B07"/>
<path d="M358.789 301.704C359.948 299.651 359.699 296.007 360.188 293.633C362.175 283.992 368.765 275.323 376.885 269.961C375.693 272.244 374.464 274.516 373.356 276.841C365.698 289.016 361.44 300.274 363.382 314.941C361.466 310.654 359.724 306.325 358.789 301.704Z" fill="#691106"/>
<path d="M454.702 95.3455C460.129 91.5228 470.917 93.5203 477.05 94.1225C473.38 95.6731 469.186 98.0191 466.592 101.11L466.434 101.977C469.998 99.0177 473.606 96.5971 477.865 94.7513C480.503 95.4408 483.147 96.2125 485.671 97.2519C495.286 101.211 502.716 107.704 506.772 117.336C510.686 108.82 516.631 101.572 525.369 97.5721C527.491 96.6007 529.338 95.9465 531.593 96.8187C531.657 96.7605 532.093 96.3687 532.138 96.3387C534.602 94.7164 539.747 96.2453 542.524 96.556C547.039 99.1512 550.887 102.389 555.219 105.19C557.91 108.446 561.32 111.268 564.265 114.318C566.958 117.073 570.809 120.275 572.73 123.58C574.709 125.28 575.99 127.522 578.081 129.114C580.385 131.745 582.682 134.378 584.857 137.118C599.832 154.056 622.762 171.782 628.315 194.318C629.316 198.381 629.314 202.729 629.497 206.894C625.298 199.809 621.41 195.687 614.136 191.726C621.69 202.168 624.768 212.923 622.702 225.758C621.546 232.935 619.08 239.848 617.514 246.938C613.812 263.695 614.583 282.468 624.006 297.327C623.542 297.759 623.342 297.871 622.673 297.768C617.343 296.94 604.8 280.743 602.086 275.81C601.484 274.716 600.945 273.585 600.41 272.457C600.753 275.303 601.346 278.078 601.939 280.88C601.12 282.281 599.905 296.619 599.074 300.106C592.786 326.505 578.238 350.604 560.3 370.762C565.704 358.443 568.912 349.057 571.645 335.867C564.398 351.499 556.356 361.742 544.096 373.659C540.383 377.268 536.679 380.906 532.678 384.197C529.296 386.98 525.649 389.415 522.249 392.165C527.601 380.147 530.779 368.255 533.256 355.359C525.66 371.2 516.636 389.06 503.552 401.088C505.102 376.289 500.285 355.07 487.192 333.806C493.178 354.658 493.358 371.024 485.754 391.525C485.305 369.863 476.912 349.825 461.26 334.814C446.262 320.43 428.807 309.523 426.514 286.873C425.661 298.19 429.211 306.688 434.196 316.575C427.177 312.345 420.207 307.622 414.251 301.958C411.86 299.685 409.298 295.907 406.719 294.1C406.096 294.003 405.855 293.859 405.369 293.423C396.636 285.602 382.554 261.951 381.4 250.224C381.352 249.741 381.336 249.429 381.182 248.95C381.147 248.842 381.099 248.738 381.057 248.632L380.905 248.953C379.62 247.842 377.883 239.034 377.147 236.773C377.008 236.669 376.842 236.594 376.731 236.459C376.159 235.762 375.735 234.2 375.426 233.32C372.151 224.017 372.143 212.043 374.283 202.45C371.656 204.544 369.031 206.755 366.152 208.492C368.275 203.266 370.78 198.347 372.584 192.968C376.769 180.492 379.688 167.656 385.115 155.619C390.776 143.059 398.292 132.644 406.235 121.472C409.588 126.077 414.429 129.654 419.152 132.768C421.229 131.081 423.526 129.42 425.201 127.322L425.835 126.675L426.442 126.963C436.221 117.153 444.988 105.181 456.762 97.6046L456.636 96.6359L454.702 95.3455Z" fill="#B94210"/>
<path d="M385.131 231.43C386.297 256.182 390.469 274.429 406.723 294.101C406.1 294.004 405.86 293.86 405.373 293.425C396.641 285.603 382.559 261.952 381.404 250.226C381.356 249.742 381.341 249.43 381.186 248.951C381.151 248.843 381.103 248.739 381.061 248.633C380.981 242.329 382.646 237.166 385.131 231.43Z" fill="#691106"/>
<path d="M406.235 121.477C409.588 126.082 414.428 129.659 419.152 132.773C421.228 131.086 423.526 129.425 425.2 127.327L425.834 126.68L426.442 126.968L426.036 127.393C419.254 134.447 410.796 140.214 403.265 146.457C392.045 155.758 386.182 167.898 380.582 180.99C378.669 185.462 376.675 189.932 374.932 194.47C379.503 189.436 384.061 184.721 389.53 180.63C378.598 194.759 374.173 214.456 376.41 232.072C376.609 233.646 376.88 235.214 377.147 236.778C377.008 236.673 376.842 236.598 376.731 236.464C376.159 235.767 375.735 234.204 375.426 233.325C372.151 224.022 372.143 212.047 374.283 202.454C371.656 204.548 369.031 206.76 366.152 208.496C368.275 203.271 370.78 198.352 372.584 192.973C376.769 180.497 379.688 167.661 385.115 155.624C390.776 143.064 398.292 132.649 406.235 121.477Z" fill="#691106"/>
<path d="M454.698 95.3455C460.125 91.5228 470.914 93.5203 477.046 94.1225C473.377 95.6731 469.183 98.0191 466.588 101.11L466.43 101.977C456.084 111.637 445.311 123.255 443.32 137.849C442.505 143.825 442.542 149.922 441.222 155.829C440.562 158.377 439.796 160.827 438.77 163.253C435.685 170.56 427.354 184.429 430.1 192.107L430.445 192.277C432.537 193.287 434.739 193.959 436.866 194.877C441.624 196.931 446.17 200.295 449.85 203.914C439.53 205.011 430.419 206.961 420.958 211.412C415.675 195.246 420.386 182.589 426.023 167.436C417.337 172.293 409.099 174.897 399.391 176.864C418.789 169.608 425.01 158.836 432.654 140.429C434.728 135.435 436.759 130.213 439.484 125.534C445.097 115.895 453.179 107.555 458.709 97.8492L458.298 97.9484L458.902 97.2993L458.802 97.1362C457.882 96.9059 457.589 97.2301 456.758 97.6046L456.633 96.6359L454.698 95.3455Z" fill="#8D1F0C"/>
<path d="M430.106 192.107L429.489 192.548C428.854 192.3 429.006 192.5 428.764 191.964C425.907 185.648 434.838 169.734 437.512 163.838C438.779 161.045 439.489 157.959 440.596 155.094L441.059 155.139L441.228 155.829C440.569 158.377 439.802 160.827 438.776 163.254C435.691 170.56 427.36 184.43 430.106 192.107Z" fill="#691106"/>
<path d="M531.598 96.8231C531.662 96.765 532.098 96.3731 532.143 96.3431C534.607 94.7209 539.752 96.2497 542.529 96.5605C547.044 99.1556 550.892 102.393 555.224 105.194C557.915 108.451 561.325 111.272 564.271 114.322C566.963 117.077 570.814 120.28 572.735 123.584C571.499 122.644 570.401 121.552 569.18 120.608C571.574 124.211 574.375 127.533 577.031 130.945C583.805 139.65 589.492 148.151 593.029 158.695C590.157 156.597 587.314 154.413 584.365 152.426C588.122 159.84 592.747 166.833 595.636 174.673C593.094 173.159 590.592 171.551 588.027 170.083C592.01 175.766 595.129 182.31 597.058 188.978C594.979 187.132 592.885 185.302 590.83 183.43C593.109 189.806 594.863 196.498 597.469 202.729L597.364 203.069L595.204 201.992C596.75 203.543 600.737 215.159 602.093 218.039L598.577 212.92L598.206 229.766C594.631 228.322 591.124 226.822 587.279 226.269C584.949 223.927 582.213 222.006 579.519 220.114C579.886 217.533 579.617 214.775 579.796 212.147C584.238 214.214 587.603 217.522 591.802 219.831C588.319 216.257 584.193 213.71 579.839 211.324C580.304 210.495 580.727 209.641 581.161 208.796C582.134 205.929 582.806 202.978 585.159 200.907C584.959 199.533 584.911 198.141 584.829 196.756C585.787 197.119 587.044 197.787 588.057 197.855C587.85 197.342 586.437 196.856 585.899 196.589C582.763 195.43 579.62 194.75 576.325 194.211C578.454 178.395 571.161 170.622 567.092 156.903C565.582 151.812 565.356 146.403 564.46 141.186C561.481 123.844 548.772 108.533 534.707 98.5843L531.598 96.8231Z" fill="#8D1F0C"/>
<path d="M585.15 200.914C585.463 202.768 585.537 204.684 584.419 206.303C583.797 207.206 583.241 207.708 582.258 208.199C581.885 208.385 581.518 208.604 581.152 208.803C582.126 205.936 582.797 202.985 585.15 200.914Z" fill="#691106"/>
<path d="M534.695 98.5905C536.071 98.2396 537.701 99.3457 538.913 100.065C544.676 103.484 549.564 108.239 553.855 113.336C568.2 130.375 567.974 140.649 575.258 159.977C578.385 168.278 583.099 176.311 585.256 184.914C586.012 187.929 587.064 193.725 585.888 196.595C582.752 195.436 579.608 194.756 576.313 194.217C578.443 178.401 571.15 170.628 567.081 156.909C565.571 151.818 565.345 146.409 564.449 141.192C561.47 123.85 548.761 108.539 534.695 98.5905Z" fill="#691106"/>
<path d="M467.621 196.164C471.584 190.716 476.652 184.981 482.371 181.322C483.732 180.451 485.489 179.298 487.121 179.663C487.132 182.99 487.367 186.294 487.725 189.602C490.216 197.791 495.925 198.207 501.834 202.896C505.13 205.512 507.987 208.711 510.851 211.782L510.871 215.861C510.863 218.182 511.352 222.632 509.76 224.415C506.811 227.719 491.751 232.519 487.402 232.405C484.619 232.332 481.561 231.155 479.256 229.596L478.984 229.95C478.795 229.817 478.607 229.68 478.413 229.552C476.111 228.043 474.612 225.81 472.353 224.349C471.64 223.887 471.253 223.916 470.457 224.091C469.79 224.896 469.885 225.341 469.79 226.362C469.676 225.454 469.741 224.959 469.147 224.245C468.31 224.942 468.066 226.563 467.947 227.633C466.551 225.489 465.284 223.314 464.064 221.064C452.627 226.506 445.179 234.468 440.897 246.454C440.123 248.62 439.517 250.803 438.978 253.037C438.454 255.288 438.737 258.793 437.475 260.708L437.412 260.15L437.756 260.14L437.302 259.856C438.079 257.67 438.124 254.687 438.438 252.356C435.717 249.793 431.8 238.726 430.866 234.807C429.043 237.142 427.147 239.451 425.631 242.002L425.374 242.439C426.287 239.437 428.185 237.021 430.045 234.548C429.29 232.827 428.83 230.795 428.204 228.998C427.05 225.683 425.773 222.409 424.516 219.131C422.35 220.332 420.227 221.548 417.906 222.427C419.858 221.036 421.97 219.912 424.061 218.748C423.155 216.519 422.25 214.294 421.514 212.001C419.586 213.041 416.934 214.083 415.249 215.425C415.095 215.548 414.958 215.691 414.812 215.824L414.477 215.621L414.297 215.864L415.007 215.334L414.396 215.436L414.597 215.55C416.643 214 418.731 212.694 420.96 211.423C430.421 206.971 439.531 205.022 449.851 203.924C454.274 203.549 458.879 203.739 463.29 204.235C464.382 201.329 465.868 198.717 467.621 196.164Z" fill="#FECB73"/>
<path d="M462.875 205.516L464.726 205.816C468.557 206.364 471.604 207.622 475.066 209.301C472.862 209.162 470.438 208.925 468.345 208.189C466.835 207.994 465.322 207.835 463.807 207.676C464.242 207.377 464.047 207.578 464.341 207.022L462.875 205.516Z" fill="#EF9015"/>
<path d="M450.508 204.912C453.967 204.916 457.436 204.834 460.881 205.183L462.495 205.344L462.875 205.503L464.341 207.01C464.047 207.566 464.242 207.364 463.807 207.663L461.521 208.349C459.1 208.367 456.517 208.644 454.149 209.142C453.034 207.656 451.744 206.297 450.508 204.912Z" fill="#EF9015"/>
<path d="M462.498 205.352L462.878 205.511L464.344 207.018C464.049 207.574 464.245 207.372 463.81 207.671L461.523 208.357C461.68 207.203 461.951 206.379 462.498 205.352Z" fill="#EF9015"/>
<path d="M463.289 204.211C464.382 201.306 465.867 198.694 467.621 196.141C469.633 199.403 470.901 203.141 472.62 206.567C469.623 205.539 466.454 204.522 463.289 204.211Z" fill="#F8B64E"/>
<path d="M460.176 215.927C464.561 214.172 469.54 213.714 474.193 214.352C474.547 215.16 474.711 215.365 474.586 216.225C471.959 218.688 466.406 218.069 463.268 220.218C462.217 218.8 461.178 217.38 460.176 215.927Z" fill="#F8B64E"/>
<path d="M464.059 221.062C465.983 219.795 472.053 217.883 474.359 218.301C474.939 218.406 475.334 218.594 475.831 218.893C475.133 219.461 470.312 219.899 469.143 220.064L469.036 220.481C469.58 220.893 469.743 221.258 470.491 221.105C470.607 221.081 471.148 220.774 471.227 220.734C472.766 219.94 475.163 219.327 476.872 219.831C477.408 219.989 477.398 220.179 477.674 220.613C477.289 222.493 475.08 223.613 473.607 224.641C475.488 226.271 477.472 227.854 479.25 229.593L478.979 229.948C478.789 229.815 478.602 229.677 478.407 229.549C476.106 228.041 474.606 225.808 472.348 224.346C471.634 223.884 471.247 223.914 470.451 224.089C469.785 224.893 469.879 225.338 469.784 226.36C469.67 225.451 469.736 224.957 469.141 224.242C468.304 224.94 468.06 226.56 467.941 227.631C466.545 225.487 465.278 223.311 464.059 221.062Z" fill="#F8B64E"/>
<path d="M454.82 209.973C459.926 209.325 468.307 207.639 472.778 211.021C473.224 211.359 473.622 211.768 474.008 212.172L473.976 212.584C473.203 212.697 472.436 212.802 471.659 212.878C467.96 213.043 462.692 213.242 459.374 214.985C457.908 213.254 456.402 211.599 454.82 209.973Z" fill="#F8B64E"/>
<path d="M421.52 212.014C429.619 207.577 441.313 204.89 450.512 204.946C451.748 206.331 453.038 207.69 454.153 209.176C443.476 211.039 433.784 213.931 424.066 218.76C423.16 216.531 422.255 214.307 421.52 212.014Z" fill="#691106"/>
<path d="M424.52 219.116C432.4 214.248 445.701 211.128 454.818 209.977C456.4 211.603 457.905 213.258 459.371 214.989C447.76 219.223 438.005 224.868 430.048 234.534C429.294 232.812 428.833 230.781 428.208 228.984C427.053 225.668 425.777 222.394 424.52 219.116Z" fill="#691106"/>
<path d="M430.871 234.822C439.614 224.593 448.004 220.755 460.173 215.953C461.176 217.407 462.214 218.826 463.265 220.244C451.794 226.357 443.739 234.185 439.838 246.902C439.284 248.707 438.825 250.523 438.443 252.371C435.722 249.807 431.805 238.741 430.871 234.822Z" fill="#691106"/>
<path d="M477.867 94.7578C480.506 95.4472 483.149 96.219 485.673 97.2584C495.289 101.217 502.718 107.71 506.775 117.342C510.688 108.827 516.633 101.578 525.372 97.5786C527.494 96.6072 529.34 95.953 531.595 96.8252L534.703 98.5864C548.769 108.535 561.477 123.846 564.456 141.188C565.352 146.405 565.578 151.814 567.088 156.905C571.157 170.624 578.45 178.398 576.321 194.213C567.08 194.595 558.465 195.522 549.809 199.079C546.531 189.895 541.963 183.5 533.064 179.045C534.087 182.521 534.875 185.809 535.053 189.436L534.973 190.531C534.624 193.646 533.825 195.394 531.333 197.349C528.587 199.504 525.232 200.759 522.465 202.872C519.024 205.498 516.42 208.974 513.171 211.77C513.174 211.125 513.089 210.481 513.028 209.838C512.988 209.928 512.942 210.016 512.908 210.108C512.693 210.691 512.656 211.293 512.584 211.907L512.193 212.088C511.835 211.89 511.442 211.711 511.119 211.46C511.15 212.568 511.492 214.94 510.875 215.857L510.855 211.778C507.991 208.708 505.134 205.508 501.838 202.892C495.929 198.203 490.22 197.787 487.729 189.598C487.371 186.29 487.136 182.987 487.125 179.659C485.493 179.294 483.736 180.447 482.375 181.318C476.656 184.977 471.588 190.712 467.625 196.16C465.872 198.713 464.386 201.325 463.294 204.231C458.882 203.734 454.277 203.544 449.855 203.92C446.176 200.301 441.63 196.938 436.871 194.883C434.745 193.965 432.543 193.293 430.45 192.283L430.105 192.113C427.36 184.435 435.69 170.566 438.776 163.26C439.801 160.833 440.568 158.383 441.227 155.835C442.547 149.928 442.51 143.831 443.326 137.855C445.316 123.261 456.089 111.643 466.436 101.984C470.001 99.0242 473.608 96.6032 477.867 94.7578Z" fill="#EF9015"/>
<path d="M528.754 137.547L529.037 137.692C529.067 137.836 529.162 137.983 529.127 138.126C528.996 138.655 527.961 139.871 527.636 140.393C525.861 143.242 524.234 146.175 523.579 149.494L523.411 149.607C522.936 148.685 523.461 146.613 523.712 145.585C524.552 142.138 525.58 139.449 528.754 137.547Z" fill="#D1751C"/>
<path d="M535.633 144.579C536.057 143.329 536.3 142.627 537.565 141.99C539.544 140.994 541.93 141.253 543.948 141.986C544.272 142.105 544.593 142.236 544.914 142.361L545.194 142.468C547.071 144.667 549.468 148.382 548.977 151.422C548.879 152.029 548.671 152.389 548.339 152.891C547.849 151.042 547.135 148.735 545.858 147.274C545.387 146.735 545.633 146.899 544.865 146.832C545.5 148.41 545.506 149.951 545.299 151.621L545.247 152.008L544.997 152.068C545.166 150.992 545.3 149.749 545.035 148.681C544.652 147.14 543.479 146.394 542.19 145.659C539.993 144.765 537.971 144.587 535.633 144.579Z" fill="#D1751C"/>
<path d="M538.344 125.677C539.212 125.592 540.093 125.495 540.966 125.479C544.431 125.419 547.781 126.414 550.226 128.965C553.892 132.789 554.277 137.905 554.106 142.895C553.344 139.784 552.802 137.384 550.83 134.78C545.659 130.94 541.426 131.552 535.649 133.318C534.468 133.678 533.13 134.175 531.881 134.061C530.93 133.974 530.651 133.751 530.037 133.052C529.856 132.15 529.743 131.65 530.202 130.789C531.623 128.122 535.654 126.61 538.344 125.677Z" fill="url(#paint1_linear_2_75408)"/>
<path d="M468.301 124.999C469.561 124.89 470.874 124.925 472.127 125.105C475.829 125.637 480.017 127.302 482.151 130.555C482.593 131.229 482.712 131.639 482.554 132.415C479.712 134.916 473.94 132.044 470.725 131.506C469.576 131.313 468.349 131.355 467.187 131.356C462.574 132.267 459.675 134.545 456.547 137.871C457.088 135.767 457.608 133.67 458.699 131.77C460.904 127.928 464.156 126.131 468.301 124.999Z" fill="url(#paint2_linear_2_75408)"/>
<path d="M535.637 144.586C537.975 144.595 539.996 144.772 542.194 145.666C543.482 146.401 544.656 147.147 545.038 148.689C545.303 149.756 545.17 150.999 545.001 152.075L545.251 152.015L545.302 151.628C545.51 149.958 545.504 148.417 544.868 146.839C545.637 146.906 545.39 146.742 545.861 147.281C547.138 148.742 547.852 151.049 548.342 152.898C548.578 155.429 549.141 158.015 548.627 160.541C547.996 163.64 546.336 166.673 543.648 168.432C541.141 170.071 537.852 170.593 534.953 169.854C532.363 169.194 530.316 167.503 528.958 165.228C526.73 161.496 526.355 157.017 527.521 152.874C527.831 151.769 528.188 150.711 529.232 150.118C529.29 150.017 529.369 149.924 529.407 149.814C529.575 149.332 529.564 148.941 529.814 148.449C530.922 146.261 533.487 145.345 535.637 144.586Z" fill="url(#paint3_linear_2_75408)"/>
<path d="M528.495 152.766C529.931 155.666 531.094 158.899 534.522 159.955C536.237 160.483 538.043 160.213 539.593 159.333C542.216 157.846 543.712 155.047 545.374 152.641C545.38 152.744 545.391 152.847 545.392 152.95C545.423 155.861 544.34 158.953 542.206 160.976C540.41 162.677 537.899 163.609 535.425 163.398C533.375 163.224 531.464 162.243 530.164 160.643C528.319 158.374 528.17 155.547 528.495 152.766Z" fill="#95C15C"/>
<path d="M535.633 144.586C537.971 144.595 539.993 144.772 542.19 145.666C543.478 146.401 544.652 147.147 545.034 148.689C545.299 149.756 545.166 150.999 544.997 152.075L545.247 152.015L545.371 152.655C543.709 155.061 542.213 157.86 539.589 159.347C538.039 160.226 536.234 160.497 534.519 159.969C531.091 158.913 529.928 155.68 528.492 152.78L529.228 150.119C529.287 150.017 529.365 149.925 529.404 149.814C529.571 149.332 529.561 148.942 529.81 148.45C530.919 146.261 533.483 145.345 535.633 144.586Z" fill="#260F00"/>
<path d="M542.193 145.641C543.481 146.376 544.655 147.122 545.038 148.663C545.302 149.731 545.169 150.974 545 152.05C544.683 152.424 544.385 152.684 543.979 152.973C543.252 153.492 542.464 153.663 541.588 153.493C540.552 153.291 539.77 152.69 539.228 151.798C538.708 150.942 538.527 149.754 538.846 148.791C539.393 147.136 540.684 146.331 542.193 145.641Z" fill="#FCFAF4"/>
<path d="M460.014 151.074C459.978 149.495 460.734 148.015 461.661 146.766C463.163 144.742 465.582 143.422 468.061 143.066C471.125 142.628 475.106 143.387 477.661 145.238C480.188 146.963 480.986 148.612 482.051 151.423C482.614 154.042 483.2 156.207 482.725 158.94C482.139 162.316 480.139 165.233 477.313 167.147C474.466 169.076 470.875 169.918 467.485 169.233C464.728 168.675 462.333 167.017 460.856 164.619C458.111 160.16 458.892 155.837 460.014 151.074Z" fill="#260F00"/>
<path d="M477.673 145.25C480.199 146.975 480.998 148.624 482.063 151.435L480.999 151.321C480.594 151.871 480.087 152.443 479.755 153.036C479.143 153.17 478.526 153.224 477.901 153.19C476.938 153.139 475.969 152.692 475.41 151.885C474.876 151.117 474.761 150.148 474.904 149.244C475.196 147.404 476.198 146.285 477.673 145.25Z" fill="#FCFAF4"/>
<path d="M466.957 161.311C466.791 160.749 466.919 160.926 466.528 160.532C465.403 159.399 464.525 158.414 463.979 156.881C463.183 154.645 462.977 151.242 463.995 149.062L464.504 149.573L464.079 149.443C464.313 150.704 464.545 151.977 464.846 153.224C465.356 155.332 466.64 157.136 468.542 158.212C470.105 159.096 471.86 159.468 473.606 158.95C476.492 158.092 478.452 155.885 479.873 153.342L479.75 153.063C480.082 152.471 480.59 151.899 480.995 151.348C481.378 154.428 481.183 156.606 479.164 159.119C477.709 160.93 475.274 162.528 472.918 162.755C471.114 162.928 468.37 162.53 466.957 161.311Z" fill="#95C15C"/>
<path d="M460.014 151.087C461.384 148.031 463.523 145.085 466.737 143.766L467.13 143.842C464.49 147.414 461.874 150.012 462.592 154.93C462.955 157.412 464.653 159.684 466.668 161.092C466.761 161.157 466.856 161.22 466.949 161.284C468.362 162.503 471.106 162.9 472.91 162.726C475.266 162.499 477.701 160.902 479.157 159.091C481.176 156.578 481.371 154.4 480.987 151.32L482.051 151.434C482.614 154.054 483.2 156.219 482.725 158.952C482.138 162.328 480.138 165.245 477.313 167.158C474.466 169.087 470.875 169.93 467.484 169.245C464.728 168.687 462.333 167.029 460.856 164.631C458.111 160.173 458.892 155.85 460.014 151.087Z" fill="url(#paint4_linear_2_75408)"/>
<path d="M487.121 179.636C487.993 177.056 488.376 173.265 489.38 170.191C491.467 163.806 494.878 155.67 501.327 152.57C504.863 150.87 509.584 151.081 513.189 152.452C523.397 156.336 529.015 169.694 533.06 179.022C534.083 182.498 534.871 185.786 535.049 189.413L534.969 190.508C534.62 193.623 533.82 195.371 531.329 197.326C528.583 199.481 525.228 200.737 522.461 202.849C519.02 205.475 516.416 208.951 513.167 211.748C513.17 211.102 513.085 210.458 513.024 209.815C512.984 209.905 512.938 209.993 512.904 210.085C512.689 210.668 512.652 211.27 512.58 211.884L512.189 212.065C511.831 211.867 511.438 211.688 511.115 211.437C511.146 212.545 511.488 214.917 510.871 215.834L510.851 211.755C507.987 208.685 505.13 205.485 501.834 202.869C495.925 198.18 490.216 197.764 487.725 189.575C487.367 186.267 487.132 182.964 487.121 179.636Z" fill="#D1751C"/>
<path d="M498.469 188.484L498.896 188.516C503.586 188.892 508.172 190.108 512.889 190.193C520.057 190.324 528.121 187.587 535.058 189.412L534.977 190.507C531.564 190.309 528.86 191.29 525.737 192.491C525.225 191.964 525.165 191.572 524.346 191.689C523.324 191.834 521.964 192.592 520.973 192.962C517.972 194.086 514.846 194.191 511.687 193.777C507.677 193.253 501.03 191.773 498.469 188.484Z" fill="url(#paint5_linear_2_75408)"/>
<path d="M488.844 189.2C491.939 188.231 495.256 188.464 498.46 188.514C501.021 191.802 507.668 193.282 511.679 193.807C514.837 194.221 517.964 194.116 520.965 192.992C521.955 192.622 523.316 191.864 524.337 191.719C525.157 191.602 525.217 191.994 525.729 192.521C521.51 194.034 516.366 195.803 514.402 200.2C513.111 203.09 513.078 206.721 513.024 209.844C512.984 209.934 512.939 210.021 512.905 210.113C512.689 210.697 512.652 211.299 512.58 211.913L512.189 212.094C511.831 211.896 511.438 211.717 511.115 211.465C511.306 207.624 511.683 203.433 510.169 199.79C507.893 194.314 500.124 191.477 494.685 190.463C493.029 190.154 490.896 190.194 489.375 189.472C489.195 189.387 489.02 189.291 488.844 189.2Z" fill="#260F00"/>
<path d="M525.724 192.501C528.847 191.301 531.551 190.32 534.964 190.518C534.616 193.633 533.816 195.38 531.325 197.335C528.579 199.49 525.224 200.746 522.456 202.858C519.016 205.485 516.412 208.96 513.163 211.757C513.166 211.111 513.081 210.467 513.02 209.824C513.074 206.701 513.106 203.071 514.397 200.181C516.362 195.783 521.505 194.014 525.724 192.501Z" fill="#691106"/>
<path d="M487.727 189.575L488.845 189.172C489.022 189.262 489.197 189.358 489.376 189.444C490.897 190.166 493.03 190.126 494.686 190.435C500.125 191.448 507.894 194.285 510.169 199.761C511.684 203.405 511.307 207.596 511.116 211.437C511.147 212.545 511.489 214.917 510.872 215.834L510.852 211.755C507.988 208.685 505.131 205.485 501.835 202.869C495.927 198.18 490.217 197.764 487.727 189.575Z" fill="#691106"/>
<path d="M533.061 179.055C541.961 183.51 546.528 189.905 549.807 199.089C558.463 195.532 567.078 194.605 576.318 194.223C579.613 194.762 582.756 195.442 585.893 196.601C586.431 196.868 587.844 197.354 588.051 197.867C587.038 197.799 585.781 197.131 584.822 196.768C584.904 198.153 584.953 199.545 585.152 200.919C582.799 202.991 582.128 205.941 581.155 208.808C580.72 209.653 580.297 210.507 579.832 211.336C584.187 213.722 588.313 216.27 591.796 219.843C587.597 217.534 584.231 214.226 579.79 212.16C579.611 214.787 579.879 217.545 579.512 220.126C582.206 222.019 584.942 223.939 587.273 226.281C590.749 229.748 594.855 234.623 596.649 239.256L596.302 239.415C592.439 233.042 588.064 227.558 581.872 223.254L582.005 223.787C582.795 226.844 583.919 229.412 584.137 232.668C585.159 247.914 574.948 268.597 567.413 281.786C562.496 290.394 557.067 298.073 550.895 305.801C549.734 307.255 548.215 309.666 546.597 310.593C538.236 320.895 527.014 329.276 516.304 336.958C509.106 327.221 502.566 317.826 493.636 309.51C481.579 298.281 467.647 289.342 456.285 277.301C451.876 272.627 447.887 267.276 444.484 261.821C442.727 259.003 441.185 255.903 439.162 253.274C439.102 253.196 439.041 253.12 438.98 253.044C439.52 250.81 440.125 248.626 440.899 246.461C445.181 234.474 452.629 226.512 464.066 221.07C465.286 223.32 466.553 225.495 467.949 227.639C468.068 226.569 468.312 224.948 469.149 224.251C469.744 224.965 469.678 225.46 469.792 226.369C469.887 225.347 469.793 224.902 470.459 224.098C471.255 223.922 471.642 223.893 472.356 224.355C474.614 225.817 476.114 228.05 478.415 229.558C478.61 229.686 478.797 229.823 478.987 229.956L479.258 229.602C481.563 231.161 484.622 232.338 487.404 232.411C491.753 232.526 506.814 227.725 509.762 224.421C511.354 222.638 510.865 218.188 510.873 215.867C511.491 214.95 511.148 212.578 511.117 211.47C511.44 211.721 511.833 211.9 512.191 212.098L512.582 211.917C512.654 211.303 512.692 210.701 512.907 210.118C512.941 210.026 512.986 209.938 513.026 209.848C513.087 210.491 513.173 211.135 513.17 211.781C516.419 208.984 519.023 205.508 522.463 202.882C525.231 200.77 528.586 199.514 531.332 197.359C533.823 195.404 534.623 193.656 534.971 190.541L535.052 189.446C534.872 185.819 534.084 182.531 533.061 179.055Z" fill="url(#paint6_linear_2_75408)"/>
<path d="M467.957 227.631C468.076 226.56 468.32 224.94 469.157 224.242C469.752 224.956 469.686 225.451 469.8 226.36C470.349 228.408 470.827 230.378 471.916 232.222L470.916 233.512C470.264 231.269 469.384 229.485 467.957 227.631Z" fill="#EF9015"/>
<path d="M580.203 222.125C580.747 222.49 581.387 222.84 581.881 223.262L582.014 223.794C582.804 226.852 583.928 229.419 584.146 232.676C585.167 247.922 574.957 268.605 567.422 281.794C562.504 290.402 557.076 298.081 550.904 305.809C549.743 307.263 548.224 309.674 546.605 310.6C546.61 309.647 557.513 296.405 558.917 294.439C565.802 284.79 572.222 272.481 576.669 261.522C577.024 260.646 577.861 259.969 578.031 259.04C578.153 258.371 577.987 257.586 577.876 256.923C577.452 254.415 577.203 251.91 576.448 249.473L576.262 249.588C574.953 260.924 564.703 275.246 557.489 284.123C557.453 280.587 557.66 277.03 557.488 273.501C556.985 273.725 556.959 273.597 556.839 274.126C556.2 276.921 554.089 283.645 552.847 286.129C553.135 283.948 553.723 281.395 554.681 279.413C555.906 276.877 556.484 274.091 557.708 271.527C558.115 275.295 557.999 279.093 557.864 282.873C564.483 275.308 570.555 265.706 574.034 256.288C575.029 253.595 575.324 250.595 576.415 247.961C576.492 247.775 576.573 247.591 576.652 247.406C576.81 248.13 576.891 248.611 577.241 249.267C577.152 247.551 576.658 245.991 576.178 244.356C576.388 244.107 576.647 243.892 576.808 243.61C577.636 242.156 580.361 224.571 580.203 222.125Z" fill="#8D1F0C"/>
<path d="M471.902 232.227C471.972 232.285 472.044 232.342 472.113 232.403C475.175 235.12 477.723 238.388 480.937 240.99C490.212 248.5 503.831 252.25 515.635 251.766C525.796 251.35 531.085 249.237 537.981 241.671C539.01 240.541 540.109 238.969 541.398 238.151C540.277 242.259 539.173 246.523 537.107 250.275C534.324 255.33 529.872 258.503 524.363 260.058C513.146 263.224 495.558 262.741 485.251 256.805C476.198 251.592 473.513 242.994 470.902 233.517L471.902 232.227Z" fill="#F8B64E"/>
<path d="M533.063 179.055C541.962 183.51 546.53 189.905 549.809 199.089C558.465 195.532 567.08 194.605 576.32 194.223C579.615 194.762 582.758 195.442 585.895 196.601C586.433 196.868 587.846 197.354 588.053 197.867C587.039 197.799 585.782 197.131 584.824 196.768C584.906 198.153 584.954 199.545 585.154 200.919C582.801 202.991 582.13 205.941 581.156 208.808C580.722 209.653 580.299 210.507 579.834 211.336C584.189 213.722 588.315 216.27 591.798 219.843C587.599 217.534 584.233 214.226 579.792 212.16C579.613 214.787 579.881 217.545 579.514 220.126C582.208 222.019 584.944 223.939 587.275 226.281C590.751 229.748 594.857 234.623 596.651 239.256L596.304 239.415C592.44 233.042 588.066 227.558 581.874 223.254C581.38 222.832 580.74 222.482 580.196 222.117C580.354 224.563 577.629 242.149 576.8 243.602C576.639 243.885 576.38 244.1 576.17 244.348C576.65 245.984 577.144 247.544 577.233 249.259C576.883 248.604 576.802 248.122 576.644 247.398C575.799 245.296 574.89 243.222 573.877 241.194C568.588 230.599 560.572 223.838 549.454 220.066C548.096 223.869 546.873 227.77 545.087 231.399C543.893 233.666 542.735 235.963 541.405 238.155C540.116 238.972 539.017 240.545 537.988 241.675C531.092 249.24 525.803 251.354 515.642 251.77C503.838 252.253 490.219 248.504 480.944 240.994C477.73 238.392 475.182 235.124 472.119 232.406C472.051 232.346 471.979 232.289 471.909 232.23C470.821 230.387 470.342 228.417 469.793 226.368C469.888 225.347 469.794 224.902 470.46 224.097C471.256 223.922 471.643 223.892 472.357 224.354C474.615 225.816 476.115 228.049 478.416 229.558C478.611 229.686 478.798 229.823 478.988 229.956L479.259 229.601C481.564 231.161 484.623 232.338 487.405 232.411C491.754 232.525 506.815 227.725 509.763 224.421C511.355 222.638 510.866 218.188 510.874 215.867C511.492 214.95 511.149 212.578 511.118 211.47C511.441 211.721 511.834 211.9 512.192 212.098L512.583 211.917C512.655 211.303 512.692 210.701 512.908 210.117C512.942 210.025 512.987 209.938 513.027 209.848C513.088 210.49 513.174 211.134 513.171 211.78C516.42 208.984 519.024 205.508 522.464 202.882C525.232 200.769 528.587 199.513 531.333 197.359C533.824 195.404 534.624 193.656 534.972 190.541L535.053 189.446C534.874 185.819 534.086 182.531 533.063 179.055Z" fill="#FECB73"/>
<path d="M544.668 217.696C546.93 216.214 548.01 215.254 550.854 215.397L549.648 219.107L544.668 217.696Z" fill="#F8B64E"/>
<path d="M546.932 213.456C548.443 213.27 549.94 212.883 551.426 212.555L551.046 214.702L550.899 214.665C549.576 214.324 548.724 214.433 547.391 214.694C545.753 215.729 544.428 216.832 542.458 216.997L542.219 216.659C543.491 214.912 545.015 214.295 546.932 213.456Z" fill="#F8B64E"/>
<path d="M544.914 207.532C546.627 204.721 548.773 202.32 550.934 199.852C552.328 201.918 552.753 203.618 552.965 206.079C550.327 206.064 547.492 206.957 544.914 207.532Z" fill="#F8B64E"/>
<path d="M544.859 213.164C544.048 213.242 543.99 213.206 543.275 212.807C543.193 212.315 543.051 212.215 543.373 211.78C545.275 209.212 549.623 207.746 552.624 207.242C552.391 208.204 552.211 209.264 551.87 210.188L552.034 211.401C549.691 212.312 547.122 211.99 544.859 213.164Z" fill="#F8B64E"/>
<path d="M544.859 213.178C545.134 212.547 545.371 211.92 545.875 211.428C547.477 209.867 549.829 210.096 551.869 210.202L552.034 211.415C549.691 212.326 547.122 212.004 544.859 213.178Z" fill="#F8B64E"/>
<path d="M542.937 218.281C545.082 219.063 547.228 219.564 549.456 220.049C548.098 223.853 546.876 227.753 545.09 231.382C544.108 227.846 544.771 223.964 542.554 220.781C542.061 221.049 542.265 220.874 541.88 221.448C541.779 221.599 541.684 221.754 541.585 221.908L541.049 221.984L540.879 221.448C541.451 220.299 542.182 219.313 542.937 218.281Z" fill="#F8B64E"/>
<path d="M511.107 211.45C511.43 211.701 511.823 211.88 512.181 212.078L512.572 211.897C512.644 211.283 512.681 210.681 512.897 210.098C512.931 210.006 512.976 209.918 513.016 209.828C513.077 210.471 513.163 211.115 513.16 211.76C512.984 216.04 513.164 220.349 513.357 224.625C521.707 229.641 529.054 233.42 538.917 231.217C534.45 233.698 530.704 234.091 525.788 232.658C520.714 231.179 516.033 228.276 510.912 227.075L510.41 226.954L510.023 227.087C501.623 230.063 492.185 236.844 482.956 232.511C481.541 231.847 480.225 230.869 478.977 229.937L479.248 229.582C481.553 231.141 484.611 232.319 487.394 232.392C491.743 232.506 506.803 227.706 509.752 224.402C511.344 222.619 510.855 218.169 510.863 215.848C511.48 214.93 511.138 212.558 511.107 211.45Z" fill="#691106"/>
<path d="M550.941 199.883C555.967 196.121 569.704 195.233 575.95 195.117C572.614 200.2 568.568 202.857 562.65 204.063C560.252 204.551 556.922 204.705 554.789 205.831L552.972 206.11C552.761 203.649 552.335 201.948 550.941 199.883Z" fill="#EF9015"/>
<path d="M552.629 207.242C561.746 207.603 571.521 207.844 579.797 212.143C579.617 214.77 579.886 217.528 579.519 220.109C571.214 214.976 561.899 211.385 552.039 211.401L551.875 210.188C552.217 209.264 552.396 208.204 552.629 207.242Z" fill="#691106"/>
<path d="M575.947 195.117C578.98 195.321 581.902 195.928 584.821 196.768C584.903 198.153 584.952 199.545 585.151 200.92C582.798 202.991 582.127 205.941 581.154 208.808C580.719 209.654 580.297 210.507 579.831 211.336C574.33 208.361 568.61 207.086 562.421 206.622C559.887 206.431 557.257 206.443 554.785 205.83C556.918 204.705 560.248 204.551 562.646 204.062C568.564 202.856 572.611 200.2 575.947 195.117Z" fill="#691106"/>
<path d="M551.424 212.586C560.745 211.439 572.819 216.791 580.194 222.118C580.351 224.564 577.626 242.149 576.798 243.603C576.637 243.885 576.378 244.101 576.168 244.349C575.707 243.18 575.241 242.007 574.698 240.874C569.436 229.886 560.961 223.131 549.648 219.1L550.855 215.39C553.013 216.001 555.822 217.373 557.977 217.562C557.072 216.287 552.619 215.327 551.043 214.734L551.424 212.586Z" fill="#691106"/>
<path d="M334.044 272.649C339.664 270.01 344.705 266.205 350.037 263.049C355.318 259.922 360.834 257.803 366.66 255.961C359.951 266.3 357.136 277.668 357.237 289.921C354.223 297.052 358.433 313.463 361.324 320.583C367.691 336.269 379.302 350.788 391.939 361.855C408.101 376.009 430.731 388.674 439.714 409.061C447.391 426.486 444.902 445.124 444.35 463.538C443.702 485.119 445.047 511.272 455.208 530.707C455.242 527.191 454.951 523.27 455.401 519.796C455.843 527.588 455.591 535.465 455.721 543.271C455.874 552.501 456.459 561.763 457.087 570.973C457.528 577.448 457.814 584.246 459.364 590.564C446.17 591.493 429.235 592.874 419.959 603.648C418.749 605.052 417.796 606.644 416.655 608.097C411.936 579.379 405.145 551.313 397.508 523.24C395.555 516.063 393.433 508.937 391.279 501.819C390.004 497.604 388.511 493.356 387.541 489.064C370.571 487.373 345.917 480.894 330.386 474.056C330.287 473.998 330.189 473.937 330.088 473.883C325.354 471.327 319.833 469.521 314.889 467.333L291.078 456.729C284.44 453.812 277.495 450.178 270.295 449.053C259.454 447.359 254.014 448.536 243.719 451.276C242.725 452.775 241.703 454.229 241.043 455.913C238.289 460.909 235.578 465.928 232.279 470.593C220.886 486.699 204.918 500.068 190.54 513.408C183.699 519.755 175.353 526.476 170.359 534.399C165.008 542.89 162.593 552.946 160.497 562.643C158.633 575.297 158.02 592.082 162.474 604.19C159.713 605.96 155.027 606.967 153.211 609.823L153.011 609.997C150.447 609.957 141.361 618.521 139.138 620.685C135.518 624.211 131.967 628.04 129.93 632.717C129.798 632.496 129.662 632.275 129.543 632.046C127.511 628.139 126.511 623.445 125.811 619.133C122.978 601.656 120.476 541.256 125.065 525.282C126.735 519.467 131.432 512.918 134.068 507.117C141.404 490.979 146.635 474.532 149.74 457.077C152.435 441.934 153.401 426.418 154.513 411.092C155.129 402.615 155.876 386.86 158.407 378.915C158.684 377.567 158.971 376.237 159.351 374.913C156.796 379.048 154.229 383.199 152.127 387.588C144.087 404.381 139.519 423.636 135.395 441.722C127.533 476.199 123.568 529.75 90.628 550.553C86.1776 553.363 81.6047 555.742 76.4558 556.968C66.4997 559.339 55.5867 558.221 46.8378 552.713C37.457 546.806 31.8534 537.027 29.449 526.383C29.0437 524.589 28.7078 522.749 28.6536 520.907C27.7153 517.785 28.4491 512.97 28.7351 509.757C32.7997 512.101 35.6989 513.164 40.4658 512.283C39.5094 518.101 40.6167 524.541 42.8779 529.947C45.4479 536.09 49.8169 541.186 56.087 543.73C62.4155 546.297 69.4525 545.736 75.6411 543.032C82.9141 539.853 88.4115 534.278 93.2479 528.136C116.985 497.987 116.334 456.812 122.687 420.62C125.4 405.162 129.519 390.24 135.225 375.623C148.096 342.662 174.104 311.463 207.867 298.886C215.265 296.13 223.12 294.456 230.945 293.471C240.412 292.28 249.743 292.564 259.247 292.288C268.314 292.025 277.431 291.151 286.351 289.497C299.068 287.138 311.581 283.08 323.42 277.891C327.036 276.306 330.425 274.232 334.044 272.649Z" fill="#EF9015"/>
<path d="M383.495 446.898L386.633 447.045C387.242 453.943 387.818 460.867 387.648 467.798C387.497 473.964 386.553 480.64 387.135 486.75C386.191 486.571 385.316 486.19 384.418 485.854C382.513 477.509 383.261 469.961 383.518 461.516C383.666 456.646 383.581 451.768 383.495 446.898Z" fill="#B94210"/>
<path d="M362.055 379.594C365.378 382.33 368.037 386.647 370.508 390.151C383.484 408.542 383.906 418.232 386.008 439.675C386.247 442.122 386.475 444.575 386.634 447.028L383.497 446.881L378.968 446.83C379.836 440.406 380.833 433.836 380.543 427.337C379.794 410.617 370.634 393.598 362.055 379.594Z" fill="url(#paint7_linear_2_75408)"/>
<path d="M378.966 446.828L383.495 446.88C383.582 451.749 383.666 456.627 383.518 461.497C383.261 469.942 382.513 477.49 384.419 485.835C380.22 484.773 375.825 484.122 371.566 483.316C374.448 477.154 377.899 454.314 378.765 446.913L378.966 446.828Z" fill="#D1751C"/>
<path d="M160.497 562.671C160.196 562.257 159.929 561.836 159.746 561.354C158.188 557.241 158.239 551.821 158.035 547.428C157.736 541.043 157.68 533.931 160.341 527.977C164.653 518.333 186.393 501.123 195.32 494.541C201.54 489.954 208.149 485.777 214.108 480.853C221.331 474.885 230.747 463.965 236.033 456.194C248.735 437.523 258.127 416.08 265.779 394.886C267.184 390.997 268.571 387.06 269.734 383.091C270.625 380.05 271.144 376.752 272.49 373.875C272.747 374.751 271.493 382.074 271.391 383.974C270.781 395.429 271.034 407.882 274.586 418.861C269.181 418.295 263.618 418.832 258.459 420.585C256.085 426.001 253.967 431.536 251.526 436.92C250.28 439.668 248.18 442.883 247.379 445.707C245.372 446.88 244.647 449.274 243.72 451.305C242.726 452.804 241.703 454.257 241.044 455.941C238.29 460.937 235.579 465.956 232.279 470.621C220.886 486.727 204.918 500.096 190.54 513.436C183.699 519.783 175.353 526.504 170.36 534.428C165.008 542.917 162.593 552.974 160.497 562.671Z" fill="#B94210"/>
<path d="M28.6523 520.918C29.9586 522.83 30.3768 525.497 31.2138 527.665C32.2167 530.265 33.5206 532.769 34.9919 535.133C40.1513 543.418 47.1821 550.601 56.9781 552.831C66.8756 555.083 77.263 551.927 85.6313 546.584C108.638 531.893 119.54 496.838 124.413 471.264C127.522 454.95 128.964 438.393 132.495 422.148C134.632 412.313 137.031 402.358 140.41 392.87C149.37 367.709 164.95 343.995 183.989 325.376C187.762 321.687 191.556 318.261 195.63 314.923C197.335 313.526 198.882 311.946 200.741 310.75C200.909 311.436 199.362 312.646 198.854 313.178C192.579 319.761 186.457 327.306 181.502 334.924C175.126 344.724 169.769 355.305 164.732 365.844C163.329 368.779 160.658 376.172 159.163 378.258C159.049 378.417 158.907 378.554 158.778 378.702L158.718 379.03L158.406 378.926C158.683 377.578 158.97 376.248 159.349 374.924C156.795 379.059 154.228 383.21 152.126 387.599C144.086 404.392 139.518 423.647 135.394 441.733C127.532 476.21 123.567 529.761 90.6266 550.564C86.1763 553.374 81.6034 555.753 76.4544 556.979C66.4984 559.35 55.5854 558.231 46.8365 552.724C37.4557 546.817 31.8521 537.038 29.4477 526.394C29.0421 524.6 28.7065 522.76 28.6523 520.918Z" fill="#B94210"/>
<path d="M258.462 420.558C263.621 418.804 269.184 418.267 274.589 418.833L275.079 418.975C284.418 421.74 293.449 426.229 302.595 429.629C322.083 436.875 342.431 442.364 363.029 445.293C368.191 446.027 373.552 446.799 378.768 446.888C377.902 454.289 374.451 477.129 371.57 483.292C375.828 484.098 380.223 484.749 384.422 485.81C385.32 486.146 386.195 486.528 387.138 486.707L387.545 489.064C370.574 487.373 345.92 480.894 330.389 474.056C330.29 473.998 330.192 473.937 330.092 473.883C325.358 471.327 319.837 469.521 314.893 467.333L291.081 456.729C284.443 453.812 277.499 450.178 270.298 449.053C259.458 447.36 254.018 448.536 243.723 451.276C244.65 449.246 245.376 446.852 247.382 445.679C248.183 442.855 250.283 439.64 251.529 436.892C253.97 431.508 256.088 425.973 258.462 420.558Z" fill="#F8B64E"/>
<path d="M247.382 445.719C252.895 444.101 257.789 443.265 263.532 443.99C272.644 445.14 281.635 449.355 290.045 452.892C304.903 459.142 319.462 466.355 334.443 472.245C346.593 477.021 359.018 479.919 371.57 483.331C375.828 484.138 380.223 484.788 384.422 485.85C385.32 486.186 386.195 486.567 387.138 486.746L387.545 489.104C370.574 487.413 345.92 480.934 330.389 474.095C330.29 474.038 330.192 473.977 330.092 473.922C325.358 471.366 319.837 469.561 314.893 467.373L291.081 456.769C284.443 453.852 277.499 450.218 270.298 449.093C259.458 447.399 254.018 448.576 243.723 451.316C244.65 449.285 245.376 446.891 247.382 445.719Z" fill="#691106"/>
</g>
<defs>
<linearGradient id="paint0_linear_2_75408" x1="460.013" y1="457.437" x2="483.673" y2="20.7646" gradientUnits="userSpaceOnUse">
<stop stop-color="#69180B"/>
<stop offset="1" stop-color="#9E280D"/>
</linearGradient>
<linearGradient id="paint1_linear_2_75408" x1="542.703" y1="125.895" x2="542.058" y2="136.319" gradientUnits="userSpaceOnUse">
<stop stop-color="#301201"/>
<stop offset="1" stop-color="#1D0805"/>
</linearGradient>
<linearGradient id="paint2_linear_2_75408" x1="471.31" y1="125.39" x2="469.475" y2="135.566" gradientUnits="userSpaceOnUse">
<stop stop-color="#2E0B01"/>
<stop offset="1" stop-color="#160505"/>
</linearGradient>
<linearGradient id="paint3_linear_2_75408" x1="543.76" y1="167.426" x2="535.075" y2="151.953" gradientUnits="userSpaceOnUse">
<stop stop-color="#FFFFE0"/>
<stop offset="1" stop-color="#FFFFF7"/>
</linearGradient>
<linearGradient id="paint4_linear_2_75408" x1="464.837" y1="167.525" x2="474.615" y2="149.706" gradientUnits="userSpaceOnUse">
<stop stop-color="#FFFFD4"/>
<stop offset="1" stop-color="#FFFFF2"/>
</linearGradient>
<linearGradient id="paint5_linear_2_75408" x1="517.048" y1="187.118" x2="516.13" y2="193.823" gradientUnits="userSpaceOnUse">
<stop stop-color="#190700"/>
<stop offset="1" stop-color="#5D0D0B"/>
</linearGradient>
<linearGradient id="paint6_linear_2_75408" x1="528.029" y1="213.757" x2="491.601" y2="328.097" gradientUnits="userSpaceOnUse">
<stop stop-color="#4B0100"/>
<stop offset="1" stop-color="#761B0D"/>
</linearGradient>
<linearGradient id="paint7_linear_2_75408" x1="382.649" y1="412.488" x2="370.164" y2="413.725" gradientUnits="userSpaceOnUse">
<stop stop-color="#BE2F06"/>
<stop offset="1" stop-color="#DB540A"/>
</linearGradient>
<clipPath id="clip0_2_75408">
<rect width="668" height="668" fill="white"/>
</clipPath>
</defs>
</svg>
