<svg width="690" height="577" viewBox="0 0 690 577" fill="none" xmlns="http://www.w3.org/2000/svg">
<path d="M604.854 240.581C557.762 359.118 477.501 467.191 361.949 525.741C361.036 526.201 360.124 526.659 359.21 527.114C357.481 527.973 355.744 528.827 354.001 529.672C352.247 530.525 350.498 531.361 348.755 532.182C326.038 542.916 304.214 551.36 283.341 557.861C282.634 558.08 281.929 558.299 281.222 558.516C201.697 582.861 136.152 578.979 88.2041 565.945C58.0848 557.761 34.9096 545.963 19.5716 535.287C11.9975 530.015 6.33456 525.019 2.69142 520.862C1.61977 519.638 0.722028 518.489 0.00146484 517.425C7.03521 517.936 13.7847 517.449 20.1346 516.173C34.2896 513.335 46.4719 506.591 55.4584 498.304C75.3478 479.961 98.9246 452.097 119.816 430.887C120.228 430.466 120.645 430.047 121.059 429.629C121.455 429.229 121.853 428.832 122.251 428.432C156.213 394.385 199.368 358.125 245.962 322.35C281.796 294.83 319.666 267.596 356.945 241.875C403.692 209.622 449.513 179.75 489.235 154.677C489.373 154.588 489.511 154.501 489.648 154.415C491.445 153.283 493.225 152.161 494.996 151.047C504.696 144.908 511.623 140.534 517.762 136.87C518.748 136.281 519.712 135.71 520.666 135.157C537.628 125.254 550.771 119.74 606.378 93.9411C614.836 90.0184 624.676 95.5097 625.738 104.771C628.493 128.808 628.359 148.939 625.804 167.848C622.512 192.212 615.198 214.544 604.854 240.581Z" fill="#6AB72E"/>
<path opacity="0.3" d="M536.38 140.662C527.196 147.263 517.056 152.91 507.47 158.948C485.538 172.549 463.766 186.4 442.155 200.502C400.555 228.105 359.53 256.535 319.079 285.794C287.56 308.353 255.921 330.931 225.516 354.987C214.406 363.808 203.449 372.818 192.647 382.018C181.847 391.219 171.208 400.6 160.729 410.168C150.253 419.733 139.943 429.478 129.802 439.4C119.661 449.322 109.693 459.417 99.9021 469.682C90.7082 479.495 81.8853 489.546 73.0908 499.713C73.0548 499.755 73.0185 499.797 72.9824 499.839C65.9568 507.939 56.1065 513.054 45.4506 514.245C32.4003 515.705 16.2162 517.399 13.7788 517.545C16.0751 517.156 18.1891 516.697 20.1351 516.173C34.29 513.335 46.4723 506.591 55.4588 498.305C75.3483 479.961 98.925 452.097 119.816 430.887C120.228 430.467 120.645 430.047 121.059 429.629C121.455 429.229 121.853 428.832 122.251 428.432C131.538 419.108 141.005 409.971 150.651 401.015C160.71 391.677 170.955 382.548 181.385 373.629C191.816 364.711 202.424 356.009 213.211 347.522C224.004 338.946 234.94 330.595 245.962 322.35C259.701 312.067 273.568 301.96 287.435 291.811C310.372 274.827 333.54 258.185 356.945 241.875C381.685 224.637 406.688 207.774 431.952 191.289C448.733 180.418 465.577 169.642 482.475 158.954C484.746 157.514 487.002 156.086 489.235 154.677C489.373 154.588 489.511 154.501 489.648 154.415C491.431 153.29 493.214 152.169 494.996 151.047C502.535 146.277 510.312 141.785 517.763 136.87C518.664 136.277 519.56 135.676 520.451 135.069C520.523 135.1 520.595 135.127 520.667 135.157C525.851 137.27 531.146 138.752 536.38 140.662Z" fill="white"/>
<path opacity="0.3" d="M604.854 240.582C557.761 359.119 477.5 467.191 361.948 525.742C361.036 526.202 360.124 526.659 359.21 527.114C357.48 527.974 355.744 528.828 354.001 529.672C352.258 530.517 350.51 531.353 348.754 532.183C327.748 542.092 305.82 550.82 283.341 557.861C282.633 558.08 281.929 558.3 281.222 558.516C218.451 577.848 151.466 583.948 88.2036 565.945C84.2386 564.82 80.2903 563.597 76.3585 562.277C61.9949 557.457 37.3644 546.993 19.5711 535.288C12.4303 530.591 6.39005 525.694 2.55713 520.883C2.59947 520.875 2.64408 520.867 2.69096 520.862C5.45098 520.483 13.6864 523.46 17.0294 524.037C20.0119 526.72 74.6142 543.287 120.75 548.601C320.385 571.605 505.012 432.588 589.853 247.064C594.18 237.615 608.721 205.336 612.114 194.175C614.588 186.46 621.111 174.336 625.803 167.849C622.511 192.213 615.198 214.545 604.854 240.582Z" fill="black"/>
<path d="M589.739 125.923C589.739 125.923 557.422 170.126 550.652 178.503C537.753 194.458 524.454 210.061 511.421 225.901C505.116 233.562 498.354 240.822 491.769 248.238C481.186 260.158 470.727 271.997 459.87 283.689C446.554 298.181 432.895 312.342 418.892 326.172C404.889 340.003 390.559 353.483 375.903 366.616C357.38 382.834 338.276 398.335 318.593 413.124C299.764 427.392 280.617 441.158 260.475 453.524C252.458 458.445 244.084 462.793 235.879 467.393C222.854 474.697 209.823 481.728 196.294 488.094C183.082 494.179 169.565 499.486 155.744 504.02C147.956 506.51 139.491 508.271 131.957 511.369C103.024 518.457 72.8704 523.175 43.0843 524.297C34.3828 524.626 25.6832 523.809 17.0298 524.037C13.6299 523.45 5.17218 520.382 2.55759 520.883C1.53307 519.966 0.770923 518.563 0.00146484 517.426C4.16102 516.936 8.59404 516.672 12.7823 516.688C20.2859 516.008 27.8073 515.52 35.3071 514.817C40.1022 514.364 45.2465 513.439 50.0434 513.544C54.0162 513.308 58.2549 512.955 62.1635 512.214C65.5689 507.882 69.4795 503.888 73.0906 499.714C81.8851 489.546 90.708 479.496 99.9019 469.683C109.692 459.417 119.661 449.322 129.802 439.4C139.942 429.478 150.252 419.734 160.729 410.168C171.208 400.601 181.847 391.219 192.647 382.018C203.449 372.818 214.405 363.808 225.516 354.988C255.921 330.931 287.56 308.354 319.079 285.794C359.53 256.535 400.555 228.105 442.155 200.502C463.766 186.401 485.538 172.55 507.469 158.949C517.056 152.91 527.196 147.264 536.38 140.663C542.281 143.815 585.048 129.283 589.739 125.923Z" fill="#4EA32B"/>
<path d="M469.215 198.858C472.079 194.821 475.8 191.473 480.064 188.957C482.874 187.3 485.622 185.9 489.288 185.061C501.998 182.152 513.834 185.387 524.628 192.221C523.987 193.008 523.394 193.832 522.56 194.424C518.464 189.856 506.406 186.957 500.423 186.647C491.335 186.176 482.575 189.156 475.852 195.325C471.413 199.398 467.944 204.753 467.807 210.95C467.696 215.926 469.468 220.845 472.984 224.406C477.72 229.204 484.516 230.928 491.057 231.04C485.947 237.404 480.388 243.541 474.888 249.571C472.975 247.892 471.151 246.198 469.405 244.344C469.086 243.958 468.776 243.565 468.474 243.164C468.173 242.764 467.88 242.358 467.596 241.944C467.313 241.531 467.038 241.113 466.773 240.688C466.508 240.263 466.252 239.832 466.005 239.396C465.759 238.959 465.522 238.518 465.295 238.071C465.068 237.625 464.851 237.173 464.643 236.717C464.436 236.261 464.239 235.801 464.052 235.336C463.865 234.871 463.688 234.402 463.521 233.929C463.355 233.457 463.199 232.981 463.053 232.501C462.907 232.022 462.772 231.54 462.648 231.054C462.523 230.569 462.41 230.081 462.307 229.591C462.204 229.1 462.111 228.607 462.03 228.113C461.949 227.619 461.878 227.123 461.818 226.626C461.758 226.128 461.71 225.63 461.672 225.13C461.634 224.631 461.607 224.13 461.591 223.629C461.575 223.129 461.57 222.628 461.576 222.126C461.684 213.296 464.429 205.601 469.215 198.858Z" fill="#72BE3E"/>
<path d="M163.161 416.072C165.046 414.575 167.059 413.246 169.181 412.108C172.228 410.474 175.214 409.325 178.342 409.396C177.018 409.886 172.18 412.419 169.341 414.234C160.337 419.991 153.149 428.99 150.946 439.594C149.22 447.9 150.603 457.171 155.311 464.302C160.343 471.923 169.481 477.792 178.395 479.608C180.212 479.978 182.057 480.236 183.891 480.505C177.758 483.924 167.987 488.138 161.272 490.057C158.81 487.711 156.338 485.354 154.127 482.767C146.467 473.805 143.2 461.457 144.151 449.824C145.05 438.844 149.582 428.569 157.505 420.858C159.303 419.109 161.233 417.604 163.161 416.072Z" fill="#72BE3E"/>
<path d="M491.058 231.041C484.516 230.929 477.72 229.204 472.985 224.406C469.468 220.845 467.697 215.926 467.807 210.95C467.944 204.753 471.414 199.398 475.852 195.325C482.576 189.156 491.335 186.176 500.423 186.647C506.406 186.957 518.464 189.856 522.56 194.424C516.004 201.981 509.755 209.816 503.161 217.332C499.277 221.76 494.374 226.228 491.058 231.041Z" fill="#9DDB44"/>
<path d="M493.194 191.869C496.496 192.06 499.94 193.155 502.545 195.224C502.875 195.488 503.191 195.767 503.493 196.063C503.794 196.359 504.08 196.669 504.35 196.994C504.62 197.318 504.873 197.656 505.109 198.006C505.345 198.357 505.562 198.718 505.761 199.091C505.96 199.464 506.14 199.845 506.3 200.236C506.46 200.627 506.6 201.025 506.72 201.43C506.84 201.835 506.939 202.245 507.017 202.66C507.095 203.075 507.152 203.493 507.187 203.914C507.533 207.733 505.977 211.122 503.483 213.937C500.763 217.008 497.647 218.747 494.006 219.553C491.653 220.074 489.207 220.064 486.848 219.57C484.202 219.017 481.72 218.025 479.62 216.122C479.315 215.846 479.025 215.555 478.75 215.25C478.475 214.945 478.216 214.627 477.973 214.295C477.73 213.963 477.505 213.62 477.297 213.266C477.089 212.911 476.899 212.547 476.728 212.173C476.558 211.799 476.406 211.418 476.273 211.029C476.141 210.64 476.029 210.245 475.937 209.844C475.845 209.444 475.773 209.039 475.722 208.632C475.671 208.224 475.641 207.814 475.632 207.403C475.511 203.613 477.067 199.974 479.652 197.234C483.249 193.42 488.084 191.945 493.194 191.869Z" fill="#BEED6B"/>
<path d="M412.999 230.213C416.84 228.569 420.922 227.536 425.085 227.167C436.992 226.113 448.347 228.021 458.57 235.347C462.612 238.245 465.622 241.803 468.695 245.673L469.405 244.344C471.151 246.197 472.975 247.892 474.888 249.571C474.292 250.384 473.722 251.256 473.065 252.017C463.454 261.777 454.386 272.111 444.983 282.073C434.701 292.847 424.243 303.447 413.609 313.874C409.866 312.77 406.919 311.713 403.779 309.355C399.739 303.422 394.825 299.005 389.355 294.462C388.914 293.214 388.502 291.968 388.117 290.719C386.014 283.905 385.154 276.76 385.581 269.641C385.974 263.089 387.214 256.733 390.254 250.496C395.229 240.29 403.263 234.378 412.999 230.213Z" fill="#72BE3E"/>
<path d="M469.405 244.344C458.218 230.782 457.975 208.793 475.213 191.873C469.682 191.986 459.705 209.012 460.591 225.25C460.707 227.387 462.598 234.933 462.315 235.944C461.66 236.157 461.937 236.205 461.411 235.935C460.394 235.413 459.584 234.877 458.703 234.149C446.503 224.057 420.018 224.842 418.834 227.972C433.015 225.615 446.572 226.749 458.571 235.348C465.332 240.195 469.909 247.495 473.066 252.018C473.723 251.257 474.293 250.384 474.889 249.571C472.975 247.892 471.151 246.197 469.405 244.344Z" fill="#4EA32B"/>
<path d="M433.631 229.287C435.445 229.385 437.302 229.746 439.096 230.045C450.141 231.882 461.563 241.155 468.051 250.143C469.626 255.646 431.894 293.502 424.459 296C422.719 295.994 421.037 295.805 419.312 295.607C411.272 294.201 403.705 291.744 397.9 285.764C392.127 279.816 389.219 271.61 389.391 263.369C389.564 255.08 393.51 246.898 399.529 241.255C409.158 232.229 420.677 228.862 433.631 229.287Z" fill="#9DDB44"/>
<path d="M421.395 235.4C423.885 235.079 426.417 235.25 428.838 235.911C431.978 236.767 434.918 238.198 437.358 240.479C440.934 243.822 442.741 248.442 442.903 253.291C443.079 258.512 441.249 263.327 437.602 267.083C433.264 271.551 427.981 272.991 421.959 273.137C416.872 272.716 411.872 271.017 408.062 267.509C404.67 264.386 402.842 260.18 402.692 255.588C402.515 250.21 404.773 245.333 408.513 241.55C412.124 237.899 416.552 236.024 421.395 235.4Z" fill="#BEED6B"/>
<path d="M186.543 407.154C195.751 405.86 204.958 407.339 213.895 410.303C215.3 410.769 216.654 411.376 217.953 412.086C220.363 413.404 222.817 414.794 224.95 416.432C232.351 422.115 238.382 431.286 240.942 440.231C241.847 443.395 242.175 446.475 242.26 449.751C229.289 457.942 215.847 464.997 202.119 471.817C196.157 474.779 190.108 478.13 183.891 480.505C182.058 480.235 180.212 479.978 178.395 479.608C169.481 477.791 160.343 471.922 155.311 464.302C150.604 457.17 149.221 447.9 150.947 439.594C153.149 428.989 160.337 419.991 169.341 414.234C170.684 413.375 172.817 412.175 174.712 411.134C178.388 409.116 182.389 407.738 186.543 407.154Z" fill="#9DDB44"/>
<path d="M184.728 415.754C188.85 416.232 193.105 418.006 196.256 420.7C200.055 423.947 202.208 428.505 202.573 433.466C202.6 433.822 202.617 434.178 202.625 434.535C202.634 434.891 202.633 435.248 202.624 435.605C202.615 435.961 202.596 436.317 202.569 436.673C202.542 437.029 202.506 437.384 202.461 437.737C202.416 438.091 202.363 438.444 202.3 438.795C202.238 439.146 202.167 439.496 202.087 439.843C202.007 440.191 201.919 440.536 201.821 440.88C201.724 441.223 201.619 441.563 201.505 441.901C201.391 442.239 201.268 442.574 201.137 442.907C201.007 443.239 200.868 443.567 200.72 443.892C200.573 444.217 200.418 444.538 200.255 444.855C200.092 445.172 199.921 445.485 199.742 445.794C199.563 446.102 199.376 446.406 199.183 446.705C198.989 447.005 198.787 447.3 198.578 447.589C198.37 447.878 198.154 448.162 197.932 448.441C197.708 448.719 197.479 448.992 197.242 449.259C192.705 454.338 187.112 455.935 180.602 456.223C175.398 455.548 170.951 454.117 167.194 450.213C163.302 446.167 161.102 440.379 161.431 434.77C161.762 429.111 164.474 423.931 168.784 420.277C173.55 416.234 178.676 415.163 184.728 415.754Z" fill="#BEED6B"/>
<path d="M385.53 280.333C386.461 285.178 387.711 289.81 389.354 294.462C391.67 302.484 408.886 314.422 413.608 313.874C404.42 324.818 346.712 376.892 342.252 378.96C332.667 374.246 324.725 369.04 318.672 360.004C304.801 339.297 310.386 314.453 318.66 304.753C326.923 295.063 338.26 287.704 351.21 286.75C369.764 285.381 378.725 289.664 379.149 289.812C381.358 290.582 387.886 295.106 388.663 295.267" fill="#9DDB44"/>
<path d="M347.228 297.025C351.695 297.422 356.074 298.491 359.605 301.415C363.698 304.804 365.798 309.914 366.144 315.135C366.527 320.909 364.912 326.593 360.952 330.928C356.936 335.323 351.805 337.4 345.947 337.587C341.047 336.989 336.692 335.431 333.024 332.009C332.785 331.785 332.552 331.555 332.324 331.32C332.097 331.084 331.875 330.844 331.659 330.597C331.444 330.351 331.234 330.1 331.031 329.843C330.827 329.587 330.63 329.325 330.44 329.058C330.25 328.792 330.066 328.521 329.889 328.245C329.712 327.971 329.541 327.691 329.378 327.407C329.215 327.123 329.058 326.835 328.909 326.544C328.76 326.252 328.619 325.957 328.484 325.658C328.35 325.36 328.222 325.059 328.102 324.754C327.983 324.449 327.871 324.141 327.766 323.831C327.662 323.521 327.565 323.208 327.476 322.893C327.387 322.578 327.305 322.261 327.232 321.942C327.158 321.623 327.093 321.302 327.035 320.98C326.978 320.657 326.928 320.334 326.886 320.009C326.844 319.684 326.81 319.359 326.785 319.032C326.759 318.706 326.741 318.379 326.732 318.051C326.566 312.452 329.013 306.591 332.954 302.618C336.933 298.605 341.693 297.043 347.228 297.025Z" fill="#BEED6B"/>
<path d="M311.411 320.348C311.763 318.921 312.399 317.156 312.366 316.742C313.508 311.612 315.167 307.328 318.479 303.446C326.743 293.756 337.461 286.187 350.411 285.232C358.212 284.657 367.407 285.353 374.841 287.915C376.33 288.429 377.639 289.285 379.149 289.812C381.358 290.582 384.467 291.245 386.209 292.899C386.804 293.464 387.886 295.107 388.663 295.267C389.416 294.346 385.594 283.726 385.53 280.333C386.461 285.178 387.711 289.81 389.354 294.462C394.824 299.005 399.739 303.422 403.778 309.355C406.918 311.713 409.865 312.77 413.608 313.874C411.988 315.804 410.46 317.628 408.419 319.136L407.985 319.602C404.631 323.72 400.108 328.041 395.927 331.312C396.685 319.891 394.676 310.105 386.921 301.351C379.915 293.442 371.271 289.948 360.786 289.384C349.112 288.756 337.006 292.818 328.331 300.695C322.454 306.032 318.43 312.843 318.147 320.9C317.799 330.87 322.683 341.173 329.47 348.294C337.123 356.322 347.865 360.373 358.882 360.521C360.511 360.543 362.184 360.48 363.801 360.293C360.764 363.471 345.426 377.489 342.252 378.96C332.668 374.247 324.725 369.041 318.672 360.005C310.42 347.686 308.583 334.702 311.411 320.348Z" fill="#72BE3E"/>
<path d="M409.326 318.414C409.704 318.11 410.174 317.703 410.941 316.899C411.867 315.944 412.726 314.926 413.609 313.874C409.722 313.328 404.753 309.471 401.03 306.446C397.22 302.501 389.107 298.934 385.53 280.333C384.671 283.894 388.38 292.622 387.627 293.543C386.85 293.383 386.805 293.464 386.21 292.899C384.468 291.245 381.056 289.453 378.846 288.683C378.422 288.535 368.966 283.864 350.412 285.232C327.316 286.934 309.87 309.125 311.411 320.348C325.141 276.575 386.963 273.555 407.985 319.602C408.264 319.303 408.484 319.099 408.692 318.923C408.908 318.757 409.12 318.588 409.326 318.414Z" fill="#4EA32B"/>
<path d="M321.817 394.673C304.345 409.649 262.254 437.974 257.523 440.285C227.263 427.745 215.738 394.606 230.094 367.935C254.842 321.934 327.082 338.058 321.817 394.673Z" fill="#72BE3E"/>
<path d="M279.434 344.297C288.407 344.987 297.454 349.224 303.644 355.749C308.925 361.315 312.996 369.63 312.694 377.428C312.276 388.229 306.904 399.753 298.891 406.992C290.156 414.881 279.234 418.667 267.524 418.057C257.735 416.781 248.516 413.486 241.852 405.878C235.822 398.994 232.757 389.29 233.458 380.194C234.27 369.657 239.512 360.37 247.476 353.538C256.626 345.689 267.619 343.343 279.434 344.297Z" fill="#9DDB44"/>
<path d="M262.47 350.562C280.477 348.331 292.574 367.509 282.663 382.709C278.647 388.867 272.512 391.795 265.172 392.226C237.577 391.444 236.114 353.827 262.47 350.562Z" fill="#BEED6B"/>
<path d="M588.824 131.018C575.546 139.473 413.737 385.782 196.293 488.095C157.798 505.822 145.253 505.9 131.956 511.371C64.766 527.83 25.2772 523.82 17.0301 524.038C13.6295 523.451 5.17173 520.382 2.55764 520.883C1.53186 519.968 0.770214 518.563 0 517.426C9.56945 516.296 6.69779 517.501 35.3076 514.816C102.663 508.482 136.417 504.457 202.119 471.818C276.228 435.001 352.44 372.181 363.801 360.294C380.356 349.116 464.687 263.878 491.057 231.041C494.373 226.228 499.277 221.761 503.161 217.332C570.419 140.666 574.829 131.695 583.407 123.97C587.148 120.601 588.824 131.018 588.824 131.018Z" fill="#BEED6B"/>
<path d="M574.92 135.042C558.879 158.345 477.324 257.544 409.193 324.564C330.161 401.931 212.426 490.124 103.165 510.181C92.466 512.145 19.8831 521.082 13.7771 517.545C11.2651 516.09 12.6788 516.94 35.3073 514.816C102.663 508.482 136.417 504.457 202.118 471.818C276.228 435.001 352.44 372.181 363.801 360.294C380.356 349.116 464.687 263.878 491.057 231.041C494.373 226.228 499.276 221.761 503.16 217.332C570.419 140.665 564.154 139.21 574.92 135.042Z" fill="#57AD2F"/>
<path opacity="0.18" d="M588.824 131.017C587.855 138.794 588.136 146.296 589.41 154.023C589.253 154.224 589.093 154.424 588.938 154.628C585.988 158.55 583.665 165.349 581.451 169.874C578.241 176.436 574.661 182.84 571.142 189.241C556.311 216.222 540.242 243.007 522.267 268.019C509.574 285.919 495.954 303.084 481.409 319.515C470.521 331.623 458.71 343.008 446.802 354.101C379.018 417.249 301.042 461.235 213.206 490.238C196.258 495.834 179.104 500.44 161.856 504.982C153.03 507.305 143.914 510.172 134.893 511.514C133.784 511.678 133.049 511.628 131.956 511.37C139.49 508.269 147.955 506.509 155.743 504.019C169.564 499.487 183.081 494.178 196.293 488.094C209.822 481.729 222.854 474.696 235.88 467.393C244.084 462.793 252.457 458.444 260.474 453.523C280.617 441.157 299.764 427.392 318.594 413.124C338.276 398.335 357.379 382.833 375.902 366.616C390.559 353.483 404.889 340.001 418.892 326.172C432.895 312.342 446.554 298.181 459.869 283.688C470.726 271.998 481.186 260.157 491.768 248.238C498.353 240.821 505.116 233.562 511.42 225.9C524.454 210.061 539.86 190.155 552.758 174.198C559.528 165.822 564.108 161.684 570.712 153.177C574.777 147.96 583.935 134.13 588.824 131.017Z" fill="white"/>
<path d="M690 194.484C686.259 199.027 681.658 202.022 676.555 203.767C676.427 203.811 676.3 203.853 676.173 203.893C670.125 205.883 663.396 206.148 656.565 205.186C656.402 205.164 656.24 205.141 656.076 205.116C655.761 205.069 655.448 205.021 655.134 204.97C635.796 201.786 622.776 190.202 611.714 174.742C594.986 199.697 602.538 208.121 604.925 213.252C600.475 216.231 580.877 199.835 583.477 162.283C583.422 161.512 584.767 160.154 585.335 159.553C580.768 163.336 574.403 167.57 567.796 170.871C567.58 170.977 567.362 171.086 567.147 171.192C566.93 171.298 566.712 171.404 566.498 171.508C566.319 171.593 566.141 171.677 565.964 171.759C565.463 171.996 564.963 172.227 564.463 172.446C563.992 172.657 563.52 172.86 563.049 173.058C559.986 174.339 556.949 175.354 554.091 175.962C553.871 176.009 553.651 176.053 553.432 176.095C553.239 176.131 553.046 176.167 552.854 176.2C552.662 176.231 552.47 176.262 552.28 176.294C551.899 176.354 551.523 176.405 551.153 176.444C550.968 176.466 550.783 176.483 550.601 176.5C549.869 176.567 549.152 176.6 548.455 176.593C547.571 176.588 542.16 175.565 541.717 176.194C541.774 176.115 541.833 176.025 541.898 175.929C541.925 175.887 541.953 175.846 541.981 175.802C545.382 170.552 555.898 148.042 559.227 140.852C559.228 140.849 559.228 140.847 559.231 140.844C559.286 140.729 559.339 140.615 559.388 140.506C559.389 140.503 559.392 140.501 559.392 140.501C559.468 140.338 559.539 140.181 559.607 140.037C559.628 139.989 559.651 139.942 559.672 139.894C559.697 139.84 559.721 139.788 559.745 139.738C559.778 139.662 559.814 139.589 559.846 139.523C559.878 139.454 559.907 139.39 559.935 139.328C559.972 139.245 560.008 139.169 560.04 139.101C560.082 139.011 560.118 138.933 560.149 138.869C560.218 138.717 560.255 138.639 560.255 138.637C560.408 138.341 560.563 138.05 560.717 137.762C560.795 137.619 560.871 137.476 560.949 137.334C561.158 136.95 561.357 136.593 561.547 136.257C561.66 136.062 561.769 135.871 561.879 135.68C561.991 135.484 562.104 135.291 562.215 135.103C562.287 134.985 562.352 134.871 562.419 134.762C562.459 134.697 562.498 134.632 562.537 134.568C563.249 133.396 563.675 132.788 563.679 132.764C563.674 132.763 563.636 132.81 563.559 132.901C563.558 132.904 563.558 132.904 563.555 132.906C563.323 133.188 562.757 133.894 561.776 135.028C541.668 148.279 509.637 147.398 497.266 135.839C511.301 137.435 524.296 128.947 530.295 121.009C516.153 116.449 503.517 109.81 495.363 96.8493C495.267 96.6948 495.171 96.5403 495.077 96.386C494.978 96.2207 494.878 96.0579 494.778 95.8926C494.681 95.7278 494.586 95.5632 494.491 95.4011C493.957 94.4736 493.473 93.5519 493.034 92.6333C492.987 92.5332 492.941 92.4332 492.895 92.3306C492.754 92.0304 492.621 91.7315 492.491 91.4331C492.429 91.2869 492.367 91.141 492.305 90.9948C492.238 90.8325 492.171 90.6702 492.107 90.5084C492.043 90.3466 491.979 90.1823 491.917 90.0207C491.855 89.8591 491.793 89.6978 491.734 89.5343C491.68 89.3846 491.625 89.2318 491.571 89.0819C491.568 89.071 491.565 89.0602 491.561 89.0494C491.505 88.8863 491.451 88.726 491.397 88.5634C491.343 88.4009 491.291 88.2411 491.239 88.0788C491.143 87.7758 491.054 87.4744 490.967 87.1707C490.958 87.1334 490.947 87.0956 490.938 87.0583C490.87 86.8164 490.804 86.5726 490.741 86.3289C490.73 86.2886 490.719 86.246 490.709 86.2032C490.599 85.7702 490.499 85.3362 490.41 84.9017C490.377 84.7502 490.349 84.5997 490.318 84.4488C490.2 83.8429 490.101 83.238 490.018 82.6331C489.975 82.3181 489.937 82.0035 489.904 81.6892C489.881 81.4853 489.864 81.2817 489.846 81.0778C489.838 80.9898 489.828 80.9024 489.821 80.8144C489.818 80.7872 489.817 80.7602 489.815 80.7333C489.687 79.1306 489.674 77.5251 489.76 75.9129C489.76 75.9078 489.76 75.9025 489.761 75.8975C489.917 72.986 490.4 70.0503 491.131 67.0602C491.134 67.0453 491.138 67.0307 491.141 67.0159C491.253 66.5622 491.367 66.1075 491.49 65.6511C491.566 65.3701 491.642 65.0865 491.722 64.8035C491.735 64.7571 491.748 64.7108 491.761 64.6644C491.949 63.996 492.148 63.3268 492.358 62.6519C492.651 61.7201 492.959 60.7833 493.285 59.8367C493.192 67.1515 493.973 73.1329 499.364 78.6885C501.64 81.0314 504.197 82.8985 506.966 84.3643C507.189 84.4818 507.412 84.5967 507.638 84.7094C513.313 87.5467 519.819 88.7472 526.553 88.9175C527.182 88.9332 527.812 88.9412 528.444 88.9395C529.071 88.9367 529.699 88.9291 530.329 88.909C530.64 88.9009 530.95 88.8926 531.262 88.8795C531.45 88.8709 531.638 88.8646 531.827 88.8533C532.391 88.8271 532.959 88.7966 533.526 88.7555C533.544 88.756 533.564 88.7545 533.583 88.7525C534.149 88.7139 534.719 88.6683 535.285 88.6194C552.505 87.0911 569.5 80.6279 576.463 78.935C576.594 78.9012 576.719 78.8715 576.841 78.8438C576.977 78.8133 577.11 78.7848 577.238 78.7556C577.441 78.7137 577.632 78.6749 577.811 78.6442C578.106 78.5925 578.401 78.5456 578.694 78.5063C584.162 77.7059 589.461 78.3876 594.514 80.0883C600.748 82.1827 606.606 85.8291 611.94 90.1581C611.97 90.1349 612.001 90.1147 612.031 90.0918C641.395 68.6032 662.627 39.7421 669.886 20.7945C671.425 16.7775 674.838 3.28292 676.824 1.06074C678.931 -1.29703 686.876 0.732594 688.592 3.36055C690.537 6.33983 679.178 45.8854 635.472 88.3061C631.336 92.321 627.205 96.7205 622.744 100.35C622.717 100.373 622.688 100.394 622.661 100.418C623.211 100.906 623.75 101.391 624.271 101.872C624.314 101.915 624.361 101.956 624.405 101.997C633.23 110.135 638.119 117.116 640.838 123.477C640.849 123.5 640.858 123.524 640.869 123.547C643.46 129.638 644.069 135.166 644.25 140.607C644.388 144.628 644.291 148.6 644.589 152.719C644.609 153.004 644.632 153.289 644.659 153.58C644.754 155.158 644.889 156.736 645.089 158.312C646.224 167.254 649.327 175.729 653.692 183.592C653.709 183.623 653.727 183.657 653.747 183.688C654.603 185.292 655.512 186.836 656.47 188.292C657 189.093 657.545 189.869 658.105 190.614C658.107 190.617 658.111 190.623 658.114 190.626C661.405 195.004 665.212 198.32 669.443 199.732C669.581 199.778 669.719 199.822 669.86 199.864C669.92 199.885 669.983 199.903 670.045 199.919C670.176 199.959 670.31 199.995 670.445 200.031C677.699 201.907 684.02 197.946 690 194.484Z" fill="#71B131"/>
<path d="M611.939 90.1584C632.406 75.2 653.39 53.0203 665.314 30.5057C666.976 27.3663 668.614 24.1103 669.884 20.7946C671.424 16.7769 674.839 3.28228 676.823 1.05909C678.017 -0.276686 680.477 -0.0755631 682.072 0.20747C684.137 0.573423 687.369 1.48805 688.591 3.35915C689.555 4.83581 688.256 8.269 687.759 9.84169C678.081 40.4675 658.307 66.1409 635.472 88.3042C631.31 92.3453 625.534 98.9261 625.193 103.895L616.373 102.386C613.745 98.5751 607.789 95.0415 611.939 90.1584Z" fill="#6AB72E"/>
<path opacity="0.05" d="M690 194.484C688.442 196.376 686.731 198.126 684.751 199.577C682.234 201.425 679.467 202.798 676.555 203.767C676.427 203.811 676.3 203.854 676.173 203.893C669.924 205.897 663.041 206.085 656.565 205.187C656.403 205.164 656.24 205.141 656.076 205.116C655.762 205.07 655.448 205.021 655.134 204.97C635.796 201.786 622.777 190.203 611.714 174.742C607.863 166.438 603.558 159.151 600.988 150.247C602.755 148.397 606.239 142.825 608.145 142.014C607.912 147.108 611.028 153.453 614.802 159.116C614.83 159.162 614.86 159.208 614.891 159.251C616.955 162.328 619.207 165.198 621.216 167.549C621.216 167.549 621.219 167.55 621.218 167.552C621.225 167.559 621.231 167.567 621.238 167.573C621.934 168.388 622.599 169.138 623.217 169.812C627.923 174.949 633.745 179.578 640.099 183.199C640.164 183.236 640.229 183.275 640.296 183.313C640.42 183.382 640.543 183.455 640.67 183.522C645.315 186.112 650.234 188.161 655.199 189.478C655.598 189.582 656 189.685 656.401 189.781C656.798 189.877 657.2 189.969 657.601 190.056C657.769 190.24 657.937 190.428 658.104 190.615C658.106 190.618 658.11 190.623 658.112 190.626C661.403 195.004 665.211 198.32 669.441 199.732C669.579 199.778 669.717 199.823 669.858 199.865C669.919 199.885 669.982 199.904 670.043 199.919C670.175 199.96 670.309 199.995 670.444 200.031C677.699 201.907 684.02 197.946 690 194.484Z" fill="black"/>
<path d="M583.72 160.85C585.029 158.067 595.925 150.106 598.794 146.792C605.079 139.533 609.896 131.274 614.36 122.826C617.595 116.702 617.982 109.163 619.76 102.533C620.015 101.586 620.151 100.875 621.033 100.375L621.69 100.8C622.505 113.572 620.022 124.143 613.31 135.011C612.001 137.129 610.696 139.623 608.994 141.44C608.649 141.81 608.686 141.722 608.144 142.014C606.634 143.939 602.754 148.396 600.989 150.249C603.56 159.15 607.863 166.439 611.714 174.743C608.588 179.407 605.485 184.312 603.523 189.596C601.549 194.912 600.444 202.592 602.4 208.068C603.029 209.827 604.133 211.549 604.926 213.252L604.494 213.541C600.803 213.227 597.285 210.358 594.958 207.657C584.702 195.754 582.434 177.348 583.476 162.284L583.72 160.85Z" fill="#3B990A"/>
<path d="M533.654 117.933C533.883 118.203 539.065 117.692 541.322 118.075C552.341 119.942 569.697 114.542 570.994 121.845C568.486 126.516 565 132.304 561.528 136.306C548.467 144.913 529.643 146.667 514.401 143.591C511.974 143.101 509.356 142.558 507.084 141.554C503.401 140.137 500.161 138.543 497.266 135.838C499.815 136.128 502.22 136.256 504.773 135.919C514.123 134.687 524.62 128.517 530.295 121.009L533.654 117.933Z" fill="#6AB72E"/>
<path d="M657.601 190.055C657.199 189.968 656.799 189.876 656.401 189.78C650.62 188.4 645.226 186.137 640.297 183.312C640.229 183.275 640.164 183.236 640.099 183.199C632.66 178.901 626.278 173.324 621.218 167.552C621.219 167.549 621.216 167.549 621.216 167.549C618.794 164.787 616.677 161.98 614.891 159.251C614.86 159.207 614.83 159.161 614.802 159.115C610.38 152.324 608.013 146.01 608.145 142.013C618.905 129.193 622.65 115.85 621.689 100.801C618.558 98.7746 619.047 113.955 614.359 122.825C605.028 140.49 598.974 147.925 586.326 158.72C581.736 162.639 574.923 167.293 567.796 170.87C567.581 170.977 567.363 171.085 567.148 171.192C566.93 171.298 566.712 171.404 566.498 171.508C566.32 171.592 566.142 171.677 565.964 171.759C565.463 171.995 564.963 172.227 564.463 172.446C560.701 174.126 556.932 175.427 553.432 176.094C553.239 176.13 553.046 176.166 552.854 176.199C552.662 176.23 552.47 176.262 552.281 176.293C551.9 176.353 551.523 176.404 551.153 176.443C550.968 176.465 550.783 176.482 550.602 176.499C549.869 176.566 549.153 176.599 548.456 176.592C547.572 176.587 542.16 175.564 541.717 176.194C541.775 176.114 541.833 176.024 541.898 175.928C545.183 170.926 556.914 145.822 559.673 139.894C559.697 139.839 559.722 139.787 559.746 139.738C559.815 139.586 559.879 139.448 559.936 139.328C559.973 139.245 560.009 139.169 560.041 139.1C560.082 139.01 560.119 138.932 560.15 138.869C560.219 138.717 560.256 138.639 560.256 138.636C560.409 138.34 560.564 138.049 560.718 137.761C560.796 137.619 560.872 137.476 560.95 137.333C561.259 136.767 561.571 136.215 561.88 135.679C561.992 135.484 562.105 135.291 562.216 135.103C562.286 134.984 562.354 134.872 562.42 134.762C562.801 134.121 563.181 133.499 563.556 132.905C563.559 132.903 563.559 132.903 563.559 132.901C567.416 126.795 570.796 123.18 570.863 122.031C570.84 122.029 570.817 122.028 570.794 122.029C570.721 122.024 570.641 122.028 570.55 122.036C568.08 122.289 559.433 126.59 542.179 124.303C539.491 123.947 532.642 122.282 530.461 121.039L530.295 121.008C516.153 116.448 503.517 109.809 495.364 96.8488C495.267 96.6943 495.171 96.5398 495.077 96.3856C494.978 96.2202 494.878 96.0574 494.778 95.8921C494.681 95.7272 494.587 95.5627 494.492 95.4006C493.957 94.4731 493.473 93.5514 493.035 92.6328C492.988 92.5327 492.941 92.4327 492.895 92.3301C492.754 92.0299 492.621 91.731 492.491 91.4326C492.429 91.2864 492.367 91.1405 492.305 90.9943C492.238 90.832 492.172 90.6697 492.107 90.5079C492.043 90.3461 491.979 90.1818 491.917 90.0202C491.855 89.8587 491.793 89.6973 491.734 89.5338C491.681 89.3841 491.625 89.2313 491.571 89.0814C491.568 89.0705 491.565 89.0597 491.562 89.0489C491.505 88.8858 491.451 88.7255 491.397 88.5629C491.343 88.4004 491.291 88.2406 491.239 88.0783C490.475 85.654 490.019 83.2413 489.821 80.8142C489.815 80.7544 489.81 80.6947 489.808 80.6355C489.566 77.4924 489.76 74.3372 490.295 71.1225C490.638 69.0435 491.123 66.9428 491.722 64.8028C491.735 64.7564 491.748 64.71 491.761 64.6636C491.949 63.9978 492.151 63.3266 492.358 62.6511C492.651 61.7194 492.959 60.7826 493.285 59.8359C493.192 67.1507 493.973 73.1322 499.364 78.6878C501.64 81.0307 504.197 82.8977 506.966 84.3636C513.317 87.7181 520.774 88.9533 528.444 88.9387C529.071 88.936 529.699 88.9284 530.329 88.9082C530.64 88.9002 530.95 88.8918 531.262 88.8787C531.45 88.8702 531.638 88.8639 531.827 88.8525C532.391 88.8263 532.959 88.7958 533.526 88.7547C533.544 88.7552 533.565 88.7537 533.583 88.7517C551.753 87.5089 570.025 80.423 576.841 78.843C576.977 78.8125 577.11 78.7841 577.238 78.7548C577.442 78.713 577.632 78.6742 577.812 78.6434C578.107 78.5917 578.401 78.5449 578.694 78.5056C584.04 77.7328 589.412 78.4241 594.515 80.0876C599.415 81.6804 604.065 84.1662 608.199 87.1135C609.505 88.0453 610.783 89.0463 612.031 90.091C614.318 91.9987 616.517 94.0472 618.65 96.0614C620.087 97.4171 621.38 98.9218 622.744 100.349C623.24 100.871 623.745 101.382 624.27 101.871C624.314 101.914 624.361 101.955 624.405 101.996C624.491 102.077 624.579 102.157 624.668 102.236C626.764 104.108 628.742 106.145 630.634 108.222C633.707 111.591 636.527 115.224 638.766 119.205C639.55 120.6 640.239 122.024 640.837 123.477C640.849 123.499 640.857 123.523 640.869 123.546C642.82 128.283 643.827 133.303 644.144 138.489C644.187 139.195 644.222 139.901 644.25 140.607C644.433 144.933 644.398 149.262 644.659 153.579C644.754 155.158 644.888 156.735 645.089 158.311C646.223 167.253 649.327 175.728 653.691 183.591C653.709 183.623 653.726 183.656 653.747 183.688C654.613 185.245 655.524 186.779 656.47 188.291C656.843 188.882 657.218 189.47 657.601 190.055Z" fill="#AEE143"/>
<path opacity="0.62" d="M610.042 90.1452C609.237 91.8767 596.579 98.5299 594.08 100.299C589.268 103.707 585.053 107.655 580.973 111.897C579.141 113.803 577.361 115.999 575.374 117.722C573.934 119.112 572.514 120.539 570.994 121.844C570.927 121.907 570.86 121.969 570.794 122.029C570.72 122.025 570.64 122.029 570.549 122.036C568.08 122.289 559.432 126.59 542.178 124.303C539.49 123.948 532.641 122.282 530.461 121.04L530.295 121.009C516.153 116.449 503.517 109.809 495.363 96.8491C495.267 96.6946 495.171 96.5401 495.077 96.3858C492.146 91.5808 490.333 86.2742 489.82 80.8144C489.815 80.7547 489.81 80.695 489.807 80.6358C489.524 77.4909 489.677 74.3004 490.295 71.1227C490.371 70.719 490.458 70.317 490.55 69.916C490.64 70.1181 490.74 70.3142 490.823 70.5176C491.902 73.1186 491.677 77.882 492.8 81.1375C497.114 93.6301 511.092 101.555 522.354 106.839C535.67 113.089 554.881 118.836 569.367 113.229C575.008 111.047 578.623 105.565 583.287 101.916C590.824 96.0282 599.359 92.6275 608.324 89.6906C608.935 89.4904 609.608 89.6696 610.042 90.1452Z" fill="black"/>
<path d="M575.374 117.723C573.935 119.113 572.514 120.54 570.995 121.845C570.845 121.911 570.696 121.975 570.55 122.037C568.08 122.29 559.433 126.591 542.179 124.304C539.491 123.949 532.642 122.283 530.461 121.041C534.5 120.925 545.802 124.842 562.952 120.911C566.688 120.052 571.401 119.472 575.374 117.723Z" fill="#3B990A"/>
</svg>
