<svg width="612" height="612" viewBox="0 0 612 612" fill="none" xmlns="http://www.w3.org/2000/svg">
<mask id="mask0_17_105060" style="mask-type:luminance" maskUnits="userSpaceOnUse" x="0" y="0" width="612" height="612">
<path d="M611.702 0H0V611.702H611.702V0Z" fill="white"/>
</mask>
<g mask="url(#mask0_17_105060)">
<path d="M474.037 503.479C473.91 512.926 469.764 519.184 463.107 525.575C455.367 533.004 444.765 538.305 434.923 542.377C415.807 550.283 395.115 554.977 374.697 557.951C346.355 562.079 317.639 563.301 289.022 562.449C252.933 561.375 215.191 556.859 181.37 543.655C168.928 538.798 156.22 532.522 146.949 522.671C142.693 518.15 139.866 513.189 138.371 507.161L138.964 506.76C140.486 507.742 141.567 510.152 142.688 511.643C144.619 514.21 147.106 516.818 149.614 518.83C162.647 529.28 177.743 535.176 193.546 540.078C212.181 545.86 231.388 549.214 250.743 551.419C281.285 554.9 311.952 555.186 342.588 552.853C376.552 550.265 411.781 544.66 442.945 530.377C449.977 527.154 456.812 523.45 462.712 518.384C465.954 515.601 469.195 512.475 471.213 508.672C472.103 506.993 472.56 505.159 473.821 503.718L474.037 503.479Z" fill="#762A20"/>
<path d="M141.368 488.284C141.583 488.828 141.765 489.332 141.927 489.894C145.129 501.003 155.519 508.959 165.3 514.143C189.973 527.222 216.646 532.516 244.023 536.366C269.799 539.99 296.157 541.374 322.171 540.507L348.114 538.761L384.697 533.921C387.076 533.498 389.548 533.219 391.876 532.555C394.91 531.69 398.139 531.459 401.187 530.627C402.506 530.267 403.892 530.144 405.22 529.826L420.542 525.495C434.818 521.135 450.019 514.872 461.651 505.347C464.444 503.06 467.1 500.793 469.297 497.895C469.973 497.003 471.623 494.382 472.519 494.023C473.344 497.165 474.053 500.214 474.037 503.479L473.822 503.718C472.561 505.159 472.103 506.994 471.213 508.672C469.196 512.476 465.954 515.601 462.712 518.384C456.812 523.45 449.977 527.155 442.946 530.377C411.782 544.66 376.552 550.266 342.588 552.853C311.952 555.186 281.285 554.9 250.743 551.42C231.388 549.214 212.182 545.861 193.546 540.079C177.744 535.176 162.647 529.281 149.614 518.83C147.106 516.818 144.619 514.21 142.688 511.643C141.567 510.152 140.487 507.742 138.964 506.76L138.371 507.161L138.316 507.013C136.791 500.352 138.327 494.237 141.368 488.284Z" fill="#934329"/>
<path d="M142.637 485.923C182.908 510.431 227.823 522.1 274.548 525.9C314.859 529.177 355.084 526.377 394.431 516.87C412.219 512.572 429.337 506.447 445.729 498.305L459.208 491.385C462.338 489.7 465.507 487.786 468.731 486.303C470.257 488.825 471.543 491.238 472.519 494.023C471.623 494.382 469.973 497.003 469.297 497.895C467.1 500.793 464.444 503.06 461.651 505.347C450.019 514.872 434.818 521.135 420.542 525.495L405.22 529.826C403.892 530.144 402.506 530.267 401.187 530.627C398.139 531.459 394.91 531.69 391.876 532.555C389.548 533.219 387.076 533.498 384.697 533.921L348.114 538.761L322.171 540.507C296.157 541.374 269.799 539.99 244.023 536.366C216.646 532.516 189.973 527.222 165.3 514.143C155.519 508.959 145.129 501.003 141.927 489.894C141.766 489.332 141.583 488.828 141.368 488.284L142.637 485.923Z" fill="#762A20"/>
<path d="M417.47 433.498C424.869 432.863 432.5 431.223 439.82 429.901C472.567 423.989 504.559 414.845 533.933 398.874C539.613 395.785 545.112 392.324 550.393 388.597C552.851 386.862 555.307 384.559 557.872 383.09L558.297 382.853C556.512 388.511 554.425 394.133 551.952 399.53C550.922 401.776 549.941 404.22 548.583 406.278C545.837 412.16 542.295 417.715 538.459 422.938C537.033 424.878 535.647 426.933 534.027 428.717C524.507 441.338 513.47 453.535 501.267 463.624C491.021 472.095 479.936 479.204 468.731 486.304C465.508 487.786 462.339 489.7 459.208 491.385L445.729 498.305C429.337 506.447 412.22 512.572 394.431 516.87C355.084 526.377 314.859 529.177 274.548 525.9C227.823 522.101 182.908 510.431 142.637 485.923L132.521 479.583C131.75 479.325 130.806 478.522 130.113 478.062L123.883 473.745C105.981 460.668 90.6466 445.596 77.5129 427.713C74.7662 424.248 72.4574 420.341 70.1862 416.552C68.222 413.275 66.2107 410.03 64.6104 406.552C65.0387 406.6 65.3427 406.676 65.6904 406.944C71.3074 411.276 76.7082 415.426 82.7356 419.217C92.7773 425.532 104.038 430.645 115.055 434.963C133.897 442.348 153.503 447.387 173.305 451.401C197.223 456.25 221.11 459.395 245.445 461.109C245.923 460.847 246.319 460.622 246.866 460.533C256.287 458.996 265.712 457.081 274.891 454.436C285.011 451.52 295.098 447.634 304.905 443.789C306.166 443.295 307.375 443.061 307.94 441.777L309.406 441.721L415.549 433.856L415.558 433.836L417.47 433.498Z" fill="#E26A18"/>
<path d="M386.673 460.037L422.059 454.685C454.627 448.999 487.813 441.575 517.389 426.251C524.585 422.522 531.482 418.241 538.144 413.632C541.515 411.302 544.731 408.37 548.31 406.422L548.583 406.278C545.837 412.16 542.295 417.715 538.459 422.938C537.033 424.878 535.647 426.933 534.027 428.717L533.779 428.82C530.288 430.325 527.018 432.807 523.694 434.688C516.687 438.656 509.372 442.455 501.941 445.553C477.084 455.919 451.272 461.802 424.906 466.807C402.058 471.144 379.036 474.698 355.773 475.592L355.636 475.412C357.526 473.774 361.292 472.551 363.65 471.462C370.926 468.105 378.915 464.927 385.448 460.27L386.673 460.037Z" fill="#762A20"/>
<path d="M417.47 433.498C424.869 432.863 432.5 431.223 439.82 429.901C472.567 423.989 504.559 414.845 533.933 398.874C539.613 395.785 545.112 392.324 550.393 388.597C552.851 386.862 555.307 384.559 557.872 383.09L558.297 382.853C556.512 388.511 554.425 394.133 551.952 399.53C550.922 401.776 549.941 404.22 548.583 406.278L548.31 406.422C544.731 408.37 541.515 411.301 538.144 413.632C531.482 418.24 524.585 422.522 517.389 426.251C487.813 441.575 454.627 448.999 422.059 454.685L386.673 460.037C387.866 458.718 389.55 457.717 390.975 456.648C398.6 450.921 405.968 444.752 412.499 437.79C413.457 436.768 415.349 435.255 415.549 433.855L415.558 433.836L417.47 433.498Z" fill="#EC9434"/>
<path d="M64.6104 406.552C65.0387 406.599 65.3427 406.676 65.6904 406.944C71.3074 411.276 76.7082 415.426 82.7356 419.217C92.7773 425.532 104.038 430.645 115.055 434.963C133.897 442.348 153.503 447.387 173.305 451.401C197.223 456.25 221.11 459.395 245.445 461.109C245.923 460.847 246.319 460.622 246.866 460.533C256.287 458.996 265.712 457.081 274.891 454.436C285.011 451.52 295.098 447.634 304.905 443.788C306.166 443.294 307.375 443.061 307.94 441.776L309.406 441.721L415.549 433.855C415.348 435.254 413.457 436.768 412.498 437.79C405.968 444.752 398.6 450.921 390.975 456.648C389.55 457.717 387.866 458.718 386.673 460.037L385.448 460.269C378.915 464.927 370.926 468.104 363.65 471.461C361.292 472.55 357.526 473.774 355.636 475.412L355.773 475.591L354.037 475.771C351.785 477.439 348.764 478.356 346.172 479.404L334.225 484.177C294.037 499.424 250.439 505.827 207.74 499.493C197.236 497.935 186.7 496.077 176.414 493.42C166.026 490.738 156.045 487.294 145.96 483.689L136.535 479.951C136.041 479.756 134.182 478.888 133.779 478.937C133.488 478.973 132.811 479.421 132.521 479.583C131.749 479.324 130.806 478.522 130.113 478.062L123.883 473.745C105.981 460.668 90.6464 445.596 77.5128 427.713C74.7661 424.248 72.4572 420.341 70.186 416.552C68.222 413.274 66.2107 410.029 64.6104 406.552Z" fill="#934329"/>
<path d="M309.406 441.721L415.549 433.855C415.349 435.255 413.457 436.768 412.499 437.79C405.968 444.752 398.6 450.921 390.975 456.648C389.55 457.717 387.866 458.718 386.673 460.037L385.448 460.269C380.665 460.401 375.869 461.043 371.102 461.471L354.778 462.555C324.421 464.276 293.466 464.672 263.139 462.456C257.319 462.031 251.199 461.985 245.445 461.109C245.923 460.847 246.319 460.622 246.866 460.533C256.287 458.995 265.712 457.081 274.891 454.436C285.011 451.52 295.098 447.634 304.905 443.788C306.166 443.294 307.375 443.061 307.941 441.776L309.406 441.721Z" fill="#FBB425"/>
<path d="M77.5129 427.713L77.7615 427.792C79.0225 428.218 79.6778 428.983 80.7101 429.756L84.7811 432.549L93.759 437.978C105.553 444.523 117.933 449.665 130.625 454.18C143.208 458.657 156.05 462.067 169.054 465.073C215.728 475.859 263.525 478.496 311.298 477.654L354.038 475.771C351.785 477.439 348.765 478.356 346.173 479.405L334.225 484.177C294.038 499.424 250.439 505.827 207.74 499.493C197.236 497.935 186.701 496.077 176.415 493.421C166.026 490.738 156.046 487.295 145.96 483.689L136.535 479.951C136.042 479.756 134.182 478.888 133.779 478.937C133.489 478.973 132.811 479.421 132.521 479.583C131.75 479.324 130.806 478.522 130.113 478.062L123.883 473.745C105.981 460.668 90.6466 445.596 77.5129 427.713Z" fill="#EC9434"/>
<path d="M147.133 95.3082C146.044 92.7037 145.646 89.1088 146.58 86.432C149.504 78.0485 159.182 73.416 166.68 70.0014C184.053 62.0912 203.678 58.3825 222.419 55.4213C242.052 52.319 261.762 50.2672 281.629 49.4016L308.501 49.1904C336.963 49.3221 365.284 51.0415 393.385 55.7345C408.985 58.3399 424.167 61.5636 439.019 67.1567C446.572 70.0008 454.776 73.68 460.69 79.3C462.457 80.978 464.125 82.7581 465.083 85.0299C466.572 88.5556 466.556 91.4654 465.15 95.0334C462.643 102.733 459.842 112.252 454.815 118.704C450.579 124.141 444.143 128.206 438.065 131.286L434.732 132.9C432.127 145.344 433.443 160.986 440.536 171.795C441.303 172.963 442.201 173.87 443.234 174.8C438.436 178.22 433.174 181.003 427.914 183.637C410.399 192.408 390.565 198.74 371.347 202.441L371.049 202.422C366.202 197.402 360.328 193.146 354.67 189.099C337.677 176.943 318.926 169.699 298.494 165.649C289.819 163.929 281.023 163.099 272.249 162.083L240.647 158.435L179.78 149.08C179.836 147.406 179.965 145.722 179.616 144.072L179.552 143.799C179.289 139.881 178.927 136.195 178.125 132.34C176.687 131.412 174.821 130.904 173.235 130.213C170.349 128.955 167.526 127.496 164.828 125.873C162.262 124.329 159.651 122.507 157.736 120.176C155.27 117.176 153.737 113.489 152.24 109.943C150.199 105.106 148.389 100.421 147.133 95.3082Z" fill="#EC9434"/>
<path d="M147.134 95.3077L147.407 95.1183C149.364 97.3101 151.11 99.377 153.42 101.225C162.452 108.45 174.744 112.957 185.665 116.442C211.521 124.693 238.026 128.243 265.021 130.14C299.658 132.574 334.464 131.924 368.965 127.987C384.676 126.194 399.986 123.302 415.289 119.364C430.2 115.526 447.21 110.655 459.315 100.74C461.371 99.0556 463.092 97.0299 464.741 94.957L465.15 95.0329C462.643 102.733 459.842 112.252 454.815 118.704C450.579 124.14 444.143 128.205 438.065 131.285L434.732 132.9L433.104 133.66C427.964 135.977 422.456 137.674 417.071 139.328C406.828 142.474 396.528 144.949 386.014 146.982C353.45 153.281 320.427 155.136 287.324 153.748C256.757 152.465 225.875 148.335 196.588 139.259C190.26 137.298 184.291 134.712 178.125 132.34C176.687 131.411 174.821 130.904 173.235 130.213C170.349 128.955 167.526 127.496 164.828 125.873C162.262 124.329 159.651 122.507 157.736 120.176C155.27 117.176 153.737 113.489 152.24 109.943C150.199 105.106 148.389 100.421 147.134 95.3077Z" fill="#BE5916"/>
<path d="M178.125 132.34C184.291 134.712 190.26 137.298 196.588 139.26C225.874 148.335 256.757 152.466 287.324 153.748C320.427 155.136 353.449 153.281 386.014 146.982C396.528 144.949 406.828 142.474 417.071 139.328C422.456 137.674 427.963 135.977 433.104 133.661L434.732 132.9C432.127 145.344 433.443 160.986 440.536 171.794C441.303 172.962 442.201 173.87 443.233 174.8C438.435 178.22 433.174 181.002 427.914 183.637C410.399 192.408 390.565 198.74 371.346 202.441L371.049 202.422C366.202 197.401 360.327 193.146 354.67 189.098C337.677 176.943 318.926 169.699 298.494 165.649C289.819 163.929 281.023 163.099 272.248 162.082L240.647 158.434L179.78 149.08C179.835 147.405 179.965 145.722 179.616 144.072L179.552 143.798C179.289 139.881 178.927 136.195 178.125 132.34Z" fill="#E26A18"/>
<path d="M190.274 104.028C184.104 102.053 174.554 97.3658 171.413 91.3969C170.527 89.7129 170.115 87.5319 170.75 85.6872C172.734 79.9256 180.431 76.1473 185.616 73.8743C197.772 68.5452 211.404 65.8284 224.428 63.5267C261.168 57.0325 298.424 55.8629 335.626 57.6472L367.993 60.3386C386.767 62.4718 405.575 65.8983 423.208 72.8845C428.722 75.069 436.428 78.9938 438.816 84.7135C439.573 86.5259 439.622 88.7475 438.83 90.5605C435.879 97.3125 425.74 102.06 419.164 104.398C418.816 104.522 417.878 104.947 417.555 104.929C405.717 109.13 393.577 111.447 381.214 113.456C339.8 120.183 297.099 120.534 255.373 116.81C241.859 115.604 228.424 113.854 215.143 111.036C206.685 109.243 198.347 107.165 190.274 104.028Z" fill="#BE5916"/>
<path d="M190.274 104.028C192.101 102.92 194.277 102.38 196.283 101.667L213.982 96.3183C237.103 90.3912 261.203 87.9121 285.007 86.9331C321.333 85.4379 357.859 87.1857 393.311 95.8601C398.582 97.1498 403.825 98.7286 408.932 100.564C411.882 101.623 415.256 102.704 417.555 104.929C405.717 109.131 393.578 111.447 381.214 113.456C339.8 120.184 297.099 120.534 255.373 116.81C241.859 115.604 228.425 113.854 215.143 111.037C206.685 109.243 198.347 107.165 190.274 104.028Z" fill="#934329"/>
<path d="M443.234 174.799L458.147 182.956L480.443 197.505C482.307 198.91 484.624 200.22 486.306 201.804L506.29 219.313L518.731 232.808C527.928 244.571 536.578 256.921 543.137 270.375C548.927 282.234 554.231 294.354 557.75 307.106C559.768 314.365 561.751 322 562.573 329.508L563.643 337.787L563.937 350.942C563.695 358.392 562.653 365.812 561.035 373.086C560.303 376.376 559.564 379.72 558.297 382.852L557.872 383.089C555.306 384.558 552.851 386.862 550.393 388.596C545.112 392.324 539.613 395.785 533.933 398.873C504.559 414.845 472.567 423.988 439.82 429.901C432.5 431.222 424.869 432.862 417.47 433.498L415.558 433.836L415.549 433.855L309.406 441.721C312.756 438.937 318.038 437.197 321.971 435.214C328.846 431.746 335.523 428.012 341.976 423.804C345.173 421.72 348.482 419.591 351.388 417.107L352.029 416.936C356.929 412.657 361.972 408.269 366.088 403.203L366.426 402.592L391.142 365.396L398.455 350.572C400.243 348.245 401.275 345.317 402.324 342.597C405.244 335.026 407.007 327.362 409.37 319.649C409.722 315.91 410.516 312.164 410.996 308.431C411.721 302.791 411.924 297.126 411.907 291.446C411.894 287.363 411.814 282.977 410.996 278.966L408.251 264.219L408.037 264.203C408.15 262.933 407.408 261.156 407.04 259.92C405.307 254.099 402.93 248.721 400.749 243.092L400.569 242.623L400.32 242.579C399.733 240.329 397.91 237.921 396.614 235.972C395.62 233.705 394.089 231.351 392.795 229.238C389.949 224.59 386.955 220.21 383.529 215.964L383.71 215.755C382.833 215.129 382.124 214.101 381.415 213.286L377.162 208.453L371.347 202.441C390.565 198.739 410.399 192.407 427.914 183.636C433.174 181.002 438.436 178.219 443.234 174.799Z" fill="#BE5916"/>
<path d="M557.749 307.106L538.741 296.955L539.527 274.083C539.915 272.665 541.992 271.205 543.137 270.375C548.926 282.234 554.23 294.354 557.749 307.106Z" fill="#E26A18"/>
<path d="M526.596 248.354C526.96 248.369 526.711 248.344 527.324 248.538L527.936 290.198L501.439 276.891L490.221 271.503C488.814 270.821 486.741 270.127 485.579 269.137L526.596 248.354Z" fill="#D0AD75"/>
<path d="M563.643 337.788L563.016 337.248C560.325 340.024 558.062 343.174 555.266 345.869C548.612 352.28 540.606 357.57 532.333 361.645C530.292 362.65 528.065 363.895 525.866 364.456C529.351 353.839 532.348 343.09 534.407 332.097L536.314 320.777C536.618 318.633 536.597 315.951 537.278 313.918C545.967 318.646 554.454 324.071 562.258 330.136L562.573 329.509L563.643 337.788Z" fill="#D0AD75"/>
<path d="M467.458 276.132L467.638 276.281C467.792 277.456 467.349 278.718 467.089 279.865L465.69 286.203L458.013 319.906L435.647 303.526L418.516 291.038L467.458 276.132Z" fill="#D0AD75"/>
<path d="M391.141 365.397L392.811 366.981L424.199 395.975L379.552 401.908C375.208 402.334 370.41 403.288 366.088 403.204L366.426 402.592L391.141 365.397Z" fill="#D0AD75"/>
<path d="M391.141 365.397L392.811 366.981C386.458 380.866 377.664 392.062 366.837 402.671L366.426 402.593L391.141 365.397Z" fill="#F8E6C2"/>
<path d="M466.082 348.045L505.587 375.418C504.558 376.431 501.352 377.168 499.859 377.683L480.729 383.822L448.197 391.442C455.636 377.58 461.048 362.9 466.082 348.045Z" fill="#D0AD75"/>
<path d="M408.251 264.22C410.832 263.133 414.443 262.81 417.223 262.136L436.325 256.917C456.537 250.596 477.206 243.067 494.468 230.491C497.342 228.397 500.064 225.807 502.482 223.213C503.555 222.063 504.617 220.477 505.9 219.576L506.29 219.313L518.731 232.808C510.862 240.691 502.088 245.387 492.303 250.403C471.959 260.832 450.619 268.365 428.617 274.454C422.835 276.054 416.908 277.962 410.996 278.966L408.251 264.22Z" fill="#934329"/>
<path d="M409.37 319.65C410.849 316.583 411.88 313.013 412.921 309.761L415.774 301.252L453.815 336.355C451.949 344.455 449.616 352.692 446.5 360.407C442.943 369.215 438.441 377.548 434.13 385.997C420.947 375.375 409.153 363.7 398.455 350.573C400.243 348.245 401.275 345.318 402.324 342.598C405.244 335.026 407.007 327.363 409.37 319.65Z" fill="#E26A18"/>
<path d="M479.814 281.058L526.35 307.61L523.29 326.871C521.043 338.703 517.864 350.112 514.032 361.521L512.852 364.712L470.236 331.653L479.814 281.058Z" fill="#E26A18"/>
<path d="M480.443 197.505C482.307 198.91 484.624 200.22 486.306 201.804L506.29 219.313L505.9 219.576C504.617 220.476 503.556 222.062 502.483 223.213C500.065 225.807 497.342 228.397 494.468 230.491C477.206 243.066 456.538 250.596 436.326 256.916L417.223 262.136C414.444 262.81 410.833 263.133 408.251 264.22L408.037 264.204C408.15 262.933 407.408 261.156 407.04 259.92C405.307 254.099 402.929 248.722 400.749 243.093L400.569 242.623L400.32 242.58C399.733 240.329 397.91 237.921 396.614 235.973L411.947 232.19C422.935 229.027 433.896 224.887 444.496 220.6C452.106 217.523 459.92 214.286 466.823 209.803C472.041 206.413 476.637 202.447 480.443 197.505Z" fill="#EC9434"/>
<path d="M480.443 197.505C482.306 198.91 484.624 200.22 486.306 201.804C481.234 210.14 472.253 215.55 463.853 220.123C452.257 226.438 440.202 231.043 427.671 235.111C420.407 237.469 413.043 239.777 405.608 241.539L400.569 242.623L400.319 242.58C399.733 240.329 397.91 237.921 396.613 235.973L411.946 232.19C422.934 229.027 433.896 224.887 444.496 220.6C452.105 217.523 459.92 214.286 466.823 209.803C472.041 206.413 476.637 202.447 480.443 197.505Z" fill="#F8E6C2"/>
<path d="M443.233 174.799L458.147 182.956L480.443 197.505C476.637 202.447 472.041 206.413 466.823 209.803C459.92 214.286 452.105 217.522 444.496 220.6C433.896 224.887 422.934 229.026 411.946 232.19L396.613 235.972C395.62 233.705 394.089 231.351 392.795 229.238C389.949 224.59 386.954 220.21 383.529 215.964L383.71 215.755C382.833 215.129 382.124 214.101 381.415 213.286L377.162 208.453L371.346 202.441C390.565 198.739 410.399 192.407 427.914 183.636C433.174 181.002 438.435 178.219 443.233 174.799Z" fill="#EC9434"/>
<path d="M443.233 174.799L458.147 182.956C453.275 187.829 447.112 191.361 441.067 194.577C423.365 203.994 403.165 211.013 383.71 215.755C382.833 215.129 382.124 214.101 381.415 213.286L377.162 208.453L371.346 202.441C390.565 198.739 410.399 192.407 427.914 183.636C433.174 181.002 438.435 178.219 443.233 174.799Z" fill="#762A20"/>
<path d="M563.937 350.942C563.695 358.392 562.653 365.813 561.035 373.086C560.303 376.376 559.564 379.72 558.297 382.852L557.872 383.09C555.306 384.558 552.851 386.862 550.393 388.597C545.112 392.324 539.612 395.785 533.933 398.874C504.559 414.845 472.567 423.989 439.82 429.901C432.5 431.223 424.869 432.863 417.47 433.498L415.558 433.836L415.549 433.855L309.406 441.721C312.756 438.938 318.038 437.198 321.971 435.214C328.846 431.746 335.523 428.012 341.976 423.805C345.173 421.72 348.482 419.592 351.388 417.107L352.029 416.936C358.171 417.197 364.8 416.382 370.947 415.986C393.148 414.556 415.353 411.926 437.302 408.335L463.269 403.163C492.217 396.304 521.927 386.348 545.907 368.241C552.613 363.178 558.86 357.676 563.937 350.942Z" fill="#762A20"/>
<path d="M179.552 143.798L179.616 144.072C179.965 145.722 179.835 147.405 179.78 149.08L240.647 158.434L272.248 162.083C281.023 163.099 289.819 163.929 298.494 165.649C318.926 169.699 337.677 176.943 354.67 189.098C360.327 193.146 366.202 197.401 371.049 202.422L371.346 202.441L377.162 208.454L381.415 213.287C382.123 214.101 382.832 215.13 383.71 215.755L383.528 215.965C386.954 220.21 389.949 224.59 392.795 229.239C394.089 231.352 395.62 233.706 396.613 235.973C397.91 237.922 399.733 240.33 400.319 242.58L400.569 242.624L400.749 243.093C402.929 248.722 405.307 254.1 407.04 259.92C407.408 261.156 408.149 262.933 408.037 264.204L408.251 264.22L410.996 278.967C411.814 282.977 411.893 287.364 411.906 291.447C411.924 297.127 411.721 302.792 410.995 308.432C410.516 312.165 409.721 315.911 409.37 319.65C407.007 327.363 405.244 335.026 402.324 342.598C401.275 345.318 400.243 348.245 398.455 350.573L391.141 365.397L366.426 402.593L366.088 403.204C361.972 408.27 356.928 412.658 352.028 416.936L351.388 417.107C348.482 419.592 345.172 421.72 341.976 423.805C335.523 428.012 328.846 431.746 321.97 435.215C318.038 437.198 312.755 438.938 309.405 441.721L307.94 441.777C307.374 443.061 306.165 443.295 304.905 443.789C295.098 447.634 285.01 451.52 274.891 454.436C265.711 457.081 256.287 458.996 246.866 460.533C246.319 460.622 245.922 460.847 245.444 461.109C221.11 459.395 197.223 456.25 173.304 451.401C153.503 447.387 133.897 442.348 115.055 434.963C104.037 430.645 92.777 425.533 82.7352 419.217C76.7078 415.426 71.3071 411.276 65.6901 406.944C65.3424 406.676 65.0383 406.6 64.61 406.552C64.2277 406.3 63.2474 403.79 62.9876 403.235C59.7624 396.358 56.1178 389.136 54.4022 381.706C53.3032 379.368 52.7651 376.608 52.165 374.1C50.4651 366.996 49.4122 360.013 48.8654 352.733C48.479 351.268 48.6618 349.276 48.6534 347.735L48.6909 336.842C48.7444 335.515 48.6118 333.74 49.1233 332.504C49.7044 323.941 51.9193 314.694 54.4347 306.502C57.0923 294.706 62.2629 283.742 67.4684 272.915C75.1237 258.776 83.8935 245.151 94.4705 233.008L107.181 219.744L125.379 203.451C126.603 202.268 128.195 201.283 129.608 200.336L152.997 183.809C156.938 180.433 161.968 177.889 166.235 174.883L170.099 171.399C177.469 163.981 179.483 153.85 179.552 143.798Z" fill="#EC9434"/>
<path d="M67.4686 272.914C68.7254 273.854 70.7822 275.253 71.0026 276.861L71.6722 295.536L61.0289 302.834C59.2671 304.039 56.6165 306.43 54.4348 306.501C57.0924 294.705 62.2632 283.741 67.4686 272.914Z" fill="#FBB425"/>
<path d="M85.8216 249.63L117.739 267.806L102.585 276.378L82.9985 288.021C82.5588 282.919 82.8408 277.655 83.1233 272.55C83.5439 264.958 84.2422 257.069 85.8216 249.63Z" fill="#F8E6C2"/>
<path d="M49.1236 332.504L49.4428 333.152L73.7333 313.721L81.4889 361.975L67.8618 353.468C60.8015 348.84 53.1514 344.229 49.0994 336.468L48.6912 336.842C48.7447 335.515 48.6121 333.74 49.1236 332.504Z" fill="#F8E6C2"/>
<path d="M329.599 302.416L330.462 302.356L330.637 302.714L306.15 336.195L293.364 321.487L278.07 302.477L329.599 302.416Z" fill="#F8E6C2"/>
<path d="M134.883 274.217L185.683 290.169C185.293 291.18 173.582 300.253 171.851 301.667L153.233 315.958L134.883 274.217Z" fill="#F8E6C2"/>
<path d="M402.191 294.351C402.79 294.224 402.82 294.163 403.443 294.351L383.91 332.892L367.16 318.296L350.653 301.991C354.173 301.936 357.747 301.417 361.256 301.102C375.003 299.871 388.842 297.911 402.191 294.351Z" fill="#F8E6C2"/>
<path d="M143.027 350.803L143.787 350.707C144.996 352.417 145.892 354.552 146.84 356.421L152.506 367.585L165.824 391.071C164.014 391.203 161.52 390.316 159.719 389.907L140.138 384.94L111.252 375.964C112.614 374.394 115.292 373.089 117.048 371.932L125.001 366.239L143.027 350.803Z" fill="#F8E6C2"/>
<path d="M200.266 293.38L231.404 298.375L247.01 299.999C249.912 300.242 254.019 300.006 256.709 300.856L242.337 316.923L227.665 331.849L200.266 293.38Z" fill="#F8E6C2"/>
<path d="M305.886 371.237L337.624 404.25L311.497 405.309L278.879 405.245L305.886 371.237Z" fill="#F8E6C2"/>
<path d="M224.042 366.899L253.615 403.945L225.503 401.94L194.061 397.722L224.042 366.899Z" fill="#F8E6C2"/>
<path d="M125.275 275.833C125.969 276.237 126.066 277.59 126.259 278.362C128.726 288.211 131.168 297.963 134.494 307.572L142.942 329.334L100.934 362.945L99.6101 364.079L99.0128 364.003C96.2326 355.479 92.7685 347.232 90.3731 338.557C87.4245 327.878 86.1718 317.215 84.3875 306.327L125.275 275.833Z" fill="#FBB425"/>
<path d="M192.935 296.645L220.483 347.773L181.64 386.645L180.881 386.728C178.078 383.061 175.714 378.675 173.342 374.702L160.984 352.915L153.886 338.575L192.935 296.645Z" fill="#FBB425"/>
<path d="M267.284 307.676L298.928 353.927L264.676 396.463L264.021 396.202C258.812 390.405 254.121 384.104 249.455 377.867C242.972 369.201 236.58 360.454 231.477 350.889L267.284 307.676Z" fill="#FBB425"/>
<path d="M342.866 307.655L378.534 351.001L347.815 400.017L347.126 400.086L311.007 355.602C323.13 340.813 332.605 323.753 342.866 307.655Z" fill="#FBB425"/>
<path d="M107.181 219.744C112.028 227.638 120.586 233.091 128.453 237.582C148.913 249.264 171.702 256.67 194.534 262.127C221.439 268.557 249.306 271.732 276.905 273.081C320.678 275.219 365.035 272.817 408.037 264.204L408.252 264.22L410.996 278.967C405.601 280.454 399.937 281.287 394.437 282.3C373.115 286.229 351.498 288.404 329.853 289.497C303.556 290.825 277.172 289.839 250.989 287.185C214.351 283.47 177.789 276.492 143.548 262.586C132.177 257.967 120.59 252.519 110.316 245.766C104.607 242.014 99.5273 237.575 94.4712 233.008L107.181 219.744Z" fill="#D22F2B"/>
<path d="M125.379 203.451C126.603 202.268 128.196 201.283 129.608 200.336C137.152 206.798 144.972 212.212 153.792 216.795C166.477 223.385 180.485 228.136 194.252 231.911C224.576 240.228 256.107 243.918 287.481 244.941C305.543 245.528 323.704 245.318 341.722 243.855C357.143 242.603 372.603 240.962 387.774 237.875C390.606 237.298 393.92 236.982 396.613 235.973C397.91 237.921 399.733 240.329 400.319 242.58L400.569 242.623L400.749 243.093C402.929 248.722 405.307 254.099 407.04 259.92C407.408 261.156 408.15 262.933 408.037 264.204C365.034 272.817 320.677 275.219 276.904 273.081C249.305 271.732 221.438 268.557 194.534 262.127C171.702 256.67 148.912 249.264 128.453 237.581C120.586 233.09 112.027 227.638 107.181 219.744L125.379 203.451Z" fill="#FCD368"/>
<path d="M125.379 203.451C126.603 202.268 128.195 201.283 129.608 200.336C137.152 206.798 144.972 212.212 153.792 216.795C166.476 223.385 180.485 228.136 194.252 231.911C224.576 240.228 256.107 243.918 287.481 244.941C305.543 245.528 323.704 245.318 341.722 243.855C357.143 242.603 372.603 240.962 387.773 237.875C390.606 237.298 393.92 236.982 396.613 235.973C397.91 237.921 399.733 240.329 400.319 242.58C366.843 250.566 332.616 253.154 298.275 252.966C265.812 252.788 232.95 249.161 201.416 241.401C181.501 236.501 161.841 230.076 144.388 219.066C137.256 214.568 131.288 209.424 125.379 203.451Z" fill="url(#paint0_linear_17_105060)"/>
<path d="M48.8655 352.733L49.1731 352.805C50.395 353.293 52.1282 356.025 53.1807 357.122C56.3903 360.466 59.867 363.247 63.6586 365.904C76.2946 374.762 90.411 381.587 104.732 387.255C136.514 399.833 170.292 407.351 204.088 411.984C233.349 415.996 262.484 417.909 292.017 418.104L332.694 417.625L344.691 417.265C346.863 417.189 349.236 416.916 351.388 417.107C348.482 419.592 345.172 421.72 341.976 423.805C335.523 428.012 328.846 431.746 321.971 435.215C318.038 437.198 312.756 438.938 309.406 441.721L307.94 441.777C307.375 443.061 306.165 443.295 304.905 443.789C295.098 447.634 285.01 451.52 274.891 454.436C265.711 457.081 256.287 458.996 246.866 460.534C246.319 460.623 245.922 460.847 245.445 461.109C221.11 459.395 197.223 456.25 173.304 451.402C153.503 447.387 133.897 442.348 115.055 434.963C104.037 430.646 92.7771 425.533 82.7354 419.217C76.708 415.427 71.3072 411.277 65.6902 406.944C65.3426 406.676 65.0385 406.6 64.6102 406.553C64.2278 406.301 63.2475 403.79 62.9877 403.235C59.7626 396.359 56.118 389.136 54.4023 381.706C53.3033 379.368 52.7652 376.608 52.1652 374.1C50.4652 366.996 49.4122 360.013 48.8655 352.733Z" fill="#934329"/>
<path d="M54.4026 381.706C65.264 391.495 78.501 398.975 91.6873 405.168C112.51 414.947 134.285 421.771 156.651 427.037C186.5 434.065 216.909 438.093 247.49 440.112L283.064 441.631L307.941 441.776C307.375 443.061 306.166 443.294 304.905 443.788C295.098 447.634 285.011 451.52 274.891 454.436C265.712 457.081 256.287 458.996 246.866 460.533C246.319 460.622 245.923 460.847 245.445 461.109C221.111 459.395 197.223 456.25 173.305 451.401C153.503 447.387 133.897 442.348 115.055 434.963C104.038 430.645 92.7775 425.532 82.7357 419.217C76.7083 415.426 71.3076 411.276 65.6905 406.944C65.3429 406.676 65.0388 406.599 64.6105 406.552C64.2282 406.3 63.2479 403.789 62.9881 403.234C59.7628 396.358 56.1182 389.136 54.4026 381.706Z" fill="#FCD368"/>
<path d="M179.552 143.798L179.616 144.072C179.965 145.722 179.836 147.405 179.78 149.08L240.647 158.434L272.249 162.083C281.023 163.099 289.819 163.929 298.494 165.649C318.926 169.699 337.677 176.943 354.67 189.098C360.328 193.146 366.202 197.401 371.049 202.422L371.347 202.441L377.162 208.454L381.415 213.287C382.124 214.101 382.833 215.13 383.71 215.755L383.529 215.965C386.955 220.21 389.949 224.59 392.795 229.239C394.089 231.352 395.62 233.706 396.614 235.973C393.921 236.982 390.606 237.299 387.774 237.875C372.603 240.962 357.143 242.603 341.722 243.855C323.704 245.318 305.543 245.529 287.482 244.941C256.107 243.919 224.576 240.228 194.252 231.912C180.486 228.136 166.477 223.385 153.792 216.795C144.972 212.212 137.152 206.798 129.609 200.336L152.997 183.809C156.939 180.433 161.968 177.889 166.235 174.883L170.099 171.399C177.469 163.981 179.483 153.85 179.552 143.798Z" fill="#FCD368"/>
<path d="M166.236 174.883C175.292 181.085 185.714 185.507 195.874 189.54C219.912 199.08 245.753 204.558 271.442 207.077C303.699 210.239 335.923 208.992 367.799 203.034L371.049 202.422L371.347 202.441L377.162 208.453L381.416 213.287C382.124 214.101 382.833 215.13 383.711 215.755L383.529 215.965C380.894 216.223 378.07 217.185 375.459 217.762L360.508 220.624C316.205 227.819 271.68 227.31 227.93 216.703C201.118 210.202 175.518 199.975 152.998 183.809C156.939 180.432 161.969 177.889 166.236 174.883Z" fill="#934329"/>
<path d="M179.552 143.798L179.616 144.072C179.965 145.722 179.836 147.405 179.78 149.08L240.647 158.434L272.248 162.083C281.023 163.099 289.819 163.929 298.494 165.649C318.926 169.699 337.677 176.943 354.67 189.098C360.327 193.146 366.202 197.401 371.049 202.422L367.798 203.034C335.923 208.992 303.698 210.239 271.441 207.077C245.752 204.558 219.911 199.081 195.874 189.54C185.714 185.507 175.291 181.085 166.235 174.883L170.099 171.399C177.469 163.981 179.483 153.85 179.552 143.798Z" fill="#EC9434"/>
</g>
<defs>
<linearGradient id="paint0_linear_17_105060" x1="266.094" y1="258.063" x2="259.665" y2="188.912" gradientUnits="userSpaceOnUse">
<stop stop-color="#FFF5D2"/>
<stop offset="1" stop-color="#FDF8F2"/>
</linearGradient>
</defs>
</svg>
