<svg width="637" height="556" viewBox="0 0 637 556" fill="none" xmlns="http://www.w3.org/2000/svg">
<path d="M244.41 555.883C379.394 555.883 488.82 542.435 488.82 525.845C488.82 509.255 379.394 495.807 244.41 495.807C109.426 495.807 0 509.255 0 525.845C0 542.435 109.426 555.883 244.41 555.883Z" fill="#E6E6E6"/>
<path d="M537.616 73.288C522.343 67.3247 506.875 63.5166 491.562 61.95H491.557C426.64 55.321 364.539 89.0634 332.689 170.644C293.328 271.472 315.075 407.198 395.075 438.427C403.199 441.601 411.598 443.566 420.201 444.445C496.28 452.219 587.025 374.325 622.388 283.734C661.745 182.905 617.611 104.517 537.616 73.288ZM566.373 261.873C537.394 336.109 467.283 388.823 426.305 384.635C422.931 384.291 419.871 383.566 416.932 382.421C378.141 367.279 357.48 272.464 388.691 192.509C402.497 157.137 430.493 116.154 485.444 121.764H485.449C495.343 122.774 505.535 125.31 515.75 129.299C572.209 151.336 590.661 199.659 566.373 261.873Z" fill="#D95D16"/>
<path opacity="0.3" d="M482.071 366.492C461.845 379.514 441.949 386.229 426.305 384.63C422.936 384.286 419.871 383.562 416.936 382.416C378.145 367.275 357.484 272.459 388.696 192.505C402.456 157.25 430.321 116.43 484.915 121.719C483.199 115.344 482.189 108.701 482.189 101.841C482.189 87.4424 486.305 73.8947 493.301 62.1899C492.721 62.1266 492.141 62.0088 491.562 61.95H491.557C426.64 55.321 364.539 89.0634 332.689 170.644C293.328 271.472 315.075 407.198 395.075 438.427C403.199 441.601 411.598 443.566 420.201 444.445C454.826 447.981 492.476 433.736 526.577 408.665C508.148 401.253 491.326 385.355 482.071 366.492Z" fill="#D95D16"/>
<path d="M448.384 0.00634766H40.4512V467.265C40.4512 499.63 66.6862 525.865 99.0521 525.865H389.783C422.149 525.865 448.384 499.63 448.384 467.265V0.00634766Z" fill="#FF7220"/>
<path opacity="0.3" d="M357.784 428.156C272.907 495.446 114.089 502.147 40.4512 417.207V467.255C40.4512 499.62 66.6861 525.855 99.052 525.855H389.783C422.149 525.855 448.384 499.62 448.384 467.255V277.415C430.028 334.54 404.572 391.067 357.784 428.156Z" fill="#FF7220"/>
<path opacity="0.3" d="M97.903 22.6423H63.0874V467.261C63.0874 486.704 78.6094 502.552 97.903 503.163V22.6423Z" fill="white"/>
</svg>
