<svg width="163" height="575" viewBox="0 0 163 575" fill="none" xmlns="http://www.w3.org/2000/svg">
<path d="M112.404 18.9314V22.7211H114.461V35.7481C114.461 38.3046 112.377 40.3892 109.82 40.3892H52.2895C49.7331 40.3892 47.6484 38.3046 47.6484 35.7481V22.7211H49.6157V18.9314H47.6484V4.64109C47.6484 2.08462 49.7331 0 52.2895 0H109.82C112.377 0 114.461 2.08462 114.461 4.64109V18.9314H112.404Z" fill="#0A8958"/>
<path d="M112.398 18.9375H49.6094V22.7273H112.398V18.9375Z" fill="#067749"/>
<path d="M131.498 259.695C134.524 257.243 131.94 248.929 131.94 248.929C139.282 245.991 141.883 232.774 137.564 207.806C133.233 182.838 147.933 143.667 151.4 129.464C154.866 115.277 147.935 104.496 147.935 104.496L98.1888 52.5057V40.375H63.6739H58.4737H55.6251V52.6081L5.20473 104.496C5.20473 104.496 -2.63947 115.277 1.28261 129.464C5.20469 143.667 21.8442 182.838 16.9535 207.806C12.0478 232.774 14.9862 245.994 23.3122 248.929C23.3122 248.929 20.3738 257.243 23.7965 259.695C23.7965 259.695 -16.3431 334.114 7.64132 357.115C7.64132 357.115 2.26628 364.457 2.75062 375.24V548.049C2.75062 548.049 3.92652 571.065 27.806 574.984H127.958C149.064 571.062 150.105 548.049 150.105 548.049V375.24C150.532 364.46 145.771 357.115 145.771 357.115C166.969 334.114 131.498 259.695 131.498 259.695Z" fill="#A5C2D3"/>
<path d="M145.77 357.118C145.77 357.118 150.528 364.46 150.104 375.243V548.051C150.104 548.051 149.06 571.067 127.957 574.987H33.897C12.7912 571.065 11.7501 548.051 11.7501 548.051V375.243C11.3232 364.462 16.0841 357.118 16.0841 357.118C-5.10915 334.117 30.3594 259.697 30.3594 259.697C27.3336 257.245 29.9175 248.932 29.9175 248.932C22.5752 245.994 19.9738 232.777 24.2928 207.809C28.6243 182.841 13.9246 143.67 10.4569 129.467C6.99165 115.279 13.9221 104.499 13.9221 104.499L30.5616 87.2702L63.6659 53.0051V40.375H98.1807V52.5057L131.447 87.2702L147.927 104.499C147.927 104.499 154.86 115.279 151.392 129.467C147.927 143.67 133.225 182.841 137.556 207.809C141.875 232.777 139.274 245.996 131.932 248.932C131.932 248.932 134.516 257.245 131.49 259.697C131.49 259.697 166.963 334.117 145.77 357.118Z" fill="#D7E8F2"/>
<path d="M138.289 259.697C141.711 257.245 138.773 248.932 138.773 248.932C147.101 245.994 150.037 232.777 145.132 207.809C140.241 182.841 156.88 143.67 160.802 129.467C164.725 115.279 156.88 104.499 156.88 104.499L106.46 52.6081V40.375H103.392H98.1914V52.5057L147.938 104.499C147.938 104.499 154.871 115.279 151.403 129.467C147.938 143.67 133.236 182.841 137.567 207.809C141.886 232.777 139.285 245.996 131.942 248.932C131.942 248.932 134.526 257.245 131.5 259.697C131.5 259.697 166.969 334.117 145.776 357.118C145.776 357.118 150.534 364.46 150.11 375.243V548.051C150.11 548.051 149.066 571.067 127.963 574.987H134.279C158.176 571.065 159.334 548.051 159.334 548.051V375.243C159.819 364.462 154.444 357.118 154.444 357.118C178.428 334.117 138.289 259.697 138.289 259.697Z" fill="#7DA6BA"/>
<path d="M145.773 357.113C145.773 357.113 150.531 364.455 150.107 375.238V548.047C150.107 548.047 149.063 571.062 127.96 574.982H119.484C136.948 571.06 137.814 548.047 137.814 548.047V375.238C138.166 364.458 134.231 357.113 134.231 357.113C151.767 334.112 122.408 259.692 122.408 259.692C124.919 257.241 122.775 248.927 122.775 248.927C128.856 245.989 130.998 232.772 127.431 207.804C123.846 182.836 136.009 143.665 138.888 129.462C141.751 115.274 136.009 104.494 136.009 104.494L128.474 94.9775H138.755L131.455 87.2656L147.935 104.494C147.935 104.494 154.868 115.274 151.4 129.462C147.935 143.665 133.233 182.836 137.564 207.804C141.883 232.772 139.282 245.991 131.94 248.927C131.94 248.927 134.524 257.241 131.498 259.692C131.498 259.692 166.966 334.112 145.773 357.113Z" fill="#CC7B1B"/>
<path d="M134.226 357.113C134.226 357.113 138.163 364.455 137.809 375.238V548.047C137.809 548.047 136.942 571.062 119.479 574.982H33.897C12.7912 571.06 11.7501 548.047 11.7501 548.047V375.238C11.3232 364.458 16.0841 357.113 16.0841 357.113C-5.10915 334.112 30.3594 259.692 30.3594 259.692C27.3336 257.241 29.9175 248.927 29.9175 248.927C22.5752 245.989 19.9738 232.772 24.2928 207.804C28.6243 182.836 13.9246 143.665 10.4569 129.462C6.99165 115.274 13.9221 104.494 13.9221 104.494L30.5616 87.2656H131.447L138.747 94.9775H128.466L136.001 104.494C136.001 104.494 141.743 115.274 138.88 129.462C136.001 143.665 123.84 182.836 127.423 207.804C130.993 232.772 128.848 245.991 122.767 248.927C122.767 248.927 124.911 257.241 122.4 259.692C122.4 259.692 151.762 334.112 134.226 357.113Z" fill="#E59A2C"/>
<path d="M134.225 357.113C134.225 357.113 138.162 364.455 137.81 375.238V548.047C137.81 548.047 136.948 571.062 119.485 574.982H41.6625C24.1991 571.06 23.3378 548.047 23.3378 548.047V375.238C22.9857 364.458 26.9228 357.113 26.9228 357.113C9.38703 334.112 38.734 259.692 38.734 259.692C36.23 257.241 38.3696 248.927 38.3696 248.927C32.293 245.989 30.1434 232.772 33.716 207.804C37.301 182.836 25.1353 143.665 22.2693 129.462C19.4007 115.274 25.1378 104.494 25.1378 104.494L38.9063 87.2656H122.379L136.012 104.494C136.012 104.494 141.749 115.274 138.881 129.462C136.012 143.665 123.849 182.836 127.434 207.804C131.007 232.772 128.857 245.991 122.78 248.927C122.78 248.927 124.92 257.241 122.416 259.692C122.416 259.692 151.76 334.112 134.225 357.113Z" fill="#F5C938"/>
<path d="M112.107 87.2656L118.216 94.9775H23.1328L30.58 87.2656H112.107Z" fill="#E59A2C"/>
<path d="M138.76 94.9775H128.477L122.383 87.2656H131.46L138.76 94.9775Z" fill="#CC7B1B"/>
<path d="M106.457 40.375H55.625V47.8597H106.457V40.375Z" fill="#A5C2D3"/>
<path d="M38.9166 87.2753L70.7801 56.1882H93.0568L122.391 87.2753H131.464L98.1972 52.5133V47.8672H63.6824V53.0126L30.5781 87.2753H38.9166Z" fill="#BED8E5"/>
<path d="M131.454 87.2753H122.381L93.0469 56.1882V47.8672H98.1873V52.5133L131.454 87.2753Z" fill="#AAC9D6"/>
<path d="M128.476 94.9775H118.211L112.102 87.2656H122.382L128.476 94.9775Z" fill="#DB8C23"/>
<path d="M134.239 357.128C134.239 357.128 138.176 364.47 137.821 375.253V548.061C137.821 548.061 136.955 571.077 119.492 574.997H109.211C126.674 571.075 127.541 548.061 127.541 548.061V375.253C127.893 364.473 123.956 357.128 123.956 357.128C141.491 334.127 112.147 259.707 112.147 259.707C114.643 257.256 112.514 248.942 112.514 248.942C118.581 246.004 120.738 232.787 117.155 207.819C113.572 182.851 125.748 143.68 128.612 129.477C131.475 115.289 125.748 104.509 125.748 104.509L118.214 94.9922H128.479L136.014 104.509C136.014 104.509 141.756 115.289 138.892 129.477C136.014 143.68 123.853 182.851 127.436 207.819C131.006 232.787 128.861 246.006 122.78 248.942C122.78 248.942 124.924 257.256 122.413 259.707C122.413 259.707 151.775 334.127 134.239 357.128Z" fill="#F2BB22"/>
<path d="M131.229 574.269C131.229 574.269 84.1991 549.423 30.9727 574.269H131.229Z" fill="#E59A2C"/>
<path d="M28.1836 574.991H134.175C134.175 574.991 82.6309 557.96 28.1836 574.991Z" fill="#A5C2D3"/>
<path d="M112.104 87.2753L84.2422 56.1882V47.8672H93.055V56.1882L122.384 87.2753H112.104Z" fill="#C1D9E5"/>
<path d="M93.055 47.8672H84.2422V56.1907H93.055V47.8672Z" fill="#9ABECC"/>
<path d="M93.0469 47.8672H98.1873V52.5133L101.705 56.1882H93.0469V47.8672Z" fill="#8AB4C1"/>
<path d="M106.46 52.6156V47.8672H98.1914V52.5133L101.709 56.1882H109.933L106.46 52.6156Z" fill="#6A98AA"/>
<path d="M106.46 40.375H98.1914V47.8597H106.46V40.375Z" fill="#477984"/>
<path d="M98.1873 40.375H93.0469V47.8597H98.1873V40.375Z" fill="#578796"/>
<path d="M93.055 40.375H84.2422V47.8597H93.055V40.375Z" fill="#6794A5"/>
<path d="M84.2355 40.375H55.625V47.8597H84.2355V40.375Z" fill="#7DA6BA"/>
<path d="M51.9258 82.9804H98.1894L80.9308 61.8047H72.6097L51.9258 82.9804Z" fill="white"/>
<path d="M102.848 257.165H48.7506C46.7309 257.165 45.0781 255.512 45.0781 253.493C45.0781 251.473 46.7309 249.82 48.7506 249.82H102.848C104.868 249.82 106.521 251.473 106.521 253.493C106.518 255.512 104.868 257.165 102.848 257.165Z" fill="#FFE633"/>
<path d="M103.887 255.083H47.7095C46.2615 255.083 45.0781 253.9 45.0781 252.452C45.0781 251.004 46.2615 249.82 47.7095 249.82H103.887C105.335 249.82 106.518 251.004 106.518 252.452C106.518 253.9 105.335 255.083 103.887 255.083Z" fill="#EFB616"/>
<path d="M118.121 358.819H32.7264C31.9774 358.819 31.3633 358.205 31.3633 357.456V357.019C31.3633 356.27 31.9774 355.656 32.7264 355.656H118.121C118.87 355.656 119.484 356.27 119.484 357.019V357.456C119.484 358.205 118.87 358.819 118.121 358.819Z" fill="#FFE633"/>
<path d="M118.927 356.775H31.9225C31.6154 356.775 31.3633 356.523 31.3633 356.215C31.3633 355.908 31.6154 355.656 31.9225 355.656H118.927C119.234 355.656 119.487 355.908 119.487 356.215C119.487 356.523 119.234 356.775 118.927 356.775Z" fill="#EFB616"/>
<path d="M104.129 106.805H98.8414H81.4778H70.1111H52.7475H47.4599C47.4599 106.805 32.0386 108.517 33.9959 125.654C35.9532 142.787 49.4171 173.141 45.0107 191.99C40.6043 210.839 37.4211 234.339 46.234 238.008H52.9697H98.6191H105.355C114.168 234.336 110.985 210.839 106.578 191.99C102.172 173.141 115.636 142.787 117.593 125.654C119.55 108.517 104.129 106.805 104.129 106.805Z" fill="#FAD73C"/>
<path d="M105.27 282.188C102.332 275.994 100.375 269.57 91.8065 266.819C89.5895 266.107 87.2677 265.768 85.0407 265.651C67.5574 263.231 57.359 266.819 57.359 266.819C48.7909 269.573 46.8335 275.994 43.8951 282.188C40.9567 288.382 15.744 346.646 58.093 349.63H69.0429H80.125H91.075C133.419 346.646 108.206 288.382 105.27 282.188Z" fill="#FAD73C"/>
<path d="M75.4252 370.009H49.4785C49.4785 370.009 35.5253 368.786 35.2806 383.473C35.036 398.161 35.2806 535.486 35.2806 535.486C35.2806 535.486 34.7913 553.601 48.0105 553.846C48.0105 553.846 80.3234 544.054 104.31 553.846C104.31 553.846 115.08 549.929 115.325 535.975V382.25C115.325 382.25 114.591 369.985 100.149 369.985C85.706 369.982 75.4252 370.009 75.4252 370.009Z" fill="#FAD73C"/>
<g opacity="0.5">
<path d="M47.4368 349.927H28.3433C22.1743 327.205 35.4509 285.333 41.4301 268.414H60.5238C54.5445 285.333 41.2679 327.208 47.4368 349.927Z" fill="white"/>
<path d="M59.6193 247.13H40.5257C37.0605 241.373 36.2816 228.962 39.1301 209.165C39.5845 205.992 39.7917 202.584 39.7917 199.031H58.8853C58.8853 202.586 58.6806 205.994 58.2237 209.165C55.3751 228.96 56.1541 241.373 59.6193 247.13Z" fill="white"/>
<path d="M46.7783 130.798C48.5982 139.831 54.1805 158.939 57.089 178.075H37.9954C35.0869 158.937 29.5071 139.831 27.6846 130.798C24.8211 116.61 30.5482 105.83 30.5482 105.83L44.3241 88.6016H63.4177L49.6418 105.83C49.6418 105.83 43.9147 116.61 46.7783 130.798Z" fill="white"/>
<path d="M47.8428 376.564V546.347H28.7492V376.564C28.6319 373.008 28.9839 369.823 29.4981 367.164H48.5918C48.0775 369.823 47.7254 373.008 47.8428 376.564Z" fill="white"/>
</g>
</svg>
