<svg width="597" height="477" viewBox="0 0 597 477" fill="none" xmlns="http://www.w3.org/2000/svg">
<path d="M330.414 402.205V465.32C330.414 465.32 330.947 474.059 347.507 475.862C364.067 477.666 370.093 469.282 371.403 465.876C372.713 462.47 372.975 399.323 372.975 399.323L330.414 402.205Z" fill="#A86345"/>
<path d="M352.024 476.653C350.599 476.653 349.079 476.572 347.453 476.394C330.647 474.564 329.916 465.738 329.894 465.363L329.893 402.216C329.893 401.941 330.106 401.712 330.38 401.694L372.941 398.812C373.086 398.803 373.228 398.852 373.334 398.952C373.441 399.052 373.5 399.191 373.5 399.336C373.489 401.918 373.222 462.618 371.893 466.074C371.445 467.242 367.342 476.653 352.024 476.653ZM330.94 402.706V465.332C330.945 465.381 331.704 473.627 347.565 475.354C365.884 477.346 370.455 466.899 370.915 465.699C371.951 463.007 372.371 417.834 372.45 399.896L330.94 402.706Z" fill="#884F07"/>
<path opacity="0.46" d="M336.107 421.339C340.85 421.372 345.481 423.158 349.677 425.229C354.707 427.712 359.403 430.846 363.916 434.164C366.852 436.324 369.708 438.586 372.528 440.897C372.884 421.991 372.978 399.323 372.978 399.323L330.418 402.205V422.418C332.214 421.655 334.159 421.324 336.107 421.339Z" fill="#A86345"/>
<path d="M332.602 464.383C332.367 459.009 332.329 453.629 332.408 448.251C332.487 442.847 332.77 437.456 332.926 432.054C333.216 422.057 332.963 412.054 332.582 402.062L330.414 402.208V465.323C330.414 465.323 330.561 467.629 332.94 470.116C332.805 468.207 332.685 466.296 332.602 464.383Z" fill="#A86345"/>
<path opacity="0.39" d="M335.721 435.722C335.647 434.02 335.606 432.302 335.259 430.628C335.023 429.488 334.54 427.661 333.147 427.464C331.423 427.222 330.217 429.876 330.303 431.27C330.32 431.553 330.723 431.387 330.745 431.176C330.835 430.323 331.568 428.562 332.458 428.251C333.287 427.962 333.793 429.076 334.003 429.683C334.603 431.413 334.582 433.362 334.593 435.171C334.607 437.531 334.849 439.899 334.645 442.256C334.517 443.739 334.116 445.146 333.494 446.495C332.894 447.796 332.053 449.015 331.531 450.347C331.454 450.542 331.737 450.534 331.826 450.433C333.561 448.446 335.277 446.094 335.772 443.456C336.254 440.886 335.833 438.304 335.721 435.722Z" fill="#884F07"/>
<path opacity="0.39" d="M338.97 427.47C338.758 425.735 338.369 422.791 336.43 422.076C333.443 420.973 331.51 425.374 330.683 427.434C330.629 427.569 330.846 427.535 330.888 427.438C331.575 425.828 334.379 421.188 336.528 423.16C338.001 424.514 338.138 427.313 338.264 429.16C338.411 431.307 338.354 433.469 338.339 435.618C338.31 439.74 338.185 443.89 337.416 447.95C336.939 450.465 336.076 452.749 334.957 455.044C334.078 456.846 332.749 458.505 332.196 460.447C332.129 460.681 332.451 460.594 332.519 460.454C333.502 458.399 335.03 456.667 336.024 454.603C336.972 452.632 337.723 450.649 338.161 448.501C339.115 443.835 339.197 439.057 339.205 434.31C339.209 432.027 339.248 429.74 338.97 427.47Z" fill="#884F07"/>
<path opacity="0.39" d="M344.06 434.834C343.666 430.482 342.182 426.301 340.094 422.48C338.91 420.313 337.472 418.325 336.126 416.26C335.417 415.172 334.744 414.043 334.332 412.805C333.884 411.459 333.864 410.014 333.501 408.646C333.472 408.537 333.297 408.636 333.312 408.729C333.51 409.956 333.332 411.181 333.464 412.412C333.577 413.472 333.966 414.456 334.438 415.403C335.432 417.396 336.868 419.168 338.017 421.075C340.34 424.931 342.239 429.068 343.004 433.532C343.85 438.466 343.163 443.561 342.207 448.426C341.754 450.733 341.436 453.075 340.837 455.351C340.353 457.193 339.617 458.788 338.572 460.371C336.808 463.047 333.668 466.722 335.135 470.159C335.303 470.553 336.011 470.184 335.868 469.838C334.483 466.505 337.515 462.934 339.218 460.306C341.392 456.953 341.897 453.153 342.63 449.298C343.539 444.525 344.504 439.723 344.06 434.834Z" fill="#884F07"/>
<path opacity="0.39" d="M347.472 428.47C346.998 424.098 346.183 419.765 345.537 415.415C345.504 415.193 345.096 415.37 345.111 415.554C345.395 419.23 346.074 422.857 346.534 426.512C347.023 430.404 347.136 434.269 346.814 438.18C346.497 442.049 345.852 445.86 345.01 449.647C344.212 453.232 343.301 456.784 342.712 460.412C342.372 462.505 341.935 464.581 341.589 466.673C341.271 468.593 341.383 470.611 340.892 472.493C340.804 472.829 341.299 472.747 341.377 472.501C341.862 470.966 341.872 469.357 342.133 467.78C342.446 465.876 342.938 464.003 343.328 462.114C344.11 458.321 344.9 454.542 345.766 450.767C347.456 443.39 348.292 436.023 347.472 428.47Z" fill="#884F07"/>
<path opacity="0.39" d="M348.661 416.236C348.192 412.424 347.699 408.572 347.586 404.73C347.579 404.532 347.273 404.641 347.268 404.798C347.061 411.415 347.93 417.889 348.633 424.453C349.35 431.158 349.28 437.783 348.748 444.5C348.456 448.167 348.154 451.832 347.902 455.502C347.886 455.728 348.245 455.6 348.264 455.426C348.998 448.897 349.873 442.392 350.092 435.817C350.311 429.219 349.465 422.767 348.661 416.236Z" fill="#884F07"/>
<path opacity="0.39" d="M353.481 465.206C353.428 463.274 353.238 461.13 351.889 459.622C351.706 459.419 351.385 459.447 351.179 459.61C349.665 460.795 349.838 463.065 349.668 464.794C349.382 467.696 349.49 470.566 349.816 473.459C349.828 473.567 350.018 473.479 350.018 473.394C350.013 470.778 350.122 468.136 350.427 465.537C350.539 464.582 350.672 463.625 350.799 462.67C350.879 462.069 350.973 461.288 351.311 460.72C352.414 462.17 352.625 464.157 352.749 465.924C352.883 467.868 352.699 469.948 353.369 471.808C353.456 472.051 353.842 471.833 353.802 471.618C353.411 469.508 353.54 467.339 353.481 465.206Z" fill="#884F07"/>
<path opacity="0.39" d="M356.809 457.973C356.737 453.799 356.519 449.621 356.3 445.452C355.856 436.967 355.191 428.507 354.543 420.037C354.176 415.247 353.838 410.452 353.814 405.646C353.813 405.357 353.35 405.512 353.35 405.745C353.332 414.35 353.908 422.907 354.508 431.487C355.107 440.047 355.584 448.644 355.832 457.223C355.9 459.567 355.937 461.913 355.885 464.258C355.837 466.46 355.596 468.651 355.962 470.839C356.032 471.261 356.757 470.886 356.706 470.513C356.422 468.428 356.674 466.341 356.753 464.252C356.834 462.161 356.845 460.065 356.809 457.973Z" fill="#884F07"/>
<path opacity="0.39" d="M363.434 401.551C363.431 401.191 362.854 401.384 362.856 401.673C362.883 406.059 362.401 410.464 362.128 414.839C361.853 419.245 361.797 423.665 361.743 428.077C361.633 436.901 361.728 445.73 361.796 454.554C361.834 459.6 361.79 464.653 361.927 469.696C361.942 470.236 362.778 469.939 362.788 469.513C362.99 460.593 362.74 451.651 362.736 442.728C362.732 433.95 362.62 425.143 362.995 416.373C363.208 411.426 363.463 406.506 363.434 401.551Z" fill="#884F07"/>
<path opacity="0.39" d="M371.573 405.29C371.535 404.944 370.979 405.254 370.955 405.49C370.735 407.681 370.845 409.921 370.746 412.122C370.646 414.312 370.491 416.502 370.309 418.687C369.952 423.003 369.47 427.308 368.934 431.605C368.393 435.95 367.802 440.287 367.299 444.635C366.798 448.946 366.46 453.266 366.072 457.587C365.675 462.027 365.248 466.504 365.971 470.934C366.03 471.295 366.645 470.973 366.605 470.656C366.082 466.54 366.535 462.368 366.986 458.267C367.453 454.026 367.888 449.782 368.384 445.544C369.394 436.911 370.616 428.308 371.195 419.632C371.356 417.202 371.469 414.769 371.539 412.335C371.608 410.014 371.821 407.604 371.573 405.29Z" fill="#884F07"/>
<path opacity="0.46" d="M347.81 401.029C347.266 406.504 347.023 412.015 347.449 417.509C347.883 423.09 348.764 428.626 349.131 434.211C349.315 437.009 349.297 439.789 349.2 442.589C349.105 445.336 348.957 448.059 348.428 450.761C347.932 453.295 347.182 455.777 346.774 458.329C346.353 460.963 346.464 463.64 346.703 466.286C346.992 469.477 347.471 472.674 347.637 475.875C364.099 477.621 370.099 469.274 371.406 465.876C372.716 462.47 372.978 399.323 372.978 399.323L347.81 401.029Z" fill="#A86345"/>
<path opacity="0.46" d="M364.36 399.906C364.006 404.315 362.656 408.619 361.746 412.956C361.167 415.718 360.858 418.503 360.81 421.325C360.761 424.216 360.924 427.103 361.024 429.992C361.123 432.828 361.021 435.647 360.997 438.484C360.972 441.41 361.078 444.337 361.221 447.259C361.508 453.078 361.997 458.895 361.688 464.723C361.615 466.106 361.566 467.502 361.41 468.878C361.266 470.152 361.057 471.419 360.864 472.687C360.753 473.417 360.645 474.155 360.553 474.895C367.493 472.72 370.522 468.172 371.405 465.876C372.716 462.47 372.977 399.323 372.977 399.323L364.36 399.906Z" fill="#A86345"/>
<path d="M549.213 283.113V346.228C549.213 346.228 549.746 354.967 566.306 356.77C582.866 358.574 588.892 350.189 590.202 346.784C591.512 343.378 591.774 280.231 591.774 280.231L549.213 283.113Z" fill="#A86345"/>
<path d="M570.82 357.562C569.395 357.562 567.874 357.481 566.247 357.303C549.442 355.473 548.711 346.647 548.688 346.272L548.687 283.125C548.687 282.85 548.901 282.621 549.175 282.603L591.735 279.721C591.885 279.708 592.023 279.761 592.129 279.861C592.235 279.961 592.295 280.1 592.295 280.245C592.283 282.827 592.017 343.527 590.688 346.983C590.24 348.151 586.139 357.562 570.82 357.562ZM549.736 283.615V346.241C549.741 346.29 550.5 354.536 566.362 356.263C584.683 358.249 589.252 347.808 589.712 346.609C590.748 343.917 591.168 298.744 591.247 280.806L549.736 283.615Z" fill="#884F07"/>
<path opacity="0.46" d="M566.17 318.715C569.89 315.782 573.728 312.991 577.537 310.177C581.715 307.091 586.073 303.973 590.901 301.986C591.132 301.891 591.368 301.797 591.608 301.705C591.733 289.826 591.773 280.267 591.773 280.267L549.213 283.149V334.496C554.275 328.65 560.108 323.494 566.17 318.715Z" fill="#A86345"/>
<path d="M551.397 345.309C551.162 339.935 551.124 334.555 551.203 329.177C551.282 323.773 551.565 318.381 551.72 312.98C552.01 302.981 551.757 292.98 551.377 282.987L549.208 283.134V346.249C549.208 346.249 549.355 348.554 551.735 351.042C551.6 349.132 551.481 347.221 551.397 345.309Z" fill="#A86345"/>
<path opacity="0.39" d="M554.516 316.648C554.441 314.946 554.401 313.228 554.054 311.554C553.818 310.414 553.335 308.586 551.942 308.39C550.218 308.148 549.012 310.802 549.098 312.196C549.115 312.479 549.518 312.313 549.54 312.102C549.63 311.249 550.363 309.488 551.253 309.177C552.082 308.888 552.588 310.001 552.798 310.609C553.398 312.339 553.377 314.288 553.388 316.097C553.402 318.457 553.644 320.825 553.44 323.181C553.312 324.664 552.911 326.072 552.29 327.421C551.69 328.722 550.848 329.941 550.327 331.272C550.25 331.467 550.533 331.46 550.622 331.359C552.357 329.372 554.073 327.019 554.569 324.382C555.05 321.812 554.629 319.229 554.516 316.648Z" fill="#884F07"/>
<path opacity="0.39" d="M557.765 308.396C557.553 306.661 557.164 303.718 555.225 303.002C552.238 301.899 550.306 306.301 549.478 308.36C549.423 308.494 549.641 308.462 549.683 308.364C550.369 306.753 553.175 302.114 555.322 304.086C556.796 305.439 556.933 308.239 557.059 310.086C557.206 312.232 557.149 314.395 557.134 316.543C557.104 320.665 556.98 324.816 556.21 328.876C555.734 331.39 554.87 333.675 553.752 335.969C552.872 337.772 551.544 339.429 550.99 341.373C550.924 341.607 551.246 341.52 551.314 341.379C552.297 339.324 553.824 337.594 554.819 335.528C555.767 333.558 556.518 331.574 556.956 329.427C557.909 324.759 557.992 319.983 558 315.236C558.003 312.954 558.043 310.667 557.765 308.396Z" fill="#884F07"/>
<path opacity="0.39" d="M562.86 315.76C562.464 311.408 560.98 307.227 558.893 303.406C557.709 301.239 556.272 299.251 554.926 297.186C554.217 296.098 553.544 294.969 553.131 293.731C552.683 292.385 552.663 290.94 552.3 289.572C552.272 289.463 552.096 289.562 552.111 289.654C552.309 290.882 552.131 292.107 552.263 293.339C552.375 294.399 552.766 295.383 553.237 296.329C554.232 298.322 555.668 300.094 556.816 302.001C559.139 305.857 561.038 309.994 561.804 314.458C562.65 319.391 561.962 324.487 561.006 329.352C560.553 331.659 560.236 334.001 559.637 336.277C559.153 338.118 558.417 339.714 557.372 341.297C555.607 343.973 552.467 347.648 553.934 351.085C554.102 351.479 554.812 351.109 554.667 350.764C553.282 347.431 556.315 343.859 558.018 341.232C560.191 337.879 560.696 334.079 561.428 330.224C562.339 325.45 563.302 320.647 562.86 315.76Z" fill="#884F07"/>
<path opacity="0.39" d="M566.27 309.396C565.796 305.024 564.981 300.69 564.335 296.341C564.302 296.119 563.894 296.295 563.909 296.479C564.193 300.156 564.872 303.781 565.332 307.438C565.821 311.33 565.934 315.195 565.613 319.106C565.295 322.975 564.651 326.786 563.809 330.573C563.011 334.158 562.1 337.71 561.511 341.338C561.171 343.431 560.734 345.507 560.388 347.597C560.07 349.518 560.182 351.535 559.691 353.419C559.603 353.754 560.098 353.673 560.176 353.427C560.661 351.892 560.671 350.283 560.932 348.705C561.247 346.801 561.737 344.927 562.127 343.038C562.909 339.246 563.699 335.467 564.565 331.692C566.254 324.316 567.09 316.949 566.27 309.396Z" fill="#884F07"/>
<path opacity="0.39" d="M567.456 297.162C566.987 293.349 566.494 289.498 566.38 285.656C566.374 285.457 566.068 285.567 566.063 285.723C565.855 292.339 566.725 298.814 567.427 305.377C568.145 312.083 568.075 318.708 567.541 325.424C567.25 329.092 566.947 332.757 566.695 336.427C566.679 336.654 567.038 336.525 567.058 336.35C567.793 329.822 568.667 323.316 568.886 316.742C569.107 310.146 568.261 303.694 567.456 297.162Z" fill="#884F07"/>
<path opacity="0.39" d="M572.276 346.132C572.223 344.2 572.033 342.056 570.684 340.548C570.501 340.344 570.18 340.373 569.974 340.536C568.46 341.721 568.632 343.992 568.463 345.72C568.177 348.623 568.285 351.492 568.611 354.385C568.623 354.492 568.813 354.405 568.813 354.319C568.808 351.704 568.917 349.061 569.222 346.463C569.334 345.507 569.467 344.55 569.594 343.596C569.674 342.996 569.768 342.214 570.106 341.646C571.209 343.097 571.42 345.083 571.544 346.85C571.678 348.793 571.494 350.874 572.164 352.734C572.251 352.977 572.636 352.759 572.597 352.544C572.204 350.433 572.334 348.265 572.276 346.132Z" fill="#884F07"/>
<path opacity="0.39" d="M575.604 338.88C575.532 334.706 575.314 330.528 575.095 326.36C574.651 317.876 573.986 309.415 573.338 300.945C572.971 296.155 572.633 291.36 572.609 286.554C572.608 286.265 572.145 286.421 572.145 286.653C572.126 295.259 572.703 303.815 573.303 312.395C573.902 320.955 574.379 329.553 574.627 338.131C574.695 340.475 574.732 342.821 574.68 345.166C574.632 347.368 574.391 349.559 574.757 351.747C574.827 352.169 575.552 351.794 575.501 351.421C575.217 349.337 575.469 347.25 575.548 345.16C575.629 343.068 575.641 340.971 575.604 338.88Z" fill="#884F07"/>
<path opacity="0.39" d="M582.228 282.476C582.226 282.117 581.649 282.309 581.65 282.598C581.678 286.984 581.196 291.389 580.923 295.764C580.648 300.17 580.592 304.59 580.538 309.002C580.428 317.827 580.523 326.655 580.591 335.479C580.629 340.525 580.585 345.578 580.722 350.621C580.737 351.161 581.573 350.866 581.582 350.439C581.784 341.519 581.534 332.576 581.531 323.653C581.527 314.875 581.414 306.068 581.79 297.298C582.004 292.35 582.259 287.431 582.228 282.476Z" fill="#884F07"/>
<path opacity="0.39" d="M590.369 286.198C590.331 285.852 589.775 286.162 589.751 286.398C589.531 288.589 589.641 290.829 589.541 293.029C589.441 295.22 589.285 297.409 589.104 299.595C588.747 303.911 588.264 308.216 587.728 312.514C587.187 316.859 586.598 321.196 586.093 325.544C585.593 329.855 585.255 334.175 584.867 338.497C584.469 342.937 584.042 347.415 584.766 351.844C584.825 352.203 585.44 351.882 585.399 351.566C584.877 347.45 585.33 343.278 585.781 339.177C586.248 334.936 586.682 330.692 587.179 326.454C588.189 317.821 589.41 309.218 589.989 300.542C590.151 298.112 590.264 295.679 590.334 293.245C590.403 290.921 590.617 288.512 590.369 286.198Z" fill="#884F07"/>
<path opacity="0.46" d="M566.605 281.954C566.061 287.431 565.818 292.941 566.244 298.435C566.678 304.015 567.558 309.551 567.926 315.136C568.11 317.935 568.091 320.714 567.995 323.514C567.9 326.261 567.752 328.984 567.223 331.686C566.727 334.22 565.977 336.702 565.569 339.255C565.147 341.889 565.259 344.564 565.498 347.211C565.787 350.402 566.266 353.599 566.432 356.8C582.894 358.546 588.894 350.198 590.201 346.801C591.511 343.395 591.773 280.249 591.773 280.249L566.605 281.954Z" fill="#A86345"/>
<path opacity="0.46" d="M583.154 280.849C582.8 285.258 581.45 289.563 580.54 293.9C579.961 296.661 579.651 299.447 579.604 302.268C579.554 305.159 579.717 308.046 579.817 310.935C579.916 313.771 579.815 316.591 579.79 319.427C579.765 322.354 579.872 325.28 580.016 328.202C580.303 334.021 580.79 339.838 580.483 345.665C580.41 347.046 580.361 348.444 580.205 349.82C580.061 351.094 579.853 352.361 579.659 353.63C579.548 354.359 579.44 355.097 579.348 355.838C586.288 353.662 589.319 349.114 590.2 346.819C591.51 343.413 591.772 280.267 591.772 280.267L583.154 280.849Z" fill="#A86345"/>
<path d="M16.8674 249.475V312.59C16.8674 312.59 17.4009 321.329 33.9606 323.132C50.5204 324.937 56.5466 316.552 57.8568 313.146C59.167 309.74 59.4288 246.593 59.4288 246.593L16.8674 249.475Z" fill="#A86345"/>
<path d="M38.4765 323.923C37.0514 323.923 35.5301 323.841 33.9062 323.664C17.1007 321.834 16.3697 313.007 16.3474 312.633L16.3462 249.488C16.3462 249.212 16.5598 248.984 16.834 248.965L59.3941 246.083C59.5423 246.07 59.6818 246.124 59.788 246.224C59.8942 246.324 59.9535 246.462 59.9535 246.608C59.9436 249.19 59.6757 309.889 58.3469 313.347C57.8974 314.512 53.7964 323.923 38.4765 323.923ZM17.3934 249.977V312.601C17.3983 312.651 18.1578 320.896 34.0198 322.625C52.3405 324.615 56.9095 314.168 57.3701 312.97C58.4062 310.278 58.8261 265.105 58.9051 247.166L17.3934 249.977Z" fill="#884F07"/>
<path opacity="0.46" d="M21.3594 274.768C25.1813 273.86 29.2725 274.469 32.9512 275.703C34.9443 276.371 36.8188 277.286 38.6835 278.248C41.1273 279.51 43.465 280.974 45.684 282.598C50.1358 285.857 54.1096 289.732 57.6513 293.954C58.0538 294.433 58.4317 294.932 58.8244 295.421C59.3109 275.666 59.432 246.611 59.432 246.611L16.8718 249.494V276.856C18.2055 275.857 19.7367 275.153 21.3594 274.768Z" fill="#A86345"/>
<path d="M19.0588 311.654C18.8242 306.28 18.7859 300.899 18.8649 295.521C18.944 290.118 19.2267 284.726 19.3836 279.325C19.6738 269.327 19.4206 259.325 19.0403 249.332L16.8718 249.479V312.594C16.8718 312.594 17.0188 314.899 19.3984 317.386C19.2613 315.477 19.1415 313.567 19.0588 311.654Z" fill="#A86345"/>
<path opacity="0.39" d="M22.1789 282.992C22.1048 281.291 22.064 279.573 21.717 277.898C21.4812 276.759 20.9983 274.931 19.6054 274.735C17.8815 274.493 16.675 277.146 16.7614 278.541C16.7787 278.823 17.1813 278.658 17.2035 278.447C17.2937 277.593 18.026 275.833 18.9163 275.521C19.7449 275.232 20.2512 276.346 20.4611 276.954C21.0613 278.684 21.0403 280.633 21.0514 282.442C21.065 284.801 21.307 287.17 21.1033 289.526C20.9749 291.009 20.5748 292.417 19.9524 293.765C19.3522 295.067 18.5113 296.286 17.9889 297.617C17.9124 297.812 18.1951 297.805 18.2841 297.704C20.0191 295.717 21.7355 293.364 22.2307 290.726C22.7136 288.157 22.2925 285.573 22.1789 282.992Z" fill="#884F07"/>
<path opacity="0.39" d="M25.4283 274.74C25.2159 273.005 24.8269 270.063 22.8881 269.346C19.8997 268.244 17.9696 272.645 17.141 274.705C17.0867 274.839 17.304 274.807 17.346 274.708C18.0326 273.098 20.8382 268.459 22.9857 270.431C24.4589 271.784 24.596 274.584 24.7219 276.431C24.8689 278.577 24.8121 280.739 24.7972 282.888C24.7676 287.01 24.6429 291.161 23.8736 295.22C23.3969 297.734 22.5349 300.018 21.4149 302.313C20.5344 304.116 19.2069 305.773 18.6537 307.717C18.587 307.95 18.9093 307.864 18.9773 307.723C19.9602 305.668 21.4878 303.937 22.4818 301.872C23.4302 299.901 24.181 297.918 24.6194 295.77C25.5727 291.104 25.6555 286.326 25.6629 281.579C25.6666 279.297 25.7061 277.01 25.4283 274.74Z" fill="#884F07"/>
<path opacity="0.39" d="M30.5139 282.104C30.12 277.753 28.6344 273.571 26.5475 269.751C25.3632 267.583 23.9258 265.595 22.5798 263.531C21.871 262.443 21.198 261.314 20.7855 260.075C20.3373 258.729 20.3175 257.285 19.9545 255.916C19.9261 255.808 19.7507 255.906 19.7655 255.999C19.9631 257.226 19.7865 258.451 19.9174 259.684C20.031 260.743 20.42 261.728 20.8917 262.675C21.8871 264.668 23.322 266.44 24.4704 268.347C26.7932 272.203 28.6925 276.34 29.4581 280.804C30.304 285.737 29.6162 290.833 28.6604 295.698C28.2072 298.005 27.8898 300.347 27.2909 302.623C26.8068 304.464 26.0708 306.06 25.0261 307.643C23.2615 310.319 20.1212 313.994 21.587 317.431C21.7549 317.824 22.465 317.455 22.3205 317.11C20.935 313.777 23.9678 310.205 25.6707 307.577C27.8441 304.225 28.3492 300.425 29.0827 296.57C29.9928 291.796 30.956 286.993 30.5139 282.104Z" fill="#884F07"/>
<path opacity="0.39" d="M33.9292 275.741C33.455 271.368 32.6399 267.035 31.9941 262.686C31.9608 262.464 31.5532 262.64 31.5681 262.824C31.8521 266.5 32.5313 270.126 32.9907 273.782C33.4797 277.675 33.5933 281.54 33.2722 285.451C32.9536 289.32 32.3102 293.131 31.468 296.918C30.6703 300.503 29.759 304.054 29.1699 307.682C28.8303 309.776 28.3932 311.851 28.0474 313.942C27.7301 315.862 27.8412 317.88 27.3497 319.763C27.262 320.099 27.7572 320.018 27.835 319.772C28.3203 318.237 28.3302 316.628 28.5895 315.051C28.9044 313.147 29.3959 311.273 29.7849 309.384C30.5666 305.592 31.3569 301.813 32.2226 298.038C33.9131 290.661 34.7491 283.294 33.9292 275.741Z" fill="#884F07"/>
<path opacity="0.39" d="M35.1148 263.506C34.6456 259.694 34.1528 255.843 34.0392 252.001C34.0331 251.802 33.7268 251.912 33.7219 252.069C33.5144 258.685 34.3838 265.16 35.0864 271.723C35.8039 278.429 35.7335 285.054 35.2 291.77C34.9086 295.438 34.606 299.103 34.3541 302.773C34.3381 303 34.6974 302.87 34.7172 302.696C35.4519 296.168 36.3262 289.662 36.5448 283.088C36.7659 276.49 35.92 270.038 35.1148 263.506Z" fill="#884F07"/>
<path opacity="0.39" d="M39.9346 312.476C39.8815 310.543 39.6913 308.399 38.3428 306.893C38.16 306.689 37.839 306.717 37.6328 306.88C36.1188 308.066 36.2917 310.337 36.1213 312.064C35.836 314.966 35.9434 317.836 36.2694 320.73C36.2818 320.837 36.472 320.749 36.472 320.664C36.467 318.049 36.5757 315.406 36.8807 312.808C36.9931 311.852 37.1252 310.895 37.2524 309.94C37.3327 309.339 37.4265 308.559 37.7649 307.991C38.8676 309.44 39.0788 311.427 39.2023 313.194C39.3369 315.138 39.1529 317.219 39.8222 319.079C39.9099 319.322 40.2952 319.103 40.2556 318.888C39.8642 316.777 39.9926 314.608 39.9346 312.476Z" fill="#884F07"/>
<path opacity="0.39" d="M43.2582 305.243C43.1865 301.069 42.968 296.892 42.7494 292.723C42.3048 284.238 41.6405 275.778 40.9922 267.308C40.6254 262.518 40.287 257.723 40.2636 252.916C40.2623 252.627 39.7993 252.783 39.7993 253.015C39.7807 261.621 40.3574 270.178 40.9576 278.757C41.5565 287.318 42.0332 295.915 42.2814 304.492C42.3493 306.836 42.3863 309.182 42.3345 311.527C42.2863 313.729 42.0455 315.92 42.411 318.108C42.4814 318.53 43.2063 318.155 43.1557 317.782C42.8716 315.698 43.1236 313.611 43.2026 311.521C43.2829 309.432 43.2952 307.335 43.2582 305.243Z" fill="#884F07"/>
<path opacity="0.39" d="M49.8872 248.838C49.8847 248.479 49.3081 248.671 49.3093 248.96C49.3365 253.347 48.8549 257.752 48.5819 262.127C48.3066 266.533 48.251 270.952 48.1967 275.365C48.0868 284.189 48.1818 293.017 48.2498 301.842C48.288 306.887 48.2436 311.941 48.3807 316.984C48.3955 317.523 49.2315 317.227 49.2414 316.801C49.4427 307.882 49.1932 298.938 49.1895 290.015C49.1858 281.238 49.0734 272.431 49.4488 263.66C49.6625 258.712 49.9181 253.794 49.8872 248.838Z" fill="#884F07"/>
<path opacity="0.39" d="M58.0274 252.56C57.9904 252.214 57.4334 252.524 57.41 252.76C57.1902 254.951 57.3001 257.191 57.2 259.392C57.1 261.582 56.9444 263.772 56.7629 265.957C56.406 270.273 55.9232 274.578 55.3872 278.877C54.8464 283.221 54.2561 287.558 53.7523 291.906C53.2521 296.217 52.9138 300.538 52.526 304.859C52.1284 309.298 51.7011 313.776 52.4248 318.205C52.484 318.566 53.099 318.245 53.0583 317.927C52.5359 313.811 52.9891 309.639 53.4398 305.538C53.9066 301.297 54.3413 297.053 54.8377 292.815C55.8479 284.182 57.0691 275.58 57.6495 266.903C57.8113 264.473 57.9237 262.04 57.9941 259.606C58.062 257.284 58.2756 254.876 58.0274 252.56Z" fill="#884F07"/>
<path opacity="0.46" d="M34.2633 248.318C33.72 253.795 33.4767 259.305 33.9027 264.799C34.3362 270.379 35.2179 275.915 35.5847 281.5C35.7687 284.299 35.7514 287.078 35.6538 289.878C35.5587 292.625 35.4105 295.348 34.882 298.05C34.3856 300.584 33.636 303.066 33.2273 305.619C32.8062 308.253 32.9173 310.929 33.1569 313.574C33.4458 316.765 33.925 319.962 34.0904 323.163C50.5526 324.909 56.5529 316.561 57.8594 313.164C59.1696 309.758 59.4314 246.611 59.4314 246.611L34.2633 248.318Z" fill="#A86345"/>
<path opacity="0.46" d="M50.8142 247.195C50.4598 251.604 49.1101 255.909 48.2 260.246C47.6208 263.007 47.3109 265.793 47.2639 268.614C47.2145 271.505 47.3775 274.392 47.4776 277.28C47.5764 280.116 47.4751 282.935 47.4504 285.772C47.4257 288.699 47.5319 291.624 47.6764 294.547C47.9629 300.366 48.4507 306.183 48.1432 312.009C48.0703 313.391 48.0209 314.789 47.8653 316.165C47.7208 317.439 47.5134 318.706 47.3195 319.974C47.2084 320.704 47.0997 321.441 47.0071 322.182C53.9471 320.006 56.9775 315.457 57.8592 313.164C59.1694 309.758 59.4312 246.611 59.4312 246.611L50.8142 247.195Z" fill="#A86345"/>
<path d="M13.5549 233.838V262.795L354.394 424.311V250.571L13.5549 233.838Z" fill="#A86345"/>
<path d="M354.395 424.847C354.319 424.847 354.242 424.831 354.171 424.796L13.3325 263.28C13.1498 263.193 13.0337 263.009 13.0337 262.807V233.85C13.0337 233.707 13.0917 233.57 13.1967 233.471C13.3004 233.372 13.4412 233.318 13.5832 233.327L354.42 250.06C354.699 250.074 354.918 250.305 354.918 250.583V424.323C354.918 424.502 354.825 424.669 354.674 424.765C354.589 424.819 354.492 424.847 354.395 424.847ZM14.0796 262.475L353.87 423.494V251.08L14.0796 234.4V262.475Z" fill="#854B20"/>
<path opacity="0.6" d="M283.28 385.676C260.402 372.819 56.2386 277.008 43.5181 272.902C37.5227 270.967 31.3854 269.343 25.5394 266.984C21.6656 265.422 17.6831 263.572 13.5549 262.582V262.817L354.394 424.334V423.487C334.757 410.684 303.732 397.172 283.28 385.676Z" fill="#A86345"/>
<path opacity="0.53" d="M16.6245 233.997C17.4 234.64 18.1718 235.286 18.9535 235.922C39.8081 252.861 62.835 266.897 86.6743 279.202C110.583 291.545 135.313 302.151 159.961 312.901C186.417 324.44 213.236 335.119 239.696 346.649C253.015 352.453 266.246 358.472 279.265 364.924C290.318 370.401 301.869 375.711 311.327 383.772C321.147 392.142 327.677 402.929 333.245 414.298L354.393 424.319V250.579L16.6245 233.997Z" fill="#A86345"/>
<path d="M596.471 262.453L354.392 250.568V424.309L596.471 291.41V262.453Z" fill="#995A3E"/>
<path d="M354.394 424.845C354.302 424.845 354.21 424.82 354.128 424.772C353.968 424.678 353.871 424.506 353.871 424.321V250.581C353.871 250.438 353.93 250.301 354.034 250.202C354.138 250.103 354.275 250.047 354.42 250.057L596.5 261.942C596.779 261.955 596.998 262.185 596.998 262.464V291.421C596.998 291.612 596.894 291.788 596.726 291.88L354.646 424.78C354.567 424.822 354.481 424.845 354.394 424.845ZM354.918 251.132V423.436L595.949 291.112V262.963L354.918 251.132Z" fill="#814D1E"/>
<path opacity="0.6" d="M362.844 416.388C359.931 418.608 357.162 420.985 354.388 423.36V424.321L588.181 295.972C555.222 302.988 370.776 410.342 362.844 416.388Z" fill="#A86345"/>
<path opacity="0.53" d="M354.438 422.644C356.873 407.508 369.517 396.404 381.449 388.106C394.371 379.118 408.546 372.085 421.933 363.839C443.129 350.785 464.777 338.472 486.774 326.821C508.693 315.212 530.958 304.261 553.508 293.931C566.581 287.944 581.903 280.398 596.467 281.658V262.47L354.388 250.586V422.996C354.407 422.879 354.42 422.762 354.438 422.644Z" fill="#A86345"/>
<path d="M13.5549 233.844L354.394 395.36L596.473 262.461L248.613 130.24L13.5549 233.844Z" fill="#91523A"/>
<path d="M354.395 395.894C354.319 395.894 354.242 395.877 354.171 395.843L13.3326 234.327C13.1474 234.239 13.0301 234.052 13.0338 233.847C13.0362 233.642 13.1585 233.458 13.3462 233.375L248.404 129.771C248.53 129.717 248.674 129.713 248.802 129.761L596.663 261.982C596.854 262.055 596.985 262.232 596.999 262.435C597.013 262.639 596.907 262.832 596.728 262.931L354.647 395.83C354.568 395.873 354.482 395.894 354.395 395.894ZM14.8157 233.871L354.378 394.784L595.229 262.559L248.629 130.816L14.8157 233.871Z" fill="#884F07"/>
<path opacity="0.53" d="M40.2583 239.68L356.831 388.157L588.188 266.808L248.615 130.24L40.2583 239.68Z" fill="#A86345"/>
<path d="M15.2459 234.701L1.30536 125.674C1.30536 125.674 -5.93845 87.4357 22.6466 52.5738C46.6378 23.3158 166.803 -13.1922 205.685 5.78791C207.729 6.78569 230.029 15.9584 231.597 17.2711C263.016 43.5703 228.448 127.296 228.448 127.296L40.7487 245.981L15.2459 234.701Z" fill="#A86345"/>
<path d="M40.7449 246.493C40.6733 246.493 40.6005 246.478 40.5338 246.449L15.031 235.168C14.8631 235.094 14.747 234.937 14.7236 234.756L0.78176 125.727C0.713842 125.374 -6.17432 86.8789 22.2378 52.2294C33.6172 38.353 68.2581 21.6118 108.439 10.5744C151.819 -1.34341 188.256 -3.31304 205.911 5.30519C206.531 5.60773 209.121 6.70677 212.398 8.09725C222.088 12.2094 230.873 15.9745 231.929 16.8575C244.93 27.7405 248.522 50.3474 242.314 82.2345C237.644 106.227 229.015 127.274 228.928 127.485C228.888 127.585 228.816 127.671 228.725 127.729L41.0253 246.413C40.9401 246.466 40.8425 246.493 40.7449 246.493ZM15.7238 234.33L40.7017 245.377L228.023 126.931C228.813 124.981 236.85 104.835 241.291 82.0184C249.03 42.2441 240.106 25.067 231.257 17.6602C230.235 16.8044 218.813 11.9575 211.989 9.06169C208.697 7.66504 206.098 6.56106 205.452 6.24616C188.02 -2.26216 151.857 -0.267825 108.716 11.5846C68.7273 22.5688 34.3001 39.1705 23.0479 52.8937C-5.04441 87.1518 1.74373 125.184 1.81535 125.563L15.7238 234.33Z" fill="#854B20"/>
<path d="M19.4164 231.231C15.7068 208.046 12.1269 184.841 8.81864 161.596C7.17378 150.038 5.59561 138.469 4.1014 126.89C2.88258 117.445 3.03941 108.055 4.87814 98.6949C8.51486 80.1742 17.8394 63.2131 31.2083 49.9468C44.2548 37.0016 60.5934 28.2635 77.4582 21.342C79.4624 20.5196 81.4765 19.7206 83.4968 18.939C55.6613 28.8007 31.9381 41.2187 22.6468 52.5499C-5.9394 87.4106 1.30563 125.65 1.30563 125.65L15.2462 234.677L20.3327 236.927C20.0264 235.028 19.7202 233.13 19.4164 231.231Z" fill="#A86345"/>
<path opacity="0.53" d="M231.595 17.2459C230.757 16.5457 224.014 13.6055 217.597 10.864C211.659 9.84279 205.746 8.64989 199.753 7.97935C191.47 7.05196 183.174 7.72497 174.944 8.86847C166.845 9.99468 158.758 11.3802 150.711 12.8374C142.765 14.276 134.858 15.9431 127.021 17.893C111.352 21.7902 95.8529 26.7915 81.1085 33.4117C74.1178 36.5508 67.4149 40.3295 61.1775 44.7849C54.9364 49.2429 49.5573 54.6998 43.6471 59.5603C41.1959 61.5768 38.5286 63.9972 35.4821 65.0345C32.8679 65.9249 30.0227 65.731 27.3899 65.0345C23.6841 64.054 20.2548 62.2215 17.033 60.0826C7.92947 73.5959 3.66914 87.166 1.802 98.4281C7.12063 100.604 12.5578 102.687 16.1303 107.293C19.1632 111.203 19.998 116.272 20.4388 121.071C20.8031 125.04 20.8179 129.037 21.2909 132.995C21.8256 137.461 22.4319 141.921 22.9938 146.383C23.8545 153.228 24.6732 160.079 25.3956 166.942C26.1378 173.999 26.7997 181.072 27.1775 188.159C27.3344 191.097 27.443 194.04 27.4245 196.983C27.4109 199.178 27.3443 201.39 27.0182 203.565C26.8404 204.749 26.6219 206.265 25.7587 207.177C24.5633 208.44 22.3689 207.249 21.2971 206.41C18.8755 204.512 17.2133 201.628 15.7845 198.96C13.994 195.614 12.5133 192.104 11.1636 188.561C10.114 185.802 9.14583 183.011 8.27401 180.191L15.24 234.675L40.7427 245.956L228.442 127.271C228.446 127.272 263.014 43.5451 231.595 17.2459Z" fill="#A86345"/>
<path opacity="0.49" d="M8.76674 85.0248C12.3911 85.7139 16.0711 86.5795 19.3991 88.2157C20.7858 88.8974 22.1603 89.7235 23.1951 90.8892C24.2089 92.0315 24.9264 93.3973 25.4537 94.8236C26.6602 98.0874 26.9466 101.656 27.1245 105.103C27.2615 107.754 27.2541 110.426 27.4665 113.076C28.284 110.018 28.9323 106.918 29.5955 103.823C30.2882 100.589 31.0255 97.3588 32.0628 94.2148C33.0667 91.1696 34.3683 88.2503 35.9341 85.4533C38.8311 80.2804 42.4234 75.4829 44.9067 70.084C41.7059 71.0151 39.5844 73.959 37.0838 76.0028C35.902 76.9684 34.5831 77.8008 33.084 78.1613C31.7392 78.4849 30.2784 78.4688 28.9052 78.3947C25.6599 78.2206 22.4418 77.4883 19.3534 76.5017C16.1069 75.4644 12.9406 74.1097 9.9868 72.4056C8.02952 76.4967 6.45999 80.5237 5.20288 84.4209C6.39331 84.6062 7.58249 84.8001 8.76674 85.0248Z" fill="#A86345"/>
<path d="M40.7481 245.955L26.8076 136.927C26.8076 136.927 19.5625 98.6893 48.1488 63.8274C73.4008 33.0319 205.2 -5.79641 236.619 20.5028C268.038 46.8021 253.95 138.551 253.95 138.551L40.7481 245.955Z" fill="#A86345"/>
<path d="M40.7442 246.492C40.659 246.492 40.575 246.472 40.4984 246.43C40.349 246.35 40.2465 246.203 40.2243 246.034L26.2837 137.006C26.2158 136.653 19.3276 98.1579 47.7398 63.5084C65.017 42.4376 132.972 16.9732 184.935 12.0979C209.902 9.75408 227.888 12.5276 236.951 20.1135C253.332 33.8256 257.215 65.357 257.587 89.3927C257.989 115.361 254.501 138.412 254.465 138.642C254.439 138.809 254.334 138.953 254.183 139.03L40.9813 246.434C40.9059 246.473 40.8257 246.492 40.7442 246.492ZM201.123 12.3337C196.153 12.3337 190.783 12.6017 185.032 13.1414C133.291 17.9957 65.6875 43.2737 48.5498 64.1728C20.4588 98.4308 27.2457 136.463 27.3173 136.843L41.169 245.168L253.468 138.219C254.266 132.727 266.281 46.0311 236.279 20.9174C229.496 15.2382 217.486 12.3337 201.123 12.3337Z" fill="#854B20"/>
<path d="M229.907 35.2572C226.277 32.2182 221.16 30.1436 214.963 28.8853C217.609 29.9682 219.918 31.2859 221.814 32.8727C250.307 56.7232 236.694 122.111 236.694 122.111L48.0759 206.898L48.8045 212.595L244.789 124.496C244.789 124.496 258.401 59.1077 229.907 35.2572Z" fill="#6A3C26"/>
<path d="M48.806 213.131C48.7183 213.131 48.6294 213.109 48.5503 213.064C48.4059 212.983 48.3083 212.838 48.2873 212.674L47.5587 206.978C47.5303 206.749 47.6538 206.528 47.8637 206.434L236.236 121.756C236.665 119.583 239.565 104.173 239.417 86.4337C239.271 68.9157 236.041 45.4752 221.479 33.2857C219.686 31.7853 217.428 30.4714 214.766 29.381C214.517 29.2785 214.385 29.0031 214.464 28.7438C214.543 28.4845 214.803 28.3338 215.069 28.382C221.577 29.7045 226.683 31.8853 230.246 34.8663C238.455 41.7372 248.295 56.6768 248.559 88.8269C248.716 107.99 245.337 124.449 245.304 124.614C245.269 124.777 245.158 124.915 245.006 124.984L49.0208 213.084C48.9517 213.116 48.8788 213.131 48.806 213.131ZM48.6454 207.23L49.2357 211.841L244.329 124.142C244.758 121.969 247.659 106.559 247.512 88.8195C247.366 71.3014 244.136 47.861 229.574 35.6727C227.024 33.5388 223.63 31.826 219.45 30.5591C220.437 31.1604 221.34 31.8038 222.152 32.4842C230.36 39.3551 240.201 54.2947 240.465 86.4448C240.622 105.608 237.244 122.067 237.209 122.23C237.175 122.393 237.065 122.533 236.911 122.601L48.6454 207.23Z" fill="#64280D"/>
<path d="M221.813 32.8846C219.917 31.2978 217.608 29.9801 214.961 28.8972C172.514 20.2802 78.9654 50.1914 58.9826 74.5605C33.0575 106.176 39.6283 140.855 39.6283 140.855L48.0749 206.911L236.693 122.123C236.693 122.123 250.306 56.7351 221.813 32.8846Z" fill="#D5673D"/>
<path d="M48.0732 207.438C47.9855 207.438 47.8966 207.416 47.8176 207.371C47.6731 207.29 47.5755 207.145 47.5545 206.981L39.108 140.925C39.0475 140.607 32.7953 105.674 58.5771 74.2327C68.1499 62.5593 94.9023 49.0065 128.396 38.862C163.138 28.3384 195.538 24.4238 215.066 28.3878C215.098 28.3952 215.13 28.4038 215.16 28.4162C217.921 29.5485 220.272 30.918 222.148 32.4876C230.356 39.3584 240.197 54.298 240.461 86.4481C240.618 105.611 237.24 122.071 237.205 122.234C237.17 122.397 237.06 122.536 236.907 122.604L48.2881 207.392C48.2189 207.423 48.146 207.438 48.0732 207.438ZM197.537 27.8926C150.856 27.8926 76.6483 53.8448 59.3859 74.8958C33.9252 105.946 40.0761 140.416 40.1403 140.761L48.5017 206.147L236.229 121.759C237.115 117.234 248.498 55.9095 221.474 33.289C219.692 31.7973 217.448 30.4895 214.807 29.4028C209.7 28.3705 203.868 27.8926 197.537 27.8926Z" fill="#5F370D"/>
<g opacity="0.48">
<path d="M79.2605 174.452C78.327 164.817 77.1143 155.212 75.8399 145.616C74.5643 136.011 73.3467 126.397 72.034 116.797C70.7213 107.196 69.2901 97.6108 68.0478 87.9998C67.1908 81.366 66.4301 74.7174 65.8683 68.0527C63.0663 70.2471 60.7361 72.4279 58.9826 74.5655C33.0575 106.181 39.6283 140.86 39.6283 140.86L48.0749 206.916L80.6115 192.29C80.3052 186.334 79.836 180.387 79.2605 174.452Z" fill="#D5673D"/>
<path d="M120.007 171.657C119.259 166.887 118.553 162.119 117.906 157.334C116.622 147.832 115.777 138.279 114.835 128.738C113.864 118.912 112.623 109.124 111.26 99.3466C109.909 89.6442 108.452 79.9578 106.984 70.2738C105.86 62.8633 104.74 55.4516 103.642 48.0361C89.4346 53.6832 77.0043 59.9799 68.291 66.2383C68.885 74.2329 69.842 82.2003 70.9497 90.1394C72.2871 99.7282 73.8393 109.284 75.257 118.861C76.6598 128.342 77.8132 137.854 79.0221 147.359C80.2644 157.117 81.5302 166.872 82.8885 176.616C83.5294 181.204 84.1913 185.791 84.8816 190.372L120.423 174.395C120.288 173.481 120.15 172.569 120.007 171.657Z" fill="#D5673D"/>
<path d="M152.69 142.699C151.434 122.891 150.166 103.066 148.231 83.3095C146.662 67.277 144.575 51.273 143.571 35.1924C131.068 38.3487 118.615 42.2806 107.171 46.6545C107.988 54.7146 108.866 62.7685 109.794 70.8162C111.976 89.7234 114.43 108.597 117.002 127.454C119.077 142.662 121.228 157.858 123.377 173.056L153.739 159.408C153.39 153.838 153.043 148.268 152.69 142.699Z" fill="#D5673D"/>
<path d="M194.043 132.474C192.319 113.336 190.501 94.2065 188.751 75.0708C187.316 59.3767 185.936 43.6765 184.684 27.9663C172.625 28.995 159.422 31.3178 146.197 34.5383C146.701 44.4396 147.588 54.3174 148.529 64.1853C149.53 74.6769 150.455 85.166 151.237 95.6772C152.023 106.255 152.794 116.834 153.644 127.407C154.468 137.677 155.372 147.944 156.431 158.192L194.791 140.948C194.543 138.123 194.297 135.298 194.043 132.474Z" fill="#D5673D"/>
<path d="M221.814 32.881C219.918 31.2942 217.609 29.9766 214.962 28.8936C207.743 27.4278 199.046 27.0808 189.486 27.6291C189.557 35.9978 190.076 44.3592 190.798 52.6947C191.574 61.6463 192.581 70.5745 193.538 79.5076C194.492 88.4049 195.23 97.3072 195.788 106.238C196.35 115.229 196.805 124.226 197.379 133.216C197.515 135.344 197.659 137.47 197.811 139.597L236.694 122.118C236.694 122.118 250.307 56.7315 221.814 32.881Z" fill="#D5673D"/>
</g>
<g opacity="0.48">
<path d="M58.0431 128.265C57.2083 122.43 56.2117 116.62 55.2485 110.806C55.2893 111.614 55.3263 112.423 55.3794 113.23C55.945 121.766 57.1367 130.242 58.1246 138.734C58.9532 145.855 59.7386 153.167 62.217 159.941C62.2491 156.571 61.9465 153.201 61.502 149.862C61.0179 146.223 60.3609 142.609 59.7225 138.995C59.094 135.425 58.5568 131.852 58.0431 128.265Z" fill="#D5673D"/>
<path d="M59.223 201.636C57.7214 193.993 56.1852 186.358 54.6861 178.715C53.5228 172.786 52.3843 166.853 51.3 160.909C51.4087 163.004 51.5297 165.097 51.6755 167.189C52.1546 174.062 52.8548 180.925 53.9402 187.731C54.7503 192.815 55.7765 197.867 57.0867 202.846L59.2675 201.865C59.2527 201.789 59.2379 201.712 59.223 201.636Z" fill="#D5673D"/>
<path d="M82.5607 119.302C82.2002 116.902 81.9075 114.493 81.5481 112.094C80.9517 108.1 80.2132 104.132 79.439 100.171C80.1404 108.221 80.8418 116.27 81.7877 124.296C82.9559 134.205 84.5168 144.086 86.8964 153.781C86.7569 149.483 86.3518 145.197 85.8196 140.932C85.2108 136.057 84.4353 131.206 83.6623 126.354C83.2881 124.004 82.9139 121.654 82.5607 119.302Z" fill="#D5673D"/>
<path d="M111.859 174.924C110.774 165.864 108.972 156.909 107.088 147.986C105.697 141.39 104.256 134.799 103.011 128.173C103.222 130.378 103.47 132.581 103.752 134.779C104.265 138.787 104.9 142.774 105.551 146.76C106.162 150.499 106.64 154.258 107.155 158.01C108.101 164.898 109.179 171.83 111.388 178.44L112.198 178.076C112.095 177.025 111.985 175.974 111.859 174.924Z" fill="#D5673D"/>
<path d="M95.5105 91.7613C95.3315 89.0865 95.129 86.4143 94.8807 83.7457C94.2201 76.6377 93.3544 69.5507 92.4727 62.4675C92.1862 60.1656 91.8997 57.8638 91.6157 55.562C91.6305 55.8831 91.6454 56.2029 91.6602 56.5227C91.9615 63.0701 92.2986 69.6211 92.9877 76.1413C93.5421 81.3895 94.3423 86.6155 95.5105 91.7613Z" fill="#D5673D"/>
<path d="M118.598 92.5735C117.867 89.6246 116.947 86.6869 116.164 83.7231C116.203 84.0924 116.234 84.4628 116.277 84.8308C117.048 91.4782 118.473 98.0169 119.44 104.633C120.26 110.246 121.018 115.958 122.942 121.318C123.038 118.178 122.774 115.03 122.338 111.92C121.871 108.584 121.214 105.278 120.54 101.978C119.899 98.8467 119.367 95.6768 118.598 92.5735Z" fill="#D5673D"/>
<path d="M131.505 50.1664C131.793 54.0871 131.978 58.0165 132.326 61.9323C132.681 65.916 133.374 69.8294 133.989 73.7773C135.028 80.4456 135.89 87.1522 137.294 93.7551C137.075 90.0196 136.667 86.2965 136.205 82.5844C135.657 78.1808 135.031 73.7859 134.55 69.3737C134.076 65.0158 133.837 60.6431 133.579 56.2679C133.225 50.259 132.876 44.2439 132.331 38.2485C131.6 38.4609 130.868 38.6709 130.138 38.8882C130.851 42.6089 131.229 46.3889 131.505 50.1664Z" fill="#D5673D"/>
<path d="M139.612 128.034C139.257 125.018 139.021 121.983 138.641 118.968C138.579 119.864 138.513 120.758 138.47 121.654C138.227 126.757 138.279 131.9 138.917 136.974C139.438 141.121 140.353 145.382 142.277 149.133C142.2 146.898 141.972 144.67 141.67 142.456C141.335 140.006 140.921 137.568 140.544 135.124C140.178 132.767 139.892 130.402 139.612 128.034Z" fill="#D5673D"/>
<path d="M132.694 144.274C132.668 150.244 132.791 156.224 133.389 162.168C133.591 164.183 133.853 166.198 134.188 168.2L135.333 167.685C134.732 158.431 133.774 149.206 132.737 139.992C132.717 141.42 132.7 142.847 132.694 144.274Z" fill="#D5673D"/>
<path d="M158.627 102.741C159.008 109.469 159.539 116.245 160.976 122.84C161.024 121.605 161.05 120.369 161.037 119.133C160.964 112.736 160.212 106.226 158.489 100.029C158.535 100.933 158.577 101.837 158.627 102.741Z" fill="#D5673D"/>
<path d="M170.732 79.5005C171.038 85.4329 171.451 91.3627 172.161 97.2618C172.824 102.769 173.755 108.251 175.08 113.638C174.86 111.239 174.628 108.844 174.368 106.451C173.645 99.8056 172.775 93.1768 171.81 86.5628C171.464 84.2054 171.098 81.8529 170.732 79.5005Z" fill="#D5673D"/>
<path d="M166.669 145.521C166.713 148.173 166.826 150.822 166.956 153.47L168.395 152.823C167.926 150.361 167.421 147.909 166.669 145.521Z" fill="#D5673D"/>
<path d="M173.897 33.0302C174.756 41.6361 175.776 50.2407 177.456 58.7281C177.546 56.4114 177.503 54.0886 177.388 51.7732C177.099 45.9631 176.332 40.1925 175.959 34.3886C175.843 32.5857 175.719 30.7778 175.56 28.9736C174.885 29.0625 174.213 29.1465 173.532 29.2428C173.653 30.5036 173.771 31.7669 173.897 33.0302Z" fill="#D5673D"/>
<path d="M186.233 143.442C185.438 135.367 184.822 127.136 182.445 119.339C182.258 121.308 182.164 123.285 182.148 125.262C182.089 132.139 182.832 139.012 184.001 145.799L186.367 144.736C186.322 144.305 186.275 143.874 186.233 143.442Z" fill="#D5673D"/>
<path d="M153.08 44.5427C153.613 47.3224 154.111 50.1046 154.568 52.8979C155.515 58.6944 156.389 64.544 158.157 70.1553C158.275 67.1138 158.155 64.0636 157.888 61.0332C157.313 54.5007 156.126 48.0324 154.929 41.5913C154.396 38.7202 153.771 35.8219 152.914 33.0015C152.388 33.1175 151.864 33.2262 151.338 33.3448C151.408 34.1376 151.487 34.9279 151.587 35.7145C151.96 38.6757 152.518 41.611 153.08 44.5427Z" fill="#D5673D"/>
<path d="M194.017 34.1747C194.341 42.2644 195.178 50.3467 196.083 58.3894C196.822 64.9516 197.681 71.5903 199.763 77.8759C199.282 74.3132 198.89 70.7395 198.563 67.1596C197.802 58.8241 197.384 50.464 196.907 42.11C196.627 37.2051 196.322 32.2989 195.918 27.4014C195.254 27.41 194.583 27.4273 193.908 27.4458C193.887 29.6884 193.927 31.9334 194.017 34.1747Z" fill="#D5673D"/>
<path d="M200.788 113.633C201.489 121.409 202.351 129.181 203.995 136.813L204.51 136.582C204.484 136.374 204.463 136.167 204.437 135.959C203.485 128.476 202.096 121.061 200.788 113.633Z" fill="#D5673D"/>
<path d="M209.356 83.6875C209.357 84.9446 209.371 86.2005 209.411 87.4564C209.587 93.1985 210.14 98.9259 210.965 104.61C211.305 106.956 211.5 109.321 211.898 111.66C212.196 113.417 212.578 115.202 213.244 116.867C213.3 114.426 213.184 111.981 212.966 109.55C212.49 104.274 211.57 99.0556 210.933 93.7999C210.521 90.4114 209.979 87.0414 209.356 83.6875Z" fill="#D5673D"/>
<path d="M226.416 116.004C226.744 110.489 226.986 104.899 226.222 99.4111C225.771 101.551 225.402 103.709 225.103 105.876C224.376 111.155 224.04 116.497 224.08 121.825C224.095 123.78 224.162 125.74 224.292 127.694L225.851 126.993C225.929 123.326 226.198 119.659 226.416 116.004Z" fill="#D5673D"/>
<path d="M216.84 34.5484C216.983 39.1125 217.292 43.6692 217.684 48.2185C218.047 52.4208 218.559 56.6095 218.824 60.8204C219.293 68.2989 219.277 76.07 221.517 83.2903C221.711 81.3911 221.562 79.4535 221.442 77.5568C221.284 75.0574 221.298 72.5654 221.298 70.0623C221.298 60.7785 221.296 51.4946 221.306 42.2096C221.31 38.9507 221.294 35.6857 221.212 32.4244C219.897 31.4044 218.417 30.4918 216.763 29.6978C216.769 31.3142 216.789 32.9319 216.84 34.5484Z" fill="#D5673D"/>
</g>
<path opacity="0.53" d="M47.8489 201.507C45.5693 190.476 45.5471 179.098 45.5903 167.881C45.6101 162.503 45.6767 157.123 45.531 151.745C45.3853 146.341 45.3334 140.945 45.652 135.545C46.2732 125.015 48.1317 114.457 52.3142 104.723C56.3572 95.3135 62.7008 87.0831 70.3324 80.2986C85.4349 66.8706 104.467 58.787 123.407 52.4113C146.482 44.644 170.251 37.0754 194.78 36.2468C199.897 36.0739 204.933 36.2591 209.953 37.3347C214.607 38.3325 219.133 39.9267 223.408 42.0137C226.688 43.6153 229.85 45.5294 232.785 47.7398C230.118 41.968 226.551 36.8506 221.813 32.8842C219.917 31.2974 217.608 29.9797 214.961 28.8968C172.514 20.281 78.9654 50.1923 58.9826 74.5614C33.0575 106.177 39.6283 140.856 39.6283 140.856L48.0749 206.912L49.069 206.465C48.6022 204.828 48.1934 203.175 47.8489 201.507Z" fill="#A86345"/>
<path d="M56.5897 210.966L51.2637 208.557C51.2637 208.557 47.6714 209.591 47.1985 215.399C46.7255 221.207 47.5084 232.97 47.5084 232.97C47.5084 232.97 47.8863 238.385 52.3208 240.685C56.7552 242.984 353.202 382.214 353.202 382.214C353.202 382.214 359.256 385.498 365.215 382.214L573.531 269.093C573.531 269.093 579.088 266.463 579.894 261.537C580.7 256.611 579.7 237.89 579.7 237.89L56.5897 210.966Z" fill="#90C858"/>
<path d="M359.437 384.199C355.843 384.199 353.122 382.756 352.952 382.664C350.015 381.286 56.4726 243.416 52.0801 241.14C47.4395 238.734 47.0036 233.231 46.9875 232.998C46.9789 232.878 46.2071 221.127 46.6775 215.347C47.174 209.25 50.9589 208.091 51.1194 208.044L51.3046 207.991L56.7171 210.439L580.199 237.381L580.223 237.852C580.264 238.619 581.218 256.686 580.412 261.611C579.571 266.749 573.995 269.444 573.758 269.555L365.465 382.664C363.376 383.815 361.29 384.199 359.437 384.199ZM51.2417 209.112C50.5662 209.393 48.1014 210.735 47.7198 215.431C47.2567 221.134 48.0236 232.809 48.031 232.926C48.0347 232.975 48.4496 238.078 52.5605 240.209C56.9345 242.476 350.459 380.337 353.423 381.729C353.507 381.773 359.333 384.847 364.959 381.744L573.28 268.621C573.359 268.583 578.624 266.032 579.375 261.442C580.093 257.06 579.346 241.312 579.199 238.378L56.4652 211.475L51.2417 209.112Z" fill="#509F47"/>
<path opacity="0.58" d="M555.514 238.736C548.617 243.051 541.772 247.461 535.029 252.011C528.295 256.556 521.675 261.267 515.12 266.064C508.586 270.844 502.033 275.625 495.684 280.651C489.874 285.25 484.237 290.062 478.621 294.894C484.073 292.929 489.353 290.514 494.539 287.934C499.714 285.359 504.803 282.619 509.922 279.937C514.896 277.331 519.957 274.919 524.988 272.43C535.378 267.289 545.588 261.673 556.545 257.794C556.919 257.662 557.082 258.14 556.891 258.388C555.136 260.649 553.17 262.734 551.094 264.7C543.996 271.42 535.551 276.872 529.598 284.723C529.894 284.601 530.188 284.473 530.478 284.334C535.997 281.698 540.326 277.136 545.078 273.399C550.552 269.095 555.929 264.666 561.517 260.506C562.946 259.443 564.405 258.424 565.839 257.369C566.866 256.614 567.839 255.628 569.051 255.17C570.762 254.523 572.353 255.802 573.137 257.246C573.867 258.591 574.42 260.039 574.983 261.458C575.665 263.177 576.321 264.906 577 266.627C578.298 265.381 579.545 263.676 579.896 261.537C580.702 256.611 579.7 237.89 579.7 237.89L558.638 236.806C557.597 237.448 556.553 238.087 555.514 238.736Z" fill="#B6D66D"/>
<path opacity="0.58" d="M397.309 361.645C404.685 355.048 413.999 351.166 421.606 344.889C417.945 345.745 414.342 346.835 410.778 348.034C407.222 349.231 403.701 350.525 400.166 351.782C397.168 352.849 394.312 354.252 391.459 355.652C385.916 358.374 380.006 361.562 373.693 361.771C373.484 361.778 373.261 361.535 373.351 361.321C374.068 359.61 375.469 358.302 376.874 357.14C377.575 356.56 378.302 356.009 379.025 355.456C379.956 354.743 380.781 353.897 381.634 353.095C387.233 347.835 392.884 342.64 398.747 337.676C401.444 335.393 404.133 333.085 406.598 330.549C408.685 328.403 410.653 326.061 412.004 323.374C409.183 323.622 406.545 325.317 404.148 326.673C401.078 328.409 397.945 330.042 394.845 331.724C391.88 333.333 388.909 334.932 385.908 336.473C383.299 337.814 380.742 339.234 378.166 340.637C373.285 343.295 367.979 346.035 362.336 346.432C357.711 346.758 353.564 344.772 350.082 341.882C346.771 339.133 343.987 335.795 340.585 333.154C340.729 340.922 342.831 348.329 345.273 355.663C345.349 355.888 345.151 356.109 344.931 356.113C342.547 356.16 340.166 356.005 337.799 355.724C329.816 354.777 322.038 352.491 314.032 351.749C315.943 352.934 317.953 353.953 320.01 354.862C322.258 355.855 324.556 356.728 326.863 357.574C328.964 358.345 331.029 359.164 333.174 359.82C337.322 361.09 341.728 362.144 345.348 364.644C345.571 364.799 345.592 365.242 345.262 365.294C341.908 365.826 338.553 366.354 335.191 366.825C331.245 367.378 327.275 367.855 323.296 368.181C341.743 376.846 353.206 382.23 353.206 382.23C353.206 382.23 359.261 385.514 365.219 382.23L393.494 366.877C393.931 364.807 395.828 362.969 397.309 361.645Z" fill="#B6D66D"/>
<path opacity="0.58" d="M361.905 355.169C356.629 355.163 351.24 354.604 346.124 353.248C347.35 355.314 348.989 357.084 350.636 358.827C352.242 360.526 353.863 362.243 355.084 364.248C356.435 366.465 357.054 368.938 357.447 371.483C358.065 375.496 358.094 379.641 358.712 383.667C359.556 383.714 360.462 383.675 361.399 383.527C361.676 381.938 361.739 380.293 361.774 378.778C361.849 375.522 361.627 372.249 361.907 368.999C362.185 365.781 363.233 362.753 364.995 360.044C368.39 354.822 373.561 351.151 377.56 346.446C376.586 346.938 375.612 347.428 374.637 347.919C369.944 350.287 365.21 352.616 360.273 354.435C360.818 354.447 361.361 354.458 361.903 354.459C362.363 354.461 362.363 355.171 361.905 355.169Z" fill="#B6D66D"/>
<path opacity="0.58" d="M50.1372 232.415C50.257 230.234 50.504 227.837 51.5795 225.893C51.6808 225.71 51.8944 225.688 52.0661 225.766C53.643 226.474 54.8137 227.881 55.788 229.263C57.7564 232.051 59.0678 235.234 61.0017 238.042C63.2664 241.33 65.2595 244.912 68.1059 247.742C67.5935 246.314 66.9069 244.951 66.161 243.63C64.2432 240.235 61.9414 237.072 60.0669 233.652C58.3677 230.552 56.9167 227.086 57.1896 223.479C57.2056 223.265 57.4057 223.054 57.6391 223.137C62.3329 224.793 66.7871 227.026 71.2796 229.148C75.3275 231.061 79.473 232.991 83.826 234.106C88.4345 235.287 93.0135 236.575 97.5998 237.838C106.623 240.323 115.709 242.723 124.994 244.005C124.749 243.604 124.492 243.211 124.211 242.833C122.485 240.503 120.25 238.638 118.235 236.574C115.882 234.163 113.522 231.759 111.119 229.399C106.442 224.806 101.602 220.403 96.6971 216.056C95.4659 214.966 94.215 213.898 92.9579 212.838L56.5956 210.966L51.2683 208.557C51.2683 208.557 47.6761 209.591 47.2031 215.399C46.7302 221.207 47.5131 232.97 47.5131 232.97C47.5131 232.97 47.7823 236.706 50.415 239.288C50.1113 237.013 50.01 234.703 50.1372 232.415Z" fill="#B6D66D"/>
<path d="M578.766 236.546C578.097 236.003 577.271 235.698 576.461 235.404C562.998 230.502 549.624 225.392 536.232 220.301C525.408 216.188 514.584 212.073 503.762 207.96C491.214 203.191 478.668 198.421 466.12 193.652C452.658 188.535 439.195 183.418 425.732 178.302C412.163 173.143 398.593 167.987 385.025 162.829C372.157 157.937 359.288 153.046 346.421 148.156C335.063 143.839 323.705 139.521 312.347 135.204C303.308 131.769 294.268 128.332 285.228 124.897C279.315 122.649 273.403 120.402 267.49 118.154C267.379 118.112 267.206 118.033 266.992 117.932C265.094 117.605 263.181 117.424 261.276 117.615C258.969 117.844 256.743 118.506 254.487 118.999C217.895 135.128 51.2649 208.571 51.2649 208.571C50.5746 209.125 49.9337 209.754 49.4978 210.513C48.8865 211.58 48.9853 212.674 49.6608 213.683C50.0942 214.33 50.6351 214.88 51.2266 215.383C53.3111 216.37 55.3943 217.358 57.4788 218.345C63.2247 221.068 68.9719 223.791 74.7178 226.514C83.373 230.615 92.0283 234.717 100.684 238.818C111.495 243.942 122.306 249.065 133.118 254.187C145.332 259.975 157.546 265.763 169.76 271.552C182.624 277.649 195.489 283.744 208.353 289.841C221.114 295.888 233.874 301.935 246.635 307.982C258.54 313.623 270.445 319.266 282.349 324.906C292.644 329.786 302.94 334.665 313.236 339.542C321.169 343.301 329.102 347.061 337.035 350.82C341.852 353.104 346.669 355.387 351.488 357.669C354.115 358.914 356.98 359.662 359.902 359.594C365.468 359.465 370.217 355.606 374.891 353.04C380.542 349.936 386.194 346.834 391.846 343.732C402.983 337.618 414.121 331.504 425.257 325.389L463.969 304.137L503.331 282.528C515.118 276.057 526.906 269.585 538.693 263.114C547.598 258.227 556.501 253.338 565.406 248.45C566.305 248.45 568.102 246.97 568.913 246.525C570.316 245.754 571.719 244.985 573.121 244.215C574.682 243.358 579.358 241.806 579.781 240.006C580.079 238.739 579.807 237.392 578.766 236.546Z" fill="#B6D66D"/>
<path d="M359.535 360.118C356.821 360.118 354.042 359.452 351.266 358.137L50.8906 215.775C50.1744 215.167 49.6458 214.594 49.2284 213.969C48.4245 212.767 48.3603 211.446 49.0469 210.247C49.4606 209.527 50.062 208.861 50.94 208.156L51.0573 208.086L254.327 118.493L254.378 118.482C255.008 118.345 255.635 118.193 256.263 118.042C257.871 117.655 259.533 117.255 261.228 117.087C262.949 116.916 264.811 117.018 267.085 117.411L267.219 117.453C267.417 117.547 267.577 117.621 267.68 117.659L540.282 221.275C552.178 225.8 564.478 230.478 576.643 234.907C577.446 235.2 578.356 235.532 579.099 236.136C580.219 237.047 580.666 238.537 580.294 240.12C579.913 241.736 577.145 242.962 574.919 243.947C574.285 244.227 573.735 244.47 573.376 244.668L569.167 246.978C568.95 247.098 568.626 247.318 568.283 247.553C567.183 248.302 566.273 248.886 565.558 248.96L375.147 353.494C374.093 354.073 373.053 354.707 371.954 355.377C368.219 357.654 364.356 360.009 359.918 360.114C359.79 360.116 359.662 360.118 359.535 360.118ZM51.5167 214.933L351.716 357.19C354.472 358.497 357.228 359.117 359.893 359.066C364.051 358.968 367.792 356.688 371.409 354.482C372.471 353.835 373.568 353.166 374.643 352.575L565.275 247.921H565.409C565.882 247.921 567.017 247.147 567.695 246.686C568.076 246.426 568.404 246.203 568.666 246.06L572.874 243.749C573.273 243.531 573.841 243.279 574.498 242.987C576.188 242.239 579.015 240.988 579.277 239.878C579.555 238.695 579.243 237.598 578.441 236.946C577.835 236.453 577.048 236.166 576.286 235.889C564.114 231.457 551.811 226.777 539.912 222.252L267.308 118.636C267.2 118.594 267.038 118.522 266.838 118.429C264.692 118.063 262.94 117.967 261.333 118.127C259.71 118.289 258.082 118.68 256.509 119.058C255.892 119.206 255.274 119.355 254.653 119.492L51.5426 209.014C50.798 209.619 50.2929 210.178 49.9558 210.767C49.4631 211.626 49.5112 212.508 50.099 213.385C50.451 213.913 50.9029 214.406 51.5167 214.933Z" fill="#509F47"/>
<path opacity="0.37" d="M578.77 236.546C578.101 236.003 577.275 235.698 576.465 235.404C563.002 230.502 549.629 225.392 536.236 220.301C525.413 216.188 514.589 212.073 503.766 207.96C491.219 203.191 478.672 198.421 466.125 193.652C452.662 188.535 439.199 183.418 425.737 178.302C412.168 173.143 398.598 167.987 385.029 162.829C372.161 157.937 359.293 153.046 346.425 148.156C335.067 143.839 323.71 139.521 312.351 135.204C303.312 131.769 294.273 128.332 285.232 124.897C279.32 122.649 273.407 120.402 267.494 118.154C267.383 118.112 267.21 118.033 266.997 117.932C265.099 117.605 263.186 117.424 261.28 117.615C258.974 117.844 256.747 118.506 254.491 118.999C217.899 135.128 51.2693 208.571 51.2693 208.571C50.579 209.125 49.9381 209.754 49.5022 210.513C48.8909 211.58 48.9897 212.674 49.6652 213.683C50.0986 214.33 50.6395 214.88 51.231 215.383C53.3155 216.37 55.3987 217.358 57.4832 218.345C63.2291 221.068 68.9762 223.791 74.7221 226.514C83.3774 230.615 92.0327 234.717 100.688 238.818C111.499 243.942 122.311 249.065 133.122 254.187C145.336 259.975 157.55 265.763 169.765 271.552C182.628 277.649 195.493 283.744 208.357 289.841C221.118 295.888 233.878 301.935 246.64 307.982C258.544 313.625 270.449 319.266 282.354 324.906C292.649 329.786 302.944 334.665 313.24 339.542L337.039 350.82C341.856 353.104 346.674 355.387 351.492 357.669C354.12 358.914 356.985 359.662 359.907 359.594C365.472 359.465 370.221 355.607 374.896 353.04C380.546 349.936 386.198 346.834 391.85 343.731C402.988 337.617 414.125 331.503 425.261 325.388L463.974 304.136L503.335 282.527C515.122 276.056 526.91 269.584 538.697 263.113C547.602 258.225 556.506 253.337 565.41 248.449C566.309 248.449 568.106 246.968 568.917 246.524C570.32 245.753 571.723 244.984 573.126 244.213C574.687 243.356 579.362 241.805 579.786 240.005C580.083 238.739 579.811 237.392 578.77 236.546ZM370.388 265.582C359.111 277.548 342.883 283.885 326.98 286.728C304.379 290.768 281.036 288.932 258.632 284.567C235.09 279.979 212.177 272.593 189.412 265.152C178.199 261.487 167.05 257.602 156.112 253.18C145.438 248.864 135.009 243.922 124.634 238.938C119.558 236.5 114.527 233.954 109.672 231.099C107.309 229.71 105.025 228.212 102.738 226.705C101.049 225.593 99.2098 224.438 97.9453 222.825C92.5489 215.939 111.808 213.159 115.324 212.666C123.337 211.543 131.434 210.722 139.487 209.927C143.591 209.521 147.713 209.074 151.74 208.151C154.914 207.424 158.449 206.414 160.845 204.073C157.252 202.071 152.311 203.362 148.423 203.414C138.348 203.547 128.22 203.544 118.163 204.249C108.507 204.926 98.8332 206.699 89.1381 205.616C88.7973 205.578 88.6429 205.155 88.9591 204.954C96.1387 200.369 103.878 196.8 111.545 193.124C119.567 189.278 127.539 185.333 135.584 181.536C164.594 167.845 194.105 155.201 222.925 141.112C226.569 139.331 230.219 137.564 233.871 135.799C236.433 134.561 238.833 133.022 241.299 131.608C243.682 130.243 246.185 128.843 248.875 128.185C250.368 127.82 252.245 127.571 253.555 128.579C256.033 130.483 254.866 134.977 254.28 137.476C254.223 137.721 254.153 137.964 254.088 138.209C254.502 137.723 254.916 137.238 255.326 136.754C256.772 135.047 258.126 133.273 259.543 131.544C260.354 130.554 261.501 129.188 262.94 129.334C266.077 129.651 265.746 134.331 265.642 136.46C265.451 140.398 265.226 144.335 265.026 148.274C264.77 153.301 264.349 158.397 264.983 163.409C266.247 159 266.574 154.357 267.241 149.834C267.844 145.745 267.985 141.598 268.798 137.538C269.364 134.712 270.172 131.082 273.337 130.191C276.581 129.277 280.3 130.843 283.224 132.12C287.054 133.79 290.778 135.734 294.573 137.486C314.477 146.676 333.968 157.286 350.521 171.812C364.565 184.136 377.823 199.143 382.237 217.784C386.232 234.659 382.405 252.83 370.388 265.582Z" fill="#B6D66D"/>
<path opacity="0.58" d="M62.0819 218.128C61.8535 217.971 61.8411 217.539 62.1671 217.479C65.0271 216.951 67.9056 216.53 70.7866 216.134C76.0657 215.409 81.3621 214.773 86.6017 213.79C91.2288 212.922 95.8534 211.782 100.198 209.936C98.1898 209.569 96.151 209.398 94.1098 209.345C85.3952 209.115 76.2361 210.818 67.8253 207.79C67.5314 207.684 67.4808 207.319 67.7401 207.14C71.1274 204.811 74.4863 202.442 77.8513 200.079C82.2117 197.018 86.5856 193.973 91.0287 191.031C67.5401 201.384 51.2693 208.555 51.2693 208.555C50.579 209.11 49.9381 209.738 49.5022 210.498C48.8909 211.565 48.9897 212.659 49.6652 213.668C50.0986 214.315 50.6395 214.864 51.231 215.367C53.3155 216.355 55.3987 217.343 57.4832 218.33C61.3323 220.153 65.1815 221.977 69.0306 223.801C66.8448 221.758 64.5579 219.829 62.0819 218.128Z" fill="#B6D66D"/>
<path opacity="0.58" d="M578.765 236.541C578.095 235.997 577.269 235.692 576.459 235.399C562.996 230.497 549.623 225.387 536.23 220.296C534.844 219.769 533.457 219.241 532.07 218.715C530.744 231.584 526.035 244.16 518.437 254.606C503.078 275.721 479.259 289.204 455.248 298.249C428.324 308.392 399.441 313.805 370.772 315.49C335.002 317.593 299.056 313.717 264.099 306.129C246.702 302.353 229.674 297.402 212.821 291.683C212.127 291.447 211.436 291.206 210.743 290.971C222.707 296.64 234.67 302.309 246.634 307.979C258.538 313.621 270.443 319.262 282.348 324.903C292.643 329.782 302.938 334.661 313.234 339.538L337.033 350.817C341.85 353.1 346.668 355.383 351.486 357.665C354.114 358.91 356.979 359.658 359.901 359.59C365.466 359.461 370.216 355.603 374.89 353.036C380.54 349.932 386.192 346.83 391.844 343.727C402.982 337.613 414.119 331.499 425.255 325.384L463.968 304.132L503.329 282.523C515.116 276.052 526.905 269.58 538.691 263.109C547.596 258.222 556.5 253.333 565.404 248.445C566.303 248.445 568.1 246.964 568.911 246.52C570.314 245.749 571.717 244.98 573.12 244.209C574.681 243.352 579.356 241.801 579.78 240.001C580.077 238.734 579.806 237.387 578.765 236.541Z" fill="#B6D66D"/>
<path opacity="0.58" d="M325.557 166.39C325.215 165.649 324.257 165.204 323.449 164.901C322.114 164.4 320.671 164.077 319.243 163.812C317.428 163.475 315.565 163.28 313.695 163.244C312.887 161.995 312.164 160.702 311.456 159.411C310.09 156.92 308.686 154.465 307.107 152.068C303.754 146.975 299.98 142.054 295.546 137.598C288.182 130.2 279.021 123.505 268.188 120.06C265.988 119.361 263.721 118.802 261.414 118.403C258.988 120.36 256.561 122.31 254.105 124.207C248.178 128.782 242.036 133.037 235.389 136.504C227.529 140.605 219.498 144.358 211.333 147.809C195.267 154.6 178.76 160.276 162.194 165.709C145.284 171.254 128.322 176.62 111.551 182.58C102.74 185.71 93.9653 188.961 85.3706 192.65C79.2184 195.29 64.469 201.796 58.7305 205.245C58.0513 205.652 68.2366 214.228 69.1183 214.77C93.7517 229.922 118.506 245.182 147.098 251.454C152.236 252.581 157.45 253.475 162.712 254.132C165.639 254.498 168.598 254.827 171.568 255.042C172.226 255.951 172.883 256.879 173.673 257.69C174.772 258.816 176.365 260.079 178.146 260.331C179.647 260.544 181.029 259.934 182.044 259.003C183.51 257.659 184.318 255.809 184.985 254.109C189.113 254.315 193.404 252.155 196.91 250.476C201.984 248.047 206.972 245.6 211.428 242.37C215.92 239.115 219.414 235.29 222.519 231.057C225.397 227.133 228.003 223.04 231.378 219.391C240.618 209.397 253.88 206.151 266.183 201.733C279.853 196.823 300.944 190.03 306.888 175.4C309.358 174.963 311.835 174.176 314.143 173.427C317.032 172.488 319.953 171.424 322.593 170.032C323.912 169.334 326.289 167.976 325.557 166.39Z" fill="#B6D66D"/>
<path opacity="0.58" d="M76.3176 196.632C75.8644 197.282 75.4877 197.98 75.2531 198.734C74.711 200.483 75.2235 202.145 76.1188 203.679C78.3255 207.462 82.1635 210.31 85.6656 212.808C88.9306 215.137 92.3784 217.183 95.6854 219.446C105.705 226.298 115.814 232.843 126.788 238.096C138.07 243.496 149.794 247.298 162.165 249.17C168.006 250.055 173.947 250.676 179.852 250.146C186.001 249.593 191.82 247.637 197.101 244.452C207.714 238.054 217.863 231.06 226.618 222.243C230.469 218.365 234.229 214.374 238.484 210.93C242.792 207.443 247.592 204.865 252.668 202.678C263.194 198.146 274.465 195.461 284.696 190.225C287.234 188.926 289.695 187.471 292.019 185.817C294.276 184.21 296.103 182.202 297.819 180.041C300.948 176.101 303.79 172.309 308.339 169.928C312.125 167.946 316.224 166.629 319.969 164.563C320.229 164.419 320.485 164.271 320.736 164.121C320.238 164.008 319.74 163.904 319.239 163.812C317.424 163.475 315.561 163.28 313.691 163.244C312.884 161.995 312.16 160.704 311.452 159.411C310.087 156.92 308.682 154.465 307.103 152.068C303.75 146.975 299.977 142.054 295.542 137.598C288.178 130.2 279.017 123.505 268.185 120.06C265.984 119.361 263.717 118.802 261.41 118.403C258.985 120.36 256.557 122.31 254.101 124.207C248.175 128.782 242.032 133.036 235.385 136.504C227.525 140.604 219.494 144.358 211.329 147.809C195.264 154.6 178.756 160.276 162.19 165.709C145.281 171.254 128.318 176.62 111.547 182.58C102.737 185.71 93.9615 188.961 85.3668 192.65C83.1786 193.592 79.895 195.023 76.3176 196.632Z" fill="#B6D66D"/>
<path d="M321.253 160.915C320.975 160.062 320.094 159.495 319.348 159.096C318.114 158.438 316.767 157.975 315.431 157.574C313.733 157.066 311.979 156.714 310.211 156.538C309.523 155.083 308.917 153.586 308.324 152.089C307.183 149.204 306.003 146.357 304.654 143.561C301.789 137.623 298.517 131.846 294.589 126.541C288.066 117.734 279.8 109.585 269.75 104.949C265.938 103.19 261.878 101.942 257.721 101.439C257.736 101.416 257.751 101.394 257.764 101.37C258.172 100.708 258.504 99.9958 258.794 99.2746C259.337 97.9273 259.79 96.4084 259.623 94.9426C259.471 93.6003 258.475 92.7507 257.117 92.8063C254.984 92.894 253.089 94.2227 251.669 95.7255C250.717 96.7332 249.814 97.8927 249.155 99.1597C244.475 97.7544 239.466 97.442 234.613 97.2914C228.849 97.1123 223.142 97.0185 217.41 97.7816C211.638 98.5497 206.012 99.9859 200.591 102.11C197.91 103.161 195.283 104.354 192.743 105.711C190.829 106.734 188.964 107.842 187.049 108.863C186.264 108.993 185.478 109.124 184.693 109.255C178.806 110.242 172.904 111.112 167.069 112.385C161.168 113.672 155.337 115.264 149.59 117.117C138.285 120.765 127.357 125.453 116.976 131.231C111.84 134.088 106.823 137.169 102.082 140.648C97.2091 144.222 92.8611 148.291 88.5291 152.487C86.2952 154.652 83.9971 156.789 81.9139 159.101C80.332 160.856 79.1947 163.212 77.267 164.626C76.5175 165.175 75.5456 165.399 74.6602 165.631C73.5229 165.93 72.3707 166.167 71.2322 166.462C68.7204 167.113 66.3507 168.301 64.1316 169.627C62.9177 170.352 61.7458 171.154 60.648 172.046C60.4257 172.226 60.0553 172.625 60.2022 172.961C61.2111 175.264 64.3477 175.99 66.5582 176.485C68.0252 176.814 69.512 177.045 71 177.249C71.2952 177.289 71.5928 177.323 71.8916 177.352C72.1509 177.694 72.4053 178.036 72.6523 178.372C73.8884 180.057 74.959 181.855 75.9852 183.672C78.1808 187.56 80.5172 191.352 82.9401 195.102C87.9599 202.875 93.4909 210.452 100.428 216.636C107.118 222.598 114.676 227.729 122.459 232.148C130.28 236.59 138.529 240.289 147.045 243.185C151.843 244.816 156.725 246.193 161.669 247.308C164.417 247.928 167.201 248.511 169.999 248.965C170.567 250.03 171.131 251.115 171.832 252.079C172.804 253.418 174.235 254.946 175.906 255.355C177.316 255.701 178.661 255.118 179.679 254.151C181.15 252.753 182.027 250.742 182.762 248.893L182.763 248.889C186.66 249.417 190.856 247.311 194.278 245.686C199.232 243.334 204.105 240.957 208.522 237.666C212.975 234.349 216.518 230.322 219.717 225.811C222.683 221.629 225.4 217.24 228.819 213.401C236.464 204.817 247.941 200.835 258.559 197.286C267.686 194.236 276.971 191.552 285.455 186.907C292.673 182.954 299.818 177.459 303.019 169.642C305.384 169.331 307.778 168.63 310.011 167.957C312.803 167.115 315.636 166.136 318.22 164.77C319.515 164.09 321.849 162.742 321.253 160.915Z" fill="#5F9B40"/>
<path d="M317.313 163.739C315.013 164.854 312.607 165.799 310.181 166.599C308.809 167.051 307.418 167.443 306.012 167.772C305.194 167.962 304.368 168.104 303.542 168.249C303.794 167.467 303.967 166.682 304.087 165.866C303.065 167.351 302.038 168.833 301.007 170.311C299.921 172.56 298.582 174.655 296.849 176.58C293.982 179.764 290.498 182.329 286.827 184.508C278.969 189.174 270.227 191.931 261.593 194.752C256.129 196.536 250.667 198.366 245.393 200.665C240.359 202.859 235.336 205.422 231.169 209.043C223.413 215.785 219.445 225.626 212.161 232.76C208.312 236.529 203.729 239.505 198.945 241.946C196.572 243.158 194.137 244.26 191.724 245.393C189.545 246.416 187.208 247.417 184.777 247.619C183.191 248.026 181.554 248.179 179.939 247.965C180.463 248.252 180.997 248.468 181.541 248.627C181.522 248.652 181.495 248.673 181.482 248.7C180.944 249.721 180.407 250.756 179.782 251.728C179.345 252.408 178.833 253.158 178.135 253.6C176.545 254.605 174.701 252.581 173.785 251.503C173.205 250.821 172.74 250.064 172.285 249.299C172.902 249.38 173.519 249.452 174.138 249.519C173.75 249.269 173.367 249.011 172.972 248.769C172.145 248.263 171.258 247.955 170.342 247.654C169.86 247.496 169.401 247.304 168.944 247.103C168.985 247.167 169.028 247.231 169.067 247.297C167.342 247.003 165.618 246.696 163.904 246.329C159.517 245.392 155.172 244.25 150.891 242.908C142.31 240.216 133.987 236.718 126.073 232.445C118.173 228.181 110.683 223.16 103.745 217.465C96.5379 211.55 90.8414 204.197 85.666 196.496C82.827 192.273 80.1646 187.947 77.5269 183.597C76.3032 181.579 75.0584 179.561 73.5654 177.73C73.5012 177.651 73.4345 177.572 73.3703 177.494C73.6259 177.521 73.8778 177.56 74.1322 177.594C73.4629 177.117 72.7665 176.685 71.9897 176.391C71.6044 176.246 71.2093 176.125 70.8129 176.005C69.8497 175.817 68.8902 175.618 67.9418 175.389C66.6402 175.073 65.3177 174.705 64.1038 174.125C63.3999 173.789 62.5688 173.33 62.1033 172.652C64.2137 171.107 66.4328 169.786 68.8482 168.744C70.9364 167.842 73.1876 167.55 75.3535 166.895C76.2488 166.625 77.1626 166.29 77.9208 165.729C78.8025 165.077 79.5027 164.212 80.1622 163.346C80.8994 162.379 81.5662 161.36 82.2973 160.389C83.1666 159.233 84.2051 158.199 85.1918 157.146C89.3904 152.666 93.8014 148.355 98.6211 144.541C103.21 140.911 108.12 137.698 113.183 134.769C123.33 128.897 133.998 123.923 145.06 120.035C156.327 116.076 167.869 113.387 179.634 111.419C180.888 111.209 182.143 110.995 183.399 110.777C183.387 110.783 183.376 110.791 183.364 110.797C183.603 110.738 183.843 110.676 184.083 110.62C185.739 110.234 187.42 109.946 189.097 109.663C195.134 108.646 201.135 107.532 207.25 107.08C209.716 106.899 212.188 106.781 214.66 106.687C210.908 106.39 207.135 106.418 203.362 106.719C198.872 107.078 194.412 107.691 189.965 108.391C193.023 106.802 196.073 105.208 199.272 103.898C204.454 101.774 209.815 100.314 215.343 99.4374C220.975 98.5445 226.55 98.5001 232.233 98.6433C237.371 98.773 242.602 98.9002 247.641 100.018C248.632 100.017 249.615 99.9585 250.585 99.756C250.557 99.6584 250.487 99.5707 250.338 99.5201C250.288 99.5028 250.235 99.4905 250.184 99.4719C250.766 98.6483 251.413 97.8555 252.107 97.1244C252.784 96.4119 253.497 95.755 254.304 95.2054C254.967 94.7535 255.529 94.5028 256.342 94.3682C256.371 94.3632 256.465 94.3534 256.483 94.3497C256.544 94.346 256.605 94.3423 256.667 94.341C256.736 94.3398 256.806 94.3447 256.875 94.346C256.908 94.346 256.94 94.3509 256.973 94.3534C256.978 94.3534 256.975 94.3534 256.978 94.3534C257.088 94.3744 257.193 94.4052 257.299 94.4398C257.317 94.446 257.319 94.446 257.329 94.4497C257.325 94.4484 257.322 94.4484 257.327 94.4522C257.379 94.483 257.43 94.5151 257.481 94.5485C257.495 94.5571 257.546 94.6003 257.574 94.6226C257.593 94.6436 257.621 94.6707 257.628 94.6818C257.695 94.7732 257.755 94.8621 257.811 94.9597C257.817 94.9696 257.816 94.9671 257.819 94.972C257.822 94.9782 257.819 94.9757 257.824 94.9893C257.843 95.0412 257.863 95.0918 257.879 95.1449C257.916 95.2647 257.943 95.387 257.964 95.5104C257.974 95.5697 257.981 95.629 257.989 95.6895C257.991 95.7241 257.993 95.7574 257.995 95.7908C257.997 95.9352 257.998 96.0785 257.992 96.223C257.979 96.5218 257.942 96.8194 257.89 97.1146C257.801 97.6221 257.591 98.3433 257.375 98.9409C257.106 99.6819 256.848 100.231 256.524 100.857C256.449 101.004 256.366 101.148 256.282 101.29C255.742 101.248 255.201 101.223 254.659 101.208C255.445 101.48 256.217 101.807 256.966 102.124C257.554 102.373 258.139 102.631 258.721 102.896C261.656 103.493 264.537 104.327 267.319 105.508C272.234 107.594 276.746 110.604 280.805 114.055C289.974 121.848 296.99 131.823 302.392 142.508C304.008 145.702 305.441 148.956 306.776 152.275C307.334 153.663 307.9 155.056 308.522 156.423C307.594 156.395 306.665 156.413 305.74 156.497C305.646 156.506 305.548 156.557 305.462 156.627C306.94 156.835 308.438 156.932 309.886 157.312C310.861 157.569 311.784 157.952 312.7 158.353C312.753 158.367 312.806 158.377 312.858 158.391C314.025 158.704 315.181 159.066 316.307 159.504C317.306 159.892 318.479 160.328 319.256 161.102C320.496 162.341 318.237 163.291 317.313 163.739Z" fill="#E7E867"/>
<path d="M124.507 135.873C127.011 134.5 129.565 133.219 132.159 132.024C129.54 133.162 126.988 134.457 124.507 135.873Z" fill="#E7E867"/>
<path d="M156.954 127.614C156.397 127.205 155.632 127.094 154.962 127.038C153.157 126.883 151.327 127.13 149.536 127.341C147.155 127.623 144.809 127.997 142.485 128.534C139.642 129.56 136.834 130.68 134.072 131.907C128.325 134.457 122.771 137.445 117.492 140.861C114.321 142.912 111.108 145.032 108.596 147.893C107.853 148.739 106.923 149.837 106.777 150.988C106.643 152.054 107.645 152.46 108.61 152.608C109.582 152.756 110.592 152.702 111.566 152.613C113.115 152.471 114.634 152.161 116.139 151.781C119.384 150.96 122.533 149.793 125.607 148.478C128.703 147.152 131.732 145.679 134.761 144.211C136.771 143.237 138.834 142.373 140.87 141.455C145.317 139.449 149.928 137.31 153.672 134.126C154.497 133.424 155.278 132.662 155.953 131.813C156.566 131.04 157.167 130.143 157.4 129.173C157.544 128.584 157.468 127.991 156.954 127.614Z" fill="#E7E867"/>
<path d="M168.919 121.138C167.486 121.544 166.08 122.061 164.713 122.658C163.53 123.388 162.47 124.311 161.833 125.542C162.606 126.13 163.635 126.323 164.584 126.374C167.071 126.504 169.641 125.815 171.908 124.838C172.998 124.369 174.063 123.803 175.019 123.094C175.668 122.613 176.288 122.031 176.686 121.317C176.067 120.808 175.29 120.547 174.497 120.448C172.634 120.216 170.704 120.632 168.919 121.138Z" fill="#E7E867"/>
<path d="M104.087 186.882C102.318 185.19 99.5911 183.266 96.9954 183.761C97.0299 183.937 97.067 184.109 97.1028 184.281C97.5041 186.153 98.087 187.988 98.802 189.763C99.5232 191.552 100.393 193.302 101.482 194.897C102.347 196.166 103.406 197.446 104.787 198.172C105.822 198.716 107.152 198.831 108.122 198.077C108.987 197.404 109.103 196.231 108.972 195.216C108.781 193.73 108.122 192.307 107.37 191.029C106.477 189.505 105.365 188.104 104.087 186.882Z" fill="#E7E867"/>
<path d="M319.252 161.101C318.475 160.327 317.302 159.891 316.303 159.503C315.175 159.066 314.021 158.703 312.854 158.389C312.802 158.376 312.747 158.366 312.696 158.352C311.779 157.952 310.857 157.568 309.881 157.311C308.434 156.931 306.937 156.832 305.458 156.626C305.543 156.557 305.642 156.505 305.736 156.496C306.661 156.413 307.589 156.394 308.518 156.422C307.896 155.056 307.33 153.662 306.772 152.274C305.437 148.955 304.003 145.7 302.388 142.506C296.985 131.822 289.97 121.846 280.801 114.053C276.742 110.603 272.231 107.591 267.315 105.507C264.533 104.326 261.652 103.491 258.716 102.895C258.135 102.63 257.551 102.371 256.962 102.123C256.211 101.806 255.44 101.477 254.655 101.207C255.197 101.223 255.738 101.246 256.278 101.29C256.362 101.148 256.444 101.004 256.52 100.857C256.843 100.231 257.101 99.6806 257.37 98.941C257.588 98.3445 257.798 97.6221 257.885 97.1146C257.937 96.8194 257.974 96.5218 257.988 96.223C257.994 96.0785 257.993 95.9353 257.99 95.7908C257.989 95.7574 257.987 95.7229 257.984 95.6895C257.977 95.629 257.969 95.5697 257.96 95.5105C257.939 95.387 257.911 95.2647 257.874 95.1449C257.858 95.0918 257.838 95.0412 257.82 94.9893C257.815 94.977 257.817 94.9795 257.815 94.972C257.811 94.9659 257.813 94.9696 257.806 94.9597C257.751 94.8621 257.69 94.772 257.624 94.6818C257.616 94.672 257.59 94.6448 257.569 94.6226C257.542 94.6003 257.49 94.5584 257.477 94.5485C257.426 94.5151 257.375 94.483 257.322 94.4522C257.317 94.4485 257.321 94.4497 257.325 94.4497C257.315 94.4472 257.312 94.446 257.295 94.4398C257.189 94.4052 257.084 94.3744 256.974 94.3534C256.97 94.3534 256.974 94.3534 256.969 94.3534C256.937 94.3509 256.904 94.346 256.87 94.346C256.801 94.3447 256.732 94.3398 256.663 94.341C256.601 94.341 256.541 94.3447 256.479 94.3497C256.46 94.3534 256.367 94.3632 256.338 94.3682C255.524 94.504 254.962 94.7547 254.299 95.2054C253.493 95.755 252.779 96.4119 252.102 97.1244C251.407 97.8555 250.761 98.6471 250.18 99.472C250.23 99.4892 250.283 99.5016 250.334 99.5201C250.484 99.572 250.554 99.6584 250.581 99.756C249.612 99.9585 248.628 100.017 247.637 100.018C242.599 98.9002 237.367 98.773 232.228 98.6433C226.545 98.5001 220.971 98.5446 215.339 99.4374C209.81 100.314 204.451 101.774 199.268 103.898C196.069 105.209 193.018 106.802 189.961 108.391C194.408 107.691 198.868 107.078 203.358 106.719C207.131 106.419 210.903 106.391 214.656 106.689C212.184 106.782 209.71 106.9 207.245 107.081C201.13 107.533 195.13 108.647 189.093 109.665C187.416 109.947 185.735 110.235 184.079 110.62C183.838 110.677 183.599 110.738 183.359 110.797C183.371 110.791 183.383 110.783 183.395 110.777C182.138 110.995 180.883 111.209 179.63 111.419C167.865 113.387 156.323 116.076 145.056 120.035C133.994 123.923 123.327 128.897 113.178 134.769C108.115 137.699 103.206 140.911 98.6167 144.541C93.797 148.355 89.386 152.667 85.1874 157.146C84.2008 158.199 83.1622 159.234 82.2929 160.389C81.5618 161.36 80.895 162.378 80.1578 163.346C79.4971 164.212 78.7982 165.077 77.9165 165.729C77.1582 166.29 76.2444 166.625 75.3491 166.895C73.1832 167.548 70.932 167.842 68.8438 168.743C66.4284 169.785 64.2093 171.106 62.0989 172.651C62.5657 173.329 63.3967 173.788 64.0994 174.124C65.312 174.703 66.6346 175.071 67.9374 175.387C68.8858 175.617 69.8453 175.817 70.8085 176.004C71.2049 176.123 71.6 176.246 71.9853 176.39C72.7621 176.684 73.4585 177.116 74.1278 177.593C73.8747 177.56 73.6215 177.52 73.3659 177.493C73.4301 177.572 73.4968 177.651 73.561 177.73C75.0552 179.561 76.3 181.579 77.5225 183.597C80.1602 187.946 82.8226 192.272 85.6616 196.496C90.837 204.196 96.5347 211.548 103.74 217.465C110.679 223.16 118.169 228.181 126.068 232.445C133.982 236.718 142.306 240.217 150.887 242.908C155.168 244.251 159.512 245.393 163.9 246.33C165.615 246.696 167.338 247.004 169.063 247.298C169.023 247.233 168.981 247.169 168.939 247.104C169.396 247.306 169.856 247.497 170.337 247.655C171.254 247.956 172.14 248.264 172.968 248.77C173.362 249.011 173.744 249.27 174.133 249.52C173.516 249.453 172.898 249.383 172.281 249.3C172.735 250.066 173.201 250.824 173.78 251.504C174.698 252.582 176.54 254.606 178.131 253.601C178.828 253.16 179.341 252.411 179.778 251.729C180.402 250.757 180.94 249.722 181.477 248.701C181.492 248.674 181.518 248.653 181.536 248.628C180.993 248.469 180.458 248.251 179.935 247.966C181.55 248.18 183.186 248.027 184.773 247.62C187.203 247.418 189.54 246.418 191.719 245.394C194.131 244.262 196.566 243.159 198.941 241.947C203.725 239.506 208.307 236.53 212.157 232.761C219.442 225.627 223.409 215.787 231.165 209.044C235.332 205.423 240.355 202.861 245.388 200.667C250.663 198.367 256.124 196.537 261.589 194.753C270.223 191.932 278.965 189.175 286.822 184.509C290.494 182.33 293.977 179.765 296.845 176.582C298.578 174.656 299.918 172.561 301.002 170.312C302.034 168.834 303.061 167.352 304.082 165.868C303.962 166.684 303.79 167.469 303.538 168.251C304.363 168.107 305.19 167.965 306.007 167.773C307.414 167.445 308.804 167.053 310.176 166.6C312.603 165.8 315.01 164.854 317.309 163.74C318.238 163.292 320.496 162.342 319.252 161.101ZM253.214 117.38C252.808 118.399 252.29 119.354 251.676 120.264C250.412 122.137 248.868 123.81 247.419 125.538C245.761 127.514 244.102 129.484 242.468 131.479C239.26 135.396 236.014 139.265 232.474 142.888C226.482 149.019 219.411 155.053 210.814 156.925C206.212 157.926 201.487 157.352 196.871 156.731C191.835 156.053 186.848 155.07 181.835 154.245C176.753 153.409 171.628 152.755 166.468 152.727C161.957 152.704 157.411 153.146 152.947 153.776C145.027 154.892 136.672 156.811 129.957 161.37C131.304 161.127 132.653 160.884 133.999 160.633C141.534 159.229 149.073 157.889 156.752 157.692C164.194 157.5 171.641 158.139 178.964 159.454C186.304 160.771 193.54 162.753 200.562 165.256C205.57 167.042 210.612 168.857 215.396 171.188C217.883 172.399 220.318 173.764 222.521 175.445C224.449 176.917 226.591 178.807 227.539 181.1C228.556 183.557 226.884 186.115 225.769 188.235C224.263 191.099 222.521 193.835 220.602 196.438C212.831 206.982 202.324 215.479 190.943 221.857C185.198 225.077 177.969 227.711 171.856 223.854C167.466 221.084 164.793 215.857 159.92 213.856C163.607 219.47 168.56 224.862 169.826 231.616C169.869 231.847 169.73 232.045 169.489 232.059C164.39 232.345 159.314 231.009 154.491 229.491C149.594 227.95 144.714 226.269 139.935 224.391C123.17 217.801 107.077 207.391 97.0633 192.088C95.8309 190.206 94.6972 188.259 93.676 186.254C92.6189 184.183 91.4779 182.115 90.7506 179.897C90.0899 177.886 89.8442 175.692 90.595 173.667C91.2914 171.789 92.7079 170.208 94.1206 168.828C95.6802 167.301 97.4078 165.954 99.1576 164.656C100.607 163.581 102.046 162.45 103.604 161.535C105.064 160.679 106.55 159.864 107.939 158.894C109.013 158.144 110.379 157.167 110.872 155.868C106.704 156.032 102.539 157.905 98.9588 159.886C95.2505 161.938 91.3026 164.57 88.9501 168.187C88.7797 168.449 88.2561 168.381 88.2993 168.01C89.0193 161.911 92.7807 156.76 97.0003 152.516C100.957 148.536 105.47 145.014 110.059 141.794C120.256 134.639 131.986 129.442 143.642 124.825C155.865 119.983 168.428 115.474 181.52 113.726C186.081 113.117 190.696 112.833 195.292 112.691C200.109 112.543 204.975 112.648 209.728 113.51C212.021 113.926 214.287 114.531 216.443 115.425C217.968 116.058 219.536 116.834 220.633 118.11C222.265 120.007 221.954 122.358 220.933 124.472C219.645 127.137 217.648 129.409 215.985 131.838C214.549 133.935 212.859 136.554 213.336 139.219C216.438 139.806 219.829 138.037 222.442 136.599C225.273 135.039 227.938 133.194 230.567 131.318C232.749 129.761 235.012 128.319 237.116 126.655C239.775 124.554 242.339 122.328 245.117 120.381C247.388 118.788 250.02 117.086 252.874 116.934C253.087 116.927 253.297 117.174 253.214 117.38Z" fill="#E7E867"/>
<path d="M232.475 142.905C226.484 149.037 219.413 155.07 210.816 156.942C206.213 157.944 201.489 157.369 196.873 156.748C191.837 156.07 186.849 155.087 181.837 154.263C176.754 153.427 171.629 152.772 166.47 152.745C161.959 152.721 157.412 153.163 152.948 153.793C148.601 154.406 144.125 155.264 139.859 156.664C140.551 156.524 141.245 156.393 141.941 156.272C146.83 155.422 151.792 155.084 156.751 155.199C167.001 155.434 177.105 157.361 187.192 159.018C194.966 160.295 202.832 161.857 210.749 161.354C214.573 161.111 218.401 160.346 221.902 158.748C225.655 157.035 228.762 154.422 231.403 151.278C236.089 145.701 239.229 139.07 241.815 132.289C238.818 135.934 235.775 139.528 232.475 142.905Z" fill="#E7E867"/>
<path d="M252.669 143.089C251.615 146.894 250.443 150.668 249.072 154.373C247.76 157.921 246.19 161.366 244.543 164.771C241.321 171.43 237.788 177.984 235.397 185.004C238.677 183.604 241.311 180.868 243.428 178.075C245.641 175.156 247.462 171.944 249.039 168.643C250.622 165.33 251.938 161.917 252.81 158.345C254.254 152.437 254.634 146.105 253.473 140.098C253.212 141.097 252.945 142.093 252.669 143.089Z" fill="#E7E867"/>
<path opacity="0.66" d="M319.248 161.101C318.471 160.327 317.298 159.891 316.299 159.503C315.172 159.066 314.017 158.703 312.85 158.389C312.798 158.376 312.744 158.366 312.692 158.352C311.776 157.952 310.853 157.568 309.878 157.311C308.431 156.931 306.934 156.832 305.454 156.626C305.54 156.557 305.638 156.505 305.732 156.496C306.657 156.414 307.586 156.394 308.514 156.422C307.892 155.056 307.327 153.662 306.768 152.274C305.433 148.955 304 145.7 302.385 142.506C296.982 131.822 289.967 121.846 280.798 114.053C276.739 110.603 272.228 107.591 267.311 105.507C264.529 104.326 261.648 103.491 258.713 102.895C258.131 102.63 257.547 102.371 256.958 102.123C256.207 101.806 255.437 101.477 254.651 101.207C255.194 101.223 255.734 101.246 256.274 101.29C256.358 101.148 256.441 101.004 256.516 100.857C256.84 100.231 257.098 99.6806 257.367 98.941C257.584 98.3445 257.794 97.6221 257.882 97.1146C257.934 96.8194 257.971 96.5218 257.984 96.223C257.991 96.0785 257.989 95.9353 257.987 95.7908C257.986 95.7574 257.983 95.7229 257.981 95.6895C257.973 95.629 257.966 95.5697 257.956 95.5105C257.935 95.387 257.908 95.2647 257.871 95.1449C257.855 95.0918 257.835 95.0412 257.816 94.9893C257.812 94.977 257.814 94.9795 257.812 94.972C257.808 94.9659 257.809 94.9696 257.803 94.9597C257.747 94.8621 257.687 94.772 257.62 94.6818C257.613 94.672 257.587 94.6448 257.566 94.6226C257.539 94.6003 257.487 94.5584 257.473 94.5485C257.423 94.5151 257.372 94.483 257.319 94.4522C257.314 94.4485 257.318 94.4497 257.321 94.4497C257.311 94.4472 257.309 94.446 257.292 94.4398C257.185 94.4052 257.081 94.3744 256.971 94.3534C256.967 94.3534 256.971 94.3534 256.966 94.3534C256.934 94.3509 256.9 94.346 256.867 94.346C256.798 94.3447 256.729 94.3398 256.659 94.341C256.598 94.341 256.537 94.3447 256.475 94.3497C256.457 94.3534 256.363 94.3632 256.335 94.3682C255.521 94.504 254.959 94.7547 254.296 95.2054C253.489 95.755 252.776 96.4119 252.099 97.1244C251.404 97.8555 250.758 98.6471 250.176 99.472C250.227 99.4892 250.28 99.5016 250.331 99.5201C250.48 99.572 250.55 99.6584 250.578 99.756C249.608 99.9585 248.624 100.017 247.634 100.018C242.595 98.9002 237.363 98.773 232.225 98.6433C226.542 98.5001 220.968 98.5446 215.335 99.4374C209.807 100.314 204.447 101.774 199.265 103.898C199.065 103.979 198.87 104.072 198.671 104.156C201.631 103.483 204.623 102.958 207.609 102.541C224.576 100.167 242.531 100.403 258.251 107.983C265.926 111.684 272.883 117.264 278.329 123.81C280.978 126.994 283.507 130.558 285.005 134.443C286.655 138.723 286.923 143.358 287.503 147.863C287.547 148.211 287.003 148.332 286.852 148.04C285.069 144.566 281.357 142.756 277.857 141.447C275.06 140.401 272.15 139.644 269.355 138.59C270.029 139.161 270.702 139.734 271.375 140.306C276.742 144.877 282.562 149.895 285.548 156.438C286.705 158.973 287.507 161.895 286.774 164.661C286.129 167.098 284.566 169.214 282.86 171.021C278.633 175.499 273.139 178.746 267.817 181.742C261.65 185.213 255.476 188.702 249.138 191.852C244.839 193.99 240.491 196.027 236.154 198.086C233.945 199.134 231.712 200.152 229.538 201.269C228.005 202.057 226.381 202.773 224.976 203.782C223.409 204.907 222.49 206.427 221.607 208.104C220.616 209.989 219.627 211.874 218.602 213.74C216.626 217.339 214.507 220.867 211.996 224.122C206.931 230.689 200.139 235.904 192.678 239.486C185.06 243.143 176.635 245 168.226 245.538C165.396 245.72 162.599 245.667 159.814 245.39C161.171 245.721 162.531 246.04 163.896 246.331C165.612 246.697 167.334 247.006 169.06 247.299C169.02 247.234 168.978 247.17 168.936 247.106C169.393 247.307 169.852 247.498 170.334 247.656C171.25 247.958 172.137 248.265 172.964 248.771C173.358 249.012 173.741 249.272 174.13 249.521C173.512 249.454 172.895 249.384 172.278 249.301C172.732 250.067 173.198 250.825 173.777 251.505C174.694 252.583 176.537 254.607 178.127 253.602C178.825 253.161 179.337 252.412 179.775 251.73C180.398 250.758 180.937 249.724 181.474 248.702C181.489 248.675 181.515 248.654 181.533 248.629C180.99 248.47 180.455 248.253 179.931 247.967C181.547 248.181 183.183 248.028 184.77 247.622C187.2 247.419 189.536 246.419 191.716 245.395C194.128 244.263 196.563 243.16 198.937 241.949C203.721 239.507 208.304 236.531 212.153 232.762C219.439 225.629 223.405 215.788 231.162 209.045C235.328 205.425 240.352 202.862 245.385 200.668C250.659 198.369 256.121 196.538 261.585 194.754C270.22 191.934 278.961 189.176 286.819 184.511C290.49 182.331 293.974 179.766 296.841 176.583C298.575 174.658 299.915 172.562 300.999 170.313C302.03 168.835 303.058 167.353 304.079 165.869C303.959 166.685 303.786 167.471 303.534 168.252C304.359 168.108 305.186 167.966 306.004 167.774C307.411 167.446 308.801 167.054 310.173 166.601C312.599 165.801 315.006 164.855 317.306 163.741C318.234 163.292 320.493 162.342 319.248 161.101Z" fill="#BCC85F"/>
</svg>
