<svg width="632" height="493" viewBox="0 0 632 493" fill="none" xmlns="http://www.w3.org/2000/svg">
<path d="M218.077 169.801C292.924 137.911 244.296 196.02 328.622 154.649C412.909 113.318 442.895 98.7619 414.813 151.952C386.691 205.102 459.237 150.048 529.126 113.596C599.015 77.1447 537.495 59.2954 498.743 58.8989C459.991 58.542 434.169 58.8989 471.017 36.4882C498.117 20.0323 439.634 29.8295 406.735 36.1491C328.919 74.341 210.053 132.683 144.636 164.808C108.354 194.118 146.314 200.394 218.077 169.801Z" fill="#288ADB"/>
<path d="M43.612 285.723C40.2682 280.642 37.9739 277.194 37.4836 276.427C40.4981 279.164 77.9414 312.839 63.1463 272.223C47.7172 229.94 138.073 314.505 118.597 279.125C99.0826 243.743 159.611 293.999 154.812 263.1C152.752 250.012 147.13 235.88 141.351 223.892C131.546 212.055 123.935 202.891 120.795 199.168C116.434 193.961 111.907 190.459 107.332 188.742L2.58203 237.972L43.612 285.723Z" fill="#EAEAEA"/>
<path d="M8.21349 260.041C8.21349 260.041 13.528 277.533 28.2036 299.706C42.8804 321.878 62.633 338.537 41.8887 328.304C21.1048 318.07 48.9887 346.906 77.309 361.82C97.0312 372.225 69.9969 326.794 51.6942 298.158L2.58203 241L5.54002 257.876C7.20283 259.06 8.21349 260.041 8.21349 260.041Z" fill="#EAEAEA"/>
<path d="M471.02 36.4727C434.172 58.8834 459.994 58.5265 498.746 58.8834C537.498 59.2799 599.018 77.1288 529.129 113.581C459.24 150.033 386.693 205.087 414.816 151.936C442.898 98.7465 412.912 113.303 328.625 154.634C244.298 196.004 292.927 137.895 218.08 169.786C146.317 200.378 108.357 194.103 144.64 164.793C124.681 174.594 109.698 181.954 102.375 185.557C103.895 185.677 105.657 186.004 107.611 186.708C112.651 188.487 117.6 192.244 122.314 197.871C125.476 201.622 133.171 210.887 143.075 222.843C154.236 229.308 165.344 233.738 161.399 222.579C154.062 201.795 197.336 273.191 231.249 240.309C265.201 207.427 247.988 265.615 328.467 233.447C408.986 201.319 463.168 176.251 400.379 226.387C337.589 276.483 404.186 230.909 479.113 191.68C554.079 152.452 582.161 135.238 554.079 145.114C525.957 154.991 524.687 149.398 558.363 124.092C574.715 111.774 578.468 101.997 578.013 95.1906L497.147 8.86983C490.58 1.86048 480.384 -0.0104697 471.775 4.21382C459.077 10.4456 435.762 21.8882 406.738 36.1332C439.637 29.814 498.119 20.0168 471.02 36.4727Z" fill="#2583CF"/>
<path d="M251.518 364.521C257.072 340.643 263.18 383.599 306.692 354.764C350.244 325.888 385.942 310.696 418.031 285.112C444.378 264.151 344.287 301.649 307.572 315.761L239.93 349.718L241.555 368.016C244.107 374.111 248.101 379.272 251.518 364.521Z" fill="#217BC2"/>
<path d="M313.04 302.071C283.927 307.902 334.3 285.61 407.996 249.674C481.654 213.699 482.408 208.661 454.325 230.159C426.203 251.697 457.855 232.46 502.676 207.114C547.497 181.808 589.264 160.31 603.187 151.425C613.941 144.59 586.66 150.717 573.672 153.861L230.48 329.069L239.347 347.779L308.767 312.93C319.921 306.333 330.855 298.513 313.04 302.071Z" fill="#217BC2"/>
<path d="M558.355 124.097C524.679 149.404 525.949 154.996 554.07 145.119C582.153 135.243 554.07 152.458 479.105 191.686C404.178 230.914 337.581 276.488 400.37 226.392C463.16 176.256 408.977 201.324 328.459 233.452C247.98 265.62 265.193 207.432 231.241 240.314C197.328 273.196 154.054 201.8 161.391 222.584C165.336 233.743 154.228 229.314 143.066 222.848C173.223 259.258 223.863 320.64 229.425 327.382L586.968 144.846C588.03 144.22 588.349 143.968 587.467 144.326C583.184 146.111 575.053 145.596 587.467 136.512C597.117 129.421 597.278 119.433 596.871 115.334L578.005 95.1953C578.46 102.002 574.707 111.779 558.355 124.097Z" fill="#217BC2"/>
<path d="M283.489 408.141C292.691 403.5 303.52 397.194 316.093 389.936C363.414 362.606 524.967 259.281 473.284 304.101C421.641 348.922 468.484 318.024 525.204 290.695C581.925 263.326 601.916 219.021 567.724 228.421C533.574 237.782 585.217 205.098 602.669 192.723C620.162 180.308 569.748 184.592 569.748 184.592L624.766 156.966L624.741 156.531L307.572 315.75C344.287 301.637 444.378 264.14 418.031 285.102C385.942 310.685 350.244 325.877 306.692 354.753C263.18 383.589 257.072 340.632 251.518 364.51C248.101 379.261 244.107 374.1 241.555 368.005L245.107 407.993C245.423 408.579 245.749 409.137 246.084 409.648C252.908 420.041 264.966 417.502 283.489 408.141Z" fill="#1C70B0"/>
<path d="M603.184 151.425C589.262 160.31 547.495 181.808 502.674 207.114C457.853 232.46 426.2 251.697 454.323 230.159C482.406 208.661 481.651 213.698 407.994 249.674C334.298 285.61 283.924 307.902 313.037 302.071C330.852 298.513 319.918 306.333 308.764 312.93L624.318 154.522L613.565 133.492L573.669 153.861C586.657 150.717 613.939 144.59 603.184 151.425Z" fill="#1C70B0"/>
<path d="M587.477 136.514C575.062 145.598 583.193 146.113 587.477 144.328C588.358 143.971 588.039 144.223 586.977 144.849L612.378 131.881L596.879 115.336C597.287 119.435 597.126 129.424 587.477 136.514Z" fill="#1C70B0"/>
<path d="M247.967 441.81L619.821 253.369C623.067 251.724 625.58 248.951 626.897 245.558L628.293 241.964C629.061 239.986 629.389 237.909 629.268 235.789L624.763 156.969L569.745 184.595C569.745 184.595 620.159 180.311 602.666 192.726C585.214 205.102 533.571 237.785 567.722 228.424C601.913 219.024 581.922 263.329 525.201 290.698C468.481 318.027 421.638 348.926 473.281 304.104C524.964 259.283 363.41 362.609 316.09 389.939C303.517 397.197 292.689 403.504 283.486 408.144C264.963 417.505 252.905 420.044 246.083 409.652C245.748 409.14 245.422 408.583 245.105 407.996L247.92 439.674L248.077 441.249C248.095 441.428 248.064 441.609 247.987 441.771C247.983 441.777 247.976 441.792 247.967 441.81Z" fill="#1867A2"/>
<path d="M118.606 279.123C138.082 314.504 47.7259 229.939 63.1549 272.222C77.9496 312.838 40.5068 279.163 37.4922 276.426C37.9825 277.193 40.2769 280.641 43.6207 285.722L85.989 335.03C92.4293 339.434 119.461 356.707 127.135 340.682C135.9 322.477 93.935 331.956 129.434 316.447C164.935 300.939 170.25 299.114 161.523 315.059C152.797 331.004 196.627 319.62 191.272 301.771C187.454 289.044 179.361 272.851 175.03 264.604C163.127 250.198 151.15 235.711 141.359 223.891C147.138 235.879 152.76 250.01 154.82 263.098C159.619 293.998 99.0912 243.742 118.606 279.123Z" fill="#D5D5D5"/>
<path d="M77.3045 361.819C48.9846 346.905 21.1003 318.069 41.8842 328.302C62.6289 338.536 42.8759 321.877 28.1991 299.704C13.5235 277.532 8.20902 260.04 8.20902 260.04C8.20902 260.04 7.19796 259.059 5.53516 257.875L19.9519 340.127L42.8407 369.464C55.8289 383.178 85.1346 412.947 74.5278 390.813C61.0421 362.731 118.198 424.806 113.081 401.047C109.167 382.809 94.4724 353.088 87.8678 340.261L51.6893 298.156C69.9924 326.793 97.0267 372.224 77.3045 361.819Z" fill="#D5D5D5"/>
<path d="M104.495 187.884C100.903 187.101 98.3873 187.69 97.544 187.951C97.5413 187.952 97.5389 187.952 97.5361 187.953C97.5033 187.967 97.474 187.977 97.4471 187.986C97.4439 187.987 97.4396 187.989 97.4364 187.99C97.4356 187.99 97.4348 187.991 97.434 187.991C96.5393 188.44 95.6616 189.265 94.8203 190.428L94.0312 192.803L104.495 187.884Z" fill="#1867A2"/>
<path d="M139.661 382.079C119.154 395.565 144.42 386.839 172.344 376.963C200.229 367.086 198.722 361.018 184.482 364.191C170.242 367.404 202.132 355.504 214.865 347.135C224.206 341.024 203.894 344.776 192.41 347.208L145.744 369.404C149.346 369.732 155.544 371.634 139.661 382.079Z" fill="#C2C2C2"/>
<path d="M161.523 315.049C170.248 299.104 164.934 300.928 129.434 316.437C93.9339 331.946 135.899 322.466 127.134 340.672C119.46 356.697 92.4286 339.424 85.9883 335.02L122.965 378.054L212.877 335.29L227.493 328.142C222.608 322.22 198.975 293.575 175.03 264.594C179.36 272.841 187.453 289.034 191.271 301.762C196.626 319.61 152.797 330.994 161.523 315.049Z" fill="#C2C2C2"/>
<path d="M74.5269 390.81C85.1338 412.943 55.8285 383.174 42.8398 369.46L98.5846 440.909C107.712 446.451 121.916 452.564 118.396 433.925C113.279 406.953 128.471 443.603 130.375 419.964C131.485 406.175 128.709 394.52 126.203 387.199L121.888 379.851L87.867 340.258C94.4719 353.085 109.166 382.807 113.081 401.044C118.198 424.802 61.0413 362.727 74.5269 390.81Z" fill="#C2C2C2"/>
<path d="M168.973 448.668C180.872 419.554 185.671 449.421 209.47 434.745C233.269 420.03 222.638 403.093 201.656 409.32C180.634 415.587 203.917 397.778 224.424 380.286C241.805 365.502 209.712 368.67 199.532 369.978L136.473 401.641L137.711 489.883L137.955 489.769V437.284C137.955 437.284 157.073 477.781 168.973 448.668Z" fill="#B2B2B2"/>
<path d="M214.862 347.131C202.13 355.501 170.239 367.4 184.479 364.187C198.719 361.014 200.226 367.083 172.342 376.959C144.418 386.836 119.152 395.562 139.658 382.076C155.541 371.631 149.343 369.728 145.741 369.401L124.098 379.695L135.866 399.735L237.57 348.669L228.697 329.945L192.408 347.205C203.891 344.772 224.203 341.021 214.862 347.131Z" fill="#B2B2B2"/>
<path d="M227.6 328.273C227.563 328.228 227.523 328.181 227.483 328.133L212.867 335.281L227.6 328.273Z" fill="#B2B2B2"/>
<path d="M130.384 419.952C128.48 443.592 113.288 406.942 118.405 433.914C121.925 452.553 107.721 446.44 98.5938 440.898L135.718 488.48L134.494 401.292L126.212 387.188C128.719 394.508 131.495 406.163 130.384 419.952Z" fill="#B2B2B2"/>
<path d="M238.022 350.664L199.53 369.991C209.71 368.683 241.803 365.515 224.422 380.299C203.915 397.791 180.632 415.6 201.655 409.333C222.636 403.106 233.267 420.043 209.468 434.758C185.67 449.434 180.87 419.566 168.971 448.681C157.072 477.794 137.953 437.297 137.953 437.297V489.781L234.214 444.615C234.216 444.614 234.219 444.614 234.221 444.613C234.254 444.598 234.289 444.587 234.324 444.576C234.344 444.569 234.364 444.559 234.385 444.554L245.883 439.158L238.022 350.664Z" fill="#A6A6A6"/>
<path d="M0.00496988 237.69C0.00734418 237.721 0.00615635 237.751 0.0116964 237.782L18.0505 340.699C18.0786 340.858 18.1451 341.008 18.2448 341.136L135.88 491.912C135.96 492.057 136.076 492.182 136.22 492.272C136.38 492.372 136.562 492.423 136.745 492.423C136.888 492.423 137.032 492.392 137.165 492.329L234.687 446.572C236.182 447.102 237.619 447.371 238.99 447.371C240.401 447.371 241.743 447.089 243.01 446.525C243.021 446.52 243.033 446.518 243.044 446.512L243.123 446.472L244.03 446.037C244.066 446.02 244.101 446 244.134 445.979C244.172 445.955 244.207 445.929 244.244 445.905L620.716 255.123C624.397 253.258 627.248 250.112 628.741 246.265L630.137 242.67C631.008 240.426 631.38 238.07 631.243 235.666L626.635 155.013C626.644 154.84 626.612 154.667 626.532 154.509L614.87 131.702C614.862 131.686 614.849 131.675 614.84 131.659C614.811 131.61 614.779 131.563 614.742 131.52C614.731 131.506 614.724 131.489 614.712 131.476L498.59 7.52201C491.424 -0.127217 480.298 -2.16872 470.903 2.44258C410.285 32.1923 107.757 180.668 96.8083 186.098C96.8067 186.099 96.8035 186.1 96.8019 186.1C96.7726 186.109 96.737 186.121 96.6959 186.137C96.6796 186.143 96.6654 186.149 96.648 186.157C96.6104 186.173 96.5712 186.194 96.5293 186.218C96.5154 186.226 96.5036 186.229 96.4897 186.238C94.2068 187.415 92.1847 190.183 90.4728 194.462L0.565699 236.716C0.550662 236.723 0.538393 236.734 0.523752 236.742C0.482201 236.764 0.442236 236.788 0.404643 236.816C0.383274 236.831 0.363093 236.848 0.343307 236.865C0.30888 236.894 0.27722 236.927 0.247542 236.961C0.230526 236.98 0.213114 236.998 0.198077 237.019C0.167607 237.059 0.141488 237.103 0.117745 237.148C0.108643 237.165 0.0975636 237.18 0.0896493 237.197C0.0599704 237.262 0.0370199 237.328 0.0215869 237.398C0.0211912 237.4 0.0200021 237.402 0.0196064 237.404C0.0168364 237.417 0.0180285 237.43 0.0160499 237.442C0.0065527 237.497 0.00021783 237.553 0.00021783 237.61C-0.000969323 237.637 0.00299129 237.663 0.00496988 237.69ZM497.146 8.87457L578.012 95.1949L596.877 115.333L612.376 131.878L586.975 144.846L229.432 327.382C223.87 320.639 173.23 259.258 143.074 222.848C133.17 210.891 125.475 201.626 122.313 197.876C117.599 192.248 112.65 188.492 107.61 186.713C105.657 186.009 103.894 185.682 102.374 185.562C109.697 181.959 124.68 174.599 144.639 164.797C210.056 132.673 328.921 74.3303 406.737 36.1383C435.762 21.8929 459.077 10.4507 471.774 4.21895C480.383 -0.00573702 490.58 1.86522 497.146 8.87457ZM107.334 188.723C111.91 190.44 116.436 193.942 120.797 199.149C123.937 202.872 131.548 212.036 141.353 223.873C151.143 235.694 163.121 250.18 175.024 264.586C198.969 293.568 222.602 322.213 227.488 328.134C227.528 328.182 227.567 328.23 227.604 328.275L212.872 335.282L122.959 378.046L85.9826 335.012L43.6143 285.703L2.58426 237.953L107.334 188.723ZM624.316 154.522L308.762 312.93L239.342 347.779L230.476 329.069L573.667 153.861L613.564 133.492L624.316 154.522ZM237.573 348.668L135.869 399.734L124.101 379.694L145.744 369.4L192.411 347.204L228.7 329.944L237.573 348.668ZM234.389 444.545C234.368 444.55 234.348 444.56 234.328 444.567C234.293 444.579 234.258 444.589 234.224 444.604C234.222 444.605 234.22 444.605 234.218 444.607L137.957 489.773L137.714 489.887L136.475 401.644L199.534 369.982L238.026 350.655L245.888 439.149L234.389 444.545ZM51.6944 298.143L87.8729 340.248L121.894 379.841L126.209 387.19L134.491 401.294L135.715 488.482L98.591 440.9L42.8462 369.451L19.9575 340.114L5.54067 257.862L2.58267 240.986L51.6944 298.143ZM247.919 439.663L245.105 407.986L241.552 367.998L239.927 349.7L307.569 315.743L624.739 156.524L624.764 156.959L629.268 235.78C629.389 237.899 629.061 239.976 628.293 241.954L626.897 245.549C625.58 248.941 623.067 251.714 619.821 253.359L247.967 441.8C247.976 441.782 247.984 441.767 247.986 441.761C248.063 441.599 248.094 441.418 248.077 441.24L247.919 439.663ZM237.506 445.268L245.988 441.288C245.612 441.913 244.715 443.2 243.231 444.2L242.231 444.706L242.205 444.719C240.785 445.357 239.211 445.539 237.506 445.268ZM94.8229 190.414C95.6642 189.251 96.5423 188.426 97.4367 187.976C97.4374 187.976 97.4382 187.976 97.439 187.975C97.4422 187.975 97.4465 187.973 97.4497 187.971C97.4766 187.963 97.5059 187.952 97.5388 187.939C97.5415 187.938 97.5439 187.937 97.5467 187.936C98.3899 187.675 100.906 187.086 104.497 187.87L94.0339 192.787L93.1981 193.18C93.7197 192.113 94.263 191.187 94.8229 190.414Z" fill="black"/>
</svg>
