<svg width="156" height="56" viewBox="0 0 156 56" fill="none" xmlns="http://www.w3.org/2000/svg">
<g clip-path="url(#clip0_6222_20480)">
<rect width="156" height="56" rx="10" fill="url(#paint0_linear_6222_20480)"/>
<g clip-path="url(#clip1_6222_20480)">
<path opacity="0.3" d="M158.493 14.6272C151.824 16.2264 149.834 18.1392 148.161 24.5152C148.124 24.654 148.039 24.777 147.92 24.8647C147.801 24.9524 147.656 25 147.505 25C147.355 25 147.21 24.9524 147.091 24.8647C146.972 24.777 146.887 24.654 146.849 24.5152C145.177 18.1392 143.176 16.2264 136.507 14.6272C136.362 14.591 136.233 14.5098 136.142 14.3963C136.05 14.2828 136 14.1435 136 14C136 13.8566 136.05 13.7172 136.142 13.6037C136.233 13.4902 136.362 13.409 136.507 13.3728C143.176 11.7736 145.177 9.86081 146.849 3.48479C146.887 3.34596 146.972 3.22306 147.091 3.13533C147.21 3.0476 147.355 3 147.505 3C147.656 3 147.801 3.0476 147.92 3.13533C148.039 3.22306 148.124 3.34596 148.161 3.48479C149.834 9.86081 151.824 11.7736 158.493 13.3728C158.638 13.409 158.767 13.4902 158.858 13.6037C158.95 13.7172 159 13.8566 159 14C159 14.1435 158.95 14.2828 158.858 14.3963C158.767 14.5098 158.638 14.591 158.493 14.6272Z" fill="white"/>
<path opacity="0.3" d="M152.493 47.6272C145.824 49.2264 143.834 51.1392 142.161 57.5152C142.124 57.654 142.039 57.777 141.92 57.8647C141.801 57.9524 141.656 58 141.505 58C141.355 58 141.21 57.9524 141.091 57.8647C140.972 57.777 140.887 57.654 140.849 57.5152C139.177 51.1392 137.176 49.2264 130.507 47.6272C130.362 47.591 130.233 47.5098 130.142 47.3963C130.05 47.2828 130 47.1435 130 47C130 46.8566 130.05 46.7172 130.142 46.6037C130.233 46.4902 130.362 46.409 130.507 46.3728C137.176 44.7736 139.177 42.8608 140.849 36.4848C140.887 36.346 140.972 36.2231 141.091 36.1353C141.21 36.0476 141.355 36 141.505 36C141.656 36 141.801 36.0476 141.92 36.1353C142.039 36.2231 142.124 36.346 142.161 36.4848C143.834 42.8608 145.824 44.7736 152.493 46.3728C152.638 46.409 152.767 46.4902 152.858 46.6037C152.95 46.7172 153 46.8566 153 47C153 47.1435 152.95 47.2828 152.858 47.3963C152.767 47.5098 152.638 47.591 152.493 47.6272Z" fill="white"/>
<path opacity="0.2" d="M51.4929 42.6272C44.8239 44.2264 42.8342 46.1392 41.1614 52.5152C41.1236 52.654 41.0387 52.777 40.92 52.8647C40.8013 52.9524 40.6555 53 40.5055 53C40.3554 53 40.2096 52.9524 40.0909 52.8647C39.9722 52.777 39.8873 52.654 39.8495 52.5152C38.1768 46.1392 36.1761 44.2264 29.5071 42.6272C29.3619 42.591 29.2333 42.5098 29.1415 42.3963C29.0498 42.2828 29 42.1435 29 42C29 41.8566 29.0498 41.7172 29.1415 41.6037C29.2333 41.4902 29.3619 41.409 29.5071 41.3728C36.1761 39.7736 38.1768 37.8608 39.8495 31.4848C39.8873 31.346 39.9722 31.2231 40.0909 31.1353C40.2096 31.0476 40.3554 31 40.5055 31C40.6555 31 40.8013 31.0476 40.92 31.1353C41.0387 31.2231 41.1236 31.346 41.1614 31.4848C42.8342 37.8608 44.8239 39.7736 51.4929 41.3728C51.6381 41.409 51.7667 41.4902 51.8585 41.6037C51.9502 41.7172 52 41.8566 52 42C52 42.1435 51.9502 42.2828 51.8585 42.3963C51.7667 42.5098 51.6381 42.591 51.4929 42.6272Z" fill="white"/>
<path opacity="0.3" d="M40.5811 8.04164C35.0719 9.42279 33.4282 11.0748 32.0464 16.5813C32.0152 16.7012 31.945 16.8074 31.847 16.8831C31.7489 16.9589 31.6285 17 31.5045 17C31.3806 17 31.2601 16.9589 31.1621 16.8831C31.064 16.8074 30.9938 16.7012 30.9626 16.5813C29.5808 11.0748 27.9281 9.42279 22.4189 8.04164C22.2989 8.01043 22.1927 7.94031 22.1169 7.8423C22.0411 7.74428 22 7.62389 22 7.5C22 7.37612 22.0411 7.25573 22.1169 7.15771C22.1927 7.05969 22.2989 6.98958 22.4189 6.95837C27.9281 5.57721 29.5808 3.92525 30.9626 -1.58132C30.9938 -1.70121 31.064 -1.80736 31.1621 -1.88312C31.2601 -1.95889 31.3806 -2 31.5045 -2C31.6285 -2 31.7489 -1.95889 31.847 -1.88312C31.945 -1.80736 32.0152 -1.70121 32.0464 -1.58132C33.4282 3.92525 35.0719 5.57721 40.5811 6.95837C40.7011 6.98958 40.8073 7.05969 40.8831 7.15771C40.9589 7.25573 41 7.37612 41 7.5C41 7.62389 40.9589 7.74428 40.8831 7.8423C40.8073 7.94031 40.7011 8.01043 40.5811 8.04164Z" fill="white"/>
<path opacity="0.2" d="M22.6693 16.9276C18.3199 18.018 17.0223 19.3222 15.9314 23.6695C15.9067 23.7641 15.8513 23.8479 15.7739 23.9077C15.6965 23.9676 15.6014 24 15.5036 24C15.4057 24 15.3106 23.9676 15.2332 23.9077C15.1558 23.8479 15.1004 23.7641 15.0758 23.6695C13.9848 19.3222 12.68 18.018 8.33069 16.9276C8.23599 16.903 8.15215 16.8476 8.0923 16.7702C8.03246 16.6929 8 16.5978 8 16.5C8 16.4022 8.03246 16.3072 8.0923 16.2298C8.15215 16.1524 8.23599 16.097 8.33069 16.0724C12.68 14.982 13.9848 13.6778 15.0758 9.33054C15.1004 9.23589 15.1558 9.15209 15.2332 9.09227C15.3106 9.03245 15.4057 9 15.5036 9C15.6014 9 15.6965 9.03245 15.7739 9.09227C15.8513 9.15209 15.9067 9.23589 15.9314 9.33054C17.0223 13.6778 18.3199 14.982 22.6693 16.0724C22.764 16.097 22.8479 16.1524 22.9077 16.2298C22.9675 16.3072 23 16.4022 23 16.5C23 16.5978 22.9675 16.6929 22.9077 16.7702C22.8479 16.8476 22.764 16.903 22.6693 16.9276Z" fill="white"/>
<path opacity="0.2" d="M104.735 14.3421C101.256 15.2144 100.218 16.2577 99.3451 19.7356C99.3254 19.8113 99.2811 19.8783 99.2191 19.9262C99.1572 19.974 99.0811 20 99.0029 20C98.9246 20 98.8485 19.974 98.7866 19.9262C98.7246 19.8783 98.6803 19.8113 98.6606 19.7356C97.7879 16.2577 96.744 15.2144 93.2645 14.3421C93.1888 14.3224 93.1217 14.2781 93.0738 14.2162C93.026 14.1543 93 14.0782 93 14C93 13.9218 93.026 13.8457 93.0738 13.7838C93.1217 13.7219 93.1888 13.6776 93.2645 13.6579C96.744 12.7856 97.7879 11.7423 98.6606 8.26443C98.6803 8.18871 98.7246 8.12167 98.7866 8.07382C98.8485 8.02596 98.9246 8 99.0029 8C99.0811 8 99.1572 8.02596 99.2191 8.07382C99.2811 8.12167 99.3254 8.18871 99.3451 8.26443C100.218 11.7423 101.256 12.7856 104.735 13.6579C104.811 13.6776 104.878 13.7219 104.926 13.7838C104.974 13.8457 105 13.9218 105 14C105 14.0782 104.974 14.1543 104.926 14.2162C104.878 14.2781 104.811 14.3224 104.735 14.3421Z" fill="white"/>
<path opacity="0.1" d="M102.493 38.1557C95.8239 39.8276 93.8342 41.8273 92.1614 48.4932C92.1236 48.6383 92.0387 48.7668 91.92 48.8585C91.8013 48.9503 91.6555 49 91.5055 49C91.3554 49 91.2096 48.9503 91.0909 48.8585C90.9722 48.7668 90.8873 48.6383 90.8495 48.4932C89.1768 41.8273 87.1761 39.8276 80.5071 38.1557C80.3619 38.1179 80.2333 38.033 80.1415 37.9144C80.0498 37.7957 80 37.65 80 37.5C80 37.35 80.0498 37.2043 80.1415 37.0856C80.2333 36.967 80.3619 36.8821 80.5071 36.8443C87.1761 35.1724 89.1768 33.1727 90.8495 26.5068C90.8873 26.3617 90.9722 26.2332 91.0909 26.1415C91.2096 26.0498 91.3554 26 91.5055 26C91.6555 26 91.8013 26.0498 91.92 26.1415C92.0387 26.2332 92.1236 26.3617 92.1614 26.5068C93.8342 33.1727 95.8239 35.1724 102.493 36.8443C102.638 36.8821 102.767 36.967 102.858 37.0856C102.95 37.2043 103 37.35 103 37.5C103 37.65 102.95 37.7957 102.858 37.9144C102.767 38.033 102.638 38.1179 102.493 38.1557Z" fill="white"/>
<path opacity="0.1" d="M6.49293 44.1557C-0.176088 45.8276 -2.16584 47.8273 -3.83856 54.4932C-3.87636 54.6383 -3.96128 54.7668 -4.07999 54.8585C-4.19869 54.9503 -4.3445 55 -4.49454 55C-4.64458 55 -4.79038 54.9503 -4.90909 54.8585C-5.0278 54.7668 -5.11271 54.6383 -5.15051 54.4932C-6.82323 47.8273 -8.82393 45.8276 -15.4929 44.1557C-15.6381 44.1179 -15.7667 44.033 -15.8585 43.9144C-15.9502 43.7957 -16 43.65 -16 43.5C-16 43.35 -15.9502 43.2043 -15.8585 43.0856C-15.7667 42.967 -15.6381 42.8821 -15.4929 42.8443C-8.82393 41.1724 -6.82323 39.1727 -5.15051 32.5068C-5.11271 32.3617 -5.0278 32.2332 -4.90909 32.1415C-4.79038 32.0498 -4.64458 32 -4.49454 32C-4.3445 32 -4.19869 32.0498 -4.07999 32.1415C-3.96128 32.2332 -3.87636 32.3617 -3.83856 32.5068C-2.16584 39.1727 -0.176088 41.1724 6.49293 42.8443C6.63813 42.8821 6.76671 42.967 6.85847 43.0856C6.95023 43.2043 7 43.35 7 43.5C7 43.65 6.95023 43.7957 6.85847 43.9144C6.76671 44.033 6.63813 44.1179 6.49293 44.1557Z" fill="white"/>
<path opacity="0.1" d="M77.4929 14.1557C70.8239 15.8276 68.8342 17.8273 67.1614 24.4932C67.1236 24.6383 67.0387 24.7668 66.92 24.8585C66.8013 24.9503 66.6555 25 66.5055 25C66.3554 25 66.2096 24.9503 66.0909 24.8585C65.9722 24.7668 65.8873 24.6383 65.8495 24.4932C64.1768 17.8273 62.1761 15.8276 55.5071 14.1557C55.3619 14.1179 55.2333 14.033 55.1415 13.9144C55.0498 13.7957 55 13.65 55 13.5C55 13.35 55.0498 13.2043 55.1415 13.0856C55.2333 12.967 55.3619 12.8821 55.5071 12.8443C62.1761 11.1724 64.1768 9.17267 65.8495 2.50682C65.8873 2.36169 65.9722 2.2332 66.0909 2.14148C66.2096 2.04976 66.3554 2 66.5055 2C66.6555 2 66.8013 2.04976 66.92 2.14148C67.0387 2.2332 67.1236 2.36169 67.1614 2.50682C68.8342 9.17267 70.8239 11.1724 77.4929 12.8443C77.6381 12.8821 77.7667 12.967 77.8585 13.0856C77.9502 13.2043 78 13.35 78 13.5C78 13.65 77.9502 13.7957 77.8585 13.9144C77.7667 14.033 77.6381 14.1179 77.4929 14.1557Z" fill="white"/>
</g>
<path d="M156 0H0V12.7946L1.92014 13.6242C50.048 34.4163 108.23 34.103 156 12.7946V0Z" fill="white" fill-opacity="0.1"/>
<path d="M59 36.2C58.0667 36.2 57.2267 36.0867 56.48 35.86C55.7333 35.62 55.02 35.2067 54.34 34.62C54.1667 34.4733 54.0333 34.3067 53.94 34.12C53.8467 33.9333 53.8 33.7467 53.8 33.56C53.8 33.2533 53.9067 32.9867 54.12 32.76C54.3467 32.52 54.6267 32.4 54.96 32.4C55.2133 32.4 55.44 32.48 55.64 32.64C56.1467 33.0533 56.6467 33.3667 57.14 33.58C57.6467 33.7933 58.2667 33.9 59 33.9C59.4933 33.9 59.9467 33.8267 60.36 33.68C60.7733 33.52 61.1067 33.3133 61.36 33.06C61.6133 32.7933 61.74 32.4933 61.74 32.16C61.74 31.76 61.62 31.42 61.38 31.14C61.14 30.86 60.7733 30.6267 60.28 30.44C59.7867 30.24 59.16 30.0867 58.4 29.98C57.68 29.8733 57.0467 29.7133 56.5 29.5C55.9533 29.2733 55.4933 28.9933 55.12 28.66C54.76 28.3133 54.4867 27.9133 54.3 27.46C54.1133 26.9933 54.02 26.4733 54.02 25.9C54.02 25.0333 54.24 24.2933 54.68 23.68C55.1333 23.0667 55.74 22.6 56.5 22.28C57.26 21.96 58.1 21.8 59.02 21.8C59.8867 21.8 60.6867 21.9333 61.42 22.2C62.1667 22.4533 62.7733 22.78 63.24 23.18C63.6267 23.4867 63.82 23.84 63.82 24.24C63.82 24.5333 63.7067 24.8 63.48 25.04C63.2533 25.28 62.9867 25.4 62.68 25.4C62.48 25.4 62.3 25.34 62.14 25.22C61.9267 25.0333 61.64 24.86 61.28 24.7C60.92 24.5267 60.54 24.3867 60.14 24.28C59.74 24.16 59.3667 24.1 59.02 24.1C58.4467 24.1 57.96 24.1733 57.56 24.32C57.1733 24.4667 56.88 24.6667 56.68 24.92C56.48 25.1733 56.38 25.4667 56.38 25.8C56.38 26.2 56.4933 26.5333 56.72 26.8C56.96 27.0533 57.3 27.26 57.74 27.42C58.18 27.5667 58.7067 27.7 59.32 27.82C60.12 27.9667 60.82 28.14 61.42 28.34C62.0333 28.54 62.54 28.8 62.94 29.12C63.34 29.4267 63.64 29.82 63.84 30.3C64.04 30.7667 64.14 31.34 64.14 32.02C64.14 32.8867 63.9 33.6333 63.42 34.26C62.94 34.8867 62.3067 35.3667 61.52 35.7C60.7467 36.0333 59.9067 36.2 59 36.2ZM66.3536 25.5H71.0936C71.4136 25.5 71.6803 25.6067 71.8936 25.82C72.1069 26.0333 72.2136 26.3 72.2136 26.62C72.2136 26.9267 72.1069 27.1867 71.8936 27.4C71.6803 27.6 71.4136 27.7 71.0936 27.7H66.3536C66.0336 27.7 65.7669 27.5933 65.5536 27.38C65.3403 27.1667 65.2336 26.9 65.2336 26.58C65.2336 26.2733 65.3403 26.02 65.5536 25.82C65.7669 25.6067 66.0336 25.5 66.3536 25.5ZM68.4936 23C68.8403 23 69.1203 23.12 69.3336 23.36C69.5603 23.5867 69.6736 23.8733 69.6736 24.22V33.12C69.6736 33.3067 69.7069 33.46 69.7736 33.58C69.8536 33.7 69.9536 33.7867 70.0736 33.84C70.2069 33.8933 70.3469 33.92 70.4936 33.92C70.6536 33.92 70.8003 33.8933 70.9336 33.84C71.0669 33.7733 71.2203 33.74 71.3936 33.74C71.5803 33.74 71.7469 33.8267 71.8936 34C72.0536 34.1733 72.1336 34.4133 72.1336 34.72C72.1336 35.0933 71.9269 35.4 71.5136 35.64C71.1136 35.88 70.6803 36 70.2136 36C69.9336 36 69.6203 35.98 69.2736 35.94C68.9403 35.8867 68.6203 35.7733 68.3136 35.6C68.0203 35.4133 67.7736 35.1333 67.5736 34.76C67.3736 34.3867 67.2736 33.8733 67.2736 33.22V24.22C67.2736 23.8733 67.3869 23.5867 67.6136 23.36C67.8536 23.12 68.1469 23 68.4936 23ZM83.1772 25.1C83.5239 25.1 83.8105 25.2133 84.0372 25.44C84.2639 25.6667 84.3772 25.96 84.3772 26.32V34.78C84.3772 35.1267 84.2639 35.42 84.0372 35.66C83.8105 35.8867 83.5239 36 83.1772 36C82.8305 36 82.5439 35.8867 82.3172 35.66C82.0905 35.42 81.9772 35.1267 81.9772 34.78V33.8L82.4172 33.98C82.4172 34.1533 82.3239 34.3667 82.1372 34.62C81.9505 34.86 81.6972 35.1 81.3772 35.34C81.0572 35.58 80.6772 35.7867 80.2372 35.96C79.8105 36.12 79.3439 36.2 78.8372 36.2C77.9172 36.2 77.0839 35.9667 76.3372 35.5C75.5905 35.02 74.9972 34.3667 74.5572 33.54C74.1305 32.7 73.9172 31.74 73.9172 30.66C73.9172 29.5667 74.1305 28.6067 74.5572 27.78C74.9972 26.94 75.5839 26.2867 76.3172 25.82C77.0505 25.34 77.8639 25.1 78.7572 25.1C79.3305 25.1 79.8572 25.1867 80.3372 25.36C80.8172 25.5333 81.2305 25.7533 81.5772 26.02C81.9372 26.2867 82.2105 26.56 82.3972 26.84C82.5972 27.1067 82.6972 27.3333 82.6972 27.52L81.9772 27.78V26.32C81.9772 25.9733 82.0905 25.6867 82.3172 25.46C82.5439 25.22 82.8305 25.1 83.1772 25.1ZM79.1372 34C79.7239 34 80.2372 33.8533 80.6772 33.56C81.1172 33.2667 81.4572 32.8667 81.6972 32.36C81.9505 31.8533 82.0772 31.2867 82.0772 30.66C82.0772 30.02 81.9505 29.4467 81.6972 28.94C81.4572 28.4333 81.1172 28.0333 80.6772 27.74C80.2372 27.4467 79.7239 27.3 79.1372 27.3C78.5639 27.3 78.0572 27.4467 77.6172 27.74C77.1772 28.0333 76.8305 28.4333 76.5772 28.94C76.3372 29.4467 76.2172 30.02 76.2172 30.66C76.2172 31.2867 76.3372 31.8533 76.5772 32.36C76.8305 32.8667 77.1772 33.2667 77.6172 33.56C78.0572 33.8533 78.5639 34 79.1372 34ZM88.1758 36C87.8291 36 87.5424 35.8867 87.3158 35.66C87.0891 35.42 86.9758 35.1267 86.9758 34.78V26.52C86.9758 26.1733 87.0891 25.8867 87.3158 25.66C87.5424 25.42 87.8291 25.3 88.1758 25.3C88.5224 25.3 88.8091 25.42 89.0358 25.66C89.2624 25.8867 89.3758 26.1733 89.3758 26.52V28.4L89.2358 27.06C89.3824 26.74 89.5691 26.46 89.7958 26.22C90.0358 25.9667 90.3024 25.76 90.5958 25.6C90.8891 25.4267 91.2024 25.3 91.5358 25.22C91.8691 25.14 92.2024 25.1 92.5358 25.1C92.9358 25.1 93.2691 25.2133 93.5358 25.44C93.8158 25.6667 93.9558 25.9333 93.9558 26.24C93.9558 26.68 93.8424 27 93.6158 27.2C93.3891 27.3867 93.1424 27.48 92.8758 27.48C92.6224 27.48 92.3891 27.4333 92.1758 27.34C91.9758 27.2467 91.7424 27.2 91.4758 27.2C91.2358 27.2 90.9891 27.26 90.7358 27.38C90.4958 27.4867 90.2691 27.66 90.0558 27.9C89.8558 28.14 89.6891 28.44 89.5558 28.8C89.4358 29.1467 89.3758 29.56 89.3758 30.04V34.78C89.3758 35.1267 89.2624 35.42 89.0358 35.66C88.8091 35.8867 88.5224 36 88.1758 36ZM95.7677 25.5H100.508C100.828 25.5 101.094 25.6067 101.308 25.82C101.521 26.0333 101.628 26.3 101.628 26.62C101.628 26.9267 101.521 27.1867 101.308 27.4C101.094 27.6 100.828 27.7 100.508 27.7H95.7677C95.4477 27.7 95.181 27.5933 94.9677 27.38C94.7543 27.1667 94.6477 26.9 94.6477 26.58C94.6477 26.2733 94.7543 26.02 94.9677 25.82C95.181 25.6067 95.4477 25.5 95.7677 25.5ZM97.9077 23C98.2543 23 98.5343 23.12 98.7477 23.36C98.9743 23.5867 99.0877 23.8733 99.0877 24.22V33.12C99.0877 33.3067 99.121 33.46 99.1877 33.58C99.2677 33.7 99.3677 33.7867 99.4877 33.84C99.621 33.8933 99.761 33.92 99.9077 33.92C100.068 33.92 100.214 33.8933 100.348 33.84C100.481 33.7733 100.634 33.74 100.808 33.74C100.994 33.74 101.161 33.8267 101.308 34C101.468 34.1733 101.548 34.4133 101.548 34.72C101.548 35.0933 101.341 35.4 100.928 35.64C100.528 35.88 100.094 36 99.6277 36C99.3477 36 99.0343 35.98 98.6877 35.94C98.3543 35.8867 98.0343 35.7733 97.7277 35.6C97.4343 35.4133 97.1877 35.1333 96.9877 34.76C96.7877 34.3867 96.6877 33.8733 96.6877 33.22V24.22C96.6877 23.8733 96.801 23.5867 97.0277 23.36C97.2677 23.12 97.561 23 97.9077 23Z" fill="white"/>
</g>
<rect x="1.5" y="1.5" width="153" height="53" rx="8.5" stroke="url(#paint1_linear_6222_20480)" stroke-width="3"/>
<defs>
<linearGradient id="paint0_linear_6222_20480" x1="156" y1="56" x2="19.6427" y2="-5.15079" gradientUnits="userSpaceOnUse">
<stop stop-color="#0780B9"/>
<stop offset="1" stop-color="#4CC5FF"/>
</linearGradient>
<linearGradient id="paint1_linear_6222_20480" x1="78" y1="0" x2="78" y2="56" gradientUnits="userSpaceOnUse">
<stop stop-color="white" stop-opacity="0.2"/>
<stop offset="0.491666" stop-color="#828282" stop-opacity="0.298333"/>
<stop offset="1" stop-opacity="0.4"/>
</linearGradient>
<clipPath id="clip0_6222_20480">
<rect width="156" height="56" rx="10" fill="white"/>
</clipPath>
<clipPath id="clip1_6222_20480">
<rect width="400" height="50" fill="white" transform="translate(-122 3)"/>
</clipPath>
</defs>
</svg>
