<svg width="341" height="258" viewBox="0 0 341 258" fill="none" xmlns="http://www.w3.org/2000/svg">
<g filter="url(#filter0_dd_6251_34700)">
<g clip-path="url(#clip0_6251_34700)">
<path d="M93 103C93 97.4772 97.4772 93 103 93H238C243.523 93 248 97.4772 248 103V155C248 160.523 243.523 165 238 165H103C97.4772 165 93 160.523 93 155V103Z" fill="url(#paint0_linear_6251_34700)"/>
<g clip-path="url(#clip1_6251_34700)">
<mask id="mask0_6251_34700" style="mask-type:alpha" maskUnits="userSpaceOnUse" x="-162" y="68" width="666" height="122">
<rect x="55.9727" y="76.1016" width="20.16" height="117.772" transform="rotate(-17.168 55.9727 76.1016)" fill="white"/>
<rect x="99.3633" y="75.0781" width="20.16" height="118.844" transform="rotate(-17.168 99.3633 75.0781)" fill="white"/>
<rect x="143.195" y="75.4766" width="20.16" height="118.24" transform="rotate(-17.168 143.195 75.4766)" fill="white"/>
<rect x="186.879" y="75.4062" width="20.16" height="118.818" transform="rotate(-17.168 186.879 75.4062)" fill="white"/>
<rect x="230.504" y="75.125" width="20.16" height="118.012" transform="rotate(-17.168 230.504 75.125)" fill="white"/>
</mask>
<g mask="url(#mask0_6251_34700)">
<rect x="-117" y="93" width="576" height="72" fill="url(#paint1_linear_6251_34700)"/>
</g>
</g>
<path d="M144.4 139.78C143.093 139.78 141.917 139.621 140.872 139.304C139.827 138.968 138.828 138.389 137.876 137.568C137.633 137.363 137.447 137.129 137.316 136.868C137.185 136.607 137.12 136.345 137.12 136.084C137.12 135.655 137.269 135.281 137.568 134.964C137.885 134.628 138.277 134.46 138.744 134.46C139.099 134.46 139.416 134.572 139.696 134.796C140.405 135.375 141.105 135.813 141.796 136.112C142.505 136.411 143.373 136.56 144.4 136.56C145.091 136.56 145.725 136.457 146.304 136.252C146.883 136.028 147.349 135.739 147.704 135.384C148.059 135.011 148.236 134.591 148.236 134.124C148.236 133.564 148.068 133.088 147.732 132.696C147.396 132.304 146.883 131.977 146.192 131.716C145.501 131.436 144.624 131.221 143.56 131.072C142.552 130.923 141.665 130.699 140.9 130.4C140.135 130.083 139.491 129.691 138.968 129.224C138.464 128.739 138.081 128.179 137.82 127.544C137.559 126.891 137.428 126.163 137.428 125.36C137.428 124.147 137.736 123.111 138.352 122.252C138.987 121.393 139.836 120.74 140.9 120.292C141.964 119.844 143.14 119.62 144.428 119.62C145.641 119.62 146.761 119.807 147.788 120.18C148.833 120.535 149.683 120.992 150.336 121.552C150.877 121.981 151.148 122.476 151.148 123.036C151.148 123.447 150.989 123.82 150.672 124.156C150.355 124.492 149.981 124.66 149.552 124.66C149.272 124.66 149.02 124.576 148.796 124.408C148.497 124.147 148.096 123.904 147.592 123.68C147.088 123.437 146.556 123.241 145.996 123.092C145.436 122.924 144.913 122.84 144.428 122.84C143.625 122.84 142.944 122.943 142.384 123.148C141.843 123.353 141.432 123.633 141.152 123.988C140.872 124.343 140.732 124.753 140.732 125.22C140.732 125.78 140.891 126.247 141.208 126.62C141.544 126.975 142.02 127.264 142.636 127.488C143.252 127.693 143.989 127.88 144.848 128.048C145.968 128.253 146.948 128.496 147.788 128.776C148.647 129.056 149.356 129.42 149.916 129.868C150.476 130.297 150.896 130.848 151.176 131.52C151.456 132.173 151.596 132.976 151.596 133.928C151.596 135.141 151.26 136.187 150.588 137.064C149.916 137.941 149.029 138.613 147.928 139.08C146.845 139.547 145.669 139.78 144.4 139.78ZM154.695 124.8H161.331C161.779 124.8 162.152 124.949 162.451 125.248C162.75 125.547 162.899 125.92 162.899 126.368C162.899 126.797 162.75 127.161 162.451 127.46C162.152 127.74 161.779 127.88 161.331 127.88H154.695C154.247 127.88 153.874 127.731 153.575 127.432C153.276 127.133 153.127 126.76 153.127 126.312C153.127 125.883 153.276 125.528 153.575 125.248C153.874 124.949 154.247 124.8 154.695 124.8ZM157.691 121.3C158.176 121.3 158.568 121.468 158.867 121.804C159.184 122.121 159.343 122.523 159.343 123.008V135.468C159.343 135.729 159.39 135.944 159.483 136.112C159.595 136.28 159.735 136.401 159.903 136.476C160.09 136.551 160.286 136.588 160.491 136.588C160.715 136.588 160.92 136.551 161.107 136.476C161.294 136.383 161.508 136.336 161.751 136.336C162.012 136.336 162.246 136.457 162.451 136.7C162.675 136.943 162.787 137.279 162.787 137.708C162.787 138.231 162.498 138.66 161.919 138.996C161.359 139.332 160.752 139.5 160.099 139.5C159.707 139.5 159.268 139.472 158.783 139.416C158.316 139.341 157.868 139.183 157.439 138.94C157.028 138.679 156.683 138.287 156.403 137.764C156.123 137.241 155.983 136.523 155.983 135.608V123.008C155.983 122.523 156.142 122.121 156.459 121.804C156.795 121.468 157.206 121.3 157.691 121.3ZM178.248 124.24C178.733 124.24 179.135 124.399 179.452 124.716C179.769 125.033 179.928 125.444 179.928 125.948V137.792C179.928 138.277 179.769 138.688 179.452 139.024C179.135 139.341 178.733 139.5 178.248 139.5C177.763 139.5 177.361 139.341 177.044 139.024C176.727 138.688 176.568 138.277 176.568 137.792V136.42L177.184 136.672C177.184 136.915 177.053 137.213 176.792 137.568C176.531 137.904 176.176 138.24 175.728 138.576C175.28 138.912 174.748 139.201 174.132 139.444C173.535 139.668 172.881 139.78 172.172 139.78C170.884 139.78 169.717 139.453 168.672 138.8C167.627 138.128 166.796 137.213 166.18 136.056C165.583 134.88 165.284 133.536 165.284 132.024C165.284 130.493 165.583 129.149 166.18 127.992C166.796 126.816 167.617 125.901 168.644 125.248C169.671 124.576 170.809 124.24 172.06 124.24C172.863 124.24 173.6 124.361 174.272 124.604C174.944 124.847 175.523 125.155 176.008 125.528C176.512 125.901 176.895 126.284 177.156 126.676C177.436 127.049 177.576 127.367 177.576 127.628L176.568 127.992V125.948C176.568 125.463 176.727 125.061 177.044 124.744C177.361 124.408 177.763 124.24 178.248 124.24ZM172.592 136.7C173.413 136.7 174.132 136.495 174.748 136.084C175.364 135.673 175.84 135.113 176.176 134.404C176.531 133.695 176.708 132.901 176.708 132.024C176.708 131.128 176.531 130.325 176.176 129.616C175.84 128.907 175.364 128.347 174.748 127.936C174.132 127.525 173.413 127.32 172.592 127.32C171.789 127.32 171.08 127.525 170.464 127.936C169.848 128.347 169.363 128.907 169.008 129.616C168.672 130.325 168.504 131.128 168.504 132.024C168.504 132.901 168.672 133.695 169.008 134.404C169.363 135.113 169.848 135.673 170.464 136.084C171.08 136.495 171.789 136.7 172.592 136.7ZM185.246 139.5C184.761 139.5 184.359 139.341 184.042 139.024C183.725 138.688 183.566 138.277 183.566 137.792V126.228C183.566 125.743 183.725 125.341 184.042 125.024C184.359 124.688 184.761 124.52 185.246 124.52C185.731 124.52 186.133 124.688 186.45 125.024C186.767 125.341 186.926 125.743 186.926 126.228V128.86L186.73 126.984C186.935 126.536 187.197 126.144 187.514 125.808C187.85 125.453 188.223 125.164 188.634 124.94C189.045 124.697 189.483 124.52 189.95 124.408C190.417 124.296 190.883 124.24 191.35 124.24C191.91 124.24 192.377 124.399 192.75 124.716C193.142 125.033 193.338 125.407 193.338 125.836C193.338 126.452 193.179 126.9 192.862 127.18C192.545 127.441 192.199 127.572 191.826 127.572C191.471 127.572 191.145 127.507 190.846 127.376C190.566 127.245 190.239 127.18 189.866 127.18C189.53 127.18 189.185 127.264 188.83 127.432C188.494 127.581 188.177 127.824 187.878 128.16C187.598 128.496 187.365 128.916 187.178 129.42C187.01 129.905 186.926 130.484 186.926 131.156V137.792C186.926 138.277 186.767 138.688 186.45 139.024C186.133 139.341 185.731 139.5 185.246 139.5ZM195.875 124.8H202.511C202.959 124.8 203.332 124.949 203.631 125.248C203.929 125.547 204.079 125.92 204.079 126.368C204.079 126.797 203.929 127.161 203.631 127.46C203.332 127.74 202.959 127.88 202.511 127.88H195.875C195.427 127.88 195.053 127.731 194.755 127.432C194.456 127.133 194.307 126.76 194.307 126.312C194.307 125.883 194.456 125.528 194.755 125.248C195.053 124.949 195.427 124.8 195.875 124.8ZM198.871 121.3C199.356 121.3 199.748 121.468 200.047 121.804C200.364 122.121 200.523 122.523 200.523 123.008V135.468C200.523 135.729 200.569 135.944 200.663 136.112C200.775 136.28 200.915 136.401 201.083 136.476C201.269 136.551 201.465 136.588 201.671 136.588C201.895 136.588 202.1 136.551 202.287 136.476C202.473 136.383 202.688 136.336 202.931 136.336C203.192 136.336 203.425 136.457 203.631 136.7C203.855 136.943 203.967 137.279 203.967 137.708C203.967 138.231 203.677 138.66 203.099 138.996C202.539 139.332 201.932 139.5 201.279 139.5C200.887 139.5 200.448 139.472 199.963 139.416C199.496 139.341 199.048 139.183 198.619 138.94C198.208 138.679 197.863 138.287 197.583 137.764C197.303 137.241 197.163 136.523 197.163 135.608V123.008C197.163 122.523 197.321 122.121 197.639 121.804C197.975 121.468 198.385 121.3 198.871 121.3Z" fill="white"/>
</g>
<path d="M238 91C244.627 91 250 96.3726 250 103V155C250 161.627 244.627 167 238 167H103C96.3726 167 91 161.627 91 155V103C91 96.3726 96.3726 91 103 91H238Z" stroke="white" stroke-width="4"/>
</g>
<defs>
<filter id="filter0_dd_6251_34700" x="0.599998" y="0.599998" width="339.8" height="256.8" filterUnits="userSpaceOnUse" color-interpolation-filters="sRGB">
<feFlood flood-opacity="0" result="BackgroundImageFix"/>
<feColorMatrix in="SourceAlpha" type="matrix" values="0 0 0 0 0 0 0 0 0 0 0 0 0 0 0 0 0 0 127 0" result="hardAlpha"/>
<feOffset dx="6" dy="7"/>
<feComposite in2="hardAlpha" operator="out"/>
<feColorMatrix type="matrix" values="0 0 0 0 1 0 0 0 0 0.564706 0 0 0 0 0.313726 0 0 0 1 0"/>
<feBlend mode="normal" in2="BackgroundImageFix" result="effect1_dropShadow_6251_34700"/>
<feColorMatrix in="SourceAlpha" type="matrix" values="0 0 0 0 0 0 0 0 0 0 0 0 0 0 0 0 0 0 127 0" result="hardAlpha"/>
<feMorphology radius="24" operator="dilate" in="SourceAlpha" result="effect2_dropShadow_6251_34700"/>
<feOffset/>
<feGaussianBlur stdDeviation="32.2"/>
<feComposite in2="hardAlpha" operator="out"/>
<feColorMatrix type="matrix" values="0 0 0 0 0 0 0 0 0 0 0 0 0 0 0 0 0 0 0.12 0"/>
<feBlend mode="normal" in2="effect1_dropShadow_6251_34700" result="effect2_dropShadow_6251_34700"/>
<feBlend mode="normal" in="SourceGraphic" in2="effect2_dropShadow_6251_34700" result="shape"/>
</filter>
<linearGradient id="paint0_linear_6251_34700" x1="248" y1="165" x2="87.6439" y2="108.093" gradientUnits="userSpaceOnUse">
<stop stop-color="#710EDC"/>
<stop offset="1" stop-color="#A856FF"/>
</linearGradient>
<linearGradient id="paint1_linear_6251_34700" x1="217.619" y1="165" x2="217.619" y2="93" gradientUnits="userSpaceOnUse">
<stop stop-color="white" stop-opacity="0.3"/>
<stop offset="0.596666" stop-color="white" stop-opacity="0.08"/>
<stop offset="1" stop-color="white" stop-opacity="0"/>
</linearGradient>
<clipPath id="clip0_6251_34700">
<path d="M93 103C93 97.4772 97.4772 93 103 93H238C243.523 93 248 97.4772 248 103V155C248 160.523 243.523 165 238 165H103C97.4772 165 93 160.523 93 155V103Z" fill="white"/>
</clipPath>
<clipPath id="clip1_6251_34700">
<rect width="576" height="72" fill="white" transform="translate(-117 93)"/>
</clipPath>
</defs>
</svg>
