<svg width="686" height="565" viewBox="0 0 686 565" fill="none" xmlns="http://www.w3.org/2000/svg">
<path d="M133.064 456.667C130.882 475.977 132.838 494.821 139.403 513.147C140.026 515.683 137.746 515.637 136.476 516.161C127.985 519.666 120.636 524.827 114.317 531.429C110.949 534.947 107.99 538.818 106.212 543.464C105.792 544.56 105.543 546.154 103.643 545.426C99.6595 543.93 97.7934 540.767 96.706 536.868C92.3563 521.269 89.6927 505.322 86.9593 489.396C84.2635 473.687 81.8405 457.933 80.1861 442.072C79.7134 437.542 79.8755 432.999 79.9223 428.454C79.9544 425.321 82.0055 423.663 84.1612 422.059C89.3836 418.171 94.6441 414.362 99.463 409.934C118.743 392.218 127.253 369.771 128.814 344.137C129.912 326.114 130.888 308.088 131.259 290.033C131.331 286.534 131.364 283.047 130.75 279.586C128.979 276.341 131.134 273.036 130.593 269.772C130.637 261.92 131.859 254.174 132.712 246.397C133.639 241.912 134.279 237.359 135.705 232.984C137.789 224.143 142.009 216.169 145.843 208.039C146.134 207.422 146.595 206.863 146.347 206.11C150.8 199.537 155.696 193.336 161.549 187.938C163.163 189.76 162.029 191.749 161.76 193.599C158.961 212.814 160.247 231.694 166.501 250.114C170.626 262.265 177.469 272.665 187.844 281.318C183.063 271.896 179.651 262.521 177.661 252.719C175.349 241.329 173.672 229.914 174.382 218.126C175.073 206.672 176.354 195.418 179.672 184.434C181.488 178.423 183.55 172.494 186.198 166.788C194.163 160.871 203.273 157.412 212.61 154.438C212.825 156.971 210.95 158.484 209.59 160.101C197.755 174.169 191.349 190.627 188.791 208.585C185.957 228.479 187.749 247.86 197.141 266.04C199.161 269.949 201.632 273.57 204.759 277.172C201.28 262.492 199.868 247.931 200.562 233.247C201.287 217.899 204.453 203.033 210.72 188.897C216.686 175.44 224.69 163.418 235.212 153.101C236.271 152.062 237.529 151.066 237.286 149.287C247.666 147.249 258.154 147.048 268.677 147.423C268.794 148.906 267.742 149.759 266.853 150.64C261.454 155.981 256.92 162.031 252.486 168.162C242.716 181.67 236.399 196.679 233.074 212.992C228.682 234.543 230.914 255.359 239.916 275.434C240.233 276.142 240.587 276.831 241.041 277.724C241.048 265.39 240.677 253.31 242.895 241.287C247.312 217.338 256.946 195.809 271.669 176.478C278.827 167.079 287.086 158.767 295.977 151.04C296.961 150.184 298.053 149.567 299.18 148.968C308.119 149.842 317.058 150.716 325.997 151.59C326.007 153.491 324.571 154.473 323.352 155.481C302.012 173.119 288.509 195.637 282.408 222.513C278.4 240.168 277.259 258.005 281.96 275.804C284.91 286.971 290.611 296.342 300.229 303.405C296.664 294.352 294.305 285.189 293.321 275.707C291.558 258.713 292.936 242.034 297.873 225.602C304.031 205.106 315.037 187.464 328.797 171.365C333.404 165.974 338.092 160.649 343.356 155.872C344.311 155.005 345.391 154.328 346.539 153.751C351.935 154.224 357.331 154.696 362.726 155.168C362.959 157.281 361.227 158.211 360.054 159.383C352.477 166.947 345.002 174.569 338.415 183.072C326.809 198.053 318.332 214.446 315.243 233.273C312.702 248.762 313.963 263.896 320.796 278.295C322.812 282.543 325.505 286.314 328.815 290.253C325.845 281.341 324.138 272.537 324.224 263.615C324.502 234.888 333.316 208.947 350.555 185.929C357.533 176.613 364.615 167.38 372.6 158.887C373.071 158.386 373.549 157.88 373.826 157.212C372.865 155.9 370.425 157.551 370.046 155.252C374.854 155.419 379.662 155.586 384.469 155.753C384.796 157.122 383.816 157.898 383.08 158.768C369.736 174.542 359.684 192.269 353.924 212.053C346.549 237.386 348.233 262.304 360.142 286.19C361.956 289.828 363.772 293.465 365.407 296.462C363.287 288.479 362.806 279.586 361.957 270.771C360.59 256.575 361.259 242.402 363.575 228.325C367.591 203.928 377.393 181.979 391.858 162.072C394.298 158.714 396.217 154.887 399.638 152.295C403.939 149.962 408.239 147.63 412.539 145.298C413.287 146.954 412.236 148.245 411.558 149.528C404.062 163.692 400.82 178.824 402.19 194.729C403.31 207.732 407.241 220.06 413.617 231.488C425.784 253.293 444.091 268.766 465.221 281.285C466.908 282.285 468.762 283.099 469.811 284.919C469.884 285.142 470 285.409 469.911 285.594C466.442 292.784 463.174 300.08 458.908 306.854C458.536 307.444 457.925 307.835 457.191 307.941C453.371 306.643 450.514 303.818 447.319 301.558C436.596 293.973 425.621 286.725 415.755 277.978C405.896 269.237 398.004 258.968 391.687 247.442C391.408 246.935 391.278 246.357 391.236 245.771C394.774 259.644 400.498 278.525 407.648 290.824C416.656 306.316 428.788 318.44 444.179 327.438C445.934 328.464 448.078 329.183 448.61 331.582C446.288 343.197 446.29 354.987 445.919 366.741C444.741 369.204 442.977 367.963 441.507 367.275C436.359 364.868 432.286 361.014 428.433 356.962C424.265 352.579 420.378 347.938 416.437 343.346C412.819 339.13 408.518 335.662 403.632 333.076C409.378 339.82 412.996 347.978 417.662 355.473C423.338 364.593 429.849 372.81 439.766 377.686C442.286 378.925 445.081 379.41 447.568 380.719C448.009 381.06 448.346 381.481 448.582 381.987C450.85 391.074 452.232 400.383 455.404 409.244C455.68 410.016 455.669 410.84 455.304 411.616C454.362 412.828 452.945 413.06 451.585 413.295C440.625 415.187 429.986 414.387 420.087 408.915C408.855 402.706 399.908 394.07 393.681 383.502C393.305 382.467 392.869 383.205 393.233 382.914C393.311 382.851 393.395 382.929 393.471 383.151C395.166 388.108 396.516 393.192 398.643 397.991C406.337 415.347 418.931 426.864 438.044 429.888C445.475 431.063 453.1 431.275 460.506 428.912C461.898 428.467 463.343 427.711 464.864 428.592C465.24 433.974 465.588 439.359 466.001 444.738C466.247 447.946 466.594 451.146 466.896 454.35C465.594 456.096 463.68 456.96 461.831 457.95C447.664 465.53 433.849 464.031 420.267 456.38C412.631 452.079 405.643 446.881 398.828 440.742C403.719 450.605 409.058 459.633 416.822 467.11C429.312 479.14 443.903 483.161 460.771 479.512C464.127 478.786 467.31 477.036 470.912 477.598C473.758 490.306 477.933 502.577 483.001 514.555C483.671 516.307 482.911 517.105 481.215 517.493C462.254 521.832 450.62 534.303 443.427 551.695C442.949 552.852 442.811 554.204 441.642 554.99C437.12 553.083 434.575 549.124 431.99 545.332C423.703 533.175 417.704 519.769 411.387 506.558C399.283 481.243 388.834 455.288 382.017 427.984C379.592 418.27 377.916 408.413 376.656 398.484C375.718 396.988 375.073 395.432 375.034 393.597C374.815 383.216 374.986 372.892 377.537 362.717C379.189 356.125 379.005 356.183 372.403 355.334C360.508 353.804 348.853 351.043 337.215 348.228C335.399 347.526 334.796 345.815 333.991 344.284C328.403 333.654 324.207 322.401 319.361 311.439C318.703 309.949 318.795 308.276 318.259 307.316C320.612 318.217 322.389 329.797 325.779 341.017C326.076 342.002 326.354 343.055 325.763 344.069C324.499 344.763 323.252 344.256 322.039 343.946C306.924 340.09 292.285 334.821 277.828 329.003C274.903 324.845 273.84 319.885 272.114 315.237C268.593 305.758 265.396 296.153 263.674 286.14C263.565 285.508 263.211 284.812 263.571 284.215C264.958 294.796 265.356 305.556 267.561 316.105C268.098 318.673 269.107 321.273 268.222 323.991C267.482 325.017 266.549 324.477 265.66 324.316C262.127 323.229 258.57 322.203 255.127 320.833C253.92 320.196 252.299 320.453 251.404 319.129C247.659 313.13 245.562 306.539 244.415 299.605C244.301 298.92 244.106 298.246 243.9 297.582C243.666 296.828 243.656 295.718 242.756 295.603C241.575 295.452 241.346 296.651 241.099 297.497C239.055 304.513 236.991 311.527 235.263 318.627C233.943 324.052 232.147 329.303 230.117 334.49C226.486 339.034 221.252 340.783 215.985 342.2C203.025 345.689 191.517 342.233 181.52 333.79C171.234 325.104 164.531 313.854 159.895 301.308C159.662 300.677 159.563 300.007 159.569 300.081C162.587 318.479 169.212 336.232 180.861 351.825C185.241 357.689 190.5 362.85 196.916 366.661C202.721 370.11 208.92 371.556 215.628 370.824C216.766 370.7 217.922 370.277 219.012 371.02C219.724 372.023 219.714 373.012 218.957 373.986C217.306 374.798 216.44 376.323 215.566 377.818C212.345 383.326 208.597 388.449 204.45 393.29C203.368 394.553 202.224 395.648 200.46 395.796C191.117 394.754 183.212 390.508 176.189 384.536C160.14 370.89 152.025 352.874 148.946 338.077C149.819 343.669 150.737 354.839 153.436 365.725C157.526 382.217 162.715 398.199 174.04 411.415C174.644 412.119 175.252 412.854 175.052 413.901C173.57 415.613 171.454 415.858 169.438 416.204C166.835 416.65 164.512 417.296 163.56 420.201C163.239 421.182 162.477 421.976 161.299 422.102C157.711 421.592 155.481 418.86 152.945 416.754C144.845 410.028 137.984 402.23 133.211 392.974C134.901 401.861 137.867 410.487 142.788 418.414C145.081 422.108 147.98 425.228 151.02 428.274C152.124 429.38 153.653 430.315 153.432 432.265C149.159 437.174 143.6 440.393 137.995 443.353C131.049 447.021 123.675 449.777 115.946 451.432C115.491 451.53 116.085 452.132 115.883 451.712C115.799 451.538 115.856 451.41 116.054 451.412C121.923 451.474 127.384 453.23 132.717 455.487C133.171 455.678 133.286 456.173 133.064 456.667Z" fill="#F48319"/>
<path d="M531.378 34.0189C537.787 32.5195 544.173 30.9101 550.611 29.5493C558.448 27.8927 566.362 26.9186 574.397 27.8529C576.136 30.8434 575.51 33.9754 574.957 37.1016C574.284 38.3762 573.001 38.6918 571.774 38.9913C559.013 42.108 547.158 47.308 536.142 54.451C535.85 54.6404 535.565 54.8453 535.131 54.7718C549.404 50.8393 563.539 46.3547 578.51 46.4359C585.13 46.4717 591.69 47.4898 598.215 48.608C599.262 48.7874 600.249 49.1003 600.989 49.9327C601.628 52.9211 600.775 55.5542 599.075 57.9862C597.579 58.915 596.231 58.1762 594.905 57.5603C592.742 56.5559 590.417 55.9893 588.237 55.0387C581.311 51.3029 574.626 50.7258 567.136 54.4025C559.835 57.9865 552.506 61.3685 545.975 66.3272C554.814 64.5228 563.272 61.4375 571.87 58.8223C577.151 57.216 582.364 57.889 587.184 60.795C587.471 63.6812 587.295 66.4481 585.163 68.714C582.716 69.3106 580.659 67.9077 578.456 67.325C576.311 66.7576 574.441 66.8382 572.491 68.0692C567.202 71.4069 561.572 74.1653 556.418 77.3471C561.969 76.2041 567.677 74.7946 573.47 74.0239C577.903 73.4341 582.466 73.4902 586.528 76.0448C588.013 82.4022 588.118 88.9541 589.274 95.3642C591.97 110.326 595.499 125.019 602.515 138.652C603.476 140.521 604.521 142.332 605.712 144.063C606.452 145.14 607.111 146.249 606.417 147.621C602.408 154.57 595.585 156.982 588.393 158.702C583.859 159.786 579.228 159.682 574.607 159.363C570.79 158.542 566.84 158.283 563.173 156.81C558.894 155.092 555.315 152.519 553.176 148.281C552.976 147.801 553.278 146.581 552.095 147.472C546.034 152.037 539.997 156.722 536.473 163.643C532.868 170.725 532.743 177.742 538.292 184.146C538.866 184.808 539.86 185.538 539.297 186.531C538.803 187.402 537.678 187.445 536.757 187.29C523.066 184.997 509.464 182.399 497.93 173.884C496.782 173.036 494.779 172.436 495.626 170.208C495.839 170.105 496.069 169.967 496.284 169.999C505.779 171.431 513.868 168.081 521.339 162.624C521.991 162.147 522.81 161.968 522.895 161.899C510.898 165.77 498.408 168.672 486.337 160.094C482.644 157.702 480.905 153.773 478.837 150.182C469.335 133.679 470.664 117.486 480.434 101.556C485.481 93.3273 490.553 85.1051 494.786 76.0585C476.265 88.1172 458.861 100.922 448.781 122.029C452.616 119.222 456.36 117.784 460.379 117.064C461.577 116.85 463.098 116.081 463.905 117.438C464.586 118.585 463.367 119.587 462.714 120.491C460.465 123.607 458.136 126.664 456.009 129.872C448.971 140.487 447.239 152.255 448.38 164.659C448.432 165.225 448.518 165.812 449.191 166.68C450.42 164.795 451.614 163.022 452.982 161.393C453.904 160.294 454.638 158.742 456.56 159.309C457.301 160.427 456.872 161.581 456.591 162.684C452.588 178.407 456.433 192.596 464.975 205.87C470.317 214.171 477.296 220.977 484.675 227.418C485.197 228.007 485.556 228.681 485.743 229.447C486.751 241.935 484.289 253.858 479.8 265.43C478.386 269.076 477.459 272.968 474.813 276.039C473.214 276.648 472.471 275.418 471.671 274.483C456.201 256.399 442.798 237.016 434.797 214.363C430.783 202.999 428.586 191.3 428.061 179.162C427.187 158.963 431.606 139.875 438.535 121.157C439.79 117.767 442.008 114.899 443.317 111.56C449.648 105.009 456.984 99.7577 464.713 95.0234C465.802 94.3564 466.849 93.7872 467.41 92.4901C471.154 83.836 475.59 75.5891 481.766 68.3781C482.265 67.7952 482.475 66.9628 482.819 66.2466C483.525 62.9803 486.356 61.472 488.477 59.3731C492.375 57.2036 495.42 53.9199 498.966 51.2895C501.871 49.1348 504.911 47.1929 508.052 45.4233C509.939 44.3602 510.354 43.1235 509.499 41.1255C506.456 34.0189 501.926 28.0615 495.981 23.1655C494.152 21.659 491.987 20.8032 489.736 20.1489C485.583 18.9419 482.551 19.9969 480.018 23.5782C476.318 28.8101 476.657 34.797 476.874 40.7517C476.912 41.7943 477.267 42.8166 477.111 43.8797C475.904 48.4238 473.99 49.8713 468.918 50.0839C463.913 38.6238 465.71 15.8405 476.599 5.82739C482.196 0.681095 488.577 -1.35982 496.043 0.928972C499.409 9.22937 502.304 17.7373 506.848 25.5185C509.203 29.5519 511.847 33.3559 515.071 36.7721C517.223 39.0524 519.281 39.5081 522.17 38.0043C525.123 36.4673 527.886 34.3526 531.378 34.0189Z" fill="#F48319"/>
<path d="M609.198 221.489C609.213 224.507 609.23 227.525 609.245 230.543C607.706 234.95 604.395 238.132 601.584 241.659C593.696 251.556 575.395 266.082 564.21 271.43C574.58 269.346 585.191 266.871 595.263 262.478C597.106 261.674 598.755 260.033 601.068 260.62C602.117 262.431 601.042 264.007 600.452 265.594C594.987 280.295 587.321 293.852 579.022 307.092C574.692 314 569.908 320.597 565.454 327.416C557.651 337.669 549.823 347.905 540.646 357.006C527.954 369.001 513.907 379.015 497.956 386.239C497.132 386.612 496.302 387.178 495.335 386.59C486.66 389.694 478.081 393.085 469.1 395.27C468.086 395.516 467.118 395.889 466.059 395.6C464.228 392.467 465.122 389.072 465.272 385.8C465.382 383.394 465.724 380.979 465.94 378.568C466.729 373.928 467.319 369.254 467.999 364.597C469.064 359.036 469.958 353.398 474.47 349.297C480.057 343.892 485.088 338.003 489.656 331.707C504.264 312.543 509.387 290.58 508.293 266.951C508.062 261.981 508.167 256.937 507.251 251.988C506.998 250.618 506.945 249.185 508.005 248.021C509.148 247.377 510.055 247.987 510.815 248.708C518.727 256.208 526.934 263.443 532.76 272.847C533.373 273.837 533.921 274.862 534.41 275.917C534.696 276.536 535.139 277.111 535.145 277.825C534.659 265.103 529.941 254.117 521.717 244.46C514.659 236.172 506.305 229.384 497.691 222.857C496.653 222.071 495.056 221.606 495.359 219.76C500.671 213.822 507.613 210.665 515.045 208.551C523.218 206.227 531.555 204.786 540.12 205.168C542.041 205.254 543.95 205.343 544.863 207.365C547.607 213.437 552.635 216.707 558.642 218.818C577.395 225.54 594.751 225.721 608.523 207.494C609.463 212.586 608.453 217.094 609.198 221.489Z" fill="#E1A966"/>
<path d="M218.188 373.937C219.224 373.191 218.737 372.056 218.914 371.09C218.496 370.126 218.935 369.273 219.284 368.424C222.286 361.12 224.668 353.607 226.913 346.044C227.331 344.635 227.547 343.048 229.034 342.202C231.319 341.936 233 343.345 234.77 344.385C247.614 351.931 260.807 358.791 274.45 364.772C276.367 365.612 278.308 366.399 280.329 366.964C283.188 368.317 285.833 370.246 289.194 370.263C291.692 372.297 290.543 373.92 288.473 375.159C285.076 377.194 281.333 378.478 277.603 379.763C258.956 385.114 240.775 382.636 222.757 376.407C230.313 384.207 246.479 390.431 267.468 393.646C273.004 394.231 278.536 394.174 284.065 393.669C291.243 392.862 298.072 390.748 304.754 388.098C307.221 387.573 308.906 385.114 311.655 385.279C311.717 386.191 312.012 387.142 311.225 387.916C301.781 397.984 291.082 405.754 276.901 407.711C264.095 409.477 251.882 407.185 239.916 402.946C233.399 400.638 227.027 397.949 221.816 393.158C227.05 397.776 231.914 402.776 237.974 406.423C253.014 415.478 268.95 421.348 286.73 421.34C289.319 421.339 291.816 420.859 294.335 420.408C295.68 420.166 297.088 419.644 298.275 420.867C296.263 423.946 294.182 426.967 291.256 429.281C280.241 435.547 268.259 437.225 255.869 436.376C244.493 435.595 233.75 432.225 223.895 427.741C229.985 432.751 236.589 437.951 244.28 441.657C251.114 444.951 258.293 446.554 265.77 447.169C267.235 447.29 268.84 446.872 270.018 448.198C265.057 452.954 259.364 456.757 253.688 460.552C251.644 461.919 251.135 463.068 251.897 465.516C256.893 481.572 265.952 494.921 278.307 506.149C279.135 507.468 278.245 508.387 277.467 509.196C269.432 517.558 264.385 527.699 260.308 538.368C259.276 541.066 257.91 542.141 255.155 541.264C248.301 541.182 242.588 538.759 237.912 533.562C221.682 515.524 207.065 496.328 195.471 474.938C193.259 470.857 191.457 466.586 190.187 462.082C188.917 457.576 189.786 453.556 192.425 449.853C194.921 446.351 197.528 442.928 200.074 439.462C207.773 428.977 211.451 417.218 211.212 404.214C211.157 401.19 211.15 398.165 211.121 395.141C210.044 392.689 210.892 390.407 211.673 388.086C213.341 383.133 215.945 378.62 218.188 373.937Z" fill="#C54502"/>
<path d="M495.336 386.594C512.064 379.251 526.689 368.763 540.164 356.551C553.854 352.868 564.924 344.98 574.68 334.981C575.148 334.501 575.596 333.899 576.427 334.156C576.85 338.54 577.273 342.923 577.696 347.307C573.25 355.105 568.38 362.665 562.63 369.523C554.322 379.431 544.511 387.589 532.279 392.72C544.994 391.963 557.042 389.651 567.503 381.986C571.296 379.207 574.527 375.911 577.521 372.325C578.356 371.325 578.848 369.784 580.594 369.906C582.689 380.48 584.773 391.057 586.889 401.627C587.297 403.663 587.832 405.674 588.309 407.697C586.832 412.179 582.963 414.646 579.73 417.539C566.676 429.216 551.263 432.128 534.451 429.068C528.74 428.029 523.008 426.949 517.604 424.854C527.206 433.413 538.287 439.377 550.725 442.864C565.452 446.993 579.281 445.937 591.642 435.962C592.866 434.974 594.048 433.657 595.933 434.06C602.049 453.284 609.213 472.085 618.486 490.034C618.684 491.238 617.727 491.633 616.97 492.105C615.786 492.844 614.534 493.477 613.257 494.029C599.301 500.062 594.319 511.675 593.479 525.867C593.403 527.143 593.567 528.437 593.395 529.703C593.25 530.766 593.493 532.186 591.751 532.262C581.569 529.464 574.664 522.17 568.102 514.597C554.955 499.424 544.546 482.355 534.608 464.992C520.585 440.492 508.112 415.201 496.393 389.53C495.962 388.587 495.685 387.574 495.336 386.594Z" fill="#C54502"/>
<path d="M598.813 57.948C599.509 55.3655 600.205 52.783 600.901 50.2005C601.708 49.2291 602.773 49.4145 603.785 49.6353C608.757 50.7184 613.611 52.1819 617.92 53.9766C613.885 50.8414 608.93 48.4112 603.951 46.0202C602.721 45.4293 601.28 45.054 600.96 43.3979C601.081 39.7636 602.302 36.3743 603.277 32.9362C603.768 31.2032 604.943 30.5075 606.734 31.1437C608.753 31.2206 610.63 32.304 612.704 31.9927C616.164 33.3332 618.405 36.3179 621.303 38.4205C624.254 40.5612 624.187 40.6537 625.837 37.2773C626.455 36.5995 627.167 36.2386 628.092 36.6063C628.918 37.3236 628.911 38.3088 628.586 39.152C627.35 42.3561 628.895 44.3594 631.308 46.125C635.411 49.1285 638.724 52.9853 642.343 56.5127C642.909 57.0975 643.476 57.682 644.015 58.2928C645.577 60.6267 647.623 62.5248 649.58 64.5054C650.469 65.4052 651.509 66.2145 651.722 67.5916C654.42 73.1643 658.138 78.2561 659.623 84.4007C660.92 87.7848 660.172 91.2766 659.801 94.6385C659.289 99.273 659.456 103.816 660.102 108.383C659.804 111.856 659.368 115.32 659.009 118.789C657.86 129.867 652.407 138.019 641.883 142.309C635.732 144.816 629.39 146.713 623.309 147.734C626.083 148.271 629.42 148.449 632.723 148.9C638.826 149.733 644.928 149.223 650.632 147.203C658.835 144.298 662.569 137.673 663.509 129.262C663.68 127.73 663.057 125.925 664.813 124.846C666.417 125.762 666.158 127.441 666.358 128.862C667.318 135.686 667.389 142.478 665.254 149.14C664.725 150.791 664.32 152.507 662.873 153.671C659.465 154.535 655.977 153.662 652.509 154.26C641.676 156.13 631.35 159.597 621.209 163.711C619.053 163.658 618.596 161.788 617.674 160.398C614.892 156.205 612.382 151.776 607.975 148.97C607.435 148.592 606.989 147.965 606.171 148.28C605.721 148.09 605.407 147.847 605.789 147.329C605.991 146.811 606.361 146.339 605.923 145.732C596.822 133.123 593.118 118.41 589.864 103.595C587.889 94.6003 586.388 85.4828 586.279 76.2138C586.376 76.0779 586.472 75.942 586.568 75.8048C587.982 75.2856 589.302 75.8978 590.631 76.1928C594.999 77.1624 599.362 78.1449 603.318 78.2685C598.751 75.1407 593.054 72.9323 587.516 70.4022C586.608 69.75 584.977 70.0613 584.826 68.3966C586.425 66.1436 585.922 63.2895 586.97 60.8788C587.074 60.7247 587.178 60.5706 587.282 60.4154C591.849 60.4104 596.044 62.1392 600.294 63.4376C604.78 64.8081 609.496 65.66 613.514 68.331C614.844 70.5463 613.415 72.3335 612.524 74.14C610.776 77.6803 608.168 80.6753 606.126 84.0493C601.369 91.9077 599.981 100.425 600.342 109.398C600.365 109.968 600.815 110.124 601.172 110.394C602.17 113.188 601.129 116.38 602.89 119.005C603.736 119.947 604.557 119.497 605.348 118.942C608.386 116.809 611.874 116.079 615.465 115.667C615.695 115.641 615.926 115.621 616.155 115.588C627.606 113.956 632.373 108.187 631.964 96.4416C631.971 95.341 632.62 94.4886 633.058 93.554C635.193 89.5428 636.673 85.3835 636.356 80.7174C636.231 78.8814 635.762 77.342 634.184 76.285C628.117 73.5713 622.414 70.2412 617.082 66.265C616.67 65.9581 615.78 64.6738 615.434 66.4534C615.099 67.3769 614.844 68.3697 613.59 68.4103C609.555 65.4914 605.406 62.7487 601.102 60.2374C600.163 59.6895 598.828 59.4561 598.813 57.948Z" fill="#DC5907"/>
<path d="M443.317 111.56C444.08 113.377 442.697 114.64 442.051 116.022C434.269 132.654 429.998 150.148 429.005 168.47C427.43 197.547 436.784 223.381 452.409 247.322C459.023 257.456 466.076 267.271 474.476 276.039C479.428 280.171 483.131 285.381 486.859 290.553C487.873 291.96 487.695 293.746 485.539 293.135C479.762 291.499 473.926 289.793 469.503 285.301C463.679 281.499 457.75 277.847 452.049 273.868C432.732 260.387 417.015 243.812 407.938 221.636C402.486 208.315 399.986 194.462 401.254 180.115C402.244 168.907 405.858 158.39 411.084 148.434C411.619 147.414 412.055 146.343 412.538 145.295C422 133.319 432.371 122.176 443.317 111.56Z" fill="#65231A"/>
<path d="M659.436 108.911C657.369 102.498 658.776 96.023 659.234 89.5913C659.357 87.8717 659.44 86.1277 659.624 84.4023C663.095 92.2634 668.247 98.9585 673.972 105.272C683.23 115.483 686.754 127.416 684.49 141.313C682.163 139.769 680.039 138.031 676.835 136.737C683.891 153.365 688.262 169.724 680.998 187.127C677.844 185.027 675.078 182.67 671.661 181.408C671.022 181.172 670.326 180.675 669.723 181.204C669.085 181.761 669.604 182.481 669.771 183.139C671.653 190.538 671.237 197.778 668.077 205.704C664.962 196.551 659.397 190.299 650.712 185.278C657.922 198.81 661.556 211.535 650.292 224.453C647.428 211.004 637.428 208.06 626.341 206.729C623.234 206.356 620.094 206.253 616.97 206.025C615.048 205.457 613.078 205.76 611.14 205.799C609.259 205.837 608.646 205.001 608.811 203.297C609.1 200.307 608.793 197.296 609.126 194.31C609.552 192.18 611.032 190.705 612.356 189.132C613.623 188.225 614.774 187.131 616.268 186.563C629.341 182.122 641.918 176.784 651.911 166.779C652.497 166.21 653.092 165.648 653.657 165.058C656.542 161.999 658.609 158.334 661.095 154.986C661.412 154.407 662.352 154.484 662.468 153.684C666.719 144.424 666.641 134.814 664.778 125.06C664.546 124.997 664.24 124.925 664.188 124.749C662.643 119.458 659.997 114.497 659.436 108.911Z" fill="#E1A966"/>
<path d="M346.54 153.75C338.596 161.763 330.913 170 323.86 178.834C309.964 196.239 300.147 215.637 295.844 237.524C291.567 259.282 292.485 280.82 300.622 301.736C301.081 302.916 301.446 304.132 301.884 305.416C295.804 302.576 287.06 292.48 283.704 283.845C278.073 269.358 277.287 254.465 278.777 239.198C280.52 221.326 285.723 204.585 294.233 188.831C301.133 176.057 310.587 165.39 321.408 155.851C322.973 154.471 324.469 153.012 325.998 151.589C332.913 151.672 339.788 152.124 346.54 153.75Z" fill="#65231A"/>
<path d="M299.18 148.962C297.554 151.594 294.852 153.07 292.65 155.087C266.131 179.37 249.063 208.857 243.311 244.648C241.582 255.41 241.761 266.202 241.961 277.019C241.977 277.9 241.963 278.782 241.963 280.716C237.738 274.028 235.467 267.621 233.676 261.074C227.003 236.684 229.489 212.972 239.26 189.848C245.638 174.753 254.918 161.646 266.342 149.995C267.153 149.169 267.899 148.278 268.676 147.417C278.887 147.107 289.028 148.146 299.18 148.962Z" fill="#65231A"/>
<path d="M103.643 545.425C104.205 545.309 104.743 545.241 104.988 544.546C108.884 533.518 117.282 526.503 126.603 520.34C129.998 518.096 133.645 516.307 137.433 514.82C138.303 514.479 139.253 514.305 139.403 513.145C142.904 514.579 146.217 512.728 149.503 512.242C169.092 509.348 184.849 519.793 189.479 539.241C190.121 541.936 190.488 544.695 190.983 547.424C188.53 549.787 185.31 549.899 182.242 550.209C180.117 550.425 179.711 548.547 179.358 546.912C177.906 540.194 175.074 534.137 170.87 528.692C167.825 524.746 163.774 522.089 159.271 519.417C168.94 526.399 174.727 535.471 176.642 546.953C177.299 550.89 177.01 551.285 173.062 552.072C169.856 552.712 166.587 552.722 163.356 553.138C159.094 553.686 158.039 552.822 157.193 548.475C155.189 538.18 149.498 530.406 140.499 523.996C148.095 531.2 152.655 539.359 154.805 548.842C155.778 553.133 155.149 554.008 150.873 553.93C140.529 553.74 130.171 554.575 119.835 553.338C115.997 552.879 112.416 551.517 108.661 550.824C106.089 549.863 105.824 546.751 103.643 545.425Z" fill="#FAE1B6"/>
<path d="M591.75 532.259C593.236 530.813 592.482 528.972 592.506 527.329C592.602 520.658 593.882 514.289 596.689 508.211C599.858 501.349 605.28 496.918 611.837 493.578C614.072 492.44 616.657 491.935 618.486 490.03C622.334 491.007 626.02 489.52 629.73 489.069C639.834 487.84 648.289 490.489 654.937 498.345C660.478 504.893 664.726 512.133 666.612 520.606C667.798 525.936 666.164 528.716 660.806 530.116C658.586 530.696 656.266 530.895 653.991 531.267C658.197 517.003 651.232 507.269 640.896 498.918C646.592 504.016 649.815 510.539 651.539 517.867C652.638 522.544 651.872 527.049 649.816 531.355C644.5 532.472 639.066 532.104 633.704 532.643C632.768 530.946 633.549 529.221 633.691 527.532C634.582 516.958 631.567 507.928 623.376 500.869C630.143 509.928 631.842 520.035 629.696 530.954C629.558 531.656 629.36 532.305 628.823 532.808C616.447 533.885 604.085 533.974 591.75 532.259Z" fill="#E1A966"/>
<path d="M441.641 554.989C445.386 537.326 463.137 520.031 481.036 516.718C482.468 516.453 483.147 516.011 482.999 514.554C483.74 516.201 484.926 516.731 486.791 516.687C506.665 516.217 520.689 529.627 525.399 548.206C522.514 550.968 518.843 552.101 515.109 552.958C512.687 553.514 510.881 552.485 510.74 549.813C510.202 539.65 504.583 532.574 496.951 526.677C496.598 526.374 496.655 527.208 496.831 526.776C496.871 526.678 496.981 526.698 497.141 526.857C503.717 533.408 506.674 541.55 507.498 550.61C507.603 551.761 507.501 552.942 506.836 553.981C502.761 556.731 498.038 556.734 493.416 557.157C493.068 557.063 492.756 556.891 492.485 556.653C491.205 553.522 491.322 550.038 489.99 546.895C486.818 539.41 481.544 533.917 474.811 530.326C482.06 536.474 486.826 544.502 488.415 554.36C488.585 555.41 488.596 556.452 487.997 557.414C487.743 557.716 487.45 557.957 487.112 558.157C485.3 559.112 483.281 559.132 481.351 559.226C470.293 559.77 459.198 560.833 448.329 557.504C447.153 557.144 445.901 556.739 444.611 557.116C443.446 556.652 442.36 556.078 441.641 554.989Z" fill="#FAE1B6"/>
<path d="M237.284 149.281C240.272 149.486 238.777 150.787 237.8 151.715C232.467 156.785 227.661 162.31 223.423 168.32C212.231 184.196 205.375 201.747 202.731 221.036C200.026 240.782 201.661 260.208 206.248 279.548C203.6 277.787 200.634 274.147 197.546 268.706C187.753 251.446 185.513 232.759 187.26 213.352C188.484 199.756 192.403 186.949 198.527 174.759C202.275 167.299 207.914 161.205 212.608 154.431C220.548 151.342 228.9 150.233 237.284 149.281Z" fill="#65231A"/>
<path d="M255.156 541.264C257.612 541.614 258.627 540.435 259.481 538.133C263.572 527.116 268.813 516.727 277.17 508.217C277.746 507.63 278.296 507.041 278.308 506.149C279.822 506.357 280.948 505.392 282.199 504.833C295.255 499.006 309.624 501.248 318.604 510.706C324.19 516.588 327.536 523.715 329.094 531.631C330.14 536.942 329.564 537.46 322.189 539.559C321.543 538.944 321.469 538.129 321.412 537.311C320.434 523.257 314.195 512.766 300.839 506.938C307.67 512.362 313.648 518.303 316.932 526.484C318.739 530.983 319.968 535.501 318.138 540.304C314.644 541.027 311.185 542.003 307.559 541.78C306.896 541.178 306.821 540.364 306.753 539.547C305.805 528.245 300.342 520.112 289.914 515.449C288.885 514.989 287.86 514.511 286.964 513.887C297.068 520.149 303.747 528.624 304.367 541.023C304.39 541.492 304.346 541.951 304.141 542.382C290.407 544.044 276.693 543.188 262.991 541.973C260.38 541.742 257.674 542.488 255.156 541.264Z" fill="#E1A966"/>
<path d="M278.242 328.5C284.568 330.792 290.88 333.124 297.225 335.366C306.533 338.656 315.979 341.499 325.559 343.889C327.931 345.745 328.31 348.642 329.195 351.206C331.927 359.125 334.96 366.902 338.763 374.379C341.351 379.47 344.376 384.27 347.641 388.94C348.465 390.119 349.87 391.089 349.506 392.861C336.765 390.451 324.35 386.947 312.441 381.752C308.742 381.638 306.342 379.411 304.202 376.719C298.856 369.991 294.574 362.564 290.081 355.272C286.472 348.455 282.472 341.831 279.683 334.608C278.934 332.667 277.241 330.88 278.242 328.5Z" fill="#FAE1B6"/>
<path d="M399.64 152.295C394.236 161.131 387.577 169.119 382.515 178.203C372.308 196.515 365.675 215.905 363.375 236.831C361.205 256.572 362.772 276.07 366.081 295.522C366.198 296.209 366.259 296.909 366.299 297.606C366.318 297.931 366.225 298.263 366.092 299.285C361.328 291.195 357.214 283.457 354.351 275.092C344.085 245.095 348.119 216.404 362.312 188.678C368.38 176.824 375.438 165.617 384.47 155.753C389.527 154.6 394.583 153.447 399.64 152.295Z" fill="#65231A"/>
<path d="M370.047 155.248C371.862 155.477 373.677 155.706 375.742 155.967C373.83 160.023 370.234 162.569 367.542 165.826C354.172 182.005 341.133 198.374 333.574 218.323C329.22 229.814 326.811 241.688 325.657 253.926C324.413 267.124 326.111 279.834 330.757 293.103C325.692 288.76 322.463 284.056 320.04 278.83C311.345 260.075 311.427 240.843 317.08 221.311C322.039 204.18 331.545 189.692 342.808 176.167C349.001 168.731 356.093 162.169 362.727 155.165C365.167 155.192 367.606 155.22 370.047 155.248Z" fill="#65231A"/>
<path d="M186.198 166.788C186.381 170.393 184.453 173.395 183.282 176.58C178.545 189.457 176.096 202.721 175.419 216.428C174.279 239.486 178.966 261.237 189.085 281.895C189.279 282.291 189.405 282.719 189.613 283.264C186.244 281.724 181.453 277.369 178.045 273.086C166.943 259.133 162.028 242.906 160.145 225.453C158.785 212.853 159.539 200.385 161.548 187.938C163.854 183.915 167.514 181.213 170.943 178.284C175.793 174.139 180.832 170.246 186.198 166.788Z" fill="#65231A"/>
<path d="M175.094 413.81C160.895 398.509 155.37 379.345 151.201 359.629C149.231 350.312 148.098 340.856 148.098 331.243C149.12 335.124 149.976 339.058 151.195 342.876C155.38 355.983 161.315 368.184 170.815 378.312C178.96 386.994 188.584 393.244 200.62 395.094C202.138 395.679 203.484 394.449 204.98 394.689C206.275 394.897 207.809 394.455 208.531 396.097C203.521 405.396 197.477 413.9 189.489 420.906C187.575 422.039 185.842 420.946 184.201 420.278C180.687 418.847 177.167 417.321 175.094 413.81Z" fill="#65231A"/>
<path d="M595.932 434.063C591.217 437.226 586.886 440.946 581.527 443.152C572.312 446.946 562.903 446.763 553.507 444.526C538.769 441.018 525.829 434.001 514.854 423.314C520.188 424.883 525.547 426.28 530.959 427.47C544.886 430.532 558.406 430.079 571.108 422.81C577.849 418.952 583.139 413.382 588.307 407.699C590.849 416.488 593.391 425.275 595.932 434.063Z" fill="#4A0E02"/>
<path d="M470.912 477.597C461.234 480.678 451.495 483.039 441.203 481.056C431.31 479.151 422.953 474.534 415.773 467.505C407.403 459.312 401.983 449.269 397.227 438.704C402.238 442.428 406.862 446.573 411.96 450.105C417.808 454.156 423.923 457.631 430.689 460.002C442.461 464.128 453.309 461.681 463.804 455.904C464.814 455.348 465.865 454.865 466.896 454.349C468.235 462.098 469.574 469.847 470.912 477.597Z" fill="#65231A"/>
<path d="M464.864 428.588C438.321 437.385 409.807 426.993 397.734 398.141C395.321 392.374 393.298 386.454 392.24 380.216C395.701 385.032 398.874 389.991 402.963 394.278C411.567 403.295 421.215 410.545 433.854 412.705C440.932 413.914 447.976 413.608 454.899 411.549C456.745 409.796 459.153 409.239 461.467 408.531C464.909 407.478 465.078 407.653 464.962 411.41C464.929 417.136 464.897 422.862 464.864 428.588Z" fill="#64231A"/>
<path d="M336.865 347.528C346.635 348.876 356.043 352.045 365.838 353.286C369.747 353.781 373.623 354.608 377.543 354.929C379.954 355.126 380.359 355.743 379.723 358.094C376.764 369.041 375.305 380.19 375.988 391.556C376.126 393.869 376.428 396.173 376.655 398.481C374.214 397.08 371.254 398.342 368.811 396.95C365.358 394.301 362.813 390.756 360.304 387.344C351.972 376.012 344.173 364.303 337.819 351.706C337.176 350.433 335.963 349.195 336.865 347.528Z" fill="#FAE1B6"/>
<path d="M56.1662 458.631C64.3705 455.058 71.3802 456.538 75.2974 462.669C79.7583 469.652 78.509 478.673 71.3249 484.571C60.0595 493.82 47.0639 495.917 33.0659 492.162C30.3423 489.76 29.7852 486.477 29.3906 483.124C29.5839 478.541 29.605 478.454 34.1575 477.332C40.19 475.846 45.9297 473.811 50.6295 469.499C53.204 467.137 55.1015 464.476 55.2687 460.844C55.3074 460.014 55.5702 459.248 56.1662 458.631Z" fill="#4A0E02"/>
<path d="M298.276 420.87C294.954 421.302 291.641 421.997 288.307 422.123C269.92 422.817 253.471 416.757 237.954 407.449C230.905 403.22 224.892 397.877 219.994 391.13C221.196 391.993 222.374 392.89 223.602 393.713C235.332 401.576 248.329 405.606 262.319 407.021C276.339 408.439 289.041 405.397 300.255 396.788C303.284 394.463 305.933 391.647 308.844 389.159C309.49 388.607 309.772 387.019 311.225 387.919C308.861 399.671 306.551 411.446 298.276 420.87Z" fill="#4A0E02"/>
<path d="M628.124 36.8411C627.481 37.0892 626.837 37.3371 626.194 37.5852C625.14 36.5821 625.643 35.3952 625.922 34.3242C628.575 24.1177 630.795 13.7851 634.621 3.91502C639.856 -0.0685655 645.432 0.574955 650.554 3.61342C662.962 10.9742 669.036 22.1816 668.837 36.5924C668.703 46.3395 664.776 54.5606 657.808 61.354C655.727 63.3823 653.747 65.5138 651.721 67.5979C648.822 64.7546 645.437 62.3539 643.547 58.5918C644.15 56.7724 645.899 56.1216 647.208 55.0371C651.742 51.2803 655.43 46.9648 657.336 41.2306C659.613 34.3787 658.535 28.2262 654.06 22.6236C648.112 17.0669 640.675 17.4181 635.449 23.5733C633.016 26.4392 631.455 29.8122 630.142 33.3103C629.662 34.5889 629.486 36.0598 628.124 36.8411Z" fill="#C54502"/>
<path d="M336.865 347.523C338.594 352.217 341.189 356.467 343.739 360.725C350.348 371.762 357.125 382.689 365.632 392.415C366.849 393.806 368.093 395.195 368.811 396.945C362.282 396.029 355.735 395.193 349.505 392.856C339.545 380.382 333.18 366.071 328.171 351.061C327.366 348.648 326.433 346.277 325.559 343.886C321.968 331.261 319.146 318.478 317.793 305.344C321.853 314.84 325.857 324.361 329.995 333.823C332.042 338.503 334.034 343.229 336.865 347.523Z" fill="#65231A"/>
<path d="M564.693 327.135C571.737 316.345 579.191 305.822 585.582 294.608C591.171 284.801 596.155 274.713 600.073 264.116C600.471 263.039 600.649 261.881 600.93 260.76C602.129 257.968 603.971 255.89 607.074 255.212C603.948 282.955 596.396 309.037 578.611 331.28C574.575 330.872 570.694 329.732 566.779 328.759C565.871 328.532 565.017 328.155 564.693 327.135Z" fill="#C54502"/>
<path d="M609.981 193.464C609.962 196.707 610.292 200.004 609.808 203.176C609.457 205.475 610.391 205.349 611.929 205.439C613.613 205.537 615.408 204.857 616.968 206.027C609.112 206.252 609.117 206.252 609.187 214.215C609.208 216.641 609.195 219.068 609.197 221.494C607.853 217.419 608.993 213.208 608.472 209.014C607.395 209.037 607.123 210.056 606.7 210.722C600.915 219.841 592.057 223.097 581.888 223.56C576.001 223.827 570.062 223.975 564.303 222.187C562.2 221.534 560.072 220.954 558.283 219.581C559.271 218.189 560.794 218.446 562.112 218.537C576.023 219.508 583.682 211.35 589.234 200.051C590.243 197.996 590.555 195.603 592.22 193.862C594.098 193.453 595.808 194.424 597.62 194.518C600.923 194.688 604.246 195.07 607.384 193.505C608.197 193.099 609.107 192.827 609.981 193.464Z" fill="#D9B98C"/>
<path d="M580.592 369.908C572.306 381.256 561.461 388.726 547.646 391.674C541.965 392.886 536.215 393.47 530.205 393.113C533.082 391.547 535.96 389.985 538.834 388.414C551.167 381.676 560.544 371.843 568.41 360.353C571.422 355.953 573.774 351.067 577.694 347.311C578.66 354.842 579.626 362.375 580.592 369.908Z" fill="#4A0E02"/>
<path d="M108.66 550.823C109.063 550.66 109.534 550.27 109.858 550.368C118.989 553.137 128.371 553.183 137.778 553.056C142.548 552.991 147.321 552.994 152.091 553.031C154.008 553.045 154.654 552.715 154.194 550.409C152.346 541.125 148.214 533.121 141.61 526.4C140.442 525.212 138.951 524.344 138.157 522.78C144.99 525.164 149.702 529.927 153.293 535.798C155.783 539.868 157.686 544.25 158.185 549.108C158.443 551.614 159.734 552.749 162.373 552.359C166.144 551.801 169.929 551.272 173.727 551.009C175.946 550.855 176.421 550.257 175.953 548.006C173.127 534.432 169.435 528.504 157.401 518.311C160.174 518.924 162.712 520.132 165.025 521.841C173.601 528.176 178.175 537.011 180.341 547.18C180.832 549.486 181.707 549.823 183.586 549.34C186.053 548.706 188.517 548.062 190.982 547.423C192.027 550.229 190.503 552.01 188.482 553.53C184.627 556.43 180.039 557.334 175.438 557.824C163.986 559.043 152.557 558.477 141.098 557.383C132.679 556.579 124.279 555.905 116.083 553.709C113.51 553.019 110.945 552.273 108.66 550.823Z" fill="#D9B98C"/>
<path d="M99.5789 286.402C101.482 280.177 103.868 274.142 106.683 268.275C107.73 268.177 108.414 268.839 109.071 269.48C113.958 274.244 119.842 277.372 126.071 279.95C127.318 280.466 128.809 280.685 129.311 282.266C126.884 289.928 124.458 297.591 122.031 305.253C114.187 301.294 106.599 296.986 101.165 289.771C100.406 288.763 99.5494 287.789 99.5789 286.402Z" fill="#E76C0F"/>
<path d="M270.017 448.195C250.294 448.57 234.892 439.398 221.371 426.031C226.671 427.961 231.862 430.168 237.261 431.794C251.679 436.136 266.147 437.139 280.797 432.844C284.346 431.803 287.414 429.407 291.255 429.278C284.919 436.421 278.223 443.158 270.017 448.195Z" fill="#4A0E02"/>
<path d="M153.442 431.962C141.869 421.946 135.492 409.056 132.62 394.224C132.386 393.018 132.028 391.825 132.619 390.129C139.436 403.287 148.74 413.75 160.939 421.548C163.479 421.995 165.549 423.472 167.791 424.6C170.57 425.999 173.498 427.065 176.524 427.87C177.757 428.198 179.408 428.037 179.855 429.809C175.994 433.078 172.381 436.672 167.819 439.025C162.074 438.616 157.379 436.063 153.442 431.962Z" fill="#65231A"/>
<path d="M607.074 255.212C605.026 257.061 602.978 258.911 600.93 260.76C588.596 266.971 575.444 270.433 561.062 272.708C566.376 269.327 571.088 266.511 575.61 263.418C588.465 254.623 599.819 244.265 608.449 231.14C608.62 230.88 608.976 230.741 609.246 230.544C609.481 238.85 608.854 247.082 607.074 255.212Z" fill="#4A0E02"/>
<path d="M290.772 355.113C294.618 360.981 298.467 366.846 302.307 372.717C304.874 376.642 307.846 380.106 312.439 381.751C311.447 382.764 311.97 384.114 311.655 385.278C309.618 386.414 307.876 388.107 305.479 388.564C303.881 387.348 302.077 386.636 300.121 386.201C293.557 384.742 287.154 382.648 280.586 381.196C279.289 380.91 277.738 380.808 277.57 378.94C281.119 377.381 284.879 376.336 288.255 374.346C290.046 373.291 290.577 372.241 288.907 370.68C287.967 370.451 287.234 369.903 286.666 369.145C283.684 365.157 281.267 360.814 278.798 356.505C278.332 355.693 278.172 354.769 278.395 353.816C278.858 352.456 280.001 352.052 281.185 352.259C284.482 352.836 287.886 353.127 290.772 355.113Z" fill="#4C1008"/>
<path d="M153.441 431.969C158.046 434.705 162.629 437.489 167.818 439.032C156.886 446.203 146.013 453.487 133.063 456.668C127.652 453.529 121.319 453.472 114.895 451.073C129.393 447.263 142.23 441.202 153.441 431.969Z" fill="#DC5907"/>
<path d="M464.96 411.414C465.138 408.628 463.936 408.365 461.626 409.349C459.462 410.271 457.145 410.834 454.896 411.553C452.776 403.685 450.332 395.898 448.96 387.842C448.613 385.806 448.28 383.767 447.941 381.73C448.674 380.824 449.734 380.691 450.751 380.741C455.537 380.98 460.074 379.936 464.512 378.266C465.256 377.986 466.055 377.787 466.834 378.236C466.892 384.041 465.632 389.786 466.058 395.607C464.819 399.892 465.795 404.324 465.198 408.653C465.072 409.567 465.037 410.493 464.96 411.414Z" fill="#C54502"/>
<path d="M30.2569 483.256C30.1359 486.561 32.1118 489.202 33.0676 492.165C24.1063 490.542 17.1469 485.531 11.0273 479.1C12.0129 471.403 16.2721 466.104 23.0461 462.637C27.0388 461.556 31.0757 461.348 35.1569 462.015C37.7582 462.687 40.3595 463.359 42.9606 464.032C41.8272 465.719 39.9952 465.65 38.2974 465.833C36.8586 465.988 35.4409 466.257 34.6805 467.576C31.8893 472.419 29.6988 477.456 30.2569 483.256Z" fill="#F48319"/>
<path d="M531.378 34.0193C527.489 36.0186 523.596 38.0108 519.713 40.0203C517.872 40.9728 516.891 39.4785 515.845 38.5537C510.913 34.1915 507.413 28.746 504.403 22.9578C501.14 16.683 498.663 10.0698 496.145 3.47764C495.844 2.68977 495.097 1.81313 496.044 0.930176C499.459 2.36156 502.287 4.69856 504.378 7.6198C511.832 18.0354 520.847 26.7902 531.378 34.0193Z" fill="#65231A"/>
<path d="M99.5807 286.406C104.4 294.144 111.932 298.66 119.462 303.173C120.424 303.749 121.697 303.918 122.032 305.258C120.783 309.395 119.586 313.552 117.645 317.44C115.884 318.322 114.612 317 113.208 316.403C109.939 315.011 107.038 312.978 104.113 310.995C101.327 309.211 98.2151 307.985 95.569 305.96C94.4893 305.134 93.2026 304.507 92.9824 302.949C94.8565 297.304 96.7689 291.675 99.5807 286.406Z" fill="#58190E"/>
<path d="M64.0977 360.404C68.5107 352.79 72.9238 345.176 77.3368 337.562C81.9669 339.753 86.4741 342.161 90.6525 345.154C90.7888 345.474 90.8614 345.808 90.8698 346.157C87.8389 353.329 83.9998 360.04 79.3153 366.257C78.6225 367.176 77.7219 367.953 76.4841 368.134C74.4554 368.099 73.0992 366.707 71.7086 365.559C69.3269 363.591 66.1543 362.825 64.0977 360.404Z" fill="#F48419"/>
<path d="M33.8672 393.532C42.1709 388.083 48.3994 380.471 54.9758 373.222C55.757 372.671 56.5722 372.881 57.2271 373.343C60.4489 375.613 64.3527 377.06 66.3557 380.824C66.3454 382.198 65.5798 383.277 64.7283 384.179C59.3434 389.884 53.9711 395.607 48.0072 400.725C47.3144 401.32 46.5985 401.929 45.6915 402.215C44.6607 402.298 43.9027 401.72 43.293 401.036C40.5783 397.988 37.2789 395.692 33.8672 393.532Z" fill="#FAE1B6"/>
<path d="M5.76953 426.39C9.16915 417.427 14.3142 409.675 21.6413 403.436C27.1988 404.084 32.4396 405.334 35.4941 410.744C34.8576 413.518 32.6813 415.28 30.8978 417.172C27.8011 420.457 25.5631 424.418 22.3428 427.586C21.9733 427.681 21.6027 427.709 21.2231 427.683C17.0597 426.708 12.8705 426.416 8.62784 427.078C7.60677 427.237 6.55993 427.292 5.76953 426.39Z" fill="#F48419"/>
<path d="M564.694 327.142C568.197 328.558 571.957 328.956 575.586 329.871C576.717 330.157 577.803 330.379 578.611 331.287C577.884 332.243 577.156 333.2 576.428 334.157C566.784 344.663 555.789 353.088 541.726 356.81C541.117 356.971 540.615 357.076 540.164 356.553C549.009 347.308 556.963 337.319 564.694 327.142Z" fill="#902A07"/>
<path d="M5.00732 470.232C-0.571201 460.967 -0.665625 450.921 0.80101 440.651C5.86243 437.784 11.2453 436.794 16.9861 437.869C17.5266 438.16 17.9203 438.585 18.1489 439.158C18.3283 444.275 16.5928 449.347 17.7741 454.489C17.6644 455.751 16.9266 456.599 15.9142 457.253C11.623 460.026 8.3354 463.627 6.57049 468.51C6.29563 469.271 5.90004 469.997 5.00732 470.232Z" fill="#F48419"/>
<path d="M45.6157 401.944C50.5551 397.203 55.5508 392.518 60.4076 387.694C62.4592 385.656 64.2188 383.323 66.1113 381.124C66.3598 380.862 66.6463 380.795 66.978 380.952C69.5462 384.304 72.7732 387.244 73.6772 391.644C66.7962 399.206 58.6158 405.362 51.2669 412.417C48.3544 409.811 46.9698 406.244 45.2754 402.87C45.2851 402.523 45.4045 402.217 45.6157 401.944Z" fill="#F48419"/>
<path d="M76.3728 367.82C80.7056 364.607 82.7007 359.686 85.398 355.298C87.2676 352.256 88.8505 349.038 90.5615 345.899C95.0458 346.717 98.0927 349.569 100.679 353.072C95.5469 362.253 90.1177 371.243 83.6894 379.591C80.6711 376.37 79.2203 372.077 76.3112 368.779C76.1963 368.451 76.2113 368.13 76.3728 367.82Z" fill="#DC5907"/>
<path d="M104.436 310.341C108.776 312.824 112.741 316.006 117.642 317.44C114.556 325.782 110.989 333.908 106.778 341.745C103.867 341.214 102.65 338.549 100.71 336.821C99.0757 335.366 97.362 333.921 96.2355 331.964C96.1116 331.628 96.0516 331.283 96.043 330.925C98.0196 324.306 100.947 318.041 103.269 311.549C103.463 311.006 103.88 310.582 104.436 310.341Z" fill="#DC5907"/>
<path d="M606.735 31.1442C605.25 31.0844 604.436 31.8006 604.113 33.2507C603.32 36.811 602.471 40.3586 601.644 43.9115C600.798 44.5637 599.874 44.348 598.992 44.0801C591.353 41.7592 583.65 39.7062 575.774 38.3485C575.2 38.2495 574.691 37.9584 574.359 37.4361C574.373 34.2414 574.386 31.0467 574.399 27.8521C585.288 27.866 596.096 28.6731 606.735 31.1442Z" fill="#E3702A"/>
<path d="M129.309 282.263C123.87 280.08 118.547 277.687 113.639 274.417C111.025 272.675 108.917 270.414 106.682 268.272C108.458 263.094 110.466 258.025 113.581 253.474C114.673 253.602 115.109 254.481 115.465 255.305C116.808 258.412 118.852 261.044 120.954 263.64C122.848 265.605 125.414 266.379 127.788 267.477C129.136 268.101 130.627 268.464 131.478 269.849C131.86 273.139 130.912 276.33 130.749 279.579C130.268 280.474 129.789 281.368 129.309 282.263Z" fill="#58190F"/>
<path d="M634.623 3.9082C635.774 5.60116 634.469 7.02754 634.003 8.4584C630.88 18.0279 628.437 27.775 626.195 37.5784C626.047 38.2533 625.866 38.9231 625.756 39.6043C625.435 41.5815 624.629 42.2153 622.902 40.7599C619.474 37.8705 615.728 35.3536 612.705 31.9914C619.618 24.8753 624.489 16.2478 630.216 8.25372C631.433 6.55603 632.721 4.91655 634.623 3.9082Z" fill="#4A0E02"/>
<path d="M104.437 310.34C101.834 317.402 99.2306 324.464 96.6272 331.526C95.2937 331.67 94.4788 330.758 93.7663 329.913C90.9261 326.544 87.5625 323.525 86.2598 319.084C87.9826 313.487 90.4435 308.198 92.9806 302.945C96.4468 305.96 100.647 307.832 104.437 310.34Z" fill="#F48419"/>
<path d="M506.539 553.701C506.882 542.629 502.69 533.395 494.955 525.51C496.309 525.02 497.079 525.857 497.845 526.407C505.752 532.08 511.081 539.347 511.535 549.432C511.665 552.328 513.14 552.861 515.411 552.069C518.781 550.893 522.076 549.5 525.401 548.199C525.575 549.222 525.747 550.244 525.922 551.266C526.685 555.717 524.818 559.08 520.55 560.448C516.928 561.609 513.217 562.474 509.346 562.036C508.563 560.862 509.363 559.83 509.669 558.774C510.833 554.747 510.848 554.751 506.867 554.071C506.757 553.949 506.648 553.825 506.539 553.701Z" fill="#DDB37D"/>
<path d="M30.2568 483.251C28.6634 476.792 31.0375 471.297 34.4453 466.063C35.2628 464.808 36.595 464.979 37.8622 464.851C39.5722 464.678 41.2627 464.311 42.9607 464.027C47.8491 463.421 51.6887 460.241 56.167 458.628C56.8917 467.076 51.2195 471.126 44.9569 474.54C41.73 476.299 38.2247 477.676 34.5187 478.164C31.4357 478.571 29.6261 479.829 30.2568 483.251Z" fill="#65231A"/>
<path d="M86.2594 319.077C89.6172 323.305 92.4055 328.01 96.6268 331.518C96.6013 331.703 96.5929 331.888 96.6013 332.074C94.6247 336.523 93.1901 341.227 90.4073 345.298C85.8143 343.118 81.2271 340.928 77.3359 337.559C79.9336 331.216 82.6993 324.954 86.2594 319.077Z" fill="#65231A"/>
<path d="M120.506 264.264C117.25 261.279 115.571 257.278 113.58 253.477C116.495 246.058 120.541 239.274 125.135 232.798C127.368 235.849 129.376 239.027 130.679 242.609C128.706 249.505 125.419 255.886 122.834 262.544C122.466 263.492 121.789 264.383 120.506 264.264Z" fill="#F48419"/>
<path d="M179.854 429.812C173.138 428.001 166.615 425.746 160.938 421.551C161.901 421.531 162.495 420.892 162.656 420.1C163.465 416.117 166.545 415.658 169.783 415.196C171.582 414.94 173.324 414.285 175.093 413.81C179.503 416.968 183.92 420.109 189.49 420.905C186.659 424.288 183.24 427.031 179.854 429.812Z" fill="#E36F2A"/>
<path d="M76.3731 367.818C76.3949 368.013 76.4181 368.207 76.4426 368.401C73.9167 373.236 70.6341 377.482 66.5762 381.124L66.3429 381.1C66.3429 381.1 66.1093 381.122 66.1101 381.123C62.9572 377.701 59.1499 375.201 54.9746 373.222C58.0147 368.952 61.055 364.681 64.0966 360.41C68.7953 361.872 72.3827 365.18 76.3731 367.818Z" fill="#65231A"/>
<path d="M22.6562 427.018C25.6235 420.734 30.9526 416.312 35.2076 411.043C35.4956 410.827 35.8073 410.785 36.1435 410.912C38.9797 414.033 41.3695 417.401 42.0558 421.705C38.0943 425.926 34.7489 430.62 31.5415 435.42C28.4468 432.761 25.3607 430.092 22.6562 427.018Z" fill="#DC5907"/>
<path d="M66.5762 381.126C69.5578 376.646 72.8146 372.38 76.4423 368.403C79.9303 371.437 82.0747 375.343 83.6892 379.593C81.0652 384.203 77.7082 388.205 73.6771 391.645C71.3101 388.139 68.9431 384.632 66.5762 381.126Z" fill="#4A0E02"/>
<path d="M17.0742 438.339C11.4604 437.772 6.18704 439.607 0.800781 440.65C1.76135 435.655 2.94287 430.735 5.76804 426.389C10.6687 425.752 15.5726 425.063 20.4552 426.49C20.9967 426.648 21.4899 426.972 22.0054 427.219C22.7511 428.339 22.0428 429.269 21.4907 430.099C19.7555 432.71 19.2316 435.964 17.0742 438.339Z" fill="#65231A"/>
<path d="M35.8514 411.129C35.6394 411.083 35.425 411.056 35.2078 411.049C33.0931 407.446 29.3202 406.448 25.8046 405.05C24.4219 404.501 23.0294 403.976 21.6406 403.441C25.2617 399.578 29.6763 396.696 33.8653 393.532C36.9282 393.537 38.7744 395.746 40.8455 397.48C42.5126 398.877 44.0315 400.45 45.6157 401.945C45.6268 402.19 45.6386 402.435 45.6502 402.68C42.5291 405.665 38.4451 407.531 35.8514 411.129Z" fill="#65231A"/>
<path d="M90.4082 345.3C91.9898 340.665 93.2944 335.9 96.6022 332.076C99.9939 335.298 103.386 338.52 106.778 341.741C104.955 345.628 103.113 349.506 100.68 353.067C97.3282 350.645 94.2878 347.783 90.561 345.893C90.52 345.693 90.4687 345.495 90.4082 345.3Z" fill="#4A0E02"/>
<path d="M5.00781 470.239C6.89003 463.432 11.3291 458.725 17.2717 455.251C17.5597 455.025 17.8332 455.029 18.0913 455.3C18.9177 458.445 22.0172 460.307 22.7237 463.521C16.4387 466.918 13.3623 472.73 11.0261 479.101C8.79329 476.303 6.50417 473.541 5.00781 470.239Z" fill="#65231A"/>
<path d="M488.473 60.064C486.588 62.1252 484.704 64.1862 482.818 66.2471C476.275 62.5074 471.193 57.5068 468.918 50.0846C469.944 49.6439 470.934 49.0681 472.001 48.7905C474.601 48.1146 476.012 46.4711 476.405 43.8657C477.399 44.2672 477.649 45.2226 477.876 46.0831C479.245 51.2637 482.355 55.1108 486.762 58.0147C487.52 58.5146 488.344 59.0125 488.473 60.064Z" fill="#C54502"/>
<path d="M35.852 411.125C35.7834 409.762 36.2721 408.613 37.4449 407.94C40.2698 406.321 42.278 403.428 45.6511 402.675C47.9923 405.65 49.3929 409.169 51.2677 412.414C48.4739 415.784 45.2449 418.722 42.0579 421.705C39.9884 418.179 37.9202 414.652 35.852 411.125Z" fill="#4A0E02"/>
<path d="M444.613 557.117C448.605 555.479 452.224 557.864 456.031 558.215C464.232 558.973 472.434 558.882 480.615 558.256C482.982 558.075 485.496 558.286 487.774 557.232C489.041 559.364 487.844 561.521 487.836 563.666C482.752 565.03 477.668 563.658 472.653 563.309C463.062 562.643 453.628 560.684 444.613 557.117Z" fill="#DABA8C"/>
<path d="M318.137 540.306C319.201 524.383 309.513 514.664 297.926 505.782C312.594 507.411 323.737 525.935 322.188 539.561C320.789 539.544 319.603 540.689 318.137 540.306Z" fill="#F4841A"/>
<path d="M628.823 532.806C628.427 529.754 629.314 526.806 629.623 523.819C630.561 514.73 626.513 507.372 621.816 500.193C621.533 499.76 620.867 499.521 621.078 498.812C630.59 501.758 637.83 519.206 633.704 532.641C632.077 532.695 630.45 532.75 628.823 532.806Z" fill="#F4841A"/>
<path d="M649.817 531.358C650.261 526.119 652.059 521.02 650.108 515.596C648.025 509.808 645.512 504.442 640.846 500.304C639.901 499.466 638.884 498.709 638.246 497.526C642.786 498.129 645.602 501.242 648.231 504.317C653.242 510.182 656.722 516.733 656.204 524.866C656.049 527.292 655.639 529.447 653.992 531.27C652.601 531.299 651.209 531.328 649.817 531.358Z" fill="#F4841A"/>
<path d="M130.242 242.496C128.334 239.373 126.019 236.463 125.139 232.798C127.104 229.166 129.447 225.797 132.219 222.732C134.425 223.149 134.153 225.415 135.19 226.707C136.13 228.603 137.102 230.493 136.713 232.726C135.683 237.108 134.654 241.491 133.624 245.873C131.306 245.944 131.03 243.963 130.242 242.496Z" fill="#602015"/>
<path d="M17.8293 455.31C17.6446 455.275 17.4581 455.253 17.2714 455.245C15.4462 449.799 16.7232 444.451 17.7888 439.097C22.0495 438.545 25.29 440.456 28.1083 443.386C27.6391 446.59 27.9195 449.775 28.3616 452.955C25.1732 455.187 21.5371 455.409 17.8293 455.31Z" fill="#DC5908"/>
<path d="M28.1066 443.385C24.762 441.724 21.5091 439.842 17.7865 439.096C17.5492 438.844 17.3115 438.591 17.0742 438.339C17.7949 434.222 20.3365 430.915 22.0052 427.219C22.2253 427.162 22.4418 427.095 22.6556 427.017C26.379 429.011 29.2634 431.894 31.5417 435.419C30.3965 438.074 29.2515 440.729 28.1066 443.385Z" fill="#4A0E02"/>
<path d="M304.142 542.38C302.869 539.479 303.359 536.247 302.273 533.257C299.28 525.019 293.862 518.944 286.457 514.491C285.769 514.078 285.109 513.618 284.448 513.162C284.374 513.111 284.379 512.946 284.348 512.834C298.056 515.236 308.432 527.777 307.56 541.778C306.535 542.629 305.372 542.695 304.142 542.38Z" fill="#F4841A"/>
<path d="M17.8281 455.316C21.197 453.895 24.8344 453.679 28.3602 452.961C30.1812 456.315 32.1925 459.526 35.1568 462.018C31.1478 463.649 26.7534 462.082 22.7225 463.522C20.7924 460.966 17.8939 458.989 17.8281 455.316Z" fill="#4A0F03"/>
<path d="M492.669 556.532C497.355 555.897 502.066 555.386 506.539 553.706C506.538 553.706 506.741 553.814 506.741 553.814C508.184 557.119 506.759 559.948 505.258 562.764C500.385 563.535 495.483 563.686 490.563 563.47C490.429 560.903 491.4 558.672 492.669 556.532Z" fill="#DABA8C"/>
<path d="M208.532 396.101C206.005 394.9 203.123 396.5 200.621 395.097C204.926 392.903 207.045 388.661 209.795 385.06C212.099 382.043 213.95 378.683 216.065 375.517C216.554 374.783 216.7 373.394 218.19 373.94C218.525 376.066 217.376 377.743 216.496 379.494C213.998 384.468 211.476 389.432 211.122 395.144C208.945 391.897 209.633 396.426 208.532 396.101Z" fill="#DC5A08"/>
<path d="M136.711 232.721C136.703 230.527 134.995 229.005 134.465 227.017C134.849 222.747 137.431 219.253 138.602 215.26C141.184 212.208 143.765 209.155 146.347 206.103C147.673 208.235 146.066 209.896 145.241 211.492C141.715 218.303 138.642 225.276 136.711 232.721Z" fill="#C64703"/>
<path d="M505.259 562.762C505.019 559.656 506.988 556.918 506.741 553.811C511.978 553.215 512.381 553.729 510.623 558.876C510.256 559.95 509.775 560.985 509.346 562.038C508.106 562.974 506.663 562.758 505.259 562.762Z" fill="#F4841B"/>
<path d="M138.602 215.264C138.822 219.747 136.162 223.215 134.464 227.021C133.715 225.591 132.966 224.161 132.217 222.731C133.802 219.775 136.424 217.71 138.602 215.264Z" fill="#E2702B"/>
<path d="M492.67 556.532C492.626 559.045 491.851 561.336 490.564 563.47C489.655 563.535 488.746 563.599 487.837 563.664C485.807 561.539 488.053 559.372 487.775 557.23L487.825 557.275C489.298 556.169 490.845 555.579 492.621 556.583L492.67 556.532Z" fill="#F3851C"/>
<path d="M469.503 285.3C473.646 287.599 477.858 289.76 482.316 291.388C483.697 291.892 485.134 292.243 487.227 292.867C484.378 287.789 480.813 284.099 477.578 280.174C476.479 278.84 475.102 277.726 474.477 276.039C477.408 269.255 480.152 262.396 482.173 255.278C484.592 246.761 485.179 238.022 485.073 229.214C486.111 228.855 486.911 229.447 487.618 230.001C494.204 235.167 501.018 240.048 507.207 245.707C507.841 246.287 508.847 246.738 508.555 247.924C507.619 253.131 508.682 258.313 509.036 263.459C510.78 288.821 505.998 312.278 489.978 332.687C487.123 331.963 485.368 329.654 483.269 327.892C474.908 320.873 465.889 314.755 457.002 308.452C456.823 308.124 456.876 307.828 457.129 307.562C459.577 305.458 460.55 302.436 461.987 299.706C464.509 294.913 466.999 290.103 469.503 285.3Z" fill="#C54502"/>
<path d="M229.266 342.517C226.16 350.339 224.42 358.633 221.068 366.37C220.38 367.957 219.634 369.519 218.914 371.092C207.394 373.946 197.901 369.737 189.447 362.374C175.994 350.657 168.66 335.158 163.101 318.658C160.745 311.664 158.872 304.527 159.031 296.998C161.7 303.951 164.571 310.767 168.544 317.059C175.009 327.297 182.837 336.062 194.544 340.393C205.666 344.507 216.232 342.82 226.285 336.882C227.493 336.168 228.623 335.351 229.39 334.131C230.311 333.6 231.271 332.527 232.027 334.322C231.888 337.317 231.491 340.226 229.266 342.517Z" fill="#65231A"/>
<path d="M457.128 307.56C457.118 307.769 457.11 307.977 457.103 308.186C457.839 309.205 457.403 310.201 456.929 311.107C453.669 317.339 451.364 323.96 448.94 330.536C448.645 330.828 448.319 330.866 447.965 330.65C428.422 320.146 413.335 305.253 403.662 285.15C397.387 272.106 393.251 258.328 390.557 244.023C392.265 246.892 393.958 249.77 395.684 252.627C405.787 269.352 420.204 281.695 436.059 292.61C443.151 297.492 450.109 302.571 457.128 307.56Z" fill="#65231A"/>
<path d="M229.266 342.516C230.051 339.671 230.837 336.826 231.622 333.98C231.037 331.45 232.224 329.212 232.902 326.928C233.854 323.727 234.804 320.528 235.565 317.278C235.959 315.592 236.923 314.249 238.625 314.717C243.027 315.925 247.769 316.087 251.721 318.755C252.603 319.946 254.35 318.902 255.224 320.114C259.178 326.344 264.166 331.725 269.156 337.109C271.442 342.468 272.833 348.137 274.873 353.583C276.183 357.082 277.727 360.444 279.701 363.623C280.455 364.836 281.632 366.131 280.324 367.721C275.521 366.664 271.229 364.316 266.816 362.298C255.405 357.079 244.426 351.036 233.59 344.722C232.194 343.909 230.709 343.248 229.266 342.516Z" fill="#E1A966"/>
<path d="M447.965 330.65C448.193 330.622 448.422 330.62 448.651 330.644C451.292 330.68 453.143 332.486 455.132 333.781C461.362 337.84 467.333 342.283 473.317 346.699C474.212 347.359 475.38 347.913 475.266 349.356C471.36 353.521 469.911 358.75 468.876 364.158C462.164 369.612 454.63 371.389 446.216 369.236C445.688 368.949 445.224 368.609 445.194 367.931C445.045 355.424 445.028 342.927 447.965 330.65Z" fill="#C54502"/>
<path d="M445.195 367.938C445.438 368.141 445.68 368.343 445.923 368.546C448.048 372.508 448.909 376.607 447.266 380.978C437.746 379.245 430.594 373.682 424.493 366.59C418.855 360.037 414.807 352.409 410.554 344.942C407.904 340.288 405.043 335.797 400.85 331.008C406.049 332.986 409.711 335.629 413.046 338.75C418.912 344.241 423.616 350.797 429.193 356.553C433.819 361.328 438.722 365.75 445.195 367.938Z" fill="#65231A"/>
<path d="M290.773 355.114C287.796 355.03 285.057 353.851 282.189 353.264C280.912 353.002 279.416 352.34 278.946 354.426C277.427 354.52 277.048 353.265 276.604 352.273C272.966 344.146 269.969 335.793 267.881 327.124C267.633 326.095 267.579 325.075 267.755 324.037C266.735 317.403 265.542 310.789 264.744 304.129C263.91 297.17 263.456 290.165 263.182 283.111C267.219 298.599 272.078 313.767 278.241 328.501C281.297 336.653 285.064 344.464 289.382 352.019C289.936 352.987 290.918 353.814 290.773 355.114Z" fill="#5E1B11"/>
<path d="M447.267 380.979C447.423 376.769 446.362 372.691 445.924 368.547C452.89 369.959 459.505 369.135 465.713 365.515C466.696 364.942 467.82 364.61 468.878 364.167C468.445 368.892 467.929 373.606 466.838 378.236C460.895 381.323 454.527 382.106 447.945 381.73C447.719 381.48 447.493 381.229 447.267 380.979Z" fill="#4A0E02"/>
<path d="M251.722 318.757C247.68 317.76 243.594 316.909 239.613 315.709C237.502 315.072 236.788 315.522 236.249 317.642C234.856 323.128 233.183 328.543 231.622 333.985C230.821 333.177 230.147 334.261 229.391 334.133C233.885 322.525 236.201 310.278 239.832 298.417C239.933 298.085 239.951 297.724 240.075 297.403C240.642 295.923 240.801 293.76 242.775 293.784C244.718 293.809 244.478 295.949 244.74 297.313C246.167 304.76 248.381 311.94 251.722 318.757Z" fill="#DB5807"/>
<path d="M130.24 242.493C131.368 243.619 132.495 244.745 133.623 245.871C133.079 251.688 132.527 257.505 131.996 263.323C131.798 265.496 131.651 267.674 131.48 269.85C127.738 268.151 123.598 267.236 120.506 264.262C123.665 261.202 123.856 256.723 125.806 253.063C127.595 249.706 128.786 246.029 130.24 242.493Z" fill="#C54502"/>
<path d="M267.755 324.039C270.627 332.914 272.814 342.027 276.846 350.501C277.483 351.84 278.243 353.12 278.946 354.428C281.375 360.393 285.097 365.562 288.907 370.681C285.325 371.797 283.086 369 280.325 367.724C280.422 366.893 280.292 366.134 279.805 365.414C273.944 356.753 271.683 346.653 268.469 336.934C266.261 332.764 264.67 328.466 265.704 323.621C266.387 323.76 267.071 323.899 267.755 324.039Z" fill="#F9E0B6"/>
<path d="M265.704 323.613C266.625 328.05 267.547 332.488 268.468 336.926C263.185 332.747 259.329 327.319 255.447 321.923C255.107 321.451 254.488 320.806 255.224 320.108C258.718 321.277 262.211 322.445 265.704 323.613Z" fill="#D9B98B"/>
<path d="M591.825 194.409C591.088 200.504 587.81 205.387 584.113 209.964C578.576 216.821 571.381 220.192 562.455 219.527C561.074 219.424 559.676 219.555 558.285 219.578C551.891 217.436 546.552 214.042 544.006 207.391C543.555 206.213 542.749 205.916 541.586 205.92C528.224 205.966 515.259 207.894 503.378 214.447C500.573 215.994 498.135 218.206 495.528 220.113C494.302 219.884 493.752 218.996 493.392 217.923C491.688 207.512 492.141 202.691 495.531 195.1C489.785 198.861 485.751 204.039 483.883 210.065C483.452 211.605 483.335 213.249 482.358 214.602C480.476 215.387 479.912 213.865 479.3 212.713C477.799 209.883 476.234 207.074 475.287 203.986C472.828 193.008 472.876 188.613 475.531 181.06C472.837 184.572 472.142 186.255 471.301 191.156C470.968 193.095 470.86 195.092 469.92 196.888C467.803 197.912 466.735 196.308 465.679 195.046C462.55 191.306 460.366 187.048 459.108 182.326C458.817 173.663 458.072 164.944 462.371 156.351C460.323 156.935 459.117 157.96 457.805 158.772C457.371 159.076 456.903 159.295 456.368 159.337C453.03 161.818 451.168 165.497 448.461 169.395C443.974 148.894 450.86 132.444 464.064 117.652C457.527 117.923 453.237 119.641 447.781 123.985C449.414 111.099 475.634 84.3525 496.859 74.1548C493.189 81.6591 489.294 88.6038 485.174 95.4275C481.867 100.905 478.638 106.413 476.189 112.355C471.278 124.275 472.718 135.822 478.159 147.111C480.28 151.513 482.888 155.641 486.139 159.326C489.728 162.683 492.741 166.529 495.606 170.501C499.32 174.725 504.238 177.082 509.254 179.252C518.693 183.335 528.687 185.147 539.083 186.731C530.489 175.003 531.34 165.497 541.507 155.203C545.427 151.234 549.842 147.931 554.852 144.486C554.305 146.013 553.934 147.047 553.564 148.082C553.708 148.399 553.905 148.752 553.835 149.072C552.434 155.429 555.778 159.311 560.627 162.564C565.126 165.582 569.814 168.342 573.918 171.93C574.532 172.529 575.103 173.167 575.616 173.856C577.616 176.495 579.836 179.006 580.591 182.379C580.546 185.249 578.793 186.735 576.351 187.718C569.9 190.315 554.046 191.87 546.799 190.587C551.015 194.858 555.135 196.086 561.071 194.761C568.09 193.194 575.059 191.121 582.363 191.897C585.613 192.241 589.156 191.765 591.825 194.409Z" fill="#FEFEFE"/>
<path d="M556.185 119.973C556.185 121.773 556.185 123.573 556.185 125.372C555.927 125.52 555.669 125.668 555.411 125.815C550.953 118.884 544.101 117.513 536.738 116.709C528.446 115.803 522.993 111.042 520.571 102.912C518.605 96.3134 516.941 89.677 516.961 82.7274C516.982 75.36 517.321 75.0774 524.148 76.8696C530.759 78.9911 531.399 78.7204 535.621 72.6337C536.492 71.3788 536.922 69.5539 538.92 69.4116C547.337 76.9808 555.403 84.8505 557.914 96.5094C559.269 102.799 559.489 109.159 557.256 115.376C555.615 114.641 556.056 113.016 555.821 111.758C554.72 105.867 552.338 100.725 547.885 96.5629C542.652 91.6732 532.589 90.9011 526.705 95.044C525.477 95.9086 525.578 96.8661 525.932 98.0835C527.998 105.184 534.418 110.388 541.787 110.76C544.009 110.872 546.191 111.246 548.331 111.716C552.723 112.681 555.389 115.483 556.185 119.973Z" fill="#FEFEFE"/>
<path d="M488.475 60.0658C481.845 56.6148 477.794 51.2375 476.407 43.8682C475.499 36.8973 475.022 29.9687 478.895 23.5994C481.669 19.0366 485.425 17.6679 490.458 19.4141C499.315 22.487 504.391 29.5431 508.615 37.2784C512.258 43.9504 512.102 44.1043 505.663 47.8408C500.813 50.6556 496.613 54.3046 492.353 57.8849C491.19 58.8625 490.059 59.8582 488.475 60.0658Z" fill="#F6BA9E"/>
<path d="M482.13 214.365C481.958 212.709 482.815 211.275 483.126 209.724C487.473 211.679 490.858 214.869 494.076 218.274C494.559 218.887 495.043 219.5 495.527 220.114C504.939 227.089 514.073 234.372 521.823 243.248C530.515 253.202 535.545 264.642 536.065 277.947C536.086 278.473 536.024 279.002 535.954 280.547C529.338 266.723 519.048 257.24 508.557 247.927C501.102 241.216 493.105 235.192 485.071 229.216C484.798 228.772 484.525 228.327 484.251 227.882C483.14 223.44 481.419 219.094 482.13 214.365Z" fill="#4A0E02"/>
<path d="M502.858 80.9531C503.741 88.2626 501.363 94.9683 499.311 101.725C497.795 106.718 495.89 111.576 494.677 116.682C491.555 129.825 498.736 138.275 506.86 143.032C513.585 146.97 521.087 148.543 528.574 150.157C529.363 150.327 530.149 150.523 530.924 150.749C531.219 150.834 531.48 151.036 532.209 151.428C521.189 151.708 510.677 152.176 500.457 148.804C494.949 146.986 490.087 144.186 486.156 139.854C480.315 133.415 479.14 126.206 482.535 118.221C484.928 112.595 488.609 107.785 492.257 102.968C497.274 96.3456 501.514 89.3684 502.858 80.9531Z" fill="#65231A"/>
<path d="M574.358 37.4385C583.781 38.2069 592.669 41.2379 601.642 43.9137C608.328 47.2593 615.39 49.9793 621.46 55.9933C614.144 53.7735 607.838 50.794 600.902 50.2037C584.521 46.345 568.231 46.6005 552.01 51.1812C545.671 52.9711 539.286 54.5961 532.84 56.0776C545.241 46.6395 559.256 40.8291 574.358 37.4385Z" fill="#5F1B12"/>
<path d="M482.129 214.367C483.02 218.844 484.866 223.17 484.251 227.884C472.42 218.821 463.399 207.591 457.671 193.735C452.984 182.397 453.295 170.938 456.367 159.341C456.638 159.053 456.909 158.766 457.18 158.478C459.42 159.612 458.628 161.599 458.431 163.316C457.7 169.678 457.79 175.967 459.712 182.14C462.055 187.772 464.028 193.648 469.587 197.16C472.737 198.433 474.473 201.027 475.88 203.927C477.244 206.654 478.572 209.4 479.993 212.097C480.479 213.018 480.582 214.407 482.129 214.367Z" fill="#6F271E"/>
<path d="M574.964 174.122C574.525 173.618 574.087 173.113 573.648 172.609C572.674 167.879 572.747 163.203 574.39 158.612C581.673 158.716 588.799 158.351 595.729 155.429C600.005 153.627 603.058 150.807 605.787 147.334C606.003 147.573 606.219 147.812 606.434 148.051C608.204 150.481 607.388 152.664 605.66 154.625C603.666 156.888 601.438 158.933 599.314 161.074C597.861 162.539 596.886 164.173 597.066 166.323C594.679 169.442 591.524 171.599 588.126 173.459C583.801 174.935 579.481 176.516 574.964 174.122Z" fill="#C54502"/>
<path d="M556.185 119.978C553.557 113.541 548.239 111.845 541.921 111.682C531.535 111.415 527.056 103.939 524.386 96.7228C523.912 95.4418 524.606 95.0638 525.489 94.6334C536.458 89.2853 546.612 90.0279 553.266 101.777C555.663 106.01 556.655 110.63 557.255 115.379C556.899 116.913 556.542 118.445 556.185 119.978Z" fill="#050202"/>
<path d="M586.97 60.8838C580.295 58.6891 573.83 58.4491 567.049 61.1971C560.206 63.97 553.021 65.9551 545.713 67.314C544.962 67.4536 544.218 67.8711 543.252 67.2181C550.787 61.4036 558.684 56.4793 567.669 53.4569C568.218 53.2723 568.843 53.1843 569.295 52.8595C576.074 47.9872 582.196 51.4049 588.362 54.332C589.242 56.7101 588.717 58.7679 586.951 60.5427L586.97 60.8838Z" fill="#65231A"/>
<path d="M535.309 135.89C528.33 135.871 521.482 134.845 515.23 131.59C508.121 127.889 505.261 121.642 506.823 113.821C508.009 107.881 510.506 102.411 513.365 97.0122C513.218 105.241 511.16 113.62 515.27 121.426C519.53 129.517 527.92 131.882 535.309 135.89Z" fill="#65231A"/>
<path d="M574.391 158.612C574.588 163.302 574.309 167.966 573.649 172.61C568.242 168.825 562.699 165.218 557.466 161.206C552.43 157.344 551.529 153.608 553.563 148.086C558.189 154.586 564.717 157.403 572.458 157.92C573.114 157.964 573.747 158.373 574.391 158.612Z" fill="#DC5908"/>
<path d="M584.825 68.402C585.764 68.8408 586.703 69.2797 587.642 69.7185C587.002 71.7115 587.71 74.0145 586.242 75.8168C586.261 75.9503 586.272 76.0842 586.277 76.2193C578.332 73.375 570.543 75.3658 562.739 76.9761C560.143 77.5119 557.571 78.2515 554.492 78.0413C555.788 76.4276 557.41 75.6751 558.887 74.8063C562.579 72.6342 566.62 70.9437 569.989 68.3635C573.845 65.4104 577.477 65.5548 581.523 67.3557C582.572 67.8222 583.722 68.0596 584.825 68.402Z" fill="#65231A"/>
<path d="M495.607 170.505C491.819 167.316 488.634 163.615 486.139 159.329C490.133 160.766 493.506 163.586 497.88 164.249C505.66 165.429 513.08 163.852 520.47 161.769C521.892 161.368 523.301 160.921 524.817 160.832C516.231 167.555 507.368 173.408 495.607 170.505Z" fill="#65241A"/>
<path d="M586.951 60.5408C587.421 58.4707 587.891 56.4002 588.362 54.3301C592.09 54.8311 595.168 57.2113 598.813 57.9512C602.697 60.3367 606.62 62.6615 610.443 65.1421C611.662 65.9329 612.801 66.9628 613.468 68.3544L613.501 68.3002C604.651 65.7134 595.801 63.127 586.951 60.5408Z" fill="#4B0F02"/>
<path d="M538.923 69.413C537.486 71.4942 536.096 73.6097 534.605 75.6501C531.148 80.3776 528.628 80.6528 524.15 76.87C524.571 75.6369 525.217 74.5727 526.44 73.9882C530.47 72.0614 534.503 70.1377 538.551 68.249C538.82 68.1233 539.333 67.4074 539.528 68.2482C539.604 68.5717 539.14 69.0211 538.923 69.413Z" fill="#4C1003"/>
<path d="M475.267 349.357C466.746 342.619 457.85 336.416 448.652 330.645C449.223 325.039 452.029 320.204 454.017 315.09C454.931 312.74 456.598 310.723 457.104 308.187C462.268 310.564 466.643 314.167 471.2 317.458C477.736 322.179 484.061 327.187 489.978 332.686C485.652 338.754 480.89 344.437 475.267 349.357Z" fill="#4A0E02"/>
<path d="M277.569 378.941C282.001 381.18 286.986 381.524 291.639 383.036C295.335 384.237 299.183 384.973 302.967 385.899C304.394 386.248 305.667 386.707 305.478 388.565C298.844 391.64 292.022 394.026 284.621 394.308C278.754 394.798 272.887 394.815 267.02 394.301C250.998 393.921 225.76 383.52 219.576 374.323C238.809 381.445 257.904 384.285 277.569 378.941Z" fill="#3C0601"/>
<path d="M267.023 394.302C272.89 394.304 278.757 394.306 284.624 394.309C278.757 395.336 272.89 395.334 267.023 394.302Z" fill="#4C1008"/>
<path d="M588.532 172.638C591.244 170.522 593.955 168.408 596.667 166.292C597.089 164.881 598.399 164.512 599.499 163.937C601.038 163.133 602.57 162.327 603.973 161.295C608.723 157.799 609.339 156.045 607.783 150.371C607.569 149.591 607.221 148.826 607.823 148.068C612.819 150.487 615.178 155.31 618.187 159.528C619.058 160.749 619.693 162.139 620.437 163.452C620.711 163.67 620.97 163.905 621.218 164.154C622.381 166.178 622.6 168.44 622.862 170.692C623.003 171.379 623.2 172.054 623.27 172.756C622.717 178.404 621.467 183.723 616.389 187.212C615.044 187.673 614.447 189.373 612.822 189.369C609.619 191.76 605.851 191.739 602.15 191.703C596.416 191.647 590.796 190.755 585.471 188.509C582.494 187.253 580.236 185.4 580.684 181.693C581.747 177.327 584.882 174.759 588.532 172.638Z" fill="#D9B98B"/>
<path d="M628.127 36.8384C629.777 30.9954 631.988 25.458 636.489 21.1298C641.527 16.2865 650.046 16.7632 654.679 22.1756C657.305 33.5861 654.726 43.7483 647.282 52.6948C645.825 54.446 644.515 56.4506 642.118 57.1433C637.248 52.9698 633.092 47.9934 627.777 44.3267C626.382 43.3642 627.321 42.2711 627.45 41.2293C627.632 39.7602 627.897 38.3014 628.127 36.8384Z" fill="#E3702A"/>
<path d="M600.696 110.437C600.214 110.809 599.698 111.665 599.55 110.18C598.392 98.5411 601.649 88.1555 608.389 78.753C610.683 75.5531 613.159 72.4506 613.501 68.2974L613.468 68.3514C613.951 67.6428 614.434 66.934 614.918 66.2254C616.665 66.2012 617.076 67.7192 617.765 68.8158C619.235 71.1544 620.605 73.5625 622.436 75.6437C625.888 79.5664 629.186 79.7811 633.141 76.382C633.58 76.0043 634.059 75.6943 634.529 75.3668C639.022 78.0705 637.322 82.3294 636.898 86.0248C636.56 88.9711 635.349 91.8362 633.542 94.3249C631.039 95.7676 628.465 95.1939 626.143 94.1318C613.928 88.5456 604.871 96.3603 602.256 106.728C601.937 107.993 602.183 109.619 600.696 110.437Z" fill="#D9B98B"/>
<path d="M619.055 134.498C622.495 132.521 625.857 130.518 628.957 128.129C639.171 120.262 644.427 109.806 644.909 96.956C645.192 89.3937 645.103 81.8404 643.695 74.3568C643.494 73.2879 643.199 72.1218 644.056 70.4707C646.524 74.9806 647.79 79.5139 648.961 84.0375C650.678 90.6739 652.078 97.426 652.369 104.27C652.906 116.904 647.949 127.709 633.898 131.941C629.08 133.392 624.244 134.82 619.055 134.498Z" fill="#4A0E02"/>
<path d="M659.436 108.907C661.598 114.163 663.764 119.417 664.778 125.055C664.732 131.746 663.282 137.891 658.65 143.087C654.066 148.23 648.011 149.251 641.689 149.941C637.043 150.447 625.103 149.43 619.838 147.722C624.396 146.591 628.569 145.701 632.655 144.512C640.503 142.227 648.256 139.695 653.214 132.436C656.376 127.804 658.014 122.682 658.217 117.079C658.317 114.314 658.449 111.544 659.436 108.907Z" fill="#4A0E02"/>
<path d="M632.435 96.3185C634.597 105.004 628.823 114.075 619.929 115.881C618.121 116.248 616.255 116.317 614.438 116.645C611.024 117.261 607.62 117.857 604.903 120.394C603.85 121.377 602.173 122.687 602.207 119.527C602.103 115.192 604.374 112.15 608.361 111.172C610.505 110.645 612.714 110.778 614.88 110.276C620.508 108.97 624.813 106.147 627.419 100.802C628.426 98.7379 629.344 96.2076 632.435 96.3185Z" fill="#D9B98B"/>
<path d="M632.437 96.3109C630.526 97.3137 629.313 98.8315 628.414 100.838C625.307 107.773 619.534 111.329 612.254 111.501C606.41 111.639 603.663 114.467 602.209 119.518C600.112 116.755 600.926 113.505 600.697 110.431C601.398 104.65 603.375 99.4684 607.802 95.4632C612.626 91.0982 618.127 90.0377 624.164 92.4037C627.207 93.5964 630.242 94.5386 633.544 94.3211C633.174 94.9843 632.805 95.6476 632.437 96.3109Z" fill="#050202"/>
<path d="M642.115 57.1435C646.407 52.2817 650.897 47.5851 652.937 41.1583C654.689 35.6404 655.371 30.0998 654.143 24.3935C653.966 23.5698 653.899 22.7703 654.677 22.1758C662.314 30.4944 660.087 42.3529 652.875 50.8885C650.248 53.9984 647.138 56.6072 643.546 58.5889C643.07 58.1074 642.592 57.6253 642.115 57.1435Z" fill="#F38319"/>
<path d="M620.534 164.139C620.502 163.91 620.47 163.68 620.438 163.451C629.923 158.502 640.136 155.771 650.542 153.692C654.484 152.905 658.493 152.21 662.468 153.684C663.066 154.125 663.066 154.125 661.659 155.163C660.106 156.475 658.248 157.03 656.292 157.373C645.718 159.232 635.136 161.05 624.848 164.237C623.447 164.671 621.946 165.215 620.534 164.139Z" fill="#912B07"/>
<path d="M634.528 75.3647C631.508 80.8373 626.128 81.5464 622.242 76.7312C619.567 73.417 617.342 69.7384 614.916 66.2229C615.081 65.528 613.514 63.3122 616.106 64.7389C618.004 65.7841 619.782 67.0666 621.541 68.3437C625.563 71.2633 630.005 73.3838 634.528 75.3647Z" fill="#4B0F03"/>
<path d="M607.822 148.064C610.992 156.059 610.043 158.873 602.508 163.341C600.637 164.451 598.619 165.312 596.667 166.288C595.23 164.281 596.557 162.78 597.745 161.448C599.578 159.394 601.483 157.363 603.596 155.611C606.067 153.562 607.031 151.149 606.436 148.046C606.908 147.243 607.36 148.036 607.822 148.064Z" fill="#902A07"/>
<path d="M586.241 75.8082C586.989 73.8403 584.8 71.1956 587.642 69.71C594.156 72.0833 600.289 75.2019 606.018 79.2529C599.264 78.9205 592.659 77.9216 586.241 75.8082Z" fill="#4B0F02"/>
<path d="M581.306 180.953C580.516 185.224 583.512 186.759 586.616 187.897C595.177 191.035 603.938 191.523 612.821 189.363C612.379 191.079 610.731 191.956 609.982 193.459C604.088 196.826 597.972 195.939 591.823 194.406C582.221 191.645 572.758 192.664 563.304 195.301C556.03 197.33 549.508 196.437 544.447 189.371C554.307 191.515 563.567 189.49 572.824 187.828C578.256 186.853 579.259 185.763 579.847 181.653C580.139 181.014 580.565 180.654 581.306 180.953Z" fill="#4A0E03"/>
<path d="M616.389 187.215C620.086 182.992 622.05 178.035 622.617 172.485C623.305 171.396 624.424 171.129 625.578 170.914C633.414 169.45 641.156 167.49 649.083 166.5C650.347 166.342 651.585 165.895 652.663 166.965C647.278 173.535 639.944 177.337 632.536 180.953C627.344 183.486 622.204 186.253 616.389 187.215Z" fill="#DC5907"/>
<path d="M620.533 164.141C627.708 162.974 634.478 160.173 641.676 159.03C648.373 157.967 655.001 156.47 661.659 155.165C659.482 158.904 657.254 162.606 654.084 165.624C650.736 166.845 647.203 166.283 643.774 166.705C638.13 167.398 632.514 168.221 627.149 170.291C625.566 170.902 623.9 171.613 622.091 171.117C621.572 168.792 621.052 166.467 620.533 164.141Z" fill="#DC5907"/>
<path d="M622.091 171.115C632.312 166.696 643.003 165.019 654.084 165.62C653.611 166.068 653.137 166.514 652.664 166.961C644.488 168.05 636.406 169.644 628.36 171.44C626.463 171.864 624.532 172.139 622.618 172.482C622.361 172.057 621.706 171.787 622.091 171.115Z" fill="#922C07"/>
<path d="M492.621 556.583C491.023 556.814 489.424 557.044 487.825 557.274C487.043 545.41 481.11 536.38 471.863 528.83C483.787 532.111 492.745 544.283 492.621 556.583Z" fill="#E1AA66"/>
<path d="M494.077 218.274C490.032 215.931 486.671 212.71 483.127 209.724C485.22 201.953 490.727 197.067 497.24 192.922C494.257 199.023 492.712 205.303 493.309 212.076C493.492 214.159 494.473 216.132 494.077 218.274Z" fill="#F4841A"/>
<path d="M475.881 203.925C473.783 201.669 471.686 199.414 469.588 197.158C470.188 190.869 470.796 184.588 475.416 179.629C475.885 179.125 476.144 178.425 476.928 178.094C475.28 183.499 473.975 188.757 474.541 194.271C474.873 197.501 475.427 200.708 475.881 203.925Z" fill="#F4851D"/>
<path d="M459.713 182.137C455.658 176.33 457.002 169.827 457.407 163.478C457.515 161.775 458.085 160.113 457.18 158.477C458.844 156.401 461.312 155.622 463.977 154.531C459.045 163.259 459.616 172.731 459.713 182.137Z" fill="#F38721"/>
<path d="M581.306 180.957C580.82 181.191 580.334 181.424 579.847 181.657C578.219 179.144 576.592 176.631 574.965 174.118C579.615 174.799 584.111 174.06 588.532 172.636C586.178 175.458 583.166 177.705 581.306 180.957Z" fill="#0B0402"/>
<path d="M550.485 172.448C550.617 173.364 550.339 173.797 549.655 173.866C548.283 174.004 547.504 173.261 547.213 172.007C547.046 171.288 547.529 170.988 548.195 171.018C549.322 171.069 550.104 171.63 550.485 172.448Z" fill="#302F2F"/>
<path d="M556.885 175.983C556.865 176.504 556.868 177.051 556.239 176.957C555.201 176.801 554.252 176.431 554.192 175.146C554.172 174.7 554.259 174.136 554.822 174.167C555.973 174.229 556.531 175.058 556.885 175.983Z" fill="#DABB8D"/>
<path d="M542.064 171.761C542.262 173.085 541.797 173.31 541.169 173.353C540.118 173.424 539.38 173.099 539.45 171.87C539.481 171.318 539.487 170.61 540.265 170.697C541.201 170.8 541.975 171.261 542.064 171.761Z" fill="#743830"/>
<path d="M537.953 99.3216C537.96 99.8993 537.982 100.477 537.971 101.055C537.93 103.212 537.956 105.413 540.553 106.125C542.9 106.768 544.948 106.048 546.344 104.01C547.867 101.789 546.717 100.083 545.081 98.5317C544.958 98.4155 544.922 98.2084 544.62 97.5597C549.945 100.775 551.703 105.676 553.373 111.239C547.485 109.995 541.42 112.156 536.183 108.407C534.058 105.517 533.45 102.218 533.637 98.7255C533.697 97.6255 533.565 96.388 534.875 95.7924C535.805 95.7642 536.762 95.3704 537.643 96C536.964 97.1803 536.027 98.3852 537.953 99.3216Z" fill="#C44402"/>
<path d="M534.875 95.79C534.18 100.112 535.002 104.276 536.183 108.404C534.127 107.085 532.361 105.444 531.042 103.388C528.244 99.0255 529.599 96.3793 534.875 95.79Z" fill="#F1EDEB"/>
<path d="M537.953 99.3189C536.588 99.7417 535.331 100.095 535.064 97.9729C534.776 95.6841 536.456 96.2106 537.648 95.998C538.791 96.5454 540.357 96.4016 540.973 98.0382C539.941 98.4762 538.947 98.8977 537.953 99.3189Z" fill="#F9F9F8"/>
<path d="M616.906 108.843C612.409 111.068 607.893 110.172 603.366 108.951C602.586 108.74 601.883 108.825 601.966 107.533C602.481 99.4164 612.055 92.662 620.226 94.7395C619.625 95.8077 618.433 96.0809 617.538 96.7557C616.328 97.2749 615.032 97.1032 613.773 97.2396C611.805 97.453 609.718 97.5733 609.024 99.9601C608.468 101.874 610.116 104.946 612.195 106.05C613.022 106.49 613.954 106.621 614.834 106.915C615.665 107.406 617.021 107.336 616.906 108.843Z" fill="#87280A"/>
<path d="M617.772 96.0947C617.538 93.7216 619.49 95.3345 620.229 94.7402C625.476 96.7682 626.304 100.3 622.464 104.462C621.607 105.39 620.608 106.185 619.675 107.041C617.408 105.328 619.395 103.007 618.814 101.055C618.858 99.3207 617.476 97.8825 617.772 96.0947Z" fill="#FAFAFA"/>
<path d="M619.639 100.498C619.651 102.68 619.663 104.862 619.674 107.045C618.75 107.646 617.828 108.247 616.905 108.847C616.235 108.382 615.565 107.917 614.895 107.452C615.601 104.535 616.209 101.551 619.639 100.498Z" fill="#481005"/>
<path d="M619.641 100.495C617.098 102.156 616.824 105.369 614.896 107.45C612.581 107.756 610.773 106.821 609.506 104.972C608.228 103.108 607.227 100.925 608.181 98.7447C609.142 96.5502 611.539 96.5679 613.613 96.3698C614.996 96.2378 616.386 96.1859 617.773 96.0977C618.913 97.3418 619.313 98.903 619.641 100.495Z" fill="#040101"/>
</svg>
