<svg width="624" height="624" viewBox="0 0 624 624" fill="none" xmlns="http://www.w3.org/2000/svg">
<path d="M311.688 614.548C478.951 614.548 614.544 478.955 614.544 311.693C614.544 144.43 478.951 8.83679 311.688 8.83679C144.425 8.83679 8.83203 144.43 8.83203 311.693C8.83203 478.955 144.425 614.548 311.688 614.548Z" fill="#333333"/>
<path opacity="0.25" d="M29.8638 333.902C29.8638 166.639 165.457 31.0459 332.72 31.0459C413.818 31.0459 487.469 62.9223 541.832 114.828C486.286 49.9533 403.79 8.83679 311.688 8.83679C144.425 8.83679 8.83203 144.43 8.83203 311.693C8.83203 397.858 44.8161 475.617 102.575 530.766C57.2469 477.824 29.8638 409.062 29.8638 333.902Z" fill="white"/>
<path opacity="0.25" d="M593.513 289.481C593.513 456.744 457.92 592.337 290.657 592.337C209.559 592.337 135.908 560.461 81.5449 508.555C137.091 573.43 219.587 614.547 311.689 614.547C478.952 614.547 614.545 478.954 614.545 311.691C614.545 225.526 578.561 147.767 520.801 92.6177C566.13 145.559 593.513 214.321 593.513 289.481Z" fill="black"/>
<path d="M311.689 623.378C269.615 623.378 228.795 615.136 190.363 598.88C153.246 583.181 119.914 560.708 91.2917 532.086C62.6697 503.464 40.1968 470.132 24.4978 433.015C8.24214 394.583 0 353.763 0 311.689C0 269.615 8.24234 228.795 24.4978 190.363C40.1968 153.246 62.6697 119.914 91.2917 91.2917C119.914 62.6697 153.246 40.1968 190.363 24.4978C228.795 8.24234 269.615 0 311.689 0C353.763 0 394.583 8.24234 433.015 24.4978C470.132 40.1968 503.464 62.6695 532.086 91.2917C560.708 119.914 583.181 153.246 598.88 190.363C615.136 228.795 623.378 269.615 623.378 311.689C623.378 353.763 615.136 394.583 598.88 433.015C583.181 470.132 560.708 503.464 532.086 532.086C503.464 560.708 470.132 583.181 433.015 598.88C394.583 615.136 353.763 623.378 311.689 623.378ZM311.689 17.6665C149.565 17.6665 17.6665 149.565 17.6665 311.689C17.6665 473.814 149.565 605.711 311.689 605.711C473.814 605.711 605.711 473.814 605.711 311.689C605.711 149.565 473.814 17.6665 311.689 17.6665Z" fill="black"/>
<path d="M311.689 557.053C447.195 557.053 557.045 447.203 557.045 311.697C557.045 176.191 447.195 66.342 311.689 66.342C176.183 66.342 66.334 176.191 66.334 311.697C66.334 447.203 176.183 557.053 311.689 557.053Z" fill="#B3B3B3"/>
<path d="M311.687 520.68C283.458 520.68 256.093 515.16 230.352 504.272C205.47 493.748 183.117 478.675 163.912 459.47C144.708 440.265 129.634 417.912 119.11 393.031C108.222 367.289 102.702 339.924 102.702 311.696C102.702 283.467 108.223 256.102 119.11 230.36C129.634 205.479 144.708 183.125 163.913 163.921C183.117 144.716 205.471 129.643 230.352 119.119C256.093 108.231 283.458 102.711 311.687 102.711C339.916 102.711 367.281 108.231 393.022 119.119C417.903 129.643 440.257 144.716 459.462 163.921C478.666 183.126 493.74 205.479 504.264 230.361C515.152 256.102 520.672 283.467 520.672 311.696C520.672 339.925 515.152 367.29 504.264 393.031C493.74 417.912 478.666 440.266 459.462 459.47C440.257 478.675 417.903 493.749 393.022 504.273C367.281 515.16 339.916 520.68 311.687 520.68Z" fill="#CCCCCC"/>
<path d="M311.69 526.569C282.669 526.569 254.532 520.892 228.061 509.695C202.478 498.875 179.495 483.377 159.752 463.634C140.008 443.89 124.511 420.908 113.69 395.324C102.493 368.853 96.8164 340.716 96.8164 311.695C96.8164 282.674 102.493 254.537 113.69 228.066C124.511 202.482 140.008 179.5 159.752 159.757C179.495 140.013 202.477 124.516 228.061 113.695C254.532 102.498 282.669 96.8215 311.69 96.8215C340.711 96.8215 368.848 102.498 395.319 113.695C420.903 124.516 443.886 140.014 463.629 159.757C483.372 179.5 498.87 202.482 509.691 228.066C520.887 254.537 526.564 282.674 526.564 311.695C526.564 340.716 520.887 368.853 509.691 395.324C498.87 420.908 483.372 443.89 463.628 463.634C443.885 483.377 420.903 498.874 395.319 509.696C368.848 520.892 340.711 526.569 311.69 526.569ZM311.69 108.599C284.254 108.599 257.661 113.963 232.649 124.542C208.469 134.769 186.745 149.419 168.08 168.085C149.414 186.75 134.765 208.474 124.537 232.654C113.958 257.665 108.594 284.259 108.594 311.695C108.594 339.131 113.958 365.724 124.537 390.736C134.764 414.916 149.414 436.64 168.08 455.306C186.745 473.971 208.469 488.621 232.649 498.848C257.661 509.427 284.254 514.791 311.69 514.791C339.127 514.791 365.72 509.427 390.732 498.848C414.911 488.621 436.636 473.971 455.301 455.306C473.967 436.64 488.617 414.916 498.844 390.736C509.422 365.724 514.786 339.131 514.786 311.695C514.786 284.259 509.422 257.666 498.844 232.654C488.616 208.474 473.966 186.75 455.301 168.085C436.636 149.419 414.911 134.769 390.731 124.542C365.72 113.963 339.127 108.599 311.69 108.599Z" fill="black"/>
<path d="M311.69 562.936C277.775 562.936 244.872 556.293 213.893 543.19C183.974 530.535 157.106 512.42 134.034 489.348C110.962 466.277 92.8473 439.408 80.1927 409.489C67.09 378.511 60.4463 345.607 60.4463 311.692C60.4463 277.777 67.09 244.873 80.1927 213.894C92.8473 183.976 110.962 157.107 134.034 134.036C157.106 110.964 183.974 92.8488 213.893 80.1942C244.871 67.0915 277.775 60.4478 311.69 60.4478C345.605 60.4478 378.509 67.0915 409.488 80.1942C439.407 92.8488 466.275 110.964 489.347 134.036C512.419 157.107 530.534 183.976 543.188 213.894C556.291 244.873 562.935 277.777 562.935 311.692C562.935 345.607 556.291 378.511 543.188 409.489C530.534 439.408 512.419 466.277 489.347 489.348C466.275 512.42 439.407 530.535 409.488 543.19C378.509 556.293 345.605 562.936 311.69 562.936ZM311.69 72.2257C179.648 72.2257 72.2241 179.65 72.2241 311.692C72.2241 443.734 179.648 551.159 311.69 551.159C443.733 551.159 551.157 443.734 551.157 311.692C551.157 179.65 443.733 72.2257 311.69 72.2257Z" fill="black"/>
<path d="M259.734 250.113C258.597 252.952 256.872 255.583 254.601 257.855C252.329 260.126 249.698 261.853 246.858 262.99C246.28 262.926 245.698 262.815 245.111 262.658L234.98 259.943C234.962 259.938 234.943 259.934 234.925 259.928L234.439 259.797L157.038 239.057C156.449 238.9 155.886 238.703 155.352 238.468C153.465 236.064 152.052 233.255 151.221 230.155C150.39 227.052 150.211 223.911 150.643 220.883C150.989 220.415 151.376 219.965 151.807 219.535L216.281 155.061C216.711 154.63 217.162 154.242 217.629 153.897C220.657 153.465 223.799 153.644 226.899 154.475C230 155.306 232.81 156.723 235.217 158.61C235.449 159.144 235.647 159.705 235.804 160.292L238.531 170.471C238.531 170.473 238.533 170.477 238.533 170.479L256.673 238.181L259.402 248.367C259.559 248.954 259.67 249.536 259.734 250.113Z" fill="#333333"/>
<path d="M228.312 170.473L246.453 238.174C249.079 247.976 243.096 257.158 234.438 259.792L234.924 259.923C248.127 263.461 260.21 251.378 256.672 238.174L238.531 170.473C235.796 160.264 225.309 155.307 216.225 158.05C221.802 159.707 226.591 164.051 228.312 170.473Z" fill="#1A1A1A"/>
<path d="M260.558 235.619L243.179 170.757C241.855 165.817 239.048 161.616 235.217 158.612C232.81 156.724 230 155.308 226.899 154.477C223.799 153.646 220.658 153.467 217.629 153.899C212.809 154.586 208.277 156.82 204.662 160.436L157.179 207.917C153.563 211.533 151.33 216.063 150.643 220.884C150.211 223.913 150.39 227.054 151.221 230.156C152.052 233.257 153.465 236.066 155.352 238.47C158.357 242.304 162.56 245.112 167.5 246.435L232.362 263.815C234.38 264.356 236.415 264.62 238.426 264.62C241.333 264.62 244.188 264.066 246.858 262.992C249.698 261.854 252.33 260.127 254.601 257.856C256.872 255.585 258.597 252.953 259.735 250.115C261.552 245.598 261.882 240.557 260.558 235.619ZM241.844 255.345C239.536 255.936 237.072 255.932 234.648 255.284L169.786 237.903C164.831 236.576 161.081 232.825 159.753 227.871C158.425 222.916 159.797 217.791 163.426 214.165L210.907 166.682C213.623 163.965 217.18 162.514 220.877 162.514C221.948 162.514 223.032 162.636 224.109 162.885C224.277 162.924 224.445 162.966 224.613 163.01C229.567 164.338 233.32 168.089 234.648 173.043L252.027 237.905C253.354 242.86 251.982 247.984 248.353 251.611C246.501 253.463 244.258 254.728 241.844 255.345Z" fill="black"/>
<path d="M469.488 405.748C469.142 406.215 468.755 406.666 468.324 407.096L403.85 471.57C403.42 472.001 402.969 472.388 402.5 472.735C401.444 472.887 400.373 472.963 399.294 472.963C397.283 472.963 395.248 472.697 393.23 472.156C390.129 471.325 387.321 469.91 384.914 468.025C384.682 467.491 384.484 466.93 384.327 466.34L363.588 388.938L363.456 388.452C363.449 388.421 363.44 388.391 363.432 388.36L360.727 378.266C360.57 377.681 360.459 377.097 360.395 376.521V376.519C361.532 373.679 363.259 371.047 365.53 368.776C367.802 366.505 370.435 364.778 373.273 363.643C373.849 363.707 374.433 363.818 375.018 363.975L385.204 366.704L452.906 384.844C452.908 384.844 452.912 384.846 452.914 384.846L463.092 387.573C463.68 387.73 464.241 387.928 464.775 388.161C466.662 390.567 468.079 393.378 468.91 396.478C469.741 399.578 469.92 402.72 469.488 405.748Z" fill="#333333"/>
<path d="M452.906 395.064L385.205 376.924C375.403 374.297 366.221 380.28 363.587 388.939L363.457 388.453C359.919 375.249 372.001 363.167 385.205 366.705L452.906 384.845C463.115 387.581 468.072 398.067 465.329 407.152C463.673 401.574 459.329 396.785 452.906 395.064Z" fill="#1A1A1A"/>
<path d="M468.911 396.481C468.08 393.38 466.664 390.569 464.776 388.163C461.772 384.331 457.571 381.525 452.631 380.2L387.769 362.822C382.833 361.498 377.793 361.828 373.275 363.645C370.436 364.781 367.803 366.507 365.532 368.779C363.26 371.05 361.534 373.682 360.396 376.522V376.524C358.579 381.04 358.25 386.08 359.573 391.018L376.951 455.88C378.276 460.818 381.084 465.021 384.916 468.027C387.322 469.913 390.131 471.327 393.232 472.158C395.25 472.699 397.285 472.965 399.296 472.965C400.375 472.965 401.446 472.889 402.502 472.738C407.324 472.051 411.855 469.817 415.471 466.201L462.952 418.718C466.568 415.102 468.802 410.57 469.489 405.75C469.921 402.722 469.742 399.581 468.911 396.481ZM395.518 463.627C390.563 462.299 386.813 458.549 385.485 453.594L368.106 388.732C367.456 386.308 367.452 383.844 368.043 381.536C368.66 379.124 369.923 376.88 371.777 375.026C374.493 372.308 378.05 370.857 381.747 370.857C382.984 370.857 384.24 371.021 385.483 371.353L450.345 388.734C455.299 390.062 459.05 393.812 460.378 398.767C460.422 398.935 460.464 399.105 460.505 399.273C461.609 404.068 460.21 408.969 456.707 412.473L409.223 459.954C405.597 463.582 400.474 464.954 395.518 463.627Z" fill="black"/>
<path d="M233.246 313.98C233.246 317.19 232.605 320.27 231.405 323.082V323.084C230.95 323.446 230.459 323.78 229.933 324.085L220.861 329.324C220.84 329.335 220.82 329.348 220.8 329.359L220.364 329.61L150.968 369.675C150.442 369.98 149.907 370.237 149.366 370.449H149.364C146.328 370.083 143.34 369.097 140.559 367.492C137.78 365.888 135.431 363.792 133.595 361.347C133.508 360.771 133.464 360.178 133.464 359.57V268.39C133.464 267.78 133.508 267.187 133.595 266.611C135.432 264.166 137.78 262.07 140.559 260.466C143.338 258.861 146.328 257.875 149.364 257.509H149.366C149.907 257.721 150.442 257.978 150.968 258.283L220.8 298.601L229.933 303.873C230.459 304.176 230.949 304.51 231.403 304.874C232.605 307.689 233.246 310.771 233.246 313.98Z" fill="#333333"/>
<path d="M152.872 270.783L213.571 305.828C222.359 310.902 224.621 321.625 220.361 329.61L220.797 329.358C232.635 322.523 232.635 305.436 220.797 298.601L160.098 263.557C150.945 258.272 140.024 262.182 135.54 270.546C140.655 267.773 147.113 267.458 152.872 270.783Z" fill="#1A1A1A"/>
<path d="M231.399 304.88C229.49 300.402 226.159 296.603 221.732 294.047L163.577 260.471C159.151 257.915 154.196 256.929 149.362 257.515H149.36C146.324 257.88 143.334 258.867 140.555 260.471C137.776 262.076 135.429 264.172 133.591 266.617C130.668 270.512 129.043 275.296 129.043 280.41V347.56C129.043 352.673 130.668 357.458 133.591 361.352C135.427 363.798 137.776 365.893 140.555 367.498C143.336 369.103 146.324 370.089 149.36 370.455H149.362C150.261 370.566 151.162 370.619 152.067 370.619C156.021 370.619 159.975 369.58 163.577 367.498L221.732 333.924C226.159 331.367 229.49 327.57 231.401 323.09V323.088C232.602 320.276 233.242 317.196 233.242 313.986C233.242 310.776 232.602 307.694 231.399 304.88ZM144.972 359.849C140.529 357.284 137.877 352.689 137.877 347.559V280.41C137.877 275.453 140.352 270.999 144.526 268.39C144.673 268.299 144.821 268.209 144.972 268.122C147.194 266.839 149.63 266.198 152.067 266.198C154.503 266.198 156.941 266.839 159.162 268.122L217.315 301.696C221.758 304.261 224.41 308.855 224.41 313.985C224.41 316.606 223.717 319.086 222.447 321.228C221.233 323.28 219.488 325.017 217.315 326.273L159.162 359.849C154.719 362.412 149.415 362.414 144.972 359.849Z" fill="black"/>
<path d="M489.91 268.395V359.576C489.91 360.184 489.866 360.776 489.779 361.352C487.944 363.797 485.595 365.893 482.815 367.498C480.036 369.103 477.047 370.089 474.01 370.455H474.009C473.467 370.242 472.932 369.986 472.406 369.681L403.01 329.616C403.01 329.616 403.01 329.614 403.008 329.614L402.443 329.287C402.434 329.283 402.425 329.278 402.417 329.272L393.443 324.091C392.917 323.786 392.425 323.452 391.969 323.088V323.086C390.769 320.273 390.128 317.193 390.128 313.986C390.128 310.776 390.769 307.696 391.969 304.883V304.882C392.425 304.518 392.916 304.184 393.443 303.879L402.574 298.607L472.406 258.289C472.932 257.984 473.468 257.727 474.009 257.515H474.011C477.047 257.881 480.036 258.867 482.816 260.472C485.595 262.076 487.942 264.172 489.779 266.617C489.866 267.193 489.91 267.786 489.91 268.395Z" fill="#333333"/>
<path d="M470.502 270.789L409.803 305.834C401.015 310.907 398.753 321.63 403.013 329.616L402.577 329.364C390.739 322.529 390.739 305.442 402.577 298.607L463.276 263.563C472.429 258.278 483.35 262.188 487.834 270.552C482.719 267.779 476.26 267.464 470.502 270.789Z" fill="#1A1A1A"/>
<path d="M489.779 266.619C487.942 264.174 485.595 262.079 482.815 260.474C480.036 258.869 477.047 257.883 474.01 257.517H474.008C469.174 256.932 464.219 257.918 459.793 260.474L401.638 294.05C397.21 296.605 393.88 300.404 391.969 304.884V304.886C390.769 307.698 390.128 310.778 390.128 313.988C390.128 317.196 390.769 320.276 391.969 323.088V323.09C393.878 327.57 397.21 331.369 401.638 333.926L459.793 367.5C463.398 369.581 467.349 370.623 471.303 370.621C472.208 370.621 473.109 370.568 474.008 370.457H474.01C477.046 370.091 480.036 369.105 482.815 367.5C485.594 365.895 487.943 363.799 489.779 361.354C492.702 357.46 494.327 352.675 494.327 347.562V280.412C494.328 275.299 492.702 270.514 489.779 266.619ZM485.493 347.562C485.493 352.692 482.841 357.286 478.398 359.852C473.955 362.417 468.652 362.417 464.208 359.852L406.055 326.276C403.882 325.02 402.137 323.282 400.924 321.231C399.653 319.089 398.961 316.609 398.961 313.988C398.961 311.423 399.624 308.993 400.842 306.882C402.059 304.772 403.834 302.98 406.055 301.699L464.208 268.125C466.43 266.841 468.868 266.201 471.303 266.201C473.741 266.201 476.179 266.841 478.398 268.125C478.55 268.211 478.697 268.302 478.845 268.392C483.018 271.002 485.493 275.456 485.493 280.412L485.493 347.562Z" fill="black"/>
<path d="M262.98 376.531V376.533C262.915 377.109 262.804 377.692 262.647 378.278L259.942 388.372C259.934 388.403 259.925 388.433 259.918 388.464L259.787 388.95L239.047 466.352C238.89 466.941 238.692 467.503 238.46 468.036C236.053 469.922 233.245 471.336 230.144 472.167C228.126 472.708 226.091 472.974 224.082 472.974C223.003 472.974 221.932 472.898 220.874 472.747C220.405 472.4 219.954 472.012 219.524 471.582L155.05 407.108C154.62 406.677 154.232 406.227 153.886 405.76C153.454 402.731 153.634 399.59 154.465 396.489C155.296 393.389 156.712 390.578 158.599 388.172C159.133 387.94 159.694 387.742 160.282 387.585L170.46 384.857C170.462 384.857 170.466 384.855 170.468 384.855L238.17 366.716L248.356 363.986C248.942 363.829 249.525 363.719 250.101 363.654H250.103C252.941 364.792 255.573 366.516 257.844 368.788C260.116 371.059 261.842 373.691 262.98 376.531Z" fill="#333333"/>
<path d="M170.467 395.076L238.168 376.935C247.97 374.309 257.152 380.292 259.786 388.95L259.917 388.464C263.455 375.26 251.372 363.178 238.168 366.716L170.467 384.856C160.258 387.592 155.301 398.079 158.044 407.163C159.701 401.586 164.045 396.797 170.467 395.076Z" fill="#1A1A1A"/>
<path d="M262.981 376.536V376.534C261.843 373.694 260.117 371.063 257.845 368.791C255.574 366.52 252.942 364.795 250.104 363.658H250.102C247.432 362.583 244.579 362.029 241.672 362.029C239.661 362.029 237.626 362.293 235.608 362.834L170.746 380.213C165.806 381.537 161.605 384.344 158.6 388.176C156.713 390.582 155.297 393.393 154.466 396.493C153.635 399.594 153.455 402.735 153.887 405.764C154.574 410.583 156.809 415.115 160.425 418.731L207.908 466.214C211.524 469.83 216.053 472.064 220.875 472.751C221.933 472.902 223.004 472.978 224.083 472.978C226.092 472.978 228.127 472.712 230.145 472.171C233.246 471.34 236.054 469.926 238.461 468.04C242.292 465.034 245.101 460.831 246.425 455.893L263.804 391.031C265.127 386.093 264.798 381.053 262.981 376.536ZM237.892 453.606C236.565 458.561 232.814 462.312 227.86 463.639C222.905 464.967 217.78 463.595 214.154 459.966L166.671 412.485C163.168 408.982 161.768 404.081 162.872 399.285C162.913 399.117 162.955 398.947 163 398.779C164.327 393.825 168.078 390.074 173.032 388.746L237.894 371.366C242.849 370.038 247.972 371.41 251.6 375.039C253.454 376.893 254.719 379.137 255.336 381.55C255.925 383.858 255.923 386.322 255.273 388.745L237.892 453.606Z" fill="black"/>
<path d="M472.153 230.155C471.322 233.255 469.907 236.064 468.022 238.471C467.488 238.703 466.927 238.901 466.338 239.058L388.935 259.798L388.449 259.929C388.418 259.936 388.388 259.945 388.357 259.953L378.263 262.658C377.678 262.815 377.094 262.926 376.518 262.991H376.516C373.676 261.853 371.044 260.126 368.773 257.855C366.502 255.584 364.777 252.952 363.64 250.114V250.112C363.704 249.536 363.815 248.952 363.972 248.367L366.701 238.181L384.841 170.479C384.841 170.477 384.843 170.473 384.843 170.471L387.57 160.292C387.727 159.705 387.925 159.144 388.158 158.61C390.564 156.723 393.375 155.306 396.475 154.475C399.576 153.644 402.719 153.465 405.745 153.897C406.212 154.242 406.663 154.63 407.093 155.061L471.568 219.535C471.998 219.965 472.386 220.416 472.731 220.883C473.163 223.912 472.984 227.053 472.153 230.155Z" fill="#333333"/>
<path d="M395.062 170.473L376.921 238.174C374.295 247.976 380.278 257.158 388.936 259.792L388.45 259.923C375.246 263.461 363.164 251.378 366.702 238.174L384.842 170.473C387.578 160.264 398.065 155.307 407.149 158.05C401.571 159.707 396.782 164.051 395.062 170.473Z" fill="#1A1A1A"/>
<path d="M472.731 220.884C472.044 216.063 469.812 211.533 466.196 207.917L418.713 160.436C415.097 156.82 410.567 154.586 405.746 153.899C402.719 153.467 399.576 153.646 396.475 154.477C393.375 155.308 390.564 156.724 388.158 158.612C384.326 161.616 381.519 165.817 380.195 170.757L362.816 235.619C361.493 240.557 361.823 245.597 363.64 250.113V250.115C364.778 252.954 366.502 255.585 368.774 257.856C371.045 260.128 373.677 261.855 376.517 262.992H376.519C379.189 264.067 382.042 264.621 384.949 264.621C386.96 264.621 388.995 264.357 391.013 263.816L455.875 246.435C460.813 245.113 465.016 242.304 468.023 238.472C469.908 236.066 471.323 233.257 472.154 230.157C472.984 227.054 473.163 223.913 472.731 220.884ZM463.622 227.87C462.294 232.825 458.544 236.575 453.589 237.903L388.727 255.284C386.304 255.934 383.841 255.936 381.532 255.347C379.119 254.73 376.875 253.465 375.021 251.611C372.303 248.895 370.851 245.338 370.851 241.643C370.851 240.404 371.014 239.15 371.348 237.905L388.729 173.043C390.057 168.089 393.807 164.338 398.762 163.01C398.93 162.966 399.098 162.924 399.266 162.885C400.342 162.636 401.426 162.514 402.497 162.514C406.194 162.514 409.751 163.965 412.468 166.682L459.949 214.165C463.577 217.791 464.949 222.916 463.622 227.87Z" fill="black"/>
<path d="M370.453 474.015C370.086 477.049 369.1 480.037 367.495 482.816C365.888 485.595 363.794 487.946 361.347 489.78C360.773 489.867 360.18 489.911 359.573 489.911H268.392C267.785 489.911 267.192 489.867 266.616 489.78C264.169 487.944 262.073 485.595 260.468 482.816C258.863 480.037 257.877 477.047 257.512 474.011V474.009C257.724 473.468 257.981 472.932 258.286 472.406L298.604 402.575L303.876 393.441C304.179 392.915 304.513 392.426 304.877 391.971C307.691 390.769 310.773 390.128 313.983 390.128C317.192 390.128 320.272 390.769 323.085 391.969H323.087C323.449 392.424 323.783 392.915 324.088 393.441L329.327 402.514C329.338 402.534 329.351 402.554 329.362 402.575L329.613 403.01L369.678 472.406C369.982 472.934 370.241 473.472 370.453 474.015Z" fill="#333333"/>
<path d="M270.786 470.498L305.83 409.799C310.904 401.01 321.627 398.748 329.613 403.008L329.361 402.573C322.526 390.734 305.439 390.734 298.604 402.573L263.56 463.272C258.275 472.425 262.185 483.346 270.548 487.829C267.776 482.714 267.461 476.256 270.786 470.498Z" fill="#1A1A1A"/>
<path d="M367.494 459.79L333.92 401.635C331.363 397.208 327.566 393.877 323.086 391.966H323.084C320.271 390.766 317.191 390.125 313.982 390.125C310.772 390.125 307.69 390.766 304.876 391.968C300.398 393.877 296.599 397.208 294.044 401.635L260.468 459.79C257.912 464.216 256.926 469.171 257.511 474.005V474.007C257.877 477.043 258.863 480.033 260.468 482.812C262.073 485.592 264.168 487.941 266.615 489.776C270.51 492.699 275.295 494.323 280.406 494.323H347.556C352.667 494.323 357.452 492.699 361.347 489.776C363.794 487.942 365.888 485.592 367.494 482.812C369.099 480.033 370.085 477.045 370.453 474.011C371.038 469.175 370.052 464.218 367.494 459.79ZM359.845 478.395C357.28 482.838 352.686 485.49 347.556 485.49H280.406C275.451 485.49 270.999 483.017 268.388 478.846C268.297 478.698 268.207 478.547 268.118 478.395C265.553 473.952 265.553 468.648 268.118 464.205L301.692 406.052C304.257 401.609 308.852 398.957 313.982 398.957C316.602 398.957 319.082 399.65 321.224 400.92C323.276 402.134 325.014 403.879 326.269 406.052L359.845 464.205C362.41 468.648 362.41 473.952 359.845 478.395Z" fill="black"/>
<path d="M370.453 149.365C370.241 149.908 369.982 150.446 369.678 150.974L329.613 220.369L329.362 220.805C329.35 220.825 329.338 220.846 329.327 220.866L324.088 229.938C323.783 230.465 323.449 230.956 323.087 231.41H323.085C320.272 232.61 317.192 233.251 313.983 233.251C310.773 233.251 307.691 232.61 304.877 231.408C304.513 230.954 304.179 230.465 303.876 229.938L298.604 220.805L258.286 150.974C257.981 150.447 257.724 149.912 257.512 149.371V149.369C257.877 146.333 258.863 143.343 260.468 140.564C262.073 137.785 264.169 135.438 266.614 133.6C267.19 133.513 267.783 133.469 268.392 133.469H359.573C360.181 133.469 360.773 133.513 361.349 133.6C363.794 135.436 365.89 137.785 367.495 140.564C369.1 143.344 370.086 146.331 370.453 149.365Z" fill="#333333"/>
<path d="M270.786 152.882L305.83 213.581C310.904 222.37 321.627 224.632 329.613 220.372L329.361 220.807C322.526 232.645 305.439 232.645 298.604 220.807L263.56 160.108C258.275 150.955 262.185 140.034 270.548 135.55C267.776 140.666 267.461 147.124 270.786 152.882Z" fill="#1A1A1A"/>
<path d="M370.453 149.368C370.086 146.334 369.099 143.346 367.495 140.567C365.89 137.787 363.794 135.438 361.349 133.603C357.454 130.679 352.67 129.054 347.556 129.054H280.406C275.293 129.054 270.508 130.679 266.614 133.603C264.168 135.44 262.073 137.787 260.468 140.567C258.863 143.346 257.877 146.335 257.511 149.371V149.373C256.926 154.208 257.912 159.162 260.468 163.589L294.044 221.744C296.599 226.17 300.398 229.502 304.876 231.411C307.69 232.613 310.772 233.254 313.982 233.254C317.191 233.254 320.272 232.613 323.084 231.413H323.086C327.566 229.502 331.363 226.17 333.92 221.744L367.494 163.589C370.052 159.161 371.038 154.204 370.453 149.368ZM359.846 159.174L326.27 217.327C325.014 219.5 323.276 221.245 321.225 222.458C319.083 223.729 316.603 224.421 313.982 224.421C308.852 224.421 304.258 221.77 301.693 217.327L268.119 159.174C265.554 154.731 265.554 149.427 268.119 144.984C268.207 144.832 268.298 144.681 268.388 144.533C271 140.361 275.452 137.889 280.406 137.889H347.556C352.686 137.889 357.281 140.541 359.846 144.984C362.411 149.427 362.411 154.731 359.846 159.174Z" fill="black"/>
<path d="M311.691 338.985C326.768 338.985 338.99 326.762 338.99 311.686C338.99 296.609 326.768 284.386 311.691 284.386C296.614 284.386 284.392 296.609 284.392 311.686C284.392 326.762 296.614 338.985 311.691 338.985Z" fill="#1A1A1A"/>
<path d="M291.975 319.269C291.975 304.192 304.197 291.97 319.274 291.97C324.873 291.97 330.078 293.657 334.411 296.549C329.516 289.217 321.168 284.386 311.691 284.386C296.614 284.386 284.392 296.609 284.392 311.686C284.392 321.163 289.222 329.511 296.554 334.405C293.662 330.074 291.975 324.869 291.975 319.269Z" fill="black"/>
<path d="M311.69 279.969C294.202 279.969 279.974 294.198 279.974 311.686C279.974 329.173 294.202 343.402 311.69 343.402C329.178 343.402 343.406 329.173 343.406 311.686C343.406 294.198 329.178 279.969 311.69 279.969ZM311.69 334.568C303.578 334.568 296.437 330.324 292.372 323.94C290.115 320.394 288.808 316.19 288.808 311.686C288.808 299.067 299.072 288.804 311.69 288.804C316.194 288.804 320.399 290.111 323.944 292.368C330.328 296.432 334.572 303.573 334.572 311.686C334.572 324.304 324.308 334.568 311.69 334.568Z" fill="black"/>
</svg>
