<svg width="612" height="726" viewBox="0 0 612 726" fill="none" xmlns="http://www.w3.org/2000/svg">
<path d="M518.449 524.453C552.119 542.807 581.015 572.433 592.105 609.855C595.215 620.35 596.561 631.438 598.366 642.22L608.204 703.845C609.398 711.043 610.256 718.405 611.742 725.542L469.266 725.651C474.438 716.269 480.155 707.37 484.889 697.711C485.72 696.045 486.537 694.373 487.339 692.693C488.142 691.014 488.93 689.329 489.703 687.635C490.477 685.943 491.237 684.244 491.982 682.538C492.726 680.833 493.457 679.121 494.173 677.404C494.889 675.686 495.59 673.962 496.277 672.232C496.964 670.502 497.636 668.767 498.293 667.026C498.951 665.285 499.593 663.538 500.221 661.786C500.849 660.034 501.461 658.276 502.059 656.514C502.656 654.751 503.24 652.984 503.808 651.212C504.376 649.439 504.928 647.662 505.466 645.881C506.004 644.099 506.527 642.313 507.034 640.522C507.541 638.732 508.034 636.937 508.51 635.137C508.988 633.338 509.45 631.536 509.896 629.729C510.342 627.922 510.773 626.112 511.189 624.298C511.604 622.484 512.005 620.666 512.39 618.846C512.775 617.025 513.144 615.201 513.498 613.373C513.851 611.546 514.189 609.716 514.513 607.884C514.835 606.051 515.143 604.215 515.435 602.377C515.727 600.539 516.003 598.699 516.263 596.856C516.524 595.013 516.769 593.168 516.998 591.321C517.227 589.474 517.441 587.625 517.638 585.775C517.836 583.924 518.018 582.072 518.185 580.218C518.351 578.365 518.502 576.51 518.637 574.653C518.772 572.797 518.892 570.94 518.994 569.082C519.098 567.223 519.186 565.364 519.257 563.504C519.329 561.645 519.386 559.785 519.426 557.924C519.467 556.063 519.491 554.202 519.5 552.341C519.508 550.481 519.501 548.619 519.479 546.758C519.456 544.897 519.417 543.037 519.363 541.176C519.309 539.316 519.239 537.456 519.152 535.597C519.067 533.738 518.965 531.879 518.848 530.022C518.73 528.165 518.597 526.308 518.449 524.453Z" fill="#C10F2A"/>
<path d="M94.5151 522.903C94.5558 523.955 94.4409 523.455 94.8499 524.406C96.9565 524.667 155.116 499.998 163.511 496.758C168.157 505.117 171.947 513.791 177.071 521.908C196.561 552.79 225.739 576.081 261.07 586.133C281.402 591.918 301.497 593.036 322.472 591.731C344.956 589.048 364.916 583.326 384.623 571.883C389.353 569.137 393.781 565.854 398.417 562.948C397.581 573.535 396.487 584.095 395.136 594.628C393.785 605.162 392.177 615.656 390.315 626.11C388.451 636.565 386.335 646.969 383.964 657.321C381.593 667.672 378.971 677.96 376.099 688.184C373.762 696.277 371.188 704.293 368.377 712.233C366.811 716.63 364.816 721.059 363.5 725.516L203.894 725.443C179.185 725.443 154.449 725.741 129.744 725.435C115.246 725.907 100.612 725.452 86.0973 725.458L0 725.536L12.1683 652.902C14.7525 637.508 16.7527 621.784 21.2955 606.812C30.0628 577.918 50.1985 552.539 75.0278 535.701C78.6474 533.252 82.3907 531.01 86.2573 528.974C88.5583 527.773 91.2063 526.723 93.37 525.319C94.4401 524.625 94.3148 524.055 94.5151 522.903Z" fill="#E42434"/>
<path d="M322.474 591.728C344.957 589.045 364.918 583.323 384.624 571.88C389.354 569.134 393.782 565.851 398.419 562.945C397.583 573.532 396.489 584.092 395.138 594.625C393.786 605.159 392.179 615.653 390.316 626.108C388.453 636.562 386.336 646.966 383.966 657.318C381.595 667.669 378.973 677.957 376.101 688.181C373.764 696.274 371.19 704.29 368.378 712.231C366.812 716.627 364.817 721.056 363.501 725.513L203.896 725.44C179.187 725.44 154.451 725.738 129.745 725.433C124.015 724.147 110.253 725.42 103.203 724.927C108.863 720.8 115.765 717.835 121.976 714.566C132.979 708.78 143.939 702.913 154.856 696.965C192.932 676.223 230.261 654.213 266.843 630.935C281.002 621.828 295.133 612.742 308.758 602.842C312.563 600.077 320.071 595.517 322.474 591.728Z" fill="#C10F2A"/>
<path d="M94.5195 522.9C94.8144 513.671 95.3155 504.554 96.7044 495.417C98.8673 481.18 102.922 467.119 107.049 453.352C110.369 442.281 113.785 431.184 117.756 420.328C121.082 411.233 125.124 402.402 128.371 393.283C132.018 383.038 134.349 372.473 135.966 361.731C138.933 342.024 139.372 320.701 137.798 300.845C137.263 294.089 136.256 287.329 135.482 280.595C134.164 268.863 132.962 257.119 131.876 245.363C130.572 230.215 129.523 215.018 129.85 199.805C131.075 142.913 148.345 85.1801 190.878 45.352C191.893 44.406 192.919 43.4728 193.957 42.552C194.995 41.6315 196.043 40.7238 197.103 39.8289C198.163 38.9339 199.234 38.0526 200.316 37.184C201.398 36.3154 202.49 35.4608 203.593 34.6193C204.696 33.7778 205.809 32.95 206.932 32.136C208.055 31.3221 209.188 30.5217 210.331 29.7357C211.474 28.9497 212.626 28.1777 213.788 27.42C214.95 26.6623 216.121 25.919 217.302 25.1901C218.482 24.4611 219.671 23.7469 220.869 23.0475C222.067 22.3481 223.273 21.663 224.488 20.9931C225.703 20.3232 226.926 19.6685 228.157 19.0289C229.387 18.3893 230.626 17.7649 231.872 17.1557C233.119 16.5464 234.372 15.9527 235.634 15.3746C236.894 14.7965 238.162 14.2335 239.437 13.6865C240.711 13.1395 241.993 12.608 243.281 12.0925C244.568 11.577 245.862 11.0775 247.163 10.5939C248.463 10.1104 249.769 9.64275 251.081 9.19149C252.393 8.74024 253.71 8.30495 255.032 7.88601C256.354 7.46707 257.682 7.0645 259.014 6.67828C260.347 6.29206 261.683 5.9222 263.025 5.5691C264.366 5.21559 265.712 4.87925 267.061 4.55886C268.411 4.23848 269.764 3.93525 271.122 3.64838C272.479 3.3615 273.84 3.09139 275.204 2.83843C276.568 2.58508 277.934 2.34888 279.304 2.12904C280.674 1.90959 282.046 1.70691 283.421 1.52098C284.795 1.33505 286.172 1.16628 287.551 1.01466C288.93 0.862649 290.311 0.728191 291.693 0.610091C293.075 0.49239 294.458 0.391448 295.843 0.307661C297.227 0.223874 298.613 0.157243 299.999 0.107769C301.385 0.0582943 302.772 0.0255761 304.159 0.0104146C305.547 -0.00514585 306.934 -0.00315072 308.32 0.0156016C309.708 0.034354 311.095 0.0702645 312.481 0.12333C313.84 0.164026 315.199 0.221879 316.557 0.296489C317.915 0.3711 319.272 0.462466 320.627 0.57099C321.983 0.679515 323.338 0.804398 324.691 0.946437C326.043 1.08848 327.394 1.24727 328.743 1.42323C330.091 1.59878 331.438 1.79149 332.782 2.00056C334.125 2.20963 335.466 2.43546 336.805 2.67804C338.143 2.92062 339.478 3.17957 340.81 3.45566C342.141 3.73136 343.47 4.02382 344.795 4.33264C346.119 4.64145 347.44 4.96663 348.756 5.30856C350.073 5.65009 351.385 6.00838 352.693 6.38263C354 6.75688 355.303 7.14749 356.601 7.55445C357.898 7.96142 359.191 8.38395 360.478 8.82323C361.766 9.26212 363.047 9.71696 364.323 10.1882C365.599 10.6594 366.869 11.1457 368.133 11.6481C369.397 12.1504 370.654 12.6687 371.905 13.2025C373.156 13.7363 374.4 14.2854 375.637 14.8503C376.874 15.4149 378.104 15.995 379.327 16.5903C380.55 17.1856 381.766 17.796 382.973 18.4217C384.181 19.0473 385.381 19.6876 386.573 20.3432C387.764 20.9987 388.948 21.6686 390.123 22.3537C391.298 23.0387 392.464 23.7377 393.622 24.4519C394.78 25.1657 395.928 25.8943 397.068 26.6368C398.207 27.3793 399.337 28.1358 400.458 28.9066C401.579 29.6775 402.69 30.4619 403.791 31.2598C404.892 32.0582 405.984 32.8701 407.064 33.6953C408.145 34.5208 409.216 35.3594 410.276 36.2117C411.336 37.0639 412.385 37.9289 413.424 38.8071C414.463 39.6852 415.491 40.5762 416.507 41.4799C417.523 42.3836 418.528 43.3001 419.521 44.2289C420.515 45.1577 421.497 46.0986 422.467 47.0517C423.437 48.0049 424.395 48.9701 425.341 49.9472C426.288 50.9243 427.222 51.913 428.143 52.9132C471.229 99.1757 483.162 162.903 480.913 224.184C479.408 265.157 469.077 304.209 473.815 345.489C475.918 363.818 480.676 382.089 486.599 399.532C490.009 409.572 493.945 419.438 497.189 429.533C507.349 461.165 514.709 491.415 518.456 524.464C518.605 526.319 518.738 528.175 518.856 530.033C518.973 531.89 519.075 533.749 519.161 535.608C519.247 537.467 519.317 539.327 519.371 541.187C519.425 543.047 519.464 544.908 519.487 546.768C519.509 548.629 519.516 550.491 519.508 552.352C519.499 554.213 519.475 556.074 519.434 557.935C519.394 559.795 519.338 561.656 519.265 563.515C519.194 565.375 519.106 567.234 519.003 569.093C518.899 570.95 518.78 572.807 518.645 574.664C518.51 576.52 518.359 578.375 518.193 580.229C518.026 582.083 517.844 583.935 517.646 585.785C517.449 587.636 517.235 589.485 517.006 591.332C516.777 593.179 516.532 595.023 516.271 596.866C516.011 598.709 515.734 600.55 515.443 602.388C515.151 604.226 514.844 606.061 514.521 607.894C514.198 609.727 513.86 611.557 513.506 613.384C513.152 615.211 512.783 617.036 512.398 618.857C512.013 620.677 511.613 622.495 511.197 624.309C510.781 626.123 510.35 627.933 509.904 629.74C509.458 631.546 508.996 633.349 508.518 635.148C508.042 636.947 507.549 638.742 507.042 640.533C506.535 642.324 506.012 644.11 505.474 645.891C504.936 647.673 504.383 649.45 503.816 651.222C503.248 652.995 502.665 654.762 502.067 656.524C501.47 658.287 500.857 660.045 500.229 661.797C499.601 663.549 498.959 665.295 498.301 667.036C497.644 668.778 496.973 670.513 496.285 672.243C495.598 673.973 494.897 675.697 494.182 677.415C493.465 679.132 492.734 680.844 491.99 682.549C491.245 684.255 490.485 685.954 489.711 687.646C488.938 689.339 488.15 691.025 487.347 692.704C486.545 694.383 485.728 696.056 484.897 697.721C480.163 707.381 474.446 716.279 469.274 725.662C457.223 725.912 445.102 725.571 433.043 725.568L363.504 725.515C364.821 721.058 366.816 716.629 368.382 712.233C371.193 704.292 373.767 696.276 376.104 688.183C378.977 677.959 381.598 667.672 383.969 657.32C386.34 646.968 388.456 636.565 390.319 626.11C392.182 615.655 393.79 605.161 395.141 594.627C396.492 584.094 397.586 573.534 398.422 562.947C393.785 565.853 389.357 569.136 384.627 571.882C364.921 583.325 344.961 589.047 322.477 591.73C301.502 593.036 281.407 591.917 261.075 586.132C225.743 576.08 196.566 552.789 177.075 521.908C171.952 513.79 168.162 505.117 163.515 496.757C155.122 499.998 96.9613 524.666 94.8547 524.405C94.4453 523.452 94.5602 523.952 94.5195 522.9Z" fill="#091012"/>
<path d="M167.08 291.334C168.943 290.207 170.694 287.753 173.023 287.75C176.207 289.818 179.383 291.877 182.459 294.101C188.747 300.844 195.627 308.423 195.491 318.301C194.907 321.944 192.837 325.84 190.505 328.647C190.276 328.927 190.039 329.201 189.796 329.469C189.552 329.737 189.302 329.999 189.045 330.254C188.789 330.509 188.525 330.758 188.256 331C187.986 331.242 187.711 331.477 187.43 331.705C187.149 331.933 186.862 332.154 186.569 332.368C186.276 332.581 185.979 332.787 185.676 332.985C185.373 333.184 185.065 333.375 184.752 333.558C184.44 333.741 184.123 333.916 183.802 334.082C183.48 334.249 183.154 334.407 182.825 334.558C182.495 334.708 182.162 334.85 181.825 334.984C181.489 335.117 181.149 335.242 180.806 335.359C180.463 335.475 180.117 335.582 179.769 335.681C179.42 335.78 179.07 335.869 178.717 335.95C178.364 336.031 178.009 336.103 177.652 336.166C177.296 336.229 176.938 336.284 176.578 336.328C176.219 336.373 175.859 336.409 175.498 336.436C175.132 336.464 174.767 336.483 174.401 336.492C174.035 336.502 173.669 336.503 173.303 336.494C172.937 336.485 172.571 336.467 172.206 336.44C171.841 336.414 171.477 336.378 171.113 336.332C170.75 336.287 170.389 336.232 170.028 336.169C169.667 336.106 169.308 336.033 168.951 335.952C168.594 335.871 168.24 335.78 167.887 335.681C167.535 335.582 167.185 335.474 166.838 335.357C166.491 335.24 166.147 335.115 165.807 334.981C165.466 334.847 165.129 334.704 164.796 334.554C164.462 334.402 164.133 334.243 163.807 334.076C163.482 333.908 163.16 333.732 162.843 333.549C162.526 333.365 162.214 333.174 161.908 332.974C161.6 332.775 161.298 332.568 161.002 332.354C160.705 332.14 160.414 331.918 160.128 331.689C159.843 331.46 159.563 331.224 159.289 330.981C159.025 330.744 158.766 330.501 158.514 330.252C158.262 330.002 158.016 329.746 157.777 329.484C157.538 329.223 157.305 328.955 157.08 328.682C156.854 328.408 156.635 328.128 156.424 327.843C156.212 327.558 156.008 327.268 155.812 326.973C155.615 326.678 155.426 326.378 155.244 326.073C155.063 325.768 154.889 325.459 154.723 325.145C154.557 324.831 154.4 324.514 154.25 324.193C154.101 323.871 153.959 323.545 153.825 323.217C153.693 322.888 153.568 322.556 153.451 322.22C153.335 321.886 153.227 321.548 153.128 321.207C153.029 320.866 152.938 320.524 152.857 320.179C152.775 319.833 152.702 319.486 152.638 319.137C152.574 318.789 152.519 318.438 152.472 318.086C152.426 317.735 152.388 317.382 152.36 317.028C152.331 316.675 152.312 316.321 152.301 315.966C152.083 304.978 160.044 298.407 167.08 291.334Z" fill="#F9A612"/>
<path d="M435.892 287.379C433.71 286.224 431.973 284.633 431.013 282.297C430.514 281.084 430.571 279.756 431.113 278.566C431.963 276.701 433.806 275.228 435.7 274.525C437.9 273.71 440.535 273.855 442.643 274.883C444.04 275.565 445.093 276.629 445.572 278.123C446.529 281.105 445.322 284.377 443.958 287.002L443.739 287.179C451.361 294.262 457.848 302.691 458.326 313.518C458.565 318.921 457.234 324.361 453.381 328.341C449.451 332.403 443.799 334.016 438.274 333.962C433.245 333.912 428.332 332.48 424.725 328.802C422.426 326.459 420.651 323.125 419.942 319.903C418.801 311.531 422.054 304.889 426.071 297.786C426.103 294.225 426.692 290.27 427.366 286.779C429.674 288.083 431.022 289.137 433.779 288.524L435.892 287.379Z" fill="#F9A612"/>
<path d="M427.365 286.797C429.674 288.101 431.022 289.155 433.779 288.542C430.756 291.241 428.448 294.545 426.07 297.804C426.102 294.242 426.692 290.288 427.365 286.797Z" fill="#091012"/>
<path d="M166.102 282.612C161.664 277.538 157.905 268.172 155.307 261.794C150.101 249.013 142.894 226.297 148.604 213.348C150.299 209.505 153.338 206.429 157.304 204.949C162.8 202.898 167.537 204.469 172.553 206.834L173.096 206.41C173.636 208.337 173.422 210.751 173.597 212.777C174.029 217.519 174.499 222.258 175.007 226.993L179.026 261.516C179.614 266.947 180.475 272.627 180.46 278.091C181.37 283.223 182.168 288.903 182.456 294.104C179.38 291.879 176.204 289.82 173.02 287.753C170.691 287.756 168.94 290.209 167.077 291.337L167.172 283.77L166.102 282.612Z" fill="#A9622E"/>
<path d="M166.102 282.604C165.911 280.487 165.621 278.122 166.534 276.131C167.393 274.257 168.806 272.688 170.816 272.065C172.484 271.548 174.215 271.744 175.735 272.598C178.08 273.915 179.218 275.75 179.97 278.252C179.981 283.38 177.287 282.475 176.022 286.145C174.779 286.508 173.871 286.686 173.021 287.745C170.693 287.748 168.941 290.202 167.079 291.329L167.173 283.762L166.102 282.604Z" fill="#F9A612"/>
<path d="M167.173 283.766C169.904 285.906 172.709 285.832 176.021 286.148C174.779 286.511 173.871 286.689 173.021 287.748C170.692 287.751 168.941 290.205 167.078 291.332L167.173 283.766Z" fill="#C15A18"/>
<path d="M433.979 210.304C434.128 210.251 434.283 210.211 434.428 210.147C435.859 209.515 437.108 208.167 438.366 207.232C443.141 203.682 448.025 202.154 453.893 204.154C458.172 205.612 462.083 208.816 463.976 212.966C469.11 224.222 457.738 262.615 453.019 274.332C451.599 277.859 448.71 284.834 445.106 286.591C444.549 286.863 444.49 286.857 443.956 287.004C445.32 284.379 446.528 281.107 445.571 278.125C445.092 276.631 444.039 275.567 442.641 274.886C440.534 273.857 437.898 273.712 435.699 274.527C433.804 275.23 431.961 276.703 431.111 278.569C430.57 279.758 430.513 281.086 431.011 282.299C431.972 284.635 433.709 286.226 435.89 287.381L433.777 288.527C431.02 289.14 429.672 288.086 427.363 286.782L431.569 241.881C432.544 231.486 433.984 220.739 433.979 210.304Z" fill="#A9622E"/>
<path d="M245.202 388.558C261.71 401.536 283.421 415.314 304.917 415.985C326.82 416.668 351.205 401.142 366.676 386.461C366.768 392.9 366.793 399.339 366.753 405.778L366.681 465.315C378.672 469.682 390.492 474.52 402.485 478.904L401.408 512.015C401.27 516.481 401.718 522.043 400.815 526.326C400.254 538.387 400.156 551.01 398.418 562.945C393.782 565.851 389.354 569.134 384.624 571.88C364.917 583.323 344.957 589.045 322.473 591.728C301.498 593.033 281.403 591.915 261.071 586.13C225.74 576.078 196.562 552.786 177.072 521.905C171.948 513.788 168.158 505.114 163.512 496.755L185.443 488.04C205.553 480.745 225.458 472.151 245.253 464.024C245.239 461.896 245.251 459.768 245.288 457.64C244.589 450.28 245.068 442.441 245.057 435.034C245.02 419.541 245.068 404.049 245.202 388.558Z" fill="#D1833F"/>
<path d="M245.201 388.558C261.709 401.536 283.42 415.314 304.916 415.985C326.819 416.668 351.204 401.142 366.675 386.461C366.767 392.9 366.793 399.339 366.752 405.778C347.846 421.028 326.038 436.178 300.446 433.342C279.974 431.074 259.839 417.608 245.5 403.484C245.418 415.695 245.411 427.905 245.477 440.116C245.486 445.775 246.012 452.049 245.288 457.639C244.588 450.279 245.067 442.44 245.057 435.034C245.019 419.541 245.067 404.049 245.201 388.558Z" fill="#A9622E"/>
<path d="M185.443 488.039C187.703 494.847 191.065 500.951 194.747 507.07C207.324 527.967 224.628 545.662 246.585 556.684C276.956 571.93 317.875 574.162 350.138 563.396C365.705 558.201 380.611 549.264 391.884 537.252C394.901 534.037 397.387 528.855 400.815 526.325C400.254 538.386 400.156 551.01 398.418 562.945C393.782 565.851 389.354 569.134 384.624 571.88C364.917 583.323 344.957 589.045 322.473 591.728C301.498 593.033 281.403 591.915 261.071 586.13C225.74 576.077 196.562 552.786 177.072 521.905C171.948 513.787 168.158 505.114 163.512 496.755L185.443 488.039Z" fill="#F9A612"/>
<path d="M172.512 199.265C182.494 193.088 192.57 187.026 202.258 180.391C210.792 174.498 219.157 168.375 227.354 162.022C235.552 155.669 243.568 149.096 251.404 142.302C259.24 135.509 266.884 128.506 274.335 121.293C281.786 114.079 289.033 106.667 296.077 99.0547C304.035 107.216 311.862 115.5 320.161 123.32C346.124 147.786 375.595 169.648 407.842 185.096C416.566 189.275 425.873 193.705 435.302 196.028C434.845 200.778 434.287 205.545 433.98 210.305C433.985 220.74 432.544 231.487 431.57 241.882L427.364 286.782C426.691 290.273 426.101 294.228 426.069 297.789C422.052 304.892 418.8 311.534 419.94 319.907C416.559 325.976 413.621 332.288 410.14 338.301C402.639 351.259 392.828 363.138 382.064 373.516C377.256 378.153 371.316 381.76 366.675 386.457C351.203 401.137 326.818 416.664 304.915 415.981C283.42 415.31 261.709 401.532 245.2 388.554C232.223 377.595 220.91 363.764 212.075 349.279C207.718 342.136 203.378 334.387 199.856 326.813C198.819 324.582 197.341 319.578 195.487 318.292C195.623 308.414 188.743 300.834 182.455 294.092C182.167 288.891 181.369 283.211 180.458 278.08C180.473 272.615 179.612 266.935 179.025 261.504L175.005 226.981C174.498 222.246 174.028 217.507 173.596 212.765C173.421 210.739 173.634 208.325 173.094 206.398C172.925 204.033 172.842 201.611 172.512 199.265Z" fill="#D1833F"/>
<path d="M226.299 237.696C229.827 236.846 233.467 236.089 237.088 235.781C233.618 239.993 231.061 243.948 231.533 249.694C231.814 253.12 233.258 256.142 235.56 258.657C234.657 258.552 234.029 258.333 233.223 257.907C229.263 255.814 226.433 252.566 225.15 248.23C224.067 244.571 224.408 241.006 226.299 237.696Z" fill="#FEFEFE"/>
<path d="M377.711 236.053C381.772 235.942 385.929 237.328 390.036 237.524C390.126 243.397 389.443 248.979 385.262 253.521C383.737 255.176 380.742 257.308 378.43 257.394C380.227 254.812 381.495 252.272 381.876 249.105C382.472 244.149 380.687 239.887 377.711 236.053Z" fill="#FEFEFE"/>
<path d="M214.898 235.245C221.474 234.558 226.357 231.668 232.505 229.651C240.908 226.893 250.688 228.385 257.588 234.01C260.583 236.452 264.165 240.553 264.463 244.535C264.492 244.928 264.464 245.13 264.441 245.546C263.92 244.622 263.387 243.702 262.78 242.831C259.979 238.816 256.415 237.56 251.792 236.767C247.405 234.387 241.79 234.428 237.085 235.77C233.464 236.077 229.824 236.834 226.295 237.684C222.053 237.947 218.725 236.982 214.898 235.245Z" fill="url(#paint0_linear_2_79642)"/>
<path d="M347.991 244.309C347.989 243.727 347.966 243.866 348.089 243.19C348.877 238.852 354.349 233.941 357.876 231.516C365.172 226.5 373.898 225.722 382.068 229.03C387.267 231.135 391.263 233.559 396.896 234.559L396.765 235.251C395.081 236.946 392.308 237.236 390.036 237.533C385.928 237.338 381.771 235.951 377.71 236.062C377.285 235.54 377.21 235.349 376.564 235.065C373.399 233.668 365.06 233.432 361.836 234.679L361.565 235.345C356.874 236.211 352.134 238.081 349.31 242.157C348.831 242.848 348.409 243.58 347.991 244.309Z" fill="#2F190B"/>
<path d="M302.403 170.295C304.424 170.191 306.215 170.175 308.137 170.894C310.682 171.847 312.792 173.722 313.873 176.232C314.007 176.545 314.124 176.864 314.225 177.19C314.326 177.515 314.411 177.844 314.478 178.178C314.546 178.512 314.595 178.849 314.628 179.188C314.66 179.526 314.676 179.866 314.674 180.207C314.672 180.547 314.652 180.887 314.615 181.226C314.578 181.564 314.524 181.9 314.452 182.233C314.38 182.566 314.292 182.894 314.187 183.218C314.082 183.542 313.96 183.859 313.823 184.171C312.373 187.412 309.922 188.813 306.793 190.07C306.254 190.131 305.713 190.155 305.17 190.143C304.627 190.13 304.088 190.081 303.552 189.996C303.016 189.911 302.487 189.79 301.967 189.633C301.448 189.477 300.94 189.286 300.447 189.061C300.131 188.917 299.822 188.759 299.522 188.584C299.222 188.41 298.932 188.222 298.65 188.018C298.369 187.815 298.098 187.599 297.838 187.369C297.578 187.14 297.33 186.897 297.093 186.643C296.858 186.388 296.635 186.122 296.425 185.846C296.215 185.569 296.02 185.283 295.838 184.987C295.657 184.692 295.491 184.387 295.34 184.075C295.189 183.762 295.053 183.443 294.934 183.118C294.825 182.818 294.732 182.513 294.654 182.203C294.577 181.894 294.515 181.581 294.469 181.264C294.423 180.949 294.393 180.631 294.38 180.312C294.366 179.993 294.369 179.674 294.388 179.356C294.406 179.037 294.441 178.721 294.492 178.406C294.543 178.09 294.61 177.779 294.693 177.47C294.775 177.162 294.873 176.859 294.987 176.56C295.101 176.262 295.229 175.97 295.372 175.685C296.848 172.752 299.37 171.249 302.403 170.295Z" fill="#C10F2A"/>
<path d="M296.396 258.227L301.99 258.302C300.025 273.725 297.505 289.735 297.208 305.28L297.32 305.477C297.878 306.486 298.425 307.518 299.157 308.414C303.329 313.526 308.634 311.692 314.349 312.099C314.677 312.655 314.805 313.041 314.825 313.691C314.861 314.933 314.977 315.184 314.122 316.074C311.366 316.953 308.564 317.591 305.652 317.518C301.454 317.412 297.655 315.707 294.863 312.553C294.619 312.274 294.385 311.987 294.162 311.691C293.939 311.395 293.727 311.09 293.528 310.778C293.328 310.466 293.141 310.147 292.965 309.82C292.79 309.493 292.627 309.16 292.477 308.821C292.327 308.482 292.191 308.138 292.067 307.789C291.943 307.44 291.833 307.086 291.736 306.728C291.639 306.37 291.556 306.009 291.487 305.645C291.417 305.28 291.362 304.914 291.321 304.546C290.739 299.577 292.051 293.834 292.692 288.888C294.008 278.737 295.687 268.427 296.396 258.227Z" fill="#A9622E"/>
<path d="M237.084 235.772C241.789 234.43 247.404 234.389 251.791 236.769C256.414 237.562 259.978 238.819 262.779 242.833C263.387 243.704 263.919 244.625 264.441 245.548C264.051 249.557 263.081 252.659 259.862 255.381C257.808 257.117 255.056 258.363 252.446 258.951C250.79 259.873 249.104 260.747 247.25 261.193C242.778 262.27 239.324 260.976 235.556 258.648C233.254 256.133 231.81 253.111 231.529 249.685C231.057 243.939 233.614 239.984 237.084 235.772Z" fill="#091012"/>
<path d="M247.232 237.938C248.058 238.139 249.084 238.375 249.723 238.978C250.366 239.585 250.759 240.387 250.644 241.28C250.467 242.648 249.459 243.57 248.535 244.487C247.625 244.346 246.63 244.278 245.93 243.604C245.222 242.922 244.813 242.247 244.888 241.23C245.007 239.605 246.021 238.814 247.232 237.938Z" fill="#FEFEFE"/>
<path d="M251.793 236.766C256.416 237.558 259.98 238.815 262.781 242.83C263.388 243.701 263.921 244.621 264.442 245.545C264.053 249.554 263.083 252.655 259.864 255.378C257.809 257.113 255.058 258.359 252.448 258.948C252.763 258.628 253.063 258.296 253.349 257.951C253.635 257.606 253.906 257.249 254.161 256.881C254.415 256.513 254.654 256.134 254.878 255.745C255.1 255.357 255.306 254.959 255.494 254.552C255.683 254.145 255.853 253.732 256.006 253.311C256.159 252.889 256.294 252.462 256.41 252.03C256.527 251.597 256.624 251.16 256.703 250.719C256.781 250.278 256.841 249.834 256.881 249.388C257.327 244.178 254.998 240.564 251.793 236.766Z" fill="#FEFEFE"/>
<path d="M361.572 235.346L361.843 234.68C365.067 233.432 373.406 233.669 376.571 235.065C377.216 235.35 377.292 235.541 377.717 236.063C380.693 239.897 382.478 244.159 381.882 249.115C381.501 252.283 380.233 254.823 378.437 257.404C374.109 260.414 370.372 261.232 365.111 260.218C364.453 260.087 363.8 259.934 363.153 259.756C362.959 259.763 362.766 259.775 362.572 259.776C358.675 259.801 353.598 256.935 351.085 254.14C348.283 251.025 347.74 248.311 347.999 244.31C348.416 243.581 348.839 242.849 349.318 242.158C352.141 238.082 356.882 236.212 361.572 235.346Z" fill="#091012"/>
<path d="M360.844 238.728C361.037 238.723 361.23 238.712 361.422 238.711C362.633 238.707 363.792 238.769 364.606 239.81C365.182 240.544 365.359 241.35 365.178 242.259C364.93 243.497 364.258 244.099 363.337 244.868C362.023 244.926 360.861 245.043 359.809 244.086C359.118 243.457 358.896 242.634 358.965 241.723C359.062 240.454 360.014 239.581 360.844 238.728Z" fill="#B5B3B1"/>
<path d="M347.995 244.307C348.412 243.579 348.835 242.847 349.314 242.156C352.138 238.08 356.878 236.21 361.569 235.344C358.36 239.631 355.004 243.247 355.697 249.063C356.169 253.03 358.488 256.33 361.64 258.698C362.133 259.063 362.636 259.415 363.149 259.754C362.955 259.761 362.762 259.774 362.568 259.774C358.671 259.799 353.594 256.934 351.081 254.138C348.279 251.023 347.736 248.31 347.995 244.307Z" fill="#FEFEFE"/>
<path d="M232.677 196.647C232.729 196.639 232.781 196.625 232.832 196.621C248.558 195.28 265.919 200.287 278.68 209.547C276.776 212.321 274.601 214.847 272.296 217.29C259.929 213.073 251.433 207.456 237.622 206.468C236.316 206.343 235.008 206.293 233.697 206.32C219.273 206.565 207.018 212.928 197.09 223.124C197.954 218.606 199.164 214.774 202.038 211.115C209.209 201.986 221.562 197.892 232.677 196.647Z" fill="#2F190B"/>
<path d="M369.945 196.289C372.101 196.296 374.281 196.38 376.435 196.501C386.8 197.084 399.598 201.807 406.547 209.8C409.444 213.131 412.076 217.556 411.762 222.098C411.634 222.145 411.506 222.289 411.379 222.24C410.651 221.962 408.591 219.366 407.864 218.698C406.127 217.099 404.305 215.661 402.306 214.403C394.58 209.541 385.924 207.568 376.924 206.859C362.547 205.881 350.092 210.985 337.701 217.647C334.951 215.458 332.466 213.051 330.102 210.454C341.226 201.065 355.617 196.874 369.945 196.289Z" fill="#2F190B"/>
<path d="M294.896 341.035C308.37 339.578 324.949 341.699 338.509 343.257C331.998 349.278 325.521 354.871 317.48 358.781C317.173 358.934 316.868 359.09 316.555 359.227C309.138 362.489 301.216 362.534 293.715 359.51C286.483 356.595 279.994 351.277 276.883 344.02C282.88 342.993 288.852 341.759 294.896 341.035Z" fill="#C10F2A"/>
<defs>
<linearGradient id="paint0_linear_2_79642" x1="239.756" y1="239.984" x2="241.799" y2="228.572" gradientUnits="userSpaceOnUse">
<stop stop-color="#1E1208"/>
<stop offset="1" stop-color="#3B1F0E"/>
</linearGradient>
</defs>
</svg>
